<svg width="16" height="16" viewBox="0 0 16 16" fill="none" xmlns="http://www.w3.org/2000/svg">
    <g clip-path="url(#juntmupsea)">
        <path d="M12.147 4.533h-1.094c-.586 0-1.04.48-1.04 1.067v6.933H4.92c-.72 0-1.307.587-1.307 1.307v.587c0 .72.587 1.306 1.307 1.306h7.227a1.07 1.07 0 0 0 1.066-1.066V5.573c0-.56-.48-1.04-1.066-1.04zM11.347.267h.533c.427 0 .8.346.8.8v1.6c0 .426-.347.8-.8.8h-.533a.802.802 0 0 1-.8-.8v-1.6c0-.454.346-.8.8-.8z" fill="#28CBFF"/>
        <path d="m14.537 15.45.792-.793-6.392-6.392-.792.792 6.392 6.392z" fill="#000"/>
        <path d="M5.48 3.467H3.853c-.426 0-.826.16-1.12.48L.68 6.133v2.4l2.053 1.92c.294.294.694.48 1.12.48H5.48c.88 0 1.573-.72 1.573-1.6V5.067c.027-.88-.693-1.6-1.573-1.6z" fill="#fff"/>
        <path d="M11.08 4.267c-.72 0-1.307.586-1.333 1.333v3.093l-.614-.613a.258.258 0 0 0-.373 0l-.8.8a.258.258 0 0 0 0 .373l1.787 1.787v1.227H4.92c-.88 0-1.573.72-1.573 1.573v.587c0 .88.72 1.573 1.573 1.573h7.227c.693 0 1.253-.533 1.306-1.227l.88.88a.258.258 0 0 0 .374 0l.8-.8a.258.258 0 0 0 0-.373l-2.027-2.053V5.6c0-.72-.587-1.307-1.333-1.333H11.08zm1.867 10.4c0 .426-.347.773-.8.8H4.92c-.587 0-1.04-.48-1.04-1.04v-.587c0-.587.48-1.04 1.04-1.04h5.093c.16 0 .267-.107.267-.267v-.96l2.667 2.667v.427zm1.6.426L8.52 9.067l.427-.427 6.026 6.027-.426.426zm-1.6-9.493v6.293L10.28 9.227V5.6c0-.427.347-.773.8-.8h1.093a.78.78 0 0 1 .774.8zM11.88 3.733a1.07 1.07 0 0 0 1.067-1.066v-1.6A1.07 1.07 0 0 0 11.88 0h-.533a1.07 1.07 0 0 0-1.067 1.067v1.6c0 .586.48 1.066 1.067 1.066h.533zm-1.067-1.066v-1.6c0-.294.24-.534.534-.534h.533c.293 0 .533.24.533.534v1.6c0 .293-.24.533-.533.533h-.533a.535.535 0 0 1-.534-.533z" fill="#000"/>
        <path d="M2.547 10.667c.346.346.826.533 1.306.533H5.48a1.85 1.85 0 0 0 1.84-1.867V5.067c0-1.014-.827-1.84-1.867-1.867H3.827c-.507 0-.987.187-1.334.56L.44 5.947c0 .053-.027.106-.027.186v2.4c0 .08.027.134.08.187l2.054 1.947zM.947 6.24 2.92 4.133c.24-.24.587-.4.933-.4H5.48c.72 0 1.307.587 1.307 1.334V9.36c0 .72-.587 1.307-1.334 1.307H3.827c-.347 0-.694-.134-.934-.4L.92 8.4V6.24h.027z" fill="#000"/>
        <path d="m2.073 7.105 1.088-.362a.267.267 0 0 0-.169-.506l-1.088.362a.267.267 0 0 0 .169.506zM1.906 8.069l1.088.362a.267.267 0 1 0 .169-.506l-1.088-.362a.267.267 0 1 0-.169.506z" fill="#000"/>
    </g>
    <defs>
        <clipPath id="juntmupsea">
            <path fill="#fff" d="M0 0h16v16H0z"/>
        </clipPath>
    </defs>
</svg>
