<svg xmlns="http://www.w3.org/2000/svg" width="181" height="181" viewBox="0 0 181 181">
    <defs>
        <clipPath id="clip-path">
            <path id="Path_26030" fill="none" d="M874.855 1160.247h-81.119a11.667 11.667 0 0 0-11.667 11.667v53.7h81.119v-53.7a11.667 11.667 0 0 1 11.667-11.667z" transform="translate(-782.069 -1160.247)"/>
        </clipPath>
        <style>
            .cls-8{fill:none}.cls-3{fill:#6b6b6b;opacity:.33}.cls-5{fill:#fff}.cls-8{stroke-linecap:round;stroke:#263238;stroke-width:15px}.cls-9{fill:#e3efff}.cls-13{fill:#ff2950}
        </style>
    </defs>
    <g id="Group_10458" transform="translate(-108 -203)">
        <circle id="Ellipse_1469" cx="90.5" cy="90.5" r="90.5" fill="#e5f2f8" transform="translate(108 203)"/>
        <g id="Group_10457" transform="translate(2.438 6.289)">
            <path id="Path_26025" d="M810.126 704.424a29.767 29.767 0 0 0-6.607-5.672v-32.521a5.794 5.794 0 0 0-5.794-5.794h-83.136a5.794 5.794 0 0 0-5.794 5.794v88.58a5.794 5.794 0 0 0 5.794 5.794h83.135a5.794 5.794 0 0 0 5.794-5.794v-11.927a20.6 20.6 0 0 0 6.293-3.659c9.71-8.255 9.85-23.836.315-34.801z" class="cls-3" transform="translate(-555.436 -419.755)"/>
            <path id="Path_26026" fill="#e0e0e0" d="M672.415 530.113h16.707a5.794 5.794 0 0 1 5.794 5.794v88.58a5.794 5.794 0 0 1-5.794 5.794h-83.136a5.794 5.794 0 0 1-5.794-5.794v-88.58a5.794 5.794 0 0 1 5.794-5.794h66.428z" transform="translate(-454.929 -299.146)"/>
            <path id="Path_26027" d="M647.082 530.113h16.707a5.794 5.794 0 0 1 5.794 5.794v88.58a5.794 5.794 0 0 1-5.794 5.794h-83.136a5.794 5.794 0 0 1-5.794-5.794v-88.58a5.794 5.794 0 0 1 5.794-5.794h66.428z" class="cls-5" transform="translate(-431.485 -299.146)"/>
            <path id="Path_26028" fill="#ff4242" d="M647.082 530.113h16.707a5.794 5.794 0 0 1 5.794 5.794v20.333h-94.724v-20.333a5.794 5.794 0 0 1 5.794-5.794h66.428z" transform="translate(-431.485 -299.146)"/>
            <path id="Path_26034" fill="none" stroke="#ff8585" stroke-linecap="round" stroke-width="12px" d="M36.219 0H0" transform="translate(172.627 245.666)"/>
            <path id="Path_26035" d="M0 9.035V0" class="cls-8" transform="translate(224.269 227.658)"/>
            <path id="Path_26036" d="M0 9.035V0" class="cls-8" transform="translate(157.203 227.658)"/>
            <path id="Path_26037" d="M.85 0h10.127a.85.85 0 0 1 .85.85v10.127a.85.85 0 0 1-.85.85H.85a.85.85 0 0 1-.85-.85V.85A.85.85 0 0 1 .85 0z" class="cls-9" transform="translate(174.364 267.761)"/>
            <path id="Path_26038" d="M.85 0h10.127a.85.85 0 0 1 .85.85v10.127a.85.85 0 0 1-.85.85H.85a.85.85 0 0 1-.85-.85V.85A.85.85 0 0 1 .85 0z" class="cls-9" transform="translate(195.334 267.761)"/>
            <path id="Path_26039" d="M.85 0h10.127a.85.85 0 0 1 .85.85v10.127a.85.85 0 0 1-.85.85H.85a.85.85 0 0 1-.85-.85V.85A.85.85 0 0 1 .85 0z" class="cls-9" transform="translate(216.304 267.761)"/>
            <path id="Path_26040" d="M.85 0h10.127a.85.85 0 0 1 .85.85v10.127a.85.85 0 0 1-.85.85H.85a.85.85 0 0 1-.85-.85V.85A.85.85 0 0 1 .85 0z" class="cls-9" transform="translate(153.394 289.096)"/>
            <path id="Path_26041" d="M.85 0h10.127a.85.85 0 0 1 .85.85v10.127a.85.85 0 0 1-.85.85H.85a.85.85 0 0 1-.85-.85V.85A.85.85 0 0 1 .85 0z" class="cls-9" transform="translate(174.364 289.096)"/>
            <path id="Path_26042" d="M.85 0h10.127a.85.85 0 0 1 .85.85v10.127a.85.85 0 0 1-.85.85H.85a.85.85 0 0 1-.85-.85V.85A.85.85 0 0 1 .85 0z" class="cls-9" transform="translate(195.334 289.096)"/>
            <path id="Path_26043" fill="#e3e1d2" d="M.85 0h10.127a.85.85 0 0 1 .85.85v10.127a.85.85 0 0 1-.85.85H.85a.85.85 0 0 1-.85-.85V.85A.85.85 0 0 1 .85 0z" transform="translate(216.304 289.096)"/>
            <path id="Path_26044" d="M.85 0h10.127a.85.85 0 0 1 .85.85v10.127a.85.85 0 0 1-.85.85H.85a.85.85 0 0 1-.85-.85V.85A.85.85 0 0 1 .85 0z" class="cls-9" transform="translate(153.394 310.431)"/>
            <path id="Path_26045" d="M.85 0h10.127a.85.85 0 0 1 .85.85v10.127a.85.85 0 0 1-.85.85H.85a.85.85 0 0 1-.85-.85V.85A.85.85 0 0 1 .85 0z" class="cls-9" transform="translate(174.364 310.431)"/>
            <path id="Path_26046" fill="#ff5959" d="M.85 0h10.127a.85.85 0 0 1 .85.85v10.127a.85.85 0 0 1-.85.85H.85a.85.85 0 0 1-.85-.85V.85A.85.85 0 0 1 .85 0z" transform="translate(195.334 310.431)"/>
            <g id="Group_10456" clip-path="url(#clip-path)" transform="translate(158.821 277.94)">
                <path id="Path_26029" d="M1487.978 1047.551c-9.536-10.965-25.137-13.161-34.846-4.906-8.625 7.333-9.7 20.447-3.146 30.971l-2.9 9.685 10.238-1.636c9.441 7.163 22.042 7.743 30.34.688 9.71-8.253 9.85-23.838.314-34.802z" class="cls-3" transform="translate(-1396.284 -1046.785)"/>
            </g>
            <path id="Path_26031" d="M1477.205 1450.86l-13.616 3.97 3.971-13.789z" class="cls-13" transform="translate(-1253.966 -1142.169)"/>
            <path id="Path_26047" d="M24.638 0A24.641 24.641 0 1 1 0 24.641 24.639 24.639 0 0 1 24.638 0z" class="cls-13" transform="rotate(-89.929 261.023 52.436)"/>
            <path id="Path_26032" d="M1714.185 1101.767q.957 0 1.938.074.248.019.5.043a1.911 1.911 0 0 1 1.731 1.742v.016a10.256 10.256 0 0 1-.129 2.745l-.006.037a1.912 1.912 0 0 1-1.719 1.564q-.261.022-.513.041-.916.064-1.806.064t-1.806-.064q-.252-.018-.513-.041a1.912 1.912 0 0 1-1.719-1.565l-.006-.036a10.762 10.762 0 0 1-.156-1.36 10.65 10.65 0 0 1 .027-1.386v-.015a1.911 1.911 0 0 1 1.73-1.742q.256-.024.5-.043.988-.074 1.947-.074zm-5.356-24.887a1.916 1.916 0 0 1 1.747-2.032q.5-.044.988-.067 1.387-.061 2.621-.062t2.591.062q.51.023 1.046.073a1.907 1.907 0 0 1 1.719 2.029l-1.3 19.605a1.909 1.909 0 0 1-1.69 1.773q-.311.034-.594.058-.937.079-1.773.079a22.181 22.181 0 0 1-2.358-.149 1.912 1.912 0 0 1-1.7-1.775z" class="cls-5" transform="translate(-1480.92 -803.154)"/>
        </g>
    </g>
</svg>
