<svg xmlns="http://www.w3.org/2000/svg" id="event" width="18.084" height="18.084" viewBox="0 0 18.084 18.084"><defs><style>.cls-3{fill:#bfc9d1}.cls-6{fill:#efa01a}</style></defs><path id="Path_24825" fill="#e4edfb" d="M14.362 141.563H0V128h18.084v9.841zm0 0" transform="translate(0 -123.479)"/><path id="Path_24826" fill="#d7e1f2" d="M0 128h18.084v2.26H0zm0 0" transform="translate(0 -123.479)"/><path id="Path_24827" d="M65.13 2.26H64V.565a.565.565.0 0 1 1.13.0zm0 0" class="cls-3" transform="translate(-61.74)"/><path id="Path_24828" d="M417.13 2.26H416V.565a.565.565.0 0 1 1.13.0zm0 0" class="cls-3" transform="translate(-401.307)"/><path id="Path_24829" fill="#c8d5e8" d="M406.625 406.625v3.722l3.722-3.722zm0 0" transform="translate(-392.263 -392.263)"/><path id="Path_24830" fill="#07b9e0" d="M18.084 51.956H0V49.13A1.13 1.13.0 0 1 1.13 48h15.824a1.13 1.13.0 0 1 1.13 1.13zm0 0" transform="translate(0 -46.305)"/><path id="Path_24831" d="M132.175 205.367l-2.85-1.445-2.85 1.445.544-3.063-2.332-2.191 3.221-.451 1.417-2.767 1.417 2.767 3.221.451-2.332 2.191zm0 0" class="cls-6" transform="translate(-120.284 -189.94)"/><path id="Path_24832" d="M181.012 280.951l-2.85-1.445-2.85 1.445.544-3.063 3.723-2.642 3.221.451-2.332 2.191zm0 0" class="cls-6" transform="translate(-169.12 -265.524)"/></svg>