<?xml version="1.0"?>
<svg xmlns="http://www.w3.org/2000/svg" xmlns:xlink="http://www.w3.org/1999/xlink" version="1.1" id="Capa_1" x="0px" y="0px" viewBox="0 0 464 464" style="enable-background:new 0 0 464 464;" xml:space="preserve" width="512px" height="512px" class=""><g><g>
	<path style="fill:#83D8EF" d="M356,204l-70.8,23.6L276,204l68-22.664L356,204z" data-original="#55D08F" class="" data-old_color="#55D08F"/>
	<path style="fill:#83D8EF" d="M124,328l72-48l-15.696-24.208l-70.544,47.04L124,328z" data-original="#55D08F" class="" data-old_color="#55D08F"/>
</g><circle style="fill:#0286A4" cx="232" cy="240" r="64" data-original="#83D8EF" class="" data-old_color="#83D8EF"/><g>
	<path style="fill:#83D8EF" d="M112.664,95.336L211.8,195.8c5.524,5.523,5.524,14.479,0.001,20.003   c-0.658,0.658-1.379,1.249-2.153,1.765c-5.609,3.743-13.082,3.003-17.848-1.768l-98.464-99.136L112.664,95.336z" data-original="#55D08F" class="" data-old_color="#55D08F"/>
	<path style="fill:#83D8EF" d="M296,354l-48.472-69.952c-4.192-6.711-2.289-15.54,4.296-19.928   c6.722-4.485,15.807-2.671,20.292,4.051c0.001,0.002,0.002,0.004,0.004,0.005L320,338.664L296,354z" data-original="#55D08F" class="" data-old_color="#55D08F"/>
</g><circle style="fill:#FFBC44" cx="64" cy="72" r="64" data-original="#FFBC44" class="active-path" data-old_color="#0286A4"/><circle style="fill:#0286A4" cx="400" cy="176" r="64" data-original="#FBCC34" class="" data-old_color="#83D8EF"/><circle style="fill:#FFBC44" cx="72" cy="344" r="64" data-original="#FFBC44" class="active-path" data-old_color="#0286A4"/><circle style="fill:#0286A4" cx="328" cy="392" r="64" data-original="#83D8EF" class="" data-old_color="#83D8EF"/></g> </svg>
