<svg xmlns="http://www.w3.org/2000/svg" width="12" height="14" viewBox="0 0 12 14">
    <g fill="#444" fill-rule="evenodd" transform="translate(0 1)">
        <ellipse cx="4.178" cy="5.346" rx="1" ry="1"/>
        <ellipse cx="7.733" cy="5.346" rx="1" ry="1"/>
        <path fill-rule="nonzero" stroke="#444" stroke-width=".2" d="M11.73 5.971C11.733 2.906 9.476.34 6.512.038 3.549-.263.848 1.8.27 4.808c-.577 3.006 1.158 5.973 4.01 6.855.386.552 1.007.88 1.667.88.661 0 1.282-.328 1.667-.88 2.44-.757 4.112-3.069 4.115-5.692zM7.35 8.873a2.007 2.007 0 0 0-2.804 0c-.147-.266-.26-.585-.161-.815.135-.31.69-.48 1.562-.48.872 0 1.446.166 1.574.48.101.227-.02.54-.17.815zm-1.405 3.071c-.818-.002-1.48-.685-1.478-1.526 0-.217.046-.432.135-.629h.014c.099.001.191-.05.244-.136a.302.302 0 0 0 .017-.285 1.45 1.45 0 0 1 1.07-.477c.405 0 .792.173 1.07.477a.302.302 0 0 0 .02.29.283.283 0 0 0 .254.13 1.547 1.547 0 0 1-.298 1.709 1.46 1.46 0 0 1-1.048.447zm2.018-1.091c.102-.505.021-1.031-.228-1.479.247-.375.557-1.005.321-1.56-.236-.556-.932-.827-2.106-.827-1.175 0-1.846.27-2.089.826-.243.556.06 1.184.304 1.56-.252.45-.334.98-.23 1.488C1.91 9.981.653 7.876.802 5.621.95 3.363 2.472 1.453 4.592.86c-.16.244-.245.533-.24.827 0 1.14.83 1.545 1.606 1.545.482 0 1.41-.399 1.41-1.128-.004-.617-.306-.947-.856-.947a.296.296 0 0 0-.269.298c0 .157.117.287.27.298.16 0 .27 0 .27.331 0 .258-.54.531-.832.531-.469 0-1.026-.165-1.026-.947 0-.69.673-.94.95-1.014l.07.006c2.452-.002 4.567 1.773 5.058 4.246.49 2.474-.78 4.96-3.038 5.946h-.002z"/>
    </g>
</svg>
