<svg width="16" height="16" viewBox="0 0 16 16" fill="none" xmlns="http://www.w3.org/2000/svg">
    <g clip-path="url(#o3udnvr1ba)">
        <path d="M-5.246 4.774a4.408 4.408 0 0 1-2.213 1.198m2.213-1.198 13.804 7.063M-5.246 4.774a5.217 5.217 0 0 1 3.69-1.528h4.155c1.046 0 2.067.313 2.933.898l-.224.331m-10.554.3 10.554-.3M-7.459 5.972l.082.391-.082-.391zm0 0a2.27 2.27 0 0 0-1.804 2.22v2.8c0 .417.246.796.628.966l.591.263a.989.989 0 0 0 1.35-.628 1.737 1.737 0 0 1 3.33-.017l.006.018c.197.681.816 1.16 1.533 1.16h9.8c.495 0 .923-.37.98-.872m0 0-.397-.045m.397.045-.397-.045m.397.045c.045-.398.228-.783.55-1.08a1.745 1.745 0 0 1 2.351 0c.3.277.48.632.539 1.003m-3.837.032c.055-.49.28-.965.675-1.329a2.145 2.145 0 0 1 2.894 0c.37.34.59.778.663 1.234m-.395.063.395-.063m-.395.063.395-.063m-.395.063c.087.548.56.949 1.114.949.732 0 1.325-.593 1.325-1.325V9.866a2.864 2.864 0 0 0-2.306-2.81l-.078.393m.34 4.293a.727.727 0 0 0 .719.612.925.925 0 0 0 .925-.925V9.866a2.463 2.463 0 0 0-1.984-2.417m0 0 .078-.392-3.118-.62c-.55-.11-1.096-.414-1.619-.767L5.532 4.144l-.224.331M12.45 7.45 5.308 4.475" fill="#28CBFF" stroke="#000" stroke-width=".8"/>
        <path d="M14.08 8.594a2.464 2.464 0 0 0-1.63-1.145l-1.35-.268a2.464 2.464 0 0 1 1.926 2.403v2.587c.13.114.299.183.482.183a.925.925 0 0 0 .925-.925V9.866c0-.448-.122-.888-.353-1.272z" fill="#28CBFF"/>
        <path d="M1.27 11.006a.228.228 0 0 1-.227-.224L.96 5.1c0-.19.141-.23.227-.23H2.65c1.087 0 1.743.47 2.738 1.182a21.97 21.97 0 0 0 1.709 1.136c.19.112.308.32.308.544v2.798a.476.476 0 0 1-.476.476H1.27zM14.433 9.866c0-.448-.122-.888-.353-1.272l-.014-.022h-.317a.69.69 0 0 0-.69.69V9.8c0 .119.097.214.215.214h1.16v-.148z" fill="#fff"/>
        <path d="M.992 7.244.962 5.1c0-.19.14-.23.226-.23H2.65c1.087 0 1.743.47 2.738 1.182.477.341 1.018.728 1.709 1.136.19.112.308.32.308.544v2.798a.476.476 0 0 1-.476.476H1.27a.228.228 0 0 1-.226-.224l-.03-2.101M14.066 8.572h-.317a.69.69 0 0 0-.69.69V9.8c0 .119.097.214.215.214h1.16" stroke="#000" stroke-width=".8" stroke-miterlimit="10" stroke-linecap="round" stroke-linejoin="round"/>
    </g>
    <defs>
        <clipPath id="o3udnvr1ba">
            <path fill="#fff" d="M0 0h16v16H0z"/>
        </clipPath>
    </defs>
</svg>
