<svg xmlns="http://www.w3.org/2000/svg" width="50" height="50" viewBox="0 0 50 50">
    <g fill="none" fill-rule="nonzero">
        <path fill="#5D9AA4" d="M48.963 45.747h-6.64l.83-14.938h5.81z"/>
        <path fill="#3B869E" d="M48.963 45.747h-6.64l.83-1.66h5.81z"/>
        <path fill="#C3C3C3" d="M17.427 44.917A30.026 30.026 0 0 1 .83 18.062V5.912L17.427.935l16.598 4.979v12.149a30.026 30.026 0 0 1-16.598 26.855z"/>
        <path fill="#CBCBCB" d="M7.091 36.385a29.974 29.974 0 0 0 10.336 8.532 30.026 30.026 0 0 0 16.598-26.855V5.912l-5.22-1.565A70.019 70.019 0 0 1 7.092 36.385z"/>
        <path fill="#DBDBDB" d="M19.518 35.275l-2.09 1.343-2.091-1.343a20.747 20.747 0 0 1-9.528-17.453v-7.76l11.618-4.15 11.619 3.32v8.59c0 7.06-3.59 13.635-9.528 17.453z"/>
        <path fill="#DEDEDE" d="M11.636 32.227a20.753 20.753 0 0 0 3.7 3.048l2.091 1.343 2.09-1.343a20.747 20.747 0 0 0 9.529-17.453v-8.59L27.22 8.71a69.998 69.998 0 0 1-15.584 23.517z"/>
        <path fill="#F6BB92" d="M39.004 29.15L37.344 25v-2.905a2.904 2.904 0 1 0-5.809 0v2.266c0 .422.08.84.238 1.232l1.422 3.556H22.407a2.49 2.49 0 0 0 0 4.98h.83a2.49 2.49 0 0 0 0 4.979h.83a2.49 2.49 0 0 0 0 4.98h.622v.02a2.483 2.483 0 0 0 .207 4.958h14.108l4.98-3.32V30.81l-4.98-1.66z"/>
        <path fill="#FDC9A6" d="M37.344 25v-2.905a2.904 2.904 0 1 0-5.809 0v2.266c0 .422.08.84.238 1.232l1.422 3.556H22.407a2.483 2.483 0 0 0-2.47 2.282c0 .166.008.34.012.529a2.481 2.481 0 0 0 2.458 2.169h.83a2.49 2.49 0 0 0 0 4.979h.83a2.49 2.49 0 0 0 0 4.98h.622v.02a2.452 2.452 0 0 0-2.13 3.299h16.445l4.98-3.32V30.81l-4.98-1.66L37.344 25z"/>
        <path fill="#8DC79D" d="M46.37 27.892l-1.453-.805c.15-.269.29-.544.419-.825l1.507.694c-.146.32-.305.632-.474.936zm1.109-2.58l-1.582-.497c.156-.494.281-.998.373-1.508l1.634.297a13.98 13.98 0 0 1-.425 1.709zm.631-3.459l-1.66-.095a12.17 12.17 0 0 0-.009-1.555l1.656-.113a14.701 14.701 0 0 1 .013 1.763zm-1.868-3.193c-.099-.509-.23-1.011-.391-1.503l1.576-.52c.185.559.333 1.13.445 1.707l-1.63.316zm-.97-2.945a12.63 12.63 0 0 0-.753-1.357l1.397-.893c.317.495.602 1.01.855 1.54l-1.499.71zM43.6 13.103a12.4 12.4 0 0 0-1.066-1.132l1.134-1.212c.43.402.833.83 1.208 1.283L43.6 13.103zm-2.265-2.123c-.42-.303-.858-.58-1.313-.83l.801-1.454c.516.284 1.012.6 1.488.946l-.976 1.338zm-2.718-1.494a12.474 12.474 0 0 0-1.48-.481l.416-1.607c.57.146 1.13.329 1.677.546l-.613 1.542z"/>
        <path fill="#F7BA61" d="M42.324 20.85h-1.66a5.273 5.273 0 0 0-3.331-4.919l-.297-.12.617-1.54.296.119a6.924 6.924 0 0 1 4.375 6.46z"/>
        <path fill="#5D9AA4" d="M1.151 22.414l32.874-9.862v-3.32L.869 19.18c.035 1.083.13 2.163.282 3.235z"/>
        <path fill="#60A0AA" d="M29.046 10.726L5.809 17.697v.125a20.73 20.73 0 0 0 .249 3.12l22.988-6.896v-3.32z"/>
        <path fill="#E06661" d="M1.793 25.541l32.232-9.67v-3.32L1.15 22.415c.158 1.053.373 2.097.642 3.127z"/>
        <path fill="#EA6B65" d="M6.77 24.048l22.276-6.683v-3.32L6.058 20.944c.158 1.052.395 2.09.712 3.105z"/>
        <path fill="#000" d="M48.963 29.98h-4.844l-4.488-1.494-1.457-3.645v-2.746a3.725 3.725 0 0 0-3.325-3.692c0-.114.006-.228.006-.341V5.912a.83.83 0 0 0-.592-.794L17.666.138a.83.83 0 0 0-.477 0L.592 5.119A.83.83 0 0 0 0 5.913v12.149c0 .384.026.765.04 1.147.02.56.052 1.117.102 1.67.008.095.02.184.029.277a30.653 30.653 0 0 0 16.886 24.508.83.83 0 0 0 .742 0 31.057 31.057 0 0 0 3.586-2.113c.26.36.59.663.969.893a3.32 3.32 0 0 0 2.542 5.452h14.108a.832.832 0 0 0 .46-.14l4.768-3.18h4.73a.83.83 0 0 0 .83-.83V30.81a.83.83 0 0 0-.83-.83zm-17.961-4.078l.967 2.418h-4.821a21.517 21.517 0 0 0 2.722-10.336l3.325-.997v1.075c0 .177-.006.354-.009.532a3.729 3.729 0 0 0-2.48 3.501v2.265c-.001.529.1 1.052.296 1.542zm-11.915 5.737c0 .848.328 1.663.913 2.276-.308.225-.61.457-.928.664l-1.645 1.053-1.641-1.055a19.842 19.842 0 0 1-7.96-9.98l20.366-6.11a19.854 19.854 0 0 1-2.98 9.833h-2.805a3.32 3.32 0 0 0-3.32 3.319zM2.11 23.122L2.09 23l3.298-.987c.097.498.216.996.349 1.483l-3.345 1.004c-.11-.476-.2-.93-.282-1.377zm-.382-3.333l3.282-.986c.023.52.061 1.038.121 1.55l-3.275.983c-.008-.074-.014-.148-.023-.223-.042-.428-.08-.862-.105-1.324zm26.488-9.68L6.639 16.582v-5.935l10.817-3.863 10.76 3.074v.25zm0 1.733v1.586l-21.464 6.44a20.67 20.67 0 0 1-.098-1.558l21.562-6.468zm4.979 1.825v1.587l-3.32.996v-1.587l3.32-.996zm0-1.733l-3.32.996v-1.586l3.32-.996v1.586zM6.985 21.53l13.503-4.05 7.728-2.319v1.587l-20.89 6.267c-.131-.49-.248-.984-.342-1.485zm-5.325-15L17.427 1.8l15.768 4.73v2.085l-3.32.996v-.379a.83.83 0 0 0-.601-.797l-11.618-3.32a.821.821 0 0 0-.507.016L5.53 9.281a.83.83 0 0 0-.55.781v7.018l-3.32.996V6.53zm15.767 37.456a29.013 29.013 0 0 1-14.65-17.874l3.458-1.037a21.488 21.488 0 0 0 8.653 10.898l2.09 1.343a.83.83 0 0 0 .898 0l2.09-1.343.022-.014a3.28 3.28 0 0 0 1.538 3.503 3.31 3.31 0 0 0-.78 2.136c.003.115.01.23.024.345a29.209 29.209 0 0 1-3.343 2.043zm21.328 4.25H24.896a1.66 1.66 0 0 1-1.66-1.66 1.644 1.644 0 0 1 1.522-1.642.847.847 0 0 0 .76-.88.83.83 0 0 0-.83-.797h-.622a1.66 1.66 0 0 1 0-3.32.83.83 0 0 0 0-1.659h-.83a1.66 1.66 0 0 1 0-3.32.83.83 0 0 0 0-1.66h-.83a1.66 1.66 0 0 1 0-3.319h10.789a.828.828 0 0 0 .771-1.138l-1.423-3.555a2.47 2.47 0 0 1-.178-.926v-2.265a2.075 2.075 0 1 1 4.15 0V25c0 .106.02.21.058.309l1.66 4.15a.837.837 0 0 0 .509.478l4.412 1.47v13.896l-4.399 2.934zm9.378-3.319h-3.32V31.639h3.32v13.278zM43.668 10.76l-1.134 1.211a12.4 12.4 0 0 1 1.066 1.132l1.276-1.061c-.375-.453-.779-.88-1.208-1.283zM48.133 21.057c0-.325-.011-.647-.033-.967l-1.656.113a12.952 12.952 0 0 1 .01 1.555l1.659.095c.013-.264.02-.53.02-.796zM42.311 9.638a14.09 14.09 0 0 0-1.488-.946l-.8 1.453c.454.25.892.527 1.312.83l.976-1.337z"/>
        <path fill="#000" d="M47.904 23.6l-1.634-.296c-.092.51-.217 1.014-.373 1.508l1.582.498c.177-.56.32-1.131.425-1.71zM39.228 7.94c-.547-.218-1.107-.4-1.677-.546L37.136 9c.503.13.997.29 1.48.481l.612-1.543zM44.917 27.087l1.452.805c.166-.304.332-.616.474-.936l-1.507-.694c-.127.28-.267.556-.419.825zM44.519 14.358c.278.436.53.89.753 1.357l1.499-.712a14.02 14.02 0 0 0-.855-1.54l-1.397.895zM45.85 17.157c.162.492.293.994.392 1.503l1.63-.316a13.928 13.928 0 0 0-.446-1.707l-1.575.52zM37.333 15.931a5.273 5.273 0 0 1 3.33 4.92h1.66a6.924 6.924 0 0 0-4.374-6.461l-.296-.118-.617 1.54.297.12z"/>
    </g>
</svg>
