<svg xmlns="http://www.w3.org/2000/svg" width="53.96" height="23.255" fill="#21283a" xmlns:v="https://vecta.io/nano"><path d="M48.243 17.987h.32a.9.9 0 0 0 .334-.064l2.913-1.17a3.4 3.4 0 0 0 2.148-3.174V6.296a.9.9 0 0 0-.77-.89l-6.11-.873A30.82 30.82 0 0 0 43.618 2.7 30.29 30.29 0 0 0 31.088 0h-1.06a30.57 30.57 0 0 0-14.6 3.723l-3.083 1.682A21.25 21.25 0 0 0 2.058 8.193c-1.274.73-2.06 2.087-2.062 3.555v5.34a.9.9 0 0 0 .9.9z"/><g stroke="#fff" stroke-width="3"><circle cx="8.997" cy="17.142" r="4.614"/><circle cx="43.173" cy="17.142" r="4.614"/></g></svg>