<svg xmlns="http://www.w3.org/2000/svg" width="53.96" height="23.255"  xmlns:v="https://vecta.io/nano"><path fill="#fff" d="M50.68 17.83H51c.113 0 .226-.022.33-.064l2.888-1.16a3.37 3.37 0 0 0 2.13-3.147V6.24a.89.89 0 0 0-.763-.882l-6.056-.865a30.56 30.56 0 0 0-3.432-1.817C42.195.908 37.96-.004 33.677 0h-1.052a30.3 30.3 0 0 0-14.47 3.69l-3.057 1.668c-3.58.04-7.1.99-10.2 2.764a4.07 4.07 0 0 0-2.044 3.524v5.293a.89.89 0 0 0 .892.892z"/><g fill="#21283a" stroke="#fff" stroke-width="3"><circle cx="11.776" cy="16.992" r="4.573"/><circle cx="45.654" cy="16.992" r="4.573"/></g></svg>