<svg xmlns="http://www.w3.org/2000/svg" width="32" height="32" viewBox="0 0 32 32">
    <g transform="translate(-314 -283)">
        <circle cx="16" cy="16" r="16" fill="#e1f1fb" transform="translate(314 283)"/>
        <g>
            <g>
                <g>
                    <path d="M14.373 268.5l-1.408-1.408a1.45 1.45 0 0 0-1.031-.427h-.975a.292.292 0 1 0 0 .583h.975a.881.881 0 0 1 .618.256l.911.911h-2.5a.292.292 0 1 0 0 .583h3.208a.292.292 0 0 0 .207-.5z" transform="translate(323 239.667) translate(.292 59.166) translate(-10.666 -266.667)"/>
                </g>
            </g>
            <g>
                <g>
                    <path d="M24.541 373.625a.292.292 0 0 0-.292.292v.875a.292.292 0 0 1-.292.292h-1.75a.292.292 0 0 1-.292-.292v-1.167a.292.292 0 1 0-.583 0v1.167a.876.876 0 0 0 .875.875h1.75a.876.876 0 0 0 .875-.875v-.875a.292.292 0 0 0-.291-.292z" transform="translate(323 239.667) translate(.583 62.083) translate(-21.333 -373.333)"/>
                </g>
            </g>
            <g>
                <g>
                    <path d="M12.676 181.951c-.8-.421-2.608-.617-5.676-.617s-4.873.2-5.676.617A2.571 2.571 0 0 0 0 184.542a10.39 10.39 0 0 0 .3 2.409.291.291 0 0 0 .282.216h2.557l1.1.552a.292.292 0 0 0 .131.031h5.25a.288.288 0 0 0 .13-.031l1.105-.552h2.556a.291.291 0 0 0 .282-.216 10.39 10.39 0 0 0 .3-2.409 2.571 2.571 0 0 0-1.317-2.591zm.51 4.633h-2.394a.289.289 0 0 0-.131.031l-1.105.552H4.444l-1.1-.552a.293.293 0 0 0-.131-.031H.814a10.03 10.03 0 0 1-.231-2.042 2.009 2.009 0 0 1 1.01-2.075c.7-.365 2.518-.55 5.407-.55s4.708.185 5.407.55a2.009 2.009 0 0 1 1.01 2.075 10.081 10.081 0 0 1-.231 2.042z" transform="translate(323 239.667) translate(0 56.833) translate(0 -181.334)"/>
                </g>
            </g>
            <g>
                <g>
                    <path d="M366.172 268.417h-2.5l.91-.911a.882.882 0 0 1 .619-.256h.975a.292.292 0 1 0 0-.583h-.976a1.45 1.45 0 0 0-1.031.427l-1.408 1.408a.292.292 0 0 0 .207.5h3.208a.292.292 0 1 0 0-.583z" transform="translate(323 239.667) translate(9.917 59.166) translate(-362.672 -266.667)"/>
                </g>
            </g>
            <g>
                <g>
                    <path d="M134.969 266.835a.292.292 0 0 0-.264-.168h-6.417a.292.292 0 0 0-.224.478l1.458 1.75a.292.292 0 0 0 .224.1h3.5a.292.292 0 0 0 .224-.1l1.458-1.75a.291.291 0 0 0 .041-.31zm-1.86 1.582h-3.226l-.972-1.167h5.171z" transform="translate(323 239.667) translate(3.5 59.166) translate(-127.996 -266.667)"/>
                </g>
            </g>
            <g>
                <g>
                    <path d="M54.311 57.592a22.194 22.194 0 0 0-1.829-3.606c-.481-.409-1.86-.653-3.689-.653h-.583c-1.829 0-3.208.244-3.689.652a22.146 22.146 0 0 0-1.829 3.606.292.292 0 0 0 .535.233A24.618 24.618 0 0 1 44.9 54.43c.225-.191 1.175-.514 3.311-.514h.583c2.136 0 3.086.323 3.31.513a24.511 24.511 0 0 1 1.672 3.4.292.292 0 0 0 .535-.232z" transform="translate(323 239.667) translate(1.167 53.333) translate(-42.668 -53.333)"/>
                </g>
            </g>
            <g>
                <g>
                    <path d="M365.873 373.333a.292.292 0 0 0-.292.292v1.167a.292.292 0 0 1-.292.292h-1.75a.292.292 0 0 1-.292-.292v-.875a.292.292 0 1 0-.583 0v.875a.876.876 0 0 0 .875.875h1.75a.876.876 0 0 0 .875-.875v-1.167a.292.292 0 0 0-.291-.292z" transform="translate(323 239.667) translate(9.917 62.083) translate(-362.665 -373.333)"/>
                </g>
            </g>
        </g>
    </g>
</svg>
