<svg xmlns="http://www.w3.org/2000/svg" width="20.257" height="15.227" viewBox="0 0 20.257 15.227">
    <g>
        <g>
            <path d="M110.571 318.662l2.283-.009c.436 0 .791.229.793.515l.027 2.98c0 .286-.348.52-.784.521l-2.283.009c-.435 0-.791-.229-.793-.515l-.027-2.98c-.003-.283.348-.52.784-.521z" transform="translate(0 .25) translate(0 2.523) translate(-108.511 -310.224)"/>
            <path d="M110.571 318.662l2.283-.009c.436 0 .791.229.793.515l.027 2.98c0 .286-.348.52-.784.521l-2.283.009c-.435 0-.791-.229-.793-.515l-.027-2.98c-.003-.283.348-.52.784-.521z" transform="translate(0 .25) translate(0 2.523) translate(-94.725 -310.224)"/>
            <path fill="#21283a" d="M303.19 227.743c-.127.012-.869.094-.92.538a.714.714 0 0 1-.393.7h-.377l.193.562s2.4-.014 2.335-.8c-.057-.619-.373-1.043-.838-1z" transform="translate(0 .25) translate(0 2.523) translate(-283.775 -227.113)"/>
            <path d="M95.958 227.744c.157.015 1.07.115 1.132.662a.879.879 0 0 0 .484.86h.46l-.236.688s-2.958-.018-2.872-.99c.074-.751.46-1.275 1.032-1.22z" transform="translate(0 .25) translate(0 2.523) translate(-94.924 -227.74)"/>
        </g>
        <path fill="#f8c81e" stroke="#000" stroke-width="0.5px" d="M119.312 199.339a4.148 4.148 0 0 0-.5-1.675l-1.013-1.859s-1.8-4.056-2.55-4.378a38.474 38.474 0 0 0-5.659-.387h-.014a38.458 38.458 0 0 0-5.654.454c-.746.332-2.5 4.409-2.5 4.409l-.99 1.871a4.144 4.144 0 0 0-.478 1.681 12.118 12.118 0 0 0 .415 3.853 1.35 1.35 0 0 0 1.316.993l7.969-.048h.017l7.97-.048a1.351 1.351 0 0 0 1.3-1.009 12.129 12.129 0 0 0 .371-3.857z" transform="translate(0 .25) translate(-99.509 -191.04)"/>
        <path d="M140.658 198.337a.494.494 0 0 0-.439-.29l-5.178-.106h-.015l-5.177.168a.494.494 0 0 0-.435.293l-1.485 3.341 7.12-.041h.017l7.12-.041z" transform="translate(0 .25) translate(-124.732 -197.252)"/>
        <path d="M271.556 271.06l-2.187.534a.9.9 0 0 0 .212 1.776h1.883a.873.873 0 0 0 .56-.193 1.825 1.825 0 0 0 .637-1.1.9.9 0 0 0-1.1-1.02z" transform="translate(0 .25) translate(-253.77 -264.169)"/>
        <path d="M114.554 272a.9.9 0 0 0-.557-.41l-2.188-.534a.9.9 0 0 0-1.1 1.021 1.824 1.824 0 0 0 .637 1.1.873.873 0 0 0 .56.193h1.883a.9.9 0 0 0 .77-1.367z" transform="translate(0 .25) translate(-109.339 -264.168)"/>
        <path d="M118.9 286.671a1.35 1.35 0 0 1-1.3 1.008l-7.969.048h-.017l-7.969.048a1.351 1.351 0 0 1-1.316-.993 12.11 12.11 0 0 1-.416-3.854 4.113 4.113 0 0 1 .073-.529 11.151 11.151 0 0 0 .34 1.588 1.338 1.338 0 0 0 1.316.915l7.969-.048h.018l7.966-.048a1.336 1.336 0 0 0 1.3-.93 10.894 10.894 0 0 0 .312-1.525 4.479 4.479 0 0 1 .061.463 12.159 12.159 0 0 1-.367 3.857z" opacity="0.185" transform="translate(0 .25) translate(-99.467 -274.515)"/>
    </g>
</svg>
