<svg xmlns="http://www.w3.org/2000/svg" width="53" height="50" viewBox="0 0 53 50">
    <g fill="none" fill-rule="nonzero">
        <path fill="#FFCDAC" d="M38.643 49.032l1.364-4.35a22.37 22.37 0 0 0 1.025-6.693v-8.16a2.325 2.325 0 1 0-4.65 0v2.838V28.115a2.325 2.325 0 1 0-4.65 0l-.002.831v3.72-6.024a2.325 2.325 0 1 0-4.65 0v6.025V19.02a2.325 2.325 0 1 0-4.65 0l-.001 16.856-2.732-5.057a2.452 2.452 0 1 0-4.541 1.74l1.77 7.339a12.346 12.346 0 0 0 2.034 4.388l3.468 4.747h16.215z"/>
        <path fill="#000" d="M22.429 27.524a.967.967 0 0 0-.968.968v3.558l-.913-1.69A3.402 3.402 0 0 0 16 28.93a3.406 3.406 0 0 0-1.784 3.855l1.77 7.338a13.246 13.246 0 0 0 2.193 4.733l3.469 4.746a.966.966 0 0 0 1.351.21.967.967 0 0 0 .21-1.351l-3.468-4.746a11.32 11.32 0 0 1-1.874-4.045l-1.77-7.339a1.48 1.48 0 0 1 .774-1.674 1.477 1.477 0 0 1 1.976.62l2.73 5.057a.967.967 0 0 0 1.819-.46v-7.383a.967.967 0 0 0-.967-.968zM38.706 26.536c-.57 0-1.107.146-1.576.402a3.297 3.297 0 0 0-3.074-2.116c-.605 0-1.171.165-1.659.45a3.296 3.296 0 0 0-2.992-1.923c-.485 0-.944.106-1.359.295V19.02a3.296 3.296 0 0 0-3.292-3.293 3.296 3.296 0 0 0-3.293 3.293v1.676a.967.967 0 0 0 1.934 0V19.02c0-.75.61-1.358 1.359-1.358s1.358.609 1.358 1.358v13.647a.967.967 0 0 0 1.934 0v-6.025a1.36 1.36 0 0 1 2.717 0v6.025a.967.967 0 0 0 1.934 0v-4.552a1.36 1.36 0 0 1 2.717 0v4.552a.967.967 0 0 0 1.934 0v-2.839c0-.749.61-1.358 1.358-1.358.75 0 1.359.61 1.359 1.358v8.16c0 2.175-.33 4.33-.98 6.405l-1.365 4.35a.967.967 0 0 0 1.846.579l1.364-4.35a23.311 23.311 0 0 0 1.069-6.983v-8.16a3.296 3.296 0 0 0-3.293-3.293z"/>
        <path fill="#000" d="M22.429 23.714a.974.974 0 0 0-.684.283.974.974 0 0 0-.284.684c0 .254.104.504.284.684.18.18.43.283.684.283a.974.974 0 0 0 .683-.283c.18-.18.284-.43.284-.684a.974.974 0 0 0-.284-.684.974.974 0 0 0-.683-.283z"/>
        <g>
            <path fill="#838F9B" d="M32.157 11.098v1.233a.412.412 0 0 1-.411.41h-1.644a.412.412 0 0 1-.411-.41v-1.233h2.055c.135 0 .271-.017.398-.05l.013.05zM23.114 11.098v1.233a.412.412 0 0 1-.41.41h-1.645a.412.412 0 0 1-.411-.41v-1.233l.012-.05c.128.033.263.05.399.05h2.055z"/>
            <path fill="#FFEAA7" d="M33.39 9.043v.41a1.644 1.644 0 0 1-1.644 1.645h-3.7v-.822h-3.288v.822H21.06a1.644 1.644 0 0 1-1.644-1.644v-.411l1.718.345c.222.04.452.066.682.066.777 0 1.463-.498 1.71-1.233l.017-.157c.859.09 1.829.157 2.86.157 1.069 0 2.03-.058 2.861-.14l.016.14a1.804 1.804 0 0 0 1.71 1.233c.23 0 .46-.025.683-.066l1.718-.345z"/>
            <path fill="#CCD1D9" d="M28.046 11.098v.822h-3.288v-1.644h3.288z"/>
            <path fill="#FCD770" d="M32.568 6.235l.546 1.094-.135.07s-1.348.447-3.716.682c-.83.082-1.792.14-2.86.14a27.44 27.44 0 0 1-2.861-.157c-2.22-.238-3.716-.666-3.716-.666l-.136-.07.547-1.093h12.33z"/>
            <path fill="#E6E9ED" d="M33.39 8.27v.773l-1.718.345a3.758 3.758 0 0 1-.683.066 1.804 1.804 0 0 1-1.71-1.233l-.016-.14c2.368-.235 3.716-.683 3.716-.683l.135-.07.103.206c.115.226.173.477.173.736zM23.542 8.064l-.017.157a1.804 1.804 0 0 1-1.71 1.233c-.23 0-.46-.025-.682-.066l-1.718-.345V8.27c0-.259.057-.51.172-.736l.103-.205.136.07s1.496.427 3.716.665z"/>
            <path fill="#CCD1D9" d="M33.39 4.11c.452 0 .822.37.822.822 0 .226-.09.432-.243.58a.805.805 0 0 1-.58.242h-.924l-.345-1.636.037-.008h1.233z"/>
            <path fill="#FFEAA7" d="M32.465 5.754l.103.481H30.96v-.07l-.884-3.793a.414.414 0 0 0-.403-.317h-6.543a.414.414 0 0 0-.403.317l-.884 3.793v.07h-1.607l.103-.48.345-1.637.51-2.404c.16-.76.83-1.303 1.607-1.303h7.2c.778 0 1.448.543 1.608 1.303l.51 2.404.345 1.636z"/>
            <path fill="#A9DBE8" d="M30.96 6.165v.07h-9.116v-.07l.884-3.793a.414.414 0 0 1 .403-.317h6.543c.193 0 .358.132.403.317l.884 3.793z"/>
            <path fill="#CCD1D9" d="M20.685 4.118l-.345 1.636h-.925a.805.805 0 0 1-.58-.242.805.805 0 0 1-.242-.58c0-.452.37-.822.822-.822h1.233l.037.008z"/>
            <path fill="#000" d="M33.39 3.7h-.94l-.437-2.07A2.065 2.065 0 0 0 30.002 0h-7.2c-.965 0-1.81.685-2.01 1.63l-.438 2.07h-.94c-.679 0-1.232.553-1.232 1.232 0 .68.553 1.233 1.233 1.233h.398L19.22 7.35a2.065 2.065 0 0 0-.217.92v1.185c0 .84.508 1.562 1.233 1.88v.997c0 .453.369.822.822.822h1.644a.823.823 0 0 0 .822-.822v-.822h.822v.822h4.11v-.822h.822v.822c0 .453.37.822.823.822h1.644a.823.823 0 0 0 .822-.822v-.996A2.056 2.056 0 0 0 33.8 9.454V8.268c0-.317-.075-.635-.217-.919l-.592-1.184h.398c.68 0 1.233-.553 1.233-1.233S34.07 3.7 33.39 3.7zm-.411 4.568v.438l-1.387.277c-.198.04-.4.06-.602.06-.469 0-.892-.236-1.147-.61 1.581-.188 2.632-.458 3.055-.58.048.133.08.273.08.415zm-13.07-.422c.431.112 1.543.375 3.067.566-.254.386-.684.63-1.162.63-.2 0-.403-.02-.6-.06l-1.388-.276v-.438c0-.144.034-.286.083-.422zm.361-.757l.221-.442h11.823l.225.451c-.771.208-2.96.711-6.137.711-2.885 0-5.283-.514-6.132-.72zm1.326-5.29c.12-.566.627-.977 1.207-.977h7.2c.579 0 1.086.411 1.206.977l.852 4.026h-.758l-.826-3.545a.82.82 0 0 0-.8-.636h-4.919v.822h4.918l.782 3.359h-8.111l.782-3.359h.807v-.822h-.807a.819.819 0 0 0-.8.636l-.826 3.545h-.759l.852-4.026zm-2.592 3.133c0-.226.185-.41.41-.41h.766l-.174.821h-.591a.412.412 0 0 1-.411-.41zm3.7 7.399h-1.645v-.822h1.644v.822zm4.931-.822H25.17v-.822h2.466v.822zm4.11.822h-1.643v-.822h1.644v.822zm0-1.644h-3.288v-.822h-4.11v.822H21.06a1.23 1.23 0 0 1-1.224-1.141l1.217.243c.25.05.507.076.762.076.897 0 1.69-.54 2.034-1.356.781.074 1.641.123 2.554.123.945 0 1.798-.044 2.56-.11a2.206 2.206 0 0 0 2.028 1.343c.256 0 .512-.026.763-.076l1.216-.243a1.23 1.23 0 0 1-1.223 1.14zm1.645-5.344h-.59l-.175-.822h.765a.412.412 0 0 1 0 .822z"/>
        </g>
        <g>
            <path fill="#838F9B" d="M50.338 11.098v1.233a.412.412 0 0 1-.41.41h-1.645a.412.412 0 0 1-.41-.41v-1.233h2.054c.136 0 .272-.017.4-.05l.011.05zM41.296 11.098v1.233a.412.412 0 0 1-.411.41H39.24a.412.412 0 0 1-.411-.41v-1.233l.012-.05c.127.033.263.05.399.05h2.055z"/>
            <path fill="#77CC9E" d="M51.572 9.043v.41a1.644 1.644 0 0 1-1.645 1.645h-3.699v-.822H42.94v.822h-3.7a1.644 1.644 0 0 1-1.644-1.644v-.411l1.719.345c.222.04.452.066.682.066.777 0 1.463-.498 1.71-1.233l.016-.157c.86.09 1.83.157 2.861.157 1.069 0 2.03-.058 2.86-.14l.017.14a1.804 1.804 0 0 0 1.71 1.233c.23 0 .46-.025.682-.066l1.719-.345z"/>
            <path fill="#CCD1D9" d="M46.228 11.098v.822H42.94v-1.644h3.288z"/>
            <path fill="#508367" d="M50.75 6.235l.546 1.094-.135.07s-1.349.447-3.716.682c-.83.082-1.792.14-2.86.14a27.44 27.44 0 0 1-2.862-.157c-2.22-.238-3.715-.666-3.715-.666l-.136-.07.547-1.093h12.33z"/>
            <path fill="#E6E9ED" d="M51.572 8.27v.773l-1.719.345a3.758 3.758 0 0 1-.682.066 1.804 1.804 0 0 1-1.71-1.233l-.016-.14c2.367-.235 3.716-.683 3.716-.683l.135-.07.103.206c.115.226.173.477.173.736zM41.723 8.064l-.016.157a1.804 1.804 0 0 1-1.71 1.233c-.23 0-.46-.025-.682-.066l-1.718-.345V8.27c0-.259.057-.51.172-.736l.103-.205.136.07s1.496.427 3.715.665z"/>
            <path fill="#CCD1D9" d="M51.572 4.11c.452 0 .822.37.822.822 0 .226-.09.432-.243.58a.805.805 0 0 1-.58.242h-.924l-.345-1.636.036-.008h1.234z"/>
            <path fill="#77CC9E" d="M50.647 5.754l.103.481h-1.608v-.07l-.883-3.793a.414.414 0 0 0-.403-.317h-6.544a.414.414 0 0 0-.402.317l-.884 3.793v.07h-1.607l.103-.48.345-1.637.51-2.404c.16-.76.83-1.303 1.607-1.303h7.2c.778 0 1.447.543 1.608 1.303l.51 2.404.345 1.636z"/>
            <path fill="#A9DBE8" d="M49.142 6.165v.07h-9.116v-.07l.884-3.793a.414.414 0 0 1 .402-.317h6.544c.193 0 .358.132.403.317l.883 3.793z"/>
            <path fill="#CCD1D9" d="M38.867 4.118l-.345 1.636h-.925a.805.805 0 0 1-.58-.242.805.805 0 0 1-.242-.58c0-.452.37-.822.822-.822h1.233l.037.008z"/>
            <path fill="#000" d="M51.572 3.7h-.94l-.437-2.07A2.065 2.065 0 0 0 48.184 0h-7.2c-.965 0-1.81.685-2.01 1.63l-.438 2.07h-.94c-.679 0-1.232.553-1.232 1.232 0 .68.553 1.233 1.233 1.233h.397l-.591 1.184a2.065 2.065 0 0 0-.217.92v1.185c0 .84.508 1.562 1.233 1.88v.997c0 .453.368.822.822.822h1.644a.823.823 0 0 0 .822-.822v-.822h.822v.822h4.11v-.822h.822v.822c0 .453.369.822.822.822h1.644a.823.823 0 0 0 .823-.822v-.996a2.056 2.056 0 0 0 1.233-1.881V8.268c0-.317-.076-.635-.217-.919l-.592-1.184h.398c.68 0 1.233-.553 1.233-1.233S52.25 3.7 51.572 3.7zm-.411 4.568v.438l-1.388.277c-.197.04-.4.06-.601.06-.469 0-.893-.236-1.148-.61 1.582-.188 2.633-.458 3.056-.58.048.133.08.273.08.415zm-13.07-.422c.43.112 1.543.375 3.066.566-.253.386-.683.63-1.16.63-.202 0-.404-.02-.602-.06l-1.387-.276v-.438c0-.144.033-.286.083-.422zm.361-.757l.22-.442h11.823l.226.451c-.771.208-2.96.711-6.137.711-2.886 0-5.284-.514-6.132-.72zm1.326-5.29c.12-.566.627-.977 1.206-.977h7.2c.58 0 1.087.411 1.207.977l.852 4.026h-.759L48.66 2.28a.82.82 0 0 0-.801-.636H42.94v.822h4.918l.782 3.359h-8.112l.783-3.359h.807v-.822h-.807a.819.819 0 0 0-.801.636l-.826 3.545h-.758l.852-4.026zm-2.592 3.133c0-.226.184-.41.41-.41h.766l-.174.821h-.591a.412.412 0 0 1-.411-.41zm3.699 7.399H39.24v-.822h1.644v.822zm4.932-.822h-2.466v-.822h2.466v.822zm4.11.822h-1.644v-.822h1.644v.822zm0-1.644H46.64v-.822h-4.11v.822h-3.288a1.23 1.23 0 0 1-1.224-1.141l1.217.243c.25.05.507.076.762.076.897 0 1.69-.54 2.034-1.356.781.074 1.641.123 2.554.123.945 0 1.798-.044 2.56-.11a2.206 2.206 0 0 0 2.028 1.343c.255 0 .512-.026.762-.076l1.217-.243a1.23 1.23 0 0 1-1.224 1.14zm1.645-5.344h-.591l-.174-.822h.765a.412.412 0 0 1 0 .822z"/>
        </g>
        <g>
            <path fill="#838F9B" d="M13.975 11.098v1.233a.412.412 0 0 1-.411.41H11.92a.412.412 0 0 1-.411-.41v-1.233h2.055c.136 0 .271-.017.399-.05l.012.05zM4.932 11.098v1.233a.412.412 0 0 1-.41.41H2.876a.412.412 0 0 1-.41-.41v-1.233l.011-.05c.128.033.264.05.4.05h2.054z"/>
            <path fill="#CA7E7E" d="M15.208 9.043v.41a1.644 1.644 0 0 1-1.644 1.645h-3.7v-.822H6.577v.822H2.877a1.644 1.644 0 0 1-1.644-1.644v-.411l1.718.345c.222.04.452.066.682.066.777 0 1.464-.498 1.71-1.233l.017-.157c.859.09 1.829.157 2.86.157 1.07 0 2.03-.058 2.861-.14l.017.14a1.804 1.804 0 0 0 1.71 1.233c.23 0 .46-.025.682-.066l1.718-.345z"/>
            <path fill="#CCD1D9" d="M9.865 11.098v.822H6.576v-1.644h3.289z"/>
            <path fill="#B84B4B" d="M14.386 6.235l.547 1.094-.136.07s-1.348.447-3.716.682c-.83.082-1.792.14-2.86.14a27.44 27.44 0 0 1-2.861-.157c-2.22-.238-3.716-.666-3.716-.666l-.136-.07.547-1.093h12.33z"/>
            <path fill="#E6E9ED" d="M15.208 8.27v.773l-1.718.345a3.758 3.758 0 0 1-.682.066 1.804 1.804 0 0 1-1.71-1.233l-.017-.14c2.368-.235 3.716-.683 3.716-.683l.136-.07.102.206c.115.226.173.477.173.736zM5.36 8.064l-.017.157a1.804 1.804 0 0 1-1.71 1.233c-.23 0-.46-.025-.682-.066l-1.718-.345V8.27c0-.259.058-.51.173-.736l.102-.205.136.07s1.496.427 3.716.665z"/>
            <path fill="#CCD1D9" d="M15.208 4.11c.452 0 .822.37.822.822 0 .226-.09.432-.242.58a.805.805 0 0 1-.58.242h-.925l-.345-1.636.037-.008h1.233z"/>
            <path fill="#CA7E7E" d="M14.283 5.754l.103.481h-1.607v-.07l-.884-3.793a.414.414 0 0 0-.403-.317H4.95a.414.414 0 0 0-.403.317l-.884 3.793v.07H2.055l.103-.48.345-1.637.51-2.404C3.173.954 3.843.41 4.62.41h7.201c.777 0 1.447.543 1.607 1.303l.51 2.404.345 1.636z"/>
            <path fill="#A9DBE8" d="M12.779 6.165v.07H3.662v-.07l.884-3.793a.414.414 0 0 1 .403-.317h6.543c.194 0 .358.132.403.317l.884 3.793z"/>
            <path fill="#CCD1D9" d="M2.503 4.118l-.345 1.636h-.925a.805.805 0 0 1-.58-.242.805.805 0 0 1-.242-.58c0-.452.37-.822.822-.822h1.233l.037.008z"/>
            <path fill="#000" d="M15.208 3.7h-.939l-.438-2.07A2.065 2.065 0 0 0 11.821 0h-7.2C3.656 0 2.81.685 2.61 1.63L2.172 3.7h-.939C.553 3.7 0 4.252 0 4.931c0 .68.553 1.233 1.233 1.233h.398L1.039 7.35a2.065 2.065 0 0 0-.217.92v1.185c0 .84.508 1.562 1.233 1.88v.997c0 .453.369.822.822.822h1.644a.823.823 0 0 0 .822-.822v-.822h.822v.822h4.11v-.822h.823v.822c0 .453.368.822.822.822h1.644a.823.823 0 0 0 .822-.822v-.996a2.056 2.056 0 0 0 1.233-1.881V8.268c0-.317-.075-.635-.217-.919l-.592-1.184h.398c.68 0 1.233-.553 1.233-1.233S15.888 3.7 15.208 3.7zm-.411 4.568v.438l-1.387.277c-.198.04-.4.06-.602.06-.469 0-.892-.236-1.147-.61 1.581-.188 2.632-.458 3.055-.58.048.133.08.273.08.415zm-13.07-.422c.431.112 1.544.375 3.067.566-.253.386-.684.63-1.161.63-.202 0-.404-.02-.602-.06l-1.387-.276v-.438c0-.144.034-.286.084-.422zm.361-.757l.221-.442h11.823l.226.451c-.772.208-2.961.711-6.137.711-2.886 0-5.284-.514-6.133-.72zm1.326-5.29c.12-.566.628-.977 1.207-.977h7.2c.579 0 1.086.411 1.206.977l.852 4.026h-.758l-.826-3.545a.82.82 0 0 0-.8-.636H6.575v.822h4.918l.782 3.359H4.165l.782-3.359h.807v-.822h-.807a.819.819 0 0 0-.8.636L3.32 5.825h-.759l.852-4.026zM.822 4.932c0-.226.185-.41.411-.41h.765l-.174.821h-.59a.412.412 0 0 1-.412-.41zm3.7 7.399H2.876v-.822h1.644v.822zm4.932-.822H6.987v-.822h2.467v.822zm4.11.822H11.92v-.822h1.644v.822zm0-1.644h-3.288v-.822h-4.11v.822H2.876a1.23 1.23 0 0 1-1.223-1.141l1.216.243c.25.05.507.076.763.076.896 0 1.69-.54 2.033-1.356.781.074 1.642.123 2.555.123.944 0 1.797-.044 2.56-.11a2.206 2.206 0 0 0 2.027 1.343c.256 0 .512-.026.763-.076l1.216-.243a1.23 1.23 0 0 1-1.223 1.14zm1.644-5.344h-.59l-.175-.822h.765a.412.412 0 0 1 0 .822z"/>
        </g>
    </g>
</svg>
