<svg width="16" height="16" viewBox="0 0 16 16" fill="none" xmlns="http://www.w3.org/2000/svg">
    <g clip-path="url(#dhau8xkuka)">
        <path d="m6.318 3-2 .5-1 .5-.5 1-1 .5-1 1.5-.5 2 .5 2 1.5 1 1.5.5h2.5l1 .5 2.5.5 1-1 1-1 1.5.5h1l1-2V8l-1.5-1.5V5l-1.5-1.5-2-1-3 1-1-.5z" fill="#28CBFF"/>
        <path d="M14.459 6.44a4.416 4.416 0 0 0-4.407-4.24c-.96 0-1.885.311-2.646.882a3.366 3.366 0 0 0-1.796-.511 3.397 3.397 0 0 0-3.242 2.364 4.276 4.276 0 0 0 2.53 8.058 2.016 2.016 0 0 0 1.637.125 3.468 3.468 0 0 0 2.233.806c.42 0 .832-.074 1.22-.219a2.406 2.406 0 0 0 2.4 2.295 2.406 2.406 0 0 0 2.404-2.404 2.39 2.39 0 0 0-.45-1.397 3.392 3.392 0 0 0 .117-5.76zm-2.07 8.622a1.468 1.468 0 0 1-1.467-1.466c0-.808.658-1.466 1.467-1.466.808 0 1.466.658 1.466 1.466 0 .809-.658 1.466-1.466 1.466zm1.22-3.536a2.389 2.389 0 0 0-1.22-.333c-.948 0-1.768.55-2.16 1.348a.467.467 0 0 0-.08.042 2.548 2.548 0 0 1-1.38.404 2.54 2.54 0 0 1-1.813-.753.469.469 0 0 0-.563-.077 1.09 1.09 0 0 1-1.141-.044.469.469 0 0 0-.35-.071A3.342 3.342 0 0 1 .938 8.763c0-1.331.79-2.533 2.01-3.064a.469.469 0 0 0 .269-.317A2.462 2.462 0 0 1 5.61 3.508c.56 0 1.088.183 1.527.53a.469.469 0 0 0 .603-.018 3.467 3.467 0 0 1 2.312-.882 3.477 3.477 0 0 1 3.472 3.558c-.005.176.09.34.246.424a2.455 2.455 0 0 1 1.293 2.163c0 .979-.568 1.848-1.455 2.243zM1.615 3.23c.89 0 1.615-.725 1.615-1.615S2.506 0 1.615 0C.725 0 0 .725 0 1.615S.725 3.23 1.615 3.23zm0-2.292a.678.678 0 1 1-.002 1.356.678.678 0 0 1 .002-1.357z" fill="#000"/>
        <path d="M5.743 8.942a.469.469 0 0 0-.66.058.838.838 0 0 1-.66.29 1.15 1.15 0 0 1-1.149-1.15 1.15 1.15 0 0 1 1.791-.953.469.469 0 0 0 .525-.777 2.089 2.089 0 0 0-3.253 1.73c0 1.15.936 2.087 2.086 2.087a1.771 1.771 0 0 0 1.378-.624.469.469 0 0 0-.058-.66zM12.507 9.284h-.006l-.307.003c.095-.131.205-.286.332-.467.169-.242.275-.464.325-.68a.488.488 0 0 0 .009-.046l.011-.092a1.078 1.078 0 0 0-2.13-.268.469.469 0 0 0 .92.181.14.14 0 0 1 .275.009l-.003.024a1.142 1.142 0 0 1-.175.334 26.63 26.63 0 0 1-.717.984c-.156.204-.28.365-.203.612a.484.484 0 0 0 .31.316c.062.02.102.034.582.034.186 0 .438-.002.783-.007a.469.469 0 0 0-.006-.937zM8.188 6.054C7.037 6.054 6.1 6.99 6.1 8.14s.936 2.087 2.087 2.087c1.15 0 2.086-.936 2.086-2.087 0-1.15-.936-2.086-2.086-2.086zm0 3.235a1.15 1.15 0 0 1-1.15-1.149 1.15 1.15 0 0 1 1.15-1.149 1.15 1.15 0 0 1 1.149 1.15 1.15 1.15 0 0 1-1.15 1.148z" fill="#000"/>
    </g>
    <defs>
        <clipPath id="dhau8xkuka">
            <path fill="#fff" d="M0 0h16v16H0z"/>
        </clipPath>
    </defs>
</svg>
