<svg viewBox="0 0 16 17" fill="none" xmlns="http://www.w3.org/2000/svg">
    <path d="m12.205 5.68 1.852 1.852a4.412 4.412 0 0 0 1.276-3.54.62.62 0 0 0-1.054-.386L12.205 5.68z" fill="#fff"/>
    <path d="M14.526 8.001a4.423 4.423 0 0 1-4.389 1.116L4 15.254a2.118 2.118 0 0 1-2.995-2.994l6.138-6.138a4.427 4.427 0 0 1 5.861-5.38c.408.159.504.696.195 1.005L10.735 4.21l3.791 3.791z" fill="#28CBFF"/>
    <path opacity=".1" d="M14.527 8a4.422 4.422 0 0 1-4.39 1.115L4 15.253c-.826.829-2.168.829-2.995 0a2.107 2.107 0 0 1-.548-2.04c5.767-1.08 10.129-6.142 10.129-12.22a10.2 10.2 0 0 0-.01-.48 4.426 4.426 0 0 1 2.428.23c.408.159.502.694.194 1.003L10.735 4.21 14.527 8z" fill="#fff"/>
    <path d="M.83 15.43c.922.923 2.419.927 3.346 0l6.034-6.035a4.677 4.677 0 0 0 4.492-1.218.249.249 0 0 0 0-.352l-.298-.298A4.66 4.66 0 0 0 15.58 3.97c-.069-.736-.957-1.06-1.478-.54l-1.898 1.898-1.118-1.118 2.287-2.287c.44-.439.292-1.19-.28-1.413a4.679 4.679 0 0 0-6.23 5.539L.829 12.084a2.369 2.369 0 0 0 0 3.346zM14.454 3.782a.37.37 0 0 1 .63.234 4.163 4.163 0 0 1-1.034 3.158L12.557 5.68l1.898-1.898zM1.181 12.436 7.32 6.298a.25.25 0 0 0 .062-.247A4.178 4.178 0 0 1 12.913.974c.24.093.292.414.11.597l-2.464 2.463a.249.249 0 0 0 0 .352l3.61 3.61a4.179 4.179 0 0 1-3.961.882.249.249 0 0 0-.247.062l-6.137 6.138a1.867 1.867 0 1 1-2.643-2.642z" fill="#15142B"/>
    <path d="M8.745 5.609h.628a.249.249 0 1 0 0-.498h-.628a.249.249 0 1 0 0 .498zM9.416 6.28c0 .138.111.25.249.25h.628a.249.249 0 1 0 0-.499h-.628a.249.249 0 0 0-.249.25zM10.336 7.2c0 .138.112.25.25.25h.627a.249.249 0 1 0 0-.498h-.628a.249.249 0 0 0-.249.249zM3.516 14.113a.969.969 0 1 0-1.371-1.37.969.969 0 0 0 1.371 1.37zM2.5 13.095a.471.471 0 0 1 .665.665.47.47 0 0 1-.665-.665z" fill="#15142B"/>
</svg>
