<svg width="69" height="72" viewBox="0 0 69 72" fill="none" xmlns="http://www.w3.org/2000/svg">
  <g filter="url(#pwplsope9a)">
    <path d="M33.185 56.305c11.148 0 20.186-9.038 20.186-20.186s-9.038-20.185-20.186-20.185S13 24.971 13 36.12c0 11.148 9.037 20.186 20.185 20.186z" fill="#fff"></path>
  </g>
  <path fill-rule="evenodd" clip-rule="evenodd" d="M29.366 27.812a8.357 8.357 0 0 0-4.362 7.326l.005 6.137a8.359 8.359 0 0 0 8.339 8.331 8.358 8.358 0 0 0 8.332-8.338l-.006-6.137a8.358 8.358 0 0 0-8.338-8.332c-.565 0-1.128.057-1.68.172" fill="#F8C81E"></path>
  <path d="M29.366 27.812a8.357 8.357 0 0 0-4.362 7.326l.005 6.137a8.359 8.359 0 0 0 8.339 8.331 8.358 8.358 0 0 0 8.332-8.338l-.006-6.137a8.358 8.358 0 0 0-8.338-8.332c-.565 0-1.128.057-1.68.172" stroke="#191405" stroke-width=".859" stroke-miterlimit="10"></path>
  <path fill-rule="evenodd" clip-rule="evenodd" d="M32.598 35.103c.048-1.37 1.432-1.374 1.482 0 .343 3.958 6.347 4.341 7.027.624.125-.688.298-1.908 1.152-2.042v-.945c-1.48-.032-2.88-.486-4.345-.445-1.966.057-2.635.927-4.575 1.066-1.94-.136-2.61-1.006-4.575-1.06-1.466-.04-2.864.415-4.344.45v.944c.854.133 1.03 1.352 1.153 2.041.688 3.716 6.686 3.326 7.027-.632h-.002zm2.054-.03c-.044-.985.106-1.392 1.06-1.715a7.473 7.473 0 0 1 2.205-.481c2.116-.061 3.02.463 2.603 2.743-.558 3.054-5.563 2.708-5.868-.548zm-2.626-.014c-.304 3.27-5.308 3.623-5.87.57-.418-2.28.484-2.806 2.6-2.749a7.46 7.46 0 0 1 2.206.48c.955.32 1.105.727 1.064 1.697v.002zm-1.338 5.167a.264.264 0 0 0 .275-.114.268.268 0 0 0-.003-.298.265.265 0 0 0-.173-.111 1.194 1.194 0 0 0-1.254.574.266.266 0 1 0 .461.267.663.663 0 0 1 .086-.115 3.562 3.562 0 0 0 6.528 0 .673.673 0 0 1 .086.115.267.267 0 0 0 .46-.267 1.192 1.192 0 0 0-1.253-.573.266.266 0 0 0 .098.522.712.712 0 0 1 .125-.012 3.03 3.03 0 0 1-5.556 0c.042 0 .084.004.125.012h-.005z" fill="#000"></path>
  <path fill-rule="evenodd" clip-rule="evenodd" d="M29.27 33.417a1.725 1.725 0 1 0 .003 3.45 1.725 1.725 0 0 0-.003-3.45zm8.136-.004a1.725 1.725 0 1 0 .002 3.45 1.725 1.725 0 0 0-.002-3.45z" fill="#fff"></path>
  <path fill-rule="evenodd" clip-rule="evenodd" d="M29.287 34.26a.886.886 0 0 0-.84 1.153.56.56 0 0 1 .922.61.884.884 0 0 0 .736-1.216h-.035a.3.3 0 0 1-.284-.395.88.88 0 0 0-.499-.153z" fill="#000"></path>
  <path fill-rule="evenodd" clip-rule="evenodd" d="M37.388 34.254a.883.883 0 0 0-.859 1.08.558.558 0 0 1 .84.687h.022a.883.883 0 0 0 .805-1.243.3.3 0 0 1-.387-.418.885.885 0 0 0-.421-.106z" fill="#313131"></path>
  <path d="M25.38 25.955c.406.349.857.642 1.34.873-1.575-1.276-1.374-2.185-.832-4.639l.156-.72.13-.627.303.568a.368.368 0 0 1 .03.052c.133.188.811.963 3.265 1.236 1.472.164 2.764.313 3.704.44a7.94 7.94 0 0 1 1.759.332c.393.335.766.694 1.116 1.074a.996.996 0 0 0-.045-.316 4.967 4.967 0 0 0-.735-1.34l-.285-.411.515.086a4.084 4.084 0 0 1 1.86.706c.416.317.75.73.973 1.202.132.259.242.527.331.803.07-.26.122-.524.155-.791l.064-.516.357.4a7.112 7.112 0 0 1 1.124 1.608c.285.585.424 1.23.404 1.88v.022c.246.94.438 1.893.578 2.854a14.19 14.19 0 0 1-.49 3.522L39.413 30.5c0-.006-.637-.172-.79-.465a4.157 4.157 0 0 0-.977-1.085 1.873 1.873 0 0 0-.959-.43 20.029 20.029 0 0 0-3.373.195h-.006l-.047.007-.046-.015a43.042 43.042 0 0 0-1.663-.43c-.54-.135-1.09-.23-1.645-.285a1.877 1.877 0 0 0-1.013.277c-.43.235-.815.547-1.135.919-.197.265-2.377 2.682-2.377 2.682s.468-.82.333-1.041c-.73-1.168-.651-2.37-.732-4.715l-.017-.53.415.372z" fill="#000"></path>
  <circle cx="47.597" cy="17.198" fill="#D32F2F" r="9.403"></circle>
  <defs>
    <filter id="pwplsope9a" x="-2" y=".934" width="70.371" height="70.371" filterUnits="userSpaceOnUse" color-interpolation-filters="sRGB">
      <feFlood flood-opacity="0" result="BackgroundImageFix"></feFlood>
      <feColorMatrix in="SourceAlpha" values="0 0 0 0 0 0 0 0 0 0 0 0 0 0 0 0 0 0 127 0" result="hardAlpha"></feColorMatrix>
      <feOffset></feOffset>
      <feGaussianBlur stdDeviation="7.5"></feGaussianBlur>
      <feComposite in2="hardAlpha" operator="out"></feComposite>
      <feColorMatrix values="0 0 0 0 0 0 0 0 0 0 0 0 0 0 0 0 0 0 0.1 0"></feColorMatrix>
      <feBlend in2="BackgroundImageFix" result="effect1_dropShadow_2626_138236"></feBlend>
      <feBlend in="SourceGraphic" in2="effect1_dropShadow_2626_138236" result="shape"></feBlend>
    </filter>
  </defs>
</svg>