<svg width="18" height="30" viewBox="0 0 18 30" fill="none" xmlns="http://www.w3.org/2000/svg">
    <path fill-rule="evenodd" clip-rule="evenodd" d="M5.108 7.142a8.357 8.357 0 0 0-4.362 7.325l.005 6.138a8.359 8.359 0 0 0 8.338 8.331 8.359 8.359 0 0 0 8.332-8.338l-.005-6.137a8.358 8.358 0 0 0-8.339-8.332c-.564 0-1.127.057-1.68.171" fill="#F8C81E"/>
    <path d="M5.108 7.142a8.357 8.357 0 0 0-4.362 7.325l.005 6.138a8.359 8.359 0 0 0 8.338 8.331 8.359 8.359 0 0 0 8.332-8.338l-.005-6.137a8.358 8.358 0 0 0-8.339-8.332c-.564 0-1.127.057-1.68.171" stroke="#191405" stroke-width=".859" stroke-miterlimit="10"/>
    <path fill-rule="evenodd" clip-rule="evenodd" d="M8.34 14.433c.048-1.37 1.431-1.374 1.48 0 .345 3.958 6.349 4.341 7.028.624.103-.563.237-1.482.75-1.871.203-.154.402-.358.402-.612a.54.54 0 0 0-.504-.53c-1.296-.103-2.542-.455-3.84-.419-1.413.04-2.156.5-3.18.809a4.879 4.879 0 0 1-2.791.001c-1.025-.306-1.768-.765-3.18-.804-1.299-.035-2.544.318-3.841.423a.54.54 0 0 0-.503.53c0 .254.2.459.402.612.514.388.651 1.306.752 1.87.687 3.716 6.684 3.326 7.026-.631l-.001-.002zm2.053-.03c-.044-.985.106-1.392 1.06-1.715a7.474 7.474 0 0 1 2.206-.481c2.115-.061 3.019.463 2.602 2.743-.558 3.054-5.562 2.707-5.868-.548zm-2.626-.014c-.304 3.27-5.307 3.623-5.87.57-.418-2.28.485-2.806 2.6-2.749.756.047 1.5.209 2.207.48.954.32 1.104.727 1.063 1.697v.002zm-1.336 5.167a.267.267 0 1 0 .098-.523 1.193 1.193 0 0 0-1.255.574.266.266 0 0 0 .462.267c.034-.059.116-.046.146.015a3.562 3.562 0 0 0 6.408 0c.03-.06.11-.073.146-.015a.266.266 0 0 0 .46-.267 1.192 1.192 0 0 0-1.254-.573.267.267 0 0 0 .098.522c.058-.011.098.049.072.102a3.03 3.03 0 0 1-5.496-.1.01.01 0 0 1 .01-.014.675.675 0 0 1 .105.012z" fill="#000"/>
    <path fill-rule="evenodd" clip-rule="evenodd" d="M5.01 12.747a1.725 1.725 0 1 0 .004 3.45 1.725 1.725 0 0 0-.003-3.45zm8.137-.004a1.724 1.724 0 1 0 .001 3.448 1.724 1.724 0 0 0-.001-3.448z" fill="#fff"/>
    <path fill-rule="evenodd" clip-rule="evenodd" d="M5.029 13.589a.884.884 0 0 0-.874.76c-.025.175.203.235.378.213a.559.559 0 0 1 .608.402c.048.17.193.356.344.265a.883.883 0 0 0 .374-1.06.05.05 0 0 0-.047-.032.3.3 0 0 1-.3-.3c0-.057-.017-.119-.067-.146a.883.883 0 0 0-.416-.102z" fill="#000"/>
    <path fill-rule="evenodd" clip-rule="evenodd" d="M13.13 13.584a.882.882 0 0 0-.86.688l-.004.023c-.035.17.178.253.352.256a.558.558 0 0 1 .502.78c-.004.01.002.02.012.02a.883.883 0 0 0 .855-1.102c-.02-.08-.113-.11-.195-.116a.301.301 0 0 1-.278-.299c0-.083-.023-.177-.101-.204a.888.888 0 0 0-.283-.046z" fill="#313131"/>
    <path d="M1.122 5.284c.171.147.402-.131.31-.337-.376-.832-.166-1.783.197-3.428l.157-.72c.044-.213.33-.25.432-.06.024.033.042.069.067.1.2.246.946.935 3.228 1.188 1.473.164 2.764.314 3.705.44.557.042 1.109.142 1.645.298.075.022.144.06.203.112.28.243.549.498.807.764.08.083.21.028.174-.083a4.966 4.966 0 0 0-.734-1.341.21.21 0 0 1 .208-.328l.022.003a4.084 4.084 0 0 1 1.859.706 3.264 3.264 0 0 1 1.002 1.258c.105.213.428.192.458-.044a.235.235 0 0 1 .41-.127l.01.012a7.11 7.11 0 0 1 1.125 1.608c.285.585.424 1.23.404 1.88 0 .014.002.029.006.042.234.902.42 1.815.557 2.736.01.065.014.131.013.197-.023 1.178-1.452 1.348-1.949.28l-.154-.332a.762.762 0 0 0-.42-.384c-.19-.079-.416-.201-.5-.36a4.156 4.156 0 0 0-.977-1.085 1.874 1.874 0 0 0-.958-.43 20.028 20.028 0 0 0-3.382.195h-.009a.157.157 0 0 1-.07-.005l-.011-.003a43.182 43.182 0 0 0-1.663-.43 11.31 11.31 0 0 0-1.645-.285 1.877 1.877 0 0 0-1.013.277c-.431.235-.816.546-1.135.919-.12.161-.979 1.124-1.63 1.85-.097.108-.339-.086-.414-.21C.727 8.99.805 7.787.725 5.442c-.007-.199.229-.309.377-.176l.02.018z" fill="#000"/>
</svg>
