<svg width="16" height="16" viewBox="0 0 16 16" fill="none" xmlns="http://www.w3.org/2000/svg">
    <g clip-path="url(#zqq5c5q0qa)">
        <path d="m4.318 9-1.5-1-2 1.5-.5 1.5 1 2 1.5 1.5 2-2 .5-2-1-1.5z" fill="#28CBFF"/>
        <path d="M2.879 7.714A2.882 2.882 0 0 0 0 10.592c0 .803.439 1.772 1.304 2.881a13.192 13.192 0 0 0 1.255 1.39l.32.298.32-.299c.025-.024.636-.597 1.254-1.389.866-1.109 1.305-2.078 1.305-2.88a2.882 2.882 0 0 0-2.88-2.88zm.001 6.145c-.22-.23-.53-.568-.837-.962-.723-.928-1.106-1.724-1.106-2.305 0-1.07.871-1.94 1.942-1.94 1.07 0 1.941.87 1.941 1.94 0 1.035-1.201 2.5-1.94 3.267z" fill="#000"/>
        <path d="M2.879 9.661a.932.932 0 0 0 0 1.863.932.932 0 0 0 0-1.863z" fill="#000"/>
        <path d="m10.818 4.5 2 3 .5.5 2-3V3l-1-1.5h-2l-1.5 1v2z" fill="#28CBFF"/>
        <path d="M13.121.84a2.882 2.882 0 0 0-2.879 2.878c0 .802.44 1.772 1.305 2.88a13.204 13.204 0 0 0 1.254 1.39l.32.298.32-.298c.026-.024.637-.597 1.255-1.39C15.56 5.49 16 4.52 16 3.719A2.882 2.882 0 0 0 13.12.839zm0 6.146c-.738-.767-1.941-2.233-1.941-3.268 0-1.07.87-1.942 1.941-1.942 1.07 0 1.942.871 1.942 1.942 0 1.035-1.203 2.501-1.942 3.268z" fill="#000"/>
        <path d="M13.121 2.787a.932.932 0 0 0 0 1.862.932.932 0 0 0 0-1.862zM11.403 10.614H8.78c-.69 0-1.25-.561-1.25-1.25 0-.69.56-1.25 1.25-1.25h2.465v-.938H8.781a2.19 2.19 0 0 0-2.187 2.188A2.19 2.19 0 0 0 8.78 11.55h2.622c.689 0 1.25.56 1.25 1.25s-.561 1.25-1.25 1.25h-6.65v.937h6.65a2.19 2.19 0 0 0 2.187-2.187 2.19 2.19 0 0 0-2.187-2.187z" fill="#000"/>
    </g>
    <defs>
        <clipPath id="zqq5c5q0qa">
            <path fill="#fff" d="M0 0h16v16H0z"/>
        </clipPath>
    </defs>
</svg>
