<svg xmlns="http://www.w3.org/2000/svg" width="14" height="15" viewBox="0 0 14 15">
    <g fill="#444" fill-rule="nonzero">
        <path d="M12.625 6.03L7.696 1.1A3.721 3.721 0 0 0 5.046 0H1.25C.56 0 .001.56 0 1.25v13.5c0 .138.112.25.25.25h7.354c.64 0 1.229-.35 1.535-.912a7.36 7.36 0 0 1 2.94-2.942 1.75 1.75 0 0 0 .912-1.536V6.914c0-.331-.131-.65-.366-.883zm-.134 3.58c0 .457-.25.878-.651 1.097a7.854 7.854 0 0 0-3.14 3.142c-.218.401-.639.651-1.096.651H.5V1.25A.75.75 0 0 1 1.25.5h3.796a3.226 3.226 0 0 1 2.297.952l4.929 4.932c.14.141.218.332.219.53V9.61z"/>
        <path d="M11.357 6.26L6.842 1.744A2.729 2.729 0 0 0 4.9.938H1.687a.75.75 0 0 0-.75.75v4.75c0 .138.112.25.25.25h9.993a.25.25 0 0 0 .177-.427zm-3.924-.072H1.437v-4.5a.25.25 0 0 1 .25-.25h3.212a2.233 2.233 0 0 1 1.59.659l.944.944v3.147zm.5 0V3.54l2.644 2.647H7.932zM10.686 7.5H9.187a.75.75 0 0 0 0 1.5h1.499a.75.75 0 0 0 0-1.5zm0 1H9.187a.25.25 0 0 1 0-.5h1.499a.25.25 0 0 1 0 .5z"/>
    </g>
</svg>
