<svg xmlns="http://www.w3.org/2000/svg" width="17" height="15" viewBox="0 0 17 15">
    <path fill="#444" fill-rule="nonzero" stroke="#444" stroke-width=".2" d="M13.71 1.444A4.479 4.479 0 0 0 11.801 1c-1.153 0-2.256.49-3.109 1.46C7.84 1.49 6.737 1 5.583 1c-.632 0-1.279.147-1.909.444C1.41 2.637.33 5.359 1.44 8.21c1.407 3.787 6.51 5.56 7.252 5.79.743-.23 5.846-2.003 7.252-5.79 1.11-2.851.032-5.573-2.234-6.766zm-2.807 5.659a.306.306 0 0 0 .132-.307.32.32 0 0 0-.369-.255.331.331 0 0 0-.13.052c-.04.026-.963.661-1.703 1.856a6.72 6.72 0 0 0-.23.404 1.814 1.814 0 0 1 .017-2.246c.613-.775 1.743-1.218 2.583-1.454.448-.126.864-.207 1.181-.258.03.305.055.707.047 1.152-.016.857-.166 2.042-.784 2.822a1.92 1.92 0 0 1-1.518.726c-.372 0-.727-.102-1.037-.297.083-.171.175-.34.278-.507.668-1.089 1.525-1.682 1.533-1.688zm-3.32.599c-.125-.14-.208-.23-.216-.238a.322.322 0 0 0-.22-.104.317.317 0 0 0-.339.294.305.305 0 0 0 .081.225c.007.007.337.366.678.769.198.233.341.412.445.55a1.379 1.379 0 0 1-1.448-.306c-.41-.408-.697-1.103-.828-2.009a7.472 7.472 0 0 1-.07-.75c.298.018.68.058 1.079.14.424.089.796.21 1.105.361a2.414 2.414 0 0 0-.268 1.068zM15.74 6.1a5.653 5.653 0 0 1-.396 1.89l-.002.004-.002.004c-.293.788-.792 1.546-1.483 2.253-.58.591-1.297 1.15-2.13 1.66a16.021 16.021 0 0 1-2.895 1.382c-.362-1.196-.356-2.338.016-3.41a2.6 2.6 0 0 0 1.28.335c.766 0 1.523-.333 2.027-.97 1.401-1.77.78-5.052.78-5.052s-3.273.25-4.729 1.917c-1.108-.57-2.56-.62-3.028-.62-.098 0-.153.003-.153.003s-.17 2.589 1.08 3.831a2.029 2.029 0 0 0 2.103.464 5.77 5.77 0 0 0-.215.899c-.122.79-.077 1.61.131 2.444a16.037 16.037 0 0 1-2.468-1.222c-.834-.51-1.55-1.07-2.13-1.661-.692-.707-1.191-1.465-1.484-2.253l-.002-.004-.001-.005A5.653 5.653 0 0 1 1.643 6.1c-.017-.59.069-1.16.255-1.695a4.326 4.326 0 0 1 2.069-2.407 3.81 3.81 0 0 1 1.616-.375c.485 0 .953.103 1.392.306.455.21.87.525 1.23.936l.487.553.487-.553a3.73 3.73 0 0 1 1.23-.936 3.289 3.289 0 0 1 1.392-.306 3.81 3.81 0 0 1 1.617.375 4.326 4.326 0 0 1 2.068 2.407c.187.535.273 1.105.255 1.695z"/>
</svg>
