<svg xmlns="http://www.w3.org/2000/svg" width="11.209" height="11.238" fill="#8089a2" xmlns:v="https://vecta.io/nano"><path d="M10.67 11.238H.437A.43.43 0 0 1 0 10.801V.568A.43.43 0 0 1 .437.129h3.82a.44.44 0 0 1 .438.438c0 .242-.196.438-.437.438H.877v9.358h9.358v-3.38c0-.242.196-.437.438-.437a.44.44 0 0 1 .438.438v3.82a.43.43 0 0 1-.441.437zM5.742 7.2l-.015.015-2.376.67.67-2.376.015-.015z"/><path d="M4.023 5.5L9.43.087C9.484.03 9.558 0 9.635 0s.15.032.204.087l1.283 1.283c.056.053.087.127.087.204s-.032.15-.087.204L5.728 7.2z"/></svg>