<svg xmlns="http://www.w3.org/2000/svg" width="14.735" height="11.022" viewBox="0 0 14.735 11.022">
    <g>
        <g>
            <path fill="#21283a" stroke="#21283a" stroke-width="0.5px" d="M13.616 48h-13a.613.613 0 0 0-.125.013.62.62 0 0 0-.491.606V57.9a.62.62 0 0 0 .494.606.613.613 0 0 0 .125.013h13a.613.613 0 0 0 .125-.013.62.62 0 0 0 .494-.606v-9.281a.62.62 0 0 0-.622-.619zm-13 1.846l4.908 3.57-4.905 3.57zm13 8.057h-13v-.152L6.053 53.8l.883.642a.309.309 0 0 0 .364 0l.883-.642 5.434 3.952zm0-.917l-4.908-3.57 4.908-3.57zm0-7.905l-6.5 4.726L.619 49.08v-.461h13z" transform="translate(.25 -47.75) translate(0 48) translate(0 -48)"/>
        </g>
    </g>
</svg>
