<svg width="16" height="16" viewBox="0 0 16 16" fill="none" xmlns="http://www.w3.org/2000/svg">
    <g clip-path="url(#xqggrwdm2a)">
        <path d="M8.818 1.5v1l1.5 1-2 2 .5 1 1 1 1.5-.5 1-1.5 1 1.5h1.5l.5-1V1l-.5-.5h-5.5l-.5 1z" fill="#28CBFF"/>
        <path d="M16 1.979a1.965 1.965 0 0 0-.579-1.4A1.962 1.962 0 0 0 14.025 0H10.39C9.86 0 9.364.205 8.992.579a1.962 1.962 0 0 0-.579 1.396 1.98 1.98 0 0 0 1.065 1.754l-.755.755a1.977 1.977 0 0 0 1.396 3.371c.529 0 1.025-.206 1.398-.58l.754-.753a1.98 1.98 0 0 0 3.15.487c.373-.373.579-.869.579-1.397V1.98zm-1.241 4.367a1.03 1.03 0 0 1-.734.304c-.277 0-.538-.108-.734-.304a1.03 1.03 0 0 1-.303-.734.469.469 0 0 0-.8-.332l-1.334 1.333a1.039 1.039 0 0 1-1.468-1.467l1.334-1.333a.469.469 0 0 0-.331-.8c-.278 0-.538-.109-.734-.305a1.03 1.03 0 0 1-.304-.733c0-.277.108-.538.304-.734.196-.196.456-.304.734-.304h3.636a1.03 1.03 0 0 1 .867.467c.112.17.17.368.17.574v3.634c0 .277-.107.538-.303.734zM6.522 12.271l.755-.755a1.977 1.977 0 0 0-2.794-2.792l-.754.754A1.98 1.98 0 0 0 .58 8.99 1.961 1.961 0 0 0 0 10.388v3.633a1.966 1.966 0 0 0 .579 1.4c.372.373.868.579 1.396.579H5.61c.528 0 1.024-.206 1.397-.579s.578-.869.578-1.396a1.98 1.98 0 0 0-1.065-1.754zm-.177 2.487a1.032 1.032 0 0 1-.735.305H1.975a1.03 1.03 0 0 1-.867-.468 1.033 1.033 0 0 1-.17-.573v-3.634c0-.278.107-.538.303-.734.196-.196.457-.304.734-.304.277 0 .538.108.734.304.196.196.304.457.303.734a.469.469 0 0 0 .8.332l1.334-1.333a1.039 1.039 0 0 1 1.468 1.467L5.28 12.186a.469.469 0 0 0 .331.8c.278 0 .538.108.734.304.196.196.304.457.304.734 0 .277-.108.538-.304.733zM15.421 8.992a1.962 1.962 0 0 0-1.396-.579c-.528 0-1.024.206-1.396.579-.146.145-.266.309-.358.486l-.755-.755a1.963 1.963 0 0 0-1.396-.578c-.528 0-1.024.205-1.397.578a1.962 1.962 0 0 0-.578 1.397c0 .528.206 1.024.579 1.397l.754.754a1.977 1.977 0 0 0 .91 3.73l3.633-.001h.004a1.967 1.967 0 0 0 1.396-.579 1.96 1.96 0 0 0 .579-1.4V10.39c0-.528-.205-1.025-.579-1.398zm-.358 5.03a1.03 1.03 0 0 1-.468.87c-.168.112-.366.17-.573.17h-3.634a1.039 1.039 0 0 1 0-2.075.469.469 0 0 0 .332-.8l-1.333-1.333a1.03 1.03 0 0 1-.305-.734c0-.277.108-.538.304-.734a1.03 1.03 0 0 1 .734-.304c.277 0 .537.108.733.304l1.334 1.334a.47.47 0 0 0 .8-.331c0-.278.108-.538.304-.734a1.03 1.03 0 0 1 .734-.304c.277 0 .537.108.733.304.197.196.305.457.305.735v3.633zM7.276 4.483l-.754-.754A1.977 1.977 0 0 0 7.01.58 1.962 1.962 0 0 0 5.612 0H1.975A1.965 1.965 0 0 0 .578.58 1.96 1.96 0 0 0 0 1.978V5.61c0 .528.205 1.025.578 1.398s.87.578 1.397.578 1.023-.205 1.396-.578a1.98 1.98 0 0 0 .358-.486l.755.755c.373.373.869.578 1.396.578.528 0 1.024-.205 1.397-.578s.578-.87.578-1.397c0-.528-.206-1.024-.58-1.397zm-.662 2.13a1.031 1.031 0 0 1-.734.305 1.03 1.03 0 0 1-.733-.304L3.813 5.28a.469.469 0 0 0-.8.331c0 .278-.108.538-.305.734a1.03 1.03 0 0 1-.733.304 1.03 1.03 0 0 1-.734-.304 1.031 1.031 0 0 1-.304-.734V1.977a1.03 1.03 0 0 1 .468-.869 1.03 1.03 0 0 1 .57-.17h3.637a1.039 1.039 0 0 1 0 2.075.469.469 0 0 0-.332.8l1.333 1.333c.197.196.305.457.305.734 0 .277-.108.538-.304.734z" fill="#000"/>
    </g>
    <defs>
        <clipPath id="xqggrwdm2a">
            <path fill="#fff" d="M0 0h16v16H0z"/>
        </clipPath>
    </defs>
</svg>
