<svg width="41" height="41" viewBox="0 0 41 41" fill="none" xmlns="http://www.w3.org/2000/svg">
    <circle cx="20.719" cy="20.472" r="18.381" fill="#28CBFF"/>
    <path d="M37.158 10.504a19.142 19.142 0 0 1 2.78 9.968c0 6.233-2.96 11.77-7.554 15.279v0a19.139 19.139 0 0 1-11.665 3.94 19.138 19.138 0 0 1-11.665-3.94A19.18 19.18 0 0 1 1.5 20.471C1.5 9.85 10.095 1.254 20.719 1.254c4.443 0 8.531 1.504 11.785 4.031" stroke="#15142B" stroke-width="2" stroke-miterlimit="10" stroke-linecap="round" stroke-linejoin="round"/>
    <path d="M36.125 7.878a1.031 1.031 0 1 1-2.063 0 1.031 1.031 0 0 1 2.063 0z" fill="#15142B" stroke="#15142B" stroke-width=".5"/>
    <path d="M15.408 23.774a10.747 10.747 0 0 1-2.49-3.968c-.905-2.854.21-5.89 2.966-6.792l.007-.002.007-.002c.186-.064.377-.11.569-.14h.111l.065-.008c.208-.03.415-.045.626-.045h.085c.451.015.886.09 1.309.228l.017.016.196.063c.17.055.299.106.409.167l.032.018.034.015.301.134.017.011.076.054.035.025.065.047c.032.023.082.058.134.09l.012.007.066.039c.07.041.094.055.114.07l.547.42.547-.42a4.74 4.74 0 0 1 2.914-.984h.007c.484 0 .953.068 1.388.214l.008.003c2.715.882 3.837 3.914 2.945 6.777a10.563 10.563 0 0 1-2.487 3.972 33.725 33.725 0 0 1-5.293 4.184 33.413 33.413 0 0 1-5.34-4.193z" fill="#fff" stroke="#000" stroke-width="1.801"/>
</svg>
