<svg width="41" height="41" viewBox="0 0 41 41" fill="none" xmlns="http://www.w3.org/2000/svg">
    <circle cx="20.219" cy="20.219" r="18.381" fill="#fff"/>
    <path d="M36.658 10.25a19.142 19.142 0 0 1 2.78 9.969c0 6.233-2.96 11.77-7.554 15.279v0a19.139 19.139 0 0 1-11.665 3.94 19.138 19.138 0 0 1-11.665-3.94A19.18 19.18 0 0 1 1 20.218C1 9.598 9.595 1 20.219 1c4.443 0 8.531 1.504 11.785 4.031" stroke="#15142B" stroke-width="2" stroke-miterlimit="10" stroke-linecap="round" stroke-linejoin="round"/>
    <path d="M35.625 7.625a1.031 1.031 0 1 1-2.063 0 1.031 1.031 0 0 1 2.063 0z" fill="#15142B" stroke="#15142B" stroke-width=".5"/>
    <path d="M16.485 11.9a5.344 5.344 0 0 1 1.504.265l.019.018.195.063c.193.062.342.121.472.193l.032.018.034.015.341.152a2.16 2.16 0 0 1 .154.108l.07.05c.036.026.089.063.144.097l.011.007.07.04c.081.048.113.067.14.088l.547.419.547-.418a5.364 5.364 0 0 1 3.297-1.115h.007c.547 0 1.079.078 1.573.244l.008.002c3.082 1.002 4.337 4.437 3.334 7.652a11.828 11.828 0 0 1-2.786 4.45 37.55 37.55 0 0 1-5.948 4.693 37.203 37.203 0 0 1-5.998-4.703 12.033 12.033 0 0 1-2.79-4.445c-1.017-3.206.23-6.645 3.358-7.668l.006-.002.007-.003c.215-.074.436-.127.657-.16h.124l.065-.01c.236-.034.471-.05.71-.05h.096z" fill="#FFFFFF" stroke="#000" stroke-width="1.8"/>
</svg>