<svg width="97" height="20" viewBox="0 0 97 20" fill="none" xmlns="http://www.w3.org/2000/svg">
    <path d="M0 4h97v13H0V4z" fill="#FFD15C"/>
    <path d="m6.524 7.536-.487 1.95 4.298-.043-.484 1.937-4.298.042-.759 3.038-2.754.027 2.213-8.86 7.637-.076-.484 1.937-4.882.048zM13.267 5.617l2.754-.027-1.716 6.872 4.644-.046-.496 1.987-7.398.073 2.212-8.86v.001zM26.685 12.697l-4.128.04-1.198 1.734-2.817.027 6.528-8.923 2.72-.026 2.104 8.838-2.873.028-.336-1.718zm-.346-1.844-.545-2.83-1.965 2.855 2.51-.025zM30.268 13.676l1.367-1.858c.733.511 1.87.854 2.997.843 1.142-.012 1.66-.307 1.767-.738.352-1.406-5.445-.326-4.622-3.618.395-1.583 2.138-2.89 5.033-2.918 1.267-.012 2.509.241 3.343.738l-1.314 1.87c-.82-.446-1.681-.666-2.53-.657-1.155.011-1.662.37-1.772.813-.339 1.355 5.44.288 4.624 3.555-.386 1.545-2.135 2.877-5.03 2.905-1.6.016-3.09-.361-3.863-.935zM51.334 5.516l-2.216 8.87-2.759.027.865-3.46-3.761.037-.865 3.46-2.758.027 2.216-8.87 2.759-.028-.833 3.333 3.761-.037.833-3.332 2.758-.027zM55.926 13.8l1.367-1.858c.733.51 1.87.853 2.997.842 1.141-.01 1.66-.306 1.767-.737.351-1.406-5.445-.326-4.623-3.619.396-1.583 2.139-2.888 5.034-2.917 1.267-.012 2.508.241 3.343.738l-1.315 1.87c-.818-.447-1.68-.666-2.53-.657-1.155.011-1.661.37-1.772.813-.338 1.355 5.441.288 4.625 3.555-.386 1.545-2.135 2.876-5.03 2.905-1.601.016-3.09-.361-3.863-.935zM72.467 12.81l-4.128.04-1.198 1.732-2.817.028 6.528-8.923 2.72-.026 2.104 8.838-2.873.028-.336-1.718zm-.346-1.845-.545-2.83-1.965 2.855 2.51-.025zM78.756 5.715l2.754-.027-1.717 6.872 4.645-.046-.497 1.987-7.397.073 2.212-8.859zM93.41 12.563l-.483 1.937-7.818.077 2.213-8.861 7.638-.075-.484 1.937-4.91.048-.374 1.493 4.327-.042-.468 1.874-4.327.042-.404 1.62 5.091-.05z" fill="#15142B"/>
</svg>
