<svg viewBox="0 0 49 52" fill="none" xmlns="http://www.w3.org/2000/svg">
    <circle cx="28" cy="26" r="15" fill="url(#9esrafezqa)"/>
    <path d="M17.724 50.43c-.066.103-.223.022-.177-.091l10.747-26.553a.1.1 0 0 0-.095-.138l-4.869.116a.1.1 0 0 1-.087-.152L36.422 1.971c.063-.104.223-.026.178.088l-7.386 18.958a.1.1 0 0 0 .096.137l6.869-.164a.1.1 0 0 1 .087.154L17.724 50.43z" fill="url(#4m2vekrq3b)" stroke="url(#rhadsovxzc)" stroke-width="2"/>
    <defs>
        <radialGradient id="4m2vekrq3b" cx="0" cy="0" r="1" gradientUnits="userSpaceOnUse" gradientTransform="rotate(-34.663 35.355 -52.725) scale(26.649)">
            <stop stop-color="#FFD763"/>
            <stop offset="1" stop-color="#F9A21F"/>
        </radialGradient>
        <radialGradient id="rhadsovxzc" cx="0" cy="0" r="1" gradientUnits="userSpaceOnUse" gradientTransform="rotate(-34.663 35.355 -52.725) scale(26.649)">
            <stop stop-color="#FFD763"/>
            <stop offset="1" stop-color="#F9A21F"/>
        </radialGradient>
        <linearGradient id="9esrafezqa" x1="46.611" y1=".479" x2="8.284" y2="5.6" gradientUnits="userSpaceOnUse">
            <stop stop-color="#4898CA"/>
            <stop offset="1" stop-color="#2D608D"/>
        </linearGradient>
    </defs>
</svg>
