<svg xmlns="http://www.w3.org/2000/svg" width="181" height="181" viewBox="0 0 181 181">
    <defs>
        <style>
            .cls-3,.cls-4{fill-rule:evenodd}.cls-4{fill:#fff}
        </style>
    </defs>
    <g id="Group_10143" transform="translate(-98 -246)">
        <circle id="Ellipse_1377" cx="90.5" cy="90.5" r="90.5" fill="#fcf8c8" transform="translate(98 246)"/>
        <g id="Group_10139" transform="translate(147.795 273.768)">
            <path id="Path_21842" fill="#f8c81e" fill-rule="evenodd" stroke="#04072e" stroke-miterlimit="10" stroke-width="2px" d="M413.121 104.619a36.352 36.352 0 0 0-18.977 31.865l.022 26.7a36.36 36.36 0 0 0 36.274 36.235 36.359 36.359 0 0 0 36.234-36.274l-.022-26.7a36.359 36.359 0 0 0-36.274-36.235 36.065 36.065 0 0 0-7.309.748" transform="translate(-391.592 -74.298)"/>
            <path id="Path_21843" d="M427.215 135.969c.208-5.958 6.228-5.962 6.444 0 1.5 17.216 27.613 18.883 30.566 2.714.547-3 1.3-8.3 5.01-8.881v-4.118c-6.44-.14-12.526-2.113-18.9-1.934-8.553.247-11.463 4.032-19.9 4.635-8.437-.593-11.351-4.375-19.905-4.612-6.374-.174-12.458 1.806-18.9 1.954v4.118c3.713.58 4.47 5.881 5.019 8.876 2.973 16.165 29.078 14.469 30.564-2.749zm8.934-.133c-.192-4.283.462-6.051 4.611-7.453a32.5 32.5 0 0 1 9.6-2.1c9.2-.266 13.135 2.013 11.32 11.936-2.428 13.283-24.2 11.772-25.526-2.387zm-11.421-.058c-1.321 14.225-23.087 15.761-25.529 2.479-1.825-9.919 2.1-12.2 11.307-11.948a32.469 32.469 0 0 1 9.6 2.087c4.15 1.4 4.807 3.164 4.624 7.383z" class="cls-3" transform="translate(-391.631 -73.936)"/>
            <path id="Path_21844" d="M418.571 157.764a1.158 1.158 0 1 0 .429-2.274 5.19 5.19 0 0 0-5.455 2.5 1.158 1.158 0 0 0 2.005 1.16 2.879 2.879 0 0 1 .36-.5 15.493 15.493 0 0 0 28.4-.015 2.917 2.917 0 0 1 .362.5 1.157 1.157 0 0 0 2-1.16 5.186 5.186 0 0 0-5.454-2.495 1.157 1.157 0 1 0 .427 2.273 3.085 3.085 0 0 1 .545-.051 13.18 13.18 0 0 1-24.168.013 2.943 2.943 0 0 1 .541.051z" class="cls-3" transform="translate(-391.297 -73.45)"/>
            <path id="Path_21845" d="M412.534 128.56a7.5 7.5 0 1 0 7.51 7.5 7.5 7.5 0 0 0-7.51-7.5z" class="cls-4" transform="translate(-391.425 -73.862)"/>
            <path id="Path_21846" d="M447.384 128.541a7.5 7.5 0 1 0 7.508 7.5 7.5 7.5 0 0 0-7.508-7.5z" class="cls-4" transform="translate(-390.889 -73.862)"/>
            <path id="Path_21847" d="M412.553 132.165a3.85 3.85 0 0 0-3.659 5.019 2.431 2.431 0 0 1 4.013 2.652 3.844 3.844 0 0 0 3.2-5.288c-.048.005-.1.007-.148.008a1.3 1.3 0 0 1-1.3-1.3 1.266 1.266 0 0 1 .066-.416 3.826 3.826 0 0 0-2.17-.67z" class="cls-3" transform="translate(-391.368 -73.807)"/>
            <path id="Path_21848" fill="#313131" fill-rule="evenodd" d="M447.259 132.146a3.843 3.843 0 0 0-3.745 4.7 2.43 2.43 0 0 1 3.655 2.987h.094a3.844 3.844 0 0 0 3.506-5.411 1.306 1.306 0 0 1-1.844-1.189 1.321 1.321 0 0 1 .159-.626 3.83 3.83 0 0 0-1.827-.46z" transform="translate(-390.835 -73.807)"/>
            <path id="Path_21849" d="M395.789 96.929a26.2 26.2 0 0 0 5.824 3.8c-6.852-5.549-5.984-9.5-3.622-20.176.158-.715.318-1.453.68-3.135l.57-2.722 1.314 2.47a1.614 1.614 0 0 1 .136.222c.574.818 3.526 4.191 14.184 5.378 6.4.713 12.022 1.364 16.115 1.918 4.271.57 7.068 1.047 7.65 1.444a56.273 56.273 0 0 1 4.868 4.673 4.342 4.342 0 0 0-.2-1.376 21.6 21.6 0 0 0-3.194-5.831l-1.24-1.785 2.244.363a17.766 17.766 0 0 1 8.084 3.071 14.183 14.183 0 0 1 4.237 5.232 23.906 23.906 0 0 1 1.438 3.49 25.483 25.483 0 0 0 .677-3.441l.277-2.23 1.549 1.739a30.937 30.937 0 0 1 4.89 7 17.46 17.46 0 0 1 1.76 8.18v.094c-.214 1.543 2.32 6.64 2.511 12.416.225 6.814-2.131 15.33-2.131 15.33l-7.589-16.333c0-.023-2.767-.751-3.434-2.023a18.084 18.084 0 0 0-4.252-4.718 8.153 8.153 0 0 0-4.168-1.874c-4.264-.334-10.292.343-14.671.845h-.025l-.207.03-.2-.063c-2.15-.59-4.7-1.282-7.233-1.879a49.193 49.193 0 0 0-7.154-1.241 8.163 8.163 0 0 0-4.41 1.2 17.664 17.664 0 0 0-4.935 4c-.857 1.152-10.343 11.669-10.343 11.669s2.038-3.571 1.449-4.532c-3.177-5.079-2.834-10.307-3.184-20.51l-.074-2.3z" transform="translate(-391.595 -74.69)"/>
        </g>
        <g id="Group_10140" transform="rotate(-148 175.241 149.055)">
            <path id="Path_23645" stroke="#000" d="M0 10.566c4.125.781 7.119.511 7.772-2.445C8.576 3.677 4.641 1.533 0 0z" transform="translate(21.09 9.659)"/>
            <path id="Path_23646" fill="#ffd32e" d="M0 9.25c4.125.684 6.192.447 6.761-2.14C7.46 3.22 4.641 1.342 0 0z" transform="translate(21.09 10.489)"/>
            <path id="Path_23647" d="M13.2 7.083C12.589 3.69 10.979.639 8.72.152S3.644.145 1.145 4.638C-1.369 10.082.408 15.387 4.988 20.6A25.966 25.966 0 0 1 11.013 38c-.253 3.949 1.185 6.08 5.065 5.589 7-.491 5.045-8.082 2.707-15.98 6.682-2.21 8.951-8.3 3.941-12.327 1.668-3.629.281-6.3-2.195-8.631-1.964-1.665-4.361-1.7-7.331.432z"/>
            <path id="Path_23648" fill="#ffd32e" stroke="#191405" d="M10.824 34.413A27.315 27.315 0 0 0 4.3 18.4C-.7 12.22-1.955 6.1 3.86.94a3.669 3.669 0 0 1 5.4.547c.614.806 1.21 1.665 2.392 5.522 1.572 4.917 3.387 5.7 5.327 4.323-2.276.186-3.9-.792-4.017-4.454.819-1.646 4.934-2.838 7.51.393a7.282 7.282 0 0 1 .873 6.867c-2.332 3.581-5.917 4.929-10.828 3.917 4.52 1.741 8.088.542 11.068-2.86 4.5 3.2 1.631 9.289-3.908 10.632A13.262 13.262 0 0 1 9.033 23.6c1.615 2.073 4.254 3.188 7.99 3.274a20.378 20.378 0 0 1 2.358 8.689s.7 6.561-4.5 6.561-3.539-6.318-4.057-7.711z" transform="translate(.801 .992)"/>
        </g>
    </g>
</svg>
