<svg width="16" height="16" viewBox="0 0 16 16" fill="none" xmlns="http://www.w3.org/2000/svg">
    <path d="M7.233 10.978 8.555 6.09l1.9.514-1.322 4.888-1.9-.514z" fill="#fff"/>
    <path d="M8.94 12.04a.178.178 0 0 1-.048-.007l-1.902-.515a.175.175 0 0 1-.109-.085.172.172 0 0 1-.017-.138l1.753-6.177a.175.175 0 0 1 .084-.11.172.172 0 0 1 .138-.016l1.902.515a.181.181 0 0 1 .128.223l-1.752 6.177a.184.184 0 0 1-.177.133zm-1.676-.824 1.55.42 1.658-5.827-1.55-.42-1.658 5.827z" fill="#000" stroke="#000" stroke-width=".224"/>
    <path d="M12.804 3.608a2.46 2.46 0 0 1-.849 1.29 3.454 3.454 0 0 0-1.197 1.804l-.027.102-2.535-.687.029-.104a3.46 3.46 0 0 0-.124-2.16A2.476 2.476 0 0 1 11.057.564a2.483 2.483 0 0 1 1.747 3.043z" fill="#28CBFF"/>
    <path d="M10.729 6.985a.18.18 0 0 1-.049-.007L8.145 6.29a.182.182 0 0 1-.128-.223l.029-.104a3.265 3.265 0 0 0-.116-2.046 2.637 2.637 0 0 1-.087-1.655A2.65 2.65 0 0 1 9.086.649a2.643 2.643 0 0 1 2.02-.258 2.647 2.647 0 0 1 1.614 1.243 2.65 2.65 0 0 1 .26 2.022 2.627 2.627 0 0 1-.911 1.384 3.24 3.24 0 0 0-1.135 1.71l-.026.102a.191.191 0 0 1-.18.133zm-2.313-.997 2.187.593c.21-.72.638-1.35 1.24-1.826.385-.305.659-.719.787-1.195a2.283 2.283 0 0 0-.225-1.747 2.3 2.3 0 0 0-4.137 1.974c.279.714.33 1.473.148 2.201z" fill="#000" stroke="#000" stroke-width=".224"/>
    <path d="M10.021 13.2c.541 0 .982-.438.982-.982l-.982-.645v-.338H6.379a.982.982 0 0 0 0 1.965h3.642zM12.756 15.49a.982.982 0 1 0-.002-1.965h-9.11a.982.982 0 0 0 0 1.964h9.112z" fill="#28CBFF" stroke="#000" stroke-width=".675"/>
</svg>
