<svg width="16" height="16" viewBox="0 0 16 16" fill="none" xmlns="http://www.w3.org/2000/svg">
    <mask id="2mxuabp03a" style="mask-type:luminance" maskUnits="userSpaceOnUse" x="0" y="0" width="16" height="16">
        <path d="M0 0h16v16H0V0z" fill="#fff"/>
    </mask>
    <g mask="url(#2mxuabp03a)">
        <path d="M13.938 8.63H2.062V7.38h11.25V5.041h1.25v2.962c0 .345-.28.625-.624.625z" fill="#fff"/>
        <path d="M2.688 10.96h-1.25V5.05h1.25v5.91zM8.629 10.96h-1.25V5.05h1.25v5.91z" fill="#fff"/>
        <path d="M13.313 5.042v2.337H8.628V5.05" stroke="#000" stroke-width=".833" stroke-miterlimit="10" stroke-linecap="round" stroke-linejoin="round"/>
        <path d="M8.629 10.96V8.63h5.309c.345 0 .624-.28.624-.626V5.042M2.688 10.96V8.63h4.69v2.33M1.438 9.409v1.552M1.438 5.05v1.546M7.379 5.05v2.33H2.688V5.05" stroke="#000" stroke-width=".833" stroke-miterlimit="10" stroke-linecap="round" stroke-linejoin="round"/>
        <path d="M3.813 3.313a1.75 1.75 0 1 0-3.5 0 1.75 1.75 0 0 0 3.5 0z" fill="#28CBFF"/>
        <path d="M3.813 3.313a1.75 1.75 0 1 0-3.5 0 1.75 1.75 0 0 0 3.5 0z" stroke="#000" stroke-width=".833" stroke-miterlimit="10" stroke-linecap="round" stroke-linejoin="round"/>
        <path d="M12.188 3.313a1.75 1.75 0 1 1 3.5 0 1.75 1.75 0 0 1-3.5 0z" fill="#28CBFF"/>
        <path d="M12.188 3.313a1.75 1.75 0 1 1 3.5 0 1.75 1.75 0 0 1-3.5 0z" stroke="#000" stroke-width=".833" stroke-miterlimit="10" stroke-linecap="round" stroke-linejoin="round"/>
        <path d="M6.254 3.313a1.75 1.75 0 1 1 3.5 0 1.75 1.75 0 0 1-3.5 0z" fill="#28CBFF"/>
        <path d="M6.254 3.313a1.75 1.75 0 1 1 3.5 0 1.75 1.75 0 0 1-3.5 0z" stroke="#000" stroke-width=".833" stroke-miterlimit="10" stroke-linecap="round" stroke-linejoin="round"/>
        <path d="M3.813 12.688a1.75 1.75 0 1 0-3.5 0 1.75 1.75 0 0 0 3.5 0z" fill="#28CBFF"/>
        <path d="M3.813 12.688a1.75 1.75 0 1 0-3.5 0 1.75 1.75 0 0 0 3.5 0z" stroke="#000" stroke-width=".833" stroke-miterlimit="10" stroke-linecap="round" stroke-linejoin="round"/>
        <path d="M6.254 12.688a1.75 1.75 0 1 1 3.5 0 1.75 1.75 0 0 1-3.5 0z" fill="#28CBFF"/>
        <path d="M6.254 12.688a1.75 1.75 0 1 1 3.5 0 1.75 1.75 0 0 1-3.5 0z" stroke="#000" stroke-width=".833" stroke-miterlimit="10" stroke-linecap="round" stroke-linejoin="round"/>
    </g>
</svg>
