<svg xmlns="http://www.w3.org/2000/svg" width="13" height="15" viewBox="0 0 13 15">
    <path fill="#444" fill-rule="nonzero" d="M9.375 5.48c1.51 0 2.738-1.229 2.738-2.74A2.743 2.743 0 0 0 9.375 0a2.743 2.743 0 0 0-2.363 4.122.287.287 0 0 0-.031.034l-3.085 4.21H2.892c-.637 0-1.156.517-1.156 1.153 0 .214.06.413.161.584a1.154 1.154 0 0 0-.816 1.81 1.589 1.589 0 0 0-1.074 1.5v1.299c0 .159.129.288.288.288h9.512c.16 0 .289-.13.289-.288v-1.299c0-.695-.45-1.288-1.075-1.5a1.154 1.154 0 0 0-.816-1.809c.102-.172.161-.371.161-.585 0-.636-.518-1.154-1.155-1.154h-.612l1.997-2.998c.247.074.508.114.779.114zm0-4.903c1.192 0 2.162.97 2.162 2.163 0 1.193-.97 2.164-2.162 2.164A2.165 2.165 0 0 1 7.213 2.74c0-1.193.97-2.163 2.162-2.163zm.144 12.836v1.01H.583v-1.01c0-.556.453-1.01 1.01-1.01H8.51c.556 0 1.01.454 1.01 1.01zm-1.439-2.74a.576.576 0 0 1 0 1.154H2.022a.576.576 0 0 1 0-1.154H8.08zm-.87-1.73c.32 0 .58.258.58.576 0 .318-.26.577-.58.577H2.893a.579.579 0 0 1-.58-.577c0-.318.26-.577.58-.577H7.21zm-1.304-.578H4.61L7.37 4.603c.198.213.429.395.685.537L5.906 8.365z"/>
</svg>
