<svg width="16" height="16" viewBox="0 0 16 16" fill="none" xmlns="http://www.w3.org/2000/svg">
    <g clip-path="url(#0xnu3uxlha)">
        <path d="M1.927 7.216H5.81c.776 0 1.405-.629 1.405-1.404V1.927c0-.775-.629-1.404-1.405-1.404H1.927C1.15.523.522 1.152.522 1.927v3.885c0 .775.629 1.404 1.405 1.404z" fill="#28CBFF" stroke="#000" stroke-width=".851"/>
        <path d="m5.008 2.492-1.79 1.792-.487-.487a.454.454 0 1 0-.642.643l.807.807a.452.452 0 0 0 .642 0L5.65 3.134a.454.454 0 0 0-.642-.642z" fill="#000"/>
        <path d="M10.188 7.216h3.884c.776 0 1.405-.629 1.405-1.404V1.927c0-.775-.63-1.404-1.405-1.404h-3.884c-.776 0-1.405.629-1.405 1.404v3.885c0 .775.629 1.404 1.405 1.404zM1.927 15.477h3.884c.776 0 1.405-.629 1.405-1.405v-3.884c0-.776-.629-1.405-1.405-1.405H1.927c-.776 0-1.405.63-1.405 1.405v3.884c0 .776.63 1.405 1.405 1.405zM10.188 15.477h3.884c.776 0 1.405-.629 1.405-1.405v-3.884c0-.776-.629-1.405-1.405-1.405h-3.884c-.776 0-1.405.63-1.405 1.405v3.884c0 .776.629 1.405 1.405 1.405z" fill="#fff" stroke="#000" stroke-width=".851"/>
    </g>
    <defs>
        <clipPath id="0xnu3uxlha">
            <path fill="#fff" d="M0 0h16v16H0z"/>
        </clipPath>
    </defs>
</svg>
