<svg width="16" height="16" viewBox="0 0 16 16" fill="none" xmlns="http://www.w3.org/2000/svg">
    <g clip-path="url(#idmi1uxh6a)">
        <path d="m12.818 7.01-.63 1.42c-.324.669-.828.669-.828.669V2.226c0-.457-.373-.844-.83-.835a.814.814 0 0 0-.798.813V1.135c0-.456-.374-.843-.83-.834a.814.814 0 0 0-.799.813v1.09a.814.814 0 0 0-.798-.813c-.456-.009-.83.378-.83.834v1.931a.814.814 0 0 0-.798-.813c-.457-.008-.83.379-.83.835V10.88c0 1.317.641 2.485 1.628 3.21v4.19h4.09v-4.19s.923-.13 1.488-1.315l2.71-6.09a.444.444 0 0 0-.384-.624 1.63 1.63 0 0 0-1.561.949z" fill="#fff"/>
        <path d="M14.379 6.062a1.63 1.63 0 0 0-1.561.949l-.63 1.419a1.695 1.695 0 0 1-.058.11l-1.885 4.236c-.565 1.186-1.487 1.314-1.487 1.314v4.192h1.808V14.09s.922-.128 1.487-1.314l2.71-6.09a.444.444 0 0 0-.384-.624z" fill="#fff"/>
        <path d="M7.924 1.694v.51c0-.134.032-.26.09-.37a.812.812 0 0 0-.09-.14z" fill="#FFE3AB"/>
        <path d="M10.573 15.723H6.484a.418.418 0 0 0-.417.418v1.177h4.924V16.14a.418.418 0 0 0-.418-.418z" fill="#28CBFF"/>
        <path d="M10.573 15.723H8.93c.23 0 .418.187.418.418v1.177h1.643V16.14a.418.418 0 0 0-.418-.418z" fill="#28CBFF"/>
        <path d="M14.394 5.754a1.93 1.93 0 0 0-1.858 1.132L11.91 8.3c-.076.154-.16.26-.24.332V2.225c.01-.808-.904-1.415-1.63-1.02a1.125 1.125 0 0 0-2.244 0c-.724-.394-1.638.21-1.628 1.02v.932c-.723-.393-1.639.21-1.628 1.02v1.348c0 .399.616.399.616 0V4.178c0-.276.232-.536.516-.526a.508.508 0 0 1 .496.504v3.35c0 .398.616.398.616 0v-5.28c0-.277.232-.535.516-.527a.508.508 0 0 1 .496.505V6.73c0 .399.617.399.617 0V1.114c0-.274.222-.5.496-.505.284-.007.516.249.516.526V6.73c0 .399.616.399.616 0V2.204c0-.273.223-.5.496-.505.284-.008.516.25.516.526v6.623c-1.103.305-2.098.964-2.44 2.602-.07.38.533.51.607.112.36-1.941 2.121-2.149 2.198-2.157.471-.047.866-.434 1.053-.85l.628-1.416a1.314 1.314 0 0 1 1.266-.769c.106.023.145.086.117.191l-2.708 6.086c-.48 1.004-1.221 1.133-1.25 1.138a.308.308 0 0 0-.265.305v1.325H6.783V14.09a.308.308 0 0 0-.125-.248 3.687 3.687 0 0 1-1.503-2.96V7.128c0-.398-.616-.398-.616 0v3.752c0 1.306.606 2.551 1.628 3.362v1.245a.727.727 0 0 0-.409.653v.871a.727.727 0 0 0-.662.724v2.989a.308.308 0 1 0 .616 0v-2.99c0-.06.05-.11.11-.11h2.863c.399 0 .399-.616 0-.616h-2.31v-.868c0-.06.049-.11.11-.11h4.089c.06 0 .11.05.11.11v.868h-.369c-.398 0-.398.617 0 .617h.922c.06 0 .109.05.109.11v2.989c.012.406.603.408.616 0v-2.99a.727.727 0 0 0-.662-.723v-.871a.727.727 0 0 0-.426-.661v-1.156c.655-.236 1.178-.797 1.46-1.423l2.71-6.09a.763.763 0 0 0-.65-1.057z" fill="#000"/>
    </g>
    <defs>
        <clipPath id="idmi1uxh6a">
            <path fill="#fff" d="M0 0h16v16H0z"/>
        </clipPath>
    </defs>
</svg>
