<svg xmlns="http://www.w3.org/2000/svg" width="13" height="15" viewBox="0 0 13 15">
    <path fill="#444" fill-rule="nonzero" d="M11.952 6.779a.57.57 0 0 0-.509-.279h-.003c-.416.002-.918.167-1.308.431-.36.244-.882.696-1.322 1.466a.526.526 0 0 1-.364.265v-.107c0-.078 0-.17-.003-.271V2.75a1 1 0 0 0-1-1 1 1 0 0 0-.998 1v3.875a.125.125 0 0 1-.125.125.125.125 0 0 1-.125-.125V1a1 1 0 0 0-1-1 1 1 0 0 0-.999 1v5.625a.125.125 0 0 1-.125.125.125.125 0 0 1-.125-.125v-4.5a.876.876 0 0 0-.874-.875.876.876 0 0 0-.874.875v5a.125.125 0 0 1-.125.125.125.125 0 0 1-.125-.125V4A.876.876 0 0 0 .197 4v6.8c.242 3.495 2.385 3.966 4.449 3.966 1.71 0 3.246-.848 4.004-2.206.097-.157.36-.572.673-1.063.782-1.229 1.436-2.26 1.533-2.444.216-.408.456-.728.695-.923.217-.177.35-.403.457-.601.056-.103.104-.482-.056-.75zm-.396.536c-.1.182-.194.325-.32.428-.295.24-.571.603-.822 1.077-.095.18-.948 1.521-1.512 2.409-.314.494-.579.91-.683 1.078-.674 1.209-2.044 1.96-3.573 1.96-2.634 0-3.778-1.015-3.95-3.485V4a.376.376 0 0 1 .752 0v3.125a.625.625 0 0 0 1.25 0v-5a.375.375 0 0 1 .749 0v4.5a.625.625 0 0 0 1.249 0V1a.5.5 0 0 1 1 0v5.625a.625.625 0 0 0 1.248 0V2.75a.5.5 0 0 1 1 0v5.541c.003.103.003.19.003.263-.001.224-.001.385.122.506.103.1.237.107.331.108.34-.008.663-.208.844-.523.392-.687.851-1.086 1.168-1.3.308-.208.712-.344 1.03-.345h.001c.053 0 .066.016.073.025.05.063.051.22.04.29z"/>
</svg>
