<svg xmlns="http://www.w3.org/2000/svg" width="37" height="37" viewBox="0 0 37 37">
    <defs>
        <filter id="Path_22447" width="37" height="37" x="0" y="0" filterUnits="userSpaceOnUse">
            <feOffset/>
            <feGaussianBlur result="blur" stdDeviation="3"/>
            <feFlood flood-opacity=".361"/>
            <feComposite in2="blur" operator="in"/>
            <feComposite in="SourceGraphic"/>
        </filter>
        <style>
            .cls-3{fill:#c94d00}
        </style>
    </defs>
    <g id="Group_8766" transform="translate(-257 -207)">
        <g id="down-arrow_1_" filter="url(#Path_22447)" transform="translate(257 207)">
            <path id="Path_22447-2" fill="#060a3d" d="M9.5 0A9.5 9.5 0 1 0 19 9.5 9.5 9.5 0 0 0 9.5 0z" transform="translate(9 9)"/>
        </g>
        <g id="hot-sale" transform="translate(270.374 218.827)">
            <path id="Union_4" fill="#eded00" d="M0 7.355a4.837 4.837 0 0 1 .8-2.713c.114-.172.781-1.092.781-1.092l.45.45A.976.976 0 0 0 3.7 3.3a3.747 3.747 0 0 1 .342-1.666A3.671 3.671 0 0 1 4.86.567 3.476 3.476 0 0 1 5.679 0 11.894 11.894 0 0 0 8.41 4.369a4.642 4.642 0 0 1 1.31 2.949A4.86 4.86 0 0 1 0 7.355z" transform="translate(.384 .534)"/>
            <g id="Group_6103">
                <path id="Path_18596" d="M249.215 4.646a14.469 14.469 0 0 1-2.128-3 6.9 6.9 0 0 1-.516-1.214L246.455 0l-.412.184a3.548 3.548 0 0 0-.663.416l-.273.481.273.566a3.553 3.553 0 0 1 .611-.542 13.712 13.712 0 0 0 2.655 4.057 4.372 4.372 0 0 1 1.211 2.691 4.481 4.481 0 0 1-4.476 4.476l-.273.495.273.273a5.25 5.25 0 0 0 5.244-5.244 4.984 4.984 0 0 0-1.41-3.207z" class="cls-3" transform="translate(-240.136)"/>
                <path id="Path_18597" d="M53.028 33.853a4.486 4.486 0 0 1-.582-5.644c.06-.09.3-.425.508-.714l.131.131a1.36 1.36 0 0 0 2.322-.969 3.392 3.392 0 0 1 .3-1.492 3.2 3.2 0 0 1 .476-.7v-1.044a4.11 4.11 0 0 0-1.163 1.4 4.156 4.156 0 0 0-.382 1.84.592.592 0 0 1-1.011.422l-.768-.768-.264.364c-.027.038-.673.928-.791 1.106a5.24 5.24 0 0 0 4.378 8.131v-.768a4.451 4.451 0 0 1-3.154-1.295z" class="cls-3" transform="translate(-50.94 -22.821)"/>
            </g>
            <path id="Union_5" d="M0 3.561a2.24 2.24 0 0 1 .413-1.314c.059-.083.4-.529.4-.529l.231.218a.525.525 0 0 0 .455.129.481.481 0 0 0 .4-.466 1.718 1.718 0 0 1 .182-.805A1.882 1.882 0 0 1 2.926 0a5.68 5.68 0 0 0 1.407 2.115 2.186 2.186 0 0 1 .675 1.428A2.432 2.432 0 0 1 2.5 5.9 2.428 2.428 0 0 1 0 3.561z" class="cls-3" transform="translate(2.74 6.817)"/>
        </g>
    </g>
</svg>
