<svg width="16" height="16" viewBox="0 0 16 16" fill="none" xmlns="http://www.w3.org/2000/svg">
    <path d="M3.91 9.259h3.045c-.349 2.171-1.573 3.776-3.046 3.776C2.172 13.035.762 10.782.762 8s1.41-5.035 3.147-5.035c1.467 0 2.697 1.605 3.046 3.776H3.91V9.26z" fill="#fff"/>
    <path d="M13.979 5.797v4.406a.629.629 0 0 1-.63.63c-4.509 0-4.336.08-4.594-.237L7.685 9.26V6.74C8.78 5.372 8.843 5.168 9.26 5.168h4.09a.63.63 0 0 1 .63.63z" fill="#28CBFF"/>
    <path d="M11.461 6.741h1.26V9.26h-1.26V6.74zM10.203 6.741V9.26l-1.259-.315V7.056l1.259-.315z" fill="#fff"/>
    <path d="M14.294 6.458v-.66a.944.944 0 0 0-.944-.945H9.259c-.608 0-.809.444-1.712 1.574h-.315C6.776 4.192 5.442 2.65 3.91 2.65 2 2.65.448 5.051.448 8s1.551 5.35 3.461 5.35c1.533 0 2.867-1.542 3.307-3.777h.315c.944 1.184 1.111 1.574 1.712 1.574h4.107a.944.944 0 0 0 .944-.944v-.661a1.574 1.574 0 0 0 0-3.084zM3.909 12.72c-1.573 0-2.832-2.118-2.832-4.72S2.336 3.28 3.91 3.28c1.202 0 2.266 1.277 2.666 3.147H4.224v-.315a.315.315 0 1 0-.63 0v3.776a.315.315 0 1 0 .63 0v-.315h2.35c-.4 1.87-1.463 3.147-2.665 3.147zm3.462-3.776H4.224V7.056H7.37v1.888zm6.293 1.259a.315.315 0 0 1-.314.314H9.259c-.202 0-.158 0-1.259-1.368V6.85l1-1.258c.136-.17-.078-.12 4.35-.12a.315.315 0 0 1 .314.315v4.415zm.63-1.312V7.109a.944.944 0 0 1 0 1.782z" fill="#000" stroke="#000" stroke-width=".1"/>
    <path d="M12.72 9.573h-1.259a.315.315 0 0 1-.314-.314V6.74a.315.315 0 0 1 .314-.314h1.26a.315.315 0 0 1 .314.314V9.26a.314.314 0 0 1-.315.314zm-.944-.629h.63V7.056h-.63v1.888zM8.869 9.259a.315.315 0 0 1-.24-.315V7.056a.315.315 0 0 1 .24-.315l1.258-.314a.315.315 0 0 1 .39.314c0 2.675.048 2.634-.12 2.766-.166.132-.22.066-1.528-.248zm.39-.56.63.157V7.144l-.63.157V8.7z" fill="#000"/>
</svg>
