<svg xmlns="http://www.w3.org/2000/svg" width="47" height="47" viewBox="0 0 47 47"><defs><style>.a{fill:#fcf8c8;}.b{fill:#f8c81e;stroke:#191405;stroke-miterlimit:10;}.b,.c,.d,.e{fill-rule:evenodd;}.d{fill:#fff;}.e{fill:#313131;}</style></defs><g transform="translate(-53 -506)"><circle class="a" cx="23.5" cy="23.5" r="23.5" transform="translate(53 506)"/><path class="b" d="M399.223,101.39a9.729,9.729,0,0,0-5.079,8.528l.006,7.145a9.731,9.731,0,0,0,9.708,9.7h0a9.731,9.731,0,0,0,9.7-9.708l-.006-7.145a9.731,9.731,0,0,0-9.708-9.7h0a9.653,9.653,0,0,0-1.956.2" transform="translate(-327.169 418.439)"/><path class="c" d="M401.155,127.009c.056-1.595,1.667-1.6,1.725,0,.4,4.608,7.39,5.054,8.181.726.146-.8.347-2.221,1.341-2.377q0-.551,0-1.1c-1.723-.037-3.352-.566-5.058-.518-2.289.066-3.068,1.079-5.326,1.241-2.258-.159-3.038-1.171-5.327-1.234-1.706-.046-3.334.483-5.057.523q0,.552,0,1.1c.994.155,1.2,1.574,1.343,2.376.8,4.326,7.783,3.872,8.18-.736Zm2.391-.036c-.051-1.146.124-1.619,1.234-1.995a8.7,8.7,0,0,1,2.568-.561c2.463-.071,3.515.539,3.03,3.194-.65,3.555-6.476,3.151-6.832-.639Zm-3.057-.015c-.354,3.807-6.179,4.218-6.833.663-.488-2.655.563-3.266,3.026-3.2a8.69,8.69,0,0,1,2.569.558c1.111.374,1.286.847,1.238,1.976Z" transform="translate(-325.339 401.308)"/><path class="c" d="M414.781,156.023a.31.31,0,1,0,.116-.609,1.389,1.389,0,0,0-1.46.669.31.31,0,0,0,.537.31.771.771,0,0,1,.1-.133,4.147,4.147,0,0,0,7.6,0,.785.785,0,0,1,.1.133.31.31,0,0,0,.536-.31,1.388,1.388,0,0,0-1.46-.668.31.31,0,0,0,.114.608.823.823,0,0,1,.146-.014,3.528,3.528,0,0,1-6.468,0,.787.787,0,0,1,.145.014Z" transform="translate(-341.189 378.258)"/><path class="d" d="M407.041,128.56a2.008,2.008,0,1,0,2.01,2.007,2.008,2.008,0,0,0-2.01-2.007Z" transform="translate(-335.1 397.794)"/><path class="d" d="M441.891,128.541a2.008,2.008,0,1,0,2.009,2.007,2.009,2.009,0,0,0-2.009-2.007Z" transform="translate(-360.478 397.808)"/><path class="c" d="M409.74,132.165a1.03,1.03,0,0,0-.979,1.343.651.651,0,0,1,1.074.71,1.029,1.029,0,0,0,.934-1.025,1.019,1.019,0,0,0-.077-.39l-.04,0a.349.349,0,0,1-.349-.349.338.338,0,0,1,.018-.111,1.024,1.024,0,0,0-.581-.179Z" transform="translate(-337.778 395.169)"/><path class="e" d="M444.446,132.146a1.028,1.028,0,0,0-1,1.257.65.65,0,0,1,.978.8h.025a1.029,1.029,0,0,0,.938-1.448.35.35,0,0,1-.494-.318.354.354,0,0,1,.043-.168,1.025,1.025,0,0,0-.489-.123Z" transform="translate(-363.053 395.183)"/><path d="M394.461,80.642a7.011,7.011,0,0,0,1.559,1.016c-1.834-1.485-1.6-2.543-.969-5.4.042-.191.085-.389.182-.839l.152-.729.352.661a.435.435,0,0,1,.036.06c.154.219.944,1.122,3.8,1.439,1.714.191,3.218.365,4.313.513a9.237,9.237,0,0,1,2.047.386,15.065,15.065,0,0,1,1.3,1.251,1.159,1.159,0,0,0-.053-.368,5.781,5.781,0,0,0-.855-1.561l-.332-.478.6.1a4.755,4.755,0,0,1,2.164.822,3.8,3.8,0,0,1,1.134,1.4,6.4,6.4,0,0,1,.385.934,6.812,6.812,0,0,0,.181-.921l.074-.6.415.466a8.277,8.277,0,0,1,1.309,1.872,4.672,4.672,0,0,1,.471,2.189v.025a30.385,30.385,0,0,1,.672,3.323,16.519,16.519,0,0,1-.57,4.1l-2.031-4.371c0-.006-.741-.2-.919-.541a4.84,4.84,0,0,0-1.138-1.263,2.182,2.182,0,0,0-1.116-.5,23.318,23.318,0,0,0-3.927.226h-.007l-.055.008-.053-.017c-.576-.158-1.258-.343-1.936-.5a13.166,13.166,0,0,0-1.915-.332,2.185,2.185,0,0,0-1.18.322,4.728,4.728,0,0,0-1.321,1.07c-.229.308-2.768,3.123-2.768,3.123s.545-.956.388-1.213c-.85-1.359-.758-2.759-.852-5.489l-.02-.617Z" transform="translate(-327.047 437.024)"/></g></svg>