<svg xmlns="http://www.w3.org/2000/svg" viewBox="0 0 17.58 17.232"><defs/><g fill="#fff" data-name="Group 11793"><g stroke="#fff" stroke-linecap="round" stroke-width=".5" data-name="Group 11728"><path d="M.249 16.982V.25h17.079v16.732h-.711V.957H.96v16.025z" data-name="Path 37518"/><path d="M.59 2.667h16.4v.711H.59z" data-name="Path 37520"/></g><path fill-rule="evenodd" d="M14.587 10.087a1.717 1.717 0 011.065 1.566v1.734a2.315 2.315 0 01-.954 1.429v1.3a.874.874 0 01-.874.865h-1.083a.874.874 0 01-.874-.865v-1.04H5.685v1.034a.882.882 0 01-.932.865h-1a.874.874 0 01-.874-.865v-1.3a1.615 1.615 0 01-.95-1.429v-1.726a1.673 1.673 0 011.063-1.568v-.021a3.426 3.426 0 011-2.951 3.532 3.532 0 012.483-1.02h4.624a3.5 3.5 0 013.488 3.992zm-8.209 1.892h4.828c.089 0 .191.08.169.169l-.266 1.074c-.022.089-.08.169-.173.169H6.675c-.089 0-.142-.08-.169-.169l-.3-1.074c-.027-.089.075-.169.169-.169zm5.9-2.072a1.362 1.362 0 00-2.618 0zm-3.585 0a2.31 2.31 0 014.557 0h.41a2.512 2.512 0 00-.733-2.12 2.6 2.6 0 00-1.828-.754H6.48a2.6 2.6 0 00-1.828.754 2.516 2.516 0 00-.737 2.12h4.779zm-4.97 4.908zm.001-.001zm0 0zm10.224 0zm0 0zm0 0zm-9.421-3.048a.71.71 0 11-.71.71.71.71 0 01.71-.71zm8.52 0a.71.71 0 11-.71.71.71.71 0 01.71-.71z" data-name="Path 37523"/></g></svg>
