<svg xmlns="http://www.w3.org/2000/svg" width="15" height="15" viewBox="0 0 15 15">
    <g fill="#444" fill-rule="nonzero">
        <path d="M7.495 0A7.497 7.497 0 0 0 0 7.5C0 11.642 3.355 15 7.495 15a7.497 7.497 0 0 0 7.494-7.5A7.506 7.506 0 0 0 7.495 0zm0 14.5A6.997 6.997 0 0 1 .5 7.5c0-3.866 3.131-7 6.995-7a6.997 6.997 0 0 1 6.995 7 7.005 7.005 0 0 1-6.995 7z"/>
        <path d="M7.495 1A6.498 6.498 0 0 0 .999 7.5C1 11.09 3.907 14 7.495 14a6.498 6.498 0 0 0 6.495-6.5A6.505 6.505 0 0 0 7.495 1zm0 12.5a5.998 5.998 0 0 1-5.996-6c0-3.314 2.684-6 5.996-6a5.998 5.998 0 0 1 5.995 6 6.005 6.005 0 0 1-5.995 6z"/>
        <path d="M1.749 7.25h.999v.5h-1zM12.241 7.25h1v.5h-1zM2.393 10.159l.866-.5.25.433-.866.5zM11.48 4.908l.866-.5.25.434-.866.5zM2.393 4.841l.25-.433.866.5-.25.433zM11.48 10.09l.25-.433.866.5-.25.433zM4.404 2.645l.433-.25.5.866-.433.25zM7.245 1.75h.5v1h-.5zM9.651 3.26l.5-.865.866.5-.5.866zM1.88 6.253l.129-.483.724.194-.13.483zM12.254 9.035l.13-.483.724.194-.13.483zM3.255 3.61l.353-.353.53.53-.353.354zM5.765 2.01l.483-.129.194.725-.483.13zM8.546 2.607l.194-.724.483.13-.194.723zM10.85 3.788l.53-.53.354.354-.53.53zM12.257 5.964l.724-.194.13.483-.724.194zM1.88 8.747l.724-.194.129.483-.724.194zM8.555 3.386a4.247 4.247 0 0 0-5.172 3.056 4.253 4.253 0 0 0 .433 3.183.25.25 0 0 0 .432-.25 3.751 3.751 0 0 1 1.376-5.122 3.746 3.746 0 0 1 5.118 1.376c.49.85.626 1.859.382 2.809a.25.25 0 0 0 .484.125 4.25 4.25 0 0 0-3.053-5.177z"/>
        <path d="M11.15 9.306l-2.748-2.25a.234.234 0 0 0-.023-.012.996.996 0 1 0-.944 1.45l3.472 1.241a.25.25 0 0 0 .243-.429zM7.495 8a.5.5 0 1 1 0-1 .5.5 0 0 1 0 1zm.68.228a.994.994 0 0 0 .284-.48l1.259 1.03-1.543-.55zM8.494 10H6.495a1.25 1.25 0 0 0 0 2.5h1.999a1.25 1.25 0 0 0 0-2.5zm0 2H6.495a.75.75 0 0 1 0-1.5h1.999a.75.75 0 0 1 0 1.5z"/>
        <path d="M6.995 11h-.5a.25.25 0 0 0 0 .5h.5a.25.25 0 0 0 0-.5zM8.494 11h-.5a.25.25 0 0 0 0 .5h.5a.25.25 0 0 0 0-.5z"/>
    </g>
</svg>
