<svg xmlns="http://www.w3.org/2000/svg" width="12" height="15" viewBox="0 0 12 15">
    <g fill="#444" fill-rule="nonzero">
        <path d="M9.5 3.372A2.999 2.999 0 1 0 3.53 3c-.001.084.004.168.01.25H3.53a2 2 0 0 0-1.974 1.698A2.504 2.504 0 0 0 .031 7.25V12c.001.69.56 1.25 1.25 1.25h2.498c.689 0 1.248-.56 1.249-1.25V7.25c-.001-.202-.026-.403-.075-.598.234-.237.405-.53.497-.85.186.07.38.122.577.155V7.25c0 .69.56 1.25 1.249 1.25h.25V14c0 .066.026.13.073.177l.75.75a.25.25 0 0 0 .353 0l.75-.75A.25.25 0 0 0 9.523 14v-1a.25.25 0 0 0-.073-.177l-.323-.323.323-.323A.25.25 0 0 0 9.524 12v-.25a.25.25 0 0 0-.073-.177l-.323-.323.323-.323a.25.25 0 0 0 .073-.177v-.25a.25.25 0 0 0-.073-.177L9.128 10l.323-.323a.25.25 0 0 0 .073-.177v-1h.25c.69 0 1.248-.56 1.25-1.25V5.5a2.252 2.252 0 0 0-1.525-2.128zM1.78 6.875a.62.62 0 0 1 .161-.415c.168.221.38.405.622.54H1.78v-.125zm.636-.624V6.25c.251.005.476.16.568.395a1.502 1.502 0 0 1-.568-.394zM4.528 12a.75.75 0 0 1-.75.75H1.28A.75.75 0 0 1 .53 12V7.25A2 2 0 0 1 1.55 5.51c.022.174.067.346.135.509a1.12 1.12 0 0 0-.404.856v.375c0 .138.112.25.25.25H3.28a.25.25 0 0 0 .25-.25v-.5h-.013a1.105 1.105 0 0 0-1.385-.962 1.491 1.491 0 0 1-.098-.472A1.99 1.99 0 0 1 4.528 7.25V12zm.462-6.42a1.486 1.486 0 0 1-.237.535 2.473 2.473 0 0 0-2.65-1.325A1.5 1.5 0 0 1 3.53 3.75c.032 0 .065.003.097.005A2.973 2.973 0 0 0 4.99 5.579zm-.794-1.67c.424.211.723.61.807 1.077a2.48 2.48 0 0 1-.807-1.078zM6.03 5.45a2.487 2.487 0 0 1-.504-.159l.002-.04a2.002 2.002 0 0 0-1.476-1.929A2.5 2.5 0 1 1 9.025 3a2.454 2.454 0 0 1-.02.262 2.269 2.269 0 0 0-.23-.012h-.5a2.25 2.25 0 0 0-2.246 2.2zM9.275 5a.25.25 0 0 1-.25.25h-.517c.168-.15.319-.317.45-.5h.067a.25.25 0 0 1 .25.25zm-.25 4.396l-.427.427a.25.25 0 0 0 0 .354l.427.427v.043l-.427.426a.25.25 0 0 0 0 .354l.427.427v.043l-.427.426a.25.25 0 0 0 0 .354l.427.427v.793l-.5.5-.5-.5V8.5h1v.896zm1.499-2.146a.75.75 0 0 1-.75.75H7.276a.75.75 0 0 1-.75-.75V5.5a1.751 1.751 0 0 1 1.75-1.75h.499c.043 0 .086.003.129.006-.056.173-.13.338-.222.494h-.657a.748.748 0 0 0-.26 1.45l.012.027.028-.014a.73.73 0 0 0 .22.037h1a.748.748 0 0 0 .209-1.467c.064-.135.118-.274.161-.417A1.751 1.751 0 0 1 10.524 5.5v1.75zM8.3 4.75a2.484 2.484 0 0 1-.48.384A.243.243 0 0 1 7.775 5a.25.25 0 0 1 .25-.25H8.3z"/>
        <path d="M3.279 8h-1.5a.75.75 0 0 0-.749.75v2.75c0 .414.336.75.75.75h1.499a.75.75 0 0 0 .75-.75V8.75a.75.75 0 0 0-.75-.75zm.25 3.5a.25.25 0 0 1-.25.25h-1.5a.25.25 0 0 1-.249-.25V11H3.53v.5zm0-1H1.53v-.75H3.53v.75zm0-1.25H1.53v-.5a.25.25 0 0 1 .25-.25h1.499a.25.25 0 0 1 .25.25v.5z"/>
    </g>
</svg>
