<svg width="40" height="40" viewBox="0 0 40 40" fill="none" xmlns="http://www.w3.org/2000/svg">
    <circle cx="20" cy="20" r="19.143" fill="#E1F1FC" stroke="#21283A" stroke-width="1.714"/>
    <path d="M8.8 20c0-6.186 5.014-11.2 11.2-11.2v22.4c-6.186 0-11.2-5.014-11.2-11.2z" fill="#87B7EE"/>
    <path d="M31 20c0-6.186-5.014-11.2-11.2-11.2v22.4C25.986 31.2 31 26.186 31 20z" fill="#fff"/>
    <path fill-rule="evenodd" clip-rule="evenodd" d="M32 20c0 6.627-5.373 12-12 12-6.624-.008-11.993-5.376-12-12 0-6.627 5.373-12 12-12s12 5.373 12 12zm-1.6 0c0-5.744-4.656-10.4-10.4-10.4-5.741.007-10.393 4.659-10.4 10.4 0 5.744 4.656 10.4 10.4 10.4 5.744 0 10.4-4.656 10.4-10.4z" fill="#000"/>
    <path fill-rule="evenodd" clip-rule="evenodd" d="M20.8 31.2a.8.8 0 0 1-.8.8c-6.627 0-12-5.373-12-12S13.373 8 20 8a.8.8 0 0 1 .8.8v22.4zM9.595 20A10.4 10.4 0 0 0 19.2 30.37V9.63A10.4 10.4 0 0 0 9.595 20z" fill="#21283A"/>
</svg>
