<svg viewBox="0 0 18 20" fill="none" xmlns="http://www.w3.org/2000/svg">
<path d="M9.36292 2.4248C12.6247 2.4248 15.2688 5.06895 15.2688 8.3307C15.2688 13.4491 9.36292 18.1738 9.36292 18.1738C9.36292 18.1738 3.45703 13.4491 3.45703 8.3307C3.45703 5.06895 6.10118 2.4248 9.36292 2.4248Z" stroke="#15142B" stroke-width="0.8" stroke-miterlimit="10" stroke-linecap="round" stroke-linejoin="round"/>
<path d="M7.16518 5.44327C7.77514 4.97828 8.53688 4.70215 9.36311 4.70215C11.3672 4.70215 12.9918 6.32678 12.9918 8.33088C12.9918 10.335 11.3672 11.9596 9.36311 11.9596C7.35901 11.9596 5.73438 10.335 5.73438 8.33088C5.73438 7.61301 5.94281 6.94383 6.30249 6.38057" fill="#28CBFF"/>
<path d="M7.16518 5.44327C7.77514 4.97828 8.53688 4.70215 9.36311 4.70215C11.3672 4.70215 12.9918 6.32678 12.9918 8.33088C12.9918 10.335 11.3672 11.9596 9.36311 11.9596C7.35901 11.9596 5.73438 10.335 5.73438 8.33088C5.73438 7.61301 5.94281 6.94383 6.30249 6.38057" stroke="#15142B" stroke-width="0.8" stroke-miterlimit="10" stroke-linecap="round" stroke-linejoin="round"/>
</svg>
