<svg width="16" height="16" viewBox="0 0 16 16" fill="none" xmlns="http://www.w3.org/2000/svg">
    <g clip-path="url(#lhfynaob4a)">
        <path d="m14.29 9.9-.503-3.886-8.834-4.732-3.514 1.735 1.693 12.276 11.157-5.392z" fill="#fff"/>
        <path d="M3.132 15.293 1.439 3.017l3.074 1.647-1.381 10.63z" fill="#28CBFF"/>
        <path d="M14.29 9.9 3.131 15.294l8.083-7.04 3.074 1.648zM9.37 3.648 4.513 4.664l.44-3.382L9.37 3.648zM9.37 3.648l1.845 4.606 2.572-2.24L9.37 3.648z" fill="#28CBFF"/>
        <path d="m11.215 8.254-8.083 7.04 1.381-10.63 6.702 3.59z" fill="#28CBFF"/>
        <path d="m14.515 9.871-.502-3.886a.24.24 0 0 0-.118-.172L5.06 1.081a.24.24 0 0 0-.208-.004L1.338 2.813a.23.23 0 0 0-.124.235l1.692 12.276a.228.228 0 0 0 .325.174l11.157-5.392a.23.23 0 0 0 .127-.235zM4.672 1.674 4.33 4.307 1.937 3.025l2.735-1.35zM10.817 8.3l-7.382 6.428L4.697 5.02l6.12 3.279zm-5.644-3.54 4.056-.849 1.542 3.847L5.173 4.76zm4.64-.615 3.576 1.915-2.082 1.813-1.494-3.728zm-5.032.231.355-2.737 3.575 1.915-3.93.822zm-.514.415-1.142 8.787L1.726 3.43 4.267 4.79zm6.98 3.739 2.54 1.361-9.223 4.458 6.682-5.82zm.367-.32 2.002-1.744.39 3.026-2.392-1.282z" fill="#1C1C21" stroke="#000" stroke-width=".2"/>
    </g>
    <defs>
        <clipPath id="lhfynaob4a">
            <path fill="#fff" d="M0 0h16v16H0z"/>
        </clipPath>
    </defs>
</svg>
