<svg width="16" height="16" viewBox="0 0 16 16" fill="none" xmlns="http://www.w3.org/2000/svg">
    <path d="m15.265 12.01-3.52-5.864a.501.501 0 0 0-.653-.19l-.426.212a.25.25 0 0 1-.289-.047L8.39 1.901a.501.501 0 0 0-.743.039L2.49 10.507v1.503h12.776z" fill="#fff"/>
    <path d="m5.996 8.253 2.243-6.158a.5.5 0 0 0-.572.15L2.49 10.507v1.503h3.507V8.253z" fill="#28CBFF"/>
    <path d="M7.82 7.28a.501.501 0 0 0-.649-.007l-1.175.98-1.398-.6a.501.501 0 0 0-.593.153L.735 12.01h12.526L7.82 7.28z" fill="#28CBFF"/>
    <path d="M4.598 7.654a.501.501 0 0 0-.593.152L.735 12.01H7.75L5.996 8.253l-1.398-.6z" fill="#fff"/>
    <path d="M4.598 7.654a.501.501 0 0 0-.593.152L.735 12.01H2.74l2.313-4.162-.454-.194z" fill="#fff"/>
    <path d="M15.766 11.776h-.369l-3.45-5.751a.739.739 0 0 0-.96-.28l-.436.219L8.602 1.87a.736.736 0 0 0-1.09.057L4.365 7.336l.325.102a.736.736 0 0 0-.87.225l-3.2 4.113H.235a.234.234 0 0 0 0 .469h15.532a.234.234 0 0 0 0-.47zm-7.89-9.553a.263.263 0 0 1 .193-.098.264.264 0 0 1 .202.078l1.97 4.113-.111.38a.234.234 0 1 0 .45.132l.121-.415.496-.248a.268.268 0 0 1 .348.101l3.306 5.51h-1.503l-3.36-2.923.304-1.041a.234.234 0 0 0-.45-.132l-.244.835-1.623-1.412a.732.732 0 0 0-.954-.01l-1.065.888-1.143-.453 3.062-5.305zm.023 9.553L6.285 8.317l1.036-.864a.266.266 0 0 1 .346.004l4.967 4.319H7.899zM4.19 7.95a.267.267 0 0 1 .316-.081l1.315.564 1.56 3.343H3.138L4.197 9.87a.234.234 0 1 0-.41-.228l-1.186 2.134H1.215L4.19 7.95z" fill="#000"/>
</svg>
