<svg xmlns="http://www.w3.org/2000/svg" viewBox="0 0 490.688 490.688" xmlns:v="https://vecta.io/nano"><path d="M462.784 209.088c-7.552-5.568-17.067-12.523-18.22-17.067a57.12 57.12 0 0 1 7.339-25.024c6.656-15.275 13.525-31.104 5.888-44.267s-25.003-15.296-41.707-17.067a56.82 56.82 0 0 1-24.939-5.952c-3.864-7.778-5.893-16.34-5.93-25.024-1.877-16.704-3.82-33.984-17.067-41.707s-29.1-.96-44.373 5.78c-7.672 4.34-16.243 6.852-25.045 7.34-4.608-1.237-11.54-10.667-17.067-18.22C271.978 14.825 261.076.02 245.332.02s-26.645 14.805-36.267 27.86c-5.59 7.573-12.523 17.067-17.067 18.24-8.794-.53-17.356-3.038-25.045-7.34-15.36-6.763-31.19-13.504-44.31-5.91s-15.317 25.003-17.195 41.813a57.09 57.09 0 0 1-5.931 24.939 56.99 56.99 0 0 1-24.853 5.845c-16.725 1.877-34.027 3.82-41.728 17.067s-.937 29.08 5.804 44.375a57.09 57.09 0 0 1 7.339 25.109c-1.237 4.608-10.667 11.563-18.22 17.067C14.805 218.688 0 229.61 0 245.355s14.805 26.667 27.883 36.267c7.552 5.568 17.067 12.523 18.22 17.067a57.12 57.12 0 0 1-7.339 25.024c-6.656 15.275-13.525 31.104-5.888 44.267s25.003 15.296 41.707 17.067a56.82 56.82 0 0 1 24.939 5.952c3.864 7.778 5.893 16.34 5.93 25.024 1.877 16.704 3.82 33.984 17.067 41.707s28.97.768 44.267-5.888c7.75-4.293 16.37-6.773 25.216-7.253 4.608 1.237 11.54 10.667 17.067 18.22 9.62 13.056 20.523 27.86 36.267 27.86s26.645-14.805 36.267-27.86c5.59-7.573 12.523-17.067 17.067-18.24a57.59 57.59 0 0 1 25.045 7.339c15.275 6.656 31.104 13.483 44.245 5.91s15.317-25.003 17.195-41.728a57.09 57.09 0 0 1 5.931-24.939c7.75-3.834 16.27-5.855 24.917-5.91 16.725-1.877 34.027-3.82 41.728-17.067s.747-28.97-5.888-44.267c-4.343-7.728-6.826-16.362-7.253-25.216 1.237-4.608 10.667-11.563 18.22-17.067 13.056-9.62 27.883-20.544 27.883-36.267s-14.83-26.668-27.908-36.268z" fill="#ffc107"/><g fill="#fafafa"><path d="M181.333 298.688a10.66 10.66 0 0 1-8.533-4.267L128 234.688v53.333a10.67 10.67 0 0 1-10.667 10.667 10.67 10.67 0 0 1-10.667-10.667v-85.333a10.67 10.67 0 0 1 10.667-10.667 10.66 10.66 0 0 1 8.533 4.267l44.8 59.733v-53.333a10.67 10.67 0 0 1 10.667-10.667A10.67 10.67 0 0 1 192 202.688v85.333c-.003 4.6-2.942 8.662-7.296 10.112a10.5 10.5 0 0 1-3.371.555zm85.334 0H224a10.67 10.67 0 0 1-10.667-10.667v-85.333A10.67 10.67 0 0 1 224 192.021h42.667a10.67 10.67 0 0 1 10.667 10.667 10.67 10.67 0 0 1-10.667 10.667h-32v64h32a10.67 10.67 0 0 1 10.667 10.667 10.67 10.67 0 0 1-10.667 10.666z"/><path d="M266.667 256.02H224a10.67 10.67 0 0 1-10.667-10.667A10.67 10.67 0 0 1 224 234.687h42.667a10.67 10.67 0 0 1 10.667 10.667 10.67 10.67 0 0 1-10.667 10.667zm106.666 42.668c-4.597.006-8.68-2.934-10.133-7.296L352 257.75l-11.2 33.643a10.2 10.2 0 0 1-10.539 7.275c-4.738-.18-8.788-3.465-9.94-8.064l-21.333-85.333a10.68 10.68 0 0 1 7.776-12.94 10.68 10.68 0 0 1 12.94 7.776L332.14 249.9l9.75-29.248a11.12 11.12 0 0 1 20.246 0l9.75 29.248 12.437-49.792c1.426-5.72 7.218-9.202 12.94-7.776s9.202 7.218 7.776 12.94l-21.333 85.333c-1.153 4.6-5.204 7.884-9.94 8.064l-.428.02z"/></g></svg>