<svg xmlns="http://www.w3.org/2000/svg" viewBox="0 0 25.332 23.799"><defs/><g data-name="Group 11799"><path fill="#21283a" fill-rule="evenodd" d="M19.015 15.447a2.086 2.086 0 011.213 1.9v2.1a2.824 2.824 0 01-1.087 1.733v1.571a1.029 1.029 0 01-1 1.049h-1.229a1.029 1.029 0 01-1-1.049v-1.255H8.875v1.254a1.033 1.033 0 01-1.061 1.046H6.671a1.029 1.029 0 01-1-1.049v-1.569a1.966 1.966 0 01-1.077-1.732v-2.1a2.031 2.031 0 011.213-1.9v-.026a4.32 4.32 0 011.137-3.578 3.9 3.9 0 012.831-1.238h5.267a4.156 4.156 0 014.013 4.224 4.521 4.521 0 01-.04.619zM9.664 17.74h5.5c.1 0 .217.1.192.2l-.3 1.3c-.025.108-.091.2-.2.2h-4.854c-.1 0-.162-.1-.192-.2l-.344-1.3c-.03-.108.086-.2.192-.2zm6.723-2.513a1.528 1.528 0 00-2.982 0zm-4.084 0a2.752 2.752 0 011.792-2.211 2.518 2.518 0 012.665.693 2.865 2.865 0 01.733 1.518h.465a3.166 3.166 0 00-.831-2.573 2.868 2.868 0 00-2.083-.915H9.78a2.868 2.868 0 00-2.083.915 3.171 3.171 0 00-.839 2.572h5.444zm-5.662 5.951zm0 0zm0 0zm11.646 0zm0 0zm0 0zm-10.731-3.7a.863.863 0 010 1.722.863.863 0 010-1.722zm9.7 0a.863.863 0 11-.809.861.836.836 0 01.814-.858z" data-name="Path 37523"/><path fill="none" stroke="#21283a" stroke-width="1.00052" d="M4.424922 10.283339h0a2.0490698 2.0490698 0 00-.738013 1.889344h0a.0490256.0490256 0 01-.052184.045142.05002612.05002612 0 01-.02642-.01014h0a2.07208181 2.07208181 0 00-1.904882-.731094h0a.04802507.04802507 0 01-.045142-.052184.05002612.05002612 0 01.01014-.02642h0a2.0710813 2.0710813 0 00.731094-1.904882h0a.0490256.0490256 0 01.078604-.035002h0a2.0710813 2.0710813 0 001.904882.731094h0c.044914.017238.066078.064766.041921.094142z" data-name="Path 37645"/><path fill="none" stroke="#21283a" stroke-width="1.00052" d="M15.965897 3.992769h0a4.71045929 4.71045929 0 00-1.697085 4.34479h0a.1120585.1120585 0 01-.118885.104415.11405955.11405955 0 01-.061173-.024236h0a4.76248645 4.76248645 0 00-4.380436-1.681212h0a.11105798.11105798 0 01-.103501-.119292.11506007.11506007 0 01.023322-.060766h0a4.76248645 4.76248645 0 001.681212-4.380436h0a.1120585.1120585 0 01.1828-.0814h0a4.76148593 4.76148593 0 004.380436 1.681212h0c.10121.04036.149643.149126.09331.216925z" data-name="Path 37647"/><path fill="none" stroke="#21283a" stroke-width="1.00052" d="M24.424922 11.293339h0a2.0490698 2.0490698 0 00-.738013 1.889344h0a.0490256.0490256 0 01-.052184.045142.05002612.05002612 0 01-.02642-.01014h0a2.07208181 2.07208181 0 00-1.904882-.731094h0a.04802507.04802507 0 01-.045142-.052184.05002612.05002612 0 01.01014-.02642h0a2.0710813 2.0710813 0 00.731094-1.904882h0a.0490256.0490256 0 01.078604-.035002h0a2.0710813 2.0710813 0 001.904882.731094h0c.044914.017238.066078.064766.041921.094142z" data-name="Path 37648"/></g></svg>
