<svg xmlns="http://www.w3.org/2000/svg" id="Group_9289" width="19.9" height="14.713" viewBox="0 0 19.9 14.713">
    <defs>
        <style>
            .cls-1{fill:#86b6ee}.cls-2{fill:#9fc7fe}.cls-4{fill:#deebfe}
        </style>
    </defs>
    <g id="Group_9175" transform="translate(0 3.094)">
        <path id="Path_22795" d="M288.306 318.663l1.474-.009a.509.509 0 0 1 .512.506l.017 2.928a.509.509 0 0 1-.506.512l-1.474.009a.509.509 0 0 1-.512-.506l-.017-2.928a.509.509 0 0 1 .506-.512z" class="cls-1" transform="translate(-271.54 -310.989)"/>
        <path id="Path_22796" d="M110.293 318.662l1.474-.009a.509.509 0 0 1 .512.506l.017 2.928a.509.509 0 0 1-.506.512l-1.474.009a.509.509 0 0 1-.512-.506l-.017-2.928a.509.509 0 0 1 .506-.512z" class="cls-1" transform="translate(-108.534 -310.988)"/>
        <path id="Path_22797" d="M303.16 227.743c-.125.012-.854.092-.9.528a.7.7 0 0 1-.387.687h-.373l.189.552s2.362-.014 2.293-.79c-.054-.602-.365-1.02-.822-.977z" class="cls-1" transform="translate(-284.088 -227.74)"/>
        <path id="Path_22798" d="M95.75 227.743c.125.012.854.092.9.528a.7.7 0 0 0 .387.687h.367l-.189.55s-2.362-.014-2.294-.79c.061-.6.372-1.018.829-.975z" class="cls-1" transform="translate(-94.924 -227.74)"/>
    </g>
    <path id="Path_22799" d="M118.969 199.192a4.074 4.074 0 0 0-.49-1.645l-.995-1.826s-1.769-3.984-2.5-4.3a37.792 37.792 0 0 0-5.559-.38h-.014a37.778 37.778 0 0 0-5.554.446c-.733.326-2.454 4.331-2.454 4.331l-.973 1.838a4.071 4.071 0 0 0-.47 1.651 11.906 11.906 0 0 0 .407 3.785 1.326 1.326 0 0 0 1.293.976l7.828-.047h.017l7.829-.047a1.327 1.327 0 0 0 1.28-.991 11.916 11.916 0 0 0 .355-3.791z" class="cls-2" transform="translate(-99.517 -191.04)"/>
    <path id="Path_22800" d="M118.567 286.595a1.326 1.326 0 0 1-1.282.99l-7.828.048h-.017l-7.828.047a1.327 1.327 0 0 1-1.293-.975 11.9 11.9 0 0 1-.408-3.786 4.041 4.041 0 0 1 .072-.52 10.959 10.959 0 0 0 .334 1.56 1.314 1.314 0 0 0 1.293.9l7.828-.048h.018l7.825-.047a1.312 1.312 0 0 0 1.282-.914 10.7 10.7 0 0 0 .306-1.5 4.4 4.4 0 0 1 .06.455 11.945 11.945 0 0 1-.362 3.79z" class="cls-2" transform="translate(-99.475 -274.653)"/>
    <path id="Path_22801" fill="#e1eef6" d="M140.752 198.34a.5.5 0 0 0-.442-.292l-5.217-.107h-.015l-5.215.169a.5.5 0 0 0-.438.3l-1.5 3.366 7.172-.042h.017l7.172-.042z" transform="translate(-125.146 -197.359)"/>
    <path id="Path_22802" d="M271.5 271.059l-2.148.525a.885.885 0 0 0 .209 1.745h1.849a.858.858 0 0 0 .55-.19 1.793 1.793 0 0 0 .625-1.078.882.882 0 0 0-1.085-1z" class="cls-4" transform="translate(-254.033 -264.29)"/>
    <path id="Path_22805" d="M114.486 271.986a.885.885 0 0 0-.548-.4l-2.15-.525a.882.882 0 0 0-1.084 1 1.793 1.793 0 0 0 .626 1.077.858.858 0 0 0 .55.19h1.849a.885.885 0 0 0 .756-1.343z" class="cls-4" transform="translate(-109.362 -264.289)"/>
    <path id="Path_22808" d="M134.077 246.722c-.121-.268-.247-.533-.375-.8s-.25-.531-.384-.794c.1.277.2.552.309.826.091.241.184.483.28.723a6.775 6.775 0 0 0-1.267.1 5 5 0 0 0-1.32.427 3.073 3.073 0 0 0-1.093.88 2.7 2.7 0 0 0-.5 1.209c-.605.006-1.209.023-1.815.038s-1.187.038-1.781.068c-.594-.03-1.188-.056-1.781-.068s-1.209-.032-1.815-.038a2.7 2.7 0 0 0-.5-1.209 3.074 3.074 0 0 0-1.093-.881 5 5 0 0 0-1.32-.425 6.777 6.777 0 0 0-1.269-.1c.1-.24.189-.481.28-.723.105-.275.208-.55.309-.827-.132.263-.257.529-.383.794s-.254.53-.375.8l-.042.1h.111a6.581 6.581 0 0 1 1.329.163 5.016 5.016 0 0 1 1.251.436 2.947 2.947 0 0 1 1.007.814 2.605 2.605 0 0 1 .492 1.187l.016.1h.1c.636 0 1.273-.023 1.909-.039.593-.013 1.187-.039 1.781-.069.594.03 1.188.056 1.781.069.636.015 1.273.034 1.909.039h.1l.016-.1a2.6 2.6 0 0 1 .492-1.187 2.944 2.944 0 0 1 1.007-.814 5.019 5.019 0 0 1 1.251-.436 6.581 6.581 0 0 1 1.329-.163h.111z" class="cls-2" transform="translate(-116.178 -240.569)"/>
</svg>
