<svg width="16" height="16" viewBox="0 0 16 16" fill="none" xmlns="http://www.w3.org/2000/svg">
    <g clip-path="url(#akdero47la)">
        <path d="m8.318 4-1-1-3 3-2 3.5V11l1 2.5 2 2h3.5l1.5-1 1-1.5 1-3.5-1.5-2h-1l-1-1-.5-1.5V4z" fill="#28CBFF"/>
        <path d="M14.105 5.088c0-.944-.467-1.659-.987-2.368L10.985 0 8.86 2.708l-.01.012c-.14.191-.276.383-.4.58L7.285 1.815 3.659 6.439l-.01.012C2.725 7.712 1.895 8.98 1.895 10.61a5.397 5.397 0 0 0 5.37 5.39l.022.001a5.397 5.397 0 0 0 5.39-5.391c0-.954-.285-1.784-.706-2.56a3.126 3.126 0 0 0 2.134-2.961zM7.307 15.06h-.021a4.457 4.457 0 0 1-4.452-4.452c0-1.345.71-2.425 1.568-3.597l2.884-3.676.71.905a2.796 2.796 0 0 0-.132.847 3.124 3.124 0 0 0 3.1 3.12h.019c.45.753.755 1.52.755 2.401a4.457 4.457 0 0 1-4.431 4.452zm3.69-7.792h-.012a2.184 2.184 0 0 1-2.182-2.181c0-.66.347-1.187.8-1.807l1.382-1.76 1.38 1.76c.455.62.801 1.147.801 1.807 0 1.199-.972 2.175-2.17 2.181z" fill="#000"/>
    </g>
    <defs>
        <clipPath id="akdero47la">
            <path fill="#fff" d="M0 0h16v16H0z"/>
        </clipPath>
    </defs>
</svg>
