<svg width="16" height="16" viewBox="0 0 16 16" fill="none" xmlns="http://www.w3.org/2000/svg">
    <g clip-path="url(#ivrol77b5a)">
        <path d="m7.5 7 .5.5 1 1 1-.5 2-1 2.5-.5 1-2V3L14 1l-2-.5-2 .5-1 2-.5 2-1 2z" fill="#28CBFF"/>
        <path d="M14.88 6.526c.73-.73 1.127-1.7 1.12-2.732a3.799 3.799 0 0 0-1.16-2.716A3.792 3.792 0 0 0 12.107 0 3.798 3.798 0 0 0 9.41 1.178 3.83 3.83 0 0 0 8.36 3.55c-.007.112-.02.222-.035.332-.846-.57-1.696-.996-2.444-1.218-1.377-.41-2.1-.062-2.463.301-.617.617-.644 1.712-.079 3.088a5.141 5.141 0 0 0-1.837 8.443A5.1 5.1 0 0 0 5.131 16a5.1 5.1 0 0 0 3.63-1.504c.521-.52.926-1.151 1.182-1.837.657.27 1.25.405 1.757.405.556 0 1.008-.162 1.33-.484.365-.364.712-1.088.3-2.47-.223-.748-.649-1.597-1.22-2.442.102-.013.204-.023.306-.03a3.82 3.82 0 0 0 2.464-1.112zm-6.781 7.307a4.168 4.168 0 0 1-2.968 1.23 4.168 4.168 0 0 1-2.967-1.23 4.202 4.202 0 0 1 1.58-6.93c.165.306.352.614.559.922a3.154 3.154 0 0 0-1.399 5.267 3.129 3.129 0 0 0 2.227.924 3.13 3.13 0 0 0 2.228-.923c.389-.39.668-.873.811-1.4.309.207.617.395.923.56a4.21 4.21 0 0 1-.994 1.58zM4.91 8.661a14.492 14.492 0 0 0 2.422 2.423 2.216 2.216 0 0 1-2.202 1.994c-.59 0-1.146-.23-1.564-.648a2.216 2.216 0 0 1 1.344-3.769zm7.52 1.717c.216.722.193 1.283-.063 1.54-.332.331-1.135.272-2.148-.159-1.14-.485-2.418-1.387-3.506-2.476-1.09-1.089-1.991-2.367-2.476-3.507-.43-1.013-.49-1.816-.158-2.148.255-.255.814-.28 1.533-.066.739.22 1.603.673 2.461 1.288a4.271 4.271 0 0 1-.967 1.504l-.102.102a.469.469 0 0 0 0 .663l1.827 1.828a.469.469 0 0 0 .663 0l.023-.023a4.383 4.383 0 0 1 1.614-1.02c.62.862 1.078 1.73 1.3 2.474zM9.177 7.965 7.992 6.78a5.354 5.354 0 0 0 1.303-3.164 2.89 2.89 0 0 1 .792-1.79 2.867 2.867 0 0 1 2.037-.888 2.86 2.86 0 0 1 2.063.811c.559.544.87 1.272.875 2.051a2.867 2.867 0 0 1-.845 2.063 2.883 2.883 0 0 1-1.86.84 5.448 5.448 0 0 0-3.18 1.262z" fill="#000"/>
    </g>
    <defs>
        <clipPath id="ivrol77b5a">
            <path fill="#fff" d="M0 0h16v16H0z"/>
        </clipPath>
    </defs>
</svg>
