<svg xmlns="http://www.w3.org/2000/svg" id="Group_8819" width="135.689" height="184.202" viewBox="0 0 135.689 184.202">
    <defs>
        <style>
            .cls-3,.cls-4{fill-rule:evenodd}.cls-4{fill:#fff}.cls-6{fill:#fffab7}
        </style>
    </defs>
    <path id="Path_21841" fill="#285283" fill-rule="evenodd" d="M416.643 199.366c16.349 0 29.6 1.077 29.6 2.407s-13.252 2.409-29.6 2.409-29.6-1.078-29.6-2.409 13.253-2.407 29.6-2.407z" transform="translate(-327.501 -19.98)"/>
    <g id="Group_8786" transform="rotate(179 67.568 90.508)">
        <path id="Path_21842" fill="#f8c81e" fill-rule="evenodd" stroke="#04072e" stroke-miterlimit="10" stroke-width="3px" d="M22.508 112.432A43.114 43.114 0 0 1 0 74.638l.026-31.662A43.124 43.124 0 0 1 43.049 0a43.123 43.123 0 0 1 42.976 43.023L86 74.685a43.123 43.123 0 0 1-43.023 42.976 42.776 42.776 0 0 1-8.668-.888" transform="translate(3.026)"/>
        <path id="Path_21843" d="M42.2 16.543c.247 7.067 7.387 7.071 7.642 0C51.631-3.872 82.6-5.849 86.1 13.328c.649 3.553 1.539 9.842 5.942 10.534v4.884c-7.638.166-14.856 2.506-22.415 2.294-10.145-.293-13.6-4.782-23.6-5.5-10.006.7-13.463 5.189-23.608 5.47C14.852 31.218 7.636 28.87 0 28.7v-4.884c4.4-.688 5.3-6.975 5.953-10.528C9.48-5.889 40.442-3.878 42.2 16.543zm10.6.158c-.228 5.08.548 7.176 5.469 8.839a38.548 38.548 0 0 0 11.38 2.486c10.917.316 15.578-2.388 13.426-14.156C80.2-1.885 54.379-.093 52.8 16.7zm-13.546.069C37.688-.1 11.872-1.923 8.975 13.83 6.811 25.594 11.469 28.3 22.386 28a38.509 38.509 0 0 0 11.384-2.474c4.922-1.658 5.7-3.752 5.484-8.756z" class="cls-3" transform="translate(0 58.277)"/>
        <path id="Path_21844" d="M6.139 12.07a1.373 1.373 0 1 1 .514 2.7A6.156 6.156 0 0 1 .184 11.8a1.374 1.374 0 0 1 2.378-1.375 3.414 3.414 0 0 0 .427.591 18.376 18.376 0 0 1 33.681.018 3.467 3.467 0 0 0 .429-.589 1.373 1.373 0 0 1 2.376 1.375 6.151 6.151 0 0 1-6.468 2.959 1.372 1.372 0 1 1 .507-2.7 3.662 3.662 0 0 0 .647.06A15.632 15.632 0 0 0 5.5 12.131a3.488 3.488 0 0 0 .642-.06z" class="cls-3" transform="translate(26.21 36.323)"/>
        <path id="Path_21845" d="M8.895 17.8A8.9 8.9 0 1 1 17.8 8.9a8.9 8.9 0 0 1-8.907 8.9z" class="cls-4" transform="translate(16.141 65.72)"/>
        <path id="Path_21846" d="M8.9 17.8a8.9 8.9 0 1 1 8.9-8.895A8.9 8.9 0 0 1 8.9 17.8z" class="cls-4" transform="translate(58.108 65.742)"/>
        <path id="Path_21847" d="M4.556 9.1a4.566 4.566 0 0 1-4.34-5.954A2.883 2.883 0 0 0 4.975 0a4.559 4.559 0 0 1 3.8 6.272c-.057-.006-.114-.008-.176-.01A1.547 1.547 0 0 0 7.051 7.81a1.5 1.5 0 0 0 .078.494 4.537 4.537 0 0 1-2.573.796z" class="cls-3" transform="translate(20.57 70.08)"/>
        <path id="Path_21848" fill="#313131" fill-rule="evenodd" d="M4.556 9.116A4.56 4.56 0 0 1 0 4.555a4.509 4.509 0 0 1 .114-1.01 2.862 2.862 0 0 0 1.734.582 2.88 2.88 0 0 0 2.884-2.879A2.856 2.856 0 0 0 4.45 0h.112A4.559 4.559 0 0 1 8.72 6.418a1.549 1.549 0 0 0-2.187 1.41 1.568 1.568 0 0 0 .189.743 4.542 4.542 0 0 1-2.167.546z" transform="translate(62.366 70.085)"/>
        <path id="Path_21849" d="M2.151 42.835a31.077 31.077 0 0 1 6.908-4.5c-8.126 6.581-7.1 11.271-4.3 23.93.188.848.377 1.723.807 3.719l.676 3.229L7.8 66.281a1.909 1.909 0 0 0 .161-.264c.68-.971 4.182-4.971 16.822-6.379 7.6-.845 14.259-1.617 19.113-2.275 5.065-.676 8.383-1.242 9.073-1.712a66.735 66.735 0 0 0 5.773-5.542 5.147 5.147 0 0 1-.235 1.632 25.618 25.618 0 0 1-3.789 6.916l-1.47 2.117 2.661-.431A21.071 21.071 0 0 0 65.5 56.7a16.823 16.823 0 0 0 5.025-6.206 28.351 28.351 0 0 0 1.705-4.139 30.205 30.205 0 0 1 .8 4.081l.329 2.645 1.841-2.063a36.691 36.691 0 0 0 5.8-8.3 20.707 20.707 0 0 0 2.087-9.7v-.11c-.254-1.83 2.752-7.875 2.978-14.726C86.327 10.1 83.532 0 83.532 0l-9 19.372c0 .028-3.282.891-4.073 2.4a21.449 21.449 0 0 1-5.043 5.6 9.67 9.67 0 0 1-4.944 2.223c-5.057.4-12.207-.407-17.4-1h-.03l-.246-.036-.236.075c-2.551.7-5.574 1.521-8.578 2.229A58.343 58.343 0 0 1 25.5 32.33a9.681 9.681 0 0 1-5.23-1.426 20.951 20.951 0 0 1-5.853-4.742C13.4 24.795 2.146 12.322 2.146 12.322s2.417 4.236 1.719 5.378C.1 23.721.5 29.921.088 42.023L0 44.755z" transform="translate(2.824 79.183)"/>
    </g>
    <path id="Path_22479" d="M22.37 1.041l-4.6 4.6-4.6-4.6a3.553 3.553 0 0 0-5.027 0l-7.102 7.11a3.554 3.554 0 0 0 5.027 5.027l4.6-4.6 4.6 4.6a3.553 3.553 0 0 0 5.027 0l7.105-7.11a3.554 3.554 0 0 0-5.03-5.027zm0 0" class="cls-6" transform="rotate(153 46.55 17.876)"/>
    <path id="Path_22480" d="M15.26 1.041l-4.6 4.6-4.6-4.6a3.554 3.554 0 1 0-5.019 5.027l7.11 7.109a3.554 3.554 0 0 0 5.027 0l4.6-4.6 4.6 4.6A3.554 3.554 0 1 0 27.4 8.151l-7.113-7.11a3.554 3.554 0 0 0-5.027 0zm0 0" class="cls-6" transform="rotate(153 10.66 25.63)"/>
    <path id="Path_22481" d="M2.053.333a3.557 3.557 0 0 0-1.72 4.725L3.34 11.5a3.572 3.572 0 0 0 4.725 1.718l3.221-1.5 1.5 3.221a3.555 3.555 0 1 0 6.443-3.006l-3-6.443A3.562 3.562 0 0 0 11.5 3.77L8.28 5.273l-1.5-3.221A3.558 3.558 0 0 0 2.053.333zm0 0" class="cls-6" transform="rotate(-165.02 28.507 13.3)"/>
    <path id="Path_22482" d="M2.053.333a3.557 3.557 0 0 0-1.72 4.725L3.34 11.5a3.572 3.572 0 0 0 4.725 1.718l3.221-1.5 1.5 3.221a3.555 3.555 0 1 0 6.443-3.006l-3-6.443A3.562 3.562 0 0 0 11.5 3.77L8.28 5.273l-1.5-3.221A3.558 3.558 0 0 0 2.053.333zm0 0" class="cls-6" transform="rotate(180 12.066 10.645)"/>
</svg>
