<svg xmlns="http://www.w3.org/2000/svg" width="26" height="26" xmlns:v="https://vecta.io/nano"><circle cx="13" cy="13" r="13" fill="#21283a"/><ellipse cx="12.597" cy="10.126" rx="5.192" ry="4.666" fill="#86b6ee"/><path d="M17.326 11.953c-.012-.294-.048-.586-.11-.873-.01-.046-.014-.093-.02-.14a7.14 7.14 0 0 0-.657-1.162c-.232-.29-.492-.56-.776-.8.094-.37-2.017-1.344-4.54-.98-1.345.194-2.64 1.84-2.864 2.21a3.5 3.5 0 0 0-.3.593c-.01.047-.037.09-.077.115s-.1.035-.137.025c-.157.006-.313.03-.465.07a.27.27 0 0 1-.111.086c-.417.223-.65.683-.582 1.15a1.15 1.15 0 0 0 1.14 1.037.2.2 0 0 1 .227.173 4.66 4.66 0 0 0 1.058 1.853 4.74 4.74 0 0 0 2 1.3c.042.015.1.016.113.072a5.12 5.12 0 0 1 .666.116c.466.073.94.076 1.407.007-.02-.075-.09-.068-.144-.075.053.007.123 0 .144.075l.66-.126a.33.33 0 0 1 .155-.072c1.176-.398 2.15-1.243 2.708-2.35a6.08 6.08 0 0 0 .373-.971 5.96 5.96 0 0 0 .13-1.334zm-5.538-3.7c-.172.026-.34.075-.5.146.16-.073.327-.123.5-.147zm.556 6.408a.25.25 0 0 1 .25-.229.25.25 0 0 1 .25.229.25.25 0 0 1-.25.229.25.25 0 0 1-.25-.229zm.633-1.89c-.044.005-.083.03-.108.065s-.035.08-.026.123v.65c0 .188-.1.3-.242.315s-.255-.12-.258-.316v-.95c-.01-.086.02-.172.08-.233s.146-.092.232-.082a.8.8 0 0 0-.038-1.59.79.79 0 0 0-.821.731c-.01.194-.1.318-.25.31-.117.006-.217-.083-.225-.2a.9.9 0 0 1 .011-.3 1.24 1.24 0 0 1 .87-.96c.45-.16.955-.04 1.286.306.32.314.452.774.347 1.2s-.432.786-.86.92zm2.128-4.16l.014.007z" fill="#deebfe"/><path fill="#9fc7fe" d="M15.296 17.506a3.92 3.92 0 0 1 1.112 1.844.84.84 0 0 1-.016.729.6.6 0 0 1-.519.313q-2.843.005-5.688 0c-.01.001-.02.001-.032 0-.015-.844.253-1.668.762-2.34.037-.074.125-.106.2-.073.565.14 1.146.197 1.727.173a6.01 6.01 0 0 0 1.487-.24c.34-.087.666-.223.967-.405z"/><path d="M15.294 17.5a3.6 3.6 0 0 1-.973.4 6 6 0 0 1-1.487.24 6.13 6.13 0 0 1-1.727-.172c-.075-.033-.163-.001-.2.073-.5.673-.776 1.498-.76 2.34h-.855c-.186-.016-.356-.1-.47-.258a.66.66 0 0 1-.12-.522 3.9 3.9 0 0 1 1.9-2.649 2.92 2.92 0 0 1 .616-.284c.224.024.446.063.665.116a4.69 4.69 0 0 0 1.408.007l.662-.126a3.72 3.72 0 0 1 1.338.834zM9.23 6.56c.074.073 0 .148 0 .223a7.76 7.76 0 0 0 .079 1.725.75.75 0 0 0 .03.17c.112.235 2.364-1.563.2.922-.345.267-.958.238-1.18.6-.12.188-.22.387-.3.594a.18.18 0 0 1-.214.14 2.17 2.17 0 0 0-.467.07 5.1 5.1 0 0 1 1.115-3.708 3.72 3.72 0 0 1 .739-.744zm6.762 0c-.072.073 0 .148 0 .223a7.79 7.79 0 0 1-.081 1.725.73.73 0 0 1-.027.17c-.113.235-2.365-1.563-.2.922.347.267.957.238 1.18.6a3.42 3.42 0 0 1 .3.594c.01.047.037.088.077.114s.1.036.135.026a2.17 2.17 0 0 1 .467.07 5.1 5.1 0 0 0-1.115-3.708c-.2-.28-.457-.532-.736-.744z" fill="#86b6ee"/><path d="M17.197 10.94a2.69 2.69 0 0 1 .629.063c.032.107.147.1.22.168a1.18 1.18 0 0 1 .381 1.4 1.2 1.2 0 0 1-1.229.71 5.9 5.9 0 0 0 .132-1.33 5.69 5.69 0 0 0-.108-.873 1.36 1.36 0 0 1-.025-.138zM11 9h3v7h-3z" fill="#deebfe"/></svg>