<svg width="16" height="16" viewBox="0 0 16 16" fill="none" xmlns="http://www.w3.org/2000/svg">
    <g clip-path="url(#szqy8vqk8a)">
        <path d="m8.818 3.5-2-2-.5-.5-4 4v5.5l.5 4.5 1.5.5h8.5l1-1V4l-5-.5z" fill="#28CBFF"/>
        <path d="m9.818 9.5-1.5-2-.5.5-1.5 2.5.5 1.5 2 .5 1.5-1.5-.5-1.5z" fill="#fff"/>
        <path d="M14.036 11c.345 0 .625-.28.625-.626V2.935c0-1.378-1.122-2.5-2.5-2.5H6.28a.625.625 0 0 0-.443.185l-.624.63L4.33.365A1.242 1.242 0 0 0 3.447 0c-.334 0-.648.13-.884.366l-.884.884c-.237.236-.367.55-.367.884 0 .334.13.648.367.884l.894.895-.546.551a.625.625 0 0 0-.181.44V13.5c0 1.378 1.122 2.5 2.5 2.5h7.814c1.379 0 2.5-1.122 2.5-2.5a.625.625 0 1 0-1.25 0c0 .689-.56 1.25-1.25 1.25H4.346c-.689 0-1.25-.561-1.25-1.25V5.162l3.251-3.28 2.464 2.464a.625.625 0 0 0 .442.183h4.157v5.845c0 .345.28.625.626.625zM2.563 2.133l.884-.884.887.887-.88.888-.891-.89zm6.95 1.145L7.917 1.685h4.242c.69 0 1.25.561 1.25 1.25v.344H9.512zM8.284 6.53a.625.625 0 0 0-.463.205c-.02.022-.496.547-.98 1.205-.948 1.294-1.058 1.914-1.058 2.268v.058a2.511 2.511 0 0 0 2.5 2.516c1.38 0 2.5-1.129 2.5-2.516v-.058c0-.354-.109-.974-1.058-2.268-.483-.658-.96-1.183-.98-1.205a.625.625 0 0 0-.461-.204zm1.25 3.736a1.26 1.26 0 0 1-1.25 1.265 1.26 1.26 0 0 1-1.25-1.265v-.058c0-.043.022-.444.81-1.52.151-.207.304-.402.44-.568.133.164.283.355.433.56.794 1.082.817 1.485.817 1.528v.058z" fill="#000"/>
    </g>
    <defs>
        <clipPath id="szqy8vqk8a">
            <path fill="#fff" d="M0 0h16v16H0z"/>
        </clipPath>
    </defs>
</svg>
