<svg width="16" height="16" viewBox="0 0 16 16" fill="none" xmlns="http://www.w3.org/2000/svg">
    <g clip-path="url(#hy31m3za3a)">
        <mask id="e1did4xq6b" style="mask-type:luminance" maskUnits="userSpaceOnUse" x="0" y="0" width="16" height="16">
            <path d="M.026.023H15.98v15.954H.025V.023z" fill="#fff"/>
        </mask>
        <g mask="url(#e1did4xq6b)">
            <path d="m14.618 6.11-4.311-.626-1.928-3.906A.416.416 0 0 0 8 1.343v11.238l3.856 2.027c.31.162.67-.1.611-.444l-.736-4.294 3.12-3.041a.421.421 0 0 0-.234-.718z" fill="#fff"/>
            <path d="m10.826 9.576.667 3.888-3.492-.883-3.856 2.027a.421.421 0 0 1-.611-.444L4.27 9.87 1.15 6.829a.421.421 0 0 1 .234-.718l4.31-.627 1.929-3.906A.416.416 0 0 1 8 1.343l1.746 4.911 3.905.568-2.826 2.754z" fill="#28CBFF"/>
            <mask id="70854dupzc" maskUnits="userSpaceOnUse" x=".023" y="-.343" width="16" height="16" fill="#000">
                <path fill="#fff" d="M.023-.343h16v16h-16z"/>
                <path d="m3.83 12.432-.297 1.732a.421.421 0 0 0 .611.444l3.857-2.028 3.856 2.028c.309.162.67-.1.61-.444l-.736-4.294 3.12-3.041a.421.421 0 0 0-.234-.718l-4.31-.627-1.929-3.906a.421.421 0 0 0-.755 0L5.695 5.484l-4.311.627a.421.421 0 0 0-.234.718l3.12 3.04-.297 1.733"/>
            </mask>
            <path d="M2.942 12.28a.901.901 0 1 1 1.777.304l-1.777-.304zm.591 1.884-.888-.153.888.153zm.611.444-.419-.798.42.798zm3.857-2.028-.42-.797a.901.901 0 0 1 .839 0L8 12.58zm3.856 2.028.419-.798-.42.798zm.61-.444-.888.152.889-.152zm-.736-4.294-.888.152a.901.901 0 0 1 .26-.797l.628.645zm3.12-3.041.629.645-.63-.645zm-.234-.718-.13.892.13-.892zm-4.31-.627-.13.892a.901.901 0 0 1-.679-.493l.808-.399zM8.377 1.578l.808-.4-.808.4zm-.755 0-.808-.4.808.4zM5.695 5.484l.808.4a.901.901 0 0 1-.679.492l-.13-.892zm-4.311.627.13.892-.13-.892zm-.234.718.63-.645-.63.645zm3.12 3.04.629-.644c.212.207.31.505.26.797l-.89-.152zm.591 1.885a.901.901 0 0 1-1.776-.305l1.776.305zm-.142.83-.297 1.732-1.777-.305.297-1.731 1.777.304zm-.297 1.732a.48.48 0 0 0-.697-.506l.839 1.595c-.97.51-2.104-.313-1.919-1.394l1.777.305zm-.697-.506 3.856-2.027.839 1.595-3.856 2.027-.839-1.595zm4.695-2.027 3.856 2.027-.839 1.595-3.856-2.027.839-1.595zm3.856 2.027a.48.48 0 0 0-.697.506l1.777-.305c.185 1.08-.949 1.904-1.919 1.394l.84-1.595zm-.697.506-.736-4.294 1.776-.304.737 4.293-1.777.305zm-.477-5.091 3.12-3.041 1.258 1.29-3.12 3.041-1.258-1.29zm3.12-3.041a.48.48 0 0 0 .266.819l.259-1.784c1.085.158 1.518 1.49.733 2.255l-1.258-1.29zm.266.819-4.311-.627.259-1.784 4.311.627-.26 1.784zm-4.99-1.12L7.57 1.976l1.616-.797 1.928 3.906-1.616.798zM7.57 1.976a.48.48 0 0 0 .861 0L6.815 1.18C7.3.196 8.7.196 9.186 1.179l-1.616.797zm.861 0L6.503 5.883l-1.616-.798L6.815 1.18l1.616.797zm-2.607 4.4-4.31.627-.26-1.784 4.311-.627.26 1.784zm-4.31.627a.48.48 0 0 0 .265-.82L.521 7.475C-.264 6.71.17 5.376 1.254 5.22l.26 1.784zm.265-.82L4.9 9.226l-1.258 1.29-3.12-3.04L1.78 6.183zm3.38 3.84-.298 1.731-1.776-.305.297-1.731 1.776.304z" fill="#000" mask="url(#70854dupzc)"/>
        </g>
    </g>
    <defs>
        <clipPath id="hy31m3za3a">
            <path fill="#fff" d="M0 0h16v16H0z"/>
        </clipPath>
    </defs>
</svg>
