<svg viewBox="0 0 393 428" fill="none" xmlns="http://www.w3.org/2000/svg">
    <g filter="url(#36b8k6mnza)">
        <mask id="nfub2dvjpb" maskUnits="userSpaceOnUse" x="14" y="14" width="365" height="400"
            fill="#000">
            <path fill="#fff" d="M14 14h365v400H14z" />
            <path fill-rule="evenodd" clip-rule="evenodd"
                d="M57.172 15c-11.046 0-20 8.954-20 20v55.87a20 20 0 0 1-10.543 17.622l-11.102 5.958a1 1 0 0 0 .06 1.792l9.833 4.451a20 20 0 0 1 11.752 18.22v253.784c0 11.046 8.954 20 20 20h300.357c11.045 0 20-8.954 20-20V35c0-11.046-8.955-20-20.001-20H57.172z" />
        </mask>
        <path fill-rule="evenodd" clip-rule="evenodd"
            d="M57.172 15c-11.046 0-20 8.954-20 20v55.87a20 20 0 0 1-10.543 17.622l-11.102 5.958a1 1 0 0 0 .06 1.792l9.833 4.451a20 20 0 0 1 11.752 18.22v253.784c0 11.046 8.954 20 20 20h300.357c11.045 0 20-8.954 20-20V35c0-11.046-8.955-20-20.001-20H57.172z"
            fill="#fff" />
        <path
            d="m15.527 114.45.473.881-.473-.881zm.06 1.792-.412.911.413-.911zm9.833 4.451-.412.911.412-.911zM38.172 35c0-10.493 8.507-19 19-19v-2c-11.598 0-21 9.402-21 21h2zm0 55.87V35h-2v55.87h2zM16 115.33l11.102-5.958-.946-1.762-11.102 5.958.946 1.762zm0 0-.946-1.762c-1.46.783-1.388 2.901.121 3.584l.825-1.822zm9.832 4.451L16 115.331l-.825 1.822 9.833 4.451.825-1.822zm12.34 272.915V138.913h-2v253.784h2zm19 19c-10.493 0-19-8.506-19-19h-2c0 11.598 9.402 21 21 21v-2zm300.357 0H57.172v2h300.357v-2zm19-19c0 10.494-8.507 19-19 19v2c11.597 0 21-9.402 21-21h-2zm0-357.697v357.697h2V35h-2zm-19.001-19c10.494 0 19.001 8.507 19.001 19h2c0-11.598-9.403-21-21.001-21v2zM57.172 16h300.356v-2H57.172v2zM25.008 121.604a19 19 0 0 1 11.164 17.309h2a21 21 0 0 0-12.34-19.131l-.824 1.822zm11.164-30.735a19 19 0 0 1-10.016 16.742l.946 1.762a21 21 0 0 0 11.07-18.504h-2z"
            fill="#15142B" mask="url(#nfub2dvjpb)" />
    </g>
    <defs>
        <filter id="36b8k6mnza" x="0" y="0" width="392.529" height="427.697"
            filterUnits="userSpaceOnUse" color-interpolation-filters="sRGB">
            <feFlood flood-opacity="0" result="BackgroundImageFix" />
            <feColorMatrix in="SourceAlpha" values="0 0 0 0 0 0 0 0 0 0 0 0 0 0 0 0 0 0 127 0"
                result="hardAlpha" />
            <feOffset />
            <feGaussianBlur stdDeviation="7" />
            <feComposite in2="hardAlpha" operator="out" />
            <feColorMatrix
                values="0 0 0 0 0.0235294 0 0 0 0 0.0392157 0 0 0 0 0.239216 0 0 0 0.13 0" />
            <feBlend in2="BackgroundImageFix" result="effect1_dropShadow_2175_134062" />
            <feBlend in="SourceGraphic" in2="effect1_dropShadow_2175_134062" result="shape" />
        </filter>
    </defs>
</svg>