<svg xmlns="http://www.w3.org/2000/svg" width="33.291" height="22.236" viewBox="0 0 33.291 22.236">
    <defs>
        <style>
            .cls-2{fill:#191f2e}
        </style>
    </defs>
    <g id="Group_10468" transform="translate(-114.838 -13.858)" style="mix-blend-mode:multiply;isolation:isolate">
        <g id="Group_10467" transform="translate(114.838 13.858)">
            <path id="Path_26052" d="M249.632 183.08a7.668 7.668 0 0 1 7.527-7.527 7.21 7.21 0 0 1 5.94 2.763 9.45 9.45 0 0 1 2.14 6.283q0 6.838-11.6 13.19l-1.105-1.726q3.936-3.248 3.937-5.248 0-.622-1.657-1.243a10.646 10.646 0 0 1-3.385-1.726 5.912 5.912 0 0 1-1.797-4.766z" class="cls-2" transform="translate(-231.948 -175.553)"/>
            <path id="Path_26053" d="M227.94 183.08a7.494 7.494 0 0 1 2.072-5.317 7.642 7.642 0 0 1 11.258.553 9.267 9.267 0 0 1 2.208 6.283q0 6.838-11.6 13.19l-1.244-1.726q4.076-3.248 4.075-5.248 0-.622-1.8-1.243a10.624 10.624 0 0 1-3.316-1.726 6.173 6.173 0 0 1-1.653-4.766z" class="cls-2" transform="translate(-227.94 -175.553)"/>
        </g>
    </g>
</svg>
