<svg xmlns="http://www.w3.org/2000/svg" width="50" height="50" viewBox="0 0 50 50">
    <g fill="none" fill-rule="nonzero">
        <path fill="#484B63" d="M48.839 36.39c-.572.573-1.5.573-2.072 0l-9.598-9.598 2.071-2.072 9.599 9.599c.572.572.572 1.5 0 2.072z"/>
        <path fill="#D8D5ED" d="M.732 6.104h30.762v43.164H.732z"/>
        <path fill="#FF2C5C" d="M3.906 30.051h5.86v15.82h-5.86z"/>
        <path fill="#FFD659" d="M13.086 24.192h5.86v21.68h-5.86z"/>
        <path fill="#4FC6F5" d="M22.46 26.34h5.86v19.532h-5.86z"/>
        <path fill="#E62753" d="M6.836 30.051h2.93v15.82h-2.93z"/>
        <path fill="#FFBD54" d="M16.016 24.192h2.93v21.68h-2.93z"/>
        <path fill="#3BB3E3" d="M25.39 26.34h2.93v19.532h-2.93z"/>
        <path fill="#50536E" d="M39.877 5.28c-6.064-6.063-15.895-6.063-21.959 0-6.063 6.064-6.063 15.895 0 21.96 6.064 6.063 15.895 6.063 21.959 0 6.064-6.065 6.064-15.896 0-21.96z"/>
        <path fill="#B5FCFF" d="M37.806 25.168c-4.912 4.912-12.904 4.912-17.816 0-4.912-4.912-4.912-12.904 0-17.816 4.912-4.912 12.904-4.912 17.816 0 4.912 4.912 4.912 12.904 0 17.816z"/>
        <path fill="#71F6FC" d="M37.806 7.352c-2.829-2.829-6.678-4.028-10.373-3.599a12.534 12.534 0 0 1 7.443 3.6c4.912 4.91 4.912 12.903 0 17.815a12.536 12.536 0 0 1-7.443 3.599c3.695.428 7.544-.77 10.373-3.6 4.911-4.911 4.911-12.903 0-17.815z"/>
        <path fill="#000" d="M49.358 33.609l-7.514-7.516a16.293 16.293 0 0 0 3.24-8.266A16.314 16.314 0 0 0 42.494 7.33a.732.732 0 1 0-1.223.806c3.831 5.827 3.028 13.642-1.912 18.582-5.769 5.77-15.155 5.77-20.923 0-5.77-5.77-5.77-15.157 0-20.927C24.205.022 33.592.022 39.359 5.79l.04.04a.732.732 0 1 0 1.04-1.032l-.043-.043c-6.34-6.34-16.655-6.34-22.995 0-.2.2-.392.402-.579.61H.732A.733.733 0 0 0 0 6.096v3.24a.733.733 0 1 0 1.465 0V6.828h14.183c-.56.787-1.042 1.611-1.445 2.465H5.078a.732.732 0 1 0 0 1.465h8.52c-.211.588-.386 1.186-.527 1.79H5.078a.732.732 0 1 0 0 1.465h7.723a16.367 16.367 0 0 0-.148 1.79H5.078a.733.733 0 0 0 0 1.466h7.6a16.276 16.276 0 0 0 1.64 6.186h-1.232a.732.732 0 0 0-.732.733V45.87c0 .405.328.733.732.733h5.86a.732.732 0 0 0 .732-.733v-16.22c.66.454 1.345.855 2.05 1.2v15.02c0 .405.329.733.733.733h5.86a.732.732 0 0 0 .732-.733V32.508c.571-.006 1.141-.04 1.71-.106v11.314a.732.732 0 1 0 1.464 0v-11.55a16.15 16.15 0 0 0 6.51-2.964l7.512 7.514c.416.415.968.644 1.554.644a2.2 2.2 0 0 0 1.554-3.751h.001zm-31.145 11.53H13.82V24.92h1.32a16.27 16.27 0 0 0 3.074 3.59V45.14zm4.981 0V31.482c1.42.53 2.9.854 4.395.974v12.683h-4.395zm25.128-9.459a.729.729 0 0 1-1.036 0l-7.42-7.42a16.52 16.52 0 0 0 1.036-1.036l7.42 7.42a.733.733 0 0 1 0 1.036z"/>
        <path fill="#000" d="M31.495 46.142a.732.732 0 0 0-.733.733v1.66H1.465V12.511a.732.732 0 1 0-1.465 0v36.757c0 .404.328.732.732.732h30.763a.732.732 0 0 0 .732-.732v-2.393a.732.732 0 0 0-.732-.733z"/>
        <path fill="#000" d="M3.174 30.048v15.823c0 .405.328.733.732.733h5.86a.733.733 0 0 0 .732-.733V30.048a.733.733 0 0 0-.732-.732h-5.86a.733.733 0 0 0-.732.732zm1.465.733h4.395V45.14H4.639V30.78zM10.555 20.526a.732.732 0 0 0 0-1.465H5.078a.733.733 0 0 0 0 1.465h5.477zM28.899 2.929a13.24 13.24 0 0 0-9.426 3.899 13.243 13.243 0 0 0-3.9 9.427c0 3.565 1.386 6.913 3.9 9.427a13.24 13.24 0 0 0 9.426 3.9 13.24 13.24 0 0 0 9.426-3.9 13.243 13.243 0 0 0 3.898-9.427c0-3.565-1.384-6.913-3.898-9.427a13.24 13.24 0 0 0-9.426-3.9zm8.39 21.717a11.784 11.784 0 0 1-8.39 3.47 11.783 11.783 0 0 1-8.39-3.47 11.786 11.786 0 0 1-3.47-8.391c0-3.174 1.232-6.154 3.47-8.392a11.828 11.828 0 0 1 8.39-3.47c3.038 0 6.077 1.157 8.39 3.47a11.788 11.788 0 0 1 3.47 8.392c0 3.173-1.233 6.153-3.47 8.391z"/>
    </g>
</svg>
