<svg xmlns="http://www.w3.org/2000/svg" width="20.654" height="23.794" viewBox="0 0 20.654 23.794">
  <g id="Group_5974" data-name="Group 5974" transform="translate(0.401 0)">
    <g id="Path_18321" data-name="Path 18321" transform="translate(0.81 0)" fill="none">
      <path d="M9.722,0A9.722,9.722,0,1,1,0,9.722,9.722,9.722,0,0,1,9.722,0Z" stroke="none"/>
      <path d="M 9.721776008605957 0.9999961853027344 C 4.912566184997559 0.9999961853027344 0.9999961853027344 4.912566184997559 0.9999961853027344 9.721776008605957 C 0.9999961853027344 14.53098583221436 4.912566184997559 18.44355583190918 9.721776008605957 18.44355583190918 C 14.53098583221436 18.44355583190918 18.44355583190918 14.53098583221436 18.44355583190918 9.721776008605957 C 18.44355583190918 4.912566184997559 14.53098583221436 0.9999961853027344 9.721776008605957 0.9999961853027344 M 9.721776008605957 -3.814697265625e-06 C 15.09096622467041 -3.814697265625e-06 19.44355583190918 4.352585792541504 19.44355583190918 9.721776008605957 C 19.44355583190918 15.09096622467041 15.09096622467041 19.44355583190918 9.721776008605957 19.44355583190918 C 4.352585792541504 19.44355583190918 -3.814697265625e-06 15.09096622467041 -3.814697265625e-06 9.721776008605957 C -3.814697265625e-06 4.352585792541504 4.352585792541504 -3.814697265625e-06 9.721776008605957 -3.814697265625e-06 Z" stroke="none" fill="#21283a"/>
    </g>
    <path id="Path_18320" data-name="Path 18320" d="M4.861,0,0,6.481" transform="translate(-0.001 17.013)" fill="none" stroke="#21283a" stroke-width="1"/>
  </g>
</svg>
