<svg xmlns="http://www.w3.org/2000/svg" width="19" height="20" viewBox="0 0 19 20">
    <path fill="#444" fill-rule="nonzero" stroke="#444" stroke-width=".2" d="M16.1 14.877c.318-1.482-.356-2.525-.958-3.454-.334-.514-.65-1-.75-1.501-.078-.394-.108-.796-.138-1.186C14.14 7.194 14.02 5.6 10.8 5.6v-.828c.132.016.265.028.4.028.527 0 .956-.218 1.238-.63.228-.331.348-.78.348-1.295C12.786 1.515 11.971 0 10.8 0h-4C5.63 0 4.814 1.515 4.814 2.875c0 .516.12.964.348 1.296.282.411.71.629 1.238.629.135 0 .268-.012.4-.028V5.6c-3.22 0-3.34 1.594-3.454 3.136-.03.39-.06.792-.138 1.185-.1.502-.416.988-.75 1.501-.603.93-1.276 1.973-.958 3.454C.005 15.158 0 16.192 0 17.2 0 19.006.852 20 2.4 20h12.8c1.548 0 2.4-.994 2.4-2.8 0-1.008-.005-2.042-1.5-2.323zM10.764.8l-.25 1.499a.598.598 0 0 1-.592.501H7.678a.598.598 0 0 1-.592-.501L6.836.8h3.928zM5.821 3.718c-.134-.195-.207-.494-.207-.843 0-.757.36-1.65.836-1.961l.241 1.45c.081.485.496.836.987.836h2.244c.49 0 .906-.351.986-.836l.242-1.45c.476.312.836 1.204.836 1.961 0 .349-.074.648-.208.843-.132.192-.315.282-.578.282-.35 0-.716-.092-1.103-.188C9.68 3.708 9.25 3.6 8.8 3.6c-.45 0-.88.108-1.297.212C7.116 3.908 6.75 4 6.4 4c-.263 0-.446-.09-.579-.282zm1.779.894l.097-.024C8.084 4.492 8.45 4.4 8.8 4.4c.35 0 .716.092 1.103.188l.097.024V5.6H7.6v-.988zm-4.47 7.246c.36-.554.732-1.127.862-1.78.088-.441.12-.869.151-1.282C4.255 7.302 4.323 6.4 6.8 6.4h4c2.477 0 2.545.902 2.657 2.396.03.413.063.84.151 1.282.13.653.502 1.226.862 1.78.578.89 1.124 1.733.828 2.945-.034 0-.063-.003-.098-.003-1.264 0-1.834.442-2.293.798-.313.242-.52.402-.907.402h-.283c.32-.694 1.083-2.485 1.083-3.8 0-3.471-1.196-4.2-2.2-4.2H7c-1.004 0-2.2.729-2.2 4.2 0 1.315.763 3.106 1.083 3.8H5.6c-.387 0-.594-.16-.907-.402-.459-.356-1.029-.798-2.293-.798-.035 0-.064.003-.098.003-.296-1.212.25-2.055.828-2.945zM6.326 16c-.23-.484-1.126-2.456-1.126-3.8 0-1.734.312-3.8 1.8-3.8h3.6c1.488 0 1.8 2.066 1.8 3.8 0 1.344-.896 3.316-1.126 3.8H6.326zm-2.63 3.2l.288-.72c.213-.534.724-.88 1.3-.88h7.033c.576 0 1.086.346 1.3.88l.288.72H3.695zm11.504 0h-.864l-.348-.868a1.792 1.792 0 0 0-1.671-1.132H5.283a1.79 1.79 0 0 0-1.671 1.132l-.348.868H2.4c-.687 0-1.6-.207-1.6-2 0-1.197 0-1.6 1.6-1.6.99 0 1.404.32 1.804.63.344.267.736.57 1.396.57H12c.66 0 1.052-.303 1.396-.57.4-.31.814-.63 1.804-.63 1.6 0 1.6.403 1.6 1.6 0 1.793-.913 2-1.6 2z"/>
</svg>
