<svg width="16" height="16" viewBox="0 0 16 16" fill="none" xmlns="http://www.w3.org/2000/svg">
    <mask id="bii7ppbs4a" style="mask-type:luminance" maskUnits="userSpaceOnUse" x="0" y="0" width="16" height="16">
        <path d="M15.576.089H.424V15.91h15.152V.09z" fill="#fff"/>
    </mask>
    <g mask="url(#bii7ppbs4a)">
        <path d="m10.627 7.584.407-1.657a1.423 1.423 0 0 1 2.763.678l-1.535 6.254a1.19 1.19 0 0 1-1.44.872l-1.538-.378a1.19 1.19 0 0 1-.873-1.44l.113-.458a4.33 4.33 0 0 1 1.052-1.936 4.33 4.33 0 0 0 1.051-1.935z" fill="#28CBFF"/>
        <path d="m10.725 13.708.097.024a1.19 1.19 0 0 0 1.44-.873l1.535-6.253a1.424 1.424 0 0 0-1.756-1.711 1.423 1.423 0 0 1 1.007 1.71l-1.534 6.254c-.102.415-.41.726-.79.849z" fill="#28CBFF"/>
        <path d="m12.457 12.068 1.34-5.463a1.423 1.423 0 0 0-2.763-.678l-.406 1.657A4.331 4.331 0 0 1 9.576 9.52a4.326 4.326 0 0 0-1.052 1.935l-.113.459c-.04.163-.044.328-.017.484" stroke="#000" stroke-width=".758" stroke-miterlimit="10" stroke-linecap="round" stroke-linejoin="round"/>
        <path d="m6.413 12.162 5.85.697-.205 1.282a1.44 1.44 0 0 1-1.421 1.213H6.223a1.602 1.602 0 1 1 .19-3.192z" fill="#28CBFF"/>
        <path d="M4.73 14.33c.231.599.813 1.024 1.494 1.024h4.412a1.44 1.44 0 0 0 1.422-1.213l.205-1.282-.748-.09-.095.596A1.44 1.44 0 0 1 10 14.578H5.586c-.315 0-.609-.091-.856-.248z" fill="#28CBFF"/>
        <path d="M5.254 12.478a1.602 1.602 0 0 0 .97 2.876h4.412a1.44 1.44 0 0 0 1.382-1.034M10.659 12.667l-4.246-.505a1.584 1.584 0 0 0-.334-.005" stroke="#000" stroke-width=".758" stroke-miterlimit="10" stroke-linecap="round" stroke-linejoin="round"/>
        <path d="M13.831.677c.569.14.916.713.777 1.281l-.354 1.44a1.06 1.06 0 1 1-2.057-.504l.353-1.44a1.06 1.06 0 0 1 1.281-.777z" fill="#28CBFF"/>
        <path d="M12.598 4a1.06 1.06 0 0 0 1.656-.602l.353-1.44a1.059 1.059 0 0 0-1.186-1.3c.335.247.506.678.401 1.107l-.353 1.44c-.106.43-.46.733-.871.795z" fill="#28CBFF"/>
        <path d="m12.444 1.884-.247 1.01a1.06 1.06 0 0 0 2.058.505l.353-1.44a1.06 1.06 0 0 0-1.864-.905" stroke="#000" stroke-width=".758" stroke-miterlimit="10" stroke-linecap="round" stroke-linejoin="round"/>
        <path d="M10.576 13.11a1.228 1.228 0 1 1 2.457 0 1.228 1.228 0 0 1-2.457 0z" fill="#fff"/>
        <path d="M10.576 13.11a1.228 1.228 0 1 1 2.457 0 1.228 1.228 0 0 1-2.457 0z" stroke="#000" stroke-width=".758" stroke-miterlimit="10" stroke-linecap="round" stroke-linejoin="round"/>
    </g>
</svg>
