<svg viewBox="0 0 18 18" fill="none" xmlns="http://www.w3.org/2000/svg">
  <path d="M11.0547 1.56322H9.6517L5.58079 4.73582L4.75977 9.71732C4.75977 9.71732 5.49894 13.9904 5.7027 14.0446C5.90646 14.0989 7.7248 16.0258 7.7248 16.0258L9.46173 16.7315L11.0547 17.0051C14.4564 16.0841 16.9595 12.9772 16.9595 9.28417C16.9595 5.59115 14.4564 2.48423 11.0547 1.56322Z" fill="#28CBFF"/>
  <path d="M5.14942 9.28423C5.14942 5.5911 7.65255 2.48428 11.0543 1.56328C10.3862 1.38242 9.6842 1.28418 8.95904 1.28418C4.54074 1.28418 0.958984 4.86593 0.958984 9.28423C0.958984 13.7025 4.54074 17.2842 8.95904 17.2842C9.6842 17.2842 10.3862 17.186 11.0543 17.0052C7.65255 16.0842 5.14942 12.9773 5.14942 9.28423Z" fill="#28CBFF"/>
  <path d="M16.959 9.28423C16.959 13.7025 13.3772 17.2842 8.95904 17.2842C4.54063 17.2842 0.958984 13.7025 0.958984 9.28423C0.958984 4.86593 4.54063 1.28418 8.95904 1.28418C13.3772 1.28418 16.959 4.86593 16.959 9.28423Z" stroke="black" stroke-miterlimit="10" stroke-linecap="round" stroke-linejoin="round"/>
  <path d="M5.1184 12.2842C5.04835 12.2842 4.9888 12.2597 4.93977 12.2106C4.89073 12.1616 4.86621 12.102 4.86621 12.032V6.53637C4.86621 6.45931 4.89073 6.39977 4.93977 6.35774C4.9888 6.3087 5.04835 6.28418 5.1184 6.28418H8.02908C8.97479 6.28418 9.67532 6.49434 10.1307 6.91465C10.593 7.33497 10.8242 7.99346 10.8242 8.89013V10.1301C10.8242 10.2001 10.7997 10.2597 10.7506 10.3087C10.7086 10.3577 10.649 10.3823 10.572 10.3823H9.73136C9.6543 10.3823 9.59125 10.3577 9.54222 10.3087C9.49318 10.2597 9.46866 10.2001 9.46866 10.1301V8.90064C9.46866 7.9059 8.97129 7.40852 7.97654 7.40852H6.22173V12.032C6.22173 12.102 6.19721 12.1616 6.14817 12.2106C6.09914 12.2597 6.03609 12.2842 5.95903 12.2842H5.1184ZM7.34607 12.2842C7.27602 12.2842 7.21647 12.2597 7.16744 12.2106C7.1184 12.1616 7.09388 12.102 7.09388 12.032V8.42779C7.09388 8.35073 7.1184 8.29118 7.16744 8.24915C7.21647 8.20012 7.27602 8.1756 7.34607 8.1756H8.1867C8.26376 8.1756 8.3233 8.20012 8.36534 8.24915C8.41437 8.29118 8.43889 8.35073 8.43889 8.42779V11.1598H10.2042C11.199 11.1598 11.6963 10.6625 11.6963 9.66772V6.53637C11.6963 6.45931 11.7209 6.39977 11.7699 6.35774C11.8189 6.3087 11.8785 6.28418 11.9485 6.28418H12.7997C12.8697 6.28418 12.9293 6.3087 12.9783 6.35774C13.0273 6.40677 13.0519 6.46632 13.0519 6.53637V9.67823C13.0519 10.5749 12.8207 11.2334 12.3583 11.6537C11.903 12.074 11.2025 12.2842 10.2568 12.2842H7.34607Z" fill="#15142B"/>
</svg>
