<svg width="16" height="16" viewBox="0 0 16 16" fill="none" xmlns="http://www.w3.org/2000/svg">
    <g clip-path="url(#2z69p6m9ba)">
        <path d="m5.318 2-2 .5-1.5.5v5l.5 2.5 1 2 3 2.5 2 .5 3.5-2 1.5-2 1-3.5V4.5l-.5-1.5-2-.5-2-1-2-1-.5.5-2 1z" fill="#28CBFF"/>
        <path d="m9.318 5-1.5-.5h-.5L4.818 6l-.5 2 .5 1.5 1 1.5 3 .5 2-1 .5-3-.5-1.5-1.5-1z" fill="#fff"/>
        <path d="M14.796 4.341V4.33a16.511 16.511 0 0 1-.014-.497 1.696 1.696 0 0 0-1.597-1.662c-1.84-.102-3.263-.702-4.479-1.887l-.01-.01a1.024 1.024 0 0 0-1.392 0l-.01.01C6.078 1.468 4.654 2.068 2.815 2.17A1.696 1.696 0 0 0 1.22 3.832c-.003.18-.008.342-.015.497v.029c-.036 1.875-.08 4.21.7 6.33a8.056 8.056 0 0 0 1.933 3.01c.972.948 2.245 1.701 3.783 2.237a1.16 1.16 0 0 0 .76 0c1.537-.537 2.809-1.29 3.78-2.239a8.069 8.069 0 0 0 1.932-3.011c.784-2.125.74-4.464.704-6.344zm-1.584 6.019c-.824 2.233-2.506 3.767-5.141 4.689a.225.225 0 0 1-.112.008.237.237 0 0 1-.03-.008c-2.638-.92-4.32-2.453-5.144-4.686-.72-1.954-.679-4.097-.643-5.987v-.01c.008-.163.013-.334.015-.52a.754.754 0 0 1 .71-.738c1.042-.058 1.956-.26 2.797-.615A7.314 7.314 0 0 0 7.942.962a.087.087 0 0 1 .116 0 7.318 7.318 0 0 0 2.279 1.53c.84.356 1.755.558 2.796.616a.754.754 0 0 1 .71.738c.003.188.008.358.015.52.036 1.892.076 4.037-.646 5.994z" fill="#000"/>
        <path d="M8 4.013A3.992 3.992 0 0 0 4.012 8 3.992 3.992 0 0 0 8 11.988 3.992 3.992 0 0 0 11.987 8 3.992 3.992 0 0 0 8 4.013zm0 7.036A3.052 3.052 0 0 1 4.95 8 3.052 3.052 0 0 1 8 4.952 3.052 3.052 0 0 1 11.048 8 3.052 3.052 0 0 1 8 11.05z" fill="#000"/>
        <path d="M9.146 6.762 7.294 8.614l-.503-.502a.47.47 0 0 0-.664.663l.835.835a.468.468 0 0 0 .664 0L9.81 7.426a.47.47 0 0 0-.664-.664z" fill="#000"/>
    </g>
    <defs>
        <clipPath id="2z69p6m9ba">
            <path fill="#fff" d="M0 0h16v16H0z"/>
        </clipPath>
    </defs>
</svg>
