<svg xmlns="http://www.w3.org/2000/svg" width="65.17" height="68.24" viewBox="0 0 65.17 68.24">
    <defs>
        <style>
            .cls-5{fill:#e24444}
        </style>
    </defs>
    <g id="sold" transform="translate(-5.518 -3.831)">
        <g id="Icons" transform="translate(5.518 3.831)">
            <path id="Path_23967" fill="#db1b1b" d="M43.176 60.992c0 3.358-5.32 7.516-4.337 10.545 1.02 3.14 7.8 3.369 9.7 5.982 1.921 2.639.057 9.155 2.7 11.076 2.611 1.9 8.222-1.873 11.356-.852 3.029.984 5.335 7.367 8.7 7.367s5.664-6.384 8.7-7.367c3.139-1.02 8.75 2.753 11.364.852 2.639-1.921.775-8.437 2.7-11.076 1.9-2.612 8.684-2.842 9.7-5.982.984-3.029-4.337-7.187-4.337-10.545s5.313-7.516 4.329-10.545c-1.02-3.14-7.8-3.369-9.7-5.982-1.921-2.639-.057-9.155-2.7-11.076-2.611-1.9-8.222 1.871-11.356.847-3.029-.984-5.335-7.367-8.7-7.367s-5.664 6.388-8.7 7.367c-3.139 1.02-8.75-2.753-11.364-.852-2.639 1.921-.775 8.437-2.7 11.076-1.9 2.612-8.684 2.842-9.7 5.982-.976 3.034 4.344 7.187 4.344 10.549z" transform="translate(-38.711 -26.87)"/>
            <path id="Path_23968" fill="#c41a1a" d="M101.058 113.593c0 2.444-3.873 5.473-3.158 7.678.742 2.287 5.68 2.453 7.066 4.356s.04 6.666 1.963 8.065 5.989-1.362 8.275-.619c2.206.715 3.885 5.364 6.33 5.364s4.124-4.649 6.33-5.364c2.285-.742 6.372 2 8.275.619s.564-6.148 1.963-8.065 6.324-2.069 7.066-4.356c.715-2.2-3.158-5.233-3.158-7.678s3.873-5.473 3.158-7.678c-.75-2.287-5.68-2.453-7.066-4.356s-.041-6.666-1.963-8.065-5.989 1.362-8.275.619c-2.206-.715-3.885-5.364-6.33-5.364s-4.124 4.649-6.33 5.364c-2.285.75-6.372-2-8.275-.619s-.564 6.148-1.963 8.065-6.324 2.074-7.066 4.356c-.715 2.205 3.158 5.234 3.158 7.678z" transform="translate(-88.948 -79.51)"/>
            <path id="Path_23969" fill="#c61c1c" d="M75.518 92.092c-1.3 1.6-2.65 3.019-4.232 3.019-3.357 0-5.664-6.384-8.7-7.367-3.14-1.02-8.751 2.753-11.364.852-2.639-1.921-.775-8.437-2.7-11.076-1.9-2.612-8.684-2.842-9.7-5.982-.984-3.029 4.337-7.187 4.337-10.545s-5.313-7.516-4.329-10.545c1.02-3.14 7.8-3.369 9.7-5.982 1.921-2.639.057-9.155 2.7-11.076 2.609-1.9 8.221 1.871 11.356.847 3.029-.984 5.335-7.367 8.7-7.367 1.582 0 2.93 1.417 4.232 3.019a35.09 35.09 0 0 0 0 62.2z" transform="translate(-38.701 -26.87)"/>
            <path id="Path_23970" fill="#ad1a1a" d="M106.927 138.242a34.907 34.907 0 0 0 5.932 19.526c-2.128.45-4.581 1.557-5.932.573-1.922-1.4-.565-6.148-1.963-8.065s-6.324-2.069-7.066-4.356c-.717-2.2 3.158-5.233 3.158-7.678s-3.875-5.473-3.158-7.678c.742-2.287 5.68-2.453 7.066-4.356s.04-6.665 1.963-8.065c1.35-.984 3.8.118 5.932.573a34.907 34.907 0 0 0-5.932 19.526z" transform="translate(-88.946 -104.12)"/>
            <circle id="Ellipse_1374" cx="2.327" cy="2.327" r="2.327" class="cls-5" transform="translate(57.746 25.179)"/>
            <circle id="Ellipse_1375" cx="1.413" cy="1.413" r="1.413" class="cls-5" transform="translate(56.454 30.225)"/>
        </g>
    </g>
</svg>
