<svg xmlns="http://www.w3.org/2000/svg" width="292.851" height="289.555" viewBox="0 0 292.851 289.555">
    <defs>
        <linearGradient id="linear-gradient" x2="1" y1=".5" y2=".5" gradientUnits="objectBoundingBox">
            <stop offset="0" stop-color="#dae3fe"/>
            <stop offset="1" stop-color="#e9effd"/>
        </linearGradient>
        <style>
            .cls-7,.cls-8{fill-rule:evenodd}.cls-2{fill:#acc7ea}.cls-3{fill:#f5f5f5}.cls-8{fill:#fff}.cls-10{stroke-width:2px}.cls-5{fill:#cbddf5}.cls-10{fill:#f8c81e;stroke:#191405}.cls-16{fill:#263238}.cls-17{fill:#ffc727}
        </style>
    </defs>
    <g id="Group_10129" transform="translate(-51.507 -87.473)">
        <path id="Path_24345" fill="#e3efff" fill-rule="evenodd" d="M483.089 199.366c-53.046 0-96.047 3.526-96.047 7.885s43 7.889 96.047 7.889 96.047-3.53 96.047-7.889-43-7.885-96.047-7.885z" transform="translate(-289.708 156.535)"/>
        <g id="Group_10098" transform="rotate(-17 2010.8 1461.237)">
            <g id="Group_10089" transform="rotate(115.98 470.75 70.131)">
                <g id="Group_10088">
                    <path id="Path_24307" d="M1485.059 1504.044a.625.625 0 0 0 .669.278l7.4-1.7a33.086 33.086 0 0 0 8.721 6.233l.792 7.549a.624.624 0 0 0 .48.543L1512 1519a.624.624 0 0 0 .669-.277l4.029-6.433a33.088 33.088 0 0 0 10.573-1.766l5.9 4.781a.624.624 0 0 0 .723.044l7.729-4.823a.624.624 0 0 0 .278-.669l-1.7-7.4a33.079 33.079 0 0 0 6.233-8.721l7.549-.792a.624.624 0 0 0 .543-.479l2.055-8.876a.624.624 0 0 0-.277-.67l-6.433-4.029a33.08 33.08 0 0 0-1.766-10.573l4.781-5.9a.624.624 0 0 0 .044-.723l-4.823-7.729a.624.624 0 0 0-.669-.278l-7.4 1.7a33.087 33.087 0 0 0-8.721-6.233l-.792-7.549a.624.624 0 0 0-.479-.543l-8.876-2.055a.624.624 0 0 0-.67.277l-4.029 6.433a33.074 33.074 0 0 0-10.573 1.766l-5.9-4.781a.624.624 0 0 0-.723-.045l-7.729 4.823a.624.624 0 0 0-.278.669l1.7 7.4a33.082 33.082 0 0 0-6.233 8.721l-7.549.792a.623.623 0 0 0-.543.48l-2.055 8.875a.623.623 0 0 0 .277.67l6.433 4.029a33.089 33.089 0 0 0 1.766 10.573l-4.781 5.9a.623.623 0 0 0-.045.723z" class="cls-2" transform="translate(-1476.569 -1438.988)"/>
                    <path id="Path_24343" d="M1250.8 1243.162a18.969 18.969 0 1 1-.59-2.72 19.093 19.093 0 0 1 .59 2.72z" class="cls-3" transform="translate(-1191.349 -1204.458)"/>
                </g>
            </g>
            <g id="Group_10093" transform="rotate(115.98 496.865 71.62)">
                <g id="Group_10092">
                    <path id="Path_24316" d="M1051.582 1059.922a.392.392 0 0 0 .058-.451l-2.253-4.2a20.754 20.754 0 0 0 2.332-6.309l4.438-1.727a.392.392 0 0 0 .25-.38l-.223-5.712a.391.391 0 0 0-.278-.36l-4.56-1.376a20.751 20.751 0 0 0-2.816-6.108l1.918-4.363a.391.391 0 0 0-.093-.445l-4.2-3.881a.391.391 0 0 0-.451-.057l-4.2 2.253a20.76 20.76 0 0 0-6.309-2.332l-1.727-4.438a.391.391 0 0 0-.38-.249l-5.712.223a.391.391 0 0 0-.36.278l-1.376 4.56a20.759 20.759 0 0 0-6.108 2.816l-4.363-1.919a.392.392 0 0 0-.445.093l-3.881 4.2a.391.391 0 0 0-.058.451l2.253 4.2a20.757 20.757 0 0 0-2.332 6.309l-4.439 1.727a.392.392 0 0 0-.249.38l.223 5.712a.392.392 0 0 0 .278.359l4.56 1.376a20.756 20.756 0 0 0 2.816 6.108l-1.919 4.363a.392.392 0 0 0 .093.445l4.2 3.881a.392.392 0 0 0 .451.058l4.2-2.253a20.751 20.751 0 0 0 6.309 2.332l1.727 4.439a.392.392 0 0 0 .38.249l5.712-.223a.392.392 0 0 0 .359-.278l1.376-4.56a20.76 20.76 0 0 0 6.108-2.817l4.363 1.918a.391.391 0 0 0 .445-.092z" class="cls-2" transform="translate(-1006.023 -1019.787)"/>
                    <path id="Path_24317" d="M1234.764 1236.226a10.91 10.91 0 1 1-.339-1.565 10.985 10.985 0 0 1 .339 1.565z" class="cls-3" transform="translate(-1198.771 -1212.55)"/>
                </g>
            </g>
        </g>
        <g id="Group_9955" transform="translate(23.27 151.228)">
            <path id="Path_24156" fill="#fff" stroke="#bdd0fb" stroke-width="2px" d="M601.5 1306.6a4.674 4.674 0 0 0 4.66 4.66h255.37a4.674 4.674 0 0 0 4.66-4.66l2.092-138.973c-.246-8.363-7.578-11.369-12.023-11.191l-249.516-6.694a8.724 8.724 0 0 0-8.951 8.928z" transform="translate(-568.551 -1142.24)"/>
            <g id="Group_10109" transform="translate(61.143 33.389)">
                <path id="Rectangle_14701" d="M0 0H31V7H0z" class="cls-5" transform="translate(-.413 .383)"/>
                <path id="Rectangle_14720" d="M0 0H31V8H0z" class="cls-5" transform="translate(-.413 107.383)"/>
                <path id="Rectangle_14704" d="M0 0H31V7H0z" class="cls-5" transform="translate(-.413 18.383)"/>
                <path id="Rectangle_14718" d="M0 0H31V8H0z" class="cls-5" transform="translate(-.413 89.383)"/>
                <path id="Rectangle_14706" d="M0 0H31V8H0z" class="cls-5" transform="translate(-.413 35.383)"/>
                <path id="Rectangle_14714" d="M0 0H31V8H0z" class="cls-5" transform="translate(-.413 71.383)"/>
                <path id="Rectangle_14702" d="M0 0H87V7H0z" class="cls-5" transform="translate(36.587 .383)"/>
                <path id="Rectangle_14721" d="M0 0H87V8H0z" class="cls-5" transform="translate(36.587 107.383)"/>
                <path id="Rectangle_14716" d="M0 0H88V8H0z" class="cls-5" transform="translate(90.587 71.383)"/>
                <path id="Rectangle_14705" d="M0 0H87V7H0z" class="cls-5" transform="translate(36.587 18.383)"/>
                <path id="Rectangle_14719" d="M0 0H87V8H0z" class="cls-5" transform="translate(36.587 89.383)"/>
                <path id="Rectangle_14707" d="M0 0H87V8H0z" class="cls-5" transform="translate(36.587 35.383)"/>
                <path id="Rectangle_14715" d="M0 0H48V8H0z" class="cls-5" transform="translate(36.587 71.383)"/>
                <path id="Rectangle_14712" d="M0 0H87V8H0z" class="cls-5" transform="translate(59.587 53.383)"/>
                <path id="Rectangle_14708" d="M0 0H17V7H0z" class="cls-5" transform="translate(129.587 18.383)"/>
                <path id="Rectangle_14709" d="M0 0H17V8H0z" class="cls-5" transform="translate(129.587 35.383)"/>
                <path id="Rectangle_14710" d="M0 0H16V8H0z" class="cls-5" transform="translate(152.587 35.383)"/>
                <path id="Rectangle_14717" d="M0 0H16V8H0z" class="cls-5" transform="translate(184.587 71.383)"/>
                <path id="Rectangle_14713" d="M0 0H35V8H0z" class="cls-5" transform="translate(152.587 53.383)"/>
                <path id="Rectangle_14703" d="M0 0H51V7H0z" class="cls-5" transform="translate(129.587 .383)"/>
                <path id="Rectangle_14722" d="M0 0H51V8H0z" class="cls-5" transform="translate(129.587 107.383)"/>
            </g>
        </g>
        <g id="Group_10102" transform="translate(142.334 215.266)">
            <path id="Path_21842" fill="#f8c81e" fill-rule="evenodd" stroke="#04072e" stroke-miterlimit="10" stroke-width="2px" d="M415.7 105.218a41.292 41.292 0 0 0-21.557 36.2l.025 30.324a41.3 41.3 0 0 0 41.2 41.159 41.3 41.3 0 0 0 41.159-41.2l-.025-30.324a41.3 41.3 0 0 0-41.2-41.159 40.968 40.968 0 0 0-8.3.85" transform="translate(-385.953 -70.776)"/>
            <path id="Path_21843" d="M432.051 137.632c.237-6.768 7.075-6.773 7.319 0 1.709 19.555 31.366 21.449 34.72 3.083.622-3.4 1.474-9.426 5.691-10.089v-4.678c-7.315-.159-14.228-2.4-21.468-2.2-9.716.28-13.021 4.58-22.6 5.265-9.583-.674-12.894-4.97-22.611-5.239-7.24-.2-14.151 2.052-21.464 2.219v4.678c4.218.659 5.077 6.68 5.7 10.083 3.377 18.362 33.03 16.436 34.718-3.122zm10.149-.151c-.218-4.865.525-6.873 5.237-8.466a36.918 36.918 0 0 1 10.9-2.381c10.455-.3 14.92 2.287 12.859 13.558-2.758 15.088-27.484 13.372-29-2.712zm-12.973-.066c-1.5 16.159-26.225 17.9-29 2.815-2.073-11.267 2.389-13.861 12.844-13.572a36.881 36.881 0 0 1 10.9 2.37c4.714 1.588 5.46 3.594 5.252 8.386z" class="cls-7" transform="translate(-386.338 -67.168)"/>
            <path id="Path_21844" d="M419.275 158.087a1.315 1.315 0 1 0 .492-2.584 5.9 5.9 0 0 0-6.2 2.84 1.316 1.316 0 0 0 2.278 1.317 3.27 3.27 0 0 1 .409-.566 17.6 17.6 0 0 0 32.258-.017 3.315 3.315 0 0 1 .411.564 1.315 1.315 0 0 0 2.276-1.317 5.891 5.891 0 0 0-6.195-2.834 1.314 1.314 0 1 0 .486 2.582 3.5 3.5 0 0 1 .619-.058 14.972 14.972 0 0 1-27.453.015 3.342 3.342 0 0 1 .615.058z" class="cls-7" transform="translate(-383 -62.313)"/>
            <path id="Path_21845" d="M413.553 128.56a8.524 8.524 0 1 0 8.53 8.52 8.524 8.524 0 0 0-8.53-8.52z" class="cls-8" transform="translate(-384.283 -66.428)"/>
            <path id="Path_21846" d="M448.4 128.541a8.524 8.524 0 1 0 8.528 8.519 8.525 8.525 0 0 0-8.528-8.519z" class="cls-8" transform="translate(-378.938 -66.431)"/>
            <path id="Path_21847" d="M413.075 132.165a4.373 4.373 0 0 0-4.157 5.7 2.761 2.761 0 0 1 4.558 3.013 4.366 4.366 0 0 0 3.638-6.007c-.054.006-.11.008-.168.009a1.481 1.481 0 0 1-1.481-1.482 1.437 1.437 0 0 1 .075-.473 4.345 4.345 0 0 0-2.465-.761z" class="cls-7" transform="translate(-383.718 -65.875)"/>
            <path id="Path_21848" fill="#313131" fill-rule="evenodd" d="M447.781 132.146a4.365 4.365 0 0 0-4.254 5.337 2.76 2.76 0 0 1 4.152 3.393h.107a4.366 4.366 0 0 0 3.983-6.146 1.484 1.484 0 0 1-2.095-1.351 1.5 1.5 0 0 1 .181-.712 4.351 4.351 0 0 0-2.075-.522z" transform="translate(-378.396 -65.878)"/>
            <path id="Path_21849" d="M396.036 99.951a29.76 29.76 0 0 0 6.616 4.311c-7.783-6.3-6.8-10.794-4.114-22.919.18-.812.361-1.65.773-3.562l.647-3.092 1.492 2.811a1.832 1.832 0 0 1 .155.253c.652.93 4.006 4.761 16.111 6.109 7.274.81 13.656 1.549 18.305 2.179 4.851.647 8.029 1.189 8.69 1.64a63.92 63.92 0 0 1 5.529 5.308 4.932 4.932 0 0 0-.225-1.563 24.539 24.539 0 0 0-3.629-6.624l-1.408-2.028 2.549.413a20.181 20.181 0 0 1 9.183 3.489 16.111 16.111 0 0 1 4.813 5.943 27.156 27.156 0 0 1 1.633 3.964 28.945 28.945 0 0 0 .769-3.909l.315-2.533 1.76 1.973a35.141 35.141 0 0 1 5.555 7.947 19.833 19.833 0 0 1 2 9.292v.106c-.243 1.753 2.635 7.542 2.852 14.1.256 7.74-2.421 17.414-2.421 17.414l-8.62-18.553c0-.027-3.143-.854-3.9-2.3a20.542 20.542 0 0 0-4.83-5.36 9.261 9.261 0 0 0-4.735-2.129c-4.843-.379-11.691.39-16.665.96h-.029l-.235.035-.226-.071c-2.443-.67-5.339-1.457-8.216-2.135a55.879 55.879 0 0 0-8.127-1.409 9.272 9.272 0 0 0-5.009 1.366 20.065 20.065 0 0 0-5.605 4.542c-.973 1.309-11.748 13.255-11.748 13.255s2.315-4.056 1.646-5.147c-3.609-5.769-3.219-11.708-3.617-23.3l-.084-2.617z" transform="translate(-385.978 -74.69)"/>
        </g>
        <g id="Group_10111" transform="translate(48.238 234.563)">
            <g id="Group_10110" transform="rotate(12.04 10.368 98.024)">
                <path id="Path_24341" d="M1.4 13.088a4.792 4.792 0 0 0 6.773 0l4.911-4.911a4.79 4.79 0 0 0 0-6.774 4.789 4.789 0 0 0-6.773 0L1.4 6.314a4.792 4.792 0 0 0 0 6.774z" class="cls-10" transform="rotate(-68 71.42 -18.087)"/>
                <path id="Path_24328" fill="#fff" d="M91.5 18.5L2.256 0 0 8.924l87.322 26.128q.292.088.588.162l2.978.753c5.11 1.292 9.959-.454 10.829-3.9l1.035-4.1c.871-3.446-2.566-7.286-7.676-8.577l-2.976-.749q-.3-.075-.6-.141zm5.232 10.125c-.578 2.286-4.165 3.351-8.012 2.379s-6.5-3.614-5.92-5.9 4.165-3.351 8.012-2.378 6.503 3.617 5.925 5.903z" transform="rotate(18.01 -79.048 146.862)"/>
                <path id="Path_24329" fill="url(#linear-gradient)" d="M8.47 9.67l17.28 4.367a4.09 4.09 0 0 1 2.751 2.34l2.585 5.969a4.09 4.09 0 0 1-1.223 4.839l-5.112 4.025a4.09 4.09 0 0 1-3.532.752L3.94 27.594a3.143 3.143 0 0 0-3.59 4.452 23.525 23.525 0 0 0 15.22 11.978C28 47.165 38.994 39.636 42.015 27.683S38.937 3.881 26.511.74A23.526 23.526 0 0 0 7.427 4.047 3.144 3.144 0 0 0 8.47 9.67z" transform="rotate(18.01 7.369 46.469)"/>
                <path id="Path_24330" d="M8.47 9.67l17.28 4.368a4.09 4.09 0 0 1 2.751 2.34l2.585 5.969a4.09 4.09 0 0 1-1.223 4.839l-5.111 4.024a4.09 4.09 0 0 1-3.532.752L3.94 27.594a3.144 3.144 0 0 0-3.59 4.452 23.525 23.525 0 0 0 15.22 11.978C28 47.165 38.994 39.636 42.015 27.683S38.937 3.881 26.511.74A23.526 23.526 0 0 0 7.427 4.047 3.144 3.144 0 0 0 8.47 9.67z" transform="rotate(18.01 2.429 44.356)"/>
                <path id="Path_24331" d="M91.5 18.5L2.256 0 0 8.924l87.322 26.128q.292.087.588.162l2.978.753c5.11 1.292 9.959-.454 10.83-3.9l1.035-4.1c.871-3.446-2.566-7.286-7.676-8.578l-2.977-.748q-.3-.075-.6-.141zm5.232 10.125c-.578 2.286-4.165 3.351-8.012 2.379s-6.5-3.614-5.92-5.9 4.165-3.351 8.012-2.378 6.503 3.617 5.925 5.903z" transform="rotate(18.01 -82.985 145.179)"/>
            </g>
            <g id="Group_10105" transform="rotate(30 -67.593 153.301)">
                <path id="Path_24332" d="M1.4 13.088a4.792 4.792 0 0 0 6.773 0l4.911-4.911a4.79 4.79 0 0 0 0-6.774 4.789 4.789 0 0 0-6.773 0L1.4 6.314a4.792 4.792 0 0 0 0 6.774z" class="cls-10" transform="rotate(151 8.21 8.883)"/>
                <path id="Path_24342" d="M1.4 13.088a4.792 4.792 0 0 0 6.773 0l4.911-4.911a4.79 4.79 0 0 0 0-6.774 4.789 4.789 0 0 0-6.773 0L1.4 6.314a4.792 4.792 0 0 0 0 6.774z" class="cls-10" transform="rotate(151 20.76 16.326)"/>
                <path id="Path_24333" d="M1.4 17.822a4.787 4.787 0 0 0 6.772 0l9.646-9.645a4.789 4.789 0 0 0 0-6.774 4.789 4.789 0 0 0-6.773 0L1.4 11.05a4.787 4.787 0 0 0 0 6.772z" class="cls-10" transform="rotate(151 13.495 13.066)"/>
                <path id="Path_24334" d="M1.4 17.822a4.793 4.793 0 0 0 6.774 0l9.646-9.647a4.79 4.79 0 0 0 0-6.774 4.79 4.79 0 0 0-6.772 0L1.4 11.049a4.793 4.793 0 0 0 0 6.773z" class="cls-10" transform="rotate(151 17.756 15.577)"/>
            </g>
        </g>
        <g id="Group_9696" transform="rotate(-148 175.209 124.362)">
            <path id="Path_23645" stroke="#000" d="M0 12c4.686.887 8.086.58 8.828-2.777C9.742 4.177 5.272 1.741 0 0z" transform="translate(23.956 10.972)"/>
            <path id="Path_23646" fill="#ffd32e" d="M0 10.507c4.686.777 7.034.507 7.68-2.431C8.474 3.657 5.272 1.524 0 0z" transform="translate(23.956 11.914)"/>
            <path id="Path_23647" d="M14.989 8.046C14.3 4.192 12.471.725 9.905.173S4.139.164 1.3 5.268C-1.555 11.453.463 17.478 5.666 23.4c4.38 5.186 6.844 11.65 6.844 19.759-.288 4.486 1.347 6.906 5.754 6.348 7.947-.558 5.731-9.181 3.075-18.152 7.59-2.51 10.167-9.423 4.477-14 1.894-4.122.319-7.157-2.493-9.8-2.233-1.891-4.955-1.931-8.334.491z"/>
            <path id="Path_23648" fill="#ffd32e" stroke="#191405" d="M12.295 39.09a31.028 31.028 0 0 0-7.407-18.184C-.8 13.881-2.221 6.933 4.385 1.068a4.168 4.168 0 0 1 6.135.621c.7.915 1.374 1.892 2.718 6.272 1.786 5.585 3.847 6.472 6.051 4.91-2.585.211-4.428-.9-4.563-5.059.931-1.87 5.6-3.224 8.531.446a8.272 8.272 0 0 1 .992 7.8c-2.649 4.067-6.721 5.6-12.3 4.449 5.135 1.977 9.187.616 12.573-3.248 5.113 3.632 1.853 10.552-4.439 12.077-3.345.449-6.606-.595-9.82-2.529 1.835 2.355 4.832 3.621 9.076 3.719a23.147 23.147 0 0 1 2.679 9.87s.794 7.453-5.109 7.453-4.025-7.176-4.614-8.759z" transform="translate(.909 1.126)"/>
        </g>
        <g id="Group_10112" transform="scale(-1) rotate(-70 -283.04 168.125)">
            <g id="Group_10092-2">
                <path id="Path_24316-2" d="M1068.609 1074.923a.538.538 0 0 0 .079-.619l-3.095-5.77a28.511 28.511 0 0 0 3.2-8.666l6.1-2.372a.539.539 0 0 0 .343-.522l-.307-7.847a.537.537 0 0 0-.382-.494l-6.264-1.89a28.505 28.505 0 0 0-3.869-8.39l2.635-5.993a.538.538 0 0 0-.127-.611l-5.765-5.332a.537.537 0 0 0-.62-.079l-5.769 3.095a28.521 28.521 0 0 0-8.667-3.2l-2.373-6.1a.538.538 0 0 0-.522-.343l-7.847.306a.538.538 0 0 0-.494.382l-1.89 6.264a28.517 28.517 0 0 0-8.39 3.869l-5.993-2.636a.538.538 0 0 0-.611.127l-5.332 5.765a.538.538 0 0 0-.079.62l3.095 5.769a28.515 28.515 0 0 0-3.2 8.667l-6.1 2.373a.538.538 0 0 0-.343.522l.306 7.847a.538.538 0 0 0 .382.494l6.264 1.89a28.512 28.512 0 0 0 3.869 8.391l-2.636 5.993a.538.538 0 0 0 .127.611l5.765 5.332a.539.539 0 0 0 .62.079l5.769-3.095a28.505 28.505 0 0 0 8.667 3.2l2.372 6.1a.538.538 0 0 0 .522.342l7.847-.306a.538.538 0 0 0 .494-.382l1.89-6.264a28.519 28.519 0 0 0 8.391-3.869l5.993 2.635a.537.537 0 0 0 .611-.126z" class="cls-2" transform="translate(-1006.023 -1019.787)"/>
                <path id="Path_24317-2" d="M1254.488 1244.759a20.823 20.823 0 1 1-.647-2.986 20.942 20.942 0 0 1 .647 2.986z" class="cls-3" transform="translate(-1199.266 -1213.045)"/>
            </g>
        </g>
        <path id="Path_21008" d="M172.923 408.868c.264-.28.176-1.135-.12-1.135h-5.422c-10.323-3.645-17.534 1.242-12.99 2.39s-.32.908-3.64 5.1 24.686 5.247 27.229 0c2.338-4.832-8.717-2.443-5.057-6.355z" class="cls-16" transform="rotate(117.97 216.365 386.202)"/>
        <path id="Path_24344" d="M169.037 408.442c.219-.232.146-.938-.1-.938h-4.483c-8.536-3.014-14.5 1.027-10.741 1.976s-.265.751-3.01 4.217 20.413 4.339 22.515 0c1.935-3.997-7.207-2.02-4.181-5.255z" class="cls-16" transform="rotate(10 1033.74 426.478)"/>
        <path id="Path_21034" d="M79.312 411.68a5.483 5.483 0 0 1-4.177-2.251.285.285 0 1 1 .467-.325c1.066 1.539 3.419 2.354 4.445 1.869a.742.742 0 0 0 .268-.194 3.448 3.448 0 0 1-2.006-2.553c-.131-.724-.234-1.71.359-1.835.821-.182 1.892 1.8 2.28 3.294a2.154 2.154 0 0 1 .074.764 2.428 2.428 0 0 0 1.014.08 1.106 1.106 0 0 0 .786-.422 3.34 3.34 0 0 1-1.316-2.388c-.217-1.561-.051-1.829.12-1.966a.376.376 0 0 1 .393-.04c.61.256 1.345 2.468 1.487 3.721a1.516 1.516 0 0 1 0 .393 2.228 2.228 0 0 0 .769.148 2.445 2.445 0 0 0 1.373-.359c-.08-.051-.154-.108-.228-.165a2.786 2.786 0 0 1-.729-2.468c.08-.895.279-1.385.638-1.539a.644.644 0 0 1 .69.137 3.944 3.944 0 0 1 .986 3.169 1.709 1.709 0 0 1-.291.655 10.422 10.422 0 0 0 3.79-.427.293.293 0 1 1 .137.57 9.4 9.4 0 0 1-4.382.353 3.243 3.243 0 0 1-1.995.661 2.753 2.753 0 0 1-.935-.177 1.6 1.6 0 0 1-1.208.724 3.037 3.037 0 0 1-1.276-.109 1.259 1.259 0 0 1-.57.507 2.372 2.372 0 0 1-.963.173zm-.49-4.719a2.462 2.462 0 0 0 .046 1.168 2.878 2.878 0 0 0 1.618 2.109 1.83 1.83 0 0 0-.068-.4 5.551 5.551 0 0 0-1.596-2.877zm3.174-.5a8.087 8.087 0 0 0 .1 1.174 2.952 2.952 0 0 0 .866 1.835 8.959 8.959 0 0 0-.962-3.005zm3.585-.5s-.217.108-.3 1.06a2.24 2.24 0 0 0 .53 1.989 1.746 1.746 0 0 0 .342.217 1.276 1.276 0 0 0 .308-.57 3.567 3.567 0 0 0-.678-2.525c-.12-.148-.188-.171-.205-.171z" class="cls-16" transform="translate(56.534 -40.881)"/>
        <g id="Group_10114" transform="rotate(-51 151.841 384.928)">
            <g id="Group_10113">
                <path id="Path_21035" d="M227.623 419.937l1.544-2.678-1.544-2.678h-1.653l.935 2.678-.935 2.678z" class="cls-16" transform="translate(-47.368 -19.83)"/>
                <path id="Path_21036" d="M223.652 419.231a1.4 1.4 0 1 1 0-2.787l-2.622-.524-.7 2.12 1.174 1.789z" class="cls-16" transform="translate(-44.942 -20.406)"/>
                <path id="Path_21037" d="M223.059 414.58h-3.094l-1.544 2.678 1.544 2.678h3.094l1.544-2.678zm-1.544 4.075a1.4 1.4 0 1 1 1.391-1.4 1.4 1.4 0 0 1-1.391 1.4z" class="cls-17" transform="translate(-44.121 -19.83)"/>
            </g>
        </g>
        <g id="Group_10116" transform="translate(-41 -25)">
            <path id="Path_21038" d="M417.025 411.258l-1.145-1.989 1.145-1.989h1.225l-.69 1.989.69 1.989z" class="cls-17" transform="translate(-129.05 -16.69)"/>
            <path id="Path_21039" d="M419.9 410.736a1.037 1.037 0 1 0 0-2.069l1.949-.388.519 1.573-.866 1.328z" class="cls-17" transform="translate(-130.779 -17.12)"/>
            <path id="Path_21040" d="M418.75 407.28h2.28l1.14 1.989-1.14 1.989h-2.28l-1.14-1.989zm1.14 3.026a1.039 1.039 0 1 1 .006 0z" class="cls-16" transform="translate(-129.794 -16.69)"/>
        </g>
        <g id="Group_10115" transform="translate(-23 -26)">
            <path id="Path_21041" d="M342.08 417.059h2.576a1.22 1.22 0 0 0 1.214-1.22 1.22 1.22 0 0 0-1.214-1.22h-2.576a1.22 1.22 0 0 0-1.22 1.22 1.22 1.22 0 0 0 1.22 1.22z" class="cls-16" transform="translate(-96.783 -19.848)"/>
            <path id="Path_21042" d="M335.516 413.866a2.542 2.542 0 1 1 1.14 3.522 2.627 2.627 0 0 1-1.14-3.522z" class="cls-17" transform="translate(-94.363 -18.956)"/>
            <path id="Rectangle_1202" d="M0 0H0.781V5.756H0z" class="cls-16" transform="rotate(-154.76 165.917 172.229)"/>
        </g>
        <g id="freepik--oops--inject-3" transform="translate(65.728 138.528)">
            <path id="Path_20967" d="M86.59 116.25c-.751-3.312-.421-6.09 1.006-8.358s3.755-3.755 7.066-4.505 6.172-.451 8.41.946a10.645 10.645 0 0 1 4.505 6.983 12.878 12.878 0 0 1 .128 6.1 8.741 8.741 0 0 1-2.651 4.325 11.661 11.661 0 0 1-5.346 2.538 13.253 13.253 0 0 1-5.917.2 8.8 8.8 0 0 1-4.43-2.628 11.767 11.767 0 0 1-2.771-5.6zm6.263-1.4q.7 3.064 2.14 4.145a4.423 4.423 0 0 0 6.233-1.382c.541-1.044.548-2.7.038-4.963a6.431 6.431 0 0 0-2.11-3.92 4.025 4.025 0 0 0-3.424-.608 3.9 3.9 0 0 0-2.741 2.027c-.556 1.108-.609 2.61-.136 4.705z" class="cls-16" transform="translate(-86.2 -89.908)"/>
            <path id="Path_20968" d="M118.509 114.05a7.509 7.509 0 0 1 1.014-6.05 8.68 8.68 0 0 1 5.624-3.567q4.408-1 7.239 1.044a8.185 8.185 0 0 1 1.982 10.715 8.774 8.774 0 0 1-5.722 3.574 8.883 8.883 0 0 1-6.127-.5 7.4 7.4 0 0 1-4.01-5.216zm5.639-1.3a4.566 4.566 0 0 0 1.449 2.726 2.688 2.688 0 0 0 4-.894 4.753 4.753 0 0 0 .105-3.154 4.506 4.506 0 0 0-1.434-2.658 2.5 2.5 0 0 0-2.163-.488 2.621 2.621 0 0 0-1.817 1.4 4.505 4.505 0 0 0-.139 3.069z" class="cls-16" transform="translate(-94.188 -90.186)"/>
            <path id="Path_20969" d="M147.053 120.917l-4.6-20.274 5.256-1.2.5 2.17a7.134 7.134 0 0 1 1.584-2.305 5.9 5.9 0 0 1 2.576-1.269 5.414 5.414 0 0 1 5.061 1.216 9.619 9.619 0 0 1 2.876 5.2 8.329 8.329 0 0 1-.481 6.007 5.91 5.91 0 0 1-4 2.936 6.435 6.435 0 0 1-2.47.1 5.827 5.827 0 0 1-2.208-.879l1.592 7.006zm2.711-14.162a3.972 3.972 0 0 0 1.322 2.418 2.4 2.4 0 0 0 2.042.421 2.118 2.118 0 0 0 1.5-1.179 4.5 4.5 0 0 0 0-2.9 4.212 4.212 0 0 0-1.284-2.463 2.185 2.185 0 0 0-1.877-.451 2.343 2.343 0 0 0-1.607 1.254 4.3 4.3 0 0 0-.096 2.9z" class="cls-16" transform="translate(-100.211 -88.628)"/>
            <path id="Path_20970" d="M169.123 105.945l5.467-1.795a2.816 2.816 0 0 0 1.292 1.2 3.522 3.522 0 0 0 3.4-.826 1.119 1.119 0 0 0 .278-1.006 1.044 1.044 0 0 0-.849-.8 11.7 11.7 0 0 0-2.553 0 25.253 25.253 0 0 1-4.28 0 4.415 4.415 0 0 1-2.253-1.029 4.137 4.137 0 0 1-1.044-4.873 5.069 5.069 0 0 1 1.96-2.1 12.6 12.6 0 0 1 3.852-1.419 13.876 13.876 0 0 1 3.965-.481 5.188 5.188 0 0 1 2.373.751 6.653 6.653 0 0 1 1.907 1.967l-5.256 1.735a1.884 1.884 0 0 0-.924-.879 2.891 2.891 0 0 0-1.7-.075 2.313 2.313 0 0 0-1.314.653 1.014 1.014 0 0 0-.248.916.9.9 0 0 0 .751.691 9.281 9.281 0 0 0 2.523-.053 16.836 16.836 0 0 1 4.37-.06 4.723 4.723 0 0 1 2.46 1.138 4.1 4.1 0 0 1 1.247 2.14 4.64 4.64 0 0 1-.2 2.651 5.317 5.317 0 0 1-1.982 2.455 11.834 11.834 0 0 1-4.34 1.735q-4.017.916-6.007.158a5.309 5.309 0 0 1-2.891-2.793z" class="cls-16" transform="translate(-106.624 -87.375)"/>
            <path id="Path_20971" d="M193.85 85.57h6.165v4.73l-1.134 9.514h-3.815l-1.216-9.5zm.3 15.679h5.75v5.091h-5.75z" class="cls-16" transform="translate(-113.015 -85.57)"/>
        </g>
    </g>
</svg>
