<svg xmlns="http://www.w3.org/2000/svg" width="13.473" height="13.513" viewBox="0 0 13.473 13.513">
  <g id="medal" transform="translate(-48.514 -2.093)">
    <ellipse id="Ellipse_863" data-name="Ellipse 863" cx="6.736" cy="6.757" rx="6.736" ry="6.757" transform="translate(48.514 2.093)" fill="#fad207"/>
    <path id="Path_18609" data-name="Path 18609" d="M121.554,51.656a6.757,6.757,0,1,0,6.736,6.757A6.746,6.746,0,0,0,121.554,51.656Zm0,12.733a5.977,5.977,0,1,1,5.959-5.977A5.974,5.974,0,0,1,121.554,64.389Z" transform="translate(-66.304 -49.562)" fill="#efa01a" fill-rule="evenodd"/>
    <path id="Path_18610" data-name="Path 18610" d="M178.574,107.3l1.028,2.1a.288.288,0,0,0,.218.158l2.31.332a.288.288,0,0,1,.16.491l-1.675,1.631a.288.288,0,0,0-.083.255l.4,2.307a.288.288,0,0,1-.418.3l-2.061-1.092a.288.288,0,0,0-.269,0l-2.061,1.092a.288.288,0,0,1-.418-.3l.4-2.307a.288.288,0,0,0-.083-.255l-1.675-1.631a.288.288,0,0,1,.16-.491l2.31-.332a.288.288,0,0,0,.218-.158l1.028-2.1A.288.288,0,0,1,178.574,107.3Z" transform="translate(-123.065 -102.554)" fill="#efa01a"/>
  </g>
</svg>
