<?xml version="1.0"?>
<svg xmlns="http://www.w3.org/2000/svg" height="512px" viewBox="-52 0 512 512.001" width="512px" class=""><g><path d="m234.042969 0c-96.199219 0-174.394531 77.960938-174.394531 174.390625v25.921875c0 27.960938-11.105469 54.777344-30.878907 74.550781l-24.007812 24.007813c-10.167969 10.167968-2.96875 27.558594 11.414062 27.558594h34.53125c4.9375 0 8.941407 4.003906 8.941407 8.941406v29.625c0 44.269531 36.222656 80.488281 80.492187 80.488281 17.257813 0 31.296875 13.988281 31.296875 31.300781v25.710938c0 5.25 4.253906 9.503906 9.503906 9.503906h148.542969c5.324219 0 9.640625-4.316406 9.640625-9.640625v-65.945313c0-25.855468 8.617188-51.304687 25.722656-70.6875 27.125-30.738281 43.589844-71.097656 43.589844-115.316406v-76.015625c0-96.316406-78.078125-174.394531-174.394531-174.394531zm0 0" fill="#e4eaf8" data-original="#E4EAF8" class=""/><path d="m35.238281 298.871094 24.011719-24.007813c19.769531-19.773437 30.878906-46.589843 30.878906-74.550781v-25.921875c0-91.28125 70.070313-166.003906 159.15625-173.71875-5.023437-.4375-10.105468-.671875-15.242187-.671875-96.199219 0-174.394531 77.960938-174.394531 174.390625v25.921875c0 27.960938-11.105469 54.777344-30.878907 74.550781l-24.007812 24.007813c-10.167969 10.167968-2.96875 27.558594 11.414062 27.558594h30.476563c-14.378906-.003907-21.582032-17.390626-11.414063-27.558594zm0 0" fill="#c7d2e5" data-original="#C7D2E5" class=""/><path d="m201.917969 502.496094v-25.710938c0-17.3125-14.039063-31.300781-31.300781-31.300781-44.269532 0-80.488282-36.21875-80.488282-80.488281v-29.625c0-4.9375-4.003906-8.941406-8.941406-8.941406h-30.480469c4.941407 0 8.945313 4.003906 8.945313 8.941406v29.625c0 44.269531 36.21875 80.488281 80.488281 80.488281 17.257813 0 31.300781 13.988281 31.300781 31.300781v25.710938c0 5.25 4.253906 9.503906 9.5 9.503906h30.480469c-5.25 0-9.503906-4.253906-9.503906-9.503906zm0 0" fill="#c7d2e5" data-original="#C7D2E5" class=""/><path d="m345.820312 151.691406h-23.050781c-1.316406-4.679687-2.980469-9.207031-4.96875-13.5625l-27.210937 27.210938c.785156 3.871094 1.199218 7.882812 1.199218 11.988281 0 33.191406-26.90625 60.101563-60.101562 60.101563-33.191406 0-60.101562-26.910157-60.101562-60.101563 0-6.117187.917968-12.015625 2.617187-17.574219l-4.59375-4.59375c-7.34375-7.339844-7.34375-19.242187 0-26.585937 7.339844-7.339844 19.246094-7.339844 26.585937 0l.148438.152343c9.921875-7.226562 22.132812-11.503906 35.34375-11.503906 15.003906 0 28.710938 5.511719 39.246094 14.605469l40.796875-40.800781-12.53125-12.53125c-1.363281-1.359375-3.570313-1.359375-4.933594 0l-16.300781 16.300781c-6.453125-3.621094-13.367188-6.503906-20.640625-8.550781v-23.054688c0-1.921875-1.5625-3.484375-3.488281-3.484375h-44.296876c-1.925781 0-3.488281 1.558594-3.488281 3.484375v23.054688c-7.269531 2.042968-14.1875 4.925781-20.636719 8.550781l-16.304687-16.300781c-1.359375-1.359375-3.570313-1.359375-4.933594 0l-31.320312 31.320312c-1.363281 1.363282-1.363281 3.570313 0 4.933594l16.300781 16.300781c-3.625 6.453125-6.507812 13.371094-8.550781 20.640625h-23.050781c-1.925782 0-3.488282 1.5625-3.488282 3.488282v44.296874c0 1.925782 1.5625 3.484376 3.488282 3.484376h23.050781c2.042969 7.273437 4.925781 14.191406 8.550781 20.640624l-16.300781 16.304688c-1.363281 1.359375-1.363281 3.566406 0 4.929688l31.320312 31.324218c1.363281 1.359375 3.570313 1.359375 4.933594 0l16.300781-16.304687c6.449219 3.625 13.367188 6.507812 20.640625 8.554687v23.050782c0 1.925781 1.5625 3.488281 3.488281 3.488281h44.296876c1.925781 0 3.488281-1.5625 3.488281-3.488281v-23.050782c7.273437-2.046875 14.1875-4.929687 20.640625-8.554687l16.300781 16.304687c1.363281 1.359375 3.570313 1.359375 4.933594 0l31.320312-31.324218c1.359375-1.363282 1.359375-3.570313 0-4.929688l-16.300781-16.304688c3.621094-6.449218 6.507812-13.367187 8.550781-20.640624h23.050781c1.925782 0 3.488282-1.558594 3.488282-3.484376v-44.296874c0-1.925782-1.5625-3.488282-3.488282-3.488282zm0 0" fill="#54a0ff" data-original="#54A0FF" class="" style="fill:#00CEFF" data-old_color="#00D6FF"/><path d="m163.765625 239.90625 9.976563-9.980469c3.632812-3.628906 4.652343-9.125 2.546874-13.808593-.765624-1.707032-1.484374-3.445313-2.152343-5.203126-1.820313-4.796874-6.433594-7.953124-11.5625-7.953124h-14.113281c-1.925782 0-3.484376-1.558594-3.484376-3.488282v-44.296875c0-1.921875 1.558594-3.484375 3.484376-3.484375h18.429687c-4.449219-7.242187-3.558594-16.84375 2.71875-23.117187 1.390625-1.390625 2.945313-2.515625 4.601563-3.378907l-10.449219-10.445312c-1.359375-1.363281-1.359375-3.570312 0-4.933594l18.335937-18.332031-12.988281-12.988281c-1.363281-1.363282-3.570313-1.363282-4.933594 0l-31.320312 31.320312c-1.363281 1.363282-1.363281 3.570313 0 4.933594l16.300781 16.300781c-3.625 6.449219-6.507812 13.367188-8.550781 20.640625h-23.050781c-1.925782 0-3.488282 1.5625-3.488282 3.488282v44.296874c0 1.925782 1.5625 3.484376 3.488282 3.484376h23.050781c2.042969 7.273437 4.925781 14.191406 8.550781 20.640624l-16.300781 16.304688c-1.363281 1.359375-1.363281 3.566406 0 4.929688l31.320312 31.324218c1.363281 1.359375 3.570313 1.359375 4.933594 0l12.984375-12.988281-18.332031-18.335937c-1.359375-1.363282-1.359375-3.570313.003906-4.929688zm0 0" fill="#338def" data-original="#338DEF" class="" style="fill:#0286A4" data-old_color="#338DEF"/><path d="m342.214844 87.128906c-7.546875-7.546875-19.761719-7.546875-27.3125 0l-76.480469 76.476563c-1.785156 1.785156-4.683594 1.785156-6.46875 0l-35.394531-35.394531c-7.546875-7.546876-19.765625-7.546876-27.3125 0-7.554688 7.550781-7.550782 19.769531 0 27.316406l52.285156 52.285156c7.546875 7.550781 19.765625 7.550781 27.3125 0l93.371094-93.367188c7.550781-7.550781 7.550781-19.769531 0-27.316406zm0 0" fill="#feca57" data-original="#FECA57" class="" style="fill:#FFAA43" data-old_color="#FECA57"/><path d="m200.152344 155.527344c-6.9375-6.9375-7.484375-17.8125-1.664063-25.386719l-1.929687-1.929687c-7.546875-7.546876-19.761719-7.546876-27.3125 0-7.550782 7.550781-7.550782 19.769531 0 27.316406l52.285156 52.285156c7.546875 7.550781 19.765625 7.550781 27.3125 0l1.796875-1.796875zm0 0" fill="#f4b537" data-original="#F4B537" class="" style="fill:#FD9710" data-old_color="#F4B537"/><g fill="#338def"><path d="m209.539062 59.707031c-1.925781 0-3.488281 1.5625-3.488281 3.488281v23.054688s11.414063-3.503906 25.902344-4.511719c2.816406-.195312 5.007813-2.539062 5.007813-5.363281v-13.183594c0-1.921875 1.558593-3.484375 3.488281-3.484375zm0 0" data-original="#000000" class="active-path" style="fill:#00B7FF" data-old_color="#00AFFF"/><path d="m236.960938 291.457031v-11.277343c0-3.085938-2.402344-5.625-5.480469-5.84375-15.980469-1.140626-25.429688-5.929688-25.429688-5.929688v23.050781c0 1.929688 1.5625 3.488281 3.488281 3.488281h30.910157c-1.929688.003907-3.488281-1.5625-3.488281-3.488281zm0 0" data-original="#000000" class="active-path" style="fill:#00B7FF" data-old_color="#00AFFF"/></g></g> </svg>
