<svg width="161" height="125" viewBox="0 0 161 125" fill="none" xmlns="http://www.w3.org/2000/svg">
    <g clip-path="url(#hjwevwvr4a)">
        <path d="M67.712 66.37v31.013h57.326V77.76h-4.973V83.8h-1.281v-3.418h-6.323v5.415h-.838V69.198h-5.495v7.379h-2.818v4.34h-.854v-2.73h-4.997v8.143H96v-6.62h-4.571v-5.03h-3.107V71.82h-3.593V84.52h-1.21V70.554h-5.921v7.587h-.819V71.95h-6.004v-5.58h-3.062z" fill="#EBEBEB"/>
        <path d="M123.587 79.675h.841v-1.156h-.841v1.156zM122.128 79.675h.842v-1.156h-.842v1.156zM120.67 79.675h.841v-1.156h-.841v1.156zM123.587 81.411h.841v-1.155h-.841v1.155zM122.128 81.411h.842v-1.155h-.842v1.155zM120.67 81.411h.841v-1.155h-.841v1.155zM123.587 83.15h.841v-1.156h-.841v1.156zM122.128 83.15h.842v-1.156h-.842v1.156zM120.67 83.15h.841v-1.156h-.841v1.156zM123.587 84.886h.841v-1.155h-.841v1.155zM122.128 84.886h.842v-1.155h-.842v1.155zM120.67 84.886h.841v-1.155h-.841v1.155zM94.454 81.497h.842v-.963h-.842v.963zM92.998 81.497h.841v-.963h-.841v.963zM91.54 81.497h.84v-.963h-.84v.963zM94.454 82.947h.842v-.963h-.842v.963zM92.998 82.947h.841v-.963h-.841v.963zM91.54 82.947h.84v-.963h-.84v.963zM94.454 84.398h.842v-.963h-.842v.963zM92.998 84.398h.841v-.963h-.841v.963zM91.54 84.398h.84v-.963h-.84v.963zM94.454 85.848h.842v-.964h-.842v.964zM92.998 85.848h.841v-.964h-.841v.964zM91.54 85.848h.84v-.964h-.84v.964zM94.454 87.333h.842v-.963h-.842v.963zM92.998 87.333h.841v-.963h-.841v.963zM91.54 87.333h.84v-.963h-.84v.963zM94.454 88.819h.842v-.964h-.842v.964zM92.998 88.819h.841v-.964h-.841v.964zM91.54 88.819h.84v-.964h-.84v.964zM94.454 90.304h.842v-.963h-.842v.963zM92.998 90.304h.841v-.963h-.841v.963zM91.54 90.304h.84v-.963h-.84v.963zM94.454 91.79h.842v-.964h-.842v.963zM92.998 91.79h.841v-.964h-.841v.963zM91.54 91.79h.84v-.964h-.84v.963zM113.223 81.844h4.844v-.723h-4.844v.723zM113.223 83.245h4.844v-.723h-4.844v.723zM113.223 84.648h4.844v-.723h-4.844v.723zM113.223 86.047h4.844v-.723h-4.844v.723zM113.223 87.448h4.844v-.723h-4.844v.723zM113.223 88.85h4.844v-.724h-4.844v.723zM113.223 90.25h4.844v-.723h-4.844v.723zM113.223 91.651h4.844v-.723h-4.844v.723zM78.348 71.95h4.455v-.723h-4.455v.723zM78.348 73.35h4.455v-.722h-4.455v.723zM78.348 74.752h4.455v-.723h-4.455v.723zM78.348 76.155h4.455v-.723h-4.455v.723zM82.803 76.833h-4.455v.723h4.455v-.723zM78.348 78.957h4.455v-.723h-4.455v.723zM78.348 80.358h4.455v-.723h-4.455v.723zM78.348 81.76h4.455v-.724h-4.455v.723zM78.348 83.09h4.455v-.722h-4.455v.722zM78.348 84.421h4.455V83.7h-4.455v.722zM78.348 85.753h4.455v-.723h-4.455v.723zM78.348 87.086h4.455v-.723h-4.455v.723zM71.149 73.643h4.704v-.723h-4.704v.723zM71.149 75.044h4.704v-.723h-4.704v.723zM71.149 76.445h4.704v-.722h-4.704v.722zM71.149 77.847h4.704v-.723h-4.704v.723zM71.149 79.248h4.704v-.723h-4.704v.723zM71.149 80.649h4.704v-.723h-4.704v.723zM71.149 82.05h4.704v-.723h-4.704v.723zM71.149 83.451h4.704v-.723h-4.704v.723zM71.149 84.705h4.704v-.723h-4.704v.723zM71.149 85.959h4.704v-.723h-4.704v.723zM71.149 87.215h4.704v-.723h-4.704v.723zM99.498 79.538h1.496v-.697h-1.496v.697zM99.498 80.891h1.496v-.698h-1.496v.698zM99.498 82.244h1.496v-.698h-1.496v.698zM99.498 83.598h1.496V82.9h-1.496v.698zM99.498 84.95h1.496v-.697h-1.496v.698zM99.498 86.303h1.496v-.697h-1.496v.697zM99.498 87.656h1.496v-.698h-1.496v.698zM99.498 89.01h1.496v-.697h-1.496v.697zM97.463 79.538h1.496v-.697h-1.496v.697zM97.463 80.891h1.496v-.698h-1.496v.698zM97.463 82.244h1.496v-.698h-1.496v.698zM97.463 83.598h1.496V82.9h-1.496v.698zM97.463 84.95h1.496v-.697h-1.496v.698zM97.463 86.303h1.496v-.697h-1.496v.697zM97.463 87.656h1.496v-.698h-1.496v.698zM97.463 89.01h1.496v-.697h-1.496v.697zM109.232 71.103h1.559v-1.1h-1.559v1.1zM106.908 71.103h1.559v-1.1h-1.559v1.1zM109.232 72.72h1.559v-1.1h-1.559v1.1zM106.908 72.72h1.559v-1.1h-1.559v1.1zM109.232 74.334h1.559v-1.1h-1.559v1.1zM106.908 74.334h1.559v-1.1h-1.559v1.1zM109.232 75.949h1.559v-1.1h-1.559v1.1zM106.908 75.949h1.559v-1.1h-1.559v1.1zM109.232 77.565h1.559v-1.1h-1.559v1.1zM106.908 77.565h1.559v-1.1h-1.559v1.1zM104.027 78.152h1.559v-1.1h-1.559v1.1zM104.027 79.768h1.559v-1.1h-1.559v1.1zM104.027 81.382h1.559v-1.1h-1.559v1.1zM104.027 82.997h1.559v-1.1h-1.559v1.1zM104.027 84.614h1.559v-1.1h-1.559v1.1zM104.027 86.23h1.559v-1.1h-1.559v1.1zM109.232 79.162h1.559v-1.1h-1.559v1.1zM106.908 79.162h1.559v-1.1h-1.559v1.1zM104.027 87.825h1.559v-1.1h-1.559v1.1zM109.232 80.758h1.559v-1.1h-1.559v1.1zM106.908 80.758h1.559v-1.1h-1.559v1.1zM104.027 89.423h1.559v-1.1h-1.559v1.1zM109.232 82.355h1.559v-1.1h-1.559v1.1zM106.908 82.355h1.559v-1.1h-1.559v1.1zM104.027 91.02h1.559v-1.1h-1.559v1.1zM109.232 83.95h1.559v-1.1h-1.559v1.1zM106.908 83.95h1.559v-1.1h-1.559v1.1zM109.232 85.548h1.559v-1.1h-1.559v1.1zM106.908 85.548h1.559v-1.1h-1.559v1.1zM89.953 76.352h.842v-.963h-.842v.963zM88.495 76.352h.841v-.963h-.841v.963zM89.953 77.802h.842v-.964h-.842v.964zM88.495 77.802h.841v-.964h-.841v.964zM89.953 79.251h.842v-.963h-.842v.963zM88.495 79.251h.841v-.963h-.841v.963zM89.953 80.7h.842v-.963h-.842v.964zM88.495 80.7h.841v-.963h-.841v.964zM89.953 82.186h.842v-.963h-.842v.963zM88.495 82.186h.841v-.963h-.841v.963zM89.953 83.672h.842v-.964h-.842v.964zM88.495 83.672h.841v-.964h-.841v.964zM89.953 85.159h.842v-.964h-.842v.964zM88.495 85.159h.841v-.964h-.841v.964zM89.953 86.644h.842v-.963h-.842v.963zM88.495 86.644h.841v-.963h-.841v.963zM89.953 88.144h.842v-.963h-.842v.963zM88.495 88.144h.841v-.963h-.841v.963zM89.953 89.646h.842v-.964h-.842v.964zM88.495 89.646h.841v-.964h-.841v.964zM89.953 91.147h.842v-.963h-.842v.963zM88.495 91.147h.841v-.963h-.841v.963zM69.405 68.017h.842v-1.135h-.842v1.135zM67.947 68.017h.841v-1.135h-.841v1.135zM69.405 69.725h.842V68.59h-.842v1.135zM67.947 69.725h.841V68.59h-.841v1.135zM69.405 71.433h.842v-1.135h-.842v1.135zM67.947 71.433h.841v-1.135h-.841v1.135zM69.405 73.141h.842v-1.136h-.842v1.136zM67.947 73.141h.841v-1.136h-.841v1.136zM69.405 74.89h.842v-1.136h-.842v1.136zM67.947 74.89h.841v-1.136h-.841v1.136zM69.405 76.64h.842v-1.136h-.842v1.135zM67.947 76.64h.841v-1.136h-.841v1.135zM69.405 78.39h.842v-1.135h-.842v1.135zM67.947 78.39h.841v-1.135h-.841v1.135zM69.405 80.14h.842v-1.136h-.842v1.135zM67.947 80.14h.841v-1.136h-.841v1.135zM69.405 81.908h.842v-1.135h-.842v1.135zM67.947 81.908h.841v-1.135h-.841v1.135zM69.405 83.677h.842v-1.136h-.842v1.136zM67.947 83.677h.841v-1.136h-.841v1.136zM69.405 85.446h.842V84.31h-.842v1.136zM67.947 85.446h.841V84.31h-.841v1.136zM69.405 87.215h.842v-1.136h-.842v1.136zM67.947 87.215h.841v-1.136h-.841v1.136zM86.834 76.352h.841v-.963h-.841v.963zM85.375 76.352h.842v-.963h-.842v.963zM86.834 74.867h.841v-.964h-.841v.964zM85.375 74.867h.842v-.964h-.842v.964zM86.834 73.381h.841v-.963h-.841v.963zM85.375 73.381h.842v-.963h-.842v.963zM86.834 77.802h.841v-.964h-.841v.964zM85.375 77.802h.842v-.964h-.842v.964zM86.834 79.251h.841v-.963h-.841v.963zM85.375 79.251h.842v-.963h-.842v.963zM86.834 80.7h.841v-.963h-.841v.964zM85.375 80.7h.842v-.963h-.842v.964zM86.834 82.186h.841v-.963h-.841v.963zM85.375 82.186h.842v-.963h-.842v.963zM86.834 83.672h.841v-.964h-.841v.964zM85.375 83.672h.842v-.964h-.842v.964zM86.834 85.159h.841v-.964h-.841v.964zM85.375 85.159h.842v-.964h-.842v.964zM86.834 86.644h.841v-.963h-.841v.963zM85.375 86.644h.842v-.963h-.842v.963zM86.834 88.144h.841v-.963h-.841v.963zM85.375 88.144h.842v-.963h-.842v.963zM86.834 89.646h.841v-.964h-.841v.964zM85.375 89.646h.842v-.964h-.842v.964zM86.834 91.147h.841v-.963h-.841v.963zM85.375 91.147h.842v-.963h-.842v.963z" fill="#fff"/>
        <path d="M10.385 66.37v31.013h57.327V77.76h-4.973V83.8h-1.281v-3.418h-6.324v5.415h-.836V64.424h-5.497v12.152h-2.818v4.34h-.854v-2.728h-4.996v8.142h-1.46v-6.62h-4.57v-5.03h-3.107V71.82h-3.595V84.52h-1.21V70.554H20.27v7.587h-.818V71.95h-6.005v-5.58h-3.062z" fill="#EBEBEB"/>
        <path d="M66.26 79.675h.842v-1.156h-.842v1.156zM64.802 79.675h.841v-1.156h-.841v1.156zM63.345 79.675h.841v-1.156h-.84v1.156zM66.26 81.411h.842v-1.155h-.842v1.155zM64.802 81.411h.841v-1.155h-.841v1.155zM63.345 81.411h.841v-1.155h-.84v1.155zM66.26 83.15h.842v-1.156h-.842v1.156zM64.802 83.15h.841v-1.156h-.841v1.156zM63.345 83.15h.841v-1.156h-.84v1.156zM66.26 84.886h.842v-1.155h-.842v1.155zM64.802 84.886h.841v-1.155h-.841v1.155zM63.345 84.886h.841v-1.155h-.84v1.155zM37.13 81.497h.841v-.963h-.841v.963zM35.671 81.497h.842v-.963h-.842v.963zM34.213 81.497h.841v-.963h-.841v.963zM37.13 82.947h.841v-.963h-.841v.963zM35.671 82.947h.842v-.963h-.842v.963zM34.213 82.947h.841v-.963h-.841v.963zM37.13 84.398h.841v-.963h-.841v.963zM35.671 84.398h.842v-.963h-.842v.963zM34.213 84.398h.841v-.963h-.841v.963zM37.13 85.848h.841v-.964h-.841v.964zM35.671 85.848h.842v-.964h-.842v.964zM34.213 85.848h.841v-.964h-.841v.964zM37.13 87.333h.841v-.963h-.841v.963zM35.671 87.333h.842v-.963h-.842v.963zM34.213 87.333h.841v-.963h-.841v.963zM37.13 88.819h.841v-.964h-.841v.964zM35.671 88.819h.842v-.964h-.842v.964zM34.213 88.819h.841v-.964h-.841v.964zM37.13 90.304h.841v-.963h-.841v.963zM35.671 90.304h.842v-.963h-.842v.963zM34.213 90.304h.841v-.963h-.841v.963zM37.13 91.79h.841v-.964h-.841v.963zM35.671 91.79h.842v-.964h-.842v.963zM34.213 91.79h.841v-.964h-.841v.963zM55.897 81.844h4.843v-.723h-4.843v.723zM55.897 83.245h4.843v-.723h-4.843v.723zM55.897 84.648h4.843v-.723h-4.843v.723zM55.897 86.047h4.843v-.723h-4.843v.723zM55.897 87.448h4.843v-.723h-4.843v.723zM55.897 88.85h4.843v-.724h-4.843v.723zM55.897 90.25h4.843v-.723h-4.843v.723zM55.897 91.651h4.843v-.723h-4.843v.723zM21.022 71.95h4.454v-.723h-4.454v.723zM21.022 73.35h4.454v-.722h-4.454v.723zM21.022 74.752h4.454v-.723h-4.454v.723zM21.022 76.155h4.454v-.723h-4.454v.723zM25.476 76.833h-4.454v.723h4.454v-.723zM21.022 78.957h4.454v-.723h-4.454v.723zM21.022 80.358h4.454v-.723h-4.454v.723zM21.022 81.76h4.454v-.724h-4.454v.723zM21.022 83.09h4.454v-.722h-4.454v.722zM21.022 84.421h4.454V83.7h-4.454v.722zM21.022 85.753h4.454v-.723h-4.454v.723zM21.022 87.086h4.454v-.723h-4.454v.723zM13.822 73.643h4.704v-.723h-4.704v.723zM13.822 75.044h4.704v-.723h-4.704v.723zM13.822 76.445h4.704v-.722h-4.704v.722zM13.822 77.847h4.704v-.723h-4.704v.723zM13.822 79.248h4.704v-.723h-4.704v.723zM13.822 80.649h4.704v-.723h-4.704v.723zM13.822 82.05h4.704v-.723h-4.704v.723zM13.822 83.451h4.704v-.723h-4.704v.723zM13.822 84.705h4.704v-.723h-4.704v.723zM13.822 85.959h4.704v-.723h-4.704v.723zM13.822 87.215h4.704v-.723h-4.704v.723zM42.172 79.538h1.497v-.697h-1.496v.697zM42.172 80.891h1.497v-.698h-1.496v.698zM42.172 82.244h1.497v-.698h-1.496v.698zM42.172 83.598h1.497V82.9h-1.496v.698zM42.172 84.95h1.497v-.697h-1.496v.698zM42.172 86.303h1.497v-.697h-1.496v.697zM42.172 87.656h1.497v-.698h-1.496v.698zM42.172 89.01h1.497v-.697h-1.496v.697zM40.136 79.538h1.497v-.697h-1.497v.697zM40.136 80.891h1.497v-.698h-1.497v.698zM40.136 82.244h1.497v-.698h-1.497v.698zM40.136 83.598h1.497V82.9h-1.497v.698zM40.136 84.95h1.497v-.697h-1.497v.698zM40.136 86.303h1.497v-.697h-1.497v.697zM40.136 87.656h1.497v-.698h-1.497v.698zM40.136 89.01h1.497v-.697h-1.497v.697zM51.905 66.256h1.559v-1.1h-1.56v1.1zM49.582 66.256h1.559v-1.1h-1.56v1.1zM51.905 67.87h1.559v-1.1h-1.56v1.1zM49.582 67.87h1.559v-1.1h-1.56v1.1zM51.905 69.487h1.559v-1.1h-1.56v1.1zM49.582 69.487h1.559v-1.1h-1.56v1.1zM51.905 71.103h1.559v-1.1h-1.56v1.1zM49.582 71.103h1.559v-1.1h-1.56v1.1zM51.905 72.72h1.559v-1.1h-1.56v1.1zM49.582 72.72h1.559v-1.1h-1.56v1.1zM51.905 74.334h1.559v-1.1h-1.56v1.1zM49.582 74.334h1.559v-1.1h-1.56v1.1zM51.905 75.949h1.559v-1.1h-1.56v1.1zM49.582 75.949h1.559v-1.1h-1.56v1.1zM51.905 77.565h1.559v-1.1h-1.56v1.1zM49.582 77.565h1.559v-1.1h-1.56v1.1zM46.7 78.152h1.56v-1.1H46.7v1.1zM46.7 79.768h1.56v-1.1H46.7v1.1zM46.7 81.382h1.56v-1.1H46.7v1.1zM46.7 82.997h1.56v-1.1H46.7v1.1zM46.7 84.614h1.56v-1.1H46.7v1.1zM46.7 86.23h1.56v-1.1H46.7v1.1zM51.905 79.162h1.559v-1.1h-1.56v1.1zM49.582 79.162h1.559v-1.1h-1.56v1.1zM46.7 87.825h1.56v-1.1H46.7v1.1zM51.905 80.758h1.559v-1.1h-1.56v1.1zM49.582 80.758h1.559v-1.1h-1.56v1.1zM46.7 89.423h1.56v-1.1H46.7v1.1zM51.905 82.355h1.559v-1.1h-1.56v1.1zM49.582 82.355h1.559v-1.1h-1.56v1.1zM46.7 91.02h1.56v-1.1H46.7v1.1zM51.905 83.95h1.559v-1.1h-1.56v1.1zM49.582 83.95h1.559v-1.1h-1.56v1.1zM51.905 85.548h1.559v-1.1h-1.56v1.1zM49.582 85.548h1.559v-1.1h-1.56v1.1zM32.625 76.352h.841v-.963h-.84v.963zM31.167 76.352h.84v-.963h-.84v.963zM32.625 77.802h.841v-.964h-.84v.964zM31.167 77.802h.84v-.964h-.84v.964zM32.625 79.251h.841v-.963h-.84v.963zM31.167 79.251h.84v-.963h-.84v.963zM32.625 80.7h.841v-.963h-.84v.964zM31.167 80.7h.84v-.963h-.84v.964zM32.625 82.186h.841v-.963h-.84v.963zM31.167 82.186h.84v-.963h-.84v.963zM32.625 83.672h.841v-.964h-.84v.964zM31.167 83.672h.84v-.964h-.84v.964zM32.625 85.159h.841v-.964h-.84v.964zM31.167 85.159h.84v-.964h-.84v.964zM32.625 86.644h.841v-.963h-.84v.963zM31.167 86.644h.84v-.963h-.84v.963zM32.625 88.144h.841v-.963h-.84v.963zM31.167 88.144h.84v-.963h-.84v.963zM32.625 89.646h.841v-.964h-.84v.964zM31.167 89.646h.84v-.964h-.84v.964zM32.625 91.147h.841v-.963h-.84v.963zM31.167 91.147h.84v-.963h-.84v.963zM12.079 68.017h.841v-1.135h-.841v1.135zM10.62 68.017h.841v-1.135h-.84v1.135zM12.079 69.725h.841V68.59h-.841v1.135zM10.62 69.725h.841V68.59h-.84v1.135zM12.079 71.433h.841v-1.135h-.841v1.135zM10.62 71.433h.841v-1.135h-.84v1.135zM12.079 73.141h.841v-1.136h-.841v1.136zM10.62 73.141h.841v-1.136h-.84v1.136zM12.079 74.89h.841v-1.136h-.841v1.136zM10.62 74.89h.841v-1.136h-.84v1.136zM12.079 76.64h.841v-1.136h-.841v1.135zM10.62 76.64h.841v-1.136h-.84v1.135zM12.079 78.39h.841v-1.135h-.841v1.135zM10.62 78.39h.841v-1.135h-.84v1.135zM12.079 80.14h.841v-1.136h-.841v1.135zM10.62 80.14h.841v-1.136h-.84v1.135zM12.079 81.908h.841v-1.135h-.841v1.135zM10.62 81.908h.841v-1.135h-.84v1.135zM12.079 83.677h.841v-1.136h-.841v1.136zM10.62 83.677h.841v-1.136h-.84v1.136zM12.079 85.446h.841V84.31h-.841v1.136zM10.62 85.446h.841V84.31h-.84v1.136zM12.079 87.215h.841v-1.136h-.841v1.136zM10.62 87.215h.841v-1.136h-.84v1.136zM29.507 76.352h.841v-.963h-.84v.963zM28.049 76.352h.841v-.963h-.841v.963zM29.507 74.867h.841v-.964h-.84v.964zM28.049 74.867h.841v-.964h-.841v.964zM29.507 73.381h.841v-.963h-.84v.963zM28.049 73.381h.841v-.963h-.841v.963zM29.507 77.802h.841v-.964h-.84v.964zM28.049 77.802h.841v-.964h-.841v.964zM29.507 79.251h.841v-.963h-.84v.963zM28.049 79.251h.841v-.963h-.841v.963zM29.507 80.7h.841v-.963h-.84v.964zM28.049 80.7h.841v-.963h-.841v.964zM29.507 82.186h.841v-.963h-.84v.963zM28.049 82.186h.841v-.963h-.841v.963zM29.507 83.672h.841v-.964h-.84v.964zM28.049 83.672h.841v-.964h-.841v.964zM29.507 85.159h.841v-.964h-.84v.964zM28.049 85.159h.841v-.964h-.841v.964zM29.507 86.644h.841v-.963h-.84v.963zM28.049 86.644h.841v-.963h-.841v.963zM29.507 88.144h.841v-.963h-.84v.963zM28.049 88.144h.841v-.963h-.841v.963zM29.507 89.646h.841v-.964h-.84v.964zM28.049 89.646h.841v-.964h-.841v.964zM29.507 91.147h.841v-.963h-.84v.963zM28.049 91.147h.841v-.963h-.841v.963z" fill="#fff"/>
        <g opacity=".3" fill="#EBEBEB">
            <path d="m51.892 34.696-41.507 29.02v-7.11l31.337-21.91h10.17zM125.038 74.567v7.112l-22.467 15.704H92.399l32.639-22.816zM29.859 34.696 10.385 48.312v-2.33l16.148-11.286h3.326zM125.038 48.838v2.325l-66.11 46.22h-3.333l69.443-48.545zM125.038 85.451v2.327L111.3 97.383h-3.333l17.071-11.932zM110.631 34.696 20.962 97.383H17.63l89.67-62.687h3.332zM76.325 34.696l-65.94 46.1v-.544l65.166-45.556h.773zM125.038 54.744v.543L64.823 97.383h-.775l60.99-42.64z"/>
        </g>
        <path d="M125.038 51.918H10.385v.504h114.653v-.504z" fill="#DBDBDB"/>
        <path d="M47.987 97.383V34.696h-.668v62.687h.668zM88.102 97.383V34.696h-.667v62.687h.667z" fill="#DBDBDB"/>
        <path d="M125.038 97.383H10.385v1.586h114.653v-1.586z" fill="#A6A6A6"/>
        <path d="m9.709 113.69 14.5-.043 14.501-.016 29.002-.029 29.001.029 14.501.016 14.5.043-14.5.045-14.5.016-29.002.029-29.002-.029-14.5-.016-14.501-.045z" fill="#15142B"/>
        <path d="M117.828 83.343s4.261-.595 3.265-5.74c0 .001-4.765 1.07-3.265 5.74z" fill="#FFC727"/>
        <path opacity=".1" d="M117.828 83.343s4.261-.595 3.265-5.74c0 .001-4.765 1.07-3.265 5.74z" fill="#15142B"/>
        <path d="M118.044 82.27c.084-.26.179-.516.29-.767 0-.033.009-.065.011-.097 0-.07.013-.142.018-.212.013-.154.021-.307.03-.46.018-.308.038-.616.044-.923 0-.003.001-.007.003-.009a.015.015 0 0 1 .009-.004c.003 0 .007.002.009.004.002.002.004.006.004.009v.924c0 .154-.015.307-.025.461v.102a9.064 9.064 0 0 1 .853-1.46c.146-.205.301-.403.467-.592.169-.194.348-.379.52-.57.011-.013.029 0 .018.017a7.659 7.659 0 0 0-.822 1.093c-.129.195-.251.396-.367.6l.039-.015.153-.061.348-.131.685-.255c.012 0 .023.018 0 .023-.226.09-.45.18-.675.282l-.33.142-.167.07a.593.593 0 0 1-.113.04c-.084.153-.17.308-.249.466-.196.398-.37.808-.52 1.227l-.031.088a2.62 2.62 0 0 1 .359-.167l.44-.201c.299-.138.597-.276.882-.44.015 0 .027.016.013.024-.293.16-.58.33-.872.49-.147.078-.294.155-.445.229a1.416 1.416 0 0 1-.4.16 5.07 5.07 0 0 0-.28 1.209c-.046.581-.041 1.168-.055 1.749h-.015a21.937 21.937 0 0 1-.07-1.593 4.65 4.65 0 0 1 .241-1.451z" fill="#15142B"/>
        <path d="M118.7 79.246c.041.3.056.604.043.908h-.012c-.018-.3-.022-.6-.056-.897-.002-.022.023-.027.025-.011zM119.916 79.502c.188-.072.368-.162.539-.269.014 0 .026.015.012.024-.17.115-.356.204-.552.265.001.002.001-.014.001-.02zM117.694 91.508c0-.472.012-.942.018-1.412 0-1.565.021-3.127.048-4.691.023-1.24.052-2.481.088-3.723 0 0 0-.01.011-.014V80.65c0-.01.009-.013.02-.013.01 0 .019 0 .019.013v1.019a.018.018 0 0 1 .002.007 298.946 298.946 0 0 1 .131 6.634v1.347c.014 1.435.02 2.876.016 4.322v.687c0 1.319-.012 2.635-.014 3.947 0 .07-.079.105-.162.11-.082.003-.197-.035-.197-.116 0-1.453-.011-2.906-.011-4.36.027-.909.024-1.825.031-2.74z" fill="#15142B"/>
        <path d="M119.472 90.078s2.048-1.52 3.993-.493c1.945 1.026 2.25 4.98 2.25 4.98s-2.855.409-4.654-1.303c-1.733-1.65-1.589-3.184-1.589-3.184z" fill="#FFC727"/>
        <path opacity=".1" d="M119.472 90.078s2.048-1.52 3.993-.493c1.945 1.026 2.25 4.98 2.25 4.98s-2.855.409-4.654-1.303c-1.733-1.65-1.589-3.184-1.589-3.184z" fill="#15142B"/>
        <path d="M118.914 90.171a2.45 2.45 0 0 1 1.187-.154c.083-.016.167-.024.251-.025l.289-.022c.197-.016.398-.027.598-.043.403-.03.809-.054 1.212-.095.015 0 .016.024 0 .025-.398.052-.796.108-1.196.15-.207.02-.413.04-.619.057l-.149.014c.061.013.122.027.179.045.322.093.633.22.93.376.161.03.321.076.479.112.254.06.505.125.758.192.497.129.989.276 1.484.42.016 0 0 .028 0 .025-.493-.12-.988-.232-1.484-.36-.238-.057-.48-.112-.717-.179l-.189-.043c.551.341 1.043.769 1.457 1.267.399.49.739 1.025 1.012 1.595 0 .016-.014.03-.022.014a7.78 7.78 0 0 0-1.225-1.615l.027.083.113.359c.077.24.153.48.224.717 0 .017-.018.022-.025 0-.086-.233-.167-.468-.249-.705-.041-.114-.083-.23-.122-.344-.022-.061-.041-.12-.061-.18 0-.017-.015-.035-.02-.053a7.765 7.765 0 0 0-.726-.621 5.545 5.545 0 0 0-1.089-.623l.021.105c.02.093.041.179.059.281.042.194.079.388.117.582.077.396.124.798.199 1.194a.01.01 0 0 1-.004.01.01.01 0 0 1-.008.003c-.004 0-.007-.001-.009-.004a.01.01 0 0 1-.004-.009c-.092-.398-.21-.79-.3-1.19-.044-.2-.089-.401-.131-.6-.019-.095-.037-.189-.057-.282-.011-.052-.022-.104-.029-.158l-.111-.044c-.538-.2-1.132-.345-1.704-.234a1.667 1.667 0 0 0-1.233.989c-.019.043-.089.016-.079-.029a1.588 1.588 0 0 1 .966-1.003z" fill="#15142B"/>
        <path d="M122.049 91.86c.06.26.117.518.18.778.064.249.112.502.143.757 0 .01-.014.01-.018 0a6.254 6.254 0 0 1-.179-.764l-.151-.768c-.002-.014.022-.02.025-.004zM124.032 92.52c.26.132.513.283.785.39l.005.004.002.004.001.005-.001.005a.035.035 0 0 1-.003.004l-.004.002-.005.001a8.043 8.043 0 0 1-.786-.407s-.001-.012.006-.008z" fill="#15142B"/>
        <path d="M119.02 87.29s2.502.16 3.668-1.493c1.166-1.652.897-4.009.897-4.009s-2.63.32-3.674 1.505c-1.044 1.186-.891 3.997-.891 3.997z" fill="#FFC727"/>
        <path d="M117.836 89.76c.087-.269.195-.538.296-.796a15.12 15.12 0 0 1 1.067-2.225c.179-.305.359-.599.561-.897 0-.044.013-.088.02-.132l.034-.234c.025-.157.052-.315.079-.473.058-.347.129-.69.18-1.037 0-.016.028-.016.025 0-.05.34-.085.685-.133 1.026-.023.169-.045.337-.07.504 0 .061-.02.122-.029.18.382-.561.796-1.1 1.238-1.615l.18-.205c0-.02.016-.037.023-.057.02-.048.038-.095.056-.144l.107-.297a5.6 5.6 0 0 0 .18-.596c0-.016.028 0 .025 0-.051.205-.104.41-.165.614a5.311 5.311 0 0 1-.095.29l-.018.049c.321-.348.654-.686.992-1.017.01-.013.028 0 .018.018a17.908 17.908 0 0 0-1.776 2.174c.058-.02.118-.035.179-.047.192-.038.387-.065.581-.09.409-.052.815-.104 1.222-.166.003 0 .006 0 .009.003a.013.013 0 0 1 .003.01.013.013 0 0 1-.003.008.015.015 0 0 1-.009.004c-.388.075-.771.163-1.157.25-.18.044-.359.078-.547.116-.15.03-.296.072-.44.123-.041.06-.082.115-.122.18-.179.267-.359.538-.538.816l.255-.05c.193-.038.387-.074.581-.106.382-.063.764-.13 1.143-.213.016 0 .021.02 0 .025-.382.09-.763.193-1.141.296a17.25 17.25 0 0 1-.555.134l-.278.06a.722.722 0 0 1-.113.02 25.621 25.621 0 0 0-1.431 2.643c-.131.277-.248.575-.372.863.009.078-.082.054-.062-.009z" fill="#15142B"/>
        <path d="M120.399 84.005c.048-.239.098-.478.151-.717 0-.016.028-.01.025.009-.047.233-.092.468-.135.705-.043.233-.077.472-.141.701a4.83 4.83 0 0 1 .1-.698zM121.859 83.935c.117-.057.241-.104.359-.15l.19-.076.097-.04a.459.459 0 0 0 .106-.044c.018-.014.031.018.011.022a.476.476 0 0 0-.106.043l-.095.043-.179.08a3.516 3.516 0 0 1-.37.147c-.016.006-.025-.017-.013-.025z" fill="#15142B"/>
        <path d="M116.449 85.32s-1.516-2.83-3.821-3.268c-2.306-.438-3.718 1.934-3.718 1.934s1.681 2.152 3.798 2.522c2.117.37 3.741-1.188 3.741-1.188z" fill="#FFC727"/>
        <path d="M111.081 83.313a6.231 6.231 0 0 1 1.808.021l-.102-.055-.511-.264c-.359-.18-.718-.38-1.076-.527-.003-.002-.004-.005-.005-.008s0-.006.001-.009a.012.012 0 0 1 .006-.007.011.011 0 0 1 .008-.001c.359.168.736.31 1.096.475.18.084.359.17.539.264.113.06.238.116.358.19.507.1.998.264 1.464.486l-.287-.314c-.215-.235-.427-.483-.663-.696a.012.012 0 0 1-.004-.01c0-.003.002-.007.004-.009a.014.014 0 0 1 .01-.003c.004 0 .007.001.009.004.242.219.495.422.73.65.113.11.223.224.329.342.052.06.106.12.156.18a6.072 6.072 0 0 1 3.091 4.172c0 .016-.02.025-.025.01a6.975 6.975 0 0 0-1.696-2.871 6.656 6.656 0 0 0-3.089-1.794 6.761 6.761 0 0 0-2.131-.194.027.027 0 0 1-.011-.003.024.024 0 0 1-.007-.008.038.038 0 0 1-.004-.01l.002-.011z" fill="#15142B"/>
        <path opacity=".1" d="M108.91 83.986s1.681 2.152 3.798 2.522c1.615.285 2.942-.556 3.481-.97l.116-.193s-1.091-.918-3.155-1.45c-2.065-.53-4.24.09-4.24.09z" fill="#15142B"/>
        <path d="M112.421 82.31c.176.104.347.217.511.34.161.12.31.256.445.404.002.003.003.007.002.01a.01.01 0 0 1-.004.008.013.013 0 0 1-.017.002 12.352 12.352 0 0 0-.467-.39 4.611 4.611 0 0 0-.484-.35c-.015-.01 0-.033.014-.024zM111.155 82.789c.086.036.179.066.258.102l.257.108c.003 0 .007.001.01.004a.018.018 0 0 1 .004.01.018.018 0 0 1-.004.01.016.016 0 0 1-.01.005l-.257-.104c-.086-.035-.17-.074-.257-.11-.03-.005-.016-.03-.001-.025z" fill="#15142B"/>
        <path d="M116.75 88.883s-.405 2.808-2.511 3.79c-2.107.984-4.686 0-4.686 0s1.008-6.075 7.197-3.79z" fill="#FFC727"/>
        <path opacity=".1" d="M116.75 88.883s-.405 2.808-2.511 3.79c-2.107.984-4.686 0-4.686 0s1.008-6.075 7.197-3.79z" fill="#15142B"/>
        <path d="M111.002 90.848c.196-.024.39-.056.581-.092l.286-.054.154-.034c.057-.054.113-.108.179-.16a8.51 8.51 0 0 1 1.29-.934c.25-.149.509-.282.775-.398h-.039l-.696.03c-.463.022-.926.03-1.391.061-.016 0-.016-.025 0-.025.465-.032.928-.083 1.391-.124.226-.018.45-.04.676-.059l.348-.03h.09c.12-.045.24-.088.359-.126a3.282 3.282 0 0 1 1.794-.099c.538.137 1.06.485 1.198 1.044.002.005.001.01-.001.014a.016.016 0 0 1-.01.01.018.018 0 0 1-.014 0 .02.02 0 0 1-.009-.011c-.197-.468-.718-.703-1.186-.8a2.803 2.803 0 0 0-.956-.02 2.228 2.228 0 0 1-.108.425 19.03 19.03 0 0 1-.179.592c-.119.395-.251.786-.359 1.18a.01.01 0 0 1-.004.01c-.002.002-.005.003-.009.003a.01.01 0 0 1-.008-.004.01.01 0 0 1-.004-.008c.099-.395.179-.791.276-1.188.047-.194.095-.386.144-.58.026-.135.062-.269.106-.4a5.043 5.043 0 0 0-.539.13 7.96 7.96 0 0 0-.958.359c-.03.199-.075.398-.122.595a9.345 9.345 0 0 1-.203.741.013.013 0 0 1-.007.002.01.01 0 0 1-.007-.002c-.003-.001-.004-.003-.005-.005a.362.362 0 0 1 0-.047c.047-.23.099-.46.147-.687.038-.18.074-.371.115-.556-.262.118-.52.246-.77.389 0 .057-.019.117-.027.169-.016.096-.034.192-.052.287-.039.217-.082.434-.134.647a9.976 9.976 0 0 1-.359 1.222.012.012 0 0 1 .003.008.012.012 0 0 1-.003.008l-.013.014c0 .011-.023 0-.021-.014.099-.416.21-.829.301-1.247.045-.208.092-.416.133-.626.022-.104.041-.21.061-.314 0-.028.009-.06.014-.093a8.74 8.74 0 0 0-2.081 1.697c-.016.016-.044 0-.032-.025a8.03 8.03 0 0 1 .504-.614c.106-.114.217-.224.328-.331h-.034a5.633 5.633 0 0 1-.297.044c-.196.027-.392.045-.587.069-.038-.017-.045-.043-.029-.043z" fill="#15142B"/>
        <path d="M112.488 91.798c0-.023 0-.048.01-.071a.39.39 0 0 0 .027-.092c.043-.188.081-.377.115-.567 0-.012.023-.009.022 0-.013.252-.067.5-.16.734h-.016l.002-.004zM114.255 91.754s0-.011.012-.011c.059-.25.117-.499.167-.748.027-.133.056-.264.081-.395.012-.072.025-.143.039-.213a.618.618 0 0 1 .05-.186.011.011 0 0 1 .007-.002l.007.002a.012.012 0 0 1 .004.006c.003.128-.015.255-.052.377-.027.136-.053.274-.084.41a13.188 13.188 0 0 1-.212.836.016.016 0 0 1-.01.004.017.017 0 0 1-.011-.004.018.018 0 0 1-.004-.01l.006-.066zM111.196 90.038c.386-.053.77-.109 1.157-.156.016 0 .023.024 0 .025-.384.058-.771.106-1.157.157-.011.001-.018-.024 0-.025z" fill="#15142B"/>
        <path d="M117.832 82.297s1.291-5.668-4.799-7.963c0 .009-1.686 7.461 4.799 7.963z" fill="#FFC727"/>
        <path d="M116.517 79.083c-.022-.016-.045-.029-.065-.042l-.344-.192-.707-.394c-.465-.26-.924-.538-1.392-.786-.014 0 0-.029.014-.022.468.255.946.494 1.417.743l.7.37.284.15c-.203-.385-.42-.764-.659-1.126a17.614 17.614 0 0 0-1.03-1.401.022.022 0 0 1-.002-.014.027.027 0 0 1 .006-.013.023.023 0 0 1 .027-.002 9.738 9.738 0 0 1 1.408 1.726v-.06c0-.14-.011-.281-.012-.421 0-.278.009-.554 0-.83 0-.019.025-.017.027 0 .01.272.043.538.059.816 0 .136.014.27.018.407 0 .073.009.158 0 .239a10.697 10.697 0 0 1 .897 1.75c0-.143.016-.285.023-.425.018-.31.056-.62.07-.93a.01.01 0 0 1 .004-.01.011.011 0 0 1 .009-.003.01.01 0 0 1 .008.003.01.01 0 0 1 .004.01v.93c0 .156-.009.31-.02.465 0 .057 0 .115-.01.18.193.506.348 1.026.461 1.556.104.567.18 1.138.226 1.712a9.36 9.36 0 0 0-.325-1.527 17.615 17.615 0 0 0-.24-.796c-.253-.12-.496-.27-.741-.404l-.765-.42c-.507-.278-1.015-.561-1.539-.807-.016 0 0-.029.015-.023.538.24 1.065.47 1.587.732.259.131.514.269.768.412.21.119.429.239.63.375a14.968 14.968 0 0 0-.811-1.928z" fill="#15142B"/>
        <path d="M117.032 77.786c0-.017.027-.017.025 0-.022.324-.032.647-.067.97 0 .018-.03.018-.028 0 .011-.325.045-.646.07-.97zM114.111 78.87c.38.152.766.297 1.145.457.01 0 0 .021 0 .018-.384-.146-.765-.302-1.147-.453-.021-.005-.014-.03.002-.023zM113.532 76.254c.37.171.73.365 1.076.58.018.012 0 .038-.018.028a24.474 24.474 0 0 0-1.076-.587c-.011-.007.003-.029.018-.022z" fill="#15142B"/>
        <path d="M113.625 103.814h8.783v-9.258h-8.783v9.258z" fill="#455A64"/>
        <path d="M123.013 97.832h-.451v15.858h.451V97.832zM113.517 97.832h-.45v15.858h.45V97.832zM118.026 97.832h-.451v15.858h.451V97.832z" fill="#15142B"/>
        <path d="M113.293 104.503h9.496v-1.282h-9.496v1.282z" fill="#15142B"/>
        <path d="m94.424 84.676-.142-.486s1.794-1.932 2.316-2.169c.522-.237 3.685.359 3.857.637.173.278.104 1.498.061 1.713-.043.216-2.87.696-3.335.718-.464.021-2.757-.413-2.757-.413zM94.282 84.19l.142.486s-1.2.897-1.243.956c-.043.06.028.313.028.313h-1.214V84.19c.18.1.37.182.567.242.176.03 1.72-.242 1.72-.242z" fill="#FFC727"/>
        <g opacity=".1" fill="#15142B">
            <path d="m94.424 84.676-.142-.486s1.794-1.932 2.316-2.169c.522-.237 3.685.359 3.857.637.173.278.104 1.498.061 1.713-.043.216-2.87.696-3.335.718-.464.021-2.757-.413-2.757-.413zM94.282 84.19l.142.486s-1.2.897-1.243.956c-.043.06.028.313.028.313h-1.214V84.19c.18.1.37.182.567.242.176.03 1.72-.242 1.72-.242z"/>
        </g>
        <path d="M72.03 103.24c-.13 4.692-1.995 10.447-6.15 10.447-.407 0-5.97.107-6.334-.015-3.35-1.117-5.334-7.217-4.957-12.599.292-4.194 1.625-8.89 5.127-9.454.235-.038 6.087 0 6.34 0 4.194-.005 6.112 6.573 5.974 11.621z" fill="#15142B"/>
        <path d="M65.36 103.24c-.13 4.692-1.993 10.447-6.148 10.447-4.155 0-6.057-6.651-5.639-12.614.313-4.474 1.757-9.454 5.815-9.454 4.198-.005 6.112 6.573 5.972 11.621z" fill="#37474F"/>
        <path d="M63.63 103.104c-.105 3.613-1.496 8.044-4.567 8.044s-4.462-5.12-4.14-9.716c.24-3.444 1.318-7.28 4.317-7.28 3.1 0 4.503 5.066 4.39 8.952z" fill="#C7C7C7"/>
        <path d="M58.258 94.933c.062 1.467.285 6.146.602 6.146.27 0 1.057-4.415 1.335-6.012a2.332 2.332 0 0 0-1.085-.267 2.715 2.715 0 0 0-.852.133zM59.436 101.357c.17.127 1.674-1.983 2.768-3.565a6.765 6.765 0 0 0-.986-1.842c-.709 1.812-2.011 5.234-1.782 5.407zM59.721 101.9c.077.19 1.694-.549 3.152-1.256a14.538 14.538 0 0 0-.33-1.747c-1.335 1.233-2.915 2.766-2.822 3.003zM59.874 102.559c-.016.22 1.614.538 3.107.769 0-.088 0-.179.01-.258.015-.47 0-.958-.026-1.453-1.487.307-3.075.694-3.091.942zM62.518 106.391c.171-.658.297-1.326.375-2.001-1.424-.662-3.087-1.374-3.213-1.144-.126.229 1.593 1.941 2.838 3.145zM60.751 109.751a5.613 5.613 0 0 0 1.315-2.015c-.915-1.564-2.483-4.155-2.725-3.99-.242.165 1.015 4.629 1.41 6.005zM57.545 110.043a2.28 2.28 0 0 0 1.365.458c.19.001.379-.02.564-.063-.05-1.227-.275-6.317-.61-6.317-.262.002-1.03 4.259-1.319 5.922zM55.775 107.074c.188.678.468 1.327.832 1.929.718-1.819 1.855-4.853 1.638-5.024-.158-.111-1.428 1.62-2.47 3.095zM55.283 104.39c.047.538.123 1.073.228 1.602 1.166-1.101 2.36-2.301 2.278-2.511-.066-.171-1.268.333-2.506.909zM55.226 102.022c-.022.495-.022.994 0 1.487 1.234-.26 2.382-.557 2.398-.775.01-.19-1.16-.47-2.398-.712zM55.288 101.073c1.195.567 2.394 1.077 2.5.876.105-.201-1.14-1.566-2.236-2.713-.122.607-.21 1.22-.264 1.837zM55.897 97.91c.884 1.529 2.125 3.588 2.342 3.436.218-.153-.758-3.99-1.189-5.597a5.942 5.942 0 0 0-1.153 2.162zM119.08 103.24c-.131 4.692-1.994 10.447-6.149 10.447-.408 0-5.971.107-6.335-.015-3.349-1.117-5.337-7.217-4.957-12.599.293-4.194 1.626-8.89 5.128-9.454.233-.038 6.087 0 6.339 0 4.195-.005 6.113 6.573 5.974 11.621z" fill="#15142B"/>
        <path d="M112.41 103.24c-.129 4.692-1.993 10.447-6.148 10.447-4.154 0-6.056-6.651-5.638-12.614.312-4.474 1.756-9.454 5.812-9.454 4.197-.005 6.114 6.573 5.974 11.621z" fill="#37474F"/>
        <path d="M110.681 103.104c-.106 3.613-1.496 8.044-4.568 8.044-3.071 0-4.461-5.12-4.136-9.716.24-3.444 1.318-7.28 4.318-7.28 3.096 0 4.499 5.066 4.386 8.952z" fill="#C7C7C7"/>
        <path d="M105.308 94.932c.063 1.468.284 6.147.603 6.147.269 0 1.057-4.415 1.335-6.012a2.333 2.333 0 0 0-1.077-.267 2.719 2.719 0 0 0-.861.132zM106.487 101.357c.179.127 1.674-1.983 2.766-3.565a6.695 6.695 0 0 0-.985-1.842c-.708 1.812-2.011 5.234-1.781 5.407zM106.772 101.9c.075.19 1.694-.549 3.152-1.256a14.42 14.42 0 0 0-.33-1.747c-1.338 1.233-2.915 2.766-2.822 3.003zM106.923 102.559c-.015.22 1.614.538 3.109.769 0-.088 0-.179.01-.258.015-.47 0-.958-.026-1.453-1.488.307-3.075.694-3.093.942zM109.569 106.391c.171-.658.296-1.326.375-2.001-1.425-.662-3.088-1.374-3.213-1.144-.126.229 1.593 1.941 2.838 3.145zM107.802 109.751a5.618 5.618 0 0 0 1.315-2.015c-.915-1.564-2.476-4.151-2.725-3.99-.25.162 1.012 4.629 1.41 6.005zM104.596 110.043c.394.296.873.457 1.365.458.19.001.379-.02.563-.063-.05-1.227-.274-6.317-.609-6.317-.262.002-1.03 4.259-1.319 5.922zM102.825 107.074c.188.678.469 1.327.833 1.929.717-1.819 1.855-4.853 1.638-5.024-.158-.111-1.429 1.62-2.471 3.095zM102.335 104.39c.048.538.124 1.073.228 1.602 1.166-1.101 2.361-2.301 2.277-2.511-.067-.171-1.269.333-2.505.909zM102.276 102.022c-.021.495-.021.994 0 1.487 1.234-.26 2.383-.557 2.399-.775.01-.19-1.161-.47-2.399-.712zM102.335 101.073c1.195.567 2.394 1.077 2.498.876.104-.201-1.138-1.566-2.234-2.713a16.71 16.71 0 0 0-.264 1.837zM102.947 97.91c.885 1.529 2.128 3.588 2.345 3.436.217-.153-.759-3.99-1.189-5.597a5.916 5.916 0 0 0-1.156 2.162zM29.227 103.24c-.129 4.692-1.993 10.447-6.148 10.447-.407 0-5.972.107-6.336-.015-3.35-1.117-5.333-7.217-4.957-12.599.293-4.194 1.626-8.89 5.127-9.454.235-.038 6.087 0 6.34 0 4.195-.005 6.113 6.573 5.974 11.621z" fill="#15142B"/>
        <path d="M22.557 103.24c-.129 4.692-1.993 10.447-6.148 10.447-4.154 0-6.056-6.651-5.638-12.614.312-4.474 1.756-9.454 5.814-9.454 4.194-.005 6.112 6.573 5.972 11.621z" fill="#37474F"/>
        <path d="M20.828 103.104c-.106 3.613-1.496 8.044-4.568 8.044-3.07 0-4.461-5.12-4.14-9.716.24-3.444 1.319-7.28 4.318-7.28 3.1 0 4.503 5.066 4.39 8.952z" fill="#C7C7C7"/>
        <path d="M15.455 94.932c.065 1.477.285 6.141.603 6.141.269 0 1.056-4.415 1.334-6.011a2.332 2.332 0 0 0-1.085-.268c-.29 0-.577.047-.852.138zM16.634 101.357c.179.127 1.673-1.983 2.768-3.565a6.818 6.818 0 0 0-.985-1.842c-.71 1.812-2.013 5.234-1.783 5.407zM16.919 101.9c.077.19 1.693-.549 3.152-1.256a14.558 14.558 0 0 0-.33-1.747c-1.335 1.233-2.915 2.766-2.822 3.003zM17.071 102.559c-.016.22 1.615.538 3.107.769 0-.088 0-.179.011-.258.015-.47 0-.958-.027-1.453-1.487.307-3.075.694-3.09.942zM19.716 106.391c.17-.658.296-1.326.375-2.001-1.425-.662-3.088-1.374-3.212-1.144-.123.229 1.592 1.941 2.837 3.145zM17.948 109.751a5.61 5.61 0 0 0 1.316-2.015c-.915-1.564-2.483-4.151-2.726-3.99-.242.162 1.012 4.629 1.41 6.005zM14.743 110.043a2.28 2.28 0 0 0 1.365.458c.19.001.379-.02.563-.063-.05-1.225-.267-6.315-.61-6.315-.261 0-1.028 4.257-1.318 5.92zM12.972 107.074c.188.678.468 1.327.833 1.929.717-1.819 1.854-4.853 1.637-5.024-.158-.111-1.428 1.62-2.47 3.095zM12.48 104.39c.048.538.124 1.073.228 1.602 1.166-1.101 2.363-2.301 2.279-2.511-.067-.171-1.274.333-2.506.909zM12.423 102.022c-.021.495-.021.994 0 1.487 1.234-.26 2.384-.557 2.399-.775.01-.19-1.161-.47-2.399-.712zM12.486 101.073c1.195.567 2.393 1.077 2.499.876.106-.201-1.14-1.566-2.235-2.713-.122.607-.21 1.221-.264 1.837zM13.094 97.91c.885 1.529 2.126 3.588 2.343 3.436.217-.153-.759-3.99-1.19-5.597a5.943 5.943 0 0 0-1.153 2.162z" fill="#15142B"/>
        <path d="M53.516 110.231H25.499s-2.56-4.169-2.705-4.827c-.145-.658.488-13.936-6.37-13.936-5.974 0-5.71 13.328-5.71 13.328l-.73-1.121-.166-1.947.467-1.153s-.878-8.174-.467-9.299c.411-1.124 4.06-5.843 4.306-6.09.246-.248 4.278-.933 4.553-1.179.274-.246 11.548-9.547 16.57-10.644 5.02-1.096 15.965-1.973 23.009-1.973 7.043 0 23.13 1.902 24.446 2.341 1.317.44 13.387 11.778 13.387 11.778s12.864 1.654 14.594 2.038c1.729.384 8.284 4.746 8.559 5.294.274.547 1.125 6.666 1.125 6.666s.658 1.509.685 1.866c.027.357-.797 6.171-.906 6.474-.109.303-1.317 1.672-1.591 1.782-.275.109-45.96.717-46.52.604-.56-.113-3.195-.877-3.634-1.171-.44-.294-1.285-17.447-9.15-17.447-6.831-.001-6.282 13.104-5.735 18.616z" fill="#FFC727"/>
        <path opacity=".1" d="M91.751 110.056c12.617-.158 26.664-.37 26.815-.429.274-.108 1.481-1.482 1.591-1.781.109-.3.933-6.118.897-6.475-.036-.357-.684-1.867-.684-1.867s-.85-6.118-1.125-6.665c-.274-.547-6.829-4.91-8.559-5.292-1.729-.382-14.594-2.04-14.594-2.04s11.661 2.606 12.255 3.127c.594.52 5.111 5.443 5.63 6.16.518.718.601 6.252.766 6.708.165.456 1.264 3.312 1.372 3.805.108.493-.382 2.47-.538 2.632-.156.161-22.776 2.032-23.826 2.117zM53.518 110.231c-.5-5.005-.996-16.264 4.029-18.298-2.567.465-6.15 4.664-6.299 15.663l-25.747 2.635h28.017z" fill="#15142B"/>
        <g opacity=".6" fill="#fff">
            <path d="M26.158 103.126a31.144 31.144 0 0 0-1.694-7.794 18.122 18.122 0 0 0-.79-1.842 12.908 12.908 0 0 0-1.018-1.733 8.668 8.668 0 0 0-1.317-1.525 7.71 7.71 0 0 0-.79-.637 6.42 6.42 0 0 0-.896-.49 5.163 5.163 0 0 0-1.973-.466 4.749 4.749 0 0 0-1.994.309c-1.284.495-2.26 1.539-2.95 2.676a14.71 14.71 0 0 0-1.535 3.692 23.053 23.053 0 0 0-.717 3.927c.166-1.319.445-2.621.834-3.892a14.682 14.682 0 0 1 1.584-3.626c.702-1.102 1.645-2.106 2.87-2.567a4.526 4.526 0 0 1 1.904-.284c.651.026 1.29.18 1.882.456.298.132.584.287.857.465.269.186.524.39.766.61.486.442.92.939 1.29 1.481.768 1.077 1.326 2.284 1.816 3.511.472 1.24.86 2.51 1.159 3.803.312 1.294.55 2.605.712 3.926zM68.648 103.126a31.37 31.37 0 0 0-1.632-7.62 16.594 16.594 0 0 0-1.714-3.52 10.565 10.565 0 0 0-1.236-1.533 7.34 7.34 0 0 0-1.582-1.19c-.594-.3-1.233-.5-1.892-.593a5.92 5.92 0 0 0-1.974.114c-1.3.307-2.42 1.143-3.24 2.162a12.54 12.54 0 0 0-1.9 3.409 19.638 19.638 0 0 0-1 3.767c.246-1.275.62-2.523 1.113-3.724a12.4 12.4 0 0 1 1.934-3.339c.824-.977 1.898-1.781 3.147-2.065a5.648 5.648 0 0 1 1.894-.098c.63.092 1.24.287 1.807.577.559.31 1.074.693 1.53 1.14.45.457.858.956 1.217 1.489a17.404 17.404 0 0 1 1.722 3.462 29.395 29.395 0 0 1 1.115 3.72c.303 1.267.533 2.549.691 3.842zM53.132 93.434c-1.794-.516-3.572-1.049-5.364-1.551l-10.016-.956-10.015-.898h.012l-3.272-1.12-3.294-1.111 3.264 1.18 3.268 1.152h.01l10.011.947 10.016.886h-.009c1.792.51 3.593.984 5.39 1.472zM94.663 85.51l5.435 2.32 5.442 2.3-.024-.022 2.169 4.07.052-.089c-5.247.045-10.495.065-15.742.137l.038.01-6.254-3.677-7.806-2.322-7.8-2.292 7.775 2.375 7.784 2.348h-.014l6.24 3.703.017.01h.02c5.25-.03 10.497-.11 15.744-.166h.099l-.047-.088-2.187-4.06-.009-.016h-.016l-5.454-2.275-5.462-2.266z"/>
        </g>
        <g opacity=".3" fill="#15142B">
            <path d="m95.066 85.507 10.971 2.605 1.367.335c.229.056.453.119.68.18l.156.052a.505.505 0 0 1 .077.028l.059.052c.086.074.165.154.239.24.611.704 1.171 1.463 1.745 2.204a419.147 419.147 0 0 1 3.373 4.517 195.659 195.659 0 0 0-3.271-4.593c-.561-.757-1.121-1.508-1.736-2.228a2.425 2.425 0 0 0-.257-.263l-.077-.063a.75.75 0 0 0-.086-.034l-.179-.06c-.228-.062-.456-.129-.684-.179l-1.369-.343c-1.83-.432-3.661-.851-5.495-1.255-1.833-.405-3.67-.803-5.513-1.195zM59.675 85.945l3.337 1.053 3.342 1.033 6.675 2.099c1.112.348 2.225.696 3.326 1.076a10.28 10.28 0 0 1 1.584.718l1.56.791 3.119 1.584 3.13 1.56-3.094-1.633-3.107-1.615-1.554-.804a10.172 10.172 0 0 0-1.591-.737 124.116 124.116 0 0 0-3.324-1.1l-6.692-2.047-3.351-1.006-3.36-.972zM51.248 106.74l-3.229-.068-3.229-.046-6.442-.099-6.442-.061-3.23-.048-.803-.015-.402-.014c-.064 0-.14 0-.194-.015-.053-.014-.102-.07-.149-.111-.358-.396-.674-.834-.994-1.265.31.44.614.883.964 1.294.048.043.084.113.161.126.07.012.139.019.208.021l.418.016.806.036 3.23.079 6.441.115 6.444.043 3.22.018 3.222-.006z"/>
            <path d="M28.664 85.162a587.72 587.72 0 0 0-.994 4.914v.022l.642 3.89.66 3.89c.442 2.591.906 5.179 1.393 7.765-.397-2.6-.806-5.203-1.243-7.79l-.655-3.89-.675-3.885v.022a381 381 0 0 0 .872-4.938zM46.439 85.487c.402 2.153.817 4.306 1.246 6.459v-.022c.027 2.345.063 4.69.11 7.032l.079 3.517.104 3.516v-3.518l-.03-3.516a689.962 689.962 0 0 0-.112-7.033v-.014a695.323 695.323 0 0 0-1.397-6.42zM22.35 83.55a67.5 67.5 0 0 0-.65 2.104 61.756 61.756 0 0 0-.59 2.119V87.809c.114.518.224 1.035.358 1.55.135.514.246 1.03.383 1.542a49.073 49.073 0 0 0-.273-1.566c-.093-.52-.203-1.038-.307-1.559v.038c.206-.705.384-1.415.576-2.124.192-.709.346-1.423.502-2.14z"/>
            <path d="m51.835 98.131-3.326-.253-3.328-.228-6.655-.455-6.658-.399-3.33-.199-3.331-.172 3.326.253 3.328.228 6.654.454 6.659.398 3.33.2 3.331.173zM32.86 86.138c-.064.271-.118.539-.18.817l.046-.034c-.52-.061-1.04-.126-1.561-.17-.52-.046-1.042-.103-1.564-.139l.068.092.156-.754-.072.052c.578.034 1.155.068 1.735.08-.574-.085-1.148-.148-1.722-.213h-.058l-.014.06-.18.75-.017.082.086.009c.52.054 1.042.097 1.564.136.522.04 1.044.072 1.566.102h.04v-.037c.043-.28.08-.556.107-.833zM117.488 97.277c.199 1.077.461 2.153.717 3.215l.097.402.025.099.013.05c0 .023 0 0 .019 0 0 .059-.009.136-.012.202-.023.28-.05.555-.065.836-.037.558-.07 1.115-.08 1.665.08-.538.141-1.076.197-1.614.03-.266.05-.539.075-.806l.02-.206a.237.237 0 0 0 0-.106l-.011-.05-.023-.101-.095-.402c-.276-1.07-.546-2.134-.877-3.184zM76.56 97.277c-.221.538-.418 1.098-.616 1.65a39.426 39.426 0 0 0-.556 1.669v.025c0 .418 0 .834.022 1.256.021.422.028.836.055 1.256.028-.416.046-.835.056-1.256.016-.418.018-.834.022-1.256v.023c.193-.552.358-1.115.538-1.673.18-.558.333-1.127.479-1.694z"/>
            <path d="m121.04 101.611-3.097 3.088h.016l-11.085.369c-1.847.06-3.695.137-5.543.18l-5.547-.013-22.184.056-4.505-1.091 4.485 1.145 22.188.054 5.563-.02c1.848-.052 3.694-.138 5.542-.205l11.085-.436h.01l3.072-3.127z"/>
        </g>
        <path d="M43.604 85.067c-.359.375-14.813-.475-15.141-.513-.328-.037-5.852-1.096-6.1-1.352-.247-.257 8.778-6.767 9.546-7.096.768-.328 9.135-.877 10.287-.412.892.366 1.835 8.943 1.408 9.373z" fill="#15142B"/>
        <path d="M42.666 84.67c-.334.342-13.534-.433-13.835-.467-.302-.034-5.346-1.003-5.581-1.236-.235-.234 8.02-6.182 8.722-6.484.702-.301 8.346-.802 9.399-.377.823.334 1.679 8.172 1.295 8.565z" fill="#37474F"/>
        <g opacity=".1" fill="#fff">
            <path d="m33.495 76.248 9.15 5.624c-.157-1.652-.45-3.636-.785-4.797l-1.83-1.117a59.525 59.525 0 0 0-6.535.29zM26.339 80.432l6.508 4.002c1.19.063 2.512.13 3.806.18l-8.716-5.356c-.538.388-1.081.786-1.598 1.174zM23.664 82.516l1.599.982c.382.084.784.168 1.178.249l-2.45-1.51c-.122.105-.232.197-.327.28z"/>
        </g>
        <path d="M32.596 76.354c-.258.041-3.245 7.75-3.19 7.894.056.143-.588.025-.537-.011.05-.036 3.268-7.476 3.175-7.79-.045-.156.552-.093.552-.093zM95.066 85.507c-.359 0-34.5.438-35.391.438-.892 0-13.208-.594-13.358-.677-.151-.082-1.358-9.025-.994-9.754.1-.199 16.642-1.054 18.673-1.054 2.031 0 18.672.717 19.555.879.882.161 12.121 10.159 11.515 10.168z" fill="#15142B"/>
        <path d="M94.004 85.075c-.344 0-32.419.412-33.257.412-.837 0-12.753-.558-12.895-.635-.141-.077-.95-7.987-.592-8.672.094-.188 15.98-.99 17.888-.99 1.909 0 17.545.681 18.37.825.826.144 11.055 9.052 10.486 9.06z" fill="#37474F"/>
        <path opacity=".1" d="m77.284 75.663 15.332 9.43-6.873.086-16.002-9.842c2.298.091 5.078.213 7.543.326zm-21.111-.082 15.89 9.772 3.438-.043-16.086-9.89-3.242.16zm-8.719 6.117c.084.897.18 1.728.25 2.31l1.54.946c.973.058 2.358.13 3.834.201l-5.624-3.457zm3.166-5.8 15.497 9.528h.759l-15.552-9.564-.703.036zm29.093-.12 13.319 8.19c-.423-.406-.96-.897-1.557-1.436l-10.915-6.71c-.269-.012-.552-.028-.847-.044z" fill="#fff"/>
        <path d="M81.57 94.436c.477.477-.359 3.439-1.098 3.657-.739.22-5.74-.475-6.29-.622-.548-.147-6.181-1.828-6.657-2.332-.475-.504-.915-4.718-.402-5.013.513-.294 8.961 1.904 9.867 2.153.906.25 4.177 1.75 4.58 2.157zM119.655 95.95c-.196.382-1.565 1.794-1.839 1.99-.275.195-1.92.467-2.112.358-.192-.11-1.234-2.386-1.207-2.77.027-.384 2.194-4.553 2.578-4.472.384.08 2.47 1.372 2.58 1.783.109.41.211 2.698 0 3.11z" fill="#fff"/>
        <path d="M119.531 95.817c.02.274-.707 1.123-.795 1.227.339-.335.646-.701.917-1.094.215-.413.113-2.7 0-3.11-.113-.408-2.194-1.702-2.576-1.784.418.18 2.077 1.544 2.167 1.882.089.337.267 2.587.287 2.879z" fill="#DBDBDB"/>
        <path d="M114.239 95.593c-.501-.18-10.777-.483-12.795-.483-2.018 0-15.296.312-16.205.626-.91.314 1.137 5.714 1.934 6.112.796.399 13.589 1.421 14.47 1.421.881 0 10.868-1.41 11.465-1.808.598-.399 1.954-5.59 1.131-5.868z" fill="#455A64"/>
        <path d="M113.729 96.086c-.482-.158-10.405-.443-12.344-.443-1.94 0-14.758.287-15.636.574-.88.287 1.097 4.874 1.865 5.238.768.365 13.112 1.305 13.963 1.305.85 0 10.487-1.294 11.063-1.658.576-.364 1.895-4.756 1.089-5.016z" fill="#15142B"/>
        <path d="M114.158 96.163h-28.81v.267h28.81v-.267zM114.158 97.051h-28.81v.267h28.81v-.267zM114.158 97.94h-28.81v.267h28.81v-.268zM113.819 98.827H85.687v.267h28.132v-.267zM113.476 99.715H86.032v.267h27.444v-.267zM113.051 100.605H86.455v.267h26.596v-.267zM111.054 101.493H87.487v.267h23.567v-.267zM105.67 102.381H93.837v.267h11.833v-.267z" fill="#455A64"/>
        <path d="M86.168 99.068c.04.105.08.211.122.315l27.317-.493c.031-.106.054-.215.077-.325l-27.516.503z" fill="#FFC727"/>
        <path d="M112.412 107.598H86.599c-.538 0 2.251-1.674 2.69-1.701.44-.027 20.683 0 21.096 0 .413 0 2.494 1.701 2.027 1.701z" fill="#15142B"/>
        <path d="M118.949 106.493c-.278.045-3.144.1-3.62 0-.475-.101-1.573-2.609-1.5-2.984.074-.374 2.205-1.645 2.478-1.727.273-.083 2.208-.192 2.415 0 .206.192.486 4.673.227 4.711zM81.827 103.126c.343.444-2.013 3.119-2.908 3.448-.895.328-6.392.339-6.584.283-.192-.056-.21-2.808-.1-3.229.109-.422 1.133-1.957 1.361-2.094.228-.136 5.149.284 5.816.456.667.172 2.259.935 2.415 1.136z" fill="#455A64"/>
        <path d="m41.414 84.219.142-.486s-1.794-1.933-2.318-2.17c-.524-.236-3.685.36-3.857.638-.173.278-.104 1.498-.061 1.713.043.215 2.87.696 3.337.717.466.022 2.757-.412 2.757-.412z" fill="#FFC727"/>
        <path d="m41.556 83.733-.142.486s1.198.897 1.243.956c.045.06-.029.312-.029.312h1.224v-1.754c-.18.1-.371.182-.569.242-.183.029-1.727-.242-1.727-.242z" fill="#FFC727"/>
        <path d="M84.74 84.567H61.361l-4.096-8.396h23.38l4.095 8.396z" fill="#A6A6A6"/>
        <path d="M83.91 83.96H61.6l-.024-.05-3.478-7.133h22.308l3.503 7.183zm-22.197-.179h21.91l-3.33-6.817h-21.91l3.33 6.817z" fill="#fff"/>
        <path d="m62.619 81.542-1.107-2.27c-.058-.116-.011-.21.107-.21h1.256a.405.405 0 0 1 .316.21c.057.12 0 .216-.108.216h-1.04l.344.703h.897a.406.406 0 0 1 .316.212c.057.12.009.215-.108.215h-.897l.45.924c.056.115 0 .212-.112.212a.391.391 0 0 1-.314-.212zM65.945 79.395c.363.248.66.583.863.974a1.135 1.135 0 0 1 .086.972.73.73 0 0 1-.718.413 2.092 2.092 0 0 1-1.143-.413 2.616 2.616 0 0 1-.855-.972c-.18-.38-.209-.718-.094-.974a.752.752 0 0 1 .741-.411 2.03 2.03 0 0 1 1.12.41zm.425.974c-.14-.269-.342-.5-.59-.673a1.344 1.344 0 0 0-.741-.274.49.49 0 0 0-.49.274.803.803 0 0 0 .066.673c.137.269.34.5.589.67.219.165.482.262.757.275a.483.483 0 0 0 .473-.276.8.8 0 0 0-.064-.67zM69.865 81.435c.091.11.087.231 0 .269a.304.304 0 0 1-.08.01.403.403 0 0 1-.179-.04.776.776 0 0 1-.188-.135 1.704 1.704 0 0 1-.305-.463.626.626 0 0 0-.298-.276 1.131 1.131 0 0 0-.26-.092H68.1l.407.834c.056.115 0 .212-.113.212a.391.391 0 0 1-.314-.212l-1.107-2.27c-.057-.12-.01-.21.108-.21h.689c.457 0 1.003.369 1.227.826a.606.606 0 0 1 0 .63c.073.04.141.089.204.143.138.115.25.256.33.415.035.08.077.156.126.228.08.021.153.067.207.13zm-1.294-1.547a.732.732 0 0 0-.592-.4h-.472l.384.793h.474c.222 0 .312-.178.208-.393h-.002zM71.386 81.085c.029-.085.149-.097.269-.027.266.166.567.268.879.296a.538.538 0 0 0 .41-.144.234.234 0 0 0 .031-.276.424.424 0 0 0-.095-.124.768.768 0 0 0-.18-.115 2.362 2.362 0 0 0-.615-.179 3.083 3.083 0 0 1-.568-.149 1.625 1.625 0 0 1-.504-.3c-.1-.088-.182-.196-.243-.315a.493.493 0 0 1 .035-.562.74.74 0 0 1 .565-.204c.348.027.686.133.988.308.118.061.206.18.18.273-.027.093-.122.118-.244.058a1.752 1.752 0 0 0-.74-.246.479.479 0 0 0-.358.13.207.207 0 0 0-.027.243.323.323 0 0 0 .079.108.745.745 0 0 0 .152.098c.178.087.368.147.563.18.209.033.413.087.61.161.198.073.38.181.539.32.104.091.19.202.253.326a.513.513 0 0 1-.042.595.775.775 0 0 1-.604.221 2.627 2.627 0 0 1-1.172-.386.295.295 0 0 1-.161-.29zM75.368 81.119h-.934l.055.5a.121.121 0 0 1-.034.1.12.12 0 0 1-.1.035.24.24 0 0 1-.08-.013.39.39 0 0 1-.261-.276l-.255-2.266a.119.119 0 0 1 .035-.102.12.12 0 0 1 .103-.032.377.377 0 0 1 .27.134l1.955 2.266c.093.111.098.235.009.276a.149.149 0 0 1-.068.013.372.372 0 0 1-.262-.135l-.433-.5zm-.358-.424-.718-.827.091.828h.627zM76.682 81.542l-1.107-2.27c-.058-.116-.011-.21.107-.21a.399.399 0 0 1 .32.21l1 2.055h1.043a.406.406 0 0 1 .318.215c.055.115 0 .212-.11.212h-1.256a.391.391 0 0 1-.315-.212zM78.852 81.542l-1.107-2.27c-.059-.12-.012-.21.108-.21h1.256a.398.398 0 0 1 .316.21c.057.12 0 .216-.108.216h-1.042l.342.703h.897a.408.408 0 0 1 .316.212c.057.12 0 .215-.108.215h-.897l.345.718h1.042a.405.405 0 0 1 .318.215c.055.115 0 .212-.11.212h-1.256a.39.39 0 0 1-.312-.22z" fill="#fff"/>
    </g>
    <path d="M115.441 12.043a.018.018 0 0 0-.013-.003 29.03 29.03 0 0 0-14.267 6.16 28.973 28.973 0 0 0-9.035 12.64 29.037 29.037 0 0 0-1.212 15.502 29.153 29.153 0 0 0 6.959 13.928" fill="#fff"/>
    <path d="M115.929 12.04c-.052 0-.06-.055-.009-.06l1.445-.141 1.054-.09c.39-.016.826.002 1.29.006l1.499.022c.569.026 1.136.08 1.7.165a27.431 27.431 0 0 1 8.485 2.32 29.124 29.124 0 0 1 9.461 6.74 28.506 28.506 0 0 1 6.842 12.268l.479 1.87.309 1.943.143.986c.038.327.036.66.055 1l.093 2.02a29.33 29.33 0 0 1-11.273 22.841 28.007 28.007 0 0 1-8.298 4.558l-1.133.409-1.179.304c-.784.221-1.582.394-2.387.518-.809.115-1.621.246-2.438.338-.817.092-1.641.109-2.472.102a29.205 29.205 0 0 1-13.458-3.259c-.014-.007-.008-.028.008-.027.016.001.019.023.003.028L97.646 69.8a.173.173 0 0 1-.136-.01.178.178 0 0 1-.065-.058c-.018-.027-.023-.047-.03-.079a.302.302 0 0 1-.006-.044l.292-9.31a.174.174 0 0 1 .165-.171c.011 0 .022.002.031.007.036.02.036.066.012.099l-.038.05a.168.168 0 0 1-.26.012 29.245 29.245 0 0 1-6.274-11.432 29.17 29.17 0 0 1-.911-11.386 29.092 29.092 0 0 1 3.531-10.852 29.98 29.98 0 0 1 5.67-7.183 28.598 28.598 0 0 1 11.228-6.427l1.937-.528 1.444-.247.88-.151c.029-.004.033.024.004.03l-.871.174-1.434.281-1.929.553a31.091 31.091 0 0 0-5.113 2.125 30.507 30.507 0 0 0-6.014 4.333 29.84 29.84 0 0 0-5.607 7.168 28.798 28.798 0 0 0-3.454 10.722 28.875 28.875 0 0 0 .92 11.237 28.73 28.73 0 0 0 6.355 11.447.176.176 0 0 1-.015.244.176.176 0 0 1-.209.02" fill="#15142B"/>
    <path d="M106.538 44.565a2.94 2.94 0 0 1 3.971-4.337l1.927 1.706a5.679 5.679 0 0 0 7.697-.154l9.71-9.32a2.779 2.779 0 1 1 3.826 4.032l-12.422 11.66a7.978 7.978 0 0 1-10.945-.023l-3.764-3.564z" fill="#FFC727"/>
    <defs>
        <clipPath id="hjwevwvr4a">
            <rect x=".438" y="34.696" width="134.548" height="89.699" rx="42.307" fill="#fff"/>
        </clipPath>
    </defs>
</svg>
