<svg xmlns="http://www.w3.org/2000/svg" width="182" height="182" viewBox="0 0 182 182">
    <defs>
        <filter id="Path_23210" width="42.975" height="38.336" x="45.346" y="112.859" filterUnits="userSpaceOnUse">
            <feOffset dy="3"/>
            <feGaussianBlur result="blur" stdDeviation="3"/>
            <feFlood flood-opacity=".161"/>
            <feComposite in2="blur" operator="in"/>
            <feComposite in="SourceGraphic"/>
        </filter>
        <filter id="Path_23212" width="66.775" height="74.729" x="12.517" y="79.97" filterUnits="userSpaceOnUse">
            <feOffset dy="3"/>
            <feGaussianBlur result="blur-2" stdDeviation="3"/>
            <feFlood flood-opacity=".161"/>
            <feComposite in2="blur-2" operator="in"/>
            <feComposite in="SourceGraphic"/>
        </filter>
        <style>
            .cls-4{fill-rule:evenodd}.cls-6{stroke:#000}.cls-7{fill:#ffd32e}
        </style>
    </defs>
    <g id="Group_9695" transform="translate(-97.357 -198)">
        <circle id="Ellipse_1285" cx="91" cy="91" r="91" fill="#fcf8c8" transform="translate(97.357 198)"/>
        <g id="Group_9692" transform="translate(163.999 223.187)">
            <path id="Path_22777" fill="#f8c81e" fill-rule="evenodd" stroke="#191405" stroke-miterlimit="10" stroke-width="2px" d="M411.895 104.334a34 34 0 0 0-17.751 29.806l.021 24.97A34.009 34.009 0 0 0 428.094 193a34.009 34.009 0 0 0 33.892-33.929l-.021-24.97a34.009 34.009 0 0 0-33.929-33.892 33.737 33.737 0 0 0-6.836.7" transform="translate(-391.757 -75.973)"/>
            <path id="Path_23643" fill-rule="evenodd" d="M.19 8.881C3.555 3.459 8.577.34 15.6 0c1.71.183 1.95 3.447-.224 3.9-4.763.956-9.7 3.444-14.349 5.964C-.018 10.253-.2 9.4.19 8.881z" opacity="0.1" transform="rotate(12.04 -219.184 253.26)"/>
            <path id="Path_23644" d="M0 7.737A20.226 20.226 0 0 1 13.875.006c1.129-.117 1.08 1.439.217 1.759A26.024 26.024 0 0 0 0 7.737z" class="cls-4" transform="rotate(12.04 -225.304 257.532)"/>
            <path id="Path_22778" d="M424.915 135.178c.195-5.573 5.826-5.577 6.027 0 1.408 16.1 25.828 17.662 28.59 2.539.512-2.8 1.214-7.762 4.686-8.307v-3.852c-6.023-.131-11.716-1.976-17.677-1.809-8 .231-10.722 3.771-18.614 4.336-7.891-.555-10.617-4.092-18.618-4.314-5.962-.162-11.652 1.69-17.675 1.827v3.852c3.473.542 4.181 5.5 4.694 8.3 2.781 15.12 27.2 13.534 28.588-2.571zm8.357-.124c-.179-4.006.432-5.66 4.313-6.971a30.4 30.4 0 0 1 8.975-1.96c8.609-.249 12.286 1.883 10.588 11.164-2.271 12.424-22.631 11.011-23.876-2.233zM422.589 135c-1.236 13.306-21.6 14.742-23.879 2.318-1.707-9.278 1.967-11.414 10.576-11.176a30.37 30.37 0 0 1 8.978 1.952c3.882 1.308 4.5 2.959 4.325 6.906z" class="cls-4" transform="translate(-391.631 -77.156)"/>
            <path id="Path_22780" d="M418.237 157.61a1.083 1.083 0 1 0 .406-2.127 4.854 4.854 0 0 0-5.1 2.338 1.083 1.083 0 0 0 1.876 1.085 2.693 2.693 0 0 1 .337-.466 14.492 14.492 0 0 0 26.562-.014 2.742 2.742 0 0 1 .338.464 1.083 1.083 0 0 0 1.874-1.085 4.851 4.851 0 0 0-5.1-2.333 1.082 1.082 0 1 0 .4 2.126 2.88 2.88 0 0 1 .51-.047 12.328 12.328 0 0 1-22.606.012 2.752 2.752 0 0 1 .506.048z" class="cls-4" transform="translate(-392.726 -78.746)"/>
            <path id="Path_22781" fill="#fff" fill-rule="evenodd" d="M412.049 128.56a7.019 7.019 0 1 0 7.024 7.016 7.019 7.019 0 0 0-7.024-7.016z" transform="translate(-392.305 -77.397)"/>
            <path id="Path_22783" d="M412.3 132.165a3.6 3.6 0 0 0-3.423 4.695 2.274 2.274 0 0 1 3.753 2.481 3.6 3.6 0 0 0 3.266-3.582 3.559 3.559 0 0 0-.27-1.364c-.045 0-.09.007-.139.008a1.22 1.22 0 0 1-1.219-1.22 1.181 1.181 0 0 1 .062-.389 3.578 3.578 0 0 0-2.03-.627z" class="cls-4" transform="translate(-392.489 -77.577)"/>
            <path id="Path_22779" d="M395.672 95.491a24.5 24.5 0 0 0 5.447 3.55c-6.409-5.19-5.6-8.889-3.388-18.872.148-.669.3-1.359.636-2.933l.533-2.546 1.23 2.31a1.511 1.511 0 0 1 .127.208c.537.765 3.3 3.921 13.267 5.031 5.99.667 11.245 1.275 15.073 1.794 3.995.533 6.611.979 7.156 1.351a52.672 52.672 0 0 1 4.553 4.371 4.054 4.054 0 0 0-.185-1.287 20.2 20.2 0 0 0-2.988-5.454l-1.16-1.67 2.1.34a16.618 16.618 0 0 1 7.562 2.873 13.266 13.266 0 0 1 3.963 4.894 22.365 22.365 0 0 1 1.345 3.264 23.8 23.8 0 0 0 .633-3.219l.259-2.086 1.449 1.627a28.926 28.926 0 0 1 4.574 6.544 16.327 16.327 0 0 1 1.646 7.651v.088c-.2 1.444 2.17 6.21 2.349 11.613.211 6.374-1.994 14.339-1.994 14.339l-7.1-15.277c0-.022-2.588-.7-3.212-1.892a16.912 16.912 0 0 0-3.978-4.413 7.625 7.625 0 0 0-3.9-1.753c-3.988-.312-9.627.321-13.723.79h-.024l-.194.029-.186-.059c-2.012-.552-4.4-1.2-6.765-1.758a46.011 46.011 0 0 0-6.692-1.161 7.634 7.634 0 0 0-4.125 1.124 16.526 16.526 0 0 0-4.616 3.74c-.8 1.078-9.674 10.914-9.674 10.914s1.906-3.34 1.355-4.239c-2.972-4.751-2.651-9.641-2.979-19.185l-.069-2.155z" transform="translate(-391.75 -74.69)"/>
        </g>
        <g id="Group_9694" transform="translate(119.401 261.124)">
            <path id="Path_23208" d="M4.162 33.449c.878-5.176-.713-11.258-3.188-17.666C-1.291 8.44.163 1.135 7.782.1c6.824-.862 12.408 3.879 13.27 12.064.774 5.163-.813 12.21-2.672 19.475z" class="cls-6" transform="rotate(3 4.97 189.797)"/>
            <path id="Path_23209" d="M4.219 31.33c.794-4.679-.979-11.211-3.216-17C-1.045 7.687-.313 1.026 6.575.091 12.743-.689 17.793 3.6 18.571 11c.7 4.667-.551 12.1-2.231 18.667z" class="cls-7" transform="rotate(3 -17.4 211.171)"/>
            <g filter="url(#Path_23210)" transform="translate(-22.04 -63.12)">
                <path id="Path_23210-2" d="M5.572 0c3.964 5.285 9.34 12.191 16.258 14.706A50.011 50.011 0 0 1 0 17.234z" class="cls-6" transform="rotate(3 -2262.569 1128.302)"/>
            </g>
            <path id="Path_23211" d="M4.523 0a41.408 41.408 0 0 0 12.926 12.581A45.253 45.253 0 0 1 0 14.3z" class="cls-7" transform="rotate(3 -1103.651 702.95)"/>
            <g filter="url(#Path_23212)" transform="translate(-22.04 -63.12)">
                <path id="Path_23212-2" d="M.022 26.511C-.4 11.046 5.346 1.861 18.492.2c8.457-1.028 15.062 1.938 20.264 7.928 2.955 3.64 3.2 7.235 1.652 10.8 5.265 3.386 6.893 11.833 0 17.693C41.2 42 39.7 45.772 36.157 48.11c-6.089 5.121-16.5 6.753-23.209 3.791C5.977 46.669 1.007 39.009.022 26.511z" class="cls-6" transform="rotate(3 -1639.04 517.546)"/>
            </g>
            <path id="Path_23213" d="M17.4.153c8.092-.84 14.544 1.791 19.474 7.64 2.359 3.36 2.732 6.286 1.436 8.846a55.143 55.143 0 0 0-28.669 1.322c11.359-1.906 20.917-2.021 28.078.244 5.37 3.641 5.9 13.054.258 16.157-5.6-2.8-13.3-2.475-21.93-.776 10.667-1.183 18.265-.7 21.241 2.284 2.343 4.79-.112 9.152-7.712 13.054-6.235 2.789-12.031 3.323-17.234.8C3.787 44.139-.865 32.926.134 19.023 1 8.913 8.159 1.218 17.4.153z" class="cls-7" transform="rotate(3 -463.843 87.085)"/>
        </g>
    </g>
</svg>
