<svg xmlns="http://www.w3.org/2000/svg" width="26" height="26" viewBox="0 0 26 26">
    <defs>
        <style>
            .cls-2{fill:#ffd32e}
        </style>
    </defs>
    <g id="Group_9697" transform="translate(-144.686 -478.686)">
        <circle id="Ellipse_1289" cx="13" cy="13" r="13" fill="#fcf8c8" transform="translate(144.686 478.686)"/>
        <g id="Group_9696" transform="rotate(-16 1796.96 -291.168)">
            <path id="Path_23645" d="M0 .145c1.6-.3 2.754-.2 3.007.946C3.318 2.81 1.8 3.64 0 4.233z" transform="translate(8.159 8.919)"/>
            <path id="Path_23646" d="M0 .127c1.6-.265 2.4-.173 2.616.828C2.886 2.46 1.8 3.186 0 3.705z" class="cls-2" transform="translate(8.159 9.125)"/>
            <path id="Path_23647" d="M5.105 14.148c-.235 1.313-.858 2.493-1.732 2.682s-1.964 0-2.931-1.736c-.971-2.106-.284-4.158 1.488-6.175a10.046 10.046 0 0 0 2.331-6.73C4.163.661 4.719-.163 6.22.027c2.707.19 1.952 3.127 1.047 6.182 2.585.855 3.463 3.209 1.525 4.769a2.673 2.673 0 0 1-.849 3.339c-.76.643-1.687.656-2.838-.169z"/>
            <path id="Path_23648" d="M4.146 2.983a10.568 10.568 0 0 1-2.523 6.194c-1.936 2.392-2.423 4.759-.171 6.756a1.419 1.419 0 0 0 2.089-.212 5.862 5.862 0 0 0 .926-2.136c.608-1.9 1.31-2.2 2.061-1.672-.88-.072-1.508.306-1.554 1.723a1.835 1.835 0 0 0 2.905-.152 2.817 2.817 0 0 0 .338-2.657 3.659 3.659 0 0 0-4.19-1.515 3.53 3.53 0 0 1 4.282 1.106c1.742-1.237.631-3.594-1.509-4.113a5.131 5.131 0 0 0-3.345.861A3.794 3.794 0 0 1 6.544 5.9a7.884 7.884 0 0 0 .912-3.361S7.727 0 5.716 0s-1.37 2.444-1.57 2.983z" class="cls-2" transform="translate(.352 .208)"/>
        </g>
    </g>
</svg>
