<svg width="46" height="46" viewBox="0 0 46 46" fill="none" xmlns="http://www.w3.org/2000/svg">
    <rect width="46" height="46" rx="23" fill="#15142B"/>
    <path d="M27.683 31.042a1.4 1.4 0 0 1-.178-1.963l1.58-1.896H13.938a1.4 1.4 0 0 1-1.393-1.394 1.4 1.4 0 0 1 1.394-1.394h18.12a1.393 1.393 0 0 1 1.071 2.287l-3.485 4.181a1.4 1.4 0 0 1-1.963.18zM32.06 21.607H13.94a1.394 1.394 0 0 1-1.071-2.286l3.485-4.182a1.394 1.394 0 1 1 2.14 1.785l-1.578 1.896H32.06a1.394 1.394 0 0 1 0 2.787z" fill="#fff"/>
</svg>
