<svg width="18" height="16" viewBox="0 0 18 16" fill="none" xmlns="http://www.w3.org/2000/svg">
    <path d="m12.195 2.332 2.988 4.011 1.626-1.478-2.758-3.782-1.856 1.249zM5.886 2.33l-3.28 4.22L.978 5.072l3.05-3.99L5.886 2.33z" fill="#28CBFF"/>
    <path d="m15.183 6.343-2.988-4.011h-2.42l-1.888.576-2.001-.578-3.28 4.22 1.62 2.307-.171.181a.899.899 0 0 0 0 1.223c.276.29.699.33 1.015.12l-.001.04a.9.9 0 0 0 0 1.223.788.788 0 0 0 1.153.004v.003a.9.9 0 0 0 0 1.223.788.788 0 0 0 1.158 0l.157-.166-.001.016a.899.899 0 0 0 0 1.222.788.788 0 0 0 1.157 0l.382-.403c.042-.044.095-.122.156-.226a.893.893 0 0 1-.156.226l-.002.002.312.265a.788.788 0 0 0 1.158 0 .899.899 0 0 0 0-1.222v-.001a.788.788 0 0 0 1.158 0 .899.899 0 0 0 0-1.223l.002-.001a.788.788 0 0 0 1.157 0 .9.9 0 0 0 0-1.223l.002-.001a.788.788 0 0 0 1.157 0 .899.899 0 0 0 0-1.223l1.164-2.573z" fill="#fff"/>
    <path fill-rule="evenodd" clip-rule="evenodd" d="M17.065 4.658 14.307.875a.312.312 0 0 0-.43-.08l-1.78 1.196H9.775c-.03 0-.06.007-.089.016l-1.8.547-1.868-.54L4.203.795a.311.311 0 0 0-.425.074l-3.05 3.99a.355.355 0 0 0 .04.472l1.6 1.453L3.8 8.825a1.256 1.256 0 0 0 .026 1.677c.193.204.44.32.692.347a1.233 1.233 0 0 0 .321 1.037c.216.227.503.353.808.353h.012v.024c0 .322.118.625.334.852a1.105 1.105 0 0 0 .985.339c.025.268.134.529.328.734.223.235.515.352.808.352.292 0 .584-.117.807-.352l.175-.185.073.063c.22.226.507.338.794.338.292 0 .585-.117.807-.352.227-.24.338-.557.334-.872.298.005.598-.112.825-.352a1.24 1.24 0 0 0 .334-.87c.31.004.605-.122.825-.354.227-.24.338-.556.334-.871.298.005.598-.113.825-.353.388-.409.437-1.042.15-1.509l1.047-2.316 1.575-1.43a.355.355 0 0 0 .045-.467zM4.099 1.534l1.306.877-2.84 3.653L1.427 5.03 4.1 1.534zm.578 7.33-.394.416a.545.545 0 0 0 0 .74.478.478 0 0 0 .701 0l.382-.404a.558.558 0 0 0 .022-.742.481.481 0 0 0-.396-.162h-.008a.48.48 0 0 0-.307.152zm.62 2.539a.535.535 0 0 1-.145-.37c0-.14.051-.271.145-.37l.764-.807a.481.481 0 0 1 .563-.102.529.529 0 0 1 .273.54.565.565 0 0 1-.147.315l-.752.794a.48.48 0 0 1-.701 0zm1.008.86c0 .14.052.27.145.37a.48.48 0 0 0 .701 0l.752-.794a.565.565 0 0 0 .147-.307.531.531 0 0 0-.237-.529.481.481 0 0 0-.599.083l-.764.807a.535.535 0 0 0-.145.37zm1.459 1.442a.545.545 0 0 1 0-.74l.394-.416a.521.521 0 0 1 .037-.035l.001-.001a.482.482 0 0 1 .22-.108h.005a.422.422 0 0 1 .042-.007H8.485c.01-.002.02-.002.03-.002a.48.48 0 0 1 .386.204.563.563 0 0 1-.056.704l-.38.402a.478.478 0 0 1-.701 0zm5.326-3.807a.478.478 0 0 0 .701 0 .545.545 0 0 0 0-.74L9.95 5.1l-1.443-.108-.808 1.506c-.15.28-.395.482-.689.568a1.077 1.077 0 0 1-.813-.083l-.004-.002a1.19 1.19 0 0 1-.588-.756 1.257 1.257 0 0 1 .107-.915l1.244-2.318-.952-.275-2.988 3.844 1.249 1.777a1.099 1.099 0 0 1 1.51-.017c.204.187.34.448.378.73a1.103 1.103 0 0 1 1.089.347c.204.228.312.54.305.853h.034c.311.004.6.138.814.377.26.29.36.71.277 1.098.172.025.337.093.48.196.265.192.44.495.483.83a1.296 1.296 0 0 1-.073.62c-.005.014-.012.027-.018.04a.43.43 0 0 0-.019.04c-.01.027-.005.039.016.056l.02.016a.457.457 0 0 1 .054.045.478.478 0 0 0 .7 0 .545.545 0 0 0 0-.74.305.305 0 0 1-.023-.027l-.745-.795a.355.355 0 0 1 .003-.482.311.311 0 0 1 .457.002l.766.819a.478.478 0 0 0 .701 0 .545.545 0 0 0 0-.74.319.319 0 0 1-.022-.027l-1.384-1.476a.355.355 0 0 1 .003-.482.311.311 0 0 1 .457.002l1.404 1.499a.479.479 0 0 0 .701 0 .545.545 0 0 0 0-.74v-.001l-2.1-2.24a.355.355 0 0 1 .002-.483.311.311 0 0 1 .457.002l2.077 2.217a.28.28 0 0 1 .022.02zm.835-1.564L10.32 4.528a.314.314 0 0 0-.206-.099l-1.766-.132a.324.324 0 0 0-.304.172l-.909 1.693a.498.498 0 0 1-.299.246.47.47 0 0 1-.376-.049.517.517 0 0 1-.233-.316.545.545 0 0 1 .046-.397l1.213-2.26.492-.15.01-.003 1.834-.56h2.216l2.767 3.715-.88 1.946zm-1.256-5.919 2.559 3.437 1.138-1.034-2.391-3.28-1.306.877z" fill="#15142B"/>
</svg>
