<svg xmlns="http://www.w3.org/2000/svg" viewBox="0 0 16.723 14.089"><defs/><g data-name="Group 11794"><path fill="#fff" stroke="#fff" stroke-width=".7" d="M.686 4.35h14.548l-2.768 2.773a.33410814.33410814 0 00.472.473l3.338-3.338c.009-.009.013-.021.021-.031a.323.323 0 00.055-.077.318.318 0 00.018-.089.249.249 0 00.008-.039.323.323 0 00-.026-.089.369.369 0 000-.037.322.322 0 00-.077-.113L12.937.45a.334.334 0 10-.472.472l2.767 2.767H.686a.334.334 0 100 .661zM16.04 9.691H1.491l2.768-2.763a.334.334 0 10-.472-.472L.452 9.794s0 .007-.007.009a.325.325 0 00-.065.354.338.338 0 00.039.058.3.3 0 00.033.049l3.338 3.338a.33410814.33410814 0 00.472-.473l-2.771-2.767H16.04a.334.334 0 000-.667z" data-name="Path 37511"/></g></svg>
