<svg height="512pt" viewBox="0 -22 512 512" width="512pt" xmlns="http://www.w3.org/2000/svg"><path d="m512 149.882812-31.761719-110.5625-.089843-.304687c-6.785157-21.878906-30.421876-39.015625-53.8125-39.015625h-220.671876c-23.390624 0-47.027343 17.136719-53.8125 39.015625l-6.207031 20.984375c-23.382812.007812-47.007812 17.144531-53.792969 39.015625l-6.207031 20.984375c-23.382812.007812-47.007812 17.144531-53.792969 39.015625l-31.851562 110.871094v197.113281h90v-60h212v60h90v-60h60v-60h60zm-416.269531 197.117188 15 30h-80.730469v-30zm33.539062 0h133.460938l-15 30h-103.460938zm167 0h65.730469v30h-80.730469zm-266.269531-30v-30h332v30zm362-30h30v30h-30zm-3.699219-30-8.621093-30h42.320312v30zm63.699219-30h30v30h-30zm-3.699219-30-8.621093-30h42.320312v30zm-242.636719-167h220.671876c10.03125 0 22.195312 8.625 25.121093 17.78125l25.628907 89.21875h-46.023438l-10.824219-37.679688-.089843-.304687c-6.785157-21.878906-30.421876-39.015625-53.8125-39.015625h-189.40625l3.597656-12.171875c2.898437-9.175781 15.085937-17.828125 25.136718-17.828125zm-60 60h220.671876c10.03125 0 22.191406 8.621094 25.117187 17.777344l25.632813 89.222656h-46.023438l-10.824219-37.679688-.089843-.304687c-6.785157-21.878906-30.425782-39.015625-53.8125-39.015625h-189.40625l3.601562-12.179688c2.902344-9.171874 15.085938-17.820312 25.132812-17.820312zm-85.117187 77.78125c2.921875-9.160156 15.085937-17.78125 25.117187-17.78125h220.671876c10.03125 0 22.195312 8.621094 25.117187 17.777344l25.632813 89.222656h-322.171876zm-.546875 269.21875h-30v-30h30zm302 0h-30v-30h30zm60-60h-30v-30h30zm30-60v-30h30v30zm0 0"/></svg>