<?xml version="1.0" encoding="UTF-8"?>
<svg width="42px" height="37px" viewBox="0 0 42 37" version="1.1" xmlns="http://www.w3.org/2000/svg" xmlns:xlink="http://www.w3.org/1999/xlink">
    <title>993ADE5F-F82A-422E-A707-B04CAD4100E3</title>
    <g id="Sell-car" stroke="none" stroke-width="1" fill="none" fill-rule="evenodd">
        <g id="Sell-car-/-Photos" transform="translate(-700.000000, -540.000000)" fill-rule="nonzero">
            <g id="Content" transform="translate(390.000000, 312.000000)">
                <g transform="translate(179.000000, 65.000000)" id="Drag-and-drop">
                    <g transform="translate(1.000000, 142.000000)">
                        <g id="Content" transform="translate(88.000000, 21.000000)">
                            <g id="Icon" transform="translate(42.000000, 0.000000)">
                                <path d="M12.6328125,31.5410156 C13.015625,31.5410156 13.3300781,31.4111328 13.5761719,31.1513672 C13.8222656,30.8916016 13.9453125,30.5839844 13.9453125,30.2285156 C13.9453125,29.8730469 13.8222656,29.5654297 13.5761719,29.3056641 C13.3300781,29.0458984 13.015625,28.9160156 12.6328125,28.9160156 L8.859375,28.9160156 C7.1640625,28.9160156 5.69433594,28.2324219 4.45019531,26.8652344 C3.20605469,25.4980469 2.58398438,23.8847656 2.58398438,22.0253906 C2.58398438,20.3847656 3.08984375,18.9082031 4.1015625,17.5957031 C5.11328125,16.2832031 6.34375,15.5039062 7.79296875,15.2578125 L8.98242188,15.0527344 L8.90039062,13.8222656 L8.859375,13.8222656 C8.859375,12.2363281 9.11230469,10.7529297 9.61816406,9.37207031 C10.1240234,7.99121094 10.8486328,6.80175781 11.7919922,5.80371094 C12.7353516,4.80566406 13.8632812,4.02636719 15.1757812,3.46582031 C16.4882812,2.90527344 17.9648438,2.625 19.6054688,2.625 C22.203125,2.625 24.2607422,3.23339844 25.7783203,4.45019531 C27.2958984,5.66699219 28.3964844,7.36914062 29.0800781,9.55664062 L29.3671875,10.4589844 L30.3105469,10.5 C31.5410156,10.5 32.703125,10.7392578 33.796875,11.2177734 C34.890625,11.6962891 35.8613281,12.3388672 36.7089844,13.1455078 C37.5566406,13.9521484 38.2265625,14.8955078 38.71875,15.9755859 C39.2109375,17.0556641 39.4570312,18.2109375 39.4570312,19.4414062 C39.4570312,20.5625 39.2792969,21.6835938 38.9238281,22.8046875 C38.5683594,23.9257812 38.0625,24.9375 37.40625,25.8398438 C36.75,26.7421875 35.9638672,27.4804688 35.0478516,28.0546875 C34.1318359,28.6289062 33.1132812,28.9160156 31.9921875,28.9160156 L28.9980469,28.9160156 C28.6425781,28.9160156 28.3349609,29.0458984 28.0751953,29.3056641 C27.8154297,29.5654297 27.6855469,29.8730469 27.6855469,30.2285156 C27.6855469,30.5839844 27.8154297,30.8916016 28.0751953,31.1513672 C28.3349609,31.4111328 28.6425781,31.5410156 28.9980469,31.5410156 L31.9921875,31.5410156 C33.6328125,31.4863281 35.0751953,31.0898438 36.3193359,30.3515625 C37.5634766,29.6132812 38.6025391,28.6767578 39.4365234,27.5419922 C40.2705078,26.4072266 40.90625,25.1289062 41.34375,23.7070312 C41.78125,22.2851562 42,20.8632812 42,19.4414062 C42,17.9375 41.7197266,16.5224609 41.1591797,15.1962891 C40.5986328,13.8701172 39.8330078,12.6943359 38.8623047,11.6689453 C37.8916016,10.6435547 36.7568359,9.80273438 35.4580078,9.14648438 C34.1591797,8.49023438 32.7714844,8.08007812 31.2949219,7.91601562 C30.8300781,6.71289062 30.2421875,5.61914062 29.53125,4.63476562 C28.8203125,3.65039062 27.9726562,2.81640625 26.9882812,2.1328125 C26.0039062,1.44921875 24.8964844,0.922851562 23.6660156,0.553710938 C22.4355469,0.184570312 21.0820312,0 19.6054688,0 C17.6914062,0 15.9482422,0.328125 14.3759766,0.984375 C12.8037109,1.640625 11.4365234,2.54980469 10.2744141,3.71191406 C9.11230469,4.87402344 8.18261719,6.24121094 7.48535156,7.81347656 C6.78808594,9.38574219 6.38476562,11.0878906 6.27539062,12.9199219 C4.44335938,13.4941406 2.93945312,14.6289062 1.76367188,16.3242188 C0.587890625,18.0195312 0,19.9199219 0,22.0253906 C0,23.3105469 0.239257812,24.5273438 0.717773438,25.6757812 C1.19628906,26.8242188 1.83886719,27.8359375 2.64550781,28.7109375 C3.45214844,29.5859375 4.38867188,30.2763672 5.45507812,30.7822266 C6.52148438,31.2880859 7.65625,31.5410156 8.859375,31.5410156 L12.6328125,31.5410156 Z" id="Path" fill="#EEEEEE"></path>
                                <path d="M21,36.5039062 C21.3554688,36.5039062 21.6630859,36.3808594 21.9228516,36.1347656 C22.1826172,35.8886719 22.3125,35.5742188 22.3125,35.1914062 L22.3125,21.984375 L25.1835938,25.1835938 C25.375,25.375 25.6005859,25.4912109 25.8603516,25.5322266 C26.1201172,25.5732422 26.3320312,25.4980469 26.4960938,25.3066406 L26.8242188,25.1015625 C27.015625,24.8828125 27.1113281,24.6435547 27.1113281,24.3837891 C27.1113281,24.1240234 27.015625,23.8984375 26.8242188,23.7070312 L21.984375,18.375 L21.984375,18.3339844 L21.65625,18.0058594 C21.546875,17.8964844 21.4375,17.8212891 21.328125,17.7802734 C21.21875,17.7392578 21.0957031,17.71875 20.9589844,17.71875 C20.8496094,17.71875 20.7333984,17.7392578 20.6103516,17.7802734 C20.4873047,17.8212891 20.3847656,17.8964844 20.3027344,18.0058594 L19.9746094,18.3339844 L19.9746094,18.375 L15.2167969,23.625 C15.0253906,23.8164062 14.9296875,24.0419922 14.9296875,24.3017578 C14.9296875,24.5615234 15.0253906,24.8007812 15.2167969,25.0195312 L15.5449219,25.2246094 C15.7363281,25.4160156 15.9619141,25.4912109 16.2216797,25.4501953 C16.4814453,25.4091797 16.7070312,25.2929688 16.8984375,25.1015625 L19.6875,21.984375 L19.6875,35.1914062 C19.6875,35.5742188 19.8105469,35.8886719 20.0566406,36.1347656 C20.3027344,36.3808594 20.6171875,36.5039062 21,36.5039062 Z" id="Path" fill="#0286A4"></path>
                            </g>
                        </g>
                    </g>
                </g>
            </g>
        </g>
    </g>
</svg>