<svg width="41" height="41" viewBox="0 0 41 41" fill="none" xmlns="http://www.w3.org/2000/svg">
<path d="M20.6562 1.00012C10.0328 1.00012 1.4375 9.597 1.4375 20.2189C1.4375 30.8232 10.0184 39.4376 20.6562 39.4376C31.3419 39.4376 39.875 30.7722 39.875 20.2189C39.875 9.59543 31.2781 1.00012 20.6562 1.00012Z" fill="#F2F6F7"/>
<path d="M32.3217 35.4978V35.4986C29.088 37.9704 25.045 39.4376 20.6561 39.4376C16.2678 39.4376 12.2248 37.9704 8.99121 35.4986C9.55762 29.5548 14.5638 24.9064 20.6561 24.9064C26.7482 24.9064 31.7536 29.554 32.3217 35.4978Z" fill="white"/>
<path d="M20.6562 9.28137C24.1023 9.28137 26.9062 12.0853 26.9062 15.5314C26.9062 18.9775 24.1023 21.7814 20.6562 21.7814C17.2102 21.7814 14.4062 18.9775 14.4062 15.5314C14.4062 12.0853 17.2102 9.28137 20.6562 9.28137Z" fill="white"/>
<path d="M20.6562 21.7814C17.2102 21.7814 14.4062 18.9775 14.4062 15.5314C14.4062 12.0853 17.2102 9.28137 20.6562 9.28137C24.1023 9.28137 26.9062 12.0853 26.9062 15.5314C26.9062 18.9775 24.1023 21.7814 20.6562 21.7814Z" stroke="#15142B" stroke-width="2" stroke-miterlimit="10" stroke-linecap="round" stroke-linejoin="round"/>
<path d="M8.98828 35.5291C8.98906 35.5189 8.98984 35.5087 8.99141 35.4986C9.55781 29.5548 14.564 24.9064 20.6562 24.9064C26.7484 24.9064 31.7538 29.5541 32.3219 35.4978" stroke="#15142B" stroke-width="2" stroke-miterlimit="10" stroke-linecap="round" stroke-linejoin="round"/>
<path d="M36.0625 7.40637C36.0625 7.97594 35.6007 8.43762 35.0312 8.43762C34.4618 8.43762 34 7.97594 34 7.40637C34 6.8368 34.4618 6.37512 35.0312 6.37512C35.6007 6.37512 36.0625 6.8368 36.0625 7.40637Z" fill="#15142B" stroke="#15142B" stroke-width="0.5"/>
<path d="M37.0954 10.2506C38.8595 13.156 39.875 16.5676 39.875 20.2188C39.875 26.4523 36.9148 31.9883 32.3219 35.4977V35.4984C29.0883 37.9703 25.0453 39.4375 20.6562 39.4375C16.268 39.4375 12.225 37.9703 8.99148 35.4984C4.39844 31.9891 1.4375 26.4531 1.4375 20.2188C1.4375 9.59687 10.0328 1 20.6562 1C25.0993 1 29.188 2.50391 32.4415 5.03109" stroke="#15142B" stroke-width="2" stroke-miterlimit="10" stroke-linecap="round" stroke-linejoin="round"/>
</svg>
