<?xml version="1.0" encoding="utf-8"?>
<!-- Generator: Adobe Illustrator 24.2.1, SVG Export Plug-In . SVG Version: 6.00 Build 0)  -->
<svg version="1.1" id="Layer_1" xmlns="http://www.w3.org/2000/svg" xmlns:xlink="http://www.w3.org/1999/xlink" x="0px" y="0px"
	 viewBox="0 0 160 125" style="enable-background:new 0 0 160 125;" xml:space="preserve">
<style type="text/css">
	.st0{fill:#D4D4D4;}
	.st1{clip-path:url(#SVGID_2_);}
	.st2{fill:none;stroke:#1D1D1B;stroke-width:2.428;}
	.st3{clip-path:url(#SVGID_4_);fill:#7AC6BA;}
	.st4{clip-path:url(#SVGID_4_);fill:none;stroke:#1D1D1B;stroke-width:3.238;}
	.st5{fill:#FFFFFF;}
</style>
<rect x="3.59" y="25.01" class="st0" width="57.32" height="96.53"/>
<g>
	<defs>
		<rect id="SVGID_1_" x="0.26" y="0.49" width="159.2" height="124.13"/>
	</defs>
	<clipPath id="SVGID_2_">
		<use xlink:href="#SVGID_1_"  style="overflow:visible;"/>
	</clipPath>
	<path class="st1" d="M120.6,49.38v67.46c0,1.64-1.33,2.97-2.97,2.97H8.04c-1.64,0-2.97-1.33-2.97-2.97V49.38H120.6z M8.04,124.62
		h109.59c4.29,0,7.78-3.49,7.78-7.78V46.97c0-1.33-1.08-2.41-2.41-2.41H2.67c-1.33,0-2.41,1.08-2.41,2.41v69.87
		C0.26,121.13,3.75,124.62,8.04,124.62"/>
	<path class="st1" d="M120.6,44.56H5.07V29.26c0-1.64,1.33-2.97,2.97-2.97h109.59c1.64,0,2.97,1.33,2.97,2.97V44.56z M2.67,49.38
		h120.34c1.33,0,2.41-1.08,2.41-2.41V29.26c0-4.29-3.49-7.78-7.78-7.78H8.04c-4.29,0-7.78,3.49-7.78,7.78v17.71
		C0.26,48.3,1.34,49.38,2.67,49.38"/>
	<path class="st1" d="M37.08,35.43c0,1.73,1.4,3.12,3.12,3.12c1.72,0,3.12-1.4,3.12-3.12c0-1.72-1.4-3.12-3.12-3.12
		C38.48,32.3,37.08,33.7,37.08,35.43"/>
	<path class="st1" d="M25.63,35.43c0,1.73,1.4,3.12,3.12,3.12c1.72,0,3.12-1.4,3.12-3.12c0-1.72-1.4-3.12-3.12-3.12
		C27.03,32.3,25.63,33.7,25.63,35.43"/>
	<path class="st1" d="M14.18,35.43c0,1.73,1.4,3.12,3.12,3.12c1.72,0,3.12-1.4,3.12-3.12c0-1.72-1.4-3.12-3.12-3.12
		C15.58,32.3,14.18,33.7,14.18,35.43"/>
</g>
<line class="st2" x1="15.08" y1="69.97" x2="105.74" y2="69.97"/>
<line class="st2" x1="15.08" y1="87.45" x2="105.74" y2="87.45"/>
<line class="st2" x1="15.08" y1="104.04" x2="105.74" y2="104.04"/>
<g>
	<defs>
		<rect id="SVGID_3_" x="0.26" y="0.49" width="159.2" height="124.13"/>
	</defs>
	<clipPath id="SVGID_4_">
		<use xlink:href="#SVGID_3_"  style="overflow:visible;"/>
	</clipPath>
	<path class="st3" d="M120.69,76.4c20.51,0,37.15-16.63,37.15-37.14S141.21,2.11,120.69,2.11S83.55,18.74,83.55,39.26
		S100.18,76.4,120.69,76.4"/>
	<circle class="st4" cx="120.69" cy="39.26" r="37.15"/>
</g>
<polygon class="st5" points="146.15,21.08 112.32,64.98 95.23,42.19 101.21,36.21 112.41,51.13 140.18,15.11 "/>
</svg>
