<?xml version="1.0" encoding="utf-8"?>
<!-- Generator: Adobe Illustrator 24.2.1, SVG Export Plug-In . SVG Version: 6.00 Build 0)  -->
<svg version="1.1" id="Layer_1" xmlns="http://www.w3.org/2000/svg" xmlns:xlink="http://www.w3.org/1999/xlink" x="0px" y="0px"
	 viewBox="0 0 233.86 97.97" style="enable-background:new 0 0 233.86 97.97;" xml:space="preserve">
<style type="text/css">
	.st0{clip-path:url(#SVGID_2_);fill:#7AC6BA;}
	.st1{clip-path:url(#SVGID_2_);fill:#1D1D1B;}
</style>
<g>
	<defs>
		<rect id="SVGID_1_" x="2.53" y="2.07" width="228.99" height="93.24"/>
	</defs>
	<clipPath id="SVGID_2_">
		<use xlink:href="#SVGID_1_"  style="overflow:visible;"/>
	</clipPath>
	<path class="st0" d="M211.37,57.76c-1.43,0.7-2.6,1.55-3.52,2.57c-0.92,1.01-1.71,1.99-2.35,2.92h-0.24l-1.08-5.83h-7.65
		l2.59,12.93l-2.77,24.97H204l2.23-19.71c0.44-3.84,1.39-6.76,2.83-8.75c1.45-1.99,3.51-2.98,6.2-2.98c2.29,0,3.99,0.69,5.12,2.06
		c1.12,1.37,1.69,3.31,1.69,5.8v16.61h-10.24v6.97h17.88V70.84c0-4.22-1.15-7.64-3.46-10.24c-2.31-2.6-5.47-3.9-9.48-3.9
		C214.6,56.71,212.8,57.06,211.37,57.76 M165.52,95.31V84.53c0-4.73,1-8.03,3.01-9.89l13.49,20.66h8.91l-8.67-12.55
		c2.33-1.22,4.1-3.23,5.3-6.02c1.2-2.79,1.81-6.02,1.81-9.7v-9.63h-7.65v10.01c0,2.41-0.24,4.46-0.72,6.15
		c-0.48,1.69-1.27,2.98-2.35,3.87L165.7,57.41h-8.85l8.07,11.79c-2.33,1.31-4.08,3.34-5.27,6.08c-1.18,2.75-1.78,5.96-1.78,9.63
		v10.4H165.52z M149.27,57.41h-7.65v37.9h7.65V57.41z M113.71,57.76c-1.42,0.7-2.6,1.55-3.52,2.57c-0.92,1.01-1.71,1.99-2.35,2.92
		h-0.24l-1.08-5.83h-7.65l2.59,12.93l-2.77,24.97h7.65l2.23-19.71c0.44-3.84,1.38-6.76,2.83-8.75s3.51-2.98,6.2-2.98
		c2.29,0,3.99,0.69,5.12,2.06c1.12,1.37,1.69,3.31,1.69,5.8v16.61h-10.24v6.97h17.88V70.84c0-4.22-1.15-7.64-3.46-10.24
		c-2.31-2.6-5.47-3.9-9.48-3.9C116.93,56.71,115.14,57.06,113.71,57.76 M60.09,95.31c3.25,0,5.63-0.95,7.13-2.85
		c1.51-1.9,2.26-4.78,2.26-8.62V64.38h8.19c2.01,0,3.49,0.51,4.46,1.52c0.96,1.01,1.44,2.83,1.44,5.45v23.96h7.65v-25.1
		c0-4.39-1.09-7.63-3.28-9.7c-2.19-2.07-5.49-3.1-9.9-3.1H56v6.97h5.84V84.6c0,2.49-0.84,3.74-2.53,3.74h-3.55v6.97H60.09z
		 M46,81.81l3.79-6.85V57.41h-7.65v24.4H46z M10.18,64.38h11.26c1.97,0,3.44,0.52,4.43,1.55c0.98,1.03,1.47,2.84,1.47,5.42v16.99
		H10.18V64.38z M34.98,95.31v-25.1c0-4.39-1.09-7.63-3.28-9.7c-2.19-2.07-5.49-3.1-9.9-3.1H2.53v37.9H34.98z"/>
	<path class="st1" d="M214.29,40.61c3.57,0,6.64-0.77,9.21-2.31c2.57-1.54,4.55-3.72,5.93-6.53c1.39-2.81,2.08-6.14,2.08-9.98
		c0-3.93-0.71-7.32-2.14-10.17c-1.43-2.85-3.49-5.05-6.2-6.59c-2.71-1.54-5.97-2.31-9.79-2.31H199v10.84c0,4.06,0.97,7.24,2.92,9.54
		c1.95,2.3,4.81,3.45,8.58,3.45c0.4,0,0.86-0.02,1.38-0.06c0.52-0.04,1-0.08,1.45-0.13v-6.97c-0.28,0.04-0.58,0.07-0.9,0.09
		c-0.32,0.02-0.64,0.03-0.96,0.03c-1.49,0-2.66-0.44-3.52-1.33c-0.86-0.89-1.29-2.6-1.29-5.13V9.68h6.14c7.26,0,10.9,4.1,10.9,12.3
		c0,7.78-3.13,11.66-9.39,11.66H199v6.97H214.29z M191.54,40.61v-25.1c0-4.39-1.09-7.63-3.28-9.7c-2.19-2.07-5.49-3.11-9.91-3.11
		h-15.96v6.97h15.6c1.97,0,3.44,0.51,4.43,1.52c0.98,1.01,1.48,2.83,1.48,5.45v23.96H191.54z M151.85,39.25
		c2.65-1.42,4.68-3.65,6.08-6.72c1.4-3.06,2.11-7.05,2.11-11.95c0-2.28-0.13-4.52-0.39-6.72c-0.26-2.2-0.8-4.18-1.63-5.96
		c-0.82-1.77-2.05-3.19-3.67-4.25c-1.63-1.06-3.78-1.58-6.47-1.58c-1.77,0-3.38,0.21-4.85,0.63c-1.47,0.42-2.66,0.8-3.58,1.14v7.04
		c1.12-0.55,2.29-0.98,3.49-1.3c1.2-0.32,2.43-0.48,3.67-0.48c2.13,0,3.57,1.05,4.33,3.14c0.76,2.09,1.14,5,1.14,8.72
		c0,4.44-0.72,7.84-2.17,10.2c-1.44,2.37-3.95,3.55-7.53,3.55c-3.37,0-5.88-1.17-7.53-3.52c-1.65-2.35-2.47-5.76-2.47-10.24V2.71
		h-7.65v18.25c0,7.01,1.51,12.17,4.52,15.46c3.01,3.3,7.37,4.94,13.07,4.94C146.03,41.37,149.21,40.66,151.85,39.25 M112.6,27.11
		l3.79-6.85V2.71h-7.65v24.4H112.6z M76.77,9.68h11.26c1.97,0,3.44,0.52,4.43,1.55c0.98,1.04,1.47,2.84,1.47,5.42v16.99H76.77V9.68z
		 M101.58,40.61v-25.1c0-4.39-1.09-7.63-3.28-9.7c-2.19-2.07-5.49-3.11-9.9-3.11H69.12v37.9H101.58z"/>
</g>
</svg>
