<svg width="16" height="16" viewBox="0 0 16 16" fill="none" xmlns="http://www.w3.org/2000/svg">
    <g clip-path="url(#wxhx3g8w5a)">
        <path d="m12.5 1.886-2-1-4.083-.5-2.5 1.285L2.25 3.814l-1.25 3v3l.833 2.143L3.917 14.1l2.5 1.286h2.5l2.916-.857 2.667-2.643 1.083-2.929-.083-2.571-.75-2.572-2.25-1.928z" fill="#28CBFF"/>
        <path d="M8 0C3.578 0 0 3.578 0 8c0 4.421 3.578 8 8 8 4.422 0 8-3.578 8-8 0-4.422-3.578-8-8-8zm0 14.884A6.892 6.892 0 0 1 1.116 8 6.892 6.892 0 0 1 8 1.116 6.891 6.891 0 0 1 14.884 8 6.891 6.891 0 0 1 8 14.884z" fill="#15142B"/>
        <path d="M8 6.669c-.474 0-.81.2-.81.495v4.012c0 .252.336.505.81.505.453 0 .822-.252.822-.505V7.164c0-.295-.369-.495-.822-.495zM8 4.194c-.484 0-.863.348-.863.748S7.516 5.7 8 5.7c.474 0 .853-.358.853-.758S8.474 4.194 8 4.194z" fill="#15142B"/>
    </g>
    <defs>
        <clipPath id="wxhx3g8w5a">
            <path fill="#fff" d="M0 0h16v16H0z"/>
        </clipPath>
    </defs>
</svg>
