<svg xmlns="http://www.w3.org/2000/svg" width="14.86" height="14.86" viewBox="0 0 14.86 14.86">
    <defs>
        <style>
            .cls-1{fill:#21283a}
        </style>
    </defs>
    <g id="whatsapp">
        <path id="Path_19223" d="M13.116 11.278l-.006.046c-1.362-.679-1.5-.769-1.68-.505-.122.183-.477.6-.584.719s-.216.13-.4.046a5.025 5.025 0 0 1-1.488-.919A5.617 5.617 0 0 1 7.93 9.384c-.181-.313.2-.358.544-1.012a.34.34 0 0 0-.015-.324c-.046-.093-.416-1-.571-1.366s-.3-.316-.416-.316a.922.922 0 0 0-.847.213c-1 1.1-.747 2.231.108 3.436a7.317 7.317 0 0 0 4.213 3.166 2.562 2.562 0 0 0 1.164.075 1.905 1.905 0 0 0 1.248-.883 1.533 1.533 0 0 0 .111-.882c-.046-.083-.169-.13-.353-.213z" class="cls-1" transform="translate(-2.276 -2.419)"/>
        <path id="Path_19224" d="M12.705 2.135A7.432 7.432 0 0 0 .063 7.364a7.328 7.328 0 0 0 .988 3.681L0 14.86l3.922-1.023a7.412 7.412 0 0 0 10.938-6.47A7.3 7.3 0 0 0 12.7 2.16zm.918 5.212a6.165 6.165 0 0 1-9.295 5.265l-.223-.133-2.322.6.622-2.257-.148-.232a6.141 6.141 0 0 1 9.564-7.576 6.06 6.06 0 0 1 1.8 4.328z" class="cls-1"/>
    </g>
</svg>
