<svg xmlns="http://www.w3.org/2000/svg" height="594pt" version="1.1" viewBox="0 -7 594.46281 594" width="594pt">
<g id="surface1">
<path d="M 272.410156 174.902344 C 262.429688 130.5625 218.390625 102.71875 174.050781 112.699219 C 129.714844 122.679688 101.871094 166.71875 111.851562 211.054688 C 121.832031 255.394531 165.871094 283.238281 210.207031 273.257812 C 210.277344 273.246094 210.34375 273.222656 210.402344 273.210938 C 254.476562 263.496094 282.332031 219.894531 272.617188 175.820312 C 272.546875 175.511719 272.476562 175.199219 272.410156 174.902344 Z M 191.730469 252.234375 C 159.082031 252.410156 132.46875 226.074219 132.296875 193.421875 C 132.144531 165.554688 151.484375 141.363281 178.707031 135.371094 C 183.019531 134.390625 187.421875 133.882812 191.847656 133.871094 C 224.488281 134.726562 250.257812 161.878906 249.402344 194.53125 C 248.710938 220.992188 230.527344 243.753906 204.871094 250.277344 C 200.710938 251.234375 196.457031 251.730469 192.191406 251.773438 Z M 191.730469 252.234375 " style=" stroke:none;fill-rule:nonzero;fill:rgb(0%,0%,0%);fill-opacity:1;" />
<path d="M 570.109375 67.714844 C 566.257812 67.554688 562.582031 69.328125 560.3125 72.441406 L 522.625 123.496094 C 513.738281 135.058594 497.316406 137.546875 485.398438 129.144531 C 473.539062 120.386719 471.011719 103.675781 479.75 91.804688 L 515.246094 43.628906 C 519.191406 38.625 518.335938 31.386719 513.335938 27.445312 C 511.71875 26.179688 509.796875 25.359375 507.753906 25.070312 C 452.503906 16.703125 400.925781 54.714844 392.558594 109.980469 C 390.761719 121.863281 391.097656 133.976562 393.539062 145.742188 L 379.941406 159.34375 L 371.410156 121.769531 C 369.984375 115.570312 363.792969 111.695312 357.59375 113.125 L 357.582031 113.125 L 324.734375 120.617188 C 319.039062 110.140625 312.113281 100.390625 304.101562 91.574219 L 322.082031 63.105469 C 325.480469 57.722656 323.890625 50.613281 318.507812 47.199219 L 268.949219 15.964844 C 263.566406 12.566406 256.457031 14.15625 253.046875 19.539062 L 235.066406 48.121094 C 223.820312 44.734375 212.214844 42.683594 200.492188 42.015625 L 193.113281 9.167969 C 191.6875 2.964844 185.496094 -0.90625 179.296875 0.523438 L 179.285156 0.523438 L 121.65625 13.546875 C 115.421875 14.800781 111.375 20.886719 112.644531 27.121094 C 112.65625 27.167969 112.667969 27.214844 112.667969 27.261719 L 120.390625 59.644531 C 109.914062 65.339844 100.160156 72.265625 91.347656 80.277344 L 62.878906 62.296875 C 57.496094 58.898438 50.382812 60.488281 46.972656 65.871094 L 15.738281 115.429688 C 12.339844 120.8125 13.929688 127.921875 19.3125 131.332031 L 47.78125 149.3125 C 44.390625 160.5625 42.339844 172.167969 41.671875 183.890625 L 8.941406 192.1875 C 2.742188 193.617188 -1.132812 199.804688 0.296875 206.007812 L 0.296875 206.019531 L 13.203125 263.644531 C 14.632812 269.84375 20.824219 273.71875 27.023438 272.289062 L 27.035156 272.289062 L 59.882812 264.914062 C 65.578125 275.378906 72.503906 285.128906 80.511719 293.957031 L 62.535156 322.425781 C 59.515625 327.816406 61.300781 334.628906 66.566406 337.867188 L 116.125 369.101562 C 117.960938 370.242188 120.078125 370.84375 122.234375 370.832031 L 124.195312 370.832031 C 127.15625 370.152344 129.714844 368.328125 131.339844 365.761719 L 149.320312 337.292969 C 160.566406 340.679688 172.171875 342.730469 183.894531 343.398438 L 186.085938 353.082031 L 159.347656 379.820312 C 152.59375 378.4375 145.726562 377.746094 138.832031 377.746094 C 82.875 377.828125 37.59375 423.25 37.671875 479.203125 C 37.695312 497.320312 42.582031 515.105469 51.816406 530.6875 C 55.097656 536.140625 62.175781 537.902344 67.628906 534.617188 C 68.917969 533.84375 70.046875 532.820312 70.945312 531.609375 L 110.480469 478.019531 C 119.375 466.390625 135.882812 463.898438 147.820312 472.371094 C 159.566406 480.886719 162.332031 497.230469 154.046875 509.136719 L 116.359375 560.308594 C 112.726562 565.539062 114.027344 572.71875 119.261719 576.351562 C 120.738281 577.378906 122.433594 578.035156 124.195312 578.289062 C 129.453125 579.117188 134.773438 579.542969 140.101562 579.554688 C 166.953125 579.636719 192.734375 568.976562 211.671875 549.9375 C 235.738281 525.769531 246.085938 491.144531 239.21875 457.734375 L 472.261719 224.808594 C 479.015625 226.191406 485.882812 226.882812 492.773438 226.882812 C 548.730469 226.835938 594.046875 181.449219 594 125.492188 C 593.988281 107.074219 588.953125 89.015625 579.445312 73.25 C 577.449219 69.960938 573.945312 67.875 570.109375 67.714844 Z M 148.511719 312.398438 C 143.394531 310.542969 137.679688 312.511719 134.796875 317.121094 L 118.199219 343.515625 L 88.121094 324.730469 L 104.714844 298.335938 C 107.609375 293.726562 106.894531 287.722656 102.988281 283.929688 C 91.957031 273.199219 82.980469 260.542969 76.476562 246.585938 C 74.207031 241.621094 68.78125 238.933594 63.453125 240.132812 L 33.144531 247.050781 L 25.304688 212.472656 L 55.617188 205.558594 C 60.976562 204.347656 64.746094 199.53125 64.609375 194.03125 C 64.457031 178.621094 67.109375 163.304688 72.445312 148.851562 C 74.300781 143.734375 72.328125 138.019531 67.71875 135.136719 L 41.441406 118.425781 L 60.34375 88.34375 L 86.734375 104.941406 C 91.324219 107.867188 97.328125 107.199219 101.140625 103.328125 C 111.871094 92.296875 124.527344 83.320312 138.484375 76.820312 C 143.40625 74.515625 146.042969 69.085938 144.824219 63.796875 L 137.90625 33.484375 L 172.484375 25.648438 L 179.398438 55.957031 C 180.609375 61.316406 185.425781 65.085938 190.925781 64.949219 C 206.332031 64.832031 221.628906 67.496094 236.105469 72.785156 C 241.21875 74.640625 246.9375 72.671875 249.820312 68.058594 L 266.414062 41.667969 L 296.496094 60.570312 L 279.898438 86.960938 C 277.007812 91.570312 277.722656 97.574219 281.628906 101.367188 C 292.832031 112.097656 301.96875 124.796875 308.597656 138.824219 C 310.902344 143.746094 316.332031 146.386719 321.621094 145.164062 L 351.933594 138.25 L 361.152344 178.816406 L 206.023438 333.488281 L 204.871094 329.222656 C 203.660156 323.863281 198.84375 320.09375 193.34375 320.234375 C 178.050781 320.339844 162.863281 317.6875 148.511719 312.398438 Z M 548.09375 180.894531 C 533.480469 195.667969 513.554688 203.96875 492.773438 203.945312 C 485.652344 203.945312 478.550781 202.976562 471.683594 201.0625 C 467.578125 199.839844 463.140625 200.992188 460.15625 204.058594 L 218.125 446.089844 C 215.058594 449.074219 213.90625 453.515625 215.128906 457.617188 C 222.652344 484.839844 215 514.007812 195.074219 534.027344 C 182.464844 546.71875 165.84375 554.660156 148.050781 556.503906 L 172.714844 523.082031 C 189.011719 501.011719 184.332031 469.914062 162.261719 453.617188 C 153.707031 447.300781 143.359375 443.902344 132.722656 443.902344 C 116.953125 443.949219 102.132812 451.417969 92.726562 464.070312 L 64.953125 501.757812 C 52.226562 460.453125 75.40625 416.65625 116.699219 403.933594 C 131.015625 399.519531 146.296875 399.3125 160.726562 403.332031 C 164.828125 404.554688 169.265625 403.402344 172.253906 400.335938 L 414.285156 157.726562 C 417.335938 154.742188 418.503906 150.304688 417.28125 146.203125 C 409.71875 118.980469 417.382812 89.796875 437.335938 69.789062 C 449.722656 57.332031 465.976562 49.449219 483.4375 47.433594 L 461.191406 78.089844 C 444.894531 100.171875 449.597656 131.289062 471.679688 147.585938 C 493.761719 163.882812 524.878906 159.179688 541.179688 137.097656 L 567.222656 101.714844 C 576.226562 129.605469 568.839844 160.183594 548.09375 180.894531 Z M 548.09375 180.894531 " style=" stroke:none;fill-rule:nonzero;fill:rgb(0%,0%,0%);fill-opacity:1;" />
</g>
</svg>