<svg width="60" height="60" viewBox="0 0 60 60" fill="none" xmlns="http://www.w3.org/2000/svg">
    <g clip-path="url(#ln6k9tisfa)">
        <path d="M42.25 1H5a4 4 0 0 0-4 4v50a4 4 0 0 0 4 4h37.25a4 4 0 0 0 4-4V5a4 4 0 0 0-4-4z" fill="#fff"/>
        <path d="M40.125 24.765v3.095a1.64 1.64 0 0 1-1.64 1.64H34.14a1.64 1.64 0 0 1-1.64-1.64v-3.095c0-.906.734-1.64 1.64-1.64h4.345c.906 0 1.64.734 1.64 1.64z" fill="#B9DCFF"/>
        <path d="M27.375 24.765v3.095a1.64 1.64 0 0 1-1.64 1.64H21.39a1.64 1.64 0 0 1-1.64-1.64v-3.095c0-.906.734-1.64 1.64-1.64h4.345c.906 0 1.64.734 1.64 1.64zM27.375 36.765v3.095a1.64 1.64 0 0 1-1.64 1.64H21.39a1.64 1.64 0 0 1-1.64-1.64v-3.095c0-.906.734-1.64 1.64-1.64h4.345c.906 0 1.64.734 1.64 1.64zM27.375 48.765v3.095a1.64 1.64 0 0 1-1.64 1.64H21.39a1.64 1.64 0 0 1-1.64-1.64v-3.095c0-.906.734-1.64 1.64-1.64h4.345c.906 0 1.64.734 1.64 1.64zM14.75 48.765v3.095a1.64 1.64 0 0 1-1.64 1.64H8.765a1.64 1.64 0 0 1-1.64-1.64v-3.095c0-.906.734-1.64 1.64-1.64h4.345c.906 0 1.64.734 1.64 1.64zM14.75 36.765v3.095a1.64 1.64 0 0 1-1.64 1.64H8.765a1.64 1.64 0 0 1-1.64-1.64v-3.095c0-.906.734-1.64 1.64-1.64h4.345c.906 0 1.64.734 1.64 1.64zM14.75 24.765v3.095a1.64 1.64 0 0 1-1.64 1.64H8.765a1.64 1.64 0 0 1-1.64-1.64v-3.095c0-.906.734-1.64 1.64-1.64h4.345c.906 0 1.64.734 1.64 1.64z" fill="#D1E7FF"/>
        <path d="M40.125 8.625v7a2 2 0 0 1-2 2h-29a2 2 0 0 1-2-2v-7a2 2 0 0 1 2-2h29a2 2 0 0 1 2 2z" fill="#E1F1FC"/>
        <path d="M55.108 55.18c5.174-5.173 5.174-13.562 0-18.735-5.174-5.174-13.562-5.174-18.735 0-5.174 5.173-5.174 13.562 0 18.735 5.173 5.174 13.561 5.174 18.735 0z" fill="#fff"/>
        <path d="M41.325 50.423a.346.346 0 0 1-.234-.091.346.346 0 0 1-.091-.234v-6.773c0-.095.03-.173.091-.234a.346.346 0 0 1 .234-.091h4.381c1.222 0 2.128.256 2.717.767.59.503.884 1.335.884 2.496v1.313c0 .095-.03.178-.091.247a.317.317 0 0 1-.234.091h-1.547a.346.346 0 0 1-.234-.091.346.346 0 0 1-.091-.234V46.25c0-.988-.49-1.482-1.469-1.482h-2.444v5.33c0 .087-.03.165-.091.234a.317.317 0 0 1-.234.091h-1.547zm3.003 0a.346.346 0 0 1-.234-.091.346.346 0 0 1-.091-.234v-4.264c0-.095.03-.173.091-.234a.346.346 0 0 1 .234-.091h1.534c.095 0 .173.03.234.091.07.06.104.139.104.234v2.821h2.444c.98 0 1.469-.494 1.469-1.482v-3.848c0-.095.03-.173.091-.234a.317.317 0 0 1 .234-.091h1.534c.095 0 .173.03.234.091.07.06.104.139.104.234v3.835c0 1.161-.295 1.998-.884 2.509-.59.503-1.495.754-2.717.754h-4.381z" fill="#21283A"/>
        <path d="M36.4 50.312c.255 1.685-2.11 2.37-2.794.81-3.895-8.897 2.9-18.697 12.343-18.558 1.712.025 2.009 2.468.349 2.89-6.456 1.636-10.958 7.854-9.898 14.858z" fill="#E1F1FC"/>
        <path d="M25.847 23.129c.632.042.583.996-.05.996H23.14c-.906 0-1.646.734-1.64 1.64.006.964.007 1.64.002 2.131-.012 1.116-1.752 1.213-1.752-.036v-3.095c0-.906.734-1.64 1.64-1.64 0 0 4.42.001 4.457.004zM38.597 23.129c.632.042.583.996-.05.996H35.89c-.906 0-1.646.734-1.64 1.64.006.964.007 1.64.002 2.131-.012 1.116-1.752 1.213-1.752-.036v-3.095c0-.906.734-1.64 1.64-1.64 0 0 4.42.001 4.457.004zM13.222 23.129c.632.042.583.996-.05.996h-2.657c-.906 0-1.646.734-1.64 1.64.006.964.007 1.64.002 2.131-.012 1.116-1.752 1.213-1.752-.036v-3.095c0-.906.734-1.64 1.64-1.64 0 0 4.42.001 4.457.004zM25.847 35.129c.632.042.583.996-.05.996H23.14c-.906 0-1.646.734-1.64 1.64.006.964.007 1.64.002 2.131-.012 1.117-1.752 1.213-1.752-.036v-3.095c0-.906.734-1.64 1.64-1.64 0 0 4.42.001 4.457.004zM13.222 35.129c.632.042.583.996-.05.996h-2.657c-.906 0-1.646.734-1.64 1.64.006.964.007 1.64.002 2.131-.012 1.117-1.752 1.213-1.752-.036v-3.095c0-.906.734-1.64 1.64-1.64 0 0 4.42.001 4.457.004zM25.847 47.129c.632.042.583.996-.05.996H23.14c-.906 0-1.646.734-1.64 1.64.006.964.007 1.64.002 2.131-.012 1.117-1.752 1.213-1.752-.036v-3.095c0-.906.734-1.64 1.64-1.64 0 0 4.42.001 4.457.004zM13.222 47.129c.632.042.583.996-.05.996h-2.657c-.906 0-1.646.734-1.64 1.64.006.964.007 1.64.002 2.131-.012 1.117-1.752 1.213-1.752-.036v-3.095c0-.906.734-1.64 1.64-1.64 0 0 4.42.001 4.457.004zM38.166 8.5H12.25a2 2 0 0 0-2 2v6c0 .622-.503 1.125-1.125 1.125a2 2 0 0 1-2-2v-7a2 2 0 0 1 2-2h29c1.359 0 1.243 1.875.04 1.875z" fill="#87B7EE"/>
        <path d="M1 53.996V5a4 4 0 0 1 4-4c38.887 0 37.26-.004 37.429.004 1.61.07 1.53 2.496-.083 2.496H8.75a4 4 0 0 0-4 4v46.496c0 2.46-3.75 2.45-3.75 0z" fill="#E1F1FC"/>
        <path d="M38.093 17.625a1 1 0 0 0-1-1H9.125c-.551 0-1-.449-1-1v-7c0-.551.449-1 1-1h29c.551 0 1 .449 1 1v4.92a1 1 0 0 0 2 0v-4.92c0-1.654-1.346-3-3-3h-29c-1.654 0-3 1.346-3 3v7c0 1.654 1.346 3 3 3h27.968a1 1 0 0 0 1-1zM15.75 24.765a2.643 2.643 0 0 0-2.64-2.64H8.765a2.643 2.643 0 0 0-2.64 2.64v3.095a2.643 2.643 0 0 0 2.64 2.64h4.345a2.643 2.643 0 0 0 2.64-2.64v-3.095zm-2 3.095a.64.64 0 0 1-.64.64H8.765a.64.64 0 0 1-.64-.64v-3.095a.64.64 0 0 1 .64-.64h4.345a.64.64 0 0 1 .64.64v3.095zM28.375 24.765a2.643 2.643 0 0 0-2.64-2.64H21.39a2.643 2.643 0 0 0-2.64 2.64v3.095a2.643 2.643 0 0 0 2.64 2.64h4.345a2.643 2.643 0 0 0 2.64-2.64v-3.095zm-2 3.095a.64.64 0 0 1-.64.64H21.39a.64.64 0 0 1-.64-.64v-3.095a.64.64 0 0 1 .64-.64h4.345a.64.64 0 0 1 .64.64v3.095zM38.485 22.125H34.14a2.643 2.643 0 0 0-2.64 2.64v3.095a2.643 2.643 0 0 0 2.64 2.64h4.345a2.643 2.643 0 0 0 2.64-2.64v-3.095a2.643 2.643 0 0 0-2.64-2.64zm.64 5.735a.64.64 0 0 1-.64.64H34.14a.64.64 0 0 1-.64-.64v-3.095a.64.64 0 0 1 .64-.64h4.345a.64.64 0 0 1 .64.64v3.095zM15.75 36.765a2.643 2.643 0 0 0-2.64-2.64H8.765a2.643 2.643 0 0 0-2.64 2.64v3.095a2.643 2.643 0 0 0 2.64 2.64h4.345a2.643 2.643 0 0 0 2.64-2.64v-3.095zm-2 3.095a.64.64 0 0 1-.64.64H8.765a.64.64 0 0 1-.64-.64v-3.095a.64.64 0 0 1 .64-.64h4.345a.64.64 0 0 1 .64.64v3.095zM28.375 36.765a2.643 2.643 0 0 0-2.64-2.64H21.39a2.643 2.643 0 0 0-2.64 2.64v3.095a2.643 2.643 0 0 0 2.64 2.64h4.345a2.643 2.643 0 0 0 2.64-2.64v-3.095zm-2 3.095a.64.64 0 0 1-.64.64H21.39a.64.64 0 0 1-.64-.64v-3.095a.64.64 0 0 1 .64-.64h4.345a.64.64 0 0 1 .64.64v3.095zM13.11 46.125H8.765a2.643 2.643 0 0 0-2.64 2.64v3.095a2.643 2.643 0 0 0 2.64 2.64h4.345a2.643 2.643 0 0 0 2.64-2.64v-3.095a2.643 2.643 0 0 0-2.64-2.64zm.64 5.735a.64.64 0 0 1-.64.64H8.765a.64.64 0 0 1-.64-.64v-3.095a.64.64 0 0 1 .64-.64h4.345a.64.64 0 0 1 .64.64v3.095zM25.735 46.125H21.39a2.643 2.643 0 0 0-2.64 2.64v3.095a2.643 2.643 0 0 0 2.64 2.64h4.345a2.643 2.643 0 0 0 2.64-2.64v-3.095a2.643 2.643 0 0 0-2.64-2.64zm.64 5.735a.64.64 0 0 1-.64.64H21.39a.64.64 0 0 1-.64-.64v-3.095a.64.64 0 0 1 .64-.64h4.345a.64.64 0 0 1 .64.64v3.095z" fill="#21283A"/>
        <path d="M52.151 33.016a1 1 0 0 0-.9 1.786A12.198 12.198 0 0 1 58 45.75C58 52.505 52.505 58 45.75 58S33.5 52.505 33.5 45.75 38.995 33.5 45.75 33.5c.424 0 .684.063 1.009-.13.296-.176.478-.49.49-.824L47.25 5c0-2.757-2.243-5-5-5H5C2.243 0 0 2.243 0 5v50c0 2.757 2.243 5 5 5h28.19a1 1 0 0 0 0-2H5c-1.654 0-3-1.346-3-3V5c0-1.654 1.346-3 3-3h37.25c1.654 0 3 1.346 3 3v26.51c-7.627.264-13.75 6.55-13.75 14.24C31.5 53.608 37.893 60 45.75 60S60 53.608 60 45.75a14.188 14.188 0 0 0-7.849-12.734z" fill="#21283A"/>
    </g>
    <defs>
        <clipPath id="ln6k9tisfa">
            <path fill="#fff" d="M0 0h60v60H0z"/>
        </clipPath>
    </defs>
</svg>
