<svg xmlns="http://www.w3.org/2000/svg" width="519.841" height="374.152" viewBox="0 0 519.841 374.152">
    <defs>
        <style>
            .cls-2{fill:#ffc727}.cls-3{fill:#37474f}.cls-4{fill:#ebebeb}.cls-5{fill:#e0e0e0}.cls-6{fill:#f5f5f5}.cls-7{fill:#fafafa}.cls-8{fill:#fff}.cls-9{fill:#455a64}.cls-10{fill:#263238}.cls-11{fill:#ffbe9d}.cls-12{fill:#eb996e}.cls-13{opacity:.3}.cls-15{opacity:.4}.cls-16{fill:#dbdbdb}
        </style>
    </defs>
    <g id="Group_10150" transform="translate(-704.144 -251.824)">
        <g id="Pencil" transform="translate(1108.675 610.821)">
            <g id="Group_64">
                <g id="Group_63">
                    <g id="Group_62">
                        <path id="Path_147" fill="#dd6a57" d="M366.37 451.073s8.91 1.207 9.24-4.935-8.658-5.9-8.658-5.9z" transform="translate(-293.516 -436.863)"/>
                        <path id="Rectangle_19" d="M0 0H10.847V63.226H0z" class="cls-2" transform="rotate(-86.9 10.75 .102)"/>
                        <path id="Rectangle_20" d="M0 0H12.665V2.513H0z" class="cls-3" transform="rotate(-86.9 43.402 -29.941)"/>
                        <path id="Rectangle_21" d="M0 0H12.666V2.513H0z" class="cls-3" transform="rotate(-86.924 41.953 -28.554)"/>
                        <g id="Group_61">
                            <path id="Path_148" d="M275.135 435.517l-8.012 3.657-2.646 1.2 2.5 1.5 7.574 4.495 1.632-1.012s-1.493-1.132-1.515-1.157l1.632-1.012s-1.493-1.132-1.516-1.157l1.631-.988s-1.491-1.155-1.514-1.18l1.63-.988s-1.491-1.155-1.514-1.18l1.63-.988s-1.489-1.165-1.512-1.19z" class="cls-4" transform="translate(-264.478 -435.517)"/>
                            <path id="Path_149" d="M267.123 440.631l-2.646 1.2 2.5 1.5z" class="cls-3" transform="translate(-264.478 -436.974)"/>
                        </g>
                    </g>
                </g>
            </g>
        </g>
        <g id="Group_10145" transform="translate(1006.332 301.561)">
            <path id="Path_24347" d="M330.513 89.74l13.794 43.648h-9.987l-4.4-15.05z" class="cls-4" transform="translate(-140.735 -53.86)"/>
            <path id="Rectangle_14724" d="M0 0H206.05V12.315H0z" class="cls-5" transform="translate(11.603 79.482)"/>
            <path id="Rectangle_14725" d="M0 0H9.972V18.903H0z" class="cls-5" transform="translate(40.316 89.107)"/>
            <path id="Rectangle_14726" d="M0 0H9.964V18.903H0z" class="cls-5" transform="translate(168.964 89.107)"/>
            <path id="Path_24348" d="M107.3 72.082s-9.247 7.044-.385 16.353a.817.817 0 0 0 .586.247l80.792-.47s6.936-7.706 1.171-16.661z" class="cls-4" transform="translate(-88.702 -49.687)"/>
            <path id="Path_24349" d="M177.113 81.732c0 .085-10.064.162-22.471.162s-22.471-.077-22.471-.162 10.064-.162 22.471-.162 22.471.069 22.471.162z" class="cls-5" transform="translate(-95.376 -51.986)"/>
            <path id="Path_24350" d="M167.891 85.522c0 .092-4.732.162-10.565.162s-10.565-.069-10.565-.162 4.732-.162 10.565-.162 10.565.069 10.565.162z" class="cls-5" transform="translate(-98.722 -52.855)"/>
            <path id="Path_24351" d="M201.16 87.882c-.054 0 .177-.925.424-2.427a34.539 34.539 0 0 0 .47-5.888 35.4 35.4 0 0 0-.578-5.888c-.277-1.5-.532-2.4-.478-2.42a2.573 2.573 0 0 1 .239.624c.131.408.293 1 .462 1.749a28.69 28.69 0 0 1 .116 11.868c-.162.771-.308 1.349-.432 1.757a2.912 2.912 0 0 1-.224.624z" class="cls-5" transform="translate(-111.161 -49.621)"/>
            <path id="Path_24352" d="M209 71.42a2.866 2.866 0 0 1 .362.586 8.033 8.033 0 0 1 .354.724c.131.293.285.617.416.994a17.669 17.669 0 0 1 .768 2.676 20.036 20.036 0 0 1 .408 3.406 19.459 19.459 0 0 1-.293 3.4 18.388 18.388 0 0 1-.724 2.7c-.123.378-.277.7-.4.994a6.661 6.661 0 0 1-.347.771 3.376 3.376 0 0 1-.347.593c-.062 0 .393-.9.871-2.4a18.826 18.826 0 0 0 .647-2.666 21.574 21.574 0 0 0 .27-3.352 21.13 21.13 0 0 0-.324-3.345 19.41 19.41 0 0 0-.686-2.659c-.543-1.528-.975-2.391-.975-2.422z" class="cls-5" transform="translate(-112.998 -49.658)"/>
            <path id="Path_24353" d="M124.425 88.288a2.76 2.76 0 0 1-.378-.539 5.647 5.647 0 0 1-.378-.678c-.131-.27-.293-.57-.432-.925a14.357 14.357 0 0 1-.771-2.551 15.912 15.912 0 0 1-.308-3.252 16.1 16.1 0 0 1 .4-3.244 13.6 13.6 0 0 1 .855-2.528 8.475 8.475 0 0 1 .455-.917 5.194 5.194 0 0 1 .393-.663c.239-.354.37-.547.393-.532s-.462.817-1.033 2.2a15.932 15.932 0 0 0-.771 2.5 16.955 16.955 0 0 0-.37 3.183 17.978 17.978 0 0 0 .277 3.2 16.54 16.54 0 0 0 .709 2.52c.52 1.379 1.021 2.172.959 2.226z" class="cls-5" transform="translate(-93.079 -49.896)"/>
            <path id="Path_24354" d="M112.974 90.19a4.077 4.077 0 0 1-.416-.616 6.382 6.382 0 0 1-.416-.771c-.154-.308-.339-.647-.493-1.04a17.593 17.593 0 0 1-.925-2.859 20.036 20.036 0 0 1-.455-3.645 19.573 19.573 0 0 1 .293-3.66 17.431 17.431 0 0 1 .771-2.89 11.157 11.157 0 0 1 .439-1.063 8.153 8.153 0 0 1 .385-.771 2.6 2.6 0 0 1 .393-.624c.054 0-.462.948-1 2.543a18.944 18.944 0 0 0 .285 12.885c.638 1.579 1.201 2.473 1.139 2.511z" class="cls-5" transform="translate(-90.352 -49.848)"/>
            <path id="Path_24355" d="M200.908 125.09v15.466H171V125.09z" class="cls-4" transform="translate(-104.282 -61.968)"/>
            <path id="Path_24356" d="M84.429 132.486v.408a8.854 8.854 0 0 0 8.916 8.3h89.1v-1.117h-21.154a7.706 7.706 0 0 1-7.706-7.706 7.706 7.706 0 0 1 7.706-7.706h21.154V123l-89.1.27a8.924 8.924 0 0 0-8.916 9.217z" class="cls-5" transform="translate(-84.424 -61.489)"/>
            <path id="Path_24357" d="M201.633 135.342c0 .092-6.165.17-13.733.17s-13.74-.077-13.74-.17 6.165-.162 13.74-.162 13.733.077 13.733.162z" class="cls-5" transform="translate(-105.007 -64.282)"/>
            <path id="Path_24358" d="M201.511 139.862c0 .092-5.818.17-13 .17s-13-.077-13-.17 5.818-.162 13-.162 13 .077 13 .162z" class="cls-5" transform="translate(-105.317 -65.319)"/>
            <path id="Path_24359" d="M202.853 144c0 .092-5.233.162-11.683.162s-11.69-.069-11.69-.162 5.233-.162 11.69-.162 11.683.071 11.683.162z" class="cls-5" transform="translate(-106.227 -66.269)"/>
            <path id="Path_24360" d="M201.8 131.282c0 .092-6.026.162-13.455.162s-13.455-.069-13.455-.162 6.019-.162 13.455-.162 13.455.08 13.455.162z" class="cls-5" transform="translate(-105.174 -63.351)"/>
            <path id="Path_24361" d="M202.119 127.222c0 .092-5.394.162-11.976.162s-11.983-.069-11.983-.162 5.394-.162 11.983-.162 11.976.069 11.976.162z" class="cls-5" transform="translate(-105.925 -62.42)"/>
            <path id="Path_24362" d="M97.185 123.69a21.037 21.037 0 0 0-1.88 2.25 11.459 11.459 0 0 0 .162 13.247 21.363 21.363 0 0 0 1.942 2.212 3.992 3.992 0 0 1-.64-.478 10.443 10.443 0 0 1-1.464-1.58 11.259 11.259 0 0 1-.162-13.517 10.3 10.3 0 0 1 1.449-1.626 3.082 3.082 0 0 1 .593-.508z" class="cls-6" transform="translate(-86.384 -61.647)"/>
            <path id="Path_24363" d="M93.258 123.26a20.544 20.544 0 0 0-1.888 2.25 11.459 11.459 0 0 0 .154 13.255 21.7 21.7 0 0 0 1.942 2.2 3.453 3.453 0 0 1-.64-.478 10.08 10.08 0 0 1-1.518-1.6 11.259 11.259 0 0 1-.131-13.524 10.3 10.3 0 0 1 1.449-1.626 3.082 3.082 0 0 1 .632-.477z" class="cls-6" transform="translate(-85.47 -61.548)"/>
            <path id="Path_24364" d="M171.824 123.69a19.99 19.99 0 0 0-1.9 2.25 11.459 11.459 0 0 0 .162 13.247 20.3 20.3 0 0 0 1.942 2.212 3.993 3.993 0 0 1-.64-.478 10.072 10.072 0 0 1-1.487-1.58 11.259 11.259 0 0 1-.162-13.517 9.925 9.925 0 0 1 1.449-1.626 3.082 3.082 0 0 1 .636-.508z" class="cls-6" transform="translate(-103.495 -61.647)"/>
            <path id="Path_24365" d="M167.914 123.26a21.039 21.039 0 0 0-1.9 2.25 11.475 11.475 0 0 0 .162 13.255 21.694 21.694 0 0 0 1.942 2.2 3.454 3.454 0 0 1-.64-.478 10.08 10.08 0 0 1-1.487-1.6 11.259 11.259 0 0 1-.162-13.517 10.3 10.3 0 0 1 1.449-1.626 3.082 3.082 0 0 1 .636-.484z" class="cls-6" transform="translate(-102.598 -61.548)"/>
            <path id="Path_24366" d="M110.2 135.449l-.085-6.288a4.409 4.409 0 0 0-.223-1.618 1.541 1.541 0 0 0-1.194-1c-.771-.354-2.011.308-2.558 1.21a5.926 5.926 0 0 0-.624 3.083 44.493 44.493 0 0 0 .247 4.963 5.579 5.579 0 0 0 .586 2.273 1.9 1.9 0 0 0 3.591-.3 6.327 6.327 0 0 0 .262-2.32z" class="cls-6" transform="translate(-89.259 -62.279)"/>
            <path id="Path_24367" d="M147.937 135.74c0 .085-6.442.162-14.38.162s-14.388-.077-14.388-.162 6.435-.17 14.388-.17 14.38.077 14.38.17z" class="cls-6" transform="translate(-92.394 -64.372)"/>
            <path id="Path_24368" d="M103.8 118.527l-.162-14.657h7.976l.277 14.657z" class="cls-6" transform="translate(-88.831 -57.101)"/>
            <path id="Path_24369" d="M111.173 107.2a20.507 20.507 0 0 1-3.707.17 20.505 20.505 0 0 1-3.707-.17 21.9 21.9 0 0 1 3.707-.162 21.9 21.9 0 0 1 3.707.162z" class="cls-5" transform="translate(-88.859 -57.822)"/>
            <path id="Path_24370" d="M111.173 110.136a20.976 20.976 0 0 1-3.707.162 20.976 20.976 0 0 1-3.707-.162 20.978 20.978 0 0 1 3.707-.162 20.976 20.976 0 0 1 3.707.162z" class="cls-5" transform="translate(-88.859 -58.496)"/>
            <path id="Path_24371" d="M111.173 113.066a20.507 20.507 0 0 1-3.707.17 20.506 20.506 0 0 1-3.707-.17 21.9 21.9 0 0 1 3.707-.162 21.9 21.9 0 0 1 3.707.162z" class="cls-5" transform="translate(-88.859 -59.169)"/>
            <path id="Path_24372" d="M111.173 116.006a20.977 20.977 0 0 1-3.707.162 20.977 20.977 0 0 1-3.707-.162 20.976 20.976 0 0 1 3.707-.162 20.977 20.977 0 0 1 3.707.162z" class="cls-5" transform="translate(-88.859 -59.842)"/>
            <path id="Path_24373" d="M111.173 118.946a20.507 20.507 0 0 1-3.707.17 20.507 20.507 0 0 1-3.707-.17 21.9 21.9 0 0 1 3.707-.162 21.9 21.9 0 0 1 3.707.162z" class="cls-5" transform="translate(-88.859 -60.517)"/>
            <path id="Path_24374" d="M103.09 103.37h88.41a41.414 41.414 0 0 1 0 15.836h-88.032v-1.079h5.394a2.535 2.535 0 0 0 2.543-2.535v-8.77a2.535 2.535 0 0 0-2.543-2.535h-5.757z" class="cls-4" transform="translate(-88.705 -56.986)"/>
            <path id="Path_24375" d="M129.583 112.72h1.48a.27.27 0 0 1 .154 0 .3.3 0 0 1 .162.277.169.169 0 0 1 0 .092 1.688 1.688 0 0 1-.092.378 4.231 4.231 0 0 1-.925 1.672 1.765 1.765 0 0 1-1.264.647h-.177a1.449 1.449 0 0 1-1-.771 3.306 3.306 0 0 1-.439-1.772 4.808 4.808 0 0 1 .177-1.264 4.277 4.277 0 0 1 .871-1.711 1.8 1.8 0 0 1 1.333-.709 1.225 1.225 0 0 1 .555.131 1.788 1.788 0 0 1 .863 1.079.316.316 0 0 1 .039.146.277.277 0 0 1-.046.154.293.293 0 0 1-.27.162h-.1a.316.316 0 0 1-.208-.2 1.464 1.464 0 0 0-.177-.347.825.825 0 0 0-.7-.424.878.878 0 0 0-.493.177 2.6 2.6 0 0 0-.771 1.164 4.354 4.354 0 0 0-.347 1.665 3.083 3.083 0 0 0 .247 1.3.863.863 0 0 0 .771.578 1.04 1.04 0 0 0 .717-.432 3.792 3.792 0 0 0 .771-1.364h-1.056a.336.336 0 0 1-.358-.348.44.44 0 0 1 0-.108.331.331 0 0 1 .283-.172z" class="cls-7" transform="translate(-94.299 -58.406)"/>
            <path id="Path_24376" d="M135.791 109.874a.187.187 0 0 0 .039.108q.092.324 1.04 5.479a.277.277 0 0 1 0 .077.324.324 0 0 1-.046.162.285.285 0 0 1-.262.162h-.054a.285.285 0 0 1-.239-.223l-.354-1.819H134.1l-.871 1.826a.154.154 0 0 1 0 .062.324.324 0 0 1-.27.154.308.308 0 0 1-.17-.046.316.316 0 0 1-.146-.27.384.384 0 0 1 0-.092c.054-.131.146-.331.27-.6q1.9-4.161 2.312-4.917a.354.354 0 0 1 .308-.216.331.331 0 0 1 .258.153zm-.4 1.225l-.979 2.065h1.388z" class="cls-7" transform="translate(-95.483 -58.443)"/>
            <path id="Path_24377" d="M142.24 115.855h-2.666a.331.331 0 0 1-.17-.046.5.5 0 0 1-.154-.339q0-.162.771-5.456a.591.591 0 0 1 0-.116.285.285 0 0 1 .285-.2.316.316 0 0 1 .146 0 .308.308 0 0 1 .17.285c0 .239-.085.771-.185 1.5l-.478 3.684h2.266a.6.6 0 0 1 .17 0 .3.3 0 0 1 .2.3.208.208 0 0 1 0 .1.362.362 0 0 1-.355.288z" class="cls-7" transform="translate(-97 -58.435)"/>
            <path id="Path_24378" d="M146.906 109.865a.773.773 0 0 1 .046.108q.092.324 1.04 5.479a.276.276 0 0 1 0 .077.323.323 0 0 1-.046.162.293.293 0 0 1-.262.162h-.054a.293.293 0 0 1-.247-.223l-.362-1.85H145.2l-.871 1.826a.155.155 0 0 1 0 .062.347.347 0 0 1-.27.154.354.354 0 0 1-.177-.046.331.331 0 0 1-.146-.27.209.209 0 0 1 0-.092c.054-.131.146-.331.27-.6q1.911-4.161 2.312-4.917a.347.347 0 0 1 .308-.216.324.324 0 0 1 .277.185zm-.393 1.225l-.979 2.065h1.387z" class="cls-7" transform="translate(-98.028 -58.433)"/>
            <path id="Path_24379" d="M152.592 113.034c.208.578.37 1.025.485 1.333.277.771.408 1.164.408 1.2a.285.285 0 0 1-.046.162.308.308 0 0 1-.27.146.277.277 0 0 1-.262-.216l-.054-.131c-.139-.331-.378-.956-.709-1.88l-1.541 2.065a.354.354 0 0 1-.277.162.416.416 0 0 1-.17 0 .3.3 0 0 1-.146-.27v-.069a.77.77 0 0 1 .162-.254c.509-.655 1.063-1.433 1.672-2.312-.062-.177-.123-.347-.185-.5-.563-1.541-.848-2.312-.848-2.358a.416.416 0 0 1 0-.162.277.277 0 0 1 .262-.154.316.316 0 0 1 .293.17l.894 2.4 1.772-2.42a.362.362 0 0 1 .285-.154.316.316 0 0 1 .146 0 .293.293 0 0 1 .154.277.331.331 0 0 1 0 .146z" class="cls-7" transform="translate(-99.468 -58.458)"/>
            <path id="Path_24380" d="M160.56 109.715a.316.316 0 0 1 .146.039.3.3 0 0 1 .17.27c-.432 3.445-.678 5.31-.717 5.587a3.46 3.46 0 0 1-.57 1.456 2.081 2.081 0 0 1-1.772.863 2.042 2.042 0 0 1-.855-.223 1.9 1.9 0 0 1-.963-.855.347.347 0 0 1 0-.154.416.416 0 0 1 0-.162.316.316 0 0 1 .277-.154.293.293 0 0 1 .239.131 1.718 1.718 0 0 0 1.364.771 1.379 1.379 0 0 0 1.063-.539 2.944 2.944 0 0 0 .586-1.672 1.665 1.665 0 0 1-.393.416 1.587 1.587 0 0 1-.956.308H158a1.41 1.41 0 0 1-1.01-.771 3.237 3.237 0 0 1-.447-1.772 7.431 7.431 0 0 1 .046-1c.046-.539.17-1.3.354-2.312a.434.434 0 0 1 0-.092.3.3 0 0 1 .285-.216.277.277 0 0 1 .154.046.285.285 0 0 1 .162.254c0 .162-.054.563-.146 1.21a17.861 17.861 0 0 0-.216 1.857 3.854 3.854 0 0 0 .239 1.449c.185.432.447.647.771.647h.108a1.479 1.479 0 0 0 .771-.64 3.853 3.853 0 0 0 .655-1.472l.408-3.036a.37.37 0 0 1 .039-.131.3.3 0 0 1 .387-.103z" class="cls-7" transform="translate(-100.839 -58.422)"/>
            <path id="Path_24381" d="M213.462 119.352c-.092 0-.162-3.637-.162-8.122s.069-8.13.162-8.13.162 3.637.162 8.13-.07 8.122-.162 8.122z" class="cls-6" transform="translate(-113.985 -56.924)"/>
            <path id="Path_24382" d="M119.582 119.352c-.092 0-.162-3.637-.162-8.122s.069-8.13.162-8.13.162 3.637.162 8.13-.077 8.122-.162 8.122z" class="cls-5" transform="translate(-92.451 -56.924)"/>
            <path id="Path_24383" d="M215.472 119.352c-.085 0-.162-3.637-.162-8.122s.077-8.13.162-8.13.17 3.637.17 8.13-.078 8.122-.17 8.122z" class="cls-6" transform="translate(-114.446 -56.924)"/>
            <path id="Path_24384" d="M117.7 119.352c-.092 0-.17-3.637-.17-8.122s.077-8.13.17-8.13.162 3.637.162 8.13-.078 8.122-.162 8.122z" class="cls-5" transform="translate(-92.018 -56.924)"/>
            <path id="Path_24385" d="M182.8 106.57l9.348 7.537.085.069h-.108l-1.241.331-7.891 2.065-7.151-3.029-2.05-.871-.539-.231-.131-.062.139.054.539.216 2.034.848 7.167 2.99 7.891-2.081 1.241-.324v.092l-9.325-7.568" class="cls-5" transform="translate(-104.757 -57.72)"/>
            <path id="Path_24386" d="M196.5 114.8l.516.478.678-.146-.3.632.354.6-.694-.085-.462.524-.131-.694-.64-.277.609-.339z" class="cls-5" transform="translate(-109.975 -59.608)"/>
            <path id="Path_24387" d="M184.951 118.65l.347.293.439-.123-.17.424.254.378-.455-.031-.277.354-.116-.439-.424-.162.385-.239z" class="cls-5" transform="translate(-107.39 -60.491)"/>
            <path id="Path_24388" d="M172.22 113.261l.555.039.347-.439.139.539.524.193-.47.293-.023.555-.424-.354-.539.154.208-.516z" class="cls-5" transform="translate(-104.562 -59.163)"/>
            <path id="Path_24389" d="M202.14 106.611l.555.031.347-.432.139.539.516.185-.47.3-.015.555-.432-.354-.532.154.2-.516z" class="cls-5" transform="translate(-111.425 -57.637)"/>
            <path id="Path_24390" d="M185.1 106.182l.354.015.223-.277.085.347.339.123-.3.185-.015.354-.277-.223-.339.1.131-.331z" class="cls-5" transform="translate(-107.516 -57.571)"/>
            <path id="Path_24391" d="M199.134 107.056s-3.021-.062-6.751-.223-6.751-.316-6.743-.354 3.021.069 6.751.223 6.743.323 6.743.354z" class="cls-5" transform="translate(-107.64 -57.697)"/>
            <path id="Path_24392" d="M180.574 100.967H90.9c-1.179-2.666-1.464-5.194 0-7.467h89.67a8.693 8.693 0 0 1 0 7.467z" class="cls-5" transform="translate(-85.682 -54.722)"/>
            <path id="Rectangle_14727" d="M0 0H48.58V2.713H0z" class="cls-4" transform="translate(23.786 40.913)"/>
            <path id="Path_24393" d="M95.2 101.063a2.705 2.705 0 0 1-.709-.9 6.689 6.689 0 0 1-.817-2.651 6.589 6.589 0 0 1 .347-2.751 2.62 2.62 0 0 1 .539-1.01 8.945 8.945 0 0 1-.324 1.079A8.014 8.014 0 0 0 94 97.488a7.906 7.906 0 0 0 .7 2.566 8.415 8.415 0 0 1 .5 1.009z" class="cls-5" transform="translate(-86.54 -54.779)"/>
            <path id="Path_24394" d="M97.718 101.063a2.705 2.705 0 0 1-.709-.9 6.566 6.566 0 0 1-.817-2.651 6.466 6.466 0 0 1 .347-2.751 2.62 2.62 0 0 1 .539-1.01 8.949 8.949 0 0 1-.324 1.079 7.814 7.814 0 0 0-.239 2.659 7.537 7.537 0 0 0 .7 2.566 8.416 8.416 0 0 1 .5 1.01z" class="cls-5" transform="translate(-87.117 -54.779)"/>
            <path id="Path_24395" d="M202.85 100.823a15.651 15.651 0 0 0 .632-3.653 15.569 15.569 0 0 0-.593-3.66 7.606 7.606 0 0 1-.039 7.313z" class="cls-6" transform="translate(-111.588 -54.724)"/>
            <path id="Path_24396" d="M200.673 100.874c-.092 0 .285-1.6.27-3.576s-.378-3.545-.277-3.568a10.85 10.85 0 0 1 0 7.144z" class="cls-6" transform="translate(-111.083 -54.775)"/>
            <path id="Path_24397" d="M250.84 43.18h61.534v80.3h-61.118z" class="cls-5" transform="translate(-122.596 -43.18)"/>
            <path id="Rectangle_14728" d="M0 0H61.18V79.482H0z" class="cls-8" transform="rotate(180 92.474 39.938)"/>
            <path id="Path_24398" d="M306.429 43.3v80.083H244.64V43.3zm-.632 79.482V43.9h-60.571v78.881z" class="cls-5" transform="translate(-121.173 -43.208)"/>
            <path id="Rectangle_14729" d="M0 0H46.839V62.267H0z" class="cls-8" transform="translate(130.156 9.016)"/>
            <path id="Path_24399" d="M253.154 54.821V72.16c0 10.951.039 26.494.069 44.927l-.139-.146h46.831l-.162.162V54.836l.254.092-34.015-.069h-.077l34.092-.17h.123v62.552H253v-.141c0-18.5.054-34.046.069-45.02 0-5.464 0-9.779.039-12.738v-4.22a.78.78 0 0 1 .046-.301z" class="cls-5" transform="translate(-123.091 -45.82)"/>
            <path id="Path_24400" d="M244.85 144.272a8.617 8.617 0 0 1 .825-1.349c.547-.771 1.318-1.9 2.2-3.083s1.719-2.25 2.312-3a6.858 6.858 0 0 1 1.071-1.164 9.34 9.34 0 0 1-.894 1.3l-2.266 3.082-2.266 3.044a7.8 7.8 0 0 1-.982 1.17z" class="cls-5" transform="translate(-121.222 -64.397)"/>
            <path id="Path_24401" d="M245 43.69a45.063 45.063 0 0 1 3.267 4.208 44.822 44.822 0 0 1 3.021 4.4 42.878 42.878 0 0 1-3.206-4.208 45.464 45.464 0 0 1-3.082-4.4z" class="cls-5" transform="translate(-121.256 -43.297)"/>
            <path id="Line_561" d="M8.053 0L0 8.924" class="cls-8" transform="translate(176.902 .393)"/>
            <path id="Path_24402" d="M314 52.614a56.084 56.084 0 0 1 3.907-4.57 55.376 55.376 0 0 1 4.146-4.354 57.6 57.6 0 0 1-3.915 4.57A56.248 56.248 0 0 1 314 52.614z" class="cls-5" transform="translate(-137.083 -43.297)"/>
            <path id="Path_24403" d="M322.141 144.293a52.727 52.727 0 0 1-3.969-4.154 51.517 51.517 0 0 1-3.722-4.369 55.317 55.317 0 0 1 3.961 4.154 54.435 54.435 0 0 1 3.73 4.369z" class="cls-5" transform="translate(-137.186 -64.418)"/>
            <path id="Path_24404" d="M256.1 129.456s5.04-15.613 8.038-17.277a28.791 28.791 0 0 1 13.155-3.56c6.936-.062 10.234.455 14.3 3.252 4.693 3.229 7.876 17.424 7.876 17.424" class="cls-5" transform="translate(-123.802 -58.189)"/>
            <path id="Path_24405" d="M271.975 75.32c-4.308.193-5.394 5.98-5.071 9.248.139 1.541.616 3.267-.17 4.624-.563.963-1.665 1.541-2.127 2.551-.57 1.225 0 2.643.385 3.93s.586 2.921-.447 3.8a37.313 37.313 0 0 0 7.437 1.395 12.584 12.584 0 0 0 7.29-1.618" class="cls-5" transform="translate(-125.698 -50.552)"/>
            <path id="Path_24406" d="M269.952 86.431c-2.844-6.512 1.01-10.5 3.529-11.929a10.627 10.627 0 0 1 4.994-1.079 18.272 18.272 0 0 1 5.063.447 9.132 9.132 0 0 1 4.393 2.458c2.073 2.2 2.551 5.471 2.366 8.477a23.642 23.642 0 0 1-2.975 10.149 2.427 2.427 0 0 1-.879 1.025.917.917 0 0 1-1.218-.216" class="cls-5" transform="translate(-126.749 -50.111)"/>
            <path id="Path_24407" d="M279.788 110.084c2.921.2 5.479-2.312 5.78-6.82l1.541-22.9-.109 1.585a1.85 1.85 0 0 0-1.657-1.865l-9.07-.932a5.518 5.518 0 0 0-6.08 5.171 55.7 55.7 0 0 0 .092 10.35c.848 5.225 4.855 5.88 4.855 5.88l-.308 3.8a5.3 5.3 0 0 0 4.932 5.733z" class="cls-6" transform="translate(-126.991 -51.424)"/>
            <path id="Path_24408" d="M272.54 89.518a.663.663 0 0 0 .647.67.647.647 0 0 0 .694-.609.67.67 0 0 0-.655-.67.64.64 0 0 0-.686.609z" class="cls-5" transform="translate(-127.573 -53.669)"/>
            <path id="Path_24409" d="M271.487 88.529c.085.085.586-.293 1.31-.293s1.256.362 1.333.277-.046-.2-.277-.37a1.919 1.919 0 0 0-1.071-.324 1.788 1.788 0 0 0-1.04.339c-.224.178-.294.332-.255.371z" class="cls-5" transform="translate(-127.329 -53.419)"/>
            <path id="Path_24410" d="M281.54 89.518a.663.663 0 0 0 .647.67.632.632 0 0 0 .686-.609.663.663 0 0 0-.647-.67.632.632 0 0 0-.686.609z" class="cls-5" transform="translate(-129.637 -53.669)"/>
            <path id="Path_24411" d="M280.7 88.679c.077.085.586-.293 1.31-.293s1.248.362 1.333.27-.046-.193-.285-.362a1.873 1.873 0 0 0-1.063-.324 1.734 1.734 0 0 0-1.04.339c-.228.17-.305.331-.255.37z" class="cls-5" transform="translate(-129.441 -53.454)"/>
            <path id="Path_24412" d="M276.763 94.049a4.262 4.262 0 0 0-1.179-.208c-.177 0-.354-.062-.385-.185a.9.9 0 0 1 .123-.547c.17-.447.347-.909.539-1.4a23.89 23.89 0 0 0 1.21-3.709 24.615 24.615 0 0 0-1.541 3.568c-.185.493-.354.963-.516 1.418a1.064 1.064 0 0 0-.1.717.478.478 0 0 0 .308.27 1.249 1.249 0 0 0 .308.046 4.917 4.917 0 0 0 1.233.031z" class="cls-5" transform="translate(-128.112 -53.461)"/>
            <path id="Path_24413" d="M276.67 106.368a13.339 13.339 0 0 0 7.005-1.888s-1.873 3.622-7.105 3.152z" class="cls-4" transform="translate(-128.497 -57.241)"/>
            <path id="Path_24414" d="M277.7 97.953a1.31 1.31 0 0 1 1.164-.485 1.187 1.187 0 0 1 .825.439.771.771 0 0 1 .054.855.871.871 0 0 1-.94.247 2.752 2.752 0 0 1-.925-.547.771.771 0 0 1-.208-.216.247.247 0 0 1 0-.27" class="cls-5" transform="translate(-128.74 -55.631)"/>
            <path id="Path_24415" d="M279.391 96.49c-.123 0-.123.771-.771 1.333s-1.5.47-1.541.586.185.146.539.154a1.919 1.919 0 0 0 1.256-.439 1.7 1.7 0 0 0 .609-1.117c.046-.332-.038-.525-.092-.517z" class="cls-5" transform="translate(-128.613 -55.408)"/>
            <path id="Path_24416" d="M280.269 87.087c.069.2.771.1 1.641.2s1.541.331 1.641.154-.069-.27-.347-.462a2.752 2.752 0 0 0-1.218-.416 2.582 2.582 0 0 0-1.279.154c-.315.124-.469.278-.438.37z" class="cls-5" transform="translate(-129.345 -53.126)"/>
            <path id="Path_24417" d="M271.815 85.781c.131.162.624 0 1.225 0s1.1.108 1.225-.069 0-.247-.254-.4a1.68 1.68 0 0 0-.994-.262 1.618 1.618 0 0 0-.971.331c-.216.177-.285.346-.231.4z" class="cls-5" transform="translate(-127.403 -52.783)"/>
            <path id="Path_24418" d="M275.154 74.032c5.063-2.851 10.5-.855 14.6 3.26a10.078 10.078 0 0 0 2.9 2.481c1.179.5 2.967.462 3.73 1.618.879 1.356-.308 3.267.331 4.755.6 1.364 2.474 1.757 3.167 3.082.547 1.033.208 2.312-.054 3.429s-.354 2.512.5 3.306l-10.9 4.138a2.836 2.836 0 0 1-1.541.17c-1.541-.308-1.665-1.742-1.541-2.928a4.916 4.916 0 0 0-.069-2.636c-.447-.963-1.541-1.472-1.965-2.451-.709-1.726 1.248-3.522 1.01-5.394a3.476 3.476 0 0 0-2.219-2.52c-1.071-.462-2.258-.617-3.368-.979a10.064 10.064 0 0 1-5.787-5.8 2.821 2.821 0 0 1 1.171-3.553z" class="cls-5" transform="translate(-127.844 -49.95)"/>
        </g>
        <g id="freepik--Chair--inject-5" transform="translate(980.089 501.53)">
            <path id="Path_24438" d="M454.368 326.59a12.638 12.638 0 0 1 12.33-10.611c26.617-.354 94.386-.963 98.024 1.919 4.531 3.6 6.936 5.441 6.543 11.151l-6.042 95.781H438.37z" class="cls-9" transform="translate(-438.37 -315.669)"/>
            <path id="Path_24439" d="M583.955 426.958a1.924 1.924 0 0 1-.039-.27 3.81 3.81 0 0 0-.062-.771c-.054-.709-.131-1.726-.223-3.013s-.2-2.921-.262-4.786-.185-3.992-.185-6.342c0-1.179 0-2.412-.039-3.691s0-2.62.046-4c0-2.767.162-5.718.293-8.824.354-6.211.94-13.024 1.888-20.136s2.242-13.871 3.56-19.921c.7-3.029 1.349-5.911 2.073-8.585.354-1.333.67-2.628 1.025-3.853s.7-2.412 1.025-3.545c.632-2.266 1.318-4.277 1.873-6.065s1.086-3.3 1.541-4.539.771-2.173 1.017-2.851l.277-.771c.062-.162.1-.247.1-.247a1.219 1.219 0 0 1-.062.262l-.239.771c-.224.686-.539 1.649-.948 2.882s-.932 2.767-1.464 4.554-1.2 3.807-1.811 6.073c-.324 1.133-.655 2.312-1 3.553s-.655 2.535-1 3.853c-.709 2.666-1.341 5.556-2.034 8.577-1.3 6.073-2.535 12.792-3.522 19.9s-1.541 13.871-1.919 20.1c-.139 3.082-.308 6.049-.331 8.816 0 1.379-.069 2.713-.069 3.992v3.684c0 2.35.085 4.477.131 6.342s.116 3.468.185 4.778.116 2.312.146 3.029v.771a1.447 1.447 0 0 1 .031.277z" class="cls-10" transform="translate(-471.574 -317.752)"/>
            <path id="Path_24440" d="M490.607 375.18a.45.45 0 0 0 .193-.077 1.866 1.866 0 0 1 .586 0 2.643 2.643 0 0 1 1.857 1.094 3.028 3.028 0 0 1 .185 3.16 4.046 4.046 0 0 1-1.233 1.487 3.853 3.853 0 0 1-1.965.686 3.19 3.19 0 0 1-2.03-.53 2.528 2.528 0 0 1-1.048-1.649 3.445 3.445 0 0 1 .971-3.036c1.426-1.218 2.682-1.256 2.659-1.141s-.069 0-.193 0a3.209 3.209 0 0 0-.539.185 5.572 5.572 0 0 0-1.726 1.117 3.206 3.206 0 0 0-.809 2.767 2.15 2.15 0 0 0 .909 1.395 2.789 2.789 0 0 0 1.772.455 3.46 3.46 0 0 0 1.765-.609 3.506 3.506 0 0 0 1.133-1.326 2.759 2.759 0 0 0-.085-2.836 2.628 2.628 0 0 0-1.641-1.1 6.157 6.157 0 0 0-.763-.039z" class="cls-10" transform="translate(-449.548 -329.297)"/>
            <path id="Path_24441" d="M512.281 360.207c0 .085-1.31-.154-3.406.039a15.613 15.613 0 0 0-12.792 8.993c-.9 1.9-1.117 3.206-1.2 3.19a3.635 3.635 0 0 1 .146-.917 13.1 13.1 0 0 1 .771-2.389 15.181 15.181 0 0 1 13.047-9.132 13.683 13.683 0 0 1 2.52.069 3.537 3.537 0 0 1 .914.147z" class="cls-10" transform="translate(-451.332 -325.829)"/>
            <path id="Path_24442" d="M469.72 388.906a2.668 2.668 0 0 1 .3-.655 9.84 9.84 0 0 1 1.117-1.6 11.891 11.891 0 0 1 11.7-3.992 10.52 10.52 0 0 1 1.865.593 2.792 2.792 0 0 1 .64.331c0 .077-.956-.362-2.558-.647a12.392 12.392 0 0 0-11.436 3.9c-1.089 1.199-1.559 2.109-1.628 2.07z" class="cls-10" transform="translate(-445.561 -330.97)"/>
            <path id="Path_24443" d="M499.85 392.259a4.917 4.917 0 0 1-1.3-.94 14.542 14.542 0 0 1-2.52-2.967 14.209 14.209 0 0 1-1.641-3.522 4.623 4.623 0 0 1-.316-1.58 28.441 28.441 0 0 0 2.312 4.886 29.828 29.828 0 0 0 3.465 4.123z" class="cls-10" transform="translate(-451.146 -331.171)"/>
            <path id="Path_24444" d="M546.185 376.569a.849.849 0 0 1 .193-.077 1.866 1.866 0 0 1 .586 0 2.674 2.674 0 0 1 1.857 1.094 3.082 3.082 0 0 1 .193 3.16 4.069 4.069 0 0 1-1.241 1.487 3.854 3.854 0 0 1-1.965.686 3.191 3.191 0 0 1-2.027-.532 2.559 2.559 0 0 1-1.048-1.649 3.445 3.445 0 0 1 .963-3.09c1.426-1.21 2.682-1.256 2.659-1.141s-.069 0-.193.039a3.211 3.211 0 0 0-.539.185 5.572 5.572 0 0 0-1.726 1.117 3.205 3.205 0 0 0-.771 2.767 2.18 2.18 0 0 0 .909 1.395 2.79 2.79 0 0 0 1.772.455 3.46 3.46 0 0 0 1.765-.609 3.506 3.506 0 0 0 1.133-1.326 2.759 2.759 0 0 0-.085-2.836 2.628 2.628 0 0 0-1.642-1.1 6.151 6.151 0 0 0-.793-.025z" class="cls-10" transform="translate(-462.294 -329.614)"/>
            <path id="Path_24445" d="M567.825 361.588c0 .085-1.31-.154-3.406.039a15.613 15.613 0 0 0-12.777 8.962c-.9 1.9-1.117 3.206-1.2 3.19a3.64 3.64 0 0 1 .146-.917 13.1 13.1 0 0 1 .771-2.389 15.181 15.181 0 0 1 13.031-9.132 13.68 13.68 0 0 1 2.52.069 3.535 3.535 0 0 1 .917.177z" class="cls-10" transform="translate(-464.076 -326.139)"/>
            <path id="Path_24446" d="M525.3 390.3a2.668 2.668 0 0 1 .3-.655 10.372 10.372 0 0 1 1.117-1.6 11.929 11.929 0 0 1 11.7-3.992 10.853 10.853 0 0 1 1.873.593 2.312 2.312 0 0 1 .632.339c0 .069-.956-.37-2.559-.655a12.376 12.376 0 0 0-11.428 3.9c-1.096 1.196-1.566 2.106-1.635 2.07z" class="cls-10" transform="translate(-458.31 -331.29)"/>
            <path id="Path_24447" d="M555.43 393.66a4.918 4.918 0 0 1-1.3-.94 14.79 14.79 0 0 1-2.52-2.967 14.211 14.211 0 0 1-1.642-3.522 4.626 4.626 0 0 1-.316-1.541 28.513 28.513 0 0 0 2.312 4.878 29.83 29.83 0 0 0 3.466 4.092z" class="cls-10" transform="translate(-463.895 -331.501)"/>
        </g>
        <g id="freepik--Character--inject-5" transform="translate(823.317 365.233)">
            <path id="Path_24683" d="M17.675 0C12.558 3.117 7.35 6.291 2.982 13.538.228 18.108-.254 22.984.1 28.309a25.607 25.607 0 0 0 4.1 12.076c2.307 3.369 3.8 5.8 7.143 8.147" class="cls-10" transform="rotate(34 77.66 230.398)"/>
            <path id="Path_24549" d="M243.939 447.21c-.254.054-1.341 1.156.208 2.905s10.889 6.535 12.607 3.676-2.427-4.847-2.427-4.847z" class="cls-11" transform="translate(-236.861 -209.544)"/>
            <path id="Path_24550" d="M252.27 434.672s9.633-1.063 13.563-.563c4.262.547 8.785-1.6 11.467-4.547a15.412 15.412 0 0 0 3.383-6.812l6.165-4.285s.663-14.573-9.055-12.222l-11.351.4s-22.348 3.7-25.8 6.481c0 0-4.208 4.092-5.433 5.672-.462.6-.855 6.6 3.414 8.654 0 0-2.52 3.214-.3 5.032l1.04.771s-1.441 3.214-.085 4.131 12.076 4.169 15.12 2.05-.485-4.562-2.1-4.778" class="cls-11" transform="translate(-234.935 -200.088)"/>
            <path id="Path_24551" d="M241.566 433.1a9.708 9.708 0 0 1 1.256.139c.809.1 1.981.247 3.437.354.724.046 1.541.092 2.374.108s1.765 0 2.743.069a5.641 5.641 0 0 1 2.951.932 3.267 3.267 0 0 1 1.441 2.967 2.52 2.52 0 0 1-.863 1.541 4.332 4.332 0 0 1-1.456.809 13.153 13.153 0 0 1-3.013.563 27.168 27.168 0 0 1-5.155-.1c-1.456-.154-2.62-.347-3.422-.486a6.942 6.942 0 0 1-1.248-.262 8.814 8.814 0 0 1 1.264.108c.817.092 1.988.239 3.437.354a29.23 29.23 0 0 0 5.086 0 13.2 13.2 0 0 0 2.921-.563 4.137 4.137 0 0 0 1.325-.732 2.157 2.157 0 0 0 .724-1.287 2.89 2.89 0 0 0-1.272-2.6 5.457 5.457 0 0 0-2.751-.886c-.94-.085-1.865-.054-2.72-.1s-1.665-.085-2.4-.162c-1.456-.139-2.62-.324-3.429-.478a6.164 6.164 0 0 1-1.233-.293z" class="cls-12" transform="translate(-236.237 -206.307)"/>
            <path id="Path_24552" d="M240.663 424.07a8.122 8.122 0 0 1 1.256.139c.771.108 1.973.262 3.414.385s3.167.224 5.086.224a6.812 6.812 0 0 1 3.044.455 2.428 2.428 0 0 1 1.156 1.241 3.137 3.137 0 0 1 .162 1.726 4.146 4.146 0 0 1-1.95 2.674 6.689 6.689 0 0 1-2.928.948 29.066 29.066 0 0 1-5.125-.239l-3.422-.347a7.3 7.3 0 0 1-1.256-.185 8.288 8.288 0 0 1 1.264 0l3.437.224a31.993 31.993 0 0 0 5.063.146 6.365 6.365 0 0 0 2.759-.917 3.738 3.738 0 0 0 1.757-2.4 2.312 2.312 0 0 0-1.1-2.551 6.458 6.458 0 0 0-2.859-.432 45.6 45.6 0 0 1-5.109-.308c-1.449-.162-2.612-.362-3.414-.516a7.158 7.158 0 0 1-1.233-.262z" class="cls-12" transform="translate(-236.12 -204.236)"/>
            <path id="Path_24553" d="M246.746 424.118a12.623 12.623 0 0 1-.871-1.78 10.978 10.978 0 0 1-.925-1.749c.077-.077.771.555 1.279 1.541a3.321 3.321 0 0 1 .516 1.988z" class="cls-12" transform="translate(-237.232 -203.436)"/>
            <path id="Path_24554" d="M274.8 405.342l-9.109-1.21s-25.739-5.248-25.993-4.57-1.541.917-.57 3.676 15.806 5.2 16.468 6.08 1.141 5.988 6.936 8.338 9.448 1.541 9.448 1.541" class="cls-11" transform="translate(-235.814 -198.601)"/>
            <path id="Path_24555" d="M271.951 419.161l-.193.054-.593.085a13.871 13.871 0 0 1-2.312 0 20.126 20.126 0 0 1-3.568-.632 19.657 19.657 0 0 1-4.477-1.742 10.4 10.4 0 0 1-4.015-4.192 23.5 23.5 0 0 1-1.233-3 2.787 2.787 0 0 0-.17-.339.817.817 0 0 0-.27-.169 7.841 7.841 0 0 0-.771-.27c-.539-.17-1.094-.316-1.665-.462-2.266-.593-4.662-1.164-7.113-1.88-1.225-.362-2.466-.771-3.7-1.256a12.332 12.332 0 0 1-1.811-.894 4.377 4.377 0 0 1-.832-.655 1.857 1.857 0 0 1-.316-.47c-.085-.177-.108-.339-.17-.5a3.745 3.745 0 0 1-.123-2.1 2.473 2.473 0 0 1 .555-.909 1.726 1.726 0 0 0 .254-.355l.062-.1a.27.27 0 0 1 .146-.092.865.865 0 0 1 .17 0h.27c1.341.085 2.612.308 3.853.509 2.52.416 4.94.863 7.244 1.3 4.624.871 8.739 1.7 12.214 2.42.863.17 1.7.37 2.474.5l2.235.308 3.568.509 2.258.339.586.1.2.046a.609.609 0 0 1-.208 0l-.586-.054-2.273-.27-3.583-.439-2.243-.285c-.771-.123-1.611-.308-2.481-.47l-12.23-2.312c-2.312-.424-4.724-.871-7.236-1.279-1.256-.193-2.551-.416-3.853-.5h-.308a.132.132 0 0 0-.039-.092c.3.108.077 0 .146.069a1.58 1.58 0 0 1-.316.455 2.135 2.135 0 0 0-.478.771 3.391 3.391 0 0 0 .131 1.865 1.734 1.734 0 0 0 .4.817 4.054 4.054 0 0 0 .771.586 12.711 12.711 0 0 0 1.749.863c1.21.493 2.435.886 3.66 1.248 2.435.724 4.824 1.295 7.09 1.9.57.154 1.133.308 1.68.478a6.46 6.46 0 0 1 .817.293.963.963 0 0 1 .416.293 1.857 1.857 0 0 1 .208.408 23.255 23.255 0 0 0 1.21 2.975 10.065 10.065 0 0 0 3.853 4.1 19.717 19.717 0 0 0 4.395 1.766 20.265 20.265 0 0 0 3.522.686 15.569 15.569 0 0 0 2.266.077h.593z" class="cls-12" transform="translate(-235.759 -198.549)"/>
            <path id="Path_24556" d="M251.044 442.614a2.968 2.968 0 0 1 .948.046 9.1 9.1 0 0 1 2.481.732 8.166 8.166 0 0 1 1.541.925 2.743 2.743 0 0 1 1.141 1.788 2.212 2.212 0 0 1-1.141 2.034 4.277 4.277 0 0 1-2.451.509 45.953 45.953 0 0 1-8.408-1.241 21.69 21.69 0 0 1-2.466-.771 4.365 4.365 0 0 1-.871-.378 4.422 4.422 0 0 1 .917.223c.586.17 1.426.4 2.481.632a54.543 54.543 0 0 0 8.361 1.117 3.945 3.945 0 0 0 2.227-.439 1.842 1.842 0 0 0 .979-1.672 2.412 2.412 0 0 0-.979-1.541 7.707 7.707 0 0 0-1.472-.925 13.453 13.453 0 0 0-3.288-1.039z" class="cls-12" transform="translate(-236.514 -208.486)"/>
            <path id="Path_24557" d="M328.076 348.394s11.413-18.788 13.979-31.187 15.821-32.074 20.129-37.207 21.385-11.112 21.385-11.112l6.3-3.406 48.85-4.292s32.5 3.422 42.338 12.4 17.524 29.507 17.524 39.764 9.933 99.133 9.933 99.133l-120.379-.154 2.7-43.818s-14.542-9.833-18.387-18.387-1.711-4.277-1.711-4.277-13.648 29.014-18.349 32.436-59.377 20.2-59.377 20.2l-7.483-28.69z" class="cls-2" transform="translate(-246.54 -166.876)"/>
            <path id="Path_24558" d="M501.868 281.711c-1.318.408-17.624 42.523-18.772 46.353s0 27.966 0 27.966l5.394 9.964s-1.541 7.275-.385 10.727l-24.136 4.624s-6.126-4.215-11.875 0l-28.513 2.412s8.361.092 5.872 12.916c-2.435 12.561-4.292 15.32-4.292 15.32l100.066-2.312s11.12-.555 9.425-21.932-6.466-80.345-6.466-80.345-7.292-31.596-26.318-25.693z" class="cls-2" transform="translate(-278.206 -171.414)"/>
            <path id="Path_24559" d="M498.722 357.671a2.22 2.22 0 0 1-.239-.516l-.609-1.541c-.262-.655-.578-1.464-.886-2.427s-.717-2.034-1.04-3.26-.771-2.558-1.071-4.015-.663-3.013-.971-4.624a85.167 85.167 0 0 1-1.179-10.858 87.374 87.374 0 0 1 .331-10.92c.2-1.665.362-3.252.632-4.724.123-.771.223-1.449.362-2.135s.277-1.325.408-1.95c.247-1.241.563-2.312.817-3.329s.493-1.8.717-2.481.378-1.156.5-1.541a5.6 5.6 0 0 1 .2-.539 2.31 2.31 0 0 1-.123.563c-.108.393-.254.917-.432 1.541s-.431 1.541-.647 2.5-.532 2.081-.771 3.329c-.123.624-.247 1.272-.378 1.95s-.224 1.387-.339 2.119c-.254 1.472-.408 3.083-.593 4.716a81.873 81.873 0 0 0 .84 21.67c.3 1.649.578 3.214.932 4.624s.686 2.79 1.017 4.015.694 2.312.986 3.267.578 1.78.817 2.443l.539 1.541a4.615 4.615 0 0 1 .177.586z" class="cls-10" transform="translate(-294.056 -176.422)"/>
            <path id="Path_24560" d="M536.582 426.96a3.017 3.017 0 0 1-.262-.293l-.663-.886c-.285-.393-.64-.863-1.071-1.387s-.9-1.148-1.48-1.788-1.187-1.356-1.9-2.073-1.48-1.48-2.312-2.258a57.169 57.169 0 0 0-5.764-4.624 57.788 57.788 0 0 0-6.35-3.761c-1.025-.493-1.988-.979-2.928-1.356s-1.8-.771-2.6-1.04-1.541-.532-2.2-.771-1.21-.385-1.672-.509l-1.063-.316a1.4 1.4 0 0 1-.37-.139 1.711 1.711 0 0 1 .385.062l1.087.239c.47.108 1.04.247 1.7.447s1.41.4 2.219.709 1.711.593 2.643.994 1.927.848 2.959 1.333a53.314 53.314 0 0 1 6.419 3.761 54.931 54.931 0 0 1 5.78 4.67c.825.771 1.611 1.541 2.312 2.312s1.318 1.457 1.873 2.119 1.017 1.295 1.441 1.834a15.894 15.894 0 0 1 1.017 1.433c.247.4.447.678.609.932a1.589 1.589 0 0 1 .191.356z" class="cls-10" transform="translate(-297.099 -200.036)"/>
            <path id="Path_24561" d="M550.224 423.486c-.062.054-.948-.956-2.612-2.312a26.487 26.487 0 0 0-3.082-2.158 29.356 29.356 0 0 0-4.155-2.016 29.011 29.011 0 0 0-4.439-1.248 26.743 26.743 0 0 0-3.745-.439c-2.15-.085-3.483.077-3.491 0a4.143 4.143 0 0 1 .932-.154 9.507 9.507 0 0 1 1.1-.1 13.2 13.2 0 0 1 1.464 0 24.535 24.535 0 0 1 3.807.362 26.687 26.687 0 0 1 4.508 1.241 26.4 26.4 0 0 1 4.208 2.065 24.325 24.325 0 0 1 3.082 2.25 14.173 14.173 0 0 1 1.071 1 8.662 8.662 0 0 1 .771.771 4.313 4.313 0 0 1 .578.732z" class="cls-10" transform="translate(-302.318 -202.165)"/>
            <path id="Path_24562" d="M537.1 406.287c-.046.069-1.225-.871-3.383-1.934a17.506 17.506 0 0 0-1.8-.771c-.647-.277-1.372-.485-2.127-.724a24.4 24.4 0 0 0-10.226-.7c-.771.131-1.541.239-2.2.424a18.282 18.282 0 0 0-1.9.539c-2.312.771-3.576 1.541-3.614 1.449a5.033 5.033 0 0 1 .9-.547 9.064 9.064 0 0 1 1.1-.555 15.792 15.792 0 0 1 1.541-.617 16.405 16.405 0 0 1 1.9-.586 21.437 21.437 0 0 1 2.235-.478 23.488 23.488 0 0 1 10.38.717 18.81 18.81 0 0 1 2.15.771 15.976 15.976 0 0 1 1.811.84 15.115 15.115 0 0 1 1.418.825 8.172 8.172 0 0 1 1.017.694 4.461 4.461 0 0 1 .794.655z" class="cls-10" transform="translate(-298.453 -199.061)"/>
            <path id="Path_24563" d="M466.512 440.481a36.019 36.019 0 0 0 .709-4.285 27.682 27.682 0 0 0-.038-4.708 37.577 37.577 0 0 0-1-5.68 39.823 39.823 0 0 0-1.919-5.394 29.789 29.789 0 0 0-2.312-4.115 39.308 39.308 0 0 0-2.72-3.4 7.378 7.378 0 0 1 .886.771 9.838 9.838 0 0 1 .94 1.017l.555.655c.193.247.37.509.57.771a26.7 26.7 0 0 1 2.389 4.123 33.322 33.322 0 0 1 2.959 11.236 26.065 26.065 0 0 1-.046 4.762c-.039.339-.077.655-.108.963l-.17.848a8.814 8.814 0 0 1-.324 1.341 7.348 7.348 0 0 1-.37 1.094z" class="cls-10" transform="translate(-286.383 -201.674)"/>
            <path id="Path_24564" d="M444.976 385.065a.77.77 0 0 1-.046-.223 4.936 4.936 0 0 0-.108-.655c-.085-.609-.208-1.456-.362-2.535-.316-2.2-.724-5.394-1.2-9.355-.948-7.9-2.081-18.842-2.967-30.956s-1.349-23.119-1.541-31.064c-.108-3.976-.162-7.2-.177-9.425v-3.229a.116.116 0 1 1 .046 0v.67c0 .609.046 1.464.085 2.558.069 2.25.17 5.464.293 9.417.285 7.953.771 18.934 1.672 31.049s1.973 23.042 2.851 30.948c.447 3.93.817 7.121 1.071 9.363.123 1.087.216 1.934.285 2.551a5.882 5.882 0 0 0 .069.663 1.224 1.224 0 0 1 .031.224z" class="cls-10" transform="translate(-281.623 -175.18)"/>
            <path id="Path_24565" d="M391.673 363a8.794 8.794 0 0 1-.524-1.179c-.308-.771-.771-1.873-1.349-3.237-1.156-2.72-2.882-6.427-4.947-10.45s-3.93-7.591-5.325-10.272c-.67-1.325-1.21-2.4-1.541-3.144a8.422 8.422 0 0 1-.516-1.187 7.144 7.144 0 0 1 .655 1.11l1.672 3.082c1.4 2.6 3.375 6.165 5.441 10.226s3.753 7.76 4.847 10.519c.547 1.379.971 2.5 1.233 3.291a8.178 8.178 0 0 1 .354 1.241z" class="cls-10" transform="translate(-267.629 -183.469)"/>
            <path id="Path_24566" d="M383.156 350.93a2.358 2.358 0 0 1-.7-.131c-.439-.108-1.071-.293-1.849-.547a45.642 45.642 0 0 1-11.39-5.641c-.67-.462-1.2-.855-1.541-1.141a2.744 2.744 0 0 1-.524-.47 25.132 25.132 0 0 1 2.243 1.372 60.428 60.428 0 0 0 5.518 3.082c2.219 1.087 4.285 1.942 5.8 2.512a26.066 26.066 0 0 1 2.443.964z" class="cls-10" transform="translate(-265.262 -185.641)"/>
            <path id="Path_24567" d="M367.75 384.9a4.152 4.152 0 0 1-.832-.5c-.509-.347-1.264-.84-2.212-1.41a45.575 45.575 0 0 0-16.114-6.034c-1.094-.193-1.981-.316-2.6-.393a4.238 4.238 0 0 1-.956-.162 4.273 4.273 0 0 1 .971 0 21.389 21.389 0 0 1 2.628.262 40.5 40.5 0 0 1 8.477 2.158 40.974 40.974 0 0 1 7.783 3.915c.932.617 1.665 1.141 2.15 1.541a5.277 5.277 0 0 1 .7.624z" class="cls-10" transform="translate(-260.191 -193.296)"/>
            <path id="Path_24568" d="M472.54 261.28a6.224 6.224 0 0 1-.046.624c-.054.447-.123 1.04-.208 1.788-.2 1.541-.478 3.791-.948 6.55a83 83 0 0 1-2.158 9.587 44.7 44.7 0 0 1-4.832 11 33.738 33.738 0 0 1-4.015 5.148l-.154.17-.146-.193a20.384 20.384 0 0 0-7.313-6.065 19.435 19.435 0 0 0-3.853-1.418 17.052 17.052 0 0 0-3.506-.47 14.464 14.464 0 0 0-4.994.7c-1.117.393-1.711.686-1.726.647a2.772 2.772 0 0 1 .424-.224 10.45 10.45 0 0 1 1.256-.555 14 14 0 0 1 5.048-.825 17.022 17.022 0 0 1 3.576.432 19.643 19.643 0 0 1 3.93 1.4 20.538 20.538 0 0 1 7.475 6.165h-.3a34.268 34.268 0 0 0 3.961-5.086 45.4 45.4 0 0 0 4.832-10.9 90.445 90.445 0 0 0 2.235-9.525c.509-2.743.825-4.986 1.071-6.527.116-.771.216-1.333.285-1.772a2.742 2.742 0 0 1 .108-.663z" class="cls-10" transform="translate(-281.66 -166.896)"/>
            <path id="Path_24569" d="M471.066 258.981l-7.421-9.841-8.068.254-26.217 13.848z" class="cls-2" transform="translate(-279.531 -164.112)"/>
            <path id="Path_24570" d="M433.172 291.446a1.774 1.774 0 0 1-.424 0 9.389 9.389 0 0 1-1.21-.2 15.019 15.019 0 0 1-4.138-1.772 9.079 9.079 0 0 0-2.813-1.164 8.284 8.284 0 0 0-3.483 0 8.145 8.145 0 0 0-5.818 5.063l-.416 1.125v-2.142c.092-6.073.1-11.559.347-15.559.116-1.988.27-3.6.439-4.7.069-.555.154-.979.216-1.264a2.653 2.653 0 0 1 .108-.432c.039 0-.069.609-.169 1.719s-.231 2.7-.308 4.693c-.177 3.976-.131 9.471-.231 15.551v.948l-.385-.077a8.477 8.477 0 0 1 6.113-5.28 8.646 8.646 0 0 1 6.5 1.287 16.28 16.28 0 0 0 4.038 1.865c1.049.262 1.642.3 1.634.339z" class="cls-10" transform="translate(-276.208 -168.988)"/>
            <path id="Path_24571" d="M455.624 178.159v59.107a14.334 14.334 0 0 1-3.368 9.248 43.5 43.5 0 0 1-11.868 9.825l-11.914 6.712-9.864-8.831a14.357 14.357 0 0 1-4.77-10.134c-.169-4.3-.169-8.639-.169-8.639s-16.7-1.2-18.272-17.67c-.771-7.752-.971-23.635-1.01-38.277a32.043 32.043 0 0 1 29.4-32l.47-.039a30.625 30.625 0 0 1 31.364 30.7z" class="cls-11" transform="translate(-271.51 -140.786)"/>
            <path id="Path_24572" d="M419.35 258.971a38.332 38.332 0 0 0 20.992-7.891s-4.1 12.284-20.676 12.16z" class="cls-12" transform="translate(-277.235 -164.557)"/>
            <path id="Path_24573" d="M401.59 202.7a2.366 2.366 0 0 0 2.466 2.189 2.258 2.258 0 0 0 2.25-2.312 2.358 2.358 0 0 0-2.458-2.189 2.258 2.258 0 0 0-2.258 2.312z" class="cls-10" transform="translate(-273.161 -152.929)"/>
            <path id="Path_24574" d="M399.836 196.792c.316.277 1.988-1.187 4.524-1.387s4.5.909 4.747.578c.123-.154-.216-.678-1.079-1.2a6.45 6.45 0 0 0-3.853-.84 6.165 6.165 0 0 0-3.568 1.487c-.707.661-.925 1.231-.771 1.362z" class="cls-10" transform="translate(-272.749 -151.444)"/>
            <path id="Path_24575" d="M432.87 201.371a2.366 2.366 0 0 0 2.466 2.189 2.266 2.266 0 0 0 2.258-2.312 2.366 2.366 0 0 0-2.466-2.189 2.266 2.266 0 0 0-2.258 2.312z" class="cls-10" transform="translate(-280.336 -152.624)"/>
            <path id="Path_24576" d="M432.2 194.731c.316.277 2-1.187 4.524-1.387s4.5.909 4.747.57c.123-.146-.216-.678-1.079-1.194a6.5 6.5 0 0 0-3.853-.848 6.211 6.211 0 0 0-3.568 1.487c-.705.663-.936 1.241-.771 1.372z" class="cls-10" transform="translate(-280.172 -150.97)"/>
            <path id="Path_24577" d="M420.348 214.687c0-.146-1.6-.293-4.177-.408-.647 0-1.272-.085-1.418-.516a3.329 3.329 0 0 1 .27-1.957c.485-1.618.986-3.306 1.541-5.086 2.073-7.236 3.522-13.162 3.229-13.239s-2.212 5.718-4.285 12.947c-.5 1.788-.979 3.483-1.426 5.109a3.722 3.722 0 0 0-.123 2.566 1.618 1.618 0 0 0 1.141.863 4.354 4.354 0 0 0 1.11.062 21.731 21.731 0 0 0 4.138-.341z" class="cls-10" transform="translate(-275.96 -151.344)"/>
            <path id="Path_24578" d="M429.931 222.43c-.416 0-.193 2.759-2.389 4.909s-5.14 2.088-5.132 2.474c0 .17.7.478 1.942.408a6.851 6.851 0 0 0 4.292-1.911 5.949 5.949 0 0 0 1.826-4.1c.008-1.156-.354-1.81-.539-1.78z" class="cls-10" transform="translate(-277.937 -157.985)"/>
            <path id="Path_24579" d="M430.294 182.065c.308.67 2.813.131 5.811.247s5.479.724 5.818.069c.154-.308-.316-.917-1.341-1.541a10.126 10.126 0 0 0-8.862-.239c-1.056.562-1.557 1.148-1.426 1.464z" class="cls-10" transform="translate(-279.741 -148.183)"/>
            <path id="Path_24580" d="M400.246 187.1c.493.539 2.189-.2 4.285-.4s3.907.062 4.269-.57c.154-.308-.17-.863-.994-1.341a5.98 5.98 0 0 0-3.568-.655 5.888 5.888 0 0 0-3.321 1.441c-.694.672-.879 1.289-.671 1.525z" class="cls-10" transform="translate(-272.835 -149.19)"/>
            <path id="Path_24582" d="M467.43 197.316c.277-.139 11.051-4.285 11.629 7.02s-10.9 9.54-10.927 9.248-.702-16.268-.702-16.268z" class="cls-11" transform="translate(-288.264 -152.028)"/>
            <path id="Path_24583" d="M472.537 210.166c.046-.039.2.131.539.262a1.957 1.957 0 0 0 1.472-.046c1.171-.493 2.081-2.443 2.034-4.485a6.481 6.481 0 0 0-.694-2.79 2.266 2.266 0 0 0-1.541-1.433.994.994 0 0 0-1.133.6c-.139.324-.054.539-.116.563s-.247-.177-.185-.647a1.3 1.3 0 0 1 .408-.732 1.541 1.541 0 0 1 1.079-.339 2.774 2.774 0 0 1 2.142 1.649 6.651 6.651 0 0 1 .84 3.082c.046 2.312-1.01 4.47-2.62 5.024a2.1 2.1 0 0 1-1.819-.208c-.375-.23-.443-.477-.406-.5z" class="cls-12" transform="translate(-289.433 -153.096)"/>
            <path id="Path_24587" d="M529.826 332.17a3.359 3.359 0 0 0 .046.455c.046.3.054.771.1 1.325.085 1.179.2 2.913.362 5.163.308 4.531.771 11.151 1.318 19.543s1.21 18.557 1.981 30.17q.277 4.354.586 8.978c.116 1.541.177 3.082.247 4.7a22.616 22.616 0 0 1 0 2.4 23.286 23.286 0 0 1-.131 2.427l-.3 2.451c-.177.809-.354 1.626-.524 2.443a23.65 23.65 0 0 1-.771 2.412 12.575 12.575 0 0 1-1.063 2.312 13.908 13.908 0 0 1-7.637 6.936h-99.589l.069-.254c.732-2.6 1.456-5.179 2.173-7.745q.547-1.919 1.071-3.853a26.618 26.618 0 0 0 .894-3.8 16.515 16.515 0 0 0-.663-7.568 9.247 9.247 0 0 0-1.8-3.252 5.3 5.3 0 0 0-3.083-1.811l-1.58-.247 1.541-.131 28.475-2.389h-.085a9.725 9.725 0 0 1 6.165-1.888 12.33 12.33 0 0 1 5.942 1.9h-.131l24.144-4.547-.108.185a10.118 10.118 0 0 1-.416-2.844 23.194 23.194 0 0 1 .077-2.751 42.594 42.594 0 0 1 .732-5.209v.092c-1.934-3.614-3.707-6.936-5.348-9.972v-.046c-.378-8.885-.516-15.89-.447-20.668 0-2.389.116-4.223.239-5.456a9.325 9.325 0 0 1 .208-1.387c.069-.308.108-.462.108-.462a2.179 2.179 0 0 1-.077.47 10.241 10.241 0 0 0-.177 1.387c-.108 1.233-.177 3.083-.185 5.448 0 4.778.139 11.783.547 20.66v-.047c1.641 3.044 3.429 6.342 5.394 9.949v.046a43.559 43.559 0 0 0-.732 5.209 22.9 22.9 0 0 0-.069 2.728 9.926 9.926 0 0 0 .408 2.759l.046.154h-.154l-24.136 4.624h-.062l-.062-.039a11.906 11.906 0 0 0-5.764-1.819 9.309 9.309 0 0 0-5.911 1.826h-.094l-28.467 2.42v-.378a5.648 5.648 0 0 1 3.329 1.927 9.716 9.716 0 0 1 1.88 3.391 16.869 16.869 0 0 1 .686 7.745 26.394 26.394 0 0 1-.9 3.853l-1.071 3.853q-1.079 3.853-2.165 7.706l-.193-.254h23.889l75.39.054a11.559 11.559 0 0 0 4.369-2.7 16.277 16.277 0 0 0 3.044-4.077c.408-.771.7-1.541 1.048-2.312a20.411 20.411 0 0 0 .771-2.381c.247-.794.347-1.611.524-2.412s.2-1.626.3-2.427a22.982 22.982 0 0 0 .139-2.4 22.359 22.359 0 0 0 0-2.381c-.069-1.58-.123-3.136-.239-4.678q-.285-4.624-.57-8.986c-.771-11.613-1.379-21.786-1.911-30.185s-.932-15.012-1.218-19.543c-.131-2.25-.239-3.992-.308-5.171 0-.578-.054-1.017-.069-1.325s-.032-.306-.032-.306z" class="cls-10" transform="translate(-277.735 -183.157)"/>
            <path id="Path_24588" d="M527.019 277.68a14.753 14.753 0 0 1-1.372.855 32.087 32.087 0 0 0-3.568 2.558 41.861 41.861 0 0 0-9.247 11.051 91.292 91.292 0 0 0-6.165 13.1l-1.6 4.1-.447 1.117a1.625 1.625 0 0 1-.177.378 1.542 1.542 0 0 1 .1-.408c.1-.3.231-.678.378-1.141.339-.986.832-2.4 1.487-4.154a82.6 82.6 0 0 1 6.08-13.216 40.136 40.136 0 0 1 9.4-11.066 27.33 27.33 0 0 1 3.668-2.466c.447-.27.825-.432 1.063-.555a1.922 1.922 0 0 1 .4-.154z" class="cls-10" transform="translate(-296.753 -170.658)"/>
            <g id="Group_10139" class="cls-13" transform="translate(184.794 136.39)">
                <path id="Path_24589" d="M490.043 315.852a51.155 51.155 0 0 0-4.315 23.049c.293 7.83 1.233 15.682.462 23.489s-3.476 15.767-9.294 21.015a7.56 7.56 0 0 0-1.88 2.088 2.119 2.119 0 0 0 .362 2.582 3.082 3.082 0 0 0 2.42.254c5.572-.971 11.213-1.664 16.792-2.628 1.194-.208 5.209-.994 5.209-.994a21.794 21.794 0 0 1-.339-4.624c.177-1.395.724-6.165.724-6.165a8.2 8.2 0 0 0-1.071-1.988 45.583 45.583 0 0 1-4.624-11.86 54 54 0 0 1-3.645-11.444c-2.443-10.1-2.374-20.036-.817-32.836" transform="translate(-474.732 -315.79)"/>
            </g>
            <g id="Group_10140" class="cls-13" transform="translate(138.909 119.384)">
                <path id="Path_24590" d="M415.3 299.284c.455 1.156.917 2.312 1.372 3.476a1.4 1.4 0 0 0 .663.871c.686.262 1.233-.578 1.541-1.241a8.9 8.9 0 0 1 6.835-4.8c2.312-.27 4.747.408 7.051-.069a31.241 31.241 0 0 0-6.365-3.167 10.558 10.558 0 0 0-6.99-.069 6.45 6.45 0 0 0-4.215 5.263" transform="translate(-415.19 -293.722)"/>
            </g>
            <g id="Group_10141" class="cls-13" transform="translate(157.627 104.803)">
                <path id="Path_24591" d="M439.919 292.023a37.545 37.545 0 0 1 8.161.771 12.73 12.73 0 0 1 6.99 4.023c1.865 2.273 2.558 5.256 3.314 8.092.146.547.408 1.194.963 1.256a1.372 1.372 0 0 0 .925-.362c4.624-3.391 7.66-8.577 9.325-14.049a61.5 61.5 0 0 0 2.142-16.954c-2.2 3.938-3.16 8.423-4.624 12.692s-3.6 8.569-7.375 11.035a3.684 3.684 0 0 0-.863-2.7 8.076 8.076 0 0 0-2.243-1.834 21.424 21.424 0 0 0-17.154-2.1" transform="translate(-439.48 -274.8)"/>
            </g>
            <path id="Path_24592" d="M407.485 412.86h-9.44s-21.292-7.706-25.669-6.936c-3.946.663-18.379 10.249-21.208 12.153a1.78 1.78 0 0 0-.686.871 3.082 3.082 0 0 0 1.726 3.93l.293.123-.123.432a5.109 5.109 0 0 0-.224 1.726 2.081 2.081 0 0 0 3.853.894l-.539.971a2.312 2.312 0 0 0-.3 1.295l.046.871a2.374 2.374 0 0 0 1.634 2.127 2.366 2.366 0 0 0 2.466-.686c1.834-2.011 5.787-6.042 8.477-6.489a62.53 62.53 0 0 1 8.739-.439 2.967 2.967 0 0 1 2.751 1.888c-1.587.116-12.654 5.888-16.568 7.953a4.169 4.169 0 0 0-2.273 3.152c-.146 1.225.47 2.5 2.9 1.942 5.2-1.218 14.565-5.518 14.565-5.518s4.824-1.379 7.953.825c4.4 3.083 6.419 4.246 10.2 2.99a32.018 32.018 0 0 0 6.566-3.083l7.444-.771s7.042-17.524-2.583-20.221z" class="cls-11" transform="translate(-261.394 -200.062)"/>
            <path id="Path_24593" d="M380.983 419.327c0 .085-1.541-.393-4-.555a20.638 20.638 0 0 0-17.208 7.344 39.805 39.805 0 0 0-2.366 3.275 4.7 4.7 0 0 1 .47-.986 17.9 17.9 0 0 1 1.672-2.466 19.99 19.99 0 0 1 17.455-7.444 18.5 18.5 0 0 1 2.936.493 5.011 5.011 0 0 1 1.04.339z" class="cls-12" transform="translate(-263.028 -202.938)"/>
            <path id="Path_24594" d="M377.774 412.571a16.183 16.183 0 0 0-13.874 2.019 38.81 38.81 0 0 0-7.783 6.6l-2.142 2.25a5.5 5.5 0 0 1-.817.771 7.423 7.423 0 0 1 .7-.909c.47-.57 1.164-1.379 2.05-2.358a35.863 35.863 0 0 1 7.806-6.758 17.724 17.724 0 0 1 9.9-2.682 11.9 11.9 0 0 1 3.082.57 6.924 6.924 0 0 1 .771.3z" class="cls-12" transform="translate(-262.053 -201.353)"/>
            <path id="Path_24684" d="M61.165 25.741s-2.285.05-1.518 1.694c.28.6 6.056 9.709 4.73 10.945-1.142 1.064-3.59-1.185-6.32-3.066s-8.706-6.742-10.185-9.707a47.842 47.842 0 0 0-7.294-11.374c-3.074-3.315-7.129-5.9-11.619-6.428s-9.379 1.312-11.775 5.146c-1.478 2.365-1.918 5.228-3.1 7.755a10.373 10.373 0 0 1-5.117 5.287A6.7 6.7 0 0 1 1.919 25c-2-1.866-2.346-5.038-1.453-7.625a16.67 16.67 0 0 1 4.819-6.543A40.46 40.46 0 0 1 25.245.508c7.474-1.333 15.583-.09 21.791 4.284A48.767 48.767 0 0 1 63.093 24.44" class="cls-10" transform="rotate(34 91.5 237.061)"/>
        </g>
        <g id="freepik--speech-bubble--inject-5" transform="translate(1030.455 362.387)">
            <path id="Path_24595" fill="#fff" stroke="#263238" stroke-width="2px" d="M535.24 135.11a31.5 31.5 0 0 0-25.847 49.528l-3.783 11.752 11.559-3.938a31.511 31.511 0 1 0 18.048-57.342z" transform="translate(-503.727 -135.11)"/>
            <path id="Path_24682" d="M253.125 159.9l-8.882-8.991 2.984-2.948 5.188 5.251 10.779-16.9 3.537 2.255z" class="cls-2" transform="translate(-225.958 -116.456)"/>
        </g>
        <g id="freepik--Cat--inject-5" transform="translate(1050.017 545.97)">
            <path id="Path_24600" d="M633.127 447.49a7.768 7.768 0 0 0-5.117 2.844 5.625 5.625 0 0 0-.717 5.664 4.446 4.446 0 0 0 4.97 2.435 2.813 2.813 0 0 0 5.618.092 3.352 3.352 0 0 0 5.872-2.451c-.062-.886-.47-1.711-.57-2.582a27.865 27.865 0 0 1 .108-2.89 2.45 2.45 0 0 0-1.356-2.358" class="cls-10" transform="translate(-551.527 -390.345)"/>
            <path id="Path_24601" d="M583.3 452.871a33.444 33.444 0 0 1 9.833-3.93c2.489-.64 5.163-1.164 7.606-.362a7.506 7.506 0 0 1 4.809 5.071 3.714 3.714 0 0 1-.123 2.7 4.47 4.47 0 0 1-3.083 1.88c-.909.231-2.081.3-2.589-.493a3.53 3.53 0 0 1-5.171.4 3.414 3.414 0 0 1-6.5-1.911 3.761 3.761 0 0 1-3.291 1.626 3.083 3.083 0 0 1-2.72-2.312 2.62 2.62 0 0 1 1.826-2.967" class="cls-10" transform="translate(-541.249 -390.502)"/>
            <path id="Path_24602" d="M546.193 444.694a8.477 8.477 0 0 1 3.283-8.808c3.082-2.227 5.271-4.816 9.294-7.213a59.9 59.9 0 0 1 9.841-4.231c7.9-2.62 13.239-3.283 16.484-4.986 3.553-1.857 8.3-4.786 8.3-4.786l40.319 3.129s4.847 29.777-2.489 32.69c0 0-34.17.354-36.851-.832-2.913-1.287-47.37-1.264-47.239-.971z" class="cls-10" transform="translate(-532.978 -382.817)"/>
            <path id="Path_24603" d="M564.221 446.25a126.682 126.682 0 0 1-21.654 1.742 38.8 38.8 0 0 0-7.629.493 8.354 8.354 0 0 0-4.161 1.934 4.1 4.1 0 0 0-1.179 4.238 2.765 2.765 0 0 0 3.784 1.5 3.082 3.082 0 0 0 5.626 1.087 2.6 2.6 0 0 0 2.474.771 10.218 10.218 0 0 0 2.528-.979c3.514-1.641 7.252-1.233 11.135-1.21 6.781.046 14.457 0 11.629 0" class="cls-10" transform="translate(-529.182 -390.061)"/>
            <path id="Path_24604" d="M566.7 455.839a4.637 4.637 0 0 1 .57-.039v.069h-1.611l-6.165.069h-4.331c-1.541 0-3.252-.077-5.024 0a16.182 16.182 0 0 0-5.479.979 28.508 28.508 0 0 1-2.8 1.179 3.614 3.614 0 0 1-1.626.092 2.419 2.419 0 0 1-1.472-.84h.324a3.275 3.275 0 0 1-6-1.148l.308.131a2.813 2.813 0 0 1-3.2-.393 3 3 0 0 1-1.056-1.88 4.069 4.069 0 0 1 .27-2.1 5.51 5.51 0 0 1 2.859-2.844 12.771 12.771 0 0 1 3.753-1.017 30.5 30.5 0 0 1 3.7-.262c4.8 0 9.116-.046 12.731-.316s6.535-.632 8.546-.886l2.312-.3.6-.069h.208l-.2.054-.6.108-2.312.37c-2.011.3-4.924.724-8.546 1.017s-7.961.362-12.746.4a31.266 31.266 0 0 0-3.653.27 12.568 12.568 0 0 0-3.637.994 5.094 5.094 0 0 0-2.659 2.643 3.013 3.013 0 0 0 .678 3.522 2.4 2.4 0 0 0 2.72.362l.247-.162.054.293a2.882 2.882 0 0 0 5.271 1.017l.146-.231.17.216a2.551 2.551 0 0 0 2.689.624 29.589 29.589 0 0 0 2.767-1.156 16.222 16.222 0 0 1 5.6-.971c1.8-.039 3.475.062 5.04.069l4.323.039 6.165.046h1.611v.069a2.936 2.936 0 0 1-.545-.018z" class="cls-9" transform="translate(-529.111 -390.063)"/>
            <path id="Path_24605" d="M643 454.214a2.125 2.125 0 0 1 .455.593 3.46 3.46 0 0 1 .37 2.081 3.583 3.583 0 0 1-.516 1.449 3.083 3.083 0 0 1-1.379 1.187 3.637 3.637 0 0 1-4.1-.879l.277-.054a3.152 3.152 0 0 1-5.98 0l.231.123a4.879 4.879 0 0 1-5.394-3.082 5.819 5.819 0 0 1 .331-4.893 7.945 7.945 0 0 1 3.221-3.291 11.089 11.089 0 0 1 3.976-1.256 17.447 17.447 0 0 1 3.622-.062 48.6 48.6 0 0 1 5.156.771l1.387.27a3.73 3.73 0 0 1 .478.116 1.834 1.834 0 0 1-.493 0l-1.4-.2c-1.218-.177-2.967-.516-5.148-.67a13.34 13.34 0 0 0-7.39 1.356 7.56 7.56 0 0 0-3.082 3.144 5.4 5.4 0 0 0-.316 4.562 4.574 4.574 0 0 0 4.963 2.844h.177l.054.17a2.859 2.859 0 0 0 2.79 1.927 2.913 2.913 0 0 0 2.512-1.888l.093-.27.185.216a3.352 3.352 0 0 0 3.745.848 3.082 3.082 0 0 0 1.811-2.42 3.436 3.436 0 0 0-.27-2c-.211-.484-.388-.676-.366-.692z" class="cls-9" transform="translate(-551.467 -390.018)"/>
            <path id="Path_24606" d="M652.988 446.03c-.046.046-.462-.362-1.272-.771a6.3 6.3 0 0 0-6.72.339c-.771.524-1.133.971-1.187.925a3.144 3.144 0 0 1 1.017-1.148 6.019 6.019 0 0 1 7.036-.362 3.13 3.13 0 0 1 1.125 1.017z" class="cls-9" transform="translate(-555.42 -389.556)"/>
            <path id="Path_24607" d="M583.017 453.229a1.723 1.723 0 0 1-.3-.2 3.468 3.468 0 0 1-.663-.771 4.777 4.777 0 0 1-.432-3.707 7.521 7.521 0 0 1 3.622-4.192 60.268 60.268 0 0 1 6.265-2.682 21.454 21.454 0 0 0 10.791-11.243 10.287 10.287 0 0 1 .539-1.264 1.661 1.661 0 0 1-.077.347c-.069.223-.154.563-.316.971a18.328 18.328 0 0 1-1.626 3.391 20.807 20.807 0 0 1-9.155 8.169c-2.227.986-4.462 1.541-6.242 2.628a7.344 7.344 0 0 0-3.537 3.953 4.686 4.686 0 0 0 .293 3.553 5.439 5.439 0 0 0 .838 1.047z" class="cls-9" transform="translate(-541.112 -386.143)"/>
            <path id="Path_24608" d="M601.195 457.3a3.855 3.855 0 0 0 .878.686 3.337 3.337 0 0 0 2.882.046 3.853 3.853 0 0 0 2-3.645 5.055 5.055 0 0 0-.7-2.474 6.6 6.6 0 0 0-1.919-2.034 9.247 9.247 0 0 0-5.186-1.541 16.561 16.561 0 0 0-4.47.686c-1.248.354-2.242.709-2.928.94a7.248 7.248 0 0 1-1.087.339 5.494 5.494 0 0 1 1.025-.486c.678-.277 1.657-.67 2.913-1.063a15.737 15.737 0 0 1 4.547-.771 9.386 9.386 0 0 1 5.394 1.6 6.8 6.8 0 0 1 2.034 2.165 5.394 5.394 0 0 1 .732 2.674 4.077 4.077 0 0 1-2.25 3.9 3.414 3.414 0 0 1-3.083-.162 2.5 2.5 0 0 1-.647-.563 1.529 1.529 0 0 1-.135-.297z" class="cls-9" transform="translate(-543.229 -390.457)"/>
            <path id="Path_24609" d="M598.5 459.447a3.421 3.421 0 0 0 1.287.832 3.753 3.753 0 0 0 1.6.27 2.135 2.135 0 0 0 1.541-1.04 2.443 2.443 0 0 0 .162-1.9 4.724 4.724 0 0 0-.771-1.472 12.187 12.187 0 0 1-.986-1.241 4.277 4.277 0 0 1 1.2 1.063 4.4 4.4 0 0 1 .9 1.541 2.782 2.782 0 0 1-.162 2.2 2.489 2.489 0 0 1-1.865 1.21 3.684 3.684 0 0 1-1.757-.378 2.937 2.937 0 0 1-.979-.7c-.164-.232-.195-.378-.17-.385z" class="cls-9" transform="translate(-545.025 -392.045)"/>
            <path id="Path_24610" d="M590.038 457.831a5.014 5.014 0 0 1 0 .609 2.99 2.99 0 0 0 .424 1.541 2.79 2.79 0 0 0 1.842 1.341 3.29 3.29 0 0 0 2.7-.624 3.745 3.745 0 0 0 1.325-2.5 4.131 4.131 0 0 0-.447-2.312 7.459 7.459 0 0 0-1.4-1.749 2.045 2.045 0 0 1 .539.316 4.511 4.511 0 0 1 1.11 1.3 4.2 4.2 0 0 1 .57 2.481 4.023 4.023 0 0 1-1.441 2.767 3.63 3.63 0 0 1-3.083.678 3.013 3.013 0 0 1-2-1.541 2.86 2.86 0 0 1-.331-1.68 1.2 1.2 0 0 1 .192-.627z" class="cls-9" transform="translate(-543.038 -391.87)"/>
            <path id="Path_24611" d="M609.167 412.377s8.531 9.394 19.111 8.207 18.749-11.451 18.749-11.451c1.626-2.582.956-5.248.447-7.221s-1.48-3.853-1.487-5.9a17.936 17.936 0 0 1 1.187-5.063 47.523 47.523 0 0 0 1.464-11.559c.069-1.672 0-3.66-1.433-4.554a3.206 3.206 0 0 0-2.982-.054 8.876 8.876 0 0 0-2.466 1.857 105.264 105.264 0 0 0-8.962 9.756 11.652 11.652 0 0 0-14.457 1.164c-4.524-1.9-6.019-8.238-10.65-9.864a3.329 3.329 0 0 0-3.082.223c-1.133.848-1.195 2.481-1.148 3.892.193 6.342.424 12.869 3.005 18.665a12.523 12.523 0 0 0 2.45 11.39" class="cls-10" transform="translate(-546.162 -373.589)"/>
            <path id="Path_24612" d="M631 424.855a4.254 4.254 0 0 1 5.256-1.495 1.426 1.426 0 0 1 .593.424.609.609 0 0 1 .054.686.524.524 0 0 0-.771 0 1.24 1.24 0 0 0-.27.84 2.9 2.9 0 0 1-.1.894 1.1 1.1 0 0 1-.771.663 1.086 1.086 0 0 1-.979-.331 3.446 3.446 0 0 1-.462-.825 1.056 1.056 0 0 0-.67-.624 1.472 1.472 0 0 0-.771.162.979.979 0 0 1-.732.069c-.231-.108-.339-.47-.131-.609" class="cls-9" transform="translate(-552.482 -384.725)"/>
            <path id="Path_24613" d="M636.042 426.93c.062 0 .046.339.17.84a3.082 3.082 0 0 0 2.813 2.381c.516.039.848-.039.863 0s-.293.223-.863.262a3.036 3.036 0 0 1-2.065-.7 2.974 2.974 0 0 1-1.025-1.919c-.062-.54.046-.872.107-.864z" class="cls-9" transform="translate(-553.61 -385.629)"/>
            <path id="Path_24614" d="M634.907 426.28a1.621 1.621 0 0 1 .285 1.04 3.16 3.16 0 0 1-3.476 3.252c-.686-.069-1.04-.324-1.017-.362s.4.085 1.025.077a3.083 3.083 0 0 0 3.183-2.975c.054-.624-.069-1.012 0-1.032z" class="cls-9" transform="translate(-552.413 -385.48)"/>
            <path id="Path_24615" d="M653.925 430.243a20.43 20.43 0 0 0-11.475-1.433 5.4 5.4 0 0 1 1.68-.455 15.128 15.128 0 0 1 8.277 1.025 5.25 5.25 0 0 1 1.518.863z" class="cls-9" transform="translate(-555.108 -385.914)"/>
            <path id="Path_24616" d="M658.57 427.717c0 .062-.971-.177-2.52-.447a37.822 37.822 0 0 0-12.222-.208c-1.541.223-2.512.424-2.528.362a2.4 2.4 0 0 1 .655-.224c.424-.131 1.048-.27 1.826-.424a31.286 31.286 0 0 1 12.33.208c.771.177 1.395.347 1.819.485a2.351 2.351 0 0 1 .64.248z" class="cls-9" transform="translate(-554.844 -385.476)"/>
            <path id="Path_24617" d="M661.148 420.966c0 .062-1.171 0-3.083 0a40.182 40.182 0 0 0-7.267.6 25.858 25.858 0 0 0-6.936 2.258c-1.672.84-2.6 1.541-2.643 1.48a3.081 3.081 0 0 1 .624-.532 17.88 17.88 0 0 1 1.888-1.2 23.626 23.626 0 0 1 6.936-2.4 34.476 34.476 0 0 1 7.352-.486 19.8 19.8 0 0 1 2.219.146 3.71 3.71 0 0 1 .909.139z" class="cls-9" transform="translate(-554.826 -384.189)"/>
            <path id="Path_24618" d="M609.74 435.478a4.388 4.388 0 0 1 .455-.447 14.917 14.917 0 0 1 1.372-1.04 21.385 21.385 0 0 1 10.658-3.6 14.23 14.23 0 0 1 1.719 0 2.129 2.129 0 0 1 .632.077c0 .069-.894.069-2.312.208a24.961 24.961 0 0 0-10.527 3.56c-1.237.711-1.951 1.242-1.997 1.242z" class="cls-9" transform="translate(-547.605 -386.417)"/>
            <path id="Path_24619" d="M608.9 430.7a3.85 3.85 0 0 1 .586-.308c.385-.17.956-.393 1.672-.64a27.958 27.958 0 0 1 11.69-1.256c.771.085 1.356.177 1.765.262a2.219 2.219 0 0 1 .64.177c0 .062-.932-.062-2.435-.162a35.723 35.723 0 0 0-5.834.123 35.365 35.365 0 0 0-5.733 1.125 24.173 24.173 0 0 1-2.35.678z" class="cls-9" transform="translate(-547.413 -385.953)"/>
            <path id="Path_24620" d="M601.93 428.35a3.676 3.676 0 0 1 .771-.37 22.124 22.124 0 0 1 2.273-.771 32.729 32.729 0 0 1 15.667-.547 23.574 23.574 0 0 1 2.312.6 3.251 3.251 0 0 1 .825.308c0 .069-1.218-.277-3.2-.632a37.059 37.059 0 0 0-15.513.593c-1.94.457-3.081.881-3.135.819z" class="cls-9" transform="translate(-545.814 -385.408)"/>
            <path id="Path_24621" d="M626.143 414.715a2.659 2.659 0 0 1-1.187.848 5.271 5.271 0 0 1-6.412-1.665 2.682 2.682 0 0 1-.624-1.318c.062 0 .285.485.848 1.141a5.441 5.441 0 0 0 6.08 1.58c.84-.301 1.252-.64 1.295-.586z" class="cls-9" transform="translate(-549.482 -382.338)"/>
            <path id="Path_24622" d="M648.725 410.55a2.05 2.05 0 0 1-.131 1.395 4.269 4.269 0 0 1-2.35 2.4 8.223 8.223 0 0 1-3.314.609 4.5 4.5 0 0 1-1.379-.108 5.023 5.023 0 0 1 1.372-.177 9.763 9.763 0 0 0 3.152-.686 4.377 4.377 0 0 0 2.258-2.15 12.248 12.248 0 0 0 .393-1.287z" class="cls-9" transform="translate(-554.902 -381.872)"/>
            <path id="Path_24623" d="M610.513 392.665a8.364 8.364 0 0 0 1.287-1.634 3.661 3.661 0 0 0 .478-2.135 4.623 4.623 0 0 0-.979-2.1 20.152 20.152 0 0 0-4.231-4.292s-1.218-.925-1.765 0c-.37.616-.139 10.735 1.272 11.382s3.938-1.221 3.938-1.221z" class="cls-9" transform="translate(-546.552 -375.346)"/>
            <path id="Path_24624" d="M655.77 376.974c-2.25 1.765-3.083 4.8-4.8 7.113a6.8 6.8 0 0 0-.771 1.318 2.2 2.2 0 0 0-.131 1.5 2.89 2.89 0 0 0 .971 1.248 11.559 11.559 0 0 0 2.982 1.811s2.312.717 2.951-1.4.309-12.746-1.202-11.59z" class="cls-9" transform="translate(-556.838 -374.15)"/>
            <path id="Path_24625" d="M556.874 419.846c-2.713.416-8.978-.624-10.789-2.512s-1.318-4.847-.324-7.4a61.334 61.334 0 0 1 3.853-7.267 29.374 29.374 0 0 0 3.9-13.054 17.081 17.081 0 0 0-4.624-12.554c-3.26-3.237-8.361-4.693-12.638-3.036-3.514 1.364-6.234 5.394-4.878 8.939.855 2.2 2.99 3.6 4.493 5.394a11.128 11.128 0 0 1 2.219 9.394c-.771 3.537-3.306 6.473-4.254 9.972-1.441 5.333 1.171 11.251 5.579 14.6s10.249 4.339 15.736 3.691" class="cls-10" transform="translate(-529.549 -373.336)"/>
            <path id="Path_24626" d="M637.377 430.914s.331 2.065-.378 2.905a1.749 1.749 0 0 1-3.036-.324 4.7 4.7 0 0 1-.493-2.112s1.834-.663 2.1-1.734a2.936 2.936 0 0 0 1.811 1.264z" class="cls-2" transform="translate(-553.049 -386.253)"/>
            <path id="Path_24627" d="M644.432 432.379a3.682 3.682 0 0 1-.6.678 13.864 13.864 0 0 1-1.911 1.541 15.636 15.636 0 0 1-15.574 1.256 14.637 14.637 0 0 1-2.135-1.241 4.188 4.188 0 0 1-.7-.57c.046-.069 1.063.732 2.951 1.541a16.183 16.183 0 0 0 15.3-1.187c1.737-1.124 2.616-2.079 2.669-2.018z" class="cls-9" transform="translate(-550.764 -386.878)"/>
            <path id="Path_24628" d="M635.361 450.39c0 .062-.532.347-1.233 1.048a5.957 5.957 0 0 0-1.1 7.059c.455.879.909 1.326.855 1.372a3.291 3.291 0 0 1-1.1-1.233 5.826 5.826 0 0 1 1.156-7.406 3.222 3.222 0 0 1 1.426-.84z" class="cls-9" transform="translate(-552.697 -391.01)"/>
            <path id="Path_24629" d="M644.753 451.527a8.376 8.376 0 0 0-1.541.416 4.716 4.716 0 0 0-2.389 2.7 6.858 6.858 0 0 0-.054 3.7c.231.94.493 1.541.432 1.541a3.736 3.736 0 0 1-.7-1.449 6.312 6.312 0 0 1-.054-3.907 4.624 4.624 0 0 1 2.653-2.828 2.366 2.366 0 0 1 1.649-.17z" class="cls-9" transform="translate(-554.583 -391.253)"/>
            <path id="Path_24630" d="M617.05 445.079a3.629 3.629 0 0 1-.632 1.1 12.806 12.806 0 0 1-2.065 2.312 10.25 10.25 0 0 1-2.628 1.618 3.352 3.352 0 0 1-1.225.362 27.878 27.878 0 0 0 3.6-2.312c1.794-1.538 2.842-3.141 2.95-3.08z" class="cls-9" transform="translate(-547.779 -389.792)"/>
            <path id="Path_24631" d="M593.043 415a2.542 2.542 0 0 1-.439.339c-.293.216-.771.509-1.326.879a45.96 45.96 0 0 1-5.148 2.743 77.992 77.992 0 0 1-8.068 3.121c-3.083 1.01-6.535 1.965-10.088 3.144a59.342 59.342 0 0 0-9.725 4.038 33.044 33.044 0 0 0-6.982 4.971 24.911 24.911 0 0 0-3.73 4.416c-.771 1.148-1.079 1.834-1.117 1.811a2.506 2.506 0 0 1 .224-.5 14.48 14.48 0 0 1 .771-1.395 23.123 23.123 0 0 1 3.668-4.539 32.273 32.273 0 0 1 7-5.086 57.55 57.55 0 0 1 9.771-4.092c3.568-1.187 7.02-2.127 10.111-3.121a82.55 82.55 0 0 0 8.061-3.029 55.264 55.264 0 0 0 5.186-2.612c.593-.347 1.048-.624 1.356-.817a3.523 3.523 0 0 1 .475-.271z" class="cls-9" transform="translate(-533.081 -382.893)"/>
            <path id="Path_24632" d="M611.082 420.515a5.323 5.323 0 0 1-1.2-1.364 13.872 13.872 0 0 1-1.934-3.953 14.172 14.172 0 0 1-.616-4.354 5.634 5.634 0 0 1 .223-1.8 22.648 22.648 0 0 0 .771 6.042 22.381 22.381 0 0 0 2.756 5.429z" class="cls-9" transform="translate(-547.051 -381.526)"/>
        </g>
        <g id="freepik--Device--inject-5" transform="translate(810.078 535.323)">
            <path id="Path_24633" d="M243.945 435.265l-25.569-64.185a8.392 8.392 0 0 1 7.768-11.559h79.652a8.392 8.392 0 0 1 7.945 5.693l21.959 64.733 25.654.123c2.081 0 3.768 3.082 3.768 5.14l-28.236-.324z" class="cls-10" transform="translate(-217.755 -359.52)"/>
            <path id="Path_24634" d="M249.692 378.748a8.909 8.909 0 0 0-5.148 1.379 6.7 6.7 0 0 0-1.4 1.164 10.065 10.065 0 0 0-2.828 9.17c.971 4.655 3.969 5.294 5.394 5.448s11.189-2.628 11.189-2.628 3.545-3.013 2.312-6.974c-1.134-3.398-4.279-7.367-9.519-7.559z" class="cls-2" transform="translate(-222.878 -363.929)"/>
            <path id="Path_24635" d="M246.49 398.038s.354 2.489 1.6 3.082 3.576.516 5.394.069 4.439-1.464 4.747-2.844a5.8 5.8 0 0 0-.154-3.244 8.13 8.13 0 0 0-6.566-.609 8.677 8.677 0 0 0-5.021 3.546z" class="cls-6" transform="translate(-224.346 -367.444)"/>
            <g id="Group_10142" class="cls-15" transform="translate(20.842 15.164)">
                <path id="Path_24636" d="M254.032 382.744a4.685 4.685 0 1 1-5.687-3.406 4.685 4.685 0 0 1 5.687 3.406z" class="cls-8" transform="translate(-244.801 -379.197)"/>
            </g>
            <g id="Group_10143" class="cls-15" transform="translate(17.268 21.177)">
                <path id="Path_24637" d="M241.139 394.706a6.011 6.011 0 0 0 1.333-3.976 5.857 5.857 0 0 0-1.742-3.73 11.5 11.5 0 0 0-.509 4.739 8.562 8.562 0 0 0 .917 2.967z" class="cls-8" transform="translate(-240.163 -387)"/>
            </g>
            <g id="Group_10144" class="cls-15" transform="translate(32.975 17.501)">
                <path id="Path_24638" d="M264.132 389.027a5.957 5.957 0 0 1-3.044-2.874 5.294 5.294 0 0 1-.3-3.922 13.015 13.015 0 0 1 2.659 3.738c.909 2.149.685 3.058.685 3.058z" class="cls-8" transform="translate(-260.545 -382.23)"/>
            </g>
            <path id="Path_24639" d="M296.437 410.551a5.179 5.179 0 1 1-5.179-5.171 5.179 5.179 0 0 1 5.179 5.171z" class="cls-6" transform="translate(-233.427 -370.039)"/>
        </g>
        <g id="freepik--Desk--inject-5" transform="translate(704.144 610.49)">
            <path id="Path_24640" d="M553.454 457.26c0 .108-105.93.2-236.582.2s-236.582-.092-236.582-.2 105.907-.2 236.582-.2 236.582.085 236.582.2z" class="cls-10" transform="translate(-80.29 -457.06)"/>
        </g>
        <g id="freepik--Plant--inject-5" transform="translate(759.443 532.987)">
            <path id="Path_24641" d="M168.122 408.6c-7.537-4.369-11.559-14.534-11.868-22.857s3.16-16.992 10.018-21.762c7.182-5.024 17.416-4.932 24.8-.208s11.714 13.655 11.374 22.418a29.848 29.848 0 0 1-12.168 22.348" class="cls-2" transform="translate(-153.009 -357.345)"/>
            <path id="Path_24642" d="M186.629 409.6a9.686 9.686 0 0 1-.139-1.9c-.039-1.364-.092-3.082-.146-5.186-.116-4.385-.285-10.434-.578-17.108s-.655-12.723-.932-17.093c-.123-2.088-.223-3.853-.308-5.186a9.247 9.247 0 0 1 0-1.9 9.84 9.84 0 0 1 .3 1.88c.146 1.218.331 2.982.532 5.171.4 4.362.84 10.411 1.133 17.1s.385 12.746.37 17.131c0 2.189 0 3.969-.077 5.194a10.2 10.2 0 0 1-.154 1.9z" class="cls-8" transform="translate(-159.487 -357.574)"/>
            <path id="Path_24643" d="M157.57 390.691c0 .193-1.218.254-2.682.131s-2.643-.378-2.628-.57 1.218-.254 2.682-.131 2.643.379 2.628.57z" class="cls-10" transform="translate(-152.097 -364.189)"/>
            <path id="Path_24644" d="M158.4 380.6c-.085.177-1.117-.108-2.312-.64s-2.1-1.11-2.027-1.287 1.117.108 2.312.64 2.101 1.141 2.027 1.287z" class="cls-10" transform="translate(-152.509 -361.566)"/>
            <path id="Path_24645" d="M163.383 372.936c-.1.162-1.264-.385-2.481-1.387s-1.965-2.05-1.826-2.173 1.1.655 2.312 1.626 2.103 1.773 1.995 1.934z" class="cls-10" transform="translate(-153.657 -359.442)"/>
            <path id="Path_24646" d="M169.115 365.973c-.177.077-.771-.771-1.248-1.95s-.771-2.158-.6-2.235.771.771 1.248 1.95.777 2.162.6 2.235z" class="cls-10" transform="translate(-155.528 -357.704)"/>
            <path id="Path_24647" d="M177.093 361.052c-.177.077-.771-.848-1.179-2.135s-.432-2.4-.247-2.427.532.979.925 2.212.678 2.265.501 2.35z" class="cls-10" transform="translate(-157.441 -356.489)"/>
            <path id="Path_24648" d="M190.3 357c.185.069.069.863-.254 1.772s-.771 1.6-.917 1.541-.069-.863.254-1.772.732-1.62.917-1.541z" class="cls-10" transform="translate(-160.538 -356.605)"/>
            <path id="Path_24649" d="M199.617 361.153c.131.146-.347.771-1.071 1.472s-1.426 1.1-1.541.963.347-.809 1.071-1.48 1.41-1.078 1.541-.955z" class="cls-10" transform="translate(-162.357 -357.554)"/>
            <path id="Path_24650" d="M208.1 366.678c.108.162-.478.771-1.31 1.318s-1.6.886-1.711.724.478-.771 1.31-1.31 1.577-.894 1.711-.732z" class="cls-10" transform="translate(-164.209 -358.817)"/>
            <path id="Path_24651" d="M213.747 374.925c.077.185-.848.771-2.065 1.264s-2.266.771-2.312.616.848-.771 2.065-1.264 2.273-.794 2.312-.616z" class="cls-10" transform="translate(-165.197 -360.706)"/>
            <path id="Path_24652" d="M216.172 383.888c0 .193-.917.47-2.1.616s-2.165.108-2.189-.085.917-.47 2.1-.616 2.166-.103 2.189.085z" class="cls-10" transform="translate(-165.773 -362.734)"/>
            <path id="Path_24653" d="M217.441 394.44c-.077.177-1.079-.085-2.235-.593s-2.034-1.056-1.957-1.233 1.079.085 2.235.586 2.034 1.07 1.957 1.24z" class="cls-10" transform="translate(-166.086 -364.762)"/>
            <path id="Path_24654" d="M216.217 403.614c-.062.177-1.333-.123-2.659-.994s-2.112-1.9-1.973-2.034 1.11.632 2.358 1.441 2.343 1.394 2.274 1.587z" class="cls-10" transform="translate(-165.702 -366.6)"/>
            <path id="Path_24655" d="M211.623 412.071c-.116.154-1.125-.439-2.1-1.487s-1.487-2.088-1.325-2.2.917.717 1.842 1.718 1.706 1.838 1.583 1.969z" class="cls-10" transform="translate(-164.922 -368.391)"/>
            <path id="Path_24656" d="M164.154 414.181c.092.17-.971.9-2.366 1.626s-2.6 1.179-2.689 1 .963-.9 2.366-1.626a6.521 6.521 0 0 1 2.689-1z" class="cls-10" transform="translate(-153.665 -369.716)"/>
            <path id="Path_24657" d="M160.153 406.345c.077.177-.771.771-1.9 1.248s-2.112.771-2.189.609.771-.771 1.9-1.248 2.104-.786 2.189-.609z" class="cls-10" transform="translate(-152.97 -367.913)"/>
            <path id="Path_24658" d="M156.8 399.388c0 .193-1.017.5-2.312.686s-2.4.185-2.435 0 1.025-.5 2.312-.686 2.409-.188 2.435 0z" class="cls-10" transform="translate(-152.049 -366.297)"/>
            <path id="Path_24659" d="M167.145 395.583c.062.185-.963.655-2.312.809s-2.458-.085-2.443-.27 1.071-.285 2.366-.432 2.335-.299 2.389-.107z" class="cls-10" transform="translate(-154.421 -365.436)"/>
            <path id="Path_24660" d="M176.029 387.026c.054.177-.771.593-1.85.694s-1.973-.131-1.95-.324.863-.277 1.88-.378 1.858-.185 1.92.008z" class="cls-10" transform="translate(-156.678 -363.467)"/>
            <path id="Path_24661" d="M177.7 379.795c-.062.185-.94.054-1.965-.3s-1.8-.771-1.726-.971.94-.054 1.957.3 1.796.816 1.734.971z" class="cls-10" transform="translate(-157.085 -361.522)"/>
            <path id="Path_24662" d="M181.539 372.509c-.131.139-.771-.262-1.164-1.009s-.478-1.472-.293-1.541.516.5.9 1.164.665 1.255.557 1.386z" class="cls-10" transform="translate(-158.458 -359.577)"/>
            <path id="Path_24663" d="M177.177 401.605c.046.193-.709.539-1.7.771a6.572 6.572 0 0 1-1.426.208l-.146-.416c.262-.046.424 0 .455.046s-.069.2-.277.354l-.139-.408a6.239 6.239 0 0 1 1.364-.47c.983-.231 1.823-.27 1.869-.085z" class="cls-10" transform="translate(-157.063 -366.811)"/>
            <path id="Path_24664" d="M178.554 413.773c.077.185-.894.732-2.165 1.233s-2.35.771-2.42.57.894-.732 2.165-1.225 2.351-.751 2.42-.578z" class="cls-10" transform="translate(-157.076 -369.616)"/>
            <path id="Path_24665" d="M169.282 408.371c.062.185-.578.57-1.441.863s-1.611.378-1.672.193.586-.57 1.441-.863 1.61-.378 1.672-.193z" class="cls-10" transform="translate(-155.287 -368.367)"/>
            <path id="Path_24666" d="M169.618 383.167c-.046.185-1.171.077-2.474-.393s-2.25-1.079-2.165-1.248 1.133.139 2.4.586 2.239.863 2.239 1.055z" class="cls-10" transform="translate(-155.014 -362.221)"/>
            <path id="Path_24667" d="M193.5 380.987c.108.162-.532.771-1.418 1.356s-1.7.932-1.8.771.524-.771 1.41-1.356 1.698-.949 1.808-.771z" class="cls-10" transform="translate(-160.815 -362.098)"/>
            <path id="Path_24668" d="M194.8 393.139c.046.193-.624.493-1.487.67s-1.587.17-1.634 0 .632-.493 1.495-.67 1.588-.193 1.626 0z" class="cls-10" transform="translate(-161.139 -364.864)"/>
            <path id="Path_24669" d="M196.03 406.333c-.085.177-1.04-.092-2.142-.609s-1.934-1.063-1.85-1.241 1.04.092 2.142.6 1.935 1.073 1.85 1.25z" class="cls-10" transform="translate(-161.22 -367.485)"/>
            <path id="Path_24670" d="M193.4 419.435c-.154.123-.771-.385-1.395-1.133s-.994-1.464-.848-1.587.771.385 1.395 1.133.997 1.463.848 1.587z" class="cls-10" transform="translate(-161.013 -370.299)"/>
            <path id="Path_24671" d="M192.711 371.984c.123.146-.293.663-.994 1.017s-1.364.378-1.418.193.462-.5 1.1-.825 1.201-.547 1.312-.385z" class="cls-10" transform="translate(-160.822 -360.031)"/>
            <path id="Path_24672" d="M203.839 384.27c.062.177-.771.632-1.88.771s-2.034-.054-2.019-.239.879-.308 1.919-.462 1.88-.255 1.98-.07z" class="cls-10" transform="translate(-163.034 -362.838)"/>
            <path id="Path_24673" d="M201.446 373.241c.085.17-.732.771-1.888 1.117s-2.165.37-2.189.185.871-.5 1.973-.855 2.012-.648 2.104-.447z" class="cls-10" transform="translate(-162.445 -360.317)"/>
            <path id="Path_24674" d="M205.684 401.07c0 .193-1.395.316-3.083 0s-2.944-.909-2.882-1.087 1.387.1 3.005.385 2.968.502 2.96.702z" class="cls-10" transform="translate(-162.983 -366.453)"/>
            <path id="Path_24675" d="M202.09 416.359c-.116.154-1.141-.447-2.165-1.48s-1.626-2.058-1.472-2.173.979.678 1.973 1.672 1.788 1.827 1.664 1.981z" class="cls-10" transform="translate(-162.688 -369.381)"/>
            <path id="Path_24676" d="M179.984 360.2a31.128 31.128 0 0 0-6.165 4.893 30.209 30.209 0 0 0-7.706 17.046 38.338 38.338 0 0 0 .462 10.442 81.368 81.368 0 0 0 1.957 8.377c.678 2.358 1.3 4.254 1.718 5.564a13.478 13.478 0 0 1 .593 2.058 11.853 11.853 0 0 1-.855-1.965c-.493-1.287-1.194-3.16-1.934-5.51a70.506 70.506 0 0 1-2.119-8.415 37.421 37.421 0 0 1-.524-10.635 29.617 29.617 0 0 1 8.053-17.308 22.23 22.23 0 0 1 4.624-3.614 14.351 14.351 0 0 1 1.418-.771 1.527 1.527 0 0 1 .478-.162z" class="cls-8" transform="translate(-155.077 -357.339)"/>
            <path id="Path_24677" d="M193.835 409.11a77.983 77.983 0 0 0 3.175-7.591 42.831 42.831 0 0 0 1.9-19.5 36.551 36.551 0 0 0-3.005-10.4 24.514 24.514 0 0 0-5.125-7.136 18.642 18.642 0 0 0-5.024-3.175c-1.31-.547-2.088-.678-2.081-.771a1.657 1.657 0 0 1 .578.039 10.991 10.991 0 0 1 1.6.432 17.555 17.555 0 0 1 5.256 3.082 24.128 24.128 0 0 1 5.394 7.236 35.974 35.974 0 0 1 3.082 10.581 41.375 41.375 0 0 1-2.127 19.767c-.393 1.218-.909 2.258-1.295 3.206a18.692 18.692 0 0 1-1.171 2.312 12.63 12.63 0 0 1-1.156 1.919z" class="cls-8" transform="translate(-159.302 -357.415)"/>
            <path id="Path_24678" d="M161.37 421.4h38.924l.239 7.791H161.37z" class="cls-10" transform="translate(-154.187 -371.378)"/>
            <path id="Path_24679" d="M165.66 426.45l2.235 23.789h28.459l2.289-23.527z" class="cls-10" transform="translate(-155.171 -372.536)"/>
            <path id="Path_24680" d="M200.535 431.524c0 .193-8.762.355-19.574.355s-19.582-.162-19.582-.355 8.762-.354 19.582-.354 19.574.162 19.574.354z" class="cls-9" transform="translate(-154.189 -373.619)"/>
            <path id="Path_24681" d="M198.124 440.316a5.826 5.826 0 0 1-.817 1.541 22.394 22.394 0 0 1-3.021 3.568l-.177.169-.177-.185a56.527 56.527 0 0 0-7.629-6.681h.432l-3.383 2.967-4 3.483-.223.193-.223-.193-6.5-5.464.378-.039-3.36 4.1a9.247 9.247 0 0 1-1.325 1.449 10.634 10.634 0 0 1 1.087-1.626l3.183-4.254.162-.216.216.177 6.6 5.348h-.447l3.976-3.5 3.4-2.959.208-.177.223.162a50.229 50.229 0 0 1 7.591 6.889h-.354a40.286 40.286 0 0 0 4.177-4.755z" class="cls-9" transform="translate(-155.731 -375.19)"/>
        </g>
        <g id="Group_5" transform="translate(883.07 441.907)">
            <path id="Path_9" d="M437.981 253.322a2.271 2.271 0 0 1 2.288 2.288v1.171a19.386 19.386 0 0 1 8.248 2.926 2.851 2.851 0 0 1 1.6 2.554 2.931 2.931 0 0 1-2.981 2.927 3.075 3.075 0 0 1-1.6-.479 19.315 19.315 0 0 0-5.481-2.341v10.217c8.089 2.022 11.547 5.267 11.547 10.961 0 5.854-4.576 9.739-11.335 10.376v3.193a2.27 2.27 0 0 1-2.288 2.288 2.316 2.316 0 0 1-2.341-2.288v-3.3a23.025 23.025 0 0 1-10.909-4.15 2.926 2.926 0 0 1-1.437-2.554 2.928 2.928 0 0 1 4.683-2.341 18.849 18.849 0 0 0 7.875 3.565v-10.483c-7.769-2.022-11.387-4.949-11.387-10.961 0-5.694 4.523-9.632 11.175-10.164v-1.117a2.317 2.317 0 0 1 2.343-2.288zm-2.129 18.145v-9.418c-3.405.319-5.108 2.128-5.108 4.469 0 2.235 1.01 3.619 5.108 4.949zm4.2 7.4v9.685c3.405-.373 5.268-2.075 5.268-4.63.005-2.345-1.166-3.781-5.264-5.058z" class="cls-4" transform="translate(-423.294 -253.322)"/>
        </g>
        <g id="Group_6" transform="translate(717.941 255.517)">
            <path id="Path_10" d="M256.721 48.723a2.271 2.271 0 0 1 2.287 2.288v1.171a19.357 19.357 0 0 1 8.248 2.926 2.849 2.849 0 0 1 1.6 2.554 2.931 2.931 0 0 1-2.981 2.927 3.075 3.075 0 0 1-1.6-.479 19.306 19.306 0 0 0-5.481-2.341v10.216c8.089 2.022 11.548 5.268 11.548 10.962 0 5.853-4.577 9.739-11.336 10.376v3.193a2.27 2.27 0 0 1-2.287 2.288 2.316 2.316 0 0 1-2.342-2.288v-3.3a23.02 23.02 0 0 1-10.908-4.151 2.923 2.923 0 0 1-1.438-2.554 2.927 2.927 0 0 1 4.683-2.341 18.847 18.847 0 0 0 7.876 3.565V73.253c-7.768-2.022-11.39-4.953-11.39-10.961 0-5.694 4.522-9.632 11.174-10.164v-1.117a2.317 2.317 0 0 1 2.347-2.288zm-2.129 18.145v-9.419c-3.406.32-5.109 2.129-5.109 4.47 0 2.235 1.011 3.619 5.109 4.949zm4.2 7.4v9.685c3.405-.373 5.268-2.075 5.268-4.63.004-2.345-1.167-3.781-5.26-5.058z" class="cls-4" transform="translate(-242.033 -48.723)"/>
        </g>
        <g id="Invoice" transform="translate(769.784 251.824)">
            <g id="Group_22">
                <path id="Rectangle_8" d="M0 0H143.371V183.525H0z" class="cls-4"/>
                <g id="Group_14" transform="translate(0 8.153)">
                    <path id="Rectangle_9" d="M0 0H143.371V10.704H0z" class="cls-10" transform="translate(0 2.121)"/>
                    <path id="Path_25" d="M298.941 67.7H377.2l-6.57 11.512h-71.689z" class="cls-10" transform="translate(-298.941 -54.872)"/>
                    <path id="Path_26" d="M298.941 53.619H377.2l-3.231 4.241h-75.028z" class="cls-2" transform="translate(-298.941 -53.619)"/>
                    <path id="Path_27" d="M298.941 60.492h41.816l-3.231 4.241h-38.585z" class="cls-2" transform="translate(-298.941 -54.231)"/>
                </g>
                <g id="Group_18" transform="translate(13.117 65.967)">
                    <path id="Rectangle_10" d="M0 0H117.137V9.007H0z" class="cls-8" transform="translate(0 9.007)"/>
                    <path id="Rectangle_11" d="M0 0H117.137V9.007H0z" class="cls-2"/>
                    <path id="Rectangle_12" d="M0 0H117.137V9.007H0z" class="cls-16" transform="translate(0 18.013)"/>
                    <path id="Rectangle_13" d="M0 0H117.137V9.007H0z" class="cls-8" transform="translate(0 27.02)"/>
                    <path id="Rectangle_14" d="M0 0H117.137V9.007H0z" class="cls-16" transform="translate(0 36.027)"/>
                    <path id="Rectangle_15" d="M0 0H117.137V9.007H0z" class="cls-8" transform="translate(0 45.034)"/>
                    <path id="Rectangle_16" d="M0 0H117.137V9.007H0z" class="cls-16" transform="translate(0 54.04)"/>
                    <path id="Rectangle_17" d="M0 0H82.016V9.007H0z" class="cls-2" transform="translate(35.121 63.047)"/>
                    <path id="Rectangle_18" fill="#c7c7c7" d="M0 0H35.121V63.047H0z"/>
                    <g id="Group_16" transform="translate(0 17.9)">
                        <path id="Path_35" d="M313.339 136.842l58.568-.114 58.568.114-58.568.114z" class="cls-10" transform="translate(-313.339 -136.729)"/>
                        <path id="Path_36" d="M313.339 146.729l58.568-.114 58.568.114-58.568.114z" class="cls-10" transform="translate(-313.339 -137.609)"/>
                        <path id="Path_37" d="M313.339 156.616l58.568-.114 58.568.114-58.568.114z" class="cls-10" transform="translate(-313.339 -138.489)"/>
                        <path id="Path_38" d="M313.339 166.5l58.568-.114 58.568.114-58.568.114z" class="cls-10" transform="translate(-313.339 -139.369)"/>
                        <path id="Path_39" d="M313.339 176.389l58.568-.114 58.568.114-58.568.114z" class="cls-10" transform="translate(-313.339 -140.249)"/>
                        <path id="Path_40" d="M313.339 186.276l58.568-.114 58.568.114-58.568.114z" class="cls-10" transform="translate(-313.339 -141.129)"/>
                    </g>
                    <g id="Group_17" transform="translate(6.273 4.276)">
                        <path id="Path_41" d="M320.225 122c3.74-.189 7.48-.2 11.22-.228 3.74.026 7.48.037 11.22.228-3.74.19-7.48.2-11.22.227-3.74-.027-7.48-.038-11.22-.227z" class="cls-10" transform="translate(-320.225 -121.774)"/>
                        <path id="Path_42" d="M320.225 131.888c2.829-.188 5.658-.2 8.487-.227 2.829.026 5.658.037 8.487.227-2.829.189-5.658.2-8.487.228-2.829-.028-5.658-.04-8.487-.228z" class="cls-10" transform="translate(-320.225 -122.654)"/>
                        <path id="Path_43" d="M320.225 141.775c3.74-.189 7.48-.2 11.22-.228 3.74.026 7.48.038 11.22.228-3.74.189-7.48.2-11.22.228-3.74-.028-7.48-.041-11.22-.228z" class="cls-10" transform="translate(-320.225 -123.534)"/>
                        <path id="Path_44" d="M320.225 151.662c3.079-.189 6.158-.2 9.237-.228 3.079.026 6.158.038 9.237.228-3.078.189-6.157.2-9.237.227-3.079-.027-6.162-.04-9.237-.227z" class="cls-10" transform="translate(-320.225 -124.414)"/>
                        <path id="Path_45" d="M320.225 161.548c3.74-.188 7.48-.2 11.22-.227 3.74.026 7.48.037 11.22.227-3.74.19-7.48.2-11.22.228-3.74-.027-7.48-.04-11.22-.228z" class="cls-10" transform="translate(-320.225 -125.294)"/>
                        <path id="Path_46" d="M320.225 171.435c3.74-.189 7.48-.2 11.22-.228 3.74.026 7.48.038 11.22.228-3.74.189-7.48.2-11.22.228-3.74-.028-7.48-.04-11.22-.228z" class="cls-10" transform="translate(-320.225 -126.174)"/>
                        <path id="Path_47" d="M320.225 181.322c2.271-.178 4.542-.219 6.813-.228 2.271.008 4.542.049 6.813.228-2.271.179-4.542.22-6.813.227-2.271-.01-4.538-.049-6.813-.227z" class="cls-10" transform="translate(-320.225 -127.054)"/>
                        <path id="Path_48" d="M360.9 122c2.81-.189 5.622-.2 8.432-.228 2.81.026 5.621.037 8.432.228-2.811.19-5.622.2-8.432.227-2.811-.027-5.623-.038-8.432-.227z" class="cls-10" transform="translate(-323.845 -121.774)"/>
                        <path id="Path_49" d="M360.9 131.888c2.81-.188 5.622-.2 8.432-.227 2.81.026 5.621.037 8.432.227-2.811.189-5.622.2-8.432.228-2.811-.028-5.623-.04-8.432-.228z" class="cls-10" transform="translate(-323.845 -122.654)"/>
                        <path id="Path_50" d="M360.9 141.775c2.81-.189 5.622-.2 8.432-.228 2.81.026 5.621.038 8.432.228-2.811.189-5.622.2-8.432.228-2.811-.028-5.623-.041-8.432-.228z" class="cls-10" transform="translate(-323.845 -123.534)"/>
                        <path id="Path_51" d="M360.9 151.662c2.81-.189 5.622-.2 8.432-.228 2.81.026 5.621.038 8.432.228-2.811.189-5.622.2-8.432.227-2.811-.027-5.623-.04-8.432-.227z" class="cls-10" transform="translate(-323.845 -124.414)"/>
                        <path id="Path_52" d="M360.9 161.548c2.81-.188 5.622-.2 8.432-.227 2.81.026 5.621.037 8.432.227-2.811.19-5.622.2-8.432.228-2.811-.027-5.623-.04-8.432-.228z" class="cls-10" transform="translate(-323.845 -125.294)"/>
                        <path id="Path_53" d="M360.9 171.435c2.81-.189 5.622-.2 8.432-.228 2.81.026 5.621.038 8.432.228-2.811.189-5.622.2-8.432.228-2.811-.028-5.623-.04-8.432-.228z" class="cls-10" transform="translate(-323.845 -126.174)"/>
                        <path id="Path_54" d="M360.9 181.322c2.81-.189 5.622-.2 8.432-.228 2.81.026 5.621.038 8.432.228-2.811.19-5.622.2-8.432.227-2.811-.027-5.623-.04-8.432-.227z" class="cls-10" transform="translate(-323.845 -127.054)"/>
                        <path id="Path_55" d="M387.65 122c2.81-.189 5.622-.2 8.432-.228 2.81.026 5.621.037 8.432.228-2.811.19-5.622.2-8.432.227-2.81-.027-5.622-.038-8.432-.227z" class="cls-10" transform="translate(-326.226 -121.774)"/>
                        <path id="Path_56" d="M393.95 181.322a14.527 14.527 0 0 1 2.693-.228 14.382 14.382 0 0 1 2.693.228 14.3 14.3 0 0 1-2.693.227 14.6 14.6 0 0 1-2.693-.227z" class="cls-10" transform="translate(-326.787 -127.054)"/>
                        <path id="Path_57" d="M393.95 171.435a16.033 16.033 0 0 1 5.386 0 14.38 14.38 0 0 1-2.693.228 14.53 14.53 0 0 1-2.693-.228z" class="cls-10" transform="translate(-326.787 -126.174)"/>
                        <path id="Path_58" d="M393.95 161.548a14.683 14.683 0 0 1 2.693-.228 14.375 14.375 0 0 1 2.693.228 14.382 14.382 0 0 1-2.693.228 14.53 14.53 0 0 1-2.693-.228z" class="cls-10" transform="translate(-326.787 -125.294)"/>
                        <path id="Path_59" d="M393.95 151.662a14.528 14.528 0 0 1 2.693-.228 14.38 14.38 0 0 1 2.693.228 14.38 14.38 0 0 1-2.693.228 14.683 14.683 0 0 1-2.693-.228z" class="cls-10" transform="translate(-326.787 -124.414)"/>
                        <path id="Path_60" d="M393.95 141.775a14.528 14.528 0 0 1 2.693-.228 14.38 14.38 0 0 1 2.693.228 14.38 14.38 0 0 1-2.693.228 14.526 14.526 0 0 1-2.693-.228z" class="cls-10" transform="translate(-326.787 -123.534)"/>
                        <path id="Path_61" d="M393.95 131.888a14.685 14.685 0 0 1 2.693-.228 14.379 14.379 0 0 1 2.693.228 14.379 14.379 0 0 1-2.693.228 14.528 14.528 0 0 1-2.693-.228z" class="cls-10" transform="translate(-326.787 -122.654)"/>
                        <path id="Path_62" d="M395.705 191.208a45.55 45.55 0 0 1 4.763-.228 44.582 44.582 0 0 1 4.764.228 44.59 44.59 0 0 1-4.764.228 45.06 45.06 0 0 1-4.763-.228z" class="cls-10" transform="translate(-326.943 -127.933)"/>
                        <path id="Path_63" d="M414.4 122c2.81-.189 5.622-.2 8.432-.228 2.81.026 5.621.037 8.432.228-2.811.19-5.622.2-8.432.227-2.809-.027-5.621-.038-8.432-.227z" class="cls-10" transform="translate(-328.607 -121.774)"/>
                        <path id="Path_64" d="M414.4 131.888c2.81-.188 5.622-.2 8.432-.227 2.81.026 5.621.037 8.432.227-2.811.189-5.622.2-8.432.228-2.809-.028-5.621-.04-8.432-.228z" class="cls-10" transform="translate(-328.607 -122.654)"/>
                        <path id="Path_65" d="M414.4 141.775c2.81-.189 5.622-.2 8.432-.228 2.81.026 5.621.038 8.432.228-2.811.189-5.622.2-8.432.228-2.809-.028-5.621-.041-8.432-.228z" class="cls-10" transform="translate(-328.607 -123.534)"/>
                        <path id="Path_66" d="M414.4 151.662c2.81-.189 5.622-.2 8.432-.228 2.81.026 5.621.038 8.432.228-2.811.189-5.622.2-8.432.227-2.809-.027-5.621-.04-8.432-.227z" class="cls-10" transform="translate(-328.607 -124.414)"/>
                        <path id="Path_67" d="M414.4 161.548c2.81-.188 5.622-.2 8.432-.227 2.81.026 5.621.037 8.432.227-2.811.19-5.622.2-8.432.228-2.809-.027-5.621-.04-8.432-.228z" class="cls-10" transform="translate(-328.607 -125.294)"/>
                        <path id="Path_68" d="M414.4 171.435c2.81-.189 5.622-.2 8.432-.228 2.81.026 5.621.038 8.432.228-2.811.189-5.622.2-8.432.228-2.809-.028-5.621-.04-8.432-.228z" class="cls-10" transform="translate(-328.607 -126.174)"/>
                        <path id="Path_69" d="M414.4 181.322c2.81-.189 5.622-.2 8.432-.228 2.81.026 5.621.038 8.432.228-2.811.19-5.622.2-8.432.227-2.809-.027-5.621-.04-8.432-.227z" class="cls-10" transform="translate(-328.607 -127.054)"/>
                        <path id="Path_70" d="M414.4 191.208c2.81-.188 5.622-.2 8.432-.227 2.81.026 5.621.037 8.432.227-2.811.19-5.622.2-8.432.228-2.809-.028-5.621-.036-8.432-.228z" class="cls-10" transform="translate(-328.607 -127.934)"/>
                    </g>
                </g>
                <g id="Group_19" transform="translate(13.117 22.745)">
                    <path id="Path_71" d="M313.339 74.968c3.476-.188 6.952-.275 10.428-.348s6.952-.068 10.427-.107c3.476.036 6.952.032 10.428.1l5.214.127c1.738.076 3.476.12 5.215.223-1.738.1-3.476.148-5.215.224l-5.214.127c-3.476.073-6.952.069-10.428.1-3.475-.038-6.952-.031-10.427-.107s-6.952-.151-10.428-.339z" class="cls-8" transform="translate(-313.339 -70.07)"/>
                    <path id="Path_72" d="M313.339 70.091c3.947-.188 7.895-.276 11.842-.349s7.894-.067 11.841-.106c3.947.036 7.895.032 11.842.1l5.921.127c1.973.076 3.947.12 5.921.223-1.973.1-3.947.148-5.921.223l-5.921.128c-3.947.073-7.895.069-11.842.1-3.947-.038-7.895-.032-11.841-.107s-7.895-.151-11.842-.339z" class="cls-8" transform="translate(-313.339 -69.636)"/>
                </g>
                <g id="Group_20" transform="translate(13.117 49.737)">
                    <path id="Path_73" d="M313.339 99.607c3.232-.141 6.464-.208 9.7-.262s6.464-.051 9.7-.079c3.232.026 6.464.024 9.7.078s6.464.121 9.7.263c-3.232.141-6.463.208-9.7.262s-6.464.052-9.7.078c-3.232-.028-6.464-.023-9.7-.079s-6.468-.121-9.7-.261z" class="cls-10" transform="translate(-313.339 -99.265)"/>
                    <path id="Path_74" d="M313.339 103.819c2.027-.141 4.054-.207 6.081-.261s4.054-.052 6.082-.08c2.027.027 4.054.024 6.081.078s4.054.121 6.081.263c-2.027.142-4.054.208-6.081.262s-4.054.052-6.081.078c-2.028-.028-4.055-.023-6.082-.079s-4.054-.121-6.081-.261z" class="cls-10" transform="translate(-313.339 -99.64)"/>
                    <path id="Path_75" d="M313.339 108.031c2.821-.141 5.643-.207 8.464-.261s5.643-.051 8.464-.08c2.821.027 5.643.025 8.464.078s5.644.121 8.465.263c-2.821.142-5.643.208-8.465.262s-5.643.052-8.464.079c-2.821-.029-5.643-.024-8.464-.08s-5.643-.12-8.464-.261z" class="cls-10" transform="translate(-313.339 -100.015)"/>
                </g>
                <g id="Group_21" transform="translate(13.117 144.634)">
                    <path id="Path_76" d="M313.339 203.774c2.075-.14 4.15-.207 6.225-.261s4.15-.051 6.224-.079c2.075.026 4.15.024 6.225.078s4.15.12 6.224.262c-2.074.142-4.15.208-6.224.263s-4.15.052-6.225.078c-2.074-.029-4.15-.024-6.224-.08s-4.15-.12-6.225-.261z" class="cls-10" transform="translate(-313.339 -203.433)"/>
                    <path id="Path_77" d="M313.339 207.986c2.4-.14 4.8-.207 7.2-.261s4.8-.051 7.2-.079c2.4.026 4.8.024 7.2.078s4.8.121 7.2.262c-2.4.142-4.8.208-7.2.263s-4.8.052-7.2.078c-2.4-.028-4.8-.024-7.2-.079s-4.801-.121-7.2-.262z" class="cls-10" transform="translate(-313.339 -203.808)"/>
                    <path id="Path_78" d="M313.339 224.78c3.771-.141 7.541-.207 11.312-.261l11.311-.08 11.312.078c3.771.056 7.54.121 11.311.263-3.771.142-7.54.208-11.311.262l-11.312.078-11.311-.079c-3.771-.055-7.541-.121-11.312-.261z" class="cls-10" transform="translate(-313.339 -205.302)"/>
                    <path id="Path_79" d="M313.339 212.2c1.464-.141 2.927-.207 4.39-.262s2.927-.071 4.39-.079c1.464.007 2.927.016 4.39.078s2.927.121 4.39.263c-1.463.141-2.926.208-4.39.262s-2.926.071-4.39.078c-1.463-.008-2.926-.017-4.39-.079s-2.929-.122-4.39-.261z" class="cls-10" transform="translate(-313.339 -204.183)"/>
                    <path id="Path_80" d="M393.95 216.355c3.641-.14 7.283-.207 10.926-.261l10.925-.079 10.926.078c3.641.055 7.283.121 10.925.262-3.641.142-7.283.208-10.925.263l-10.927.082-10.925-.079c-3.641-.059-7.284-.121-10.925-.266z" class="cls-10" transform="translate(-320.514 -204.553)"/>
                    <path id="Path_81" d="M393.95 212.2c2.958-.141 5.916-.207 8.874-.262s5.915-.051 8.873-.079c2.958.026 5.916.024 8.874.078s5.916.121 8.874.263c-2.958.141-5.916.208-8.874.262s-5.916.052-8.874.078c-2.958-.028-5.915-.023-8.873-.079s-5.916-.122-8.874-.261z" class="cls-10" transform="translate(-320.514 -204.183)"/>
                    <path id="Path_82" d="M393.95 220.568c2.78-.141 5.561-.208 8.341-.262s5.561-.051 8.341-.079c2.779.026 5.56.024 8.34.078s5.561.121 8.341.263c-2.78.141-5.561.208-8.341.262s-5.561.052-8.34.078c-2.78-.028-5.561-.024-8.341-.079s-5.561-.121-8.341-.261z" class="cls-10" transform="translate(-320.514 -204.928)"/>
                    <path id="Path_83" d="M393.95 224.78c1.993-.141 3.986-.207 5.979-.261s3.986-.051 5.979-.08c1.993.026 3.986.025 5.979.078s3.987.121 5.979.263c-1.992.142-3.986.208-5.979.262s-3.986.052-5.979.078c-1.993-.028-3.986-.023-5.979-.079s-3.986-.121-5.979-.261z" class="cls-10" transform="translate(-320.514 -205.302)"/>
                    <path id="Path_84" d="M314.648 220.707q1.632-1.122 3.35-2.111a15.835 15.835 0 0 1 3.623-1.633 3.747 3.747 0 0 1 .5-.094.523.523 0 0 1 .551.182 1.89 1.89 0 0 1 .23 1.026 11.739 11.739 0 0 1-.2 1.989c-.23 1.307-.555 2.59-.91 3.864a59.092 59.092 0 0 1-2.63 7.484 11.9 11.9 0 0 1-.939 1.779 2.3 2.3 0 0 1-.356.414.551.551 0 0 1-.343.153.363.363 0 0 1-.239-.086l-.118-.121a1.966 1.966 0 0 1-.281-1.057 13.327 13.327 0 0 1 .7-3.942 23.017 23.017 0 0 1 1.489-3.69 11.229 11.229 0 0 1 2.324-3.241 3.662 3.662 0 0 1 1.826-.87 2.135 2.135 0 0 1 1.032.087 1.6 1.6 0 0 1 .726.746 4.912 4.912 0 0 0 .55.793.8.8 0 0 0 .8.265 5.29 5.29 0 0 0 1.659-.973c.263-.2.522-.4.8-.593a3.679 3.679 0 0 1 .433-.263.5.5 0 0 1 .548-.027c.257.323.193.669.322.963a.585.585 0 0 0 .677.43 5.926 5.926 0 0 0 1.452-1.266c.447-.482.881-.977 1.313-1.476.862-1 1.711-2.007 2.593-2.991.442-.491.89-.978 1.368-1.438a8.1 8.1 0 0 1 .76-.657 2.393 2.393 0 0 1 .448-.268.731.731 0 0 1 .29-.066.386.386 0 0 1 .305.164 1.753 1.753 0 0 1 .135 1.052 8.505 8.505 0 0 1-.159.991 19.18 19.18 0 0 1-.528 1.921 19.48 19.48 0 0 1-1.576 3.661 3.956 3.956 0 0 1-.624.827.722.722 0 0 1-.582.235 1.755 1.755 0 0 1-.53-.15 2.452 2.452 0 0 1-1.329-1.615.9.9 0 0 1 .077-.619.625.625 0 0 1 .255-.246.68.68 0 0 1 .339-.073 3.776 3.776 0 0 1 1.023.243c.634.224 1.24.491 1.846.753s1.206.534 1.812.778c.3.12.607.238.91.326a2.4 2.4 0 0 0 .439.095.651.651 0 0 0 .361-.076c.5-.251.83-.865 1.325-1.353a1.607 1.607 0 0 1 1.01-.515.517.517 0 0 1 .405.131.537.537 0 0 1 .137.4 2.669 2.669 0 0 1-.1.537c-.091.3-.128.671-.045.687.093.085.476.029.754-.044a5.017 5.017 0 0 0 1.664-.87 9.93 9.93 0 0 1 .841-.566 1.655 1.655 0 0 1 1.1-.263 4.092 4.092 0 0 1 1.69 1.226 4.608 4.608 0 0 0 .7.61c.118.073.228.1.255.07a2.588 2.588 0 0 0 .378-.232 15.415 15.415 0 0 0 1.489-1.252 17.066 17.066 0 0 0 2.55-2.938 3.3 3.3 0 0 0 .639-1.706c0-.59-.608-.862-1.24-.961a10.735 10.735 0 0 0-3.866.055 9.569 9.569 0 0 0-1.868.53 3.934 3.934 0 0 0-.834.453c-.243.179-.46.435-.39.67a1.158 1.158 0 0 0 .629.574c.281.142.6.244.9.363a17.982 17.982 0 0 0 1.883.554 43.562 43.562 0 0 0 7.847.75v.046a41.5 41.5 0 0 1-7.895-.576 18.193 18.193 0 0 1-1.918-.537c-.311-.118-.626-.213-.937-.363a1.383 1.383 0 0 1-.778-.737.977.977 0 0 1 .481-.975 4.181 4.181 0 0 1 .893-.5 9.758 9.758 0 0 1 1.923-.574 11.072 11.072 0 0 1 4-.107 2.8 2.8 0 0 1 1 .337 1.215 1.215 0 0 1 .573.974 3.646 3.646 0 0 1-.679 1.963 16.367 16.367 0 0 1-2.6 3.043 15.978 15.978 0 0 1-1.535 1.3 2.878 2.878 0 0 1-.465.282.738.738 0 0 1-.679-.1 4.9 4.9 0 0 1-.793-.678 3.876 3.876 0 0 0-1.451-1.1c-.486-.072-1.051.382-1.572.753a5.517 5.517 0 0 1-1.821.948 1.471 1.471 0 0 1-1.168-.044.714.714 0 0 1-.23-.664 3.445 3.445 0 0 1 .106-.52 2.279 2.279 0 0 0 .087-.433c0-.059-.015-.081 0-.058s0 0-.056 0a1.165 1.165 0 0 0-.705.379c-.452.416-.756 1.055-1.454 1.428a1.105 1.105 0 0 1-.594.115 2.9 2.9 0 0 1-.527-.114c-.329-.1-.639-.221-.948-.346-.617-.252-1.218-.527-1.819-.793s-1.2-.535-1.812-.753a3.474 3.474 0 0 0-.892-.225c-.211-.023-.329.172-.271.455a2.085 2.085 0 0 0 1.094 1.349 1.362 1.362 0 0 0 .415.124c.086.026.18-.038.3-.136a3.661 3.661 0 0 0 .569-.742 19.169 19.169 0 0 0 1.591-3.574 18.771 18.771 0 0 0 .545-1.886 8.5 8.5 0 0 0 .166-.958 1.621 1.621 0 0 0-.076-.88c-.093-.174-.468.046-.7.217a7.665 7.665 0 0 0-.742.63c-.475.45-.926.93-1.37 1.415-.887.973-1.745 1.974-2.616 2.964-.436.5-.875.988-1.33 1.469a5.824 5.824 0 0 1-1.53 1.294.734.734 0 0 1-.848-.518c-.126-.31-.115-.7-.289-.9-.081-.077-.243-.017-.38.054a3.4 3.4 0 0 0-.408.255c-.265.19-.522.4-.784.6a5.388 5.388 0 0 1-1.723 1.027 1.008 1.008 0 0 1-.989-.312 4.941 4.941 0 0 1-.587-.821c-.177-.27-.351-.561-.621-.647a1.9 1.9 0 0 0-.918-.065 3.413 3.413 0 0 0-1.688.831 11.03 11.03 0 0 0-2.231 3.188 22.718 22.718 0 0 0-1.431 3.652 13.081 13.081 0 0 0-.641 3.825 1.669 1.669 0 0 0 .208.831l.056.056c.016.009-.015 0-.015 0a.3.3 0 0 0 .089-.06 2 2 0 0 0 .281-.339 13.2 13.2 0 0 0 .914-1.712 58.894 58.894 0 0 0 2.688-7.407c.366-1.263.7-2.536.943-3.825a11.41 11.41 0 0 0 .22-1.939 1.709 1.709 0 0 0-.17-.882.281.281 0 0 0-.333-.093 3.507 3.507 0 0 0-.472.084 17.265 17.265 0 0 0-3.6 1.539q-1.738.936-3.4 2.018z" class="cls-10" transform="translate(-313.456 -204.375)"/>
                </g>
            </g>
        </g>
    </g>
</svg>
