<svg xmlns="http://www.w3.org/2000/svg" xmlns:xlink="http://www.w3.org/1999/xlink" width="416.079" height="401.121" xmlns:v="https://vecta.io/nano"><style><![CDATA[.B{fill:#e0e0e0}.C{fill:#263238}.D{fill:#f5f5f5}.E{fill:#ffc800}.F{fill:#ebebeb}.G{fill:#455a64}.H{fill:#eb996e}.I{fill:#ffbe9d}]]></style><path d="M17.89 341.7v22.865h-3.817v2.482h3.817v15.3H89.25v-13.923h-5.284v-3.033h5.285v-4.55h2.35v-2.068h-2.8V341.7z" class="D"/><g class="B"><path d="M70.3 341.757v40.327h18.95V368.16h-5.286v-2.778l5.286.094v-4.55h2.4l-.046-2.35-2.8-.07V341.7z"/><use xlink:href="#B"/><path d="M71.65 364.385c0 .14-12.912.254-28.836.254s-28.84-.113-28.84-.254 12.9-.253 28.84-.253l28.836.253zm3.704-6.25c0 .14-12.912.253-28.837.253s-28.842-.112-28.842-.253 12.9-.253 28.84-.253l28.84.253z"/><use xlink:href="#C"/></g><path d="M5.73 305.737V328.6H1.913v2.482H5.73v15.3h71.36v-13.918h-5.286v-3.028h5.286v-4.55h2.35v-2.067h-2.8v-17.083z" class="D"/><g class="B"><path d="M58.14 305.807v40.33h18.95V332.2h-5.286v-2.773l5.286.094v-4.554h2.395l-.046-2.35-2.8-.07v-16.82z"/><use xlink:href="#B" x="-12.16" y="-35.949"/><use xlink:href="#B" x="-12.16" y="-38.272"/><use xlink:href="#D"/><path d="M63.55 339.218c0 .14-12.913.253-28.837.253s-28.84-.113-28.84-.253 12.91-.254 28.84-.254l28.837.254z"/></g><path d="M291.295 341.266v22.865h-3.815v2.482h3.818v15.3h71.358V368h-5.285v-3.033h5.285v-4.55h2.35v-2.068h-2.79v-17.074z" class="D"/><g class="B"><path d="M343.703 341.333v40.327h18.95v-13.924h-5.283v-2.778l5.286.094v-4.55h2.395l-.046-2.35-2.8-.07v-16.817z"/><path d="M345.053 366.283c0 .14-12.912.254-28.837.254s-28.84-.113-28.84-.254 12.9-.253 28.84-.253l28.837.253z"/><use xlink:href="#D" x="281.86" y="41.775"/><use xlink:href="#D" x="285.564" y="35.515"/><use xlink:href="#C" x="273.404" y="-0.424"/></g><path d="M286.394 300.617v22.865h-3.818v2.482h3.818v15.3h71.358V327.34h-5.286v-3.032h5.286v-4.55h2.35v-2.068h-2.8v-17.074z" class="D"/><g class="B"><path d="M338.802 300.684v40.327h18.95v-13.924h-5.286v-2.778l5.286.094v-4.55h2.395l-.046-2.35-2.8-.07v-16.817z"/><use xlink:href="#C" x="264.442" y="-49.534"/><use xlink:href="#C" x="264.442" y="-51.856"/><use xlink:href="#C" x="268.146" y="-58.108"/><use xlink:href="#D" x="281.019" y="11.91"/></g><path d="M383.052 124.738c1.387-13.372-7.8-25.116-20.526-26.23a22.21 22.21 0 0 0-6.975.491l2.408 4.686.534-.07c1.952-.23 3.93-.122 5.844.318a17.06 17.06 0 0 1 2.712.866c1.667.694 3.215 1.645 4.587 2.82 1.25 1.072 2.35 2.31 3.262 3.682.797 1.2 1.45 2.508 1.947 3.87.726 1.988 1.09 4.1 1.076 6.206.06.78-.04 1.56-.293 2.3-.024.19-.035.384-.055.58-1.034 9.96-9.386 17.415-18.818 16.952l-2.522 5.57a22.22 22.22 0 0 0 1.273.151c12.72 1.118 24.16-8.818 25.546-22.19z" class="D"/><path d="M358.3 125.032l.552.57.034-.37-.586-.2zm1.22-6.855l-1.407 2.18a4.94 4.94 0 0 0 1.153.643zm3.828 10.103c.1-1-.653-1.612-1.8-2.13l-.184 2.05 1.3 1.34c.393-.306.638-.764.675-1.26zm14.045-6.867a20.1 20.1 0 0 0-1.437-5.846 18.62 18.62 0 0 0-1.975-3.564 17.51 17.51 0 0 0-3.138-3.356c-.635-.523-1.3-.995-2.02-1.413a15.49 15.49 0 0 0-2.287-1.136 16.13 16.13 0 0 0-2.518-.784 17.81 17.81 0 0 0-2.692-.374c-.9-.042-1.803-.017-2.7.076l2.465 4.93 1.9.137-.283 3.14a11.76 11.76 0 0 1 5.393 2.158l-1.685 3.443a10.67 10.67 0 0 0-4.049-1.8l-.44 4.9c2.967.967 6.208 2.274 5.843 6.334-.242 2.7-2.136 4.928-5.663 5.528l-3.364 7.43c9.46.465 17.836-7.037 18.827-17.043l-.026-.73c-.032-.344-.057-1.04-.15-2.032z" class="F"/><g class="B"><path d="M358.633 105.014c.897-.093 1.8-.118 2.7-.076a17.75 17.75 0 0 1 2.692.374 16.1 16.1 0 0 1 2.518.784 15.49 15.49 0 0 1 2.287 1.136 15.77 15.77 0 0 1 2.015 1.415 17.51 17.51 0 0 1 3.138 3.356 18.62 18.62 0 0 1 1.975 3.564c.77 1.865 1.255 3.836 1.438 5.846a14.23 14.23 0 0 0 .224 2.255c.262-.73.36-1.512.302-2.3a17.61 17.61 0 0 0-1.078-6.2c-.496-1.36-1.15-2.66-1.947-3.87a18.22 18.22 0 0 0-3.262-3.682c-1.372-1.175-2.92-2.126-4.587-2.82a17.06 17.06 0 0 0-2.712-.866 17.27 17.27 0 0 0-6.375-.252v.005zm9.147 23.236c.365-4.06-2.876-5.367-5.843-6.334l.44-4.9a10.67 10.67 0 0 1 4.049 1.8l1.685-3.443a11.76 11.76 0 0 0-5.393-2.158l-3.2 4.956-.253 2.822a4.94 4.94 0 0 1-1.153-.643l-1.737 2.7 1.923 1.984.586.2-.034.37 2.52 2.6.184-2.05c1.138.518 1.88 1.12 1.8 2.13-.037.497-.282.954-.674 1.26l.928.958-1.485 3.28c3.53-.6 5.425-2.834 5.667-5.524z"/><path d="M361.096 109.945l1.622 3.276.283-3.14z"/></g><path d="M356.33 141.402c-.3 0-.6 0-.9-.017-.98-.05-1.957-.177-2.918-.384-1.816-.392-3.562-1.06-5.175-1.984a18.36 18.36 0 0 1-3.973-3.059 18.57 18.57 0 0 1-2.666-3.471 17.25 17.25 0 0 1-2.188-5.919 5.56 5.56 0 0 1-.107-2.317l-.045-.58c-.75-10.028 6.566-18.853 16.56-19.972l-.286-.533-2.61-4.863c-11.99 2.588-20.24 13.615-19.336 25.847.7 11.642 9.753 21.053 21.357 22.23l.22-.475 2.07-4.502z" class="D"/><path d="M338.362 123.765l.156.713.52 1.964c.543 1.95 1.385 3.806 2.494 5.5.76 1.15 1.647 2.2 2.64 3.165a18 18 0 0 0 3.791 2.759 17.42 17.42 0 0 0 4.835 1.767 17.32 17.32 0 0 0 2.7.336l.74.014 1.056-.693 3.9-8.5-.173-.173a10.24 10.24 0 0 1-2.778 1.008l.27 3.2-2.823.278-.265-3.138a12.51 12.51 0 0 1-5.877-1.19l1.112-3.68c1.394.655 2.906 1.02 4.445 1.07l-.32-3.792-.964-.965-.137-.138.088-.133c-2.92-.472-5.842-1.416-6.152-5.086-.252-2.994 1.675-5.795 6.06-6.78l-.272-3.224 2.823-.277.264 3.136a16.21 16.21 0 0 1 2.322.085l-3.915-7.292c-10.027 1.125-17.352 10.005-16.55 20.063zm19.778 3.958l-.234-.234.027.313c.075-.024.14-.053.207-.08zm-6-10.465c.085 1.008.95 1.473 2.2 1.786l-.335-3.972c-1.386.455-1.943 1.265-1.865 2.186zm4.968.837l2.088-3.164a11.76 11.76 0 0 0-2.377-.252z" class="F"/><path d="M352.798 139.636a17.42 17.42 0 0 1-4.835-1.767 18 18 0 0 1-3.791-2.759 18.71 18.71 0 0 1-2.641-3.165c-1.1-1.694-1.95-3.55-2.494-5.5-.148-.742-.358-1.47-.626-2.18-.14.762-.102 1.552.096 2.308a17.25 17.25 0 0 0 2.189 5.919 18.57 18.57 0 0 0 2.666 3.471 18.36 18.36 0 0 0 3.973 3.059 18.12 18.12 0 0 0 5.172 1.98 18.14 18.14 0 0 0 2.918.384l.9.017q.232-.5.464-1l.2-.423q-.748.03-1.484 0a17.32 17.32 0 0 1-2.707-.337zm-2.123-12.54l-1.112 3.68a12.51 12.51 0 0 0 5.877 1.19l.265 3.138 2.823-.278-.27-3.2a10.24 10.24 0 0 0 2.778-1.008l-2.893-2.898-.207.08-.027-.313-3.108-3.114.32 3.792a11.33 11.33 0 0 1-4.446-1.067zm5.57-19.322l-2.823.277.272 3.224c-4.386.984-6.312 3.785-6.06 6.78.3 3.67 3.232 4.614 6.152 5.086l3.326-5.04-.3-3.415c.8.003 1.595.088 2.377.252l.96-1.455-1.332-2.482a16.21 16.21 0 0 0-2.322-.085zm-4.1 9.485c-.078-.92.48-1.73 1.865-2.186l.335 3.972c-1.246-.313-2.1-.778-2.195-1.786z" class="B"/><path d="M70.43 183.12c-10.537-17.358-32.316-23.1-48.645-12.83a33.56 33.56 0 0 0-7.945 6.956l7.176 3.442.576-.573c1.076-1.023 2.232-1.96 3.456-2.8a27.8 27.8 0 0 1 3.867-2.157 25.73 25.73 0 0 1 4.055-1.432 24.78 24.78 0 0 1 4.094-.723 25.06 25.06 0 0 1 4-.071c2.484.148 4.936.637 7.286 1.455a28.06 28.06 0 0 1 5.876 2.878 26.78 26.78 0 0 1 6.959 6.486c1.337 1.826 1.85 2.975 1.75 3.04h-.02l.482.753c7.85 12.93 4.6 29.526-7.17 37.578l2.05 9.006a33.72 33.72 0 0 0 1.671-.981c16.327-10.272 21.02-32.67 10.484-50.028z" class="D"/><path d="M40.912 206.065l1.185.18-.3-.474q-.437.148-.885.293zm-4.788-9.367l.3 3.906a7.45 7.45 0 0 0 1.975-.279zm13.826 8.67c-.812-1.3-2.258-1.344-4.1-.93l1.65 2.635 2.8.428c.2-.727.067-1.502-.34-2.133zm10.636-21.086c-2.055-2.25-4.437-4.18-7.066-5.723-1.78-1.032-3.67-1.866-5.632-2.486a26.43 26.43 0 0 0-6.84-1.174c-1.24-.052-2.483-.007-3.717.135a23.52 23.52 0 0 0-3.789.721 24.43 24.43 0 0 0-3.745 1.357c-1.243.577-2.44 1.248-3.58 2.008a27.09 27.09 0 0 0-3.178 2.555l7.468 3.683 2.417-1.572 2.526 4.035a17.77 17.77 0 0 1 8.458-2.326l1.115 5.682a16.11 16.11 0 0 0-6.517 1.529l3.94 6.292c4.454-1.544 9.547-2.928 12.813 2.3 2.164 3.458 1.927 7.878-1.77 11.822l2.735 12.013c11.8-8.077 15.04-24.75 7.1-37.7l-.7-.853c-.355-.365-1.02-1.177-2.04-2.288z" class="F"/><g class="B"><path d="M23.038 181.675a27.17 27.17 0 0 1 3.178-2.555c1.14-.76 2.337-1.43 3.58-2.008a24.43 24.43 0 0 1 3.746-1.356 23.31 23.31 0 0 1 3.79-.72 23.87 23.87 0 0 1 3.717-.135 26.48 26.48 0 0 1 6.84 1.174 28.16 28.16 0 0 1 5.632 2.486 30.41 30.41 0 0 1 7.066 5.723 21.51 21.51 0 0 0 2.328 2.51c.005 0 .016.007.02 0 .1-.065-.413-1.214-1.75-3.04a26.78 26.78 0 0 0-6.957-6.483 28.06 28.06 0 0 0-5.876-2.878 27.06 27.06 0 0 0-7.286-1.455 25.06 25.06 0 0 0-4 .071 24.78 24.78 0 0 0-4.094.723 25.73 25.73 0 0 0-4.055 1.432 26.09 26.09 0 0 0-7.9 5.516v.01zm32.22 19.613c-3.266-5.218-8.36-3.834-12.813-2.3l-3.94-6.292a16.11 16.11 0 0 1 6.517-1.529l-1.115-5.682c-2.97.057-5.877.856-8.458 2.326l.675 8.883 2.272 3.627a7.45 7.45 0 0 1-1.975.279l.367 4.824 4.125.632q.447-.144.888-.293l.3.474 5.4.827-1.65-2.635c1.84-.414 3.287-.367 4.1.93.4.632.533 1.406.34 2.134l2 .3 1.207 5.3c3.695-3.936 3.932-8.357 1.768-11.815z"/><path d="M30.505 185.357l4.943 2.463-2.526-4.035z"/></g><path d="M53.482 227.567l-1.1.8a27.56 27.56 0 0 1-3.861 2.2 27.46 27.46 0 0 1-8.032 2.337 27.77 27.77 0 0 1-7.574-.055 28.06 28.06 0 0 1-6.376-1.742 26.08 26.08 0 0 1-8.037-5.126c-1.636-1.56-2.334-2.607-2.243-2.69h.02l-.6-.657c-10.058-11.383-9.307-28.684 1.7-39.152l-8.412-3.85c-12.064 14.056-11.928 34.853.32 48.75 11.478 13.358 30.945 16.433 45.982 7.263l-.17-.772z" class="D"/><path d="M15.762 222.74l.838.717 2.42 1.9a29.74 29.74 0 0 0 8.025 4.346 28.09 28.09 0 0 0 6.068 1.4c2.356.263 4.735.216 7.08-.14 2.577-.4 5.08-1.162 7.432-2.287a26.05 26.05 0 0 0 3.562-2.066q.455-.318.9-.657l.64-1.8-3.054-13.8-.366-.05a15.49 15.49 0 0 1-2.422 3.75l3.24 3.6-3.143 2.912-3.183-3.534a18.91 18.91 0 0 1-8.16 3.933l-2.02-5.443a17.12 17.12 0 0 0 6.327-2.768l-3.847-4.27-2.332-.322-.015-.242c-3.945 2.1-8.323 3.63-12.046-.5-3.036-3.373-3.275-8.5 1.1-13.7l-3.27-3.63 3.143-2.9 3.18 3.532a24.7 24.7 0 0 1 2.872-2.017l-11.368-5.2C6.327 194 5.618 211.38 15.763 222.75zm27.416-13.292l-.494-.068.318.352.176-.284zm-16.763-7.123c1.023 1.135 2.488.906 4.278.14l-4.03-4.473c-1.25 1.812-1.183 3.293-.25 4.332zm6.74-3.527l-.375-5.713a17.76 17.76 0 0 0-3.09 1.866z" class="F"/><path d="M47.623 228.665c-2.35 1.125-4.855 1.896-7.432 2.287a27.2 27.2 0 0 1-7.08.14 28.09 28.09 0 0 1-6.068-1.4c-2.883-1.027-5.6-2.493-8.025-4.346a20.59 20.59 0 0 0-2.742-2.052h-.02c-.1.084.607 1.13 2.243 2.7a26.08 26.08 0 0 0 8.037 5.126c2.048.83 4.187 1.416 6.373 1.745a27.77 27.77 0 0 0 7.574.055 27.46 27.46 0 0 0 8.032-2.337 27.56 27.56 0 0 0 3.861-2.2l1.1-.8q-.18-.816-.362-1.637l-.152-.687q-.873.717-1.784 1.355a26.05 26.05 0 0 1-3.555 2.061zM33.62 215.5l2.02 5.443a18.91 18.91 0 0 0 8.16-3.933l3.183 3.534 3.143-2.912-3.24-3.6a15.49 15.49 0 0 0 2.422-3.75l-6.128-.846-.176.284-.318-.352-6.584-.9 3.847 4.27a17.12 17.12 0 0 1-6.328 2.771zm-10.94-28.327l-3.143 2.9 3.27 3.63c-4.38 5.186-4.14 10.316-1.1 13.7 3.723 4.134 8.1 2.6 12.046.5l-.598-9.108-3.464-3.847a17.76 17.76 0 0 1 3.09-1.866l-.174-2.622-3.87-1.77a24.7 24.7 0 0 0-2.872 2.017zm3.73 15.153c-.934-1.038-1-2.52.25-4.332l4.03 4.473c-1.786.764-3.25.992-4.274-.14z" class="B"/><path d="M376.384 59.06C386.668 40.034 380.23 16.924 362 7.443c-3.347-1.74-6.948-2.943-10.67-3.56l.7 8.447.837.222c1.518.44 2.998 1 4.428 1.672 1.416.69 2.775 1.5 4.064 2.395a27.4 27.4 0 0 1 3.5 2.956c2.05 2.057 3.767 4.422 5.084 7.01 1.2 2.363 2.07 4.88 2.584 7.48a29.86 29.86 0 0 1 .516 6.95c-.143 3.402-.894 6.75-2.217 9.887-.958 2.212-1.738 3.3-1.853 3.245-.005 0 0-.016-.007-.02l-.433.85c-7.66 14.172-24.663 20.118-38.4 13.63l-7.175 6.73a36.96 36.96 0 0 0 1.8 1.008c18.226 9.48 41.34 1.74 51.625-17.285z" class="D"/><path d="M339.4 44.276l.47 1.187.277-.528q-.374-.326-.748-.66zm6.027-9.44l-3.43 2.378a7.95 7.95 0 0 0 1.319 1.665zm-.525 17.37c.755-1.444.02-2.8-1.352-4.268l-1.535 2.934 1.1 2.8a2.85 2.85 0 0 0 1.778-1.466zm25.104-1.57a32.39 32.39 0 0 0 1.458-9.575 29.9 29.9 0 0 0-.745-6.513 28.13 28.13 0 0 0-2.6-6.92 25.47 25.47 0 0 0-2.124-3.343 25.13 25.13 0 0 0-2.7-3.1 25.98 25.98 0 0 0-3.263-2.714c-1.2-.832-2.46-1.57-3.772-2.2a28.92 28.92 0 0 0-4.058-1.547l.632 8.846 2.747 1.376-2.35 4.493c2.74 1.58 5.04 3.824 6.7 6.523l-4.622 4.083a17.19 17.19 0 0 0-4.912-5.167l-3.665 7.008c3.817 3.263 7.83 7.2 4.8 13-2.014 3.85-6.206 6-11.82 4.735l-9.57 8.977c13.78 6.5 30.843.508 38.47-13.758l.4-1.1c.143-.52.533-1.568 1.004-3.102z" class="F"/><g class="B"><path d="M352.206 14.72c1.4.413 2.746.93 4.058 1.547a28.86 28.86 0 0 1 3.772 2.21 25.98 25.98 0 0 1 3.263 2.714 25.19 25.19 0 0 1 2.7 3.1 25.47 25.47 0 0 1 2.124 3.343 28.13 28.13 0 0 1 2.6 6.92 29.9 29.9 0 0 1 .745 6.513 32.39 32.39 0 0 1-1.458 9.575 22.77 22.77 0 0 0-1.053 3.489s0 .018.007.02c.114.057.895-1.033 1.853-3.245 1.323-3.137 2.074-6.485 2.217-9.887a29.86 29.86 0 0 0-.516-6.95 28.86 28.86 0 0 0-2.584-7.48 27.71 27.71 0 0 0-5.084-7.01 27.4 27.4 0 0 0-3.5-2.956 29.54 29.54 0 0 0-4.064-2.395c-1.7-.796-3.45-1.433-5.258-1.9l-.007.005.185 2.386zm-.686 40.17c3.038-5.8-.974-9.746-4.8-13l3.665-7.008c1.98 1.36 3.654 3.12 4.912 5.167l4.622-4.083a18.92 18.92 0 0 0-6.687-6.523l-7.8 5.4-2.112 4.04a8.01 8.01 0 0 1-1.32-1.665l-4.237 2.933 1.64 4.132q.374.334.748.658l-.277.528 2.146 5.412 1.535-2.934c1.372 1.47 2.107 2.824 1.352 4.268-.36.716-1.005 1.246-1.777 1.462l.8 1.994-4.226 3.964c5.6 1.27 9.8-.887 11.816-4.736z"/><path d="M352.84 23.567l.4 5.87 2.35-4.493z"/></g><path d="M326.408 67.4l-1.333-.58a29.27 29.27 0 0 1-4.1-2.366 29.25 29.25 0 0 1-6.471-6.125 29.55 29.55 0 0 1-4.025-6.992 29.86 29.86 0 0 1-1.83-6.8 27.77 27.77 0 0 1 .387-10.146c.555-2.344 1.14-3.548 1.267-3.51.005 0 .006.015.01.02l.278-.9c5.16-15.452 21.6-24.094 36.9-19.507l-.1-.968-.89-8.836c-18.934-3.634-38.3 7.52-44.637 26.528-6.103 17.743 1.552 37.295 18.08 46.18l.618-.573z" class="D"/><path d="M310.544 30.13l-.208 1.157-.436 3.24c-.393 3.236-.284 6.513.323 9.715a30.16 30.16 0 0 0 1.98 6.33 28.9 28.9 0 0 0 3.94 6.431c1.746 2.158 3.8 4.045 6.1 5.6a27.88 27.88 0 0 0 3.816 2.162q.54.247 1.1.475l2-.38 11.04-10.233-.15-.363a16.47 16.47 0 0 1-4.75-.209l-1.565 4.916-4.368-1.322 1.536-4.826a20.13 20.13 0 0 1-8.006-5.383l3.916-4.786c1.67 1.83 3.693 3.303 5.95 4.326l1.856-5.834-.96-2.317.214-.144c-4.05-2.5-7.814-5.7-6.017-11.344 1.465-4.6 6.053-7.585 13.176-6.35l1.578-4.96 4.367 1.323-1.535 4.825a26.42 26.42 0 0 1 3.4 1.554l-1.336-13.248c-15.353-4.6-31.844 4.107-36.953 19.646zm26.974 18.048l-.2-.5-.154.482.354.01zm-2.474-19.24c-.492 1.55.506 2.774 2.173 4.008l1.944-6.1c-2.34-.175-3.666.685-4.117 2.102zm6.868 4.3l5.05-3.418a18.81 18.81 0 0 0-3.378-1.835z" class="F"/><path d="M322.245 62.605a28.11 28.11 0 0 1-6.1-5.6 28.9 28.9 0 0 1-3.938-6.432 30.02 30.02 0 0 1-1.981-6.33c-.607-3.202-.716-6.48-.323-9.715a22.07 22.07 0 0 0 .411-3.624c-.005 0-.006-.018-.01-.02-.126-.037-.712 1.167-1.267 3.5a27.77 27.77 0 0 0-.387 10.146 29.86 29.86 0 0 0 1.83 6.8 29.55 29.55 0 0 0 4.025 6.992 29.25 29.25 0 0 0 6.471 6.125 29.27 29.27 0 0 0 4.1 2.366l1.333.58 1.86-1.724q-1.13-.415-2.207-.9c-1.327-.62-2.602-1.345-3.815-2.166zm4.557-19.95l-3.916 4.786a20.13 20.13 0 0 0 8.006 5.383l-1.536 4.826 4.368 1.322 1.565-4.916a16.47 16.47 0 0 0 4.75.209l-2.52-6.088c-.12 0-.232 0-.357-.01l.154-.482-2.707-6.54-1.858 5.835a18.27 18.27 0 0 1-5.95-4.325zm20.162-25.3l-4.367-1.323-1.578 4.96c-7.123-1.235-11.7 1.745-13.176 6.35-1.8 5.647 1.966 8.847 6.017 11.344l8.05-5.45 1.67-5.253a18.81 18.81 0 0 1 3.378 1.835l2.322-1.572-.148-1.464-.307-3.045a26.42 26.42 0 0 0-3.4-1.554zm-11.922 11.583c.45-1.417 1.778-2.277 4.117-2.1l-1.944 6.1c-1.666-1.236-2.664-2.46-2.173-4z" class="B"/><path fill="#fff" d="M52.356 14.416h268.806v174.438H52.356z"/><g class="B"><path d="M321.59 189.284H51.926V13.987H321.59zm-268.806-.856h267.947V14.846H52.785z"/><path d="M97.394 188.854c-.123 0-.223-39.213-.223-87.572l.223-87.58c.123 0 .224 39.2.224 87.58l-.224 87.572z"/><use xlink:href="#E"/><use xlink:href="#E" x="44.372"/><use xlink:href="#F"/><use xlink:href="#F" x="44.372"/><use xlink:href="#G"/><use xlink:href="#H"/><use xlink:href="#G" y="59.827"/><use xlink:href="#H" y="59.828"/><use xlink:href="#G" y="119.652"/></g><path d="M289.477 176.603a23.82 23.82 0 0 1-2.256-2.944l-6.14-8.707-22.39-32.447 1.267.01-19.918 28.855c-.185.27-.497.42-.823.402s-.618-.207-.77-.496l-.005-.01-45.918-87.883 1.848.2-4.88 5.823-21.416 25.522a1.1 1.1 0 0 1-1.551.139c-.14-.117-.25-.268-.317-.437L141.54 42.726l1.645.24-23.87 29.814a.79.79 0 0 1-1.109.123.81.81 0 0 1-.206-.252L98.67 35.303l-5.154-10.207-1.29-2.68c-.17-.296-.296-.616-.372-.95.232.25.425.534.574.842a112.73 112.73 0 0 1 1.487 2.577l5.527 10L119.4 71.91l-1.32-.122 23.6-30.02a.96.96 0 0 1 1.642.23v.01l24.93 61.8-1.868-.3 26.273-31.365c.395-.473 1.1-.536 1.572-.14.113.096.207.213.276.344l45.6 88.053-1.6-.1 20.192-28.67c.146-.206.383-.327.635-.324s.487.13.628.34l21.813 32.838 5.8 8.934a23.71 23.71 0 0 1 1.906 3.187z" class="E"/><path d="M290.645 154.876c.606.033.58 9.717-.052 21.788-.016.296-.148.573-.368.772s-.5.3-.806.285a1.24 1.24 0 0 1-.235-.037l-.668-.18c-11.975-3.23-21.55-6.33-21.39-6.927s10 1.537 21.972 4.767l.67.18-1.407 1.02c.667-12.068 1.68-21.7 2.284-21.668z" fill="#e8505b"/><g class="C"><path d="M287.4 330.85h60.842v8.36H287.4z"/><path d="M348.356 339.313h-61.05v-8.573h61.05zm-60.842-.208h60.633v-8.152h-60.633z"/><path d="M293.05 336.427l8.758 43.2h32.4l8.466-40.422z"/></g><path d="M293.05 375.544l4.67 6.422h39.386l5.57-6.422z" class="G"/><path d="M315.542 337.7c-.12 0-.273-20.015-.343-44.7l.1-44.706c.12-.006.273 20 .343 44.7l-.1 44.706zm13.558-50.1a2.14 2.14 0 0 1-.163.466l-.543 1.295-.4.933-.406 1.136-.468 1.3-.45 1.486a60.51 60.51 0 0 0-1.7 7.449 90.38 90.38 0 0 0-.943 9.315 125.66 125.66 0 0 0 .481 17.017l.537 5.14.154 1.4a2.13 2.13 0 0 1 .024.492 2.14 2.14 0 0 1-.111-.479l-.234-1.388-.675-5.13a111.99 111.99 0 0 1-.609-17.067 84.78 84.78 0 0 1 .981-9.361 56.4 56.4 0 0 1 1.8-7.473l.482-1.486.5-1.3.44-1.128.434-.923.62-1.266a2.05 2.05 0 0 1 .25-.427zm-1.556-16.188c-.046.225-.1.446-.194.66l-.633 1.86q-.2.6-.465 1.34-.227.75-.5 1.616l-1.135 3.955q-.3 1.107-.6 2.314-.275 1.218-.57 2.53l-1.124 5.612c-.67 3.975-1.26 8.37-1.67 13.006-.384 4.64-.552 9.072-.6 13.105-.012 4.032.04 7.667.2 10.714.053 1.525.15 2.9.23 4.1l.223 3.1q.094 1.23.15 1.96a4.1 4.1 0 0 1 .022.687 4.14 4.14 0 0 1-.109-.677q-.086-.73-.23-1.954c-.1-.85-.2-1.9-.3-3.1l-.294-4.114c-.205-3.05-.288-6.7-.3-10.733.037-4.042.193-8.487.578-13.14a155.68 155.68 0 0 1 1.707-13.038c.4-1.98.724-3.877 1.166-5.62q.3-1.312.6-2.533.334-1.205.64-2.313c.387-1.48.82-2.794 1.2-3.948q.282-.862.525-1.608l.5-1.332q.446-1.15.7-1.835a4.02 4.02 0 0 1 .282-.628zm-15.847 69.818a.99.99 0 0 1-.034-.234l-.058-.688-.18-2.65-.6-9.75c-.528-8.23-1.292-19.6-2.677-32.1a401.88 401.88 0 0 0-2.382-17.573l-1.332-7.623c-.428-2.385-.9-4.6-1.313-6.613-.4-2.022-.846-3.833-1.2-5.43a131.56 131.56 0 0 0-.978-4.086l-.632-2.58-.154-.674a.97.97 0 0 1-.038-.233.92.92 0 0 1 .08.222l.2.662.7 2.56 1.05 4.07 1.268 5.423 1.367 6.6c.483 2.38.908 4.937 1.373 7.626.876 5.387 1.7 11.33 2.418 17.6 1.387 12.518 2.1 23.9 2.552 32.136l.473 9.76.1 2.654.015.7a.93.93 0 0 1-.02.23z" class="C"/><path d="M315.05 257.904c-.264-2.836-3.13-4.974-5.978-5a9.41 9.41 0 0 0-7.243 3.931c-1.64 2.338-2.824 4.964-3.488 7.742-2.074 6.657-2.803 13.66-2.146 20.6.82 6.9 3.62 13.7 8.573 18.573.805.793 1.848 1.585 2.953 1.35a3.56 3.56 0 0 0 1.559-.962c9.81-8.98 15.265-21.76 14.962-35.058-.077-2.624-.422-5.356-1.876-7.542s-4.84-4.508-7.316-3.63" class="E"/><path d="M293.786 235.193q-2.007 3.632-4.012 7.264c-.093.17-.217.36-.4.375-.21.017-.368-.18-.484-.36q-5.3-8.137-10.6-16.274l2.443-1.384z" fill="#d1a609"/><path d="M315.296 248.28l-36.173-21.345c-.396-.172-.712-.5-.88-.888-.145-.535.257-1.052.643-1.45a24.93 24.93 0 0 1 19.331-7.594 22.09 22.09 0 0 1 17.479 10.869c3.5 6.238 3.606 14.487-.4 20.408" class="E"/><g class="C"><path d="M284.335 220.124c.155-.04.313-.06.473-.06l1.367-.066a27.26 27.26 0 0 1 5.019.4c11.263 1.9 20.4 10.166 23.413 21.183a27.17 27.17 0 0 1 .9 4.954c.037.35.055.702.055 1.054-.03.282-.124.553-.28.8.1-.603.13-1.22.056-1.827a30.79 30.79 0 0 0-1.023-4.887 29.55 29.55 0 0 0-23.172-20.967 30.76 30.76 0 0 0-4.966-.532c-1.185-.025-1.84-.006-1.843-.043z"/><path d="M310.398 233.55a8.72 8.72 0 0 1-1.83.83l-4.564 1.608-4.656 1.32c-.64.2-1.303.327-1.973.376a9.85 9.85 0 0 1 1.891-.672l4.606-1.438 4.593-1.483a9.81 9.81 0 0 1 1.932-.543zm-5.698-15.3a25.27 25.27 0 0 1 .2 8.086 76.16 76.16 0 0 1-.2-8.086zm-25.894 8.283a16.2 16.2 0 0 1 2.628-.925l6.483-1.763 6.576-1.383a16.26 16.26 0 0 1 2.761-.373 19.44 19.44 0 0 1-2.7.674l-6.535 1.5-6.5 1.637a19.37 19.37 0 0 1-2.713.633z"/></g><path d="M300.037 251.752c-3.11-2.36-6.4-2.824-10.3-2.67-3.907.26-7.73 1.247-11.275 2.9-6.1 2.67-11.833 6.608-15.477 12.182s-4.912 12.95-2.184 19.025a2.71 2.71 0 0 0 1.236 1.5 2.95 2.95 0 0 0 2.042-.156c6.937-2.263 13.923-4.547 20.3-8.092s12.184-8.47 15.607-14.915c.88-1.52 1.44-3.204 1.643-4.95.192-1.765-.388-3.528-1.59-4.834" class="E"/><g class="C"><path d="M300.097 251.02a2.46 2.46 0 0 1-.5.2l-1.453.5-1.053.35-1.23.48-2.97 1.23-1.7.775-1.8.925c-1.257.618-2.53 1.407-3.885 2.207a61.4 61.4 0 0 0-15.3 13.464l-2.684 3.573-1.147 1.67-.985 1.59c-.653 1-1.135 1.963-1.6 2.788l-.632 1.16-.482 1-.68 1.378c-.07.165-.16.323-.265.47a2.52 2.52 0 0 1 .185-.5l.608-1.414.45-1.02.6-1.18 1.55-2.833.968-1.613 1.132-1.693c.766-1.185 1.7-2.362 2.67-3.62a59.46 59.46 0 0 1 15.4-13.553l3.93-2.186 1.824-.908 1.722-.754c1.086-.505 2.118-.842 3.007-1.177l1.247-.447 1.068-.316 1.48-.423a2.44 2.44 0 0 1 .528-.122z"/><path d="M275.792 264.18c-2.476.95-5.002 1.764-7.567 2.44a73.09 73.09 0 0 1-7.689 2.022 73.09 73.09 0 0 1 7.568-2.438 73.19 73.19 0 0 1 7.688-2.023zm-.3 16.7a12.16 12.16 0 0 1-.167-2.358l.016-5.7.3-5.7c.023-.8.124-1.574.3-2.344a13.6 13.6 0 0 1 .01 2.362l-.175 5.685-.143 5.685c.022.8-.024 1.58-.14 2.36zm14.305-7.287c-.12.008-.5-4.087-.85-9.145l-.418-9.176c.12-.01.5 4.086.85 9.146l.418 9.175zm-17.807-18.718a13.43 13.43 0 0 1 2.426-.073l5.84.13 5.836.257a13.56 13.56 0 0 1 2.415.233 13.3 13.3 0 0 1-2.421.074l-5.845-.13-5.84-.257a13.45 13.45 0 0 1-2.411-.233zm34.34 49.825a2.02 2.02 0 0 1-.052-.484l-.064-1.392-.02-5.123.447-7.587 1.273-9.224 2.06-9.1 2.256-7.273 1.826-4.8.55-1.285a2.13 2.13 0 0 1 .219-.436 2.09 2.09 0 0 1-.138.468l-.473 1.312-1.693 4.836-2.162 7.277-2.018 9.064-1.3 9.188-.538 7.56-.117 5.1-.018 1.4c.007.163-.006.327-.037.487z"/><path d="M308.226 281.016a9.9 9.9 0 0 1-1.443 1.584l-3.78 3.515-3.98 3.3a9.93 9.93 0 0 1-1.758 1.223 11.1 11.1 0 0 1 1.564-1.46l3.9-3.378 3.856-3.413a11.2 11.2 0 0 1 1.653-1.36zm11.454 9.222a16.99 16.99 0 0 1-1.537-2.129l-3.574-5.216-3.65-5.166a16.96 16.96 0 0 1-1.462-2.18 14.63 14.63 0 0 1 1.707 2l3.76 5.1 3.476 5.3a14.67 14.67 0 0 1 1.28 2.292zm-6.002-29.004c.064.1-3.74 2.66-8.494 5.718s-8.665 5.454-8.73 5.354 3.738-2.66 8.495-5.72 8.663-5.46 8.728-5.353zm10.724 11.574c-3.932-3.438-7.67-7.092-11.2-10.943a141.62 141.62 0 0 1 11.2 10.943z"/></g><path d="M327.1 272.576l3.265-.27c2.317-.2 4.566-.878 6.593-2.018a26.32 26.32 0 0 1 3.073-1.543c4.037-1.62 8.54-1.33 12.884-1.548a53.35 53.35 0 0 0 20.5-5.241c.374-.17.686-.454.893-.8.67-1.222-.575-2.3-1.647-2.97-5.5-3.39-11.1-6.822-17.337-8.5s-13.318-1.4-18.64 2.264c-6.248 4.3-8.525 13.13-9.58 20.643" class="E"/><g class="C"><path d="M374.377 260.742a3.3 3.3 0 0 1-.553-.258l-1.548-.8-5.716-2.92a53.44 53.44 0 0 0-8.848-3.41c-3.723-1.067-7.62-1.383-11.467-.93a19.6 19.6 0 0 0-10.454 4.49c-2.316 2.152-4.168 4.754-5.444 7.646-1.147 2.447-1.853 4.53-2.368 5.953l-.58 1.647c-.06.195-.136.385-.23.566.03-.202.078-.4.145-.593l.5-1.674c.63-2.052 1.38-4.065 2.25-6.028 1.256-2.956 3.115-5.618 5.457-7.816 3.013-2.57 6.726-4.18 10.662-4.62 3.903-.462 7.86-.13 11.63.974 3.06.896 6.032 2.074 8.875 3.52 2.433 1.21 4.344 2.3 5.662 3.047l1.51.882a3.14 3.14 0 0 1 .517.334z"/><path d="M366.538 264.955c-.067.1-4.337-2.663-9.537-6.17s-9.362-6.43-9.3-6.53 4.337 2.663 9.538 6.17 9.366 6.43 9.3 6.528zm-4.556-12.925a10.36 10.36 0 0 1-3.109.559 10.52 10.52 0 0 1-3.171-.041c1.035-.187 2.083-.294 3.134-.32a20.82 20.82 0 0 1 3.146-.198zm-18.682-2.435c-.348.8-.82 1.538-1.4 2.2-.492.754-1.1 1.433-1.774 2.017.348-.8.82-1.538 1.4-2.2.492-.754 1.1-1.433 1.774-2.017zm3.817 17.875a11.38 11.38 0 0 1-2.055-1.114l-4.682-3.14-4.48-3.412a12.69 12.69 0 0 1-1.773-1.52 12.42 12.42 0 0 1 1.957 1.275l4.55 3.306 4.594 3.232a13.98 13.98 0 0 1 1.888 1.372z"/></g><path d="M331.907 286.447c-3.115-.822-6.827 2.207-7.47 5.363s.542 6.384 1.928 9.292a47.4 47.4 0 0 0 12.878 16.85c5.556 4.572 12.497 7.127 19.69 7.25-1.317-6.114.348-12.5-.386-18.715-1.332-11.272-10.276-20.128-21.56-21.348-1.987-.215-4.288-.527-5.08 1.31" class="E"/><g class="C"><path d="M358.936 325.197a1.99 1.99 0 0 1-.443-.206 8.06 8.06 0 0 1-1.165-.782 12.13 12.13 0 0 1-3.074-4.112l-1.594-3.17-1.676-3.7c-.604-1.36-1.29-2.683-2.06-3.96a31 31 0 0 0-2.834-3.854c-2.132-2.5-4.42-4.67-6.4-6.74-1.794-1.808-3.427-3.768-4.882-5.858a21.51 21.51 0 0 1-2.385-4.556l-.416-1.335a2 2 0 0 1-.1-.479c.04-.01.217.636.67 1.753a23.56 23.56 0 0 0 2.481 4.444 46.47 46.47 0 0 0 4.916 5.753l6.447 6.738a30.8 30.8 0 0 1 2.866 3.912c.772 1.293 1.46 2.634 2.06 4.015l1.64 3.717 1.54 3.18c.682 1.557 1.672 2.96 2.91 4.124.907.786 1.523 1.077 1.497 1.115z"/><path d="M342.83 320.12a9.3 9.3 0 0 1 .286-2.1l1.183-4.96 1.58-4.85a9.3 9.3 0 0 1 .851-1.937 11.56 11.56 0 0 1-.56 2.036l-1.453 4.868-1.3 4.9a11.37 11.37 0 0 1-.586 2.032zm15.515-15.012a12.84 12.84 0 0 1-2.194-.5l-5.257-1.295-5.3-1.083c-.746-.097-1.482-.26-2.2-.485.753-.02 1.506.042 2.246.182l5.35.963 5.247 1.424c.728.2 1.435.456 2.107.794zm-27.07 4.36a12.66 12.66 0 0 1 .337-2.427l1.3-5.763 1.7-5.66a12.7 12.7 0 0 1 .892-2.28c-.135.806-.336 1.6-.6 2.372l-1.564 5.68-1.4 5.717a14.95 14.95 0 0 1-.635 2.363zM351.2 292.03c-.013.12-3.9-.2-8.682-.7l-8.638-1.133c.012-.118 3.9.2 8.684.7l8.636 1.133z"/></g><path d="M348.352 339.174c0 .12-13.665.217-30.52.217s-30.523-.1-30.523-.217 13.663-.217 30.523-.217l30.52.217zm-9.507 17.586c0 .12-9.208.217-20.564.217s-20.566-.1-20.566-.217 9.206-.217 20.566-.217l20.564.217zm-.358 2.516c0 .12-9.047.217-20.205.217s-20.208-.1-20.208-.217 9.046-.217 20.208-.217l20.205.217zm.717-4.588c0 .12-9.524.217-21.27.217s-21.272-.1-21.272-.217 9.52-.217 21.272-.217l21.27.217z" class="G"/><path d="M416.078 390.56c0 .123-83.562.223-186.616.223-103.1 0-186.634-.1-186.634-.223s83.544-.224 186.634-.224l186.616.224z" class="C"/><g class="B"><path d="M164.44 287.435l1.533 94.248h5.274v-94.248zm65.924-1.875v96.148l5.126.03V285.56z"/><path d="M166.038 305.21h64.985v5.72h-64.985z"/></g><rect width="98.009" height="16.208" rx="3.754" x="150.831" y="272.104" class="G"/><path d="M116.745 187.37l.515-25.817 8-17.963s1.06-1.9 1.885-.93-.18 2.156-.18 2.156 1.84-.4 1.51 1.39l-.877 4.044s.37 2.063-1.56 5.7-2.063 5.254-2.063 5.254 2.43 3.4 4.35 4.22a4.31 4.31 0 0 0 4.973-1.1 26.12 26.12 0 0 1 4.773-3.04l2.47 2.918s-3.705 4.032-4.4 5.422-2.754 6.644-4.893 8.455-2.656 8.027-2.656 8.027-1.07 6.496-11.852 1.26z" class="I"/><path d="M119.205 162.933a16.16 16.16 0 0 1 .872-2.563l2.4-6.067 1.376-3.323a4.84 4.84 0 0 1 .849-1.384c.333-.365.77-.62 1.252-.73a1.51 1.51 0 0 1 1.186.217 1.41 1.41 0 0 1 .536.727c.14.5-.076.76-.083.74a1.58 1.58 0 0 0-.08-.679 1.24 1.24 0 0 0-1.489-.7 2.12 2.12 0 0 0-1.047.668c-.317.4-.57.83-.746 1.3l-1.34 3.328-2.52 6.018a16.29 16.29 0 0 1-1.166 2.448zm6.888-17.867c.064.056-.633.828-1.46 2.267a36.8 36.8 0 0 0-2.566 5.967 34.29 34.29 0 0 1-2.634 6.01 11.59 11.59 0 0 1-1.146 1.635c-.307.358-.486.546-.5.526-.064-.052.595-.854 1.382-2.317a44.55 44.55 0 0 0 2.488-6.009c.683-2.086 1.593-4.1 2.715-5.977a10.4 10.4 0 0 1 .652-.934 5.8 5.8 0 0 1 .548-.662c.322-.347.5-.528.532-.507zm.787 29.358c-.262-.44-.408-.94-.424-1.45-.294-2.512.817-4.98 2.9-6.428a3.02 3.02 0 0 1 1.367-.646c.03.064-.48.323-1.176.9a7.48 7.48 0 0 0-2.766 6.147l.108 1.478zm-.786 4.692a2.04 2.04 0 0 0-.009-.668 13 13 0 0 0-.485-1.8l-2.008-5.9a17.32 17.32 0 0 1-.772-3.38c-.043-.522.022-1.047.192-1.543l.385-1.242a4.2 4.2 0 0 0 .176-1.808c-.07-.427-.192-.645-.16-.663s.2.18.33.626a3.91 3.91 0 0 1-.04 1.923l-.334 1.262a3.49 3.49 0 0 0-.139 1.407 19.03 19.03 0 0 0 .789 3.283l1.883 5.93c.184.6.303 1.238.356 1.873.04.468-.14.717-.164.687z" class="H"/><path d="M116.327 350.805l-1.3 21.383 18.134 1.027 1.224-22.41z" class="B"/><path d="M113.585 370.278h-3.743s-26.73 8.87-26.885 13.866l52.227.378v-11.97z" class="C"/><g fill="#a8adaf"><path d="M125.913 374.347c1.05.286 1.716 1.314 1.548 2.388a2.05 2.05 0 0 1-2.354 1.555 2.25 2.25 0 0 1-1.626-2.537c.37-1.083 1.533-1.677 2.628-1.346m9.075 10.113l-.107-4.23-50.442 1.392a3.61 3.61 0 0 0-1.944 2.837zm-31.604-12.052c-.052.248 1.066.65 1.964 1.7.93 1.026 1.183 2.185 1.436 2.166.24.033.372-1.465-.77-2.752s-2.632-1.358-2.63-1.114zm-2.9 6.646c.233.047.55-1.237-.148-2.613s-1.9-1.9-2.006-1.68c-.138.213.66.94 1.213 2.077.58 1.126.686 2.2.94 2.216zm8.846-8.1a4.35 4.35 0 0 0 2.305-.082 10.39 10.39 0 0 0 2.39-.814 10.85 10.85 0 0 0 1.3-.743c.255-.15.484-.34.68-.563a.98.98 0 0 0 .067-1.2c-.238-.3-.6-.5-1-.484a3.04 3.04 0 0 0-.862.145 8.33 8.33 0 0 0-1.418.535 8.13 8.13 0 0 0-2.084 1.46c-1.04 1.022-1.377 1.872-1.3 1.914.1.07.6-.65 1.664-1.5a9.24 9.24 0 0 1 2.02-1.22 8.65 8.65 0 0 1 1.312-.449c.484-.143.9-.158 1.03.055.048.082.055.113-.042.26a2.33 2.33 0 0 1-.5.412 12.25 12.25 0 0 1-1.2.733 12.81 12.81 0 0 1-2.2.922 15.75 15.75 0 0 0-2.162.621z"/><path d="M109.818 371.327a3.67 3.67 0 0 0 .54-2.245 7.47 7.47 0 0 0-1.02-3.9c-.27-.612-.842-1.037-1.506-1.12-.418.022-.786.284-.943.672a3.11 3.11 0 0 0-.211.852 5.12 5.12 0 0 0 .045 1.553 5.31 5.31 0 0 0 1.057 2.352c.936 1.166 1.882 1.407 1.9 1.33.07-.115-.725-.525-1.45-1.65-.417-.65-.69-1.38-.795-2.145a4.75 4.75 0 0 1 0-1.334c.057-.49.23-.89.413-.847.23-.01.63.346.83.73.24.392.443.804.608 1.232.28.734.454 1.504.516 2.287.107 1.355-.107 2.204.016 2.234z"/></g><path d="M106.433 353.308s-1.8-80.984-.207-90.263 7.634-19.21 13.362-20.13 56.8-4.524 56.8-4.524h38.01l-9.714 36.906-46.44.422-14.428.33-4.65 77.258z" class="C"/><path d="M142.908 263.892a5.53 5.53 0 0 1 .686 1.621 21.02 21.02 0 0 1 .888 8.4 5.49 5.49 0 0 1-.332 1.728c-.14-.015.226-2.673-.13-5.93-.332-3.25-1.244-5.773-1.1-5.82zm-13.9 6.912a1.93 1.93 0 0 1 .586-.321 14.72 14.72 0 0 1 1.7-.65 7.9 7.9 0 0 1 2.7-.393 6.27 6.27 0 0 1 3.146 1.133l4.9 3.374a13.48 13.48 0 0 1 1.957 1.508 13.62 13.62 0 0 1-2.134-1.245l-4.974-3.26c-.865-.616-1.876-.996-2.933-1.1-.87-.042-1.744.055-2.585.286l-2.374.667zm-12.714 81.273c-.124 0-.223-18.384-.223-41.057l.223-41.06c.123 0 .224 18.38.224 41.06l-.224 41.057zm19.746-105.295c.01.1-1.585.1-4.038.73-6.495 1.655-11.78 6.365-14.17 12.627-.913 2.364-1.1 3.947-1.188 3.928-.007-.372.032-.743.115-1.106.175-.998.435-1.98.777-2.933a19.95 19.95 0 0 1 14.39-12.824 17.77 17.77 0 0 1 3-.435 4.6 4.6 0 0 1 1.113.012zm18.684-2.047a56.3 56.3 0 0 1-7 1.1 56.13 56.13 0 0 1-7.06.653 56.53 56.53 0 0 1 7-1.1 56.51 56.51 0 0 1 7.06-.653z" class="G"/><path d="M198.702 355.47v21.22L188.7 394.95c-.274.72-.236 1.524.104 2.216s.952 1.213 1.7 1.437h0a2.77 2.77 0 0 0 2.508-.458c4.54-3.52 21.183-16.556 21.235-18.548.06-2.306 0-24.715 0-24.715z" class="B"/><path d="M195.6 372.603l-.524 1.9-8.564 22.553a3 3 0 0 0 1.935 3.939h0c.927.283 1.933.1 2.7-.494 4.212-3.266 19.64-15.047 24.282-20.526.484-.78.796-1.65.918-2.56.3-2.006-.24-7.856-.918-8.888-1.43-2.18-1.735 4.933-7.595 4.933a107.48 107.48 0 0 1-12.234-.857z" class="C"/><path d="M190.48 398.6l23.935-20.83-.12 1.145a4.19 4.19 0 0 1-1.273 2.6c-1.928 1.836-7.365 6.8-19.952 16.638a2.78 2.78 0 0 1-2.59.449zm17.6-23.257c-.742.433-1.04 1.355-.7 2.14a1.62 1.62 0 0 0 2.115.7 1.78 1.78 0 0 0 .718-2.27 1.68 1.68 0 0 0-2.281-.486" opacity=".6" fill="#fff"/><path d="M197.902 387.443c-.16.06-.62-1.42-2.148-2.352-.95-.497-1.983-.8-3.05-.923-.016-.07.347-.243 1-.266 1.717-.003 3.282.983 4.02 2.533.258.6.258.993.187 1.008zm-2.304 3.417c-.14.1-.916-.867-2.272-1.414a22.96 22.96 0 0 0-2.6-.62c-.064-.146 1.3-.583 2.833.068 1.54.633 2.188 1.908 2.04 1.965zm6.376-7.68c-.14.115-1.325-1.383-3.358-2.42-2.018-1.068-3.924-1.176-3.9-1.357a7.6 7.6 0 0 1 7.27 3.776zm-1.138-7.478c-.053-.343-.03-.694.07-1.026a7.13 7.13 0 0 1 1.094-2.592 3.17 3.17 0 0 1 1.509-1.361 1.12 1.12 0 0 1 1.229.38c.252.37.36.82.3 1.266-.324 1.86-1.924 3.228-3.812 3.26a4.57 4.57 0 0 1-4.21-2.845 1.58 1.58 0 0 1 .064-1.318 1.1 1.1 0 0 1 1.2-.458 3.89 3.89 0 0 1 1.683 1.114 7.97 7.97 0 0 1 1.623 2.294 2.42 2.42 0 0 1 .317.977c-.594-1.092-1.346-2.1-2.23-2.965a3.63 3.63 0 0 0-1.491-.934c-.25-.073-.516.027-.656.245a1.09 1.09 0 0 0 .009.87c.646 1.458 2.083 2.405 3.678 2.424a3.42 3.42 0 0 0 3.276-2.72 1.32 1.32 0 0 0-.172-.893.61.61 0 0 0-.675-.22 2.85 2.85 0 0 0-1.3 1.13c-.697 1.026-1.207 2.168-1.507 3.372z" fill="#a8adaf"/><path d="M186.637 154.03l-13.418-4.595-22.884 8.385-1.747 3.208 23.058-2.51z" fill="#e8505b"/><path d="M226.9 252.175s-23.254 2.09-27.107 6.035-5.37 13.265-6.38 19.3-2.45 78.208-2.45 78.208l33.513.968 4.9-78.114s15.6-.954 18.135-11.454-3.812-28.738-3.812-28.738l-17.606 3.938z" class="C"/><path d="M229.614 265.344a62.34 62.34 0 0 1-.1 7.465c-.035 2.5-.22 4.977-.55 7.445a62.19 62.19 0 0 1 .1-7.465c.035-2.5.22-4.976.55-7.445zm6.014.203a6.9 6.9 0 0 1 0 2.174 16.96 16.96 0 0 1-4.217 9.483 6.85 6.85 0 0 1-1.615 1.456 21.23 21.23 0 0 0 5.833-13.112zm-43.65 46.597a2.79 2.79 0 0 1-.031-.577v-1.65l.045-6.065c.057-5.12-.01-12.2.52-20.014.5-7.805 1.906-14.86 3.962-19.6a26.73 26.73 0 0 1 1.506-3.123c.4-.776.854-1.523 1.358-2.236l.975-1.335a2.74 2.74 0 0 1 .363-.446 2.84 2.84 0 0 1-.291.5l-.9 1.377a20.88 20.88 0 0 0-1.284 2.258 28.25 28.25 0 0 0-1.433 3.125c-1.963 4.718-3.3 11.723-3.808 19.5-.53 7.786-.514 14.867-.65 19.986l-.186 6.065-.084 1.648a2.82 2.82 0 0 1-.062.578zm13.75 38.454a.94.94 0 0 1-.026-.235l-.03-.693-.068-2.662-.06-9.794c.037-8.27.36-19.7 1.274-32.286s2.262-23.946 3.425-32.134l1.482-9.68.454-2.623.13-.68c-.058-.02-.1-.082-.075-.14s.073-.097.134-.088.104.063.1.124-.053.1-.114.112l-.085.687-.37 2.636-1.34 9.7c-1.083 8.194-2.37 19.544-3.293 32.124a554.79 554.79 0 0 0-1.4 32.257l-.112 13.145a.98.98 0 0 1-.025.232z" class="G"/><path d="M172.382 245.125s-11.375 5.87-13.943 8.073a152.23 152.23 0 0 0-11.008 11.192l-6.605 13.026s.162 7.14.617 8.89c.437 1.686 3.052 2.117 3.052.1s.184-6.788.184-6.788l3.12-4.587-1.65 4.4s-.466 9.428 1.285 10.09c1.71.647 2.51-.153 2.51-2.17s.185-7.574.185-7.574l3.08-5.173-.637 5.93s-.734 7.338.184 8.44 2.568-.734 2.568-.734 2.2 4.22 3.12.184 1.468-8.256 1.468-8.256l4.954-12.52 4.77-7.663 8.073-2.935s1.65-10.274-5.323-11.925z" class="I"/><path d="M158.158 273.946a14.8 14.8 0 0 1-.68 2.068 38.2 38.2 0 0 0-2.036 10.216 14.75 14.75 0 0 1-.165 2.171 8.26 8.26 0 0 1-.151-2.182 28.35 28.35 0 0 1 2.056-10.316 8.26 8.26 0 0 1 .976-1.957z" class="H"/><g class="B"><path d="M180.227 154.186s18.06-1.354 25.058 1.13 18.06 6.547 19.867 15.8c0 0 9.48 28.9 10.384 34.314s4.515 23.027 4.515 23.027 5.644 4.74 5.644 9.482l-34.314 7.676s-26.187.9-34.992-7.224v-5.644a14.3 14.3 0 0 1-2.934-5.192l-1.355-5.418s-17.383-14.22-19.643-18.736-16.254-26.64-16.254-26.64.677-9.48 9.48-14 34.543-8.575 34.543-8.575z"/><path d="M152.46 203.4l-.318 1.24c-1.62 6.243-9.05 34.035-13.323 35.934-4.816 2.14-14.962 5.083-21.918-4.013s-3.6-50.373-3.6-50.373l16.712-.3.514 15.62 5.68-24.75 17.863 21.54z"/></g><g class="C"><path d="M186 153.817a7.17 7.17 0 0 1 .07 1.143l.06 3.224-.005.02c-1.1 4.017-3.074 10.6-5.383 18.014l-3.8 12.432-.23.776-.13-.8a6.87 6.87 0 0 0-1.794-3.585 7.47 7.47 0 0 0-2.554-1.8 8.82 8.82 0 0 0-2.67-.607 2.92 2.92 0 0 1 .729-.033 6.66 6.66 0 0 1 2.021.442 7.51 7.51 0 0 1 2.691 1.787 7.1 7.1 0 0 1 1.942 3.733l-.36-.022c1-3.565 2.3-7.856 3.72-12.46l5.556-17.918.06-3.208a6.88 6.88 0 0 1 .069-1.137zm-5.976 1.653a5.59 5.59 0 0 1-.381 1.076l-1.16 2.877c-.98 2.427-2.294 5.8-3.682 9.543l-3.5 9.615-1.1 2.906a5.62 5.62 0 0 1-.457 1.046 5.58 5.58 0 0 1 .293-1.1l.955-2.952a311.77 311.77 0 0 1 3.39-9.667c1.4-3.754 2.753-7.1 3.8-9.5l1.292-2.824a5.58 5.58 0 0 1 .541-1.01zm-29.412 15.205c.043.022-.25.436-.482 1.285a6.89 6.89 0 0 0 .071 3.665c.558 1.76 1.556 3.35 2.9 4.615a49.05 49.05 0 0 0 5.23 4.38 65.6 65.6 0 0 0 8.83 5.5l-.26.2a9.14 9.14 0 0 1 .758-5.187 8.03 8.03 0 0 1 .732-1.259 1.7 1.7 0 0 1 .333-.39c.044.03-.4.6-.877 1.73a9.32 9.32 0 0 0-.59 5.048l.057.345-.316-.156a59.38 59.38 0 0 1-8.933-5.46c-1.862-1.35-3.62-2.838-5.26-4.452a10.92 10.92 0 0 1-2.913-4.82 6.75 6.75 0 0 1 .068-3.8c.1-.33.253-.646.432-.944.132-.2.206-.3.22-.3zM187.03 217.5a1.39 1.39 0 0 1-.392-.085c-.37-.107-.726-.252-1.065-.432a9.09 9.09 0 0 1-3.141-2.806 17.65 17.65 0 0 1-2.567-5.7c-.583-2.46-1.33-4.88-2.24-7.24-1.074-2.3-2.308-4.5-3.693-6.617a47.2 47.2 0 0 1-3.027-5.454 17.82 17.82 0 0 1-1.306-4c-.07-.375-.12-.754-.152-1.135a1.34 1.34 0 0 1-.015-.4 15.08 15.08 0 0 1 .338 1.5 19.97 19.97 0 0 0 1.424 3.907 50.04 50.04 0 0 0 3.1 5.37 50.98 50.98 0 0 1 3.753 6.657 52.57 52.57 0 0 1 2.225 7.305 17.98 17.98 0 0 0 2.428 5.626 9.4 9.4 0 0 0 2.967 2.837c.85.485 1.387.624 1.372.668zm23.626.915c-.43.182-.876.327-1.33.435l-3.695.952a99.92 99.92 0 0 1-25 2.53c-1.6-.046-2.912-.114-3.8-.192-.467-.014-.933-.068-1.4-.16.465-.044.934-.05 1.4-.015a160.78 160.78 0 0 0 3.806.051 119.11 119.11 0 0 0 24.923-2.522l3.72-.8a8.52 8.52 0 0 1 1.378-.267zm4.316 14.505c-.4.096-.826.153-1.246.17l-3.413.26a141.31 141.31 0 0 1-11.3.194 141.46 141.46 0 0 1-11.272-.7c-1.437-.15-2.6-.294-3.4-.413a6.74 6.74 0 0 1-1.236-.227 6.88 6.88 0 0 1 1.255.054l3.407.27a210.58 210.58 0 0 0 11.254.57 207.89 207.89 0 0 0 11.266-.063l3.416-.118a6.87 6.87 0 0 1 1.259.001z"/><path d="M195.4 233.968a4.75 4.75 0 0 1-1.62-1.224 9.39 9.39 0 0 1-2.31-9.175 4.72 4.72 0 0 1 .848-1.844c.068.032-.273.727-.54 1.923-.733 3.148.1 6.456 2.236 8.882.803.927 1.433 1.377 1.388 1.438zm-23.3-11.83c-.143-.07-.278-.155-.4-.256l-1.1-.8-1.73-1.295-2.228-1.795a103.7 103.7 0 0 1-11.943-11.472 79.81 79.81 0 0 1-9.693-13.427 60.48 60.48 0 0 1-2.3-4.466l-.54-1.255a1.92 1.92 0 0 1-.16-.45c.097.127.18.265.242.412l.614 1.217 2.415 4.384a86.89 86.89 0 0 0 9.755 13.289 116.44 116.44 0 0 0 11.81 11.525l2.18 1.842 1.68 1.352 1.052.87c.128.094.244.203.345.325zm-37.685 13.103c-.04-.01.14-.688.373-1.926a30.01 30.01 0 0 0 .5-5.3c.001-2.637-.226-5.27-.678-7.868l-2.083-9.475a69.72 69.72 0 0 1-2.095-9.514c-.357-2.983-.42-5.68-.476-7.942l-.017-5.357.033-1.456a2.2 2.2 0 0 1 .042-.508 2.17 2.17 0 0 1 .048.508l.05 1.455.16 5.35.57 7.9c.497 3.196 1.206 6.355 2.12 9.457l2.055 9.52a43.71 43.71 0 0 1 .588 7.94 26.85 26.85 0 0 1-.644 5.33c-.118.624-.3 1.1-.375 1.4a2.24 2.24 0 0 1-.17.477zm-5.165-37.2c.012.03-.2.135-.57.3-.536.234-1.088.43-1.65.6a18.7 18.7 0 0 1-11.418-.35 12.84 12.84 0 0 1-1.611-.689c-.368-.192-.563-.3-.55-.34.032-.07.863.3 2.26.728a21.48 21.48 0 0 0 11.238.344l2.3-.584z"/></g><path d="M202.492 192.95l4.816 39.06-44.68 14.98 7.49 16.052s56.94-7.855 58.858-12.04c1.6-3.466 2.943-12.04 2.943-12.04l-.665-48.716s-10.036-31.812-18.327-28.87-12.085 18.198-10.437 31.57z" class="B"/><g class="C"><path d="M218.736 241.005c-.405-1.344-1.082-2.6-1.99-3.66a13.32 13.32 0 0 0-3.72-3 14.41 14.41 0 0 0-5.891-1.843l.066-.007c-4.374 1.306-9.563 2.817-14.957 4.868-8.116 2.884-15.6 5.05-20.953 6.793l-6.335 2.085-1.718.58a3.37 3.37 0 0 1-.61.175 3.5 3.5 0 0 1 .578-.259l1.69-.66c1.475-.558 3.624-1.324 6.3-2.222l20.9-6.914c5.4-2.054 10.615-3.55 15-4.818l.034-.01h.033c2.126.202 4.18.87 6.02 1.953 1.43.804 2.696 1.867 3.737 3.134a9.02 9.02 0 0 1 1.553 2.726c.1.26.163.53.217.8a.99.99 0 0 1 .044.279z"/><path d="M202.208 183.63c.123-.013 1.33 10.875 2.694 24.314l2.248 24.362c-.124.013-1.328-10.873-2.693-24.317l-2.25-24.36zm26.692.653a3.77 3.77 0 0 1 .194.645l.473 1.872.677 2.98.784 3.97c.552 2.948 1.065 6.486 1.494 10.43a153.59 153.59 0 0 1 .766 12.881 156.18 156.18 0 0 1-.4 12.9c-.317 3.955-.73 7.506-1.2 10.47-.2 1.486-.466 2.818-.672 4s-.4 2.18-.593 3l-.42 1.885c-.04.222-.098.44-.176.65a3.98 3.98 0 0 1 .088-.669q.126-.713.337-1.9a78.4 78.4 0 0 0 .517-3.007c.177-1.177.424-2.507.606-3.994.427-2.963.807-6.508 1.1-10.454.262-3.947.42-8.3.367-12.864-.077-4.565-.357-8.908-.73-12.846-.4-3.935-.885-7.47-1.4-10.418-.223-1.48-.5-2.805-.717-3.976l-.6-3q-.244-1.18-.4-1.9a3.9 3.9 0 0 1-.106-.665zm-48.272 77.047c-.082-.012.092-1.082.065-2.8a20.11 20.11 0 0 0-.284-3.017 19.88 19.88 0 0 0-2.572-6.913 20.1 20.1 0 0 0-1.757-2.469l-1.886-2.085a2.51 2.51 0 0 1 .623.44 13.06 13.06 0 0 1 1.5 1.437 17.47 17.47 0 0 1 1.87 2.461 18.51 18.51 0 0 1 2.628 7.062c.155 1.02.22 2.052.193 3.084a13 13 0 0 1-.2 2.069c-.022.255-.082.505-.18.74zm35.004-96.63c.006.087-1.085.13-2.77.567-.982.26-1.94.605-2.86 1.033a17.35 17.35 0 0 0-5.882 4.48c-.657.775-1.245 1.606-1.756 2.484-.868 1.506-1.2 2.547-1.282 2.518a2.53 2.53 0 0 1 .186-.745 6.09 6.09 0 0 1 .313-.845 10.43 10.43 0 0 1 .507-1.082 15.29 15.29 0 0 1 1.717-2.6c1.623-1.98 3.688-3.553 6.028-4.6a15.23 15.23 0 0 1 2.958-.966c.388-.1.782-.156 1.178-.2.298-.048.598-.074.9-.078a2.54 2.54 0 0 1 .763.024zm-19.272 77.08a9.04 9.04 0 0 1 1.526-7.55c.12.066-.758 1.6-1.17 3.693-.434 2.1-.22 3.842-.357 3.857z"/></g><g fill="#fafafa"><path d="M221.674 170.155a.79.79 0 0 1-.188-.018l-.53-.087-1.954-.262a26.84 26.84 0 0 0-12.74 1.806l-1.8.795-.485.23a.75.75 0 0 1-.175.07.68.68 0 0 1 .158-.1l.47-.26c.407-.228 1.018-.522 1.786-.85a25.34 25.34 0 0 1 12.8-1.814c.656.074 1.308.18 1.953.32l.524.12c.062.01.122.027.18.052zm7.472 16.48a1.57 1.57 0 0 1-.267-.028l-.758-.117-2.793-.4a66.32 66.32 0 0 0-18.536.341l-2.776.493-.754.144a1.47 1.47 0 0 1-.266.038c.084-.032.17-.056.258-.073l.748-.178 2.77-.55a61.55 61.55 0 0 1 18.572-.342l2.788.448.754.15a1.41 1.41 0 0 1 .26.064zm3 15.112a1.58 1.58 0 0 1-.283-.027l-.8-.1-2.96-.37a81.12 81.12 0 0 0-19.628.219l-2.95.436-.8.128a1.7 1.7 0 0 1-.282.032l.275-.068.8-.16 2.946-.493a74.8 74.8 0 0 1 19.66-.22 55.18 55.18 0 0 1 2.957.427l.8.143c.1.013.18.033.266.06zm.882 11.645c-.095.006-.2.005-.284-.005l-.8-.05-2.98-.16c-2.517-.1-6-.158-9.838.037l-9.8.974-2.947.467-.8.132c-.093.02-.187.03-.282.033a1.8 1.8 0 0 1 .275-.07l.795-.165 2.94-.523a93.05 93.05 0 0 1 19.654-1.011l2.98.218.808.083a1.69 1.69 0 0 1 .28.04zm-.494 15.392a1.37 1.37 0 0 1-.26-.05l-.733-.175-2.7-.6a68.47 68.47 0 0 0-18.158-1.331l-2.76.2-.75.066c-.087.012-.175.016-.263.01a1.51 1.51 0 0 1 .259-.046l.747-.1 2.76-.267a63.28 63.28 0 0 1 18.188 1.333l2.7.667.724.208c.087.02.173.048.255.084zm-4.392 22.776s-.04-.1-.1-.292l-.26-.846a12.29 12.29 0 0 0-.448-1.323l-.7-1.713a20.78 20.78 0 0 0-1-2c-.366-.72-.85-1.433-1.337-2.2a28.18 28.18 0 0 0-8.434-8.11l-2.247-1.25a21.06 21.06 0 0 0-2.042-.921c-.626-.282-1.225-.45-1.74-.628a12.12 12.12 0 0 0-1.34-.4l-.855-.225-.3-.1a1.93 1.93 0 0 1 .3.056l.864.193c.458.094.9.217 1.353.368a18.22 18.22 0 0 1 1.755.606 20.17 20.17 0 0 1 2.06.906c.74.333 1.48.786 2.268 1.242 3.38 2.08 6.273 4.863 8.484 8.158.487.77.968 1.492 1.33 2.218a20.42 20.42 0 0 1 .986 2.024 18.4 18.4 0 0 1 .674 1.73 11.31 11.31 0 0 1 .419 1.337l.227.857a2.05 2.05 0 0 1 .079.303zm-20.397 5.4a1.1 1.1 0 0 1-.04-.235l-.076-.675-.336-2.475a41.88 41.88 0 0 0-5.721-15.331l-1.368-2.1-.385-.56c-.048-.062-.1-.13-.124-.2a1.27 1.27 0 0 1 .153.181l.412.54c.36.468.848 1.172 1.418 2.063a39.49 39.49 0 0 1 5.742 15.381l.28 2.488.042.68c.008.077.01.155.002.233zm-15.385 2.62a1.01 1.01 0 0 1 0-.22l.027-.624.012-2.292a38.41 38.41 0 0 0-3.481-14.619l-1.045-2.04-.305-.544a1.07 1.07 0 0 1-.1-.2.89.89 0 0 1 .127.178l.334.528a21.5 21.5 0 0 1 1.1 2.021 36.05 36.05 0 0 1 3.494 14.671 21.8 21.8 0 0 1-.07 2.3l-.06.623a.98.98 0 0 1-.032.218z"/><path d="M225.9 244.77a78.43 78.43 0 0 1-7.91 3.562c-6.5 2.533-13.15 4.717-19.892 6.543-7.894 2.16-15.133 3.76-20.413 4.7-5.277.957-8.58 1.274-8.58 1.274s.2-.04.595-.1l1.707-.246c1.482-.22 3.624-.557 6.257-1.056 5.27-.968 12.5-2.587 20.387-4.746a207.03 207.03 0 0 0 19.894-6.488l3.347-1.365c.972-.434 1.826-.767 2.5-1.1l1.562-.733c.355-.166.546-.245.546-.245zm-7.598-78.87s1.3 4.268 2.9 11.3c.824 3.5 1.638 7.724 2.478 12.414.786 4.7 1.544 9.886 2.146 15.352a246.89 246.89 0 0 1 1.135 15.463c.13 4.764.18 9.058.012 12.66l-.1 2.57-.156 2.288c-.1 1.43-.185 2.658-.308 3.66q-.158 1.46-.252 2.306l-.1.8s.016-.278.064-.807q.08-.848.217-2.3c.113-1 .2-2.23.278-3.66q.066-1.074.142-2.287c.042-.8.054-1.667.086-2.567.15-3.6.1-7.9-.05-12.65a254.98 254.98 0 0 0-1.148-15.45c-.6-5.462-1.354-10.645-2.132-15.343-.83-4.7-1.63-8.9-2.438-12.414-.376-1.76-.76-3.345-1.1-4.734l-.894-3.56q-.37-1.42-.588-2.244l-.2-.786zm-5.92 68.513l-.453.242-1.315.665-4.92 2.266c-4.187 1.846-10.057 4.2-16.586 6.654l-16.8 6.074-5.125 1.754-1.4.462-.5.15s.163-.07.48-.184l1.388-.494 5.1-1.807 16.8-6.122c6.534-2.454 12.4-4.788 16.6-6.6a162.45 162.45 0 0 0 4.942-2.212l1.33-.634c.3-.147.474-.214.474-.214zm-5.622-66.428c.05-.006 1.957 15.08 4.26 33.692l4.082 33.717c-.05.006-1.956-15.076-4.26-33.695l-4.082-33.714z"/><path d="M175.726 262.25c-.024-.06-.04-.12-.05-.184l-.107-.532-.4-1.95a45.14 45.14 0 0 0-4.734-12.212l-1-1.718-.28-.464a.74.74 0 0 1-.088-.169.77.77 0 0 1 .118.149l.308.448 1.06 1.692c2.233 3.8 3.837 7.935 4.747 12.247.172.826.3 1.5.356 1.965l.073.54a.73.73 0 0 1 .015.189zm2.316-60.44a1.8 1.8 0 0 1-.287.026l-.825.04-3.036.07c-2.564.027-6.108-.04-10.012-.322a122.59 122.59 0 0 1-9.955-1.133l-2.993-.5-.8-.16a1.73 1.73 0 0 1-.28-.067 1.77 1.77 0 0 1 .287.032l.815.125 3 .454a145.93 145.93 0 0 0 9.949 1.079 142.56 142.56 0 0 0 10 .374l3.86-.02a1.8 1.8 0 0 1 .288.01zm25.55-3.578a1.42 1.42 0 0 1-.243.081l-.7.2-2.6.656-8.723 1.64-8.835.866-2.688.1-.732.008a1.36 1.36 0 0 1-.255-.009 1.37 1.37 0 0 1 .254-.027l.73-.04 2.683-.156 8.817-.917 8.72-1.586 2.62-.6.712-.165a1.31 1.31 0 0 1 .249-.049zm-31.637-5.932a1.92 1.92 0 0 1-.3.02l-.866.022c-.752.02-1.84.013-3.186-.03a72.44 72.44 0 0 1-20.625-3.738 54.73 54.73 0 0 1-2.994-1.09l-.8-.324a1.9 1.9 0 0 1-.276-.125 1.87 1.87 0 0 1 .289.091l.815.292 3 1.035a77.57 77.57 0 0 0 20.591 3.731l3.18.088.865.01a1.88 1.88 0 0 1 .297.017zm29.895-7.12c.012.048-6.152 1.562-13.766 3.38l-13.8 3.207c-.01-.048 6.15-1.562 13.768-3.38l13.808-3.207zm-.4-12.618a.89.89 0 0 1-.2.036l-.57.07-2.093.254-6.857 1.148-6.75 1.676-2.57.763a.83.83 0 0 1-.2.045c.058-.034.12-.06.184-.08l.54-.2 2.006-.656 6.75-1.73 6.877-1.1 2.1-.2.572-.036a.84.84 0 0 1 .212.01zm9.183-7.746a1.5 1.5 0 0 1-.256-.057l-.723-.2-2.665-.7-8.9-1.77a90.21 90.21 0 0 0-9.045-.858l-2.754-.1-.75-.02a1.5 1.5 0 0 1-.261-.019c.086-.014.174-.02.26-.017l.75-.014 2.76.034a80.56 80.56 0 0 1 17.982 2.631l2.653.76.714.228a1.37 1.37 0 0 1 .245.093zm-30.897 11.962c-.024.023-.34-.327-.933-.8a9 9 0 0 0-5.443-1.906c-.753-.006-1.218.07-1.223.037a1.19 1.19 0 0 1 .322-.076 6.03 6.03 0 0 1 .9-.087c2.016-.05 3.98.638 5.525 1.934a6 6 0 0 1 .65.628 1.16 1.16 0 0 1 .202.261zm3.772-10.078c-.03.015-.222-.4-.634-1a8.78 8.78 0 0 0-4.454-3.34l-1.134-.33a1.1 1.1 0 0 1 .32.024c.288.04.573.102.852.185 1.868.546 3.475 1.75 4.523 3.4a5.46 5.46 0 0 1 .417.766 1.11 1.11 0 0 1 .11.304z"/><path d="M182.524 154.846c.047.015-1.9 6.212-4.35 13.84l-4.52 13.787c-.047-.013 1.9-6.2 4.35-13.842l4.52-13.786zM158.8 184.764c-.037-.1-.06-.188-.067-.286a4.28 4.28 0 0 1-.054-.8 6.14 6.14 0 0 1 2.248-4.623c.206-.17.428-.32.662-.45a.9.9 0 0 1 .266-.124c.017.03-.347.232-.846.67a6.58 6.58 0 0 0-2.2 4.53c-.04.665.025 1.078-.01 1.082zm-7.2-6.097a1.1 1.1 0 0 1-.084-.307 4.08 4.08 0 0 1-.082-.864 5.81 5.81 0 0 1 2.673-4.832c.244-.157.504-.287.775-.4a1.1 1.1 0 0 1 .3-.092c.015.034-.415.183-1 .587a6.1 6.1 0 0 0-2.616 4.729c-.023.717.08 1.162.044 1.168z"/><path d="M167.47 186.194c-.075-.033-.148-.073-.215-.12l-.6-.373-2.176-1.4-7.133-4.695a21.85 21.85 0 0 1-3.618-3.016 11.23 11.23 0 0 1-2.131-3.2 8.16 8.16 0 0 1-.644-2.512 4.95 4.95 0 0 1 0-.951c.02 0 0 .34.066.944a8.53 8.53 0 0 0 .691 2.468 11.36 11.36 0 0 0 2.135 3.138 22.18 22.18 0 0 0 3.6 2.981l7.1 4.737 2.144 1.45.578.4a1.28 1.28 0 0 1 .203.15zm13.62 27.513c-.06.016-.12.023-.18.02l-.522.027-1.92.05c-1.62.025-3.86.01-6.332-.092l-6.32-.438-1.908-.2-.517-.07a.71.71 0 0 1-.18-.037.7.7 0 0 1 .183 0l.52.037 1.912.154 6.315.386 6.324.144 1.92.007.522.006a.76.76 0 0 1 .182.016zm23.076.263a1.07 1.07 0 0 1-.21.05l-.6.1-2.232.322-7.415.6c-2.905.1-5.54.044-7.442-.062l-2.25-.16-.6-.06a.94.94 0 0 1-.21-.034c.07-.008.144-.008.215 0l2.862.127 7.43.01 7.408-.55 2.846-.338a.96.96 0 0 1 .209-.003zm-12.596 14.858a.66.66 0 0 1-.172.038l-.5.072-1.837.2c-4.057.333-8.14.157-12.152-.524-.77-.132-1.4-.254-1.813-.353l-.5-.114c-.058-.01-.115-.027-.168-.052a.65.65 0 0 1 .174.017l2.315.382a56.95 56.95 0 0 0 12.123.522l1.84-.14.5-.04c.06-.01.12-.015.18-.01zm12.555-1.228c0 .05-2.465.266-5.513.483l-5.527.3c-.004-.054 2.464-.266 5.514-.483l5.526-.3zm-16.185 10.88c-.152.013-.305.01-.456-.01l-1.237-.127a26.24 26.24 0 0 1-7.841-2.342l-1.1-.572a2.2 2.2 0 0 1-.388-.241 2.32 2.32 0 0 1 .42.18l1.125.52c2.5 1.115 5.113 1.9 7.806 2.332l1.226.183c.15.01.3.038.445.078z"/><path d="M197.65 220.825l-.686-2.66-1.656-7.3c-1.305-6.193-2.882-14.8-4.436-24.322-.363-2.327-.528-4.68-.494-7.036a25.06 25.06 0 0 1 1.024-6.485c1.1-3.55 2.792-6.896 4.978-9.906 1.445-2.04 3-3.992 4.687-5.847 1.18-1.32 1.87-2.012 1.87-2.012s-.156.188-.467.535l-1.352 1.523a66.73 66.73 0 0 0-4.636 5.873 34.43 34.43 0 0 0-4.923 9.88 24.98 24.98 0 0 0-1.007 6.443 41.82 41.82 0 0 0 .5 7.006c1.553 9.52 3.1 18.127 4.383 24.32l1.6 7.32q.3 1.244.465 1.983l.15.694zm-.012 11.163a1.94 1.94 0 0 1-.307-.3 8.19 8.19 0 0 1-.733-.912 11.01 11.01 0 0 1-1.944-7.331 8.12 8.12 0 0 1 .185-1.155 1.98 1.98 0 0 1 .118-.412c.035.007-.1.6-.176 1.578a11.77 11.77 0 0 0 1.921 7.25l.936 1.282zm-8.59 7.24a3.78 3.78 0 0 1-.453-.871 10.36 10.36 0 0 1-.783-4.65 3.73 3.73 0 0 1 .143-.97 9.03 9.03 0 0 1-.016.976 12.7 12.7 0 0 0 .774 4.6 9.01 9.01 0 0 1 .335.915zm-8.96-6.658a2.02 2.02 0 0 1-.219-.366c-.183-.342-.346-.695-.487-1.056-.952-2.4-1.177-5.028-.648-7.555a9.53 9.53 0 0 1 .3-1.123 1.9 1.9 0 0 1 .154-.4c.032.01-.156.587-.33 1.546-.454 2.508-.232 5.1.643 7.485l.587 1.47z"/><path d="M180.202 240.937a1.2 1.2 0 0 1-.073-.324l-.123-.894-.206-2.97.05-2.976.076-.9a1.2 1.2 0 0 1 .056-.327 9.94 9.94 0 0 1-.005 1.232v2.966l.154 2.962c.05.4.072.82.07 1.23zm-23.825-55.76c.04-.027 5.274 8.022 11.686 17.975l11.536 18.073c-.042.027-5.273-8.02-11.687-17.977l-11.535-18.07zm20.42 2.903a4.91 4.91 0 0 0 .115.343l.3.992 1.12 3.642c.972 3.067 2.428 7.268 4.292 11.8s3.8 8.553 5.254 11.416l1.767 3.376.486.915c.1.2.16.326.16.326s-.07-.1-.2-.308l-.516-.9a107.98 107.98 0 0 1-1.818-3.35c-1.5-2.85-3.435-6.86-5.307-11.406s-3.306-8.76-4.248-11.84l-1.065-3.66-.265-1c-.06-.23-.082-.353-.082-.353zm-15.6 23.944l-.373-.357-1.047-1.05-1.6-1.706-2.038-2.345-2.322-2.965-2.475-3.544c-3.614-5.544-6.434-11.567-8.378-17.893-.423-1.463-.846-2.848-1.138-4.172-.34-1.3-.58-2.55-.8-3.682-.24-1.127-.36-2.164-.5-3.068s-.224-1.687-.278-2.33l-.135-1.476c-.03-.337-.035-.515-.035-.515a10.12 10.12 0 0 0 .071.512l.168 1.47a33.78 33.78 0 0 0 .308 2.323c.153.902.274 1.934.52 3.057.22 1.13.465 2.364.8 3.67.3 1.32.725 2.7 1.15 4.158a72.28 72.28 0 0 0 8.359 17.853c.847 1.26 1.633 2.473 2.456 3.546.783 1.1 1.573 2.082 2.3 2.972.7.9 1.416 1.67 2.014 2.36a37.71 37.71 0 0 0 1.586 1.724l1.022 1.072a8.99 8.99 0 0 1 .353.383z"/><path d="M151.525 179.625c-.202-.018-.403-.05-.6-.1l-1.618-.327-5.358-.955-5.4-.717-1.64-.18a3.83 3.83 0 0 1-.6-.085 3.95 3.95 0 0 1 .607.016l1.647.124 5.412.667 5.357 1.008 1.608.382a3.85 3.85 0 0 1 .585.168zm-1.83 20.592l-.144.418-.44 1.2-1.44 4.437c-1.14 3.775-2.27 9.1-3.662 14.96-1.105 5.027-2.752 9.92-4.914 14.6a37.59 37.59 0 0 1-2.293 4.071c-.607.922-.98 1.406-.98 1.406s.076-.133.234-.377.4-.593.687-1.065a40.81 40.81 0 0 0 2.237-4.09 73.46 73.46 0 0 0 4.855-14.577c1.4-5.85 2.542-11.18 3.715-14.953a52.5 52.5 0 0 1 2.147-6.011zm-7.6-11.525c.046.015-1.833 5.876-4.2 13.086l-4.368 13.032c-.048-.016 1.832-5.874 4.2-13.088l4.368-13.03z"/><path d="M149.918 213.116c-.053-.072-.098-.15-.137-.23l-.363-.675-1.4-2.44a45.65 45.65 0 0 0-12.56-13.485 43.13 43.13 0 0 0-2.336-1.566l-.646-.4a1.5 1.5 0 0 1-.219-.153c.083.033.162.074.237.122l.665.382c.578.33 1.392.846 2.372 1.523a43.39 43.39 0 0 1 12.595 13.523l1.35 2.475.333.7c.043.078.08.16.1.245zm-5.672 16.814a1.06 1.06 0 0 1-.027-.231l-.04-.663a9.85 9.85 0 0 0-.09-1.046l-.194-1.376c-.206-1.188-.5-2.357-.906-3.495a22.43 22.43 0 0 0-4.471-7.571 21.99 21.99 0 0 0-2.623-2.482c-.388-.34-.78-.592-1.1-.834a12.37 12.37 0 0 0-.872-.584l-.56-.356c-.068-.04-.13-.084-.2-.135a16.85 16.85 0 0 1 2.812 1.81c.958.745 1.85 1.57 2.666 2.47a21.91 21.91 0 0 1 4.5 7.628 21.04 21.04 0 0 1 .876 3.528c.187 1.102.265 2.22.23 3.337zm-11.348 13.12a.56.56 0 0 1 .048-.16l.17-.443.616-1.63a44.7 44.7 0 0 0 2.5-11.185l.137-1.737.034-.473a.58.58 0 0 1 .025-.164.59.59 0 0 1 .01.166v.474l-.08 1.745c-.283 3.842-1.128 7.622-2.508 11.22a30.33 30.33 0 0 1-.671 1.613l-.2.43a.65.65 0 0 1-.08.146zm-11.078-43.5l.276 1.76.485 4.83c.34 4.086.356 9.758 1 15.972.305 2.92.85 5.808 1.63 8.637a34.27 34.27 0 0 0 2.622 6.671 26.32 26.32 0 0 0 2.62 4.065c.34.46.65.78.84 1.016l.3.358s-.45-.447-1.18-1.33a25.09 25.09 0 0 1-2.677-4.05c-1.126-2.127-2.02-4.368-2.668-6.686a52.58 52.58 0 0 1-1.649-8.663c-.644-6.23-.64-11.9-.947-15.982a95.31 95.31 0 0 0-.427-4.831l-.16-1.3c-.04-.298-.05-.457-.05-.457z"/><path d="M120.68 187.075a2.49 2.49 0 0 1 .136.456l.28 1.266a34.55 34.55 0 0 1 .585 8.519l-.106 1.3a2.54 2.54 0 0 1-.072.47 2.42 2.42 0 0 1 0-.476l.05-1.292-.08-4.26-.5-4.23-.224-1.273a2.44 2.44 0 0 1-.068-.471zm10.614 18.57a13.13 13.13 0 0 1-2.558 1.375 16.7 16.7 0 0 1-3.018.929 17.45 17.45 0 0 1-7.688-.146 16.56 16.56 0 0 1-2.981-1.042 13.1 13.1 0 0 1-2.5-1.47.89.89 0 0 1 .18.093l.5.295a7.88 7.88 0 0 0 .795.444l1.085.523a17.41 17.41 0 0 0 2.968 1c2.5.596 5.097.645 7.616.144a17.4 17.4 0 0 0 3-.884c.423-.146.78-.336 1.1-.482.278-.122.55-.26.8-.413l.507-.276c.057-.037.12-.068.183-.1zm2.704 10.95a6.53 6.53 0 0 1-.53.686 9.69 9.69 0 0 1-1.755 1.583 14.72 14.72 0 0 1-7.3 2.527 30.2 30.2 0 0 1-7.759-.549l-2.314-.46-.626-.14c-.074-.013-.146-.033-.216-.06a1.02 1.02 0 0 1 .223.026l.632.107 2.322.4a31.93 31.93 0 0 0 7.723.495 14.98 14.98 0 0 0 7.246-2.45 10.94 10.94 0 0 0 1.777-1.527l.576-.636zm.994 10.528c-.078.27-.174.534-.3.8a8.74 8.74 0 0 1-1.2 1.96 12.43 12.43 0 0 1-6.31 4.03 22.21 22.21 0 0 1-7.524.6l-2.28-.23-.617-.088a1.02 1.02 0 0 1-.214-.043 1 1 0 0 1 .218.008l.62.054 2.28.17a23.1 23.1 0 0 0 7.468-.646c2.434-.658 4.614-2.03 6.26-3.94.486-.584.9-1.225 1.232-1.9l.355-.76zm107.5 4.506c.02.046-2.3 1.016-5.178 2.167l-5.245 2c-.018-.046 2.3-1.016 5.18-2.167l5.244-2zm-4.682-12.524a2.46 2.46 0 0 1-.591.47 8.03 8.03 0 0 1-3.4 1.241c-.25.046-.503.053-.754.02a12.11 12.11 0 0 0 4.749-1.731zm-2.087-12.744c-.43.127-.874.197-1.322.207-.443.07-.893.08-1.338.028.872-.197 1.767-.276 2.66-.235zm-2.423-8.085c-.587-.263-1.12-.633-1.57-1.092a5.16 5.16 0 0 1 1.569 1.092z"/><path d="M230.688 190.18l.13.488.332 1.41 1.045 5.226a121.3 121.3 0 0 1 1.754 17.484c-.014 3.223.25 6.44.79 9.618.27 1.377.685 2.722 1.236 4.013l1.608 3.306c.865 1.57 1.332 3.328 1.36 5.12-.01.485-.083.967-.216 1.434a3.28 3.28 0 0 1-.168.477c-.01 0 .054-.166.134-.486a6.03 6.03 0 0 0 .18-1.426 11.1 11.1 0 0 0-1.4-5.064l-1.63-3.3a20.19 20.19 0 0 1-1.261-4.038c-.55-3.185-.822-6.413-.81-9.645-.163-5.855-.73-11.692-1.7-17.468a135.56 135.56 0 0 0-.987-5.233l-.3-1.417c-.07-.328-.097-.5-.097-.5z"/></g><path d="M131.018 204.113c2.203 3.003 4.138 6.195 5.78 9.538a25.13 25.13 0 0 1 2.563 10.774c-.037 2.985-.96 6.224-3.44 7.9a94.34 94.34 0 0 0-4.916-27.892m19.988-27.076c0 2.94 2.258 5.328 4.366 7.378 4.142 4.03 8.617 8.238 14.284 9.373l.245-7.137a30.03 30.03 0 0 1 5.614 6.6c2.758-3.792 4.696-8.117 5.7-12.7a100.97 100.97 0 0 0 2-13.866l-6.688 21.3a8.15 8.15 0 0 0-2.69-4.582 4.59 4.59 0 0 0-2.961-1.242c-1.7.172-3.125 1.32-3.663 2.933a12.72 12.72 0 0 0-.54 4.915 66.66 66.66 0 0 1-15.538-12.67m28.852 63.17a29.23 29.23 0 0 1 9.166-4.247c2.443-.65 5.038-1.008 7.16-2.38 1.896-1.424 3.477-3.225 4.642-5.3 1.297-1.74 2.275-3.695 2.9-5.775.32-1.68.366-3.404.133-5.1-.45-4.563-1.462-9.054-1.968-13.6s-.48-9.28 1.1-13.588l4.07 41.475-26.954 8.38" opacity=".3"/><path d="M161.083 129.36c.12-.16 5.314-5.547 8.748.93s-3.778 8.59-3.888 8.4-4.86-9.34-4.86-9.34z" class="I"/><path d="M166.62 135.2c.017-.036.155.02.392.005.33-.028.634-.182.852-.43a3.16 3.16 0 0 0-.036-3.19c-.277-.565-.678-1.06-1.172-1.45-.34-.346-.83-.502-1.31-.417a.65.65 0 0 0-.5.662c.01.228.12.335.1.364-.01.026-.2-.035-.286-.33a.82.82 0 0 1 .04-.541c.106-.23.3-.41.537-.5.598-.18 1.246-.036 1.712.38a4.34 4.34 0 0 1 1.348 1.6c.65 1.328.63 2.9-.163 3.67a1.37 1.37 0 0 1-1.123.375c-.288-.05-.4-.177-.382-.2z" class="H"/><path d="M131.866 116.54c-3.177 1.935-6.4 3.905-9.122 8.4-1.7 2.837-2.01 5.864-1.787 9.17a15.9 15.9 0 0 0 2.542 7.5c1.432 2.09 2.36 3.6 4.435 5.058" class="C"/><path d="M178.778 158.167l-19.044-34.02c-5.203-9.294-16.84-12.785-26.3-7.9h0c-4.703 2.43-8.232 6.65-9.794 11.708s-1.026 10.532 1.487 15.192c4.362 8.08 9.162 16.77 11.847 20.983 5.764 9.04 15.754 4.8 15.754 4.8l3.277 6.343 13.627 7.545z" class="I"/><path d="M152.73 168.942a25.5 25.5 0 0 0 9.539-10.775s1.29 8.348-8.31 13.165z" class="H"/><g class="C"><path d="M132.495 147.364a1.53 1.53 0 0 0 2.069.534c.35-.18.6-.495.726-.87a1.47 1.47 0 0 0-.113-1.13 1.53 1.53 0 0 0-2.068-.537c-.35.18-.613.496-.728.872a1.47 1.47 0 0 0 .114 1.13zm-3.155-2.33c.266.07.8-1.27 2.2-2.136 1.388-.883 2.862-.8 2.908-1.066.027-.122-.327-.327-.976-.375a4.2 4.2 0 0 0-2.458.644 4.04 4.04 0 0 0-1.616 1.912c-.23.597-.185.995-.058 1.02zm16.836-6.274a1.53 1.53 0 0 0 2.069.534c.35-.18.6-.495.727-.87a1.46 1.46 0 0 0-.114-1.13 1.53 1.53 0 0 0-2.068-.536c-.35.18-.612.495-.728.872a1.46 1.46 0 0 0 .114 1.13zm-2.912-2c.266.07.8-1.273 2.2-2.136 1.4-.884 2.863-.8 2.9-1.067.027-.122-.326-.327-.977-.374a4.2 4.2 0 0 0-2.457.644 4.03 4.03 0 0 0-1.621 1.912c-.224.596-.18.995-.054 1.02zm1.36 13.533a10.93 10.93 0 0 0-2.53 1c-.38.185-.762.324-.974.117a2.14 2.14 0 0 1-.418-1.207q-.3-1.6-.63-3.38l-2.042-8.593c-.2.04.4 3.952 1.346 8.738q.36 1.763.686 3.367c.043.57.285 1.108.685 1.518.264.2.6.25.913.158.23-.07.453-.167.66-.292a10.78 10.78 0 0 0 2.305-1.427zm3.876 4.933c.247-.1-.54-1.7.272-3.525s2.607-2.48 2.5-2.7c-.027-.112-.534-.124-1.266.212a4.45 4.45 0 0 0-2.14 2.171 3.89 3.89 0 0 0-.125 2.905c.265.7.644 1 .75.947zm-1.95-26.793c-.37-.3-1.67.727-3.45 1.52-1.762.828-3.4 1.143-3.4 1.62 0 .223.45.446 1.213.494a6.55 6.55 0 0 0 5.222-2.39c.46-.6.585-1.096.415-1.243zm-16.33 8.787c-.473-.03-.93 1.08-1.816 2.118-.85 1.07-1.852 1.728-1.733 2.186.066.213.467.324 1.067.178a4.04 4.04 0 0 0 2.86-3.468c.03-.616-.154-1-.378-1.014zm31.383-10.24l1.457 3.1c.174.372 2.256 4.582 1.432 5.35-.7.66-2.77.9-4.464-.263s-5.4-4.185-6.323-6.026a29.7 29.7 0 0 0-4.528-7.061c-1.86-2.137-4.414-3.55-7.213-4a7.61 7.61 0 0 0-7.3 3.195c-.918 1.468-1.2 3.245-1.924 4.814a6.44 6.44 0 0 1-3.177 3.282 4.16 4.16 0 0 1-4.376-.614 4.53 4.53 0 0 1-.9-4.734 10.35 10.35 0 0 1 2.992-4.062 25.12 25.12 0 0 1 12.39-6.413 18.14 18.14 0 0 1 13.528 2.66c4.455 3.14 6.07 5.8 8.416 10.753"/><path d="M124.786 128.344c-.38-.42-.385-.782-.77-.813-.44-.036-.662.9-.732 1.258-.022.115-.413-.043-.53-.047-.095 0-.492-.424-.53-.5-.162-.355.3-.76.41-1.136a2.89 2.89 0 0 1 .564-1.015c.183-.295.5-.468.857-.455.25.082.454.266.56.507a2.02 2.02 0 0 1 .268.721c.042.258-.013.522-.153.742"/></g><path d="M142.002 168.767c-.007.014-.1-.023-.286-.107-.268-.116-.526-.254-.772-.412a11.81 11.81 0 0 1-2.463-2.068 42.56 42.56 0 0 1-5.817-8.812l-5.064-9.246-1.5-2.827a5.97 5.97 0 0 1-.494-1.065 5.82 5.82 0 0 1 .646.981l1.615 2.757 5.18 9.185c1.557 3.136 3.455 6.092 5.658 8.813.962 1.08 2.068 2.023 3.287 2.8z" class="H"/><circle cx="34.931" cy="34.931" r="34.931" transform="matrix(.22 -.976 .976 .22 3.078 134.141)" fill="#fff"/><path d="M81.944 133.142c.005.036-.38.06-1.005.315-.878.374-1.62 1-2.123 1.82a4.41 4.41 0 0 0-.654 1.813 3.84 3.84 0 0 0 .382 2.149 4.2 4.2 0 0 0 7.866-.467 3.84 3.84 0 0 0 .126-2.179 4.4 4.4 0 0 0-.864-1.723c-.595-.743-1.405-1.284-2.32-1.55-.65-.18-1.036-.157-1.035-.193a.88.88 0 0 1 .277-.022 1.71 1.71 0 0 1 .336.017c.154.012.306.037.455.075 1.66.4 2.967 1.688 3.417 3.337a4.1 4.1 0 0 1-.1 2.343 4.78 4.78 0 0 1-1.469 2.132 4.23 4.23 0 0 1-5.243.31 4.78 4.78 0 0 1-1.711-1.943 4.09 4.09 0 0 1-.38-2.314c.252-1.692 1.4-3.114 3-3.718a2.73 2.73 0 0 1 .443-.128 1.74 1.74 0 0 1 .332-.057.9.9 0 0 1 .27-.016zm11.118 11.054c.005.03-.237.053-.624.22a2.92 2.92 0 0 0-1.308 1.146c-.48.73-.54 1.66-.156 2.447a2.59 2.59 0 0 0 4.849-.288 2.48 2.48 0 0 0-.445-2.411c-.368-.465-.868-.808-1.434-.984-.4-.12-.646-.113-.645-.144.224-.05.457-.042.677.02a2.98 2.98 0 0 1 2.195 2.112 2.62 2.62 0 0 1-.062 1.505 2.88 2.88 0 0 1-5.406.32 2.64 2.64 0 0 1-.24-1.487 2.98 2.98 0 0 1 1.929-2.357 1.38 1.38 0 0 1 .67-.1zm-12.965-33.71v-.573l.03-1.68q.012-.555.026-1.237l-.1-1.5-.136-1.737a6.04 6.04 0 0 0-.127-.952l-.18-1.005c-.56-3.36-1.626-6.617-3.163-9.657a35.09 35.09 0 0 0-8.146-10.66l-1.43-1.25c-.505-.4-1.042-.755-1.57-1.14l-.8-.576a6.95 6.95 0 0 0-.832-.548l-1.753-1.016-.893-.512-.945-.43-1.918-.874c-.653-.274-1.344-.473-2.024-.716l-1.03-.35c-.173-.057-.344-.123-.52-.172l-.535-.125a32.73 32.73 0 0 0-4.4-.86c-.754-.085-1.5-.22-2.28-.267l-2.33-.062c-.4 0-.784-.037-1.177-.015l-1.184.088c-.8.07-1.6.1-2.4.2a37.12 37.12 0 0 0-4.783 1.006l-1.2.335c-.2.058-.4.108-.6.174l-2.934 1.143c-.772.344-1.518.756-2.285 1.133-.377.2-.775.368-1.138.6l-1.092.693a39.66 39.66 0 0 0-4.241 3.069l-2.422 2.282c-.152.162-.3.334-.444.5l-1.776 2.026-.8 1.1-.8 1.106-.4.555c-.122.192-.232.393-.348.6l-1.383 2.38-1.144 2.52c-2.97 7-3.58 14.757-1.73 22.122q.376 1.34.748 2.67l1.25 3.204.923 1.826.615 1.2 1.44 2.277.36.565 2.04 2.628a39.5 39.5 0 0 0 3.718 3.697l.972.854c.32.285.7.5 1.03.77.7.492 1.373 1.015 2.082 1.474l2.722 1.585c.185.095.377.175.565.264l1.13.517c1.483.678 3 1.258 4.57 1.736.772.223 1.56.376 2.33.567l1.156.27c.385.082.78.1 1.166.167l2.3.3c.767.07 1.535.057 2.293.1 1.494.046 3-.01 4.476-.168l.55-.04c.18-.02.36-.06.54-.1l1.072-.187c.7-.135 1.422-.223 2.1-.393l3.03-.845.96-.367 1.9-.733a6.91 6.91 0 0 0 .907-.412l.882-.444 1.728-.884 1.606-1.013a35.1 35.1 0 0 0 9.7-9.268l.853-1.2 1.4-2.394c.1-.193.23-.378.327-.573l.27-.587q.535-1.16 1.023-2.22c.305-.714.5-1.427.75-2.085l.334-.965a6.1 6.1 0 0 0 .273-.92q.215-.906.4-1.694c.12-.526.253-1.007.335-1.455q.092-.675.166-1.226.15-1.088.23-1.664l.1-.567s-.014.193-.057.57l-.2 1.67q-.067.552-.15 1.23c-.076.45-.2.933-.32 1.462l-.4 1.7a6.13 6.13 0 0 1-.266.926l-.328.97c-.237.66-.437 1.38-.74 2.1l-1.282 2.826c-.1.2-.217.382-.325.577l-1.395 2.412c-.27.4-.564.793-.852 1.2-2.607 3.717-5.9 6.894-9.723 9.357l-1.613 1.024c-.563.312-1.153.592-1.738.894l-.886.45a7.3 7.3 0 0 1-.913.418l-1.9.742-.967.372-3.052.86c-.693.173-1.4.264-2.125.4l-1.08.2c-.18.03-.36.07-.544.1l-.552.04a32.89 32.89 0 0 1-4.5.18c-.765-.03-1.54-.015-2.312-.087l-2.33-.3c-.4-.058-.786-.085-1.175-.167l-1.165-.272c-.778-.2-1.572-.344-2.35-.568a37.42 37.42 0 0 1-4.612-1.745l-1.14-.52c-.2-.1-.384-.17-.57-.266l-.546-.318-2.2-1.278c-.716-.463-1.4-1-2.1-1.486-.345-.26-.716-.487-1.04-.775l-.98-.86a39.89 39.89 0 0 1-3.751-3.721l-2.06-2.654-.364-.57-.726-1.147-.733-1.148-.623-1.22-.93-1.843-.254-.642q-.5-1.3-1.008-2.6-.378-1.343-.757-2.7C8.585 108.842 9.197 101 12.2 93.948q.584-1.277 1.165-2.545l1.75-3 .4-.56.8-1.116.8-1.108 1.794-2.044.45-.506 2.445-2.3a39.68 39.68 0 0 1 4.282-3.093l1.1-.7c.366-.234.768-.4 1.148-.6.774-.38 1.528-.795 2.306-1.14l2.388-.915.6-.23c.2-.065.4-.116.6-.174l1.2-.338a37.4 37.4 0 0 1 4.825-1.008c.805-.1 1.613-.13 2.4-.2l1.193-.087c.4-.02.793.014 1.187.018l2.35.066c.775.05 1.537.186 2.3.273a32.84 32.84 0 0 1 4.428.876l.54.126c.177.05.35.117.523.174l1.037.357c.685.246 1.38.448 2.037.725l2.882 1.32.9.518 1.763 1.03c.292.164.57.35.836.554l.807.582c.53.4 1.07.758 1.578 1.153l1.435 1.26a35.2 35.2 0 0 1 8.155 10.752 33.52 33.52 0 0 1 3.125 9.717q.1.52.174 1a6.14 6.14 0 0 1 .12.955q.064.933.12 1.743l.1 1.493q-.023.683-.042 1.24-.04 1.1-.063 1.68l-.04.576z" class="C"/><path d="M39.817 89.035l1.273 20.112c.105 1.645 1.418 2.953 3.063 3.052h0c1.735.103 3.247-1.172 3.437-2.9l2.233-20.213a2.56 2.56 0 0 0-2.581-2.841l-4.905.068a2.56 2.56 0 0 0-2.52 2.722zm9.668 34.465a4.91 4.91 0 0 1-6.204 3.111 4.91 4.91 0 0 1-3.112-6.204 4.91 4.91 0 0 1 6.204-3.112c1.236.4 2.258 1.294 2.842 2.458s.68 2.512.27 3.747z" class="E"/><defs ><path id="B" d="M71.65 366.707c0 .14-12.912.253-28.836.253s-28.84-.113-28.84-.253 12.9-.253 28.84-.253l28.836.253z"/><path id="C" d="M75.71 375.168c0 .14-12.913.253-28.837.253s-28.84-.113-28.84-.253 12.91-.253 28.84-.253l28.837.253z"/><path id="D" d="M63.193 322.185c0 .14-12.912.253-28.837.253s-28.84-.113-28.84-.253 12.9-.253 28.84-.253l28.837.253z"/><path id="E" d="M142.434 188.858c-.123 0-.223-39.053-.223-87.214l.223-87.223c.123 0 .224 39.043.224 87.223l-.224 87.214z"/><path id="F" d="M231.178 188.858c-.124 0-.224-39.053-.224-87.214l.224-87.223c.124 0 .223 39.043.223 87.223l-.223 87.214z"/><path id="G" d="M321.167 42.368c0 .124-60.16.224-134.354.224-74.22 0-134.367-.1-134.367-.224s60.147-.223 134.367-.223l134.354.223z"/><path id="H" d="M321.167 72.282c0 .124-60.16.223-134.354.223-74.22 0-134.367-.1-134.367-.223s60.147-.224 134.367-.224l134.354.224z"/></defs></svg>