<svg xmlns="http://www.w3.org/2000/svg" width="449.715" height="418.934" viewBox="0 0 449.715 418.934">
    <defs>
        <style>
            .cls-1{fill:#ebebeb}.cls-2{fill:#dbdbdb}.cls-3{fill:#c7c7c7}.cls-4{fill:#a6a6a6}.cls-5{fill:none;stroke:#ebebeb}.cls-11,.cls-5{stroke-miterlimit:10}.cls-11{stroke:#263238}.cls-7{fill:#263238}.cls-8{fill:#ffc727}.cls-9{fill:#37474f}.cls-11{fill:#fff}.cls-12{fill:#455a64}.cls-16{fill:#ffbe9d}.cls-17{fill:#7a5554}.cls-18{opacity:.3}.cls-19{opacity:.117}
        </style>
    </defs>
    <g id="Group_10148" transform="translate(-705.107 -207.625)">
        <g id="Group_8357" transform="translate(715.4 208.132)">
            <g id="Background_Complete" transform="translate(61.546 10.441)">
                <g id="Group_16" transform="translate(.764 15.461)">
                    <g id="Group_3" transform="translate(0 63.19)">
                        <path id="Rectangle_1" d="M0 0H154.951V6.794H0z" class="cls-1" transform="rotate(180 77.475 3.397)"/>
                        <g id="Group_1" transform="translate(139.467 6.797)">
                            <path id="Rectangle_2" d="M0 0H6.798V22.474H0z" class="cls-1"/>
                            <path id="Rectangle_3" d="M0 0H6.798V6.946H0z" class="cls-2"/>
                        </g>
                        <g id="Group_2" transform="translate(8.683 6.797)">
                            <path id="Rectangle_4" d="M0 0H6.798V22.474H0z" class="cls-1"/>
                            <path id="Rectangle_5" d="M0 0H6.798V6.946H0z" class="cls-2"/>
                        </g>
                    </g>
                    <g id="Group_15" transform="translate(22.978)">
                        <path id="Rectangle_6" d="M0 0H43.306V10.906H0z" class="cls-3" transform="rotate(90 41.582 61.468)"/>
                        <path id="Rectangle_7" d="M0 0H4.759V10.906H0z" class="cls-2" transform="rotate(90 42.74 60.31)"/>
                        <path id="Rectangle_8" d="M0 0H1.766V10.906H0z" class="cls-2" transform="rotate(90 37.312 65.738)"/>
                        <path id="Rectangle_9" d="M0 0H4.759V12.265H0z" class="cls-2" transform="rotate(90 25.149 77.901)"/>
                        <g id="Group_4" transform="translate(84.523 12.674)">
                            <path id="Rectangle_10" d="M0 0H50.517V7.622H0z" class="cls-2" transform="rotate(90 3.811 3.811)"/>
                            <path id="Rectangle_11" d="M0 0H19.429V4.574H0z" class="cls-1" transform="rotate(90 .69 5.44)"/>
                        </g>
                        <g id="Group_5" transform="translate(30.298 22.267)">
                            <path id="Rectangle_12" d="M0 0H50.517V7.622H0z" class="cls-3" transform="rotate(135.32 19.53 11.193)"/>
                            <path id="Rectangle_13" d="M0 0H19.43V4.574H0z" class="cls-2" transform="rotate(135.32 9.595 14.369)"/>
                        </g>
                        <g id="Group_6" transform="translate(71.585 24.828)">
                            <path id="Rectangle_14" d="M0 0H38.372V12.943H0z" class="cls-4" transform="rotate(90 6.471 6.472)"/>
                            <path id="Rectangle_15" d="M0 0H3.576V12.943H0z" class="cls-3" transform="rotate(90 -8.893 21.836)"/>
                            <path id="Rectangle_16" d="M0 0H1.387V12.943H0z" class="cls-3" transform="rotate(90 -7.025 19.968)"/>
                        </g>
                        <g id="Group_7" transform="translate(103.05 27.138)">
                            <path id="Rectangle_17" d="M0 0H36.061V8.941H0z" class="cls-4" transform="rotate(90 4.47 4.47)"/>
                            <path id="Rectangle_18" d="M0 0H3.361V8.941H0z" class="cls-3" transform="rotate(90 -9.968 18.909)"/>
                            <path id="Rectangle_19" d="M0 0H3.361V8.941H0z" class="cls-3" transform="rotate(90 .754 8.187)"/>
                            <path id="Rectangle_20" d="M0 0H1.303V8.941H0z" class="cls-3" transform="rotate(90 -2.078 11.019)"/>
                        </g>
                        <g id="Group_14">
                            <g id="Group_9" transform="translate(0 10.964)">
                                <path id="Path_1" d="M90.251 71.488c7.628 7.467 8.908 19.02 7.3 29.139-.042.23-.4.167-.4-.048 0-2.3.07-4.586.063-6.863-.042-.1-.077-.2-.119-.306a15.321 15.321 0 0 1-4.954-5.324c-1.274-2.506-1.775-5.331-2.75-7.948-.09-.251.177-.177.352-.048 4.64 3.422 6.119 7.1 7.45 12.025a40.925 40.925 0 0 0-.807-7.662 26.122 26.122 0 0 0-6.34-12.764c-.122-.132.073-.333.205-.201z" class="cls-4" transform="translate(-81.897 -65.456)"/>
                                <g id="Group_8">
                                    <path id="Path_2" d="M88.253 71.907c-1.312.045-2.134 2.142-3.157 2.753a.983.983 0 0 1-1.448-.227c-1.014-1.414.377-3.16 1.684-4.135a14.53 14.53 0 0 1-2.719 1.251.948.948 0 0 1-1.227-.735c-.444-1.929 1.975-2.786 3.634-2.827-.8-.559-3.11-2.079-1.885-2.827 1.241-.75 3.946 1.423 4.829 2.139 1.3 1.053 2.845 2.625 2.9 4.272.079 1.921-1.601.738-2.611.336z" class="cls-2" transform="translate(-81.333 -65.005)"/>
                                    <path id="Path_3" d="M88.775 72.363c-1.678-.763-4.9.335-5.175-.3-.556-1.293 2.02-2.18 3.41-2.351-1.28-.348-3.734-.9-3.658-2.134.092-1.508 3.762-.212 5.62 1.213 2.341 1.8 2.326 3.527 1.939 3.874-.531.476-1.86-.175-2.136-.302z" class="cls-1" transform="translate(-81.474 -65.138)"/>
                                </g>
                            </g>
                            <g id="Group_11" transform="translate(16.967 10.454)">
                                <path id="Path_4" d="M108.338 70.693c-7.906 7.172-9.625 18.668-8.4 28.841.033.231.39.182.4-.033.087-2.3.105-4.586.2-6.86.046-.1.085-.2.13-.3a15.329 15.329 0 0 0 5.154-5.132c1.368-2.455 1.976-5.259 3.049-7.837.1-.247-.17-.183-.35-.061-4.767 3.243-6.385 6.867-7.9 11.733a40.972 40.972 0 0 1 1.1-7.626 26.123 26.123 0 0 1 6.81-12.518c.13-.125-.057-.334-.193-.207z" class="cls-4" transform="translate(-99.578 -64.89)"/>
                                <g id="Group_10" transform="translate(7.449)">
                                    <path id="Path_5" d="M110.306 71.183c1.309.095 2.051 2.222 3.05 2.872a.982.982 0 0 0 1.455-.172c1.067-1.375-.256-3.172-1.525-4.2a14.487 14.487 0 0 0 2.669 1.354.948.948 0 0 0 1.254-.687c.517-1.91-1.867-2.859-3.523-2.964.825-.528 3.187-1.959 1.991-2.753-1.212-.8-4 1.272-4.907 1.955-1.336 1-2.942 2.514-3.063 4.158-.148 1.919 1.575.801 2.599.437z" class="cls-2" transform="translate(-107.596 -64.456)"/>
                                    <path id="Path_6" d="M109.906 71.623c1.705-.7 4.885.522 5.183-.1.6-1.27-1.936-2.255-3.319-2.479 1.293-.3 3.765-.757 3.736-1.994-.034-1.51-3.751-.354-5.662 1-2.407 1.7-2.458 3.436-2.085 3.8.513.489 1.866-.111 2.147-.227z" class="cls-1" transform="translate(-107.589 -64.587)"/>
                                </g>
                            </g>
                            <g id="Group_13" transform="translate(4.769)">
                                <path id="Path_7" d="M99.835 89.042a77.808 77.808 0 0 1-2.454 11.34.283.283 0 0 1-.553-.112c.52-3.5 1.466-6.925 1.985-10.419a52.414 52.414 0 0 0 .607-10.7c-.333-5.888-1.931-12.152-5.775-16.76-.084-.109.095-.263.182-.162 7.693 8.97 6.469 19.969 6.462 20.953 1.089-3.713 2.211-7.97 6.332-11.751.178-.164.316-.086.286.192-.736 6.888-2.651 10.484-6.645 14.166-.113 1.094-.253 2.18-.427 3.253z" class="cls-4" transform="translate(-86.963 -53.844)"/>
                                <g id="Group_12">
                                    <path id="Path_8" d="M93.074 62.8c-1.385-.615-3.294 1.147-4.662 1.267a1.133 1.133 0 0 1-1.387-.965c-.34-1.977 1.981-3.088 3.828-3.442a16.756 16.756 0 0 1-3.45-.07 1.094 1.094 0 0 1-.9-1.381c.51-2.224 3.451-1.9 5.193-1.1-.553-.985-2.181-3.723-.534-3.882 1.666-.153 3.379 3.464 3.934 4.651.816 1.744 1.629 4.155.862 5.892-.892 2.025-2.039-.048-2.884-.97z" class="cls-2" transform="translate(-86.461 -53.214)"/>
                                    <path id="Path_9" d="M93.428 63.474c-1.357-1.636-5.253-2.118-5.218-2.915.073-1.621 3.192-1.244 4.721-.723-1.154-1-3.421-2.813-2.721-4.056.855-1.518 4.01 1.675 5.22 4.089 1.525 3.04.638 4.829.061 4.994-.791.226-1.839-1.118-2.063-1.389z" class="cls-1" transform="translate(-86.583 -53.366)"/>
                                </g>
                            </g>
                            <path id="Path_10" d="M104.446 93.293l3.392 25.924H87.192c.425-2.3 4.268-25.953 4.268-25.953z" class="cls-2" transform="translate(-81.743 -56.022)"/>
                        </g>
                    </g>
                </g>
                <g id="Group_22" transform="translate(0 22.754)">
                    <g id="Group_17" transform="translate(288.268)">
                        <path id="Path_11" d="M370.274 97.672a18.726 18.726 0 0 1 3.012-6.631 11.884 11.884 0 0 1 6.562-4.058q1.364-.413 3.329-.883a24.494 24.494 0 0 0 3.942-1.318 12.814 12.814 0 0 0 3.548-2.256 7.043 7.043 0 0 0 2.129-3.62 6.666 6.666 0 0 0 .1-3.081 6.9 6.9 0 0 0-1.121-2.549 7.1 7.1 0 0 0-2.081-1.909 9.631 9.631 0 0 0-2.694-1.14 8.4 8.4 0 0 0-3.308-.2 11.162 11.162 0 0 0-2.943.855 13 13 0 0 0-2.57 1.537A23.186 23.186 0 0 0 376.1 74.2l-5.678-6.466a15.788 15.788 0 0 1 3.817-3.657 17.2 17.2 0 0 1 4.674-2.224 18.713 18.713 0 0 1 5.2-.792 20.875 20.875 0 0 1 5.38.641 21.336 21.336 0 0 1 5.7 2.358 15.521 15.521 0 0 1 4.556 4.085 14.788 14.788 0 0 1 2.567 5.81 16.315 16.315 0 0 1-.317 7.435 15.738 15.738 0 0 1-1.719 4.31 12.816 12.816 0 0 1-2.581 3.086 15.235 15.235 0 0 1-3.322 2.187 30.476 30.476 0 0 1-4.012 1.594q-1.819.55-3.615 1.022a19.592 19.592 0 0 0-3.369 1.209 9.7 9.7 0 0 0-2.748 1.912 6.6 6.6 0 0 0-1.673 3.147zm-4.474 18.437l2.742-10.9 8.765 2.2-2.742 10.9z" class="cls-1" transform="translate(-365.802 -61.057)"/>
                    </g>
                    <g id="Group_18" transform="translate(0 225.047)">
                        <path id="Path_12" d="M71.868 316.746a13.838 13.838 0 0 1 .146 5.372 8.771 8.771 0 0 1-3.041 4.814q-.771.714-1.922 1.662a18.16 18.16 0 0 0-2.189 2.148 9.492 9.492 0 0 0-1.624 2.644 5.2 5.2 0 0 0-.241 3.09 4.91 4.91 0 0 0 .927 2.076 5.081 5.081 0 0 0 1.569 1.328 5.239 5.239 0 0 0 2 .593 7.083 7.083 0 0 0 2.155-.114 6.205 6.205 0 0 0 2.26-.935 8.233 8.233 0 0 0 1.676-1.519 9.593 9.593 0 0 0 1.208-1.85 16.99 16.99 0 0 0 .806-1.858l5.857 2.454a11.676 11.676 0 0 1-1.349 3.66 12.717 12.717 0 0 1-2.381 2.986 13.807 13.807 0 0 1-3.19 2.206 15.382 15.382 0 0 1-3.775 1.315 15.78 15.78 0 0 1-4.545.28 11.449 11.449 0 0 1-4.343-1.237 10.915 10.915 0 0 1-3.582-3.023 12.048 12.048 0 0 1-2.194-5.034 11.639 11.639 0 0 1-.257-3.415 9.446 9.446 0 0 1 .714-2.882 11.306 11.306 0 0 1 1.5-2.525 22.758 22.758 0 0 1 2.145-2.354q1.029-.953 2.068-1.847a14.394 14.394 0 0 0 1.834-1.891 7.191 7.191 0 0 0 1.2-2.155 4.88 4.88 0 0 0 .092-2.629zm-3-13.675l1.7 8.114-6.527 1.372-1.7-8.114z" class="cls-1" transform="translate(-55.801 -303.071)"/>
                    </g>
                    <g id="Group_19" transform="translate(295.145 144.554)">
                        <path id="Path_13" d="M386.972 227.7a13.81 13.81 0 0 1 2.366 4.824 8.772 8.772 0 0 1-.764 5.643q-.4.969-1.057 2.311a18.03 18.03 0 0 0-1.1 2.864 9.477 9.477 0 0 0-.378 3.079 5.2 5.2 0 0 0 1.066 2.911 4.917 4.917 0 0 0 1.706 1.5 5.1 5.1 0 0 0 1.979.556 5.252 5.252 0 0 0 2.063-.29 7.1 7.1 0 0 0 1.913-1 6.186 6.186 0 0 0 1.665-1.789 8.185 8.185 0 0 0 .894-2.078 9.6 9.6 0 0 0 .329-2.184 17.141 17.141 0 0 0-.038-2.025l6.346-.2a11.666 11.666 0 0 1 .294 3.89 12.714 12.714 0 0 1-.923 3.707 13.793 13.793 0 0 1-1.984 3.331 15.355 15.355 0 0 1-2.887 2.766 15.755 15.755 0 0 1-4.018 2.144 11.45 11.45 0 0 1-4.464.681 10.9 10.9 0 0 1-4.515-1.261 12.04 12.04 0 0 1-4.088-3.667 11.614 11.614 0 0 1-1.652-3 9.419 9.419 0 0 1-.549-2.919 11.273 11.273 0 0 1 .311-2.917 22.718 22.718 0 0 1 .973-3.033q.54-1.294 1.113-2.539a14.492 14.492 0 0 0 .891-2.487 7.184 7.184 0 0 0 .2-2.462 4.882 4.882 0 0 0-1.009-2.429zm-8.41-11.192l4.924 6.671-5.366 3.96-4.92-6.669z" class="cls-1" transform="translate(-373.197 -216.51)"/>
                    </g>
                    <g id="Group_20" transform="translate(333.639 106.883)">
                        <path id="Path_14" d="M420.4 208.087a15.176 15.176 0 0 1 1.056-5.81 9.633 9.633 0 0 1 4.357-4.49q.99-.594 2.443-1.354a19.8 19.8 0 0 0 2.839-1.816 10.4 10.4 0 0 0 2.343-2.475 5.707 5.707 0 0 0 .958-3.268 5.408 5.408 0 0 0-.528-2.444 5.61 5.61 0 0 0-1.386-1.782 5.76 5.76 0 0 0-2.014-1.09 7.78 7.78 0 0 0-2.343-.363 6.8 6.8 0 0 0-2.641.495 9.044 9.044 0 0 0-2.146 1.254 10.593 10.593 0 0 0-1.717 1.717 18.91 18.91 0 0 0-1.287 1.816l-5.744-3.962a12.826 12.826 0 0 1 2.277-3.631 13.973 13.973 0 0 1 3.235-2.673 15.151 15.151 0 0 1 3.929-1.651 16.908 16.908 0 0 1 4.357-.562 17.318 17.318 0 0 1 4.952.726 12.583 12.583 0 0 1 4.39 2.312 11.964 11.964 0 0 1 3.169 4.06 13.228 13.228 0 0 1 1.222 5.909 12.753 12.753 0 0 1-.5 3.73 10.4 10.4 0 0 1-1.419 2.938 12.439 12.439 0 0 1-2.179 2.377 24.93 24.93 0 0 1-2.839 2.047q-1.322.792-2.641 1.519a15.836 15.836 0 0 0-2.41 1.617 7.879 7.879 0 0 0-1.783 2.047 5.363 5.363 0 0 0-.693 2.806zm.132 15.383v-9.111h7.328v9.111z" class="cls-1" transform="translate(-414.593 -175.999)"/>
                    </g>
                    <g id="Group_21" transform="translate(99.639 158.382)">
                        <path id="Path_15" d="M173.523 264.8a15.188 15.188 0 0 1-.171-5.9 9.643 9.643 0 0 1 3.332-5.3q.845-.787 2.109-1.83a19.964 19.964 0 0 0 2.4-2.365 10.41 10.41 0 0 0 1.779-2.909 5.706 5.706 0 0 0 .259-3.4 5.4 5.4 0 0 0-1.023-2.281 5.609 5.609 0 0 0-1.726-1.456 5.779 5.779 0 0 0-2.2-.648 7.792 7.792 0 0 0-2.368.131 6.8 6.8 0 0 0-2.481 1.032 9.013 9.013 0 0 0-1.839 1.672 10.642 10.642 0 0 0-1.323 2.036 18.81 18.81 0 0 0-.882 2.043l-6.44-2.684a12.8 12.8 0 0 1 1.475-4.025 13.949 13.949 0 0 1 2.61-3.287 15.139 15.139 0 0 1 3.5-2.429 16.927 16.927 0 0 1 4.146-1.453 17.29 17.29 0 0 1 4.994-.316 12.567 12.567 0 0 1 4.774 1.35 11.987 11.987 0 0 1 3.952 3.319 13.238 13.238 0 0 1 2.42 5.527 12.731 12.731 0 0 1 .289 3.752 10.359 10.359 0 0 1-.779 3.168 12.363 12.363 0 0 1-1.638 2.777 24.894 24.894 0 0 1-2.353 2.592q-1.128 1.049-2.269 2.033a15.926 15.926 0 0 0-2.022 2.082 7.886 7.886 0 0 0-1.32 2.372 5.357 5.357 0 0 0-.1 2.888zm3.32 15.021l-1.89-8.913 7.169-1.519 1.89 8.913z" class="cls-1" transform="translate(-162.952 -231.38)"/>
                    </g>
                </g>
                <g id="Group_23" transform="translate(2.721)">
                    <path id="Rectangle_21" d="M0 0H24.624V10.405H0z" class="cls-5" transform="rotate(180 177.863 143.344)"/>
                    <path id="Rectangle_22" d="M0 0H24.624V10.405H0z" class="cls-5" transform="rotate(180 184.732 149.905)"/>
                    <path id="Rectangle_23" d="M0 0H24.624V10.405H0z" class="cls-5" transform="rotate(180 170.995 149.905)"/>
                    <path id="Rectangle_24" d="M0 0H24.624V10.405H0z" class="cls-5" transform="rotate(180 12.312 149.905)"/>
                    <path id="Rectangle_27" d="M0 0H24.624V10.405H0z" class="cls-5" transform="rotate(180 184.732 5.203)"/>
                    <path id="Rectangle_28" d="M0 0H24.624V10.405H0z" class="cls-5" transform="translate(186.914 145.291)"/>
                    <path id="Rectangle_29" d="M0 0H24.624V10.405H0z" class="cls-5" transform="translate(173.178 132.17)"/>
                </g>
            </g>
            <g id="Floor" transform="translate(45.339 357.232)">
                <path id="Line_1" fill="none" stroke="#263238" stroke-linecap="round" stroke-linejoin="round" d="M0 0L393.583 0"/>
            </g>
            <g id="Shadow" transform="translate(0 371.705)">
                <ellipse id="Ellipse_1" cx="107.296" cy="10.745" class="cls-1" rx="107.296" ry="10.745" transform="translate(134.834)"/>
                <ellipse id="Ellipse_1378" cx="78.004" cy="10.745" class="cls-1" rx="78.004" ry="10.745" transform="translate(0 21.388)"/>
            </g>
            <g id="Plant" transform="translate(325.482 224.205)">
                <g id="Group_42">
                    <g id="Group_39">
                        <g id="Group_38">
                            <g id="Group_26" transform="translate(51.301 16.963)">
                                <path id="Path_17" d="M424.767 299.007c-3.532-3.461-8.1-7.643-13.5-6.15-5.08 1.4-7.025 6.949-7.935 11.57-1.173 5.954-2.085 11.968-3.031 17.962-.955 6.055-1.85 12.117-2.723 18.184q-.738 5.134-1.457 10.272-.358 2.569-.714 5.139c-.232 1.679-.513 3.358-.605 5.053-.03.539.817.618.935.1.655-2.857.925-5.827 1.345-8.726q.633-4.374 1.27-8.747 1.271-8.687 2.6-17.367t2.7-17.358c.784-4.9 1.153-11 5.5-14.23a8.4 8.4 0 0 1 8.129-.763c2.861 1.092 5.146 3.14 7.383 5.166a.074.074 0 0 0 .103-.105z" class="cls-7" transform="translate(-394.805 -285.258)"/>
                                <g id="Group_25" transform="translate(13.303)">
                                    <path id="Path_18" d="M420.936 294.921s-7.221-2.6-10.783 2.671.7 18.67 33.57 26.232a92.834 92.834 0 0 0-7.91-29.717c-7.047-15.368-19.604-9.549-14.877.814z" class="cls-8" transform="translate(-409.111 -284.709)"/>
                                    <g id="Group_24" transform="translate(7.858 7.84)">
                                        <path id="Path_19" d="M442.443 322.36a25.684 25.684 0 0 0-1.654-2.666q-.823-1.272-1.666-2.53c-.423-.631-.855-1.257-1.286-1.882.031-.152.04-.311.06-.471l.113-.854c.08-.617.171-1.231.261-1.846s.193-1.225.31-1.834a9.729 9.729 0 0 1 .431-1.937c.041-.1-.131-.143-.143-.031a7.256 7.256 0 0 1-.294 1.089c-.077.276-.15.553-.22.83q-.24.935-.452 1.877c-.13.578-.24 1.16-.338 1.745-.047.281-.089.562-.127.844-.586-.837-1.183-1.665-1.8-2.476-1.745-2.3-3.592-4.512-5.5-6.671.008-.021.029-.034.03-.06.171-3.455.087-6.873.854-10.272.021-.092-.119-.143-.139-.049a35.28 35.28 0 0 0-1.228 9.826q-1.027-1.148-2.078-2.278-2.4-2.583-4.9-5.075c-.068-.067-.175.031-.109.1 2.77 2.981 5.4 6.087 7.964 9.25a56.557 56.557 0 0 0-6.009.222c-2.229.165-4.444.45-6.657.756-.095.013-.067.16.028.146a62.4 62.4 0 0 1 6.647-.6c2.144-.089 4.278.007 6.421 0q2.076 2.576 4.1 5.191c-.1 0-.2 0-.3-.007-.5-.009-1.008-.018-1.511-.008-1 .018-2 .087-2.994.172a45.616 45.616 0 0 0-6.071.908.074.074 0 0 0 .029.146c2.02-.228 4.044-.418 6.076-.489.97-.033 1.939-.033 2.909-.033h1.511a1.886 1.886 0 0 0 .829-.075c.884 1.147 1.77 2.295 2.646 3.449q1.046 1.378 2.062 2.779c.691.955 1.316 2 2.084 2.891.048.075.147-.002.111-.077z" class="cls-7" transform="translate(-417.579 -293.278)"/>
                                        <path id="Path_20" d="M424.673 303.708a21.861 21.861 0 0 0-3.515-.171c-1.174 0-2.348.034-3.52.075a.074.074 0 1 0 .008.147c1.189-.086 2.378-.106 3.57-.088 1.149.017 2.3.126 3.452.1a.029.029 0 0 0 .005-.063z" class="cls-7" transform="translate(-417.562 -293.869)"/>
                                        <path id="Path_21" d="M436.264 306.31c.135-1.122.275-2.251.515-3.356a.074.074 0 1 0-.144-.031c-.168 1.106-.384 2.2-.547 3.309q-.123.83-.225 1.663a7.679 7.679 0 0 0-.135 1.568.1.1 0 0 0 .192.014 9.647 9.647 0 0 0 .17-1.565q.078-.803.174-1.602z" class="cls-7" transform="translate(-418.835 -293.821)"/>
                                        <path id="Path_22" d="M433.892 293.188c-.288 1.094-.574 2.2-.775 3.311-.1.564-.189 1.131-.265 1.7a6.876 6.876 0 0 0-.111 1.661.045.045 0 0 0 .086.007 9.438 9.438 0 0 0 .26-1.584q.109-.819.251-1.634c.2-1.147.4-2.282.693-3.41.024-.092-.115-.139-.139-.051z" class="cls-7" transform="translate(-418.625 -293.14)"/>
                                    </g>
                                </g>
                            </g>
                            <g id="Group_28" transform="translate(12.823 48.204)">
                                <path id="Path_23" d="M386.725 361.882q-.271-3.1-.6-6.2-.647-6.143-1.481-12.263c-.548-4.069-1.07-8.147-1.724-12.2a30.463 30.463 0 0 0-1.254-5.538 5.258 5.258 0 0 0-3.068-3.462c-3.868-1.335-6.478 2.675-8.039 5.512-.047.086.076.149.13.072.935-1.344 3.52-5.117 6.453-4.941 1.974.119 3.553 1.517 4.5 6.44 2.362 12.266 4.49 37.157 4.739 38.785.132.864.741.827.747-.1.011-2.04-.228-4.078-.403-6.105z" class="cls-7" transform="translate(-354.626 -318.561)"/>
                                <path id="Path_24" d="M370.4 325.945s3.38-11.937-4.093-5.968c-12.44 9.936-12.882 31.548-12.882 31.548s22.114-12.845 24.863-21.316c4.098-12.62-7.888-4.264-7.888-4.264z" class="cls-8" transform="translate(-353.426 -318.306)"/>
                                <g id="Group_27" transform="translate(1.404 6.139)">
                                    <path id="Path_25" d="M374.693 332.268c-1.735.352-3.5.582-5.247.834q-1.244.179-2.489.35c-.56.077-1.128.131-1.691.2 1.647-2.27 3.309-4.53 4.888-6.845.061-.089-.076-.181-.148-.109a51.287 51.287 0 0 0-3.7 4.265c-.324-.925-.656-1.847-.98-2.771-.377-1.069-.78-2.132-1.052-3.234-.023-.092-.168-.049-.142.043.3 1.094.516 2.211.808 3.308.283 1.059.6 2.106.98 3.137-.811 1.052-1.587 2.129-2.342 3.217-.38-1.079-.853-2.123-1.187-3.218a.074.074 0 0 0-.141.044c.4 1.211.609 2.472.982 3.69-.508.741-1.015 1.482-1.5 2.231-.894 1.381-1.735 2.786-2.558 4.2a.328.328 0 0 0-.194.334c-1.4 2.417-2.726 4.869-4.037 7.343a.074.074 0 0 0 .129.073c1.313-2.445 2.773-4.823 4.291-7.161h.017a3.315 3.315 0 0 1 .723-.139c.255-.053.509-.111.763-.166.572-.124 1.138-.272 1.706-.413 1.121-.279 2.231-.543 3.37-.739.094-.017.051-.16-.043-.142-1.339.255-2.681.406-4.035.564-.638.073-1.275.155-1.91.257l-.092.014q1.194-1.812 2.418-3.593c.8-1.166 1.629-2.317 2.459-3.465.767-.108 1.528-.31 2.288-.455q1.285-.245 2.567-.5c1.712-.339 3.416-.723 5.138-1.007.096-.02.054-.166-.039-.147z" class="cls-7" transform="translate(-354.936 -324.907)"/>
                                    <path id="Path_26" d="M361.818 333.862l-.3-.949a18.715 18.715 0 0 1-.508-2c-.019-.093-.162-.05-.141.043.144.674.3 1.346.456 2.018a13.006 13.006 0 0 0 .577 1.985.134.134 0 0 0 .256-.078c-.094-.346-.229-.681-.34-1.019z" class="cls-7" transform="translate(-355.352 -325.324)"/>
                                    <path id="Path_27" d="M378.153 329.851c-1.009.152-2.026.222-3.041.311s-2.027.231-3.04.383c-.055.007-.057.093 0 .088 1.019-.07 2.029-.148 3.042-.281s2.023-.284 3.041-.353c.099-.007.09-.162-.002-.148z" class="cls-7" transform="translate(-356.134 -325.253)"/>
                                </g>
                            </g>
                            <g id="Group_31" transform="translate(0 5.735)">
                                <path id="Path_28" d="M402.515 343.763c-.392-8.788-.949-17.562-1.834-26.317-.44-4.359-.932-8.716-1.545-13.055a93.371 93.371 0 0 0-2.517-12.634 24.292 24.292 0 0 0-4.207-8.909 9.549 9.549 0 0 0-8.5-3.709c-3.847.475-6.943 2.9-9.623 5.532-3.005 2.953-5.758 6.178-8.541 9.339q-1.057 1.2-2.1 2.412c-.062.073.045.175.107.1 2.722-3.126 5.55-6.164 8.509-9.069 2.734-2.684 5.551-5.617 9.339-6.727a9.619 9.619 0 0 1 5.425-.127 8.612 8.612 0 0 1 3.707 2.347 19.417 19.417 0 0 1 4.181 8.128c2.364 8.079 3.21 16.55 4.088 24.892.892 8.477 1.493 16.975 1.919 25.487.429 8.557.763 17.125 1.587 25.655.1 1.054.238 2.1.372 3.152.09.706 1.186.707 1.127-.028-.693-8.814-1.099-17.632-1.494-26.469z" class="cls-7" transform="translate(-341.318 -273.086)"/>
                                <g id="Group_30">
                                    <path id="Path_29" d="M372.125 285.17s5.019-9.288-.911-12.267-25.779 19.175-31.577 51.573c0 0 32.057-14.184 42.943-28.317s-1.456-17.245-10.455-10.989z" class="cls-8" transform="translate(-339.636 -272.635)"/>
                                    <g id="Group_29" transform="translate(5.013 10.768)">
                                        <path id="Path_30" d="M377.215 293.536c-3.6.008-7.2-.272-10.8-.246.675-.776 1.348-1.551 2.03-2.32a33.8 33.8 0 0 0 2.817-3.271c.051-.075-.058-.181-.13-.125a26.1 26.1 0 0 0-2.726 2.735q-1.354 1.438-2.694 2.887c-1.377 1.491-2.726 3.005-4.073 4.522 0-.148-.006-.294 0-.436v-1.893c.008-1.222.027-2.444.038-3.666.024-2.476.018-4.967.19-7.438.007-.1-.141-.091-.148 0-.173 2.485-.43 4.958-.551 7.447-.06 1.223-.09 2.445-.1 3.667-.008.631-.019 1.263-.014 1.893 0 .343-.01.707.017 1.061-.21.238-.428.469-.637.707-2.875 3.286-5.609 6.685-8.271 10.142 0-.191-.029-.387-.046-.574-.037-.381-.083-.762-.126-1.143-.093-.828-.207-1.65-.331-2.473q-.173-1.161-.367-2.315c-.146-.865-.358-1.744-.424-2.619a.074.074 0 1 0-.145.023 23 23 0 0 1 .3 2.638q.112 1.188.219 2.378c.072.794.143 1.587.225 2.381.039.38.073.763.114 1.143q.031.286.07.572a1.082 1.082 0 0 0 .154.453c-.457.6-.917 1.191-1.37 1.79-1.818 2.406-3.6 4.839-5.388 7.269-.056.075.049.179.108.1 1.69-2.2 3.429-4.369 5.192-6.514 1.319.057 2.665-.041 3.983-.062 1.391-.023 2.78-.031 4.171-.034a.074.074 0 0 0 0-.148c-1.39.023-2.78.045-4.171.05-1.267 0-2.56-.058-3.828.011q2.325-2.826 4.687-5.623.859-1.022 1.722-2.041a7.952 7.952 0 0 0 1.61.055h1.9c1.185 0 2.368-.031 3.553-.049 2.447-.037 4.894-.119 7.341-.125a.074.074 0 0 0 0-.149c-2.45-.03-4.9-.136-7.35-.2-1.185-.031-2.37-.07-3.556-.086-.632-.008-1.264-.014-1.9-.021-.359 0-.73-.029-1.094-.016q2.017-2.394 4.038-4.786a.18.18 0 0 0 .075-.087q1.971-2.324 3.956-4.636c.182-.21.367-.418.55-.628 3.735.117 7.465-.128 11.2-.056.08.007.076-.144-.02-.144z" class="cls-7" transform="translate(-345.027 -284.215)"/>
                                        <path id="Path_31" d="M377.589 301.09l-.872.007a.067.067 0 0 0 0 .133l.873.007a.074.074 0 0 0-.001-.147z" class="cls-7" transform="translate(-347.244 -285.398)"/>
                                        <path id="Path_32" d="M375.058 301.088q-1.731-.025-3.463-.073-.865-.024-1.73-.055a6.477 6.477 0 0 0-1.611.019c-.057.013-.046.093 0 .108a6.192 6.192 0 0 0 1.613.114q.865.015 1.731.024 1.73.018 3.461.011a.074.074 0 0 0-.001-.148z" class="cls-7" transform="translate(-346.653 -285.386)"/>
                                        <path id="Path_33" d="M364.2 312.687a48.09 48.09 0 0 0-7.09-.64c-.033 0-.031.049 0 .052 2.354.224 4.714.352 7.052.732.096.016.132-.131.038-.144z" class="cls-7" transform="translate(-345.872 -286.166)"/>
                                        <path id="Path_34" d="M354.306 301.29c-.023-.206-.046-.412-.073-.618-.06-.463-.134-.926-.206-1.388q-.208-1.32-.459-2.633c-.016-.082-.155-.06-.145.023q.166 1.359.292 2.721c.042.446.075.894.115 1.34a3.746 3.746 0 0 0 .18 1.27c.068.139.275.082.311-.048a1.727 1.727 0 0 0-.015-.667z" class="cls-7" transform="translate(-345.615 -285.083)"/>
                                    </g>
                                </g>
                            </g>
                            <g id="Group_34" transform="translate(48.181)">
                                <path id="Path_35" d="M404.149 272.926c-1.147-2.135-2.607-4.957-5.471-4.778-2.365.148-3.43 2.56-3.935 4.556-1.562 6.169-1.672 12.676-1.976 19-.643 13.362-1.221 26.738-1.3 40.116q-.035 5.563.024 11.125c.034 3.782.024 7.586.264 11.361a.279.279 0 0 0 .557-.014c.021-3.234-.094-6.472-.107-9.707q-.02-4.737.063-9.471.153-9.592.511-19.178c.234-6.353.514-12.7.784-19.053q.2-4.761.412-9.52c.139-3.074.272-6.152.623-9.211.2-1.713.45-3.427.807-5.113a7.136 7.136 0 0 1 1.479-3.428 3.231 3.231 0 0 1 4.18-.3 8.855 8.855 0 0 1 2.964 3.7c.039.078.166 0 .121-.085z" class="cls-7" transform="translate(-391.449 -266.585)"/>
                                <g id="Group_33" transform="translate(5.835)">
                                    <path id="Path_36" d="M403.814 271.79s-2.354-8.316 2.85-4.159c8.666 6.922 8.973 21.976 8.973 21.976s-15.4-8.947-17.319-14.849c-2.854-8.789 5.496-2.968 5.496-2.968z" class="cls-8" transform="translate(-397.724 -266.467)"/>
                                    <g id="Group_32" transform="translate(3.755 4.479)">
                                        <path id="Path_37" d="M412.68 283.889c-.141-.231-.292-.454-.437-.683a4.4 4.4 0 0 0 0-.709c0-.358-.006-.716 0-1.074q.025-1.053.077-2.106c0-.095-.143-.091-.148 0q-.054 1.034-.084 2.067c-.009.345-.025.689-.036 1.034 0 .135-.021.29-.03.444q-.907-1.41-1.867-2.782c-.187-.265-.381-.524-.571-.785a16.156 16.156 0 0 1-.046-2.716c.011-.966.025-1.932.059-2.9 0-.095-.146-.091-.148 0-.029 1.006-.078 2.009-.129 3.014a19.546 19.546 0 0 0-.06 2.152c-1.488-2.023-3.065-3.973-4.663-5.913-.053-.065-.166.026-.114.092.989 1.252 1.938 2.537 2.867 3.836-1.812-.423-3.656-.666-5.5-.932-.094-.014-.131.129-.036.143 1.95.3 3.864.785 5.789 1.21.015 0 .024-.007.038-.007q1.108 1.558 2.193 3.131c.295.426.582.858.873 1.287l-.083-.01c-.2-.029-.4-.058-.6-.082-.426-.051-.854-.086-1.281-.119-.888-.07-1.778-.116-2.667-.164-.095-.006-.093.146 0 .148.876.02 1.745.086 2.617.18.46.05.919.113 1.378.166.2.024.4.046.6.073.06.006.118.016.177.024q.739 1.092 1.481 2.182c.869 1.286 1.646 2.664 2.575 3.906a.07.07 0 0 0 .12-.073 39.8 39.8 0 0 0-2.344-4.034z" class="cls-7" transform="translate(-401.762 -271.399)"/>
                                        <path id="Path_38" d="M409.364 274.382c0-.324.007-.647.006-.971a15.05 15.05 0 0 1 .082-2.037.074.074 0 1 0-.146-.016c0 .672-.073 1.346-.106 2.018-.016.337-.017.674-.018 1.011v.466a1.425 1.425 0 0 0 .035.484.067.067 0 0 0 .128 0 1.377 1.377 0 0 0 .02-.446l-.001-.509z" class="cls-7" transform="translate(-402.282 -271.284)"/>
                                        <path id="Path_39" d="M407.049 278.291c-.573-.1-1.16-.127-1.738-.177-.636-.054-1.269-.11-1.9-.192a.074.074 0 1 0-.017.146c1.216.079 2.427.3 3.644.339a.059.059 0 0 0 .011-.116z" class="cls-7" transform="translate(-401.871 -271.75)"/>
                                    </g>
                                </g>
                                <path id="Path_40" d="M412.533 278.365c.046.063.016.246.016.321v1.431a1.212 1.212 0 0 0 .028.509.034.034 0 0 0 .058 0 .516.516 0 0 0 .029-.242v-.268-.581-.85c0-.082-.031-.253.017-.321.075-.136-.247-.138-.148.001z" class="cls-7" transform="translate(-392.926 -267.294)"/>
                            </g>
                            <g id="Group_37" transform="translate(34.764 37.964)">
                                <path id="Path_41" d="M403.5 320.541c-3.24-2.432-6.15-5.927-10.508-6.1-3.6-.141-6.117 2.566-7.558 5.581a31.479 31.479 0 0 0-1.763 4.967q-.975 3.413-1.836 6.859c-1.128 4.517-2.1 9.077-2.885 13.667-.438 2.558-.845 5.126-1.17 7.7a64.945 64.945 0 0 0-.756 7.885.41.41 0 0 0 .8.089c.439-2.155.622-4.379.939-6.555s.651-4.377 1.021-6.559q1.112-6.546 2.58-13.028c.93-4.075 1.842-8.213 3.158-12.184.942-2.845 2.455-6.165 5.527-7.188 4.675-1.557 8.92 2.4 12.342 4.969.078.061.181-.044.109-.103z" class="cls-7" transform="translate(-377.021 -307.795)"/>
                                <g id="Group_36" transform="translate(11.91)">
                                    <path id="Path_42" d="M401.041 317.713s-2.986-8.527 1.333-10.2c6.473-2.506 23.416 16.576 20.1 45.814 0 0-13.091-7.21-22.757-15.323s-12.14-18.709-7.882-21.448 9.206 1.157 9.206 1.157z" class="cls-8" transform="translate(-389.829 -307.294)"/>
                                    <g id="Group_35" transform="translate(5.71 8.885)">
                                        <path id="Path_43" d="M421.168 347.732a22.5 22.5 0 0 0-1.574-2.949c-.553-1-1.113-2-1.691-2.985-1.126-1.923-2.243-3.853-3.4-5.761-.187-.309-.38-.615-.568-.923.026-.113.046-.23.072-.343l.192-.845c.144-.634.254-1.275.374-1.914.234-1.252.451-2.52.789-3.747.025-.091-.126-.121-.146-.026-.268 1.251-.661 2.481-1.031 3.7-.182.6-.377 1.2-.536 1.812l-.164.626c-1.392-2.281-2.807-4.552-4.333-6.745a3.075 3.075 0 0 0 .152-.938c.046-.428.1-.855.148-1.281.114-.962.224-1.924.365-2.883a56.109 56.109 0 0 1 1.026-5.6c.023-.092-.123-.118-.146-.025-.466 1.84-.974 3.682-1.323 5.549-.171.915-.333 1.835-.456 2.758-.061.461-.111.925-.158 1.388-.014.137-.035.278-.053.419-.471-.663-.939-1.326-1.431-1.972-1.5-1.967-3.044-3.888-4.608-5.8-.06-.074-.182.01-.122.085a103.012 103.012 0 0 1 7.361 10.751c.429.686.848 1.378 1.273 2.066l-.42-.052c-.548-.07-1.1-.1-1.651-.155q-1.651-.153-3.306-.287c-2.2-.175-4.416-.311-6.616-.546-.094-.01-.121.135-.026.146 2.23.255 4.448.613 6.669.929q1.638.233 3.279.442a13.031 13.031 0 0 0 2.524.259l2.6 4.221a5.12 5.12 0 0 0-.585-.022c-.367-.007-.735 0-1.1 0h-2.049c-1.42 0-2.84.03-4.26.028-.1 0-.081.146.014.148 1.439.017 2.874.09 4.311.165q1.022.053 2.044.124c.341.023.681.052 1.022.073a2.1 2.1 0 0 0 .9-.035c.734 1.2 1.478 2.392 2.211 3.591q1.015 1.658 2.062 3.3a26.519 26.519 0 0 0 2.221 3.333c.058.061.176.014.144-.079z" class="cls-7" transform="translate(-396.19 -316.848)"/>
                                        <path id="Path_44" d="M416.016 324.643a20.735 20.735 0 0 1-.586 2.779q-.361 1.421-.823 2.814a.092.092 0 1 0 .175.056q.435-1.381.777-2.789c.228-.939.374-1.9.6-2.834.026-.093-.132-.122-.143-.026z" class="cls-7" transform="translate(-397.276 -317.391)"/>
                                        <path id="Path_45" d="M405.093 330.694a1.091 1.091 0 0 0-.714-.266c-.412-.059-.824-.113-1.236-.169-.766-.1-1.534-.189-2.3-.279-1.6-.187-3.193-.342-4.786-.543-.095-.012-.121.135-.026.146 1.5.183 3 .411 4.5.608.736.1 1.472.2 2.209.287.355.041.71.079 1.065.118a3.776 3.776 0 0 1 1.214.208c.073.036.125-.059.074-.11z" class="cls-7" transform="translate(-395.97 -317.731)"/>
                                        <path id="Path_46" d="M415.74 344.6c-.752-.064-1.512-.088-2.266-.112l-1.143-.035-.549-.017a3.324 3.324 0 0 1-.714-.042c-.105-.026-.115.165-.006.147a3.223 3.223 0 0 1 .669.021l.594.035 1.141.069c.754.046 1.513.09 2.267.095.091.002.099-.153.007-.161z" class="cls-7" transform="translate(-397.023 -318.78)"/>
                                        <path id="Path_47" d="M421.026 340.805c.086-.429.167-.857.246-1.287l.464-2.527a.074.074 0 0 0-.146-.026l-.555 2.462c-.093.411-.184.821-.27 1.233l-.118.57a1.575 1.575 0 0 0-.068.6c.013.069.115.125.164.051a3.085 3.085 0 0 0 .283-1.076z" class="cls-7" transform="translate(-397.695 -318.255)"/>
                                    </g>
                                </g>
                            </g>
                        </g>
                    </g>
                    <g id="Group_41" transform="translate(28.68 85.175)">
                        <g id="Group_40" transform="translate(2.714 2.827)">
                            <path id="Path_48" d="M373.4 361.1l.912 10.365 3.1 35h27.407l3.869-35 1.143-10.365z" class="cls-9" transform="translate(-373.397 -361.104)"/>
                            <path id="Path_49" d="M373.4 361.1l.912 10.365h34.374l1.143-10.365z" class="cls-7" transform="translate(-373.397 -361.104)"/>
                        </g>
                        <path id="Rectangle_30" d="M0 0H41.857V8.409H0z" class="cls-9" transform="rotate(180 20.928 4.205)"/>
                    </g>
                </g>
            </g>
            <g id="Question_mark" transform="translate(161.722 56.327)">
                <g id="Group_47">
                    <g id="Group_45" transform="translate(6.859)">
                        <g id="Group_43">
                            <path id="Path_50" d="M211.011 307.429q0-22.326 7.292-40.106t30.079-30.991q6.838-4.1 16.864-9.343a136.93 136.93 0 0 0 19.6-12.534 71.818 71.818 0 0 0 16.179-17.091 39.419 39.419 0 0 0 6.608-22.559 37.274 37.274 0 0 0-3.646-16.863 38.617 38.617 0 0 0-9.57-12.306 39.79 39.79 0 0 0-13.9-7.519 53.832 53.832 0 0 0-16.179-2.507 46.964 46.964 0 0 0-18.231 3.418 62.237 62.237 0 0 0-14.812 8.659 72.871 72.871 0 0 0-11.849 11.85 130.058 130.058 0 0 0-8.888 12.534H203.7l-32.8-27.346a88.423 88.423 0 0 1 15.724-25.067 96.292 96.292 0 0 1 22.337-18.458 104.6 104.6 0 0 1 27.118-11.393 116.849 116.849 0 0 1 30.079-3.874 119.441 119.441 0 0 1 34.181 5.013 86.788 86.788 0 0 1 30.308 15.954 82.715 82.715 0 0 1 21.876 28.029q8.428 17.091 8.432 40.79a88.089 88.089 0 0 1-3.418 25.751 71.671 71.671 0 0 1-9.8 20.28 85.422 85.422 0 0 1-15.037 16.405 171.514 171.514 0 0 1-19.6 14.128q-9.122 5.469-18.231 10.483a109.717 109.717 0 0 0-16.635 11.165 54.332 54.332 0 0 0-12.305 14.129q-4.786 7.98-4.785 19.37zm.911 106.19v-62.893h50.589v62.893z" class="cls-8" transform="translate(-170.905 -85.933)"/>
                        </g>
                        <g id="Group_44" opacity="0.2">
                            <path id="Path_51" d="M211.011 307.429q0-22.326 7.292-40.106t30.079-30.991q6.838-4.1 16.864-9.343a136.93 136.93 0 0 0 19.6-12.534 71.818 71.818 0 0 0 16.179-17.091 39.419 39.419 0 0 0 6.608-22.559 37.274 37.274 0 0 0-3.646-16.863 38.617 38.617 0 0 0-9.57-12.306 39.79 39.79 0 0 0-13.9-7.519 53.832 53.832 0 0 0-16.179-2.507 46.964 46.964 0 0 0-18.231 3.418 62.237 62.237 0 0 0-14.812 8.659 72.871 72.871 0 0 0-11.849 11.85 130.058 130.058 0 0 0-8.888 12.534H203.7l-32.8-27.346a88.423 88.423 0 0 1 15.724-25.067 96.292 96.292 0 0 1 22.337-18.458 104.6 104.6 0 0 1 27.118-11.393 116.849 116.849 0 0 1 30.079-3.874 119.441 119.441 0 0 1 34.181 5.013 86.788 86.788 0 0 1 30.308 15.954 82.715 82.715 0 0 1 21.876 28.029q8.428 17.091 8.432 40.79a88.089 88.089 0 0 1-3.418 25.751 71.671 71.671 0 0 1-9.8 20.28 85.422 85.422 0 0 1-15.037 16.405 171.514 171.514 0 0 1-19.6 14.128q-9.122 5.469-18.231 10.483a109.717 109.717 0 0 0-16.635 11.165 54.332 54.332 0 0 0-12.305 14.129q-4.786 7.98-4.785 19.37zm.911 106.19v-62.893h50.589v62.893z" transform="translate(-170.905 -85.933)"/>
                        </g>
                    </g>
                    <g id="Group_46">
                        <path id="Path_52" d="M203.635 307.429q0-22.326 7.292-40.106t30.08-30.991q6.836-4.1 16.863-9.343a136.93 136.93 0 0 0 19.6-12.534 71.818 71.818 0 0 0 16.179-17.091 39.412 39.412 0 0 0 6.608-22.559 37.262 37.262 0 0 0-3.646-16.863 38.617 38.617 0 0 0-9.57-12.306 39.79 39.79 0 0 0-13.9-7.519 53.832 53.832 0 0 0-16.179-2.507 46.968 46.968 0 0 0-18.231 3.418 62.237 62.237 0 0 0-14.812 8.659 72.871 72.871 0 0 0-11.849 11.85 130.217 130.217 0 0 0-8.888 12.534l-39.651-27.345a88.444 88.444 0 0 1 15.724-25.067 96.292 96.292 0 0 1 22.33-18.459A104.613 104.613 0 0 1 228.7 89.807a116.849 116.849 0 0 1 30.079-3.874 119.436 119.436 0 0 1 34.181 5.013 86.8 86.8 0 0 1 30.312 15.954 82.713 82.713 0 0 1 21.875 28.029q8.429 17.091 8.432 40.79a88.088 88.088 0 0 1-3.418 25.751 71.692 71.692 0 0 1-9.8 20.28 85.456 85.456 0 0 1-15.04 16.408 171.433 171.433 0 0 1-19.6 14.128q-9.122 5.469-18.231 10.483a109.721 109.721 0 0 0-16.635 11.165 54.35 54.35 0 0 0-12.305 14.129q-4.786 7.98-4.785 19.37zm.911 106.19v-62.893h50.589v62.893z" class="cls-8" transform="translate(-163.529 -85.933)"/>
                    </g>
                </g>
            </g>
            <g id="Speech_Bubble" transform="translate(2.436)">
                <g id="Group_106">
                    <path id="Path_124" d="M138.564 90.986a5.31 5.31 0 1 0 5.749-4.833 5.311 5.311 0 0 0-5.749 4.833z" class="cls-11" transform="translate(-98.191 -38.919)"/>
                    <path id="Path_125" d="M131.245 101.673a2.956 2.956 0 1 0 3.2-2.69 2.956 2.956 0 0 0-3.2 2.69z" class="cls-11" transform="translate(-79.373 -39.819)"/>
                    <g id="Group_102">
                        <path id="Path_126" d="M131.912 62.729a15.511 15.511 0 0 0 21.423 16.163 13.01 13.01 0 0 0 20.7-.046 10.276 10.276 0 0 0 1.74.364 10.55 10.55 0 0 0 9.91-16.533A15.506 15.506 0 0 0 164.8 40.242a13.014 13.014 0 0 0-22.338 3.546 8.294 8.294 0 0 0-1.669-.377 8.513 8.513 0 0 0-7.318 14.183 15.111 15.111 0 0 0-1.563 5.135z" class="cls-11" transform="translate(-131.257 -35.359)"/>
                    </g>
                    <g id="Group_105" transform="translate(11.255 9.587)">
                        <g id="Group_103" transform="translate(16.044)">
                            <path id="Path_127" d="M163.9 63.932a8.648 8.648 0 0 1 .6-3.307 5.49 5.49 0 0 1 2.48-2.555c.377-.226.84-.482 1.391-.771a11.309 11.309 0 0 0 1.616-1.033 5.935 5.935 0 0 0 1.333-1.409 3.253 3.253 0 0 0 .545-1.857 3.077 3.077 0 0 0-.3-1.39 3.182 3.182 0 0 0-.789-1.015 3.272 3.272 0 0 0-1.146-.62 4.434 4.434 0 0 0-1.334-.206 3.875 3.875 0 0 0-1.5.282 5.1 5.1 0 0 0-1.221.714 6.029 6.029 0 0 0-.977.976 10.688 10.688 0 0 0-.733 1.034l-3.27-2.255a7.312 7.312 0 0 1 1.3-2.067 7.928 7.928 0 0 1 1.842-1.521 8.6 8.6 0 0 1 2.235-.94 9.66 9.66 0 0 1 2.481-.319 9.862 9.862 0 0 1 2.819.413 7.158 7.158 0 0 1 2.5 1.316 6.823 6.823 0 0 1 1.8 2.311 7.537 7.537 0 0 1 .695 3.363 7.256 7.256 0 0 1-.282 2.123 5.932 5.932 0 0 1-.807 1.673 7.092 7.092 0 0 1-1.24 1.353 14.111 14.111 0 0 1-1.616 1.164q-.752.452-1.5.865a9.035 9.035 0 0 0-1.373.921 4.5 4.5 0 0 0-1.015 1.165 3.05 3.05 0 0 0-.394 1.6zm.074 8.757V67.5h4.172v5.186z" class="cls-8" transform="translate(-160.591 -45.669)"/>
                        </g>
                        <g id="Group_104">
                            <path id="Path_128" d="M153.386 54.222a8.63 8.63 0 0 1 .092 3.36 5.489 5.489 0 0 1-1.9 3.011q-.483.448-1.2 1.041A11.211 11.211 0 0 0 149 62.976a5.92 5.92 0 0 0-1.015 1.654 3.249 3.249 0 0 0-.151 1.932 3.059 3.059 0 0 0 .58 1.3 3.176 3.176 0 0 0 .981.831 3.263 3.263 0 0 0 1.249.371 4.421 4.421 0 0 0 1.356-.073 3.862 3.862 0 0 0 1.413-.584 5.146 5.146 0 0 0 1.049-.95 5.991 5.991 0 0 0 .755-1.157 10.812 10.812 0 0 0 .5-1.162l3.663 1.534a7.305 7.305 0 0 1-.843 2.289 7.959 7.959 0 0 1-1.49 1.868 8.63 8.63 0 0 1-1.995 1.379 9.661 9.661 0 0 1-2.362.823 9.855 9.855 0 0 1-2.843.175 7.167 7.167 0 0 1-2.716-.774 6.813 6.813 0 0 1-2.241-1.89 7.545 7.545 0 0 1-1.372-3.149 7.277 7.277 0 0 1-.161-2.136 5.894 5.894 0 0 1 .447-1.8 7.04 7.04 0 0 1 .935-1.579 14.038 14.038 0 0 1 1.342-1.472q.643-.6 1.293-1.155a9.132 9.132 0 0 0 1.153-1.183 4.5 4.5 0 0 0 .753-1.349 3.054 3.054 0 0 0 .058-1.644zm-1.874-8.553l1.067 5.075-4.079.856-1.067-5.075z" class="cls-8" transform="translate(-143.337 -45.669)"/>
                        </g>
                    </g>
                </g>
            </g>
        </g>
        <g id="freepik--Character--inject-3" transform="translate(705.107 254.886)">
            <path id="Path_24724" d="M276.879 437.26l-2.051 24.717-7.261 19.07a2.575 2.575 0 0 0 1.639 3.339 2.515 2.515 0 0 0 2.283-.421c4.145-3.21 19.1-15 19.259-16.538.215-1.991 4.025-26.288 4.025-26.288z" class="cls-12" transform="translate(-219.067 -113.051)"/>
            <path id="Path_24725" d="M271.654 488.91l21.954-19.74-.214 1.83c-.146 1-.163 1.545-.858 2.171a213.234 213.234 0 0 1-18.4 15.775 2.814 2.814 0 0 1-2.515 0z" class="cls-7" transform="translate(-221.516 -117.575)"/>
            <path id="Path_24726" fill="#fff" d="M274.966 460.125a1.536 1.536 0 0 0-.626 1.948 1.476 1.476 0 0 0 1.931.644 1.613 1.613 0 0 0 .652-2.068 1.528 1.528 0 0 0-2.077-.446" transform="translate(-207.199 -116.271)"/>
            <path id="Path_24727" d="M294 479.773a7.561 7.561 0 0 0-1.957-2.146 9.369 9.369 0 0 0-2.781-.858c-.017-.172.318-.223.9-.249a4.068 4.068 0 0 1 3.673 2.317c.235.563.235.927.165.936z" class="cls-7" transform="translate(-237.092 -118.616)"/>
            <path id="Path_24728" d="M296.186 483.591c-.129.094-.858-.79-2.068-1.287a19.1 19.1 0 0 0-2.377-.566 2.784 2.784 0 0 1 2.575.06c1.389.592 2.007 1.742 1.87 1.793z" class="cls-7" transform="translate(-241.379 -119.32)"/>
            <path id="Path_24729" d="M291.618 475.2a24.78 24.78 0 0 0-3.064-2.214 34.477 34.477 0 0 0-3.57-1.245c.009-.172 1.845-.283 3.819.764s2.961 2.635 2.815 2.695z" class="cls-7" transform="translate(-231.009 -117.923)"/>
            <path id="Path_24730" d="M289.908 466.845c-.086.146-1.39-.566-3.15-.858a31.393 31.393 0 0 0-3.253-.129 4.911 4.911 0 0 1 3.33-.412 5.16 5.16 0 0 1 3.073 1.399z" class="cls-7" transform="translate(-228.021 -117.035)"/>
            <path id="Path_24731" d="M289.212 458.411a11.368 11.368 0 0 0-3.253-.944 16.75 16.75 0 0 0-3.356.472c-.069-.146.266-.335.858-.6a5.389 5.389 0 0 1 2.523-.421 5.519 5.519 0 0 1 2.446.772c.57.352.825.669.782.721z" class="cls-7" transform="translate(-226.543 -115.836)"/>
            <path id="Path_24732" d="M285.267 455.242a2.078 2.078 0 0 1 .069-.936 6.394 6.394 0 0 1 1-2.369 2.9 2.9 0 0 1 1.382-1.236 1 1 0 0 1 1.116.343 1.665 1.665 0 0 1 .275 1.159 3.6 3.6 0 0 1-3.484 2.969 4.163 4.163 0 0 1-3.836-2.575 1.476 1.476 0 0 1 .06-1.2.987.987 0 0 1 1.1-.412 3.433 3.433 0 0 1 1.528 1.015 7.218 7.218 0 0 1 1.476 2.094 2.267 2.267 0 0 1 .292.858 11.527 11.527 0 0 0-2.034-2.7 3.347 3.347 0 0 0-1.356-.858.532.532 0 0 0-.6.223.936.936 0 0 0 0 .79 3.708 3.708 0 0 0 3.347 2.223 3.124 3.124 0 0 0 3-2.48 1.245 1.245 0 0 0-.154-.815.558.558 0 0 0-.618-.206 2.643 2.643 0 0 0-1.184 1.03 9.442 9.442 0 0 0-1.379 3.083z" class="cls-7" transform="translate(-225.662 -114.949)"/>
            <path id="Path_24733" d="M216.855 438.715l-.91 20.924s20.958 7.956 21.164 11.844l-40.629-.318.086-32.665z" class="cls-12" transform="translate(-100.528 -113.227)"/>
            <path id="Path_24734" fill="#e0e0e0" d="M234.676 460.994a1.639 1.639 0 0 0-1.159 1.88 1.588 1.588 0 0 0 1.854 1.167 1.716 1.716 0 0 0 1.227-2 1.656 1.656 0 0 0-2.068-1" transform="translate(-131.816 -116.41)"/>
            <path id="Path_24735" d="M196.459 476.016l.137-3.3 38.9 1.536s1.8.807 1.588 2.077z" class="cls-7" transform="translate(-100.508 -118.078)"/>
            <path id="Path_24736" d="M224.125 462.869c0 .2-1 .275-1.983.91s-1.51 1.459-1.716 1.382.12-1.227 1.322-1.965 2.42-.515 2.377-.327z" class="cls-7" transform="translate(-108.048 -116.655)"/>
            <path id="Path_24737" d="M218.153 464.986c0 .189-.858.524-1.5 1.356s-.858 1.716-1.081 1.716-.309-1.133.558-2.154 2.015-1.115 2.023-.918z" class="cls-7" transform="translate(-97.828 -116.97)"/>
            <path id="Path_24738" d="M211 470.436c-.18 0-.446-.953.069-2.043s1.45-1.5 1.536-1.339-.5.747-.91 1.639-.495 1.683-.695 1.743z" class="cls-7" transform="translate(-88.299 -117.27)"/>
            <path id="Path_24739" d="M224.963 457.2c-.077.18-.987-.094-2.111 0s-2 .421-2.1.249.747-.858 2.068-.935 2.246.527 2.143.686z" class="cls-7" transform="translate(-109.212 -115.779)"/>
            <path id="Path_24740" d="M280.608 256.56c-.017 1.3-4.6 172.945-4.6 172.945l-23.379.223-6.943-146.451s-5.948 78.718-5.948 80.418-5.51 66.874-5.51 66.874l-22.589-.206 1.1-156.2 2.841-23.233z" class="cls-7" transform="translate(-157.039 -86.638)"/>
            <path id="Path_24741" d="M249.646 279.01a4.79 4.79 0 0 0 1.021.446c.669.257 1.639.618 2.841 1.038l.223.086v-.249c.137-2.12.3-4.952.446-8.05.163-3.364.275-6.411.335-8.582 0-1.107.043-2 .043-2.618a3.554 3.554 0 0 0-.051-.961 3.812 3.812 0 0 0-.137.953c-.06.618-.129 1.5-.206 2.575-.146 2.2-.318 5.244-.481 8.582-.146 3.1-.257 5.939-.318 8.059l.24-.172c-1.21-.378-2.2-.687-2.884-.858a4.759 4.759 0 0 0-1.073-.249z" class="cls-12" transform="translate(-163.616 -87.941)"/>
            <path id="Path_24742" d="M254.188 260.726a.629.629 0 0 0-.326-.232 1.51 1.51 0 0 0-1.116.1 1.485 1.485 0 0 0-.858 1.45 1.716 1.716 0 0 0 1.339 1.553 1.794 1.794 0 0 0 1.854-.858 1.717 1.717 0 0 0-.858-2.395c-.249-.094-.395-.077-.4-.051a1.981 1.981 0 0 1 .918.944 1.3 1.3 0 0 1-.06 1.27 1.373 1.373 0 0 1-1.365.627 1.33 1.33 0 0 1-.978-1.107 1.116 1.116 0 0 1 .558-1.1 1.914 1.914 0 0 1 1.292-.201z" class="cls-12" transform="translate(-166.253 -87.963)"/>
            <path id="Path_24743" d="M266.159 262.343c.137 0 .326-.755.421-1.716s.069-1.716-.069-1.716-.326.747-.421 1.716-.068 1.699.069 1.716z" class="cls-12" transform="translate(-189.75 -87.769)"/>
            <path id="Path_24744" d="M268.56 262.1c.137 0 .249-.815.257-1.811s-.1-1.819-.24-1.819-.249.807-.257 1.811.103 1.819.24 1.819z" class="cls-12" transform="translate(-193.893 -87.707)"/>
            <path id="Path_24745" d="M232.7 263.427a4.437 4.437 0 0 0 .472-2.034 4.558 4.558 0 0 0 0-2.1 8.926 8.926 0 0 0-.455 4.137z" class="cls-12" transform="translate(-127.754 -87.823)"/>
            <path id="Path_24746" d="M235.1 263.6a4.729 4.729 0 0 0 .172-4.291 11.741 11.741 0 0 0-.051 2.163 11.3 11.3 0 0 0-.121 2.128z" class="cls-12" transform="translate(-132.269 -87.826)"/>
            <path id="Path_24747" d="M213.622 261.57a2.575 2.575 0 0 0 .077.781 16.918 16.918 0 0 0 .506 2.06 22.314 22.314 0 0 0 8.016 11.26 16.045 16.045 0 0 0 1.785 1.15 2.789 2.789 0 0 0 .7.335c.043-.069-.91-.635-2.292-1.717a24.752 24.752 0 0 1-7.913-11.157c-.587-1.639-.801-2.729-.879-2.712z" class="cls-12" transform="translate(-102.84 -88.146)"/>
            <path id="Path_24748" d="M273.1 273.639a2.44 2.44 0 0 0 .764.129 11.154 11.154 0 0 0 2.1-.043 13.371 13.371 0 0 0 6.437-2.506 13.226 13.226 0 0 0 4.291-5.416 11.018 11.018 0 0 0 .661-1.991 2.464 2.464 0 0 0 .1-.772c-.077 0-.292 1.064-1.047 2.635a13.732 13.732 0 0 1-10.479 7.724c-1.727.275-2.819.163-2.827.24z" class="cls-12" transform="translate(-216.635 -88.355)"/>
            <path id="Path_24749" d="M220.61 378.424c0 .112 4.188-.858 9.295-2.257s9.218-2.575 9.183-2.678-4.2.858-9.3 2.249-9.212 2.562-9.178 2.686z" class="cls-12" transform="translate(-123.217 -104.01)"/>
            <path id="Path_24750" d="M270.19 371.769c-.06.112 3.562 2.231 8.093 4.738s8.248 4.446 8.308 4.291a85.057 85.057 0 0 0-8.093-4.729 92.327 92.327 0 0 0-8.308-4.3z" class="cls-12" transform="translate(-213.271 -103.767)"/>
            <path id="Path_24751" fill="#a36e6a" d="M267.652 132.98l-10.857-4.257-20-1.133-9.4 3.57 12.882 7.158 11.106-.412z" transform="translate(-157.608 -69.154)"/>
            <path id="Path_24752" d="M263.843 96.734a71.642 71.642 0 0 1-3.09-11.9 25.027 25.027 0 0 1 .97-12.153c.215-.584 2.068-4.5 2.686-4.437.438.043-.7 3.7-.472 4.085a21.146 21.146 0 0 1 2.386 12.307 55.589 55.589 0 0 1-2.463 12.1" class="cls-7" transform="translate(-184.696 -60.741)"/>
            <path id="Path_24753" d="M247.577 120.487c0-2.9-.077-7.235-.06-7.235s9.956-1 10.6-10.865c.309-4.763.154-14.59-.086-23.542A18.426 18.426 0 0 0 240.6 60.993l-.953-.043c-10.3.051-16.006 8.831-15.663 19.122l.532 40.037 6.505 4.291c5.57 6.634 16.53 4.746 16.555-3.914z" class="cls-16" transform="translate(-145.3 -59.708)"/>
            <path id="Path_24754" d="M249.092 121.15a23.859 23.859 0 0 1-12.642-4.48s2.746 7.347 12.642 6.978z" class="cls-17" transform="translate(-146.815 -67.606)"/>
            <path id="Path_24755" d="M232.044 90.016a1.425 1.425 0 0 1-1.442 1.347 1.356 1.356 0 0 1-1.382-1.347 1.425 1.425 0 0 1 1.433-1.356 1.365 1.365 0 0 1 1.39 1.356z" class="cls-7" transform="translate(-123.562 -63.636)"/>
            <path id="Path_24756" d="M232.478 86.161c-.18.172-1.21-.669-2.729-.747s-2.661.618-2.815.429.112-.412.618-.738a3.845 3.845 0 0 1 2.274-.566 3.7 3.7 0 0 1 2.154.858c.429.343.592.686.498.764z" class="cls-7" transform="translate(-122.022 -63.05)"/>
            <path id="Path_24757" d="M248.532 89.627a1.4 1.4 0 0 1-1.433 1.347 1.347 1.347 0 0 1-1.4-1.347 1.408 1.408 0 0 1 1.433-1.347 1.339 1.339 0 0 1 1.4 1.347z" class="cls-7" transform="translate(-154.194 -63.582)"/>
            <path id="Path_24758" d="M249.828 85.96c-.189.172-1.21-.669-2.729-.747s-2.669.618-2.824.429.12-.412.627-.738a3.854 3.854 0 0 1 2.266-.575 3.725 3.725 0 0 1 2.163.858c.445.352.582.695.497.773z" class="cls-7" transform="translate(-154.254 -63.021)"/>
            <path id="Path_24759" d="M234.137 98.043a10.169 10.169 0 0 1 2.48-.318c.395 0 .764-.069.858-.335a1.991 1.991 0 0 0-.215-1.184l-.987-3.012c-1.373-4.291-2.334-7.793-2.163-7.844s1.416 3.373 2.789 7.656c.326 1.056.644 2.06.935 3.021a2.188 2.188 0 0 1 .12 1.528.944.944 0 0 1-.661.532 2.386 2.386 0 0 1-.669.06 9.931 9.931 0 0 1-2.489-.1z" class="cls-7" transform="translate(-133.74 -63.166)"/>
            <path id="Path_24760" d="M250.444 80.066c-.172.4-1.674.129-3.433.257s-3.261.532-3.476.154c-.094-.189.172-.558.772-.927a6.008 6.008 0 0 1 5.287-.318c.618.301.927.645.85.834z" class="cls-7" transform="translate(-154.243 -62.233)"/>
            <path id="Path_24761" d="M232.445 80.172c-.275.343-1.3-.051-2.575-.1s-2.326.154-2.575-.206c-.1-.18.069-.524.549-.858a3.57 3.57 0 0 1 2.1-.506 3.656 3.656 0 0 1 2.034.755c.458.392.595.752.467.915z" class="cls-7" transform="translate(-122.332 -62.194)"/>
            <path id="Path_24762" d="M270.207 91.678c-.163-.086-6.669-2.369-6.814 4.394s6.669 5.5 6.686 5.313.128-9.707.128-9.707z" class="cls-16" transform="translate(-191.051 -64.001)"/>
            <path id="Path_24763" d="M268.842 99.112a1.809 1.809 0 0 1-.326.172 1.167 1.167 0 0 1-.858 0 2.91 2.91 0 0 1-1.3-2.643 3.9 3.9 0 0 1 .369-1.716 1.364 1.364 0 0 1 .9-.858.6.6 0 0 1 .687.343c.086.189.043.318.077.335s.146-.112.1-.395a.8.8 0 0 0-.258-.429.91.91 0 0 0-.652-.18 1.639 1.639 0 0 0-1.262 1.081 3.991 3.991 0 0 0-.455 1.871 3.05 3.05 0 0 0 1.656 2.961 1.279 1.279 0 0 0 1.081-.163c.224-.199.267-.379.241-.379z" class="cls-17" transform="translate(-191.823 -64.355)"/>
            <path id="Path_24764" d="M261.463 67.379c1.1-.584-2.137-4.171-4.815-5.424-4.042-1.888-10.23-3.1-13.989-2.086-4.523 1.227-8.3 3.433-10.608 7.5A26.519 26.519 0 0 0 228.9 80.9a8.042 8.042 0 0 0 .927 4.137c.927 1.511 2.721 2.472 2.575 4.532a2.841 2.841 0 0 0 .678 2.068c1.219 1.33 2.746.12 3.433-1.116 1.519-2.626 1.716-5.785 1.888-8.814a19.963 19.963 0 0 0-.343-6.437c-.318-1.133-.858-2.2-1.09-3.347a4.042 4.042 0 0 1 .515-3.364 4.239 4.239 0 0 1 .558-.549 7.029 7.029 0 0 1 7.059-1.21c3.785 1.39 10.3 3.484 12.015 2.206a10.467 10.467 0 0 0 3.064-3.03z" class="cls-7" transform="translate(-152.912 -59.502)"/>
            <path id="Path_24765" d="M241.668 105.377c.043.112-.249.352-.858.481a4.025 4.025 0 0 1-4.025-1.588c-.326-.489-.378-.858-.266-.91a17.394 17.394 0 0 0 2.394 1.425c1.399.566 2.678.343 2.755.592z" class="cls-7" transform="translate(-139.408 -65.719)"/>
            <path id="Path_24766" d="M332.145 181.349s-7.561 24.151-10.059 25.816-10.548 9.3-27.069 6.943l-5.69-.275-1.527-10.694s6.866-1.39 8.883-1.94c2.678-.738 9.9-3.648 14.547-8.248 0 0 4.205-19.8 5.149-21.6l15.3 4.652z" class="cls-16" transform="translate(-273.939 -75.357)"/>
            <path id="Path_24767" d="M346.089 210.461s-2.257-4.772-5.922-6.265-8.437-1.09-10.2-2.111-6.729-2.034-7.2-.335 2.652 2.841 5.845 3.9 4.489 1.536 4.214 2.9-4.214 4.077-5.373 4.42-4.72.807-4.737 2.437 1.073 1.433 2.909 1.433a42.425 42.425 0 0 0 5.639-.747s.953.223.472.755-2.652 2.506-1.356 3.871a3.819 3.819 0 0 0 3.193 1.021l2.575-.481s1.433 2.515 2.575 1.493.343.249.343.249 1.287 2.266 2.652 2.137 6.282-2.945 6.282-2.945l2.952-3.725z" class="cls-16" transform="translate(-322.71 -79.537)"/>
            <path id="Path_24768" d="M341.966 221.831c.051 0 .386-.4 1.081-1.021a4.686 4.686 0 0 0 1.03-1.27 2.326 2.326 0 0 0 .283-1 1.639 1.639 0 0 0-.343-1.116 2 2 0 0 0-2.034-.6 3.167 3.167 0 0 0-1.459.858 3.433 3.433 0 0 0-.858 1.253c.06.051.412-.421 1.081-1.03a3.133 3.133 0 0 1 1.33-.712 1.6 1.6 0 0 1 1.588.481 1.562 1.562 0 0 1 .043 1.648 5 5 0 0 1-.927 1.253c-.6.681-.881 1.231-.815 1.256z" class="cls-17" transform="translate(-330.672 -81.794)"/>
            <path id="Path_24769" d="M334.556 222.619a3.837 3.837 0 0 0 .592-.764c.352-.515.858-1.262 1.425-2.214a22.672 22.672 0 0 0 1.716-3.51 7.415 7.415 0 0 0 .575-2.3 1.716 1.716 0 0 0-.532-1.253 1.476 1.476 0 0 0-1.4-.232 3.433 3.433 0 0 0-1.777 1.854l-1.133 2-1.9 3.433a6.566 6.566 0 0 0-1.013 2.446 1.622 1.622 0 0 0 .069.73c.051.163.1.232.12.223a2.833 2.833 0 0 1 0-.927 7.328 7.328 0 0 1 1.116-2.317l1.983-3.347 1.116-2.025c.386-.678.807-1.425 1.528-1.639a1.013 1.013 0 0 1 1.047.12 1.27 1.27 0 0 1 .386.918 7.208 7.208 0 0 1-.524 2.146 26.137 26.137 0 0 1-1.622 3.5c-1.103 1.957-1.828 3.116-1.772 3.158z" class="cls-17" transform="translate(-317.82 -81.157)"/>
            <path id="Path_24770" d="M330.891 224.961a4.19 4.19 0 0 0 .489-.781c.292-.515.7-1.27 1.184-2.206s1.073-2.043 1.717-3.3a4.7 4.7 0 0 0 .566-2.206 2.128 2.128 0 0 0-.421-1.2 1.262 1.262 0 0 0-1.262-.515 1.948 1.948 0 0 0-1.064.79c-.24.326-.455.635-.669.953-.438.627-.858 1.236-1.219 1.828-.764 1.176-1.416 2.249-1.957 3.158s-.97 1.648-1.253 2.163a3.861 3.861 0 0 0-.4.858 3.759 3.759 0 0 0 .558-.738l1.339-2.12 2.034-3.1 1.236-1.8c.446-.584.858-1.39 1.468-1.553a.807.807 0 0 1 .815.352 1.648 1.648 0 0 1 .335.953 4.377 4.377 0 0 1-.506 2l-1.613 3.339c-.455.953-.858 1.716-1.056 2.266a3.811 3.811 0 0 0-.318.858z" class="cls-17" transform="translate(-309.941 -81.507)"/>
            <path id="Path_24771" d="M349.015 202.72c-.129 0-.094.566-.352 1.141s-.669.935-.6 1.047.7-.129 1.013-.858.05-1.382-.061-1.33z" class="cls-17" transform="translate(-342.732 -79.804)"/>
            <path id="Path_24772" d="M303.34 196.877c0 .069.6.146 1.468.558a7.93 7.93 0 0 1 2.832 2.352 14.291 14.291 0 0 1 1.785 3.3 6.864 6.864 0 0 0 .644 1.45 4.977 4.977 0 0 0-.343-1.562 11.579 11.579 0 0 0-1.717-3.433 7.175 7.175 0 0 0-3.064-2.369 2.867 2.867 0 0 0-1.605-.296z" class="cls-17" transform="translate(-265.2 -78.973)"/>
            <path id="Path_24773" d="M187.467 181.59l.421 19.508s7.467 3.974 9.389 4.214 12.874-1.141 12.874-1.141l-.566 11.861s-17.345 4.214-22.769 4.334-7.81-.12-8.78-1.322-4.557-2.746-5.476-8.179 1.811-29.275 1.811-29.275z" class="cls-16" transform="translate(-52.877 -76.809)"/>
            <path id="Path_24774" d="M199.68 213.547a15.62 15.62 0 0 1 8.522-8.8 5.012 5.012 0 0 0-1.785.575 12.7 12.7 0 0 0-6.214 6.411 4.934 4.934 0 0 0-.524 1.811z" class="cls-17" transform="translate(-74.368 -80.092)"/>
            <path id="Path_24775" d="M151.626 207.641s2.257-4.772 5.922-6.265 8.437-1.09 10.2-2.111 6.729-2.034 7.2-.335-2.652 2.841-5.845 3.9-4.489 1.536-4.214 2.9 4.214 4.077 5.373 4.42 4.712.807 4.738 2.446-1.073 1.425-2.909 1.425a42.42 42.42 0 0 1-5.639-.747s-.953.223-.472.755 2.643 2.506 1.356 3.871a3.828 3.828 0 0 1-3.193 1.021l-2.575-.481s-1.433 2.515-2.575 1.493-.343.249-.343.249-1.287 2.274-2.652 2.137-6.291-2.944-6.291-2.944l-2.952-3.725z" class="cls-16" transform="translate(4.248 -79.138)"/>
            <path id="Path_24776" d="M159.7 219.013c.069 0-.215-.566-.858-1.244a5 5 0 0 1-.927-1.253 1.545 1.545 0 0 1 .043-1.648 1.6 1.6 0 0 1 1.588-.481 3.055 3.055 0 0 1 1.33.721c.669.6 1.021 1.073 1.081 1.021a3.433 3.433 0 0 0-.858-1.253 3.167 3.167 0 0 0-1.459-.858 2 2 0 0 0-2.034.6 1.639 1.639 0 0 0-.343 1.116 2.326 2.326 0 0 0 .283 1 4.686 4.686 0 0 0 1.073 1.3c.696.575.988 1.005 1.081.979z" class="cls-17" transform="translate(8.283 -81.395)"/>
            <path id="Path_24777" d="M166.542 219.8c.06 0-.669-1.2-1.716-3.133a26.141 26.141 0 0 1-1.622-3.5 6.952 6.952 0 0 1-.524-2.146 1.27 1.27 0 0 1 .386-.918 1.013 1.013 0 0 1 .97-.146c.721.215 1.141.961 1.528 1.639l1.159 1.991 1.983 3.347a7.329 7.329 0 0 1 1.116 2.317 2.832 2.832 0 0 1 0 .927.514.514 0 0 0 .12-.223 1.622 1.622 0 0 0 .069-.73 6.72 6.72 0 0 0-1.011-2.447l-1.9-3.433-1.219-1.965a3.433 3.433 0 0 0-1.777-1.854 1.476 1.476 0 0 0-1.4.232 1.717 1.717 0 0 0-.532 1.253 7.185 7.185 0 0 0 .575 2.3 22.314 22.314 0 0 0 1.716 3.51c.566.953 1.073 1.716 1.425 2.214a3.835 3.835 0 0 0 .654.765z" class="cls-17" transform="translate(-3.999 -80.757)"/>
            <path id="Path_24778" d="M170.078 222.141a3.811 3.811 0 0 0-.335-.858c-.24-.541-.6-1.313-1.056-2.266l-1.622-3.339a4.369 4.369 0 0 1-.5-2 1.648 1.648 0 0 1 .335-.953.807.807 0 0 1 .858-.352c.627.163 1.021.97 1.468 1.553l1.236 1.8 1.991 3.124 1.365 2.094a3.759 3.759 0 0 0 .558.738 3.864 3.864 0 0 0-.4-.858c-.292-.515-.712-1.253-1.253-2.163s-1.193-1.983-1.957-3.158c-.378-.584-.781-1.2-1.219-1.828-.215-.318-.429-.626-.669-.953a1.948 1.948 0 0 0-1.064-.79 1.279 1.279 0 0 0-1.262.515 2.129 2.129 0 0 0-.421 1.2 4.7 4.7 0 0 0 .566 2.206c.627 1.253 1.219 2.36 1.716 3.3s.858 1.716 1.184 2.206a4.188 4.188 0 0 0 .481.781z" class="cls-17" transform="translate(-11.749 -81.108)"/>
            <path id="Path_24779" d="M153.148 199.9c-.112-.051-.378.592-.06 1.322s.978.978 1.013.858-.352-.455-.6-1.038-.224-1.117-.353-1.142z" class="cls-17" transform="translate(19.848 -79.404)"/>
            <path id="Path_24780" d="M175.282 219.829a8.444 8.444 0 0 1-.978-1.588 5.364 5.364 0 0 1-.36-1.948 6.455 6.455 0 0 1 .5-2.377 13.182 13.182 0 0 1 2.523-3.725 9.794 9.794 0 0 0 1.236-1.45 7.037 7.037 0 0 0-1.468 1.236 11.415 11.415 0 0 0-2.7 3.776 6.385 6.385 0 0 0-.5 2.575 5.029 5.029 0 0 0 .489 2.068 2.858 2.858 0 0 0 1.262 1.433z" class="cls-17" transform="translate(-21.922 -80.658)"/>
            <path id="Path_24781" d="M196.68 163.984s9.93-28.751 13.646-30.193c0 0 16.255-3.639 24.323-6.231 0 0 1.454-4.442 2.58-3.6.75.564 1.315 6.474 3.521 7.406 2.292.972 12.459 6.325 12.459 6.325l6.9-10.974 3 3.98 1.024.393 13.343 5.117s10.213 3.665 12.015 8.179 4.849 29.524 4.849 29.524h-14.891l.275 44.388 2.789 22.314c-1.03.18-67.75-.7-67.75-.7l.275-58.112-.275-12.307z" class="cls-8" transform="translate(-157.93 -69.15)"/>
            <path id="Path_24782" d="M213.123 154.87a1.391 1.391 0 0 0-.112.4c-.077.309-.163.7-.275 1.2a39.061 39.061 0 0 1-1.373 4.394c-.687 1.845-1.656 4.017-2.841 6.454a76.446 76.446 0 0 0-3.193 8.437c0 3.708.051 7.767.077 12.015.1 9.441.189 18.023.257 24.3.051 3.073.094 5.579.129 7.364a18.494 18.494 0 0 0 .06 2 6.327 6.327 0 0 0 .043.7 3.37 3.37 0 0 0 0-.7v-9.372c0-6.257-.077-14.822-.129-24.288-.043-4.24-.077-8.3-.112-12.015v.069c1.038-3.09 2.034-6.008 3.124-8.428s2.1-4.643 2.755-6.514a32.485 32.485 0 0 0 1.262-4.454c.1-.524.18-.936.215-1.21a3.045 3.045 0 0 0 .113-.352z" class="cls-7" transform="translate(-84.138 -73.021)"/>
            <path id="Path_24783" d="M289.093 146.42a7.84 7.84 0 0 0 0 1.322c0 .936.077 2.146.129 3.6.129 3.115.292 7.269.472 11.861s.395 8.746.532 11.861c.086 1.459.154 2.661.215 3.6a7.792 7.792 0 0 0 .129 1.313 7.268 7.268 0 0 0 .043-1.322c0-.927-.043-2.137-.069-3.6-.077-3.038-.215-7.235-.4-11.87s-.4-8.823-.6-11.861c-.094-1.511-.189-2.738-.275-3.587a6.482 6.482 0 0 0-.172-1.313z" class="cls-7" transform="translate(-233.505 -71.823)"/>
            <g id="Group_10146" class="cls-18" transform="translate(121.802 84.097)">
                <path id="Path_24784" d="M212.561 157.49a25.9 25.9 0 0 1-6.763 18.461c1.402-6.403 4.892-12.351 6.763-18.461z" transform="translate(-205.798 -157.49)"/>
            </g>
            <g id="Group_10147" class="cls-18" transform="translate(81.241 120.127)">
                <path id="Path_24804" d="M258.14 224.737a12.893 12.893 0 0 1-8.265-4.6 39.153 39.153 0 0 1-5.544-8.033 31.756 31.756 0 0 1-3.261-12.633c4.017 10.753 9.896 19.258 17.07 25.266z" transform="translate(-241.07 -199.47)"/>
            </g>
            <path id="Path_24805" d="M237.591 194a1.133 1.133 0 0 0 .051.395c.069.309.155.678.249 1.124s.257 1.073.463 1.716.421 1.45.73 2.292a54.162 54.162 0 0 0 2.369 5.776 61.409 61.409 0 0 0 3.793 6.66 58.777 58.777 0 0 0 4.669 6.068 50.632 50.632 0 0 0 4.437 4.411c.661.6 1.3 1.09 1.854 1.528s1.038.807 1.45 1.09l.9.7a1.881 1.881 0 0 0 .352.2 3.962 3.962 0 0 0-.292-.275l-.9-.712c-.395-.292-.858-.669-1.4-1.133s-1.159-.961-1.794-1.579a55.5 55.5 0 0 1-4.343-4.437 65.453 65.453 0 0 1-4.609-6.008 63.6 63.6 0 0 1-3.785-6.591 57.035 57.035 0 0 1-2.455-5.707c-.326-.858-.558-1.588-.781-2.257s-.4-1.244-.532-1.716-.24-.79-.326-1.09a2.388 2.388 0 0 0-.1-.446z" class="cls-7" transform="translate(-157.612 -78.568)"/>
            <path id="Path_24818" d="M222.87 171.42a2.929 2.929 0 0 0 .077.635c.077.455.18 1.047.318 1.794s.318 1.716.592 2.832.541 2.352.961 3.7c.206.687.412 1.4.635 2.137s.506 1.5.781 2.292c.515 1.588 1.21 3.227 1.914 4.969a91.442 91.442 0 0 0 5.579 10.848 90.391 90.391 0 0 0 7.123 9.913c1.236 1.416 2.386 2.789 3.562 3.974.584.592 1.124 1.193 1.716 1.717l1.614 1.528c1.013 1 2.008 1.8 2.858 2.575a28.078 28.078 0 0 0 2.249 1.819c.635.472 1.09.858 1.459 1.1a2.988 2.988 0 0 0 .524.36 4.559 4.559 0 0 0-.472-.429l-1.4-1.159c-.618-.5-1.365-1.116-2.2-1.88s-1.811-1.571-2.806-2.575l-1.588-1.553c-.549-.541-1.081-1.141-1.656-1.716-1.159-1.193-2.292-2.575-3.51-3.974a85.823 85.823 0 0 1-12.642-20.667c-.712-1.716-1.416-3.356-1.948-4.935-.275-.781-.566-1.528-.8-2.266s-.446-1.442-.652-2.12c-.446-1.339-.73-2.575-1.021-3.673s-.515-2.025-.669-2.806-.3-1.33-.4-1.777a5.234 5.234 0 0 0-.198-.663z" class="cls-7" transform="translate(-140.899 -75.367)"/>
            <path id="Path_24819" d="M439.363 266.667a49.882 49.882 0 0 0 1.3 5.763 26.87 26.87 0 0 0 2.9 6.615 20.277 20.277 0 0 0 2.413 3.094l.093.1.088-.116a12.253 12.253 0 0 1 4.4-3.646 11.68 11.68 0 0 1 2.316-.852 10.248 10.248 0 0 1 2.108-.283 8.7 8.7 0 0 1 3 .422c.672.236 1.028.412 1.038.389a1.666 1.666 0 0 0-.255-.134 6.285 6.285 0 0 0-.755-.334 8.413 8.413 0 0 0-3.034-.5 10.234 10.234 0 0 0-2.149.259 11.808 11.808 0 0 0-2.362.843 12.345 12.345 0 0 0-4.496 3.713h.181a20.6 20.6 0 0 1-2.381-3.057 27.292 27.292 0 0 1-2.9-6.55 54.349 54.349 0 0 1-1.343-5.726c-.025-.108-.112-.138-.162 0z" class="cls-7" transform="translate(-362.892 -208.217)"/>
            <path id="Path_24820" d="M414.87 283.051a1.065 1.065 0 0 0 .255 0 5.642 5.642 0 0 0 .727-.12 9.028 9.028 0 0 0 2.488-1.065 5.457 5.457 0 0 1 1.691-.7 4.98 4.98 0 0 1 2.094 0 4.9 4.9 0 0 1 3.5 3.043l.25.676V283.6c-.056-3.65-.175-6.525-.323-8.929l-.171.009c.107 2.39.193 5.27.253 8.925v.57l.232-.046a5.1 5.1 0 0 0-3.678-3.173 5.2 5.2 0 0 0-3.91.774 9.786 9.786 0 0 1-2.427 1.121c-.629.149-.986.177-.981.2z" class="cls-7" transform="translate(-320.197 -213.112)"/>
            <path id="Path_24821" d="M425.687 297.066c-.273.695-.551 1.39-.825 2.089a.843.843 0 0 1-.4.523c-.412.158-.741-.347-.926-.746a5.35 5.35 0 0 0-4.109-2.886c-1.39-.162-2.853.246-4.239-.042a18.779 18.779 0 0 1 3.826-1.9 6.346 6.346 0 0 1 4.2-.042 3.877 3.877 0 0 1 2.534 3.164" class="cls-19" transform="translate(-320.225 -225.63)"/>
            <path id="Path_24822" d="M458.607 285.153a22.57 22.57 0 0 0-4.906.463 7.652 7.652 0 0 0-4.2 2.418 12.492 12.492 0 0 0-1.992 4.864c-.088.329-.246.718-.579.755a.825.825 0 0 1-.556-.218 16.161 16.161 0 0 1-5.605-8.445 36.965 36.965 0 0 1-1.289-10.19c1.325 2.367 1.9 5.063 2.779 7.629s2.163 5.151 4.433 6.633a2.214 2.214 0 0 1 .519-1.626 4.856 4.856 0 0 1 1.348-1.1 12.878 12.878 0 0 1 10.311-1.265" class="cls-19" transform="translate(-363.135 -215.474)"/>
        </g>
    </g>
</svg>
