<svg xmlns="http://www.w3.org/2000/svg" xmlns:xlink="http://www.w3.org/1999/xlink" width="227.744" height="142.83" viewBox="0 0 227.744 142.83">
    <defs>
        <linearGradient id="linear-gradient" x1="-.03" x2="1.161" y1=".695" y2=".685" gradientUnits="objectBoundingBox">
            <stop offset="0" stop-color="#3db2d9"/>
            <stop offset=".251" stop-color="#38b0d8"/>
            <stop offset=".512" stop-color="#2cacd5"/>
            <stop offset=".775" stop-color="#17a5d1"/>
            <stop offset="1" stop-color="#009dcc"/>
        </linearGradient>
        <linearGradient id="linear-gradient-2" x1=".434" x2=".481" y1=".266" y2="1.585" gradientUnits="objectBoundingBox">
            <stop offset="0" stop-color="#1fa1c2"/>
            <stop offset=".6" stop-color="#198aae"/>
            <stop offset="1" stop-color="#1782a6"/>
        </linearGradient>
        <linearGradient id="linear-gradient-3" x1="-.135" x2=".865" y1="1.704" y2="1.704" gradientUnits="objectBoundingBox">
            <stop offset="0" stop-color="#dadada"/>
            <stop offset=".552" stop-color="#d1d1d1"/>
            <stop offset="1" stop-color="#c6c6c6"/>
        </linearGradient>
        <linearGradient id="linear-gradient-4" x1="-.135" x2=".865" y1="1.733" y2="1.733" xlink:href="#linear-gradient-3"/>
        <linearGradient id="linear-gradient-5" x1="-.041" x2=".959" y1="1.175" y2="1.175" gradientUnits="objectBoundingBox">
            <stop offset="0" stop-color="#2e668f"/>
            <stop offset=".362" stop-color="#244d73"/>
            <stop offset=".757" stop-color="#1c375a"/>
            <stop offset="1" stop-color="#1a3052"/>
        </linearGradient>
        <linearGradient id="linear-gradient-6" x1=".216" x2=".646" y1=".365" y2="2.413" gradientUnits="objectBoundingBox">
            <stop offset="0" stop-color="#cceaff"/>
            <stop offset="1" stop-color="#357b97"/>
        </linearGradient>
        <style>
            .cls-2{fill:#1d1d1b}.cls-3{fill:#7cc4f9}.cls-6{fill:#3c3c3b}.cls-7{fill:#fff}.cls-8{fill:#223a61}.cls-9{fill:#c6c6c6}
        </style>
    </defs>
    <g id="Group_10787" transform="translate(15.452 -.097)">
        <ellipse id="Ellipse_1510" cx="113.872" cy="3.523" fill="#ccc3c3" rx="113.872" ry="3.523" transform="translate(-15.452 135.88)"/>
        <path id="Rectangle_15419" d="M0 0h24.139v21.715a5.147 5.147 0 0 1-5.147 5.147H5.147A5.147 5.147 0 0 1 0 21.715V0z" class="cls-2" transform="translate(4.571 111.585)"/>
        <path id="Rectangle_15420" d="M5.147 0h13.845a5.147 5.147 0 0 1 5.147 5.147v21.716H0V5.147A5.147 5.147 0 0 1 5.147 0z" class="cls-2" transform="rotate(-180 95.839 69.462)"/>
        <path id="Rectangle_15421" d="M0 0H186.899V10.857H0z" class="cls-2" transform="rotate(-179.707 95.864 61.454)"/>
        <path id="Path_26544" d="M595.534 531.248c.119-1.4-3.565-1.149-4.769-1.134a36.152 36.152 0 0 0-.914-6.823c-.241-.976-.5-1.69-1.556-1.8a20.124 20.124 0 0 0-3.583-.006 32.641 32.641 0 0 0-11.2 2.594c-1.33.615-3.731 2.685-3.816 4.218-.087 1.567.813 2.944 1.729 4.3.616.91 1.32.936 2.342 1.13 5.428 1.032 12.33 2.222 19.178 3.047.985.119 1.467-.006 1.7-.811a26 26 0 0 0 .889-4.715z" class="cls-3" transform="translate(-570.919 -495.306)"/>
        <path id="Path_26545" d="M814.8 537.071c.225.807.706.937 1.692.829 6.857-.755 13.77-1.874 19.209-2.851 1.025-.184 1.728-.2 2.354-1.106.931-1.344 1.844-2.712 1.773-4.28-.069-1.534-2.448-3.629-3.772-4.257a32.647 32.647 0 0 0-11.168-2.708 20.19 20.19 0 0 0-3.583-.031c-1.056.1-1.323.809-1.573 1.782a36.08 36.08 0 0 0-.983 6.813c-1.2-.028-4.885-.313-4.781 1.085a25.928 25.928 0 0 0 .832 4.724z" class="cls-3" transform="translate(-641.763 -495.652)"/>
        <path id="Path_26546" fill="url(#linear-gradient)" d="M764 549.978c-.415-5.445-2.283-6.922-4.241-9.369-2.234-2.792-3.148-4.734-4.963-7.125-1.646-2.168-3.263-3.648-5.03-5.6a7.485 7.485 0 0 1-1.623-3.646c-.361-2-4.415-11.394-8.467-18.947a77 77 0 0 0-8.941-13.18c-3.31-3.567-5.681-4.235-8.866-4.616a441.325 441.325 0 0 0-50.424-2.7 441.292 441.292 0 0 0-50.445 2.18c-3.189.349-5.567.993-8.913 4.525a77.009 77.009 0 0 0-9.075 13.088c-4.129 7.51-8.279 16.864-8.66 18.859a7.5 7.5 0 0 1-1.661 3.63c-1.787 1.935-3.419 3.4-5.087 5.55-1.84 2.373-2.773 4.305-5.036 7.074-1.983 2.427-3.866 3.885-4.337 9.326-.3 3.479-1.9 21.379-1.863 28.73.032 7.1.322 16.439 1.627 23.186.461 2.384.3 2.471 3.847 2.49 3.772.019 17.587.258 21.166.282 7.063.048 8.8.068 11.836-.977 3.269-1.127 5.663-2.224 8.893-3.35 3.169-1.105 7.23-.777 10.8-.758 7.573.038 23.811.623 36.324.688s28.756-.356 36.328-.317c3.573.018 7.636-.269 10.794.869 3.218 1.159 5.6 2.281 8.859 3.441 3.02 1.076 4.761 1.073 11.825 1.1 3.578.012 17.395-.085 21.167-.066 3.549.018 3.387-.071 3.873-2.45 1.374-6.733 1.759-16.07 1.864-23.168.106-7.351-1.305-25.267-1.571-28.749z" transform="translate(-572.853 -484.681)"/>
        <path id="Path_26547" fill="url(#linear-gradient-2)" d="M763.318 622.319c-1.1-2.934-1.933-5.727-3.032-8.668-.844-2.269-2.461-5.756-3.568-7.947-1.47-2.907-5.236-2.7-8.188-2.667-3.238.031-11.382.355-14.579.413-2.929.053-6.566-.078-7.568-3.788l-55.187-.282-55.187-.282c-1.04 3.7-4.679 3.793-7.607 3.71-3.2-.09-11.336-.5-14.574-.562-2.952-.058-6.716-.308-8.215 2.584-1.13 2.179-2.782 5.648-3.65 7.909-1.13 2.93-1.987 5.714-3.12 8.637a5.359 5.359 0 0 1-1.9 2.4 87.015 87.015 0 0 0 1.222 10.322c.46 2.381.3 2.469 3.846 2.487 3.773.019 17.589.26 21.167.282 7.064.05 8.8.07 11.837-.976 3.268-1.126 5.663-2.225 8.892-3.352 3.169-1.1 7.228-.776 10.8-.757 7.572.039 23.81.626 36.323.69 12.513.064 28.756-.357 36.328-.318 3.575.018 7.637-.266 10.794.868 3.218 1.16 5.6 2.283 8.857 3.443 3.022 1.077 4.762 1.075 11.827 1.1 3.578.015 17.395-.085 21.168-.065 3.55.018 3.387-.071 3.871-2.447a86.883 86.883 0 0 0 1.327-10.309 5.354 5.354 0 0 1-1.884-2.425z" transform="translate(-573.019 -517.838)"/>
        <path id="Path_26548" d="M614.2 630.828c-3.987-1.13-14.6-3.667-16.367-4.21-1.505-.464-3.632-1.116-4.776-2.273-2.37-2.4-.812-5.581.074-8.258.6-1.817 3.551-10.124 3.732-10.789.229-.843-1.5-.721-3.606-.64-1.256.048-3.072.161-3.924.838a9.693 9.693 0 0 0-2.442 3.668c-.886 1.908-2.018 4.482-2.808 6.364-1.46 3.479-2.109 6.126-.125 9.478 1.7 2.878 5.129 3.564 8.16 4.265 4.118.952 8.29 1.587 12.434 2.378a37.774 37.774 0 0 0 6.466.818 6.671 6.671 0 0 0 3.019-.537c.792-.462 1.018-.861.163-1.102z" class="cls-6" transform="translate(-574.695 -519.434)"/>
        <path id="Path_26549" d="M590.614 626a3 3 0 1 1-2.987-3.018 3 3 0 0 1 2.987 3.018z" class="cls-7" transform="translate(-575.244 -524.765)"/>
        <path id="Path_26550" d="M791.827 632.856a6.673 6.673 0 0 0 3.014.567 37.782 37.782 0 0 0 6.474-.752c4.153-.749 8.331-1.341 12.458-2.251 3.039-.67 6.469-1.321 8.2-4.182 2.019-3.33 1.4-5.985-.028-9.478-.77-1.891-1.876-4.477-2.743-6.393a9.7 9.7 0 0 0-2.4-3.693c-.845-.685-2.659-.816-3.915-.878-2.1-.1-3.833-.242-3.612.6.174.666 3.038 9 3.621 10.826.859 2.685 2.383 5.886-.011 8.258-1.156 1.144-3.289 1.775-4.8 2.223-1.769.525-12.409 2.954-16.409 4.043-.853.238-.632.638.151 1.11z" class="cls-6" transform="translate(-635.142 -519.758)"/>
        <path id="Path_26551" d="M826.043 627.2a3 3 0 1 0 3.018-2.987 3 3 0 0 0-3.018 2.987z" class="cls-7" transform="translate(-645.268 -525.123)"/>
        <path id="Path_26552" d="M756.058 632.915c-.21-.665-28.782 3.719-78.689 3.464s-78.432-4.931-78.65-4.268c-.6 1.831 26.771 7.976 78.63 8.241 51.859.266 79.292-5.6 78.709-7.437z" class="cls-3" transform="translate(-579.334 -527.394)"/>
        <g id="Group_10786" transform="translate(5.359 37.599)">
            <g id="Group_10780" transform="translate(92.569 22.688)">
                <path id="Path_26553" d="M765.228 575.341a.358.358 0 0 1-.232-.087 8.346 8.346 0 0 0-4-1.788c-2.52-.524-5.2-1.055-7.767-1.394-2.261-.3-7.372-.731-11.683-.906-5.367-.219-22.737-.853-31.843-.9a.355.355 0 0 1 0-.71c9.118.047 26.5.681 31.869.9 4.331.176 9.47.61 11.747.911 2.586.342 5.286.876 7.818 1.4a9.146 9.146 0 0 1 4.322 1.948.355.355 0 0 1-.236.623z" class="cls-8" transform="translate(-709.351 -569.556)"/>
            </g>
            <g id="Group_10781" transform="translate(148.865 43.37)">
                <path id="Path_26554" d="M823.563 626.432a.345.345 0 0 1-.143-.031.355.355 0 0 1-.178-.469 15.6 15.6 0 0 0 1.176-3.774 7.89 7.89 0 0 0-.163-2.929c-.734-3.084-2.1-8.825-4.837-13.7-.1-.177-.195-.362-.29-.55-.735-1.436-1.5-2.919-5.519-2.94h-.065c-4.765 0-8.719.19-12.906.4-1.526.075-3.073.151-4.687.219a11.863 11.863 0 0 1-5.053-.772 5.021 5.021 0 0 1-2.1-2.467l-.109-.212a.355.355 0 0 1 .63-.327l.111.214a4.388 4.388 0 0 0 1.8 2.16 11.326 11.326 0 0 0 4.7.694c1.611-.067 3.157-.143 4.681-.219 4.2-.207 8.16-.4 12.943-.4h.065c4.458.023 5.4 1.853 6.15 3.326.092.18.182.356.278.526a53.352 53.352 0 0 1 4.909 13.88 8.65 8.65 0 0 1 .178 3.171 16.166 16.166 0 0 1-1.234 3.987.355.355 0 0 1-.337.213z" class="cls-8" transform="translate(-788.645 -598.686)"/>
            </g>
            <g id="Group_10782" transform="translate(0 42.793)">
                <path id="Path_26555" d="M580.544 625.264a.355.355 0 0 1-.324-.212 16.153 16.153 0 0 1-1.193-4 8.657 8.657 0 0 1 .211-3.169 53.332 53.332 0 0 1 5.051-13.829c.1-.168.189-.344.283-.523.77-1.464 1.727-3.286 6.184-3.263h.065c4.782.043 8.744.279 12.938.529 1.524.091 3.068.182 4.679.266a11.328 11.328 0 0 0 4.7-.646 4.386 4.386 0 0 0 1.819-2.14l.113-.214a.355.355 0 1 1 .627.333l-.111.211a5.017 5.017 0 0 1-2.127 2.444 11.814 11.814 0 0 1-5.061.721c-1.613-.084-3.159-.176-4.685-.267-4.184-.249-8.137-.484-12.9-.528h-.065c-4.023-.021-4.8 1.455-5.548 2.883-.1.188-.195.371-.3.547-2.786 4.843-4.211 10.569-4.976 13.646a7.856 7.856 0 0 0-.193 2.926 15.4 15.4 0 0 0 1.137 3.786.354.354 0 0 1-.183.467.345.345 0 0 1-.141.032z" class="cls-8" transform="translate(-578.967 -597.874)"/>
            </g>
            <g id="Group_10783" transform="translate(132.057 .785)">
                <path id="Path_26556" d="M765.324 570.021a.362.362 0 0 1-.144-.031.356.356 0 0 1-.177-.47c1.119-2.467 3.972-5.68 7.629-8.594 1.964-1.565 7.088-5.308 12.511-9.271 6.537-4.777 13.945-10.191 17.3-12.871a.355.355 0 0 1 .443.555c-3.37 2.69-10.784 8.108-17.327 12.889-5.418 3.959-10.534 7.7-12.488 9.255-3.575 2.847-6.35 5.962-7.425 8.331a.355.355 0 0 1-.322.207z" class="cls-8" transform="translate(-764.971 -538.705)"/>
            </g>
            <g id="Group_10784" transform="translate(15.967)">
                <path id="Path_26557" d="M638.835 569.3a.355.355 0 0 1-.323-.212c-1.05-2.38-3.794-5.522-7.339-8.407-1.938-1.576-7.015-5.367-12.391-9.38-6.493-4.848-13.854-10.343-17.2-13.068a.355.355 0 1 1 .449-.55c3.33 2.715 10.684 8.205 17.172 13.049 5.382 4.018 10.465 7.813 12.414 9.4 3.628 2.952 6.447 6.193 7.541 8.672a.355.355 0 0 1-.181.468.365.365 0 0 1-.142.028z" class="cls-8" transform="translate(-601.456 -537.6)"/>
            </g>
            <g id="Group_10785" transform="translate(36.995 22.684)">
                <path id="Path_26558" d="M631.429 574.771a.355.355 0 0 1-.229-.625 9.133 9.133 0 0 1 4.341-1.9c2.537-.5 5.243-1.007 7.832-1.323 2.28-.278 7.423-.659 11.756-.791 5.372-.163 22.759-.621 31.876-.574a.355.355 0 1 1 0 .71c-9.106-.047-26.482.41-31.851.574-4.313.131-9.428.51-11.692.786-2.566.313-5.257.816-7.781 1.315a8.342 8.342 0 0 0-4.017 1.747.358.358 0 0 1-.235.081z" class="cls-8" transform="translate(-631.075 -569.551)"/>
            </g>
        </g>
        <path id="Path_26559" d="M742.933 592.9c-.674-2.539-3.71-4.353-6.026-5.916-1.765-1.192-3.713-2.43-5.617-3.543a10.241 10.241 0 0 0-2.794-1.3 24.861 24.861 0 0 0-4.115.042c-4.348.128-7.94.205-12.29.278s-8.7.116-13.048.132c-2.209.008-8.54-.025-12.322-.044s-10.114-.051-12.321-.082q-6.525-.091-13.047-.266c-4.349-.116-7.939-.231-12.286-.4a24.9 24.9 0 0 0-4.114-.084 10.235 10.235 0 0 0-2.809 1.267c-1.915 1.093-3.875 2.311-5.652 3.484-2.331 1.54-5.386 3.323-6.086 5.854-.75 2.716 1.62 6.077 3 8.167 4.286 6.471 8.258 12.726 13.492 18.255 2.21 2.335 5.324 2.307 8.294 2.431 4.036.167 21.284.512 31.325.587 10.04.027 27.291-.141 31.329-.267 2.971-.093 6.085-.033 8.319-2.346 5.289-5.475 9.325-11.69 13.677-18.116 1.408-2.077 3.814-5.414 3.091-8.133z" class="cls-6" transform="translate(-588.485 -512.775)"/>
        <path id="Rectangle_15422" d="M1.666 0h63.916a1.667 1.667 0 0 1 1.667 1.667V14.3a1.667 1.667 0 0 1-1.667 1.667H1.667A1.667 1.667 0 0 1 0 14.3V1.666A1.666 1.666 0 0 1 1.666 0z" class="cls-9" transform="rotate(.293 -16922.316 12755.752)"/>
        <path id="Path_26560" fill="url(#linear-gradient-3)" d="M781.905 578.159c1.644.792 3.319 1.792 5 2.6a35.952 35.952 0 0 0 4.628 1.991 16.376 16.376 0 0 0 5.675.55 82.714 82.714 0 0 0 10.625-.972c3.232-.508 6.973-.944 10-2.224a4.984 4.984 0 0 0 3.286-5.188 22.9 22.9 0 0 0-.792-4.946 7.134 7.134 0 0 0-.853-2.283 6.175 6.175 0 0 0-2.115-1.452 20.571 20.571 0 0 0-4.3-1.451c-1.683-.367-2.6.134-4.072.852a80.649 80.649 0 0 1-10.448 4.014c-3.519 1.118-10.545 3.185-14.31 4.241-2.094.586-5.132 1.4-5.365 1.989-.34.875 2.494 2.02 3.041 2.279z" transform="translate(-631.578 -507.85)"/>
        <circle id="Ellipse_1507" cx="4.473" cy="4.473" r="4.473" class="cls-7" transform="rotate(-10.833 416.869 -883.978)"/>
        <path id="Path_26561" d="M808.31 579.339a4.26 4.26 0 1 1-4.238-4.282 4.259 4.259 0 0 1 4.238 4.282z" class="cls-7" transform="translate(-637.653 -510.865)"/>
        <path id="Path_26562" d="M824.736 570.281a2.711 2.711 0 0 0-.837-1.062 8.256 8.256 0 0 0-3.014-1.611c-.528-.015 1.653 1.493 2.12 2.806a15.913 15.913 0 0 1 .83 5.513 2.672 2.672 0 0 1-1.7 2.217 34.82 34.82 0 0 1-7.936 2.57 103.025 103.025 0 0 1-10.992 1.534c-1.888.175-3.569.246-3.467.479.173.393 3.38.363 4.878.26a100.012 100.012 0 0 0 11.791-1.389c2.359-.447 5.849-1.217 7.9-2.43a3.771 3.771 0 0 0 1.475-2.256 16.739 16.739 0 0 0-1.048-6.631z" class="cls-7" transform="translate(-637.637 -508.705)"/>
        <ellipse id="Ellipse_1508" cx="5.334" cy="9.393" class="cls-9" rx="5.334" ry="9.393" transform="rotate(-89.707 86.155 -3.06)"/>
        <path id="Path_26563" fill="url(#linear-gradient-4)" d="M623.457 575.035c-.227-.589-3.257-1.436-5.344-2.044-3.754-1.094-10.758-3.233-14.266-4.387a80.649 80.649 0 0 1-10.407-4.121c-1.466-.733-2.376-1.244-4.063-.894a20.569 20.569 0 0 0-4.311 1.411 6.181 6.181 0 0 0-2.13 1.43 7.121 7.121 0 0 0-.877 2.273 22.889 22.889 0 0 0-.842 4.937 4.986 4.986 0 0 0 3.232 5.222c3.015 1.311 6.752 1.785 9.979 2.327a82.76 82.76 0 0 0 10.614 1.081 16.39 16.39 0 0 0 5.68-.492 36.156 36.156 0 0 0 4.649-1.944c1.69-.79 3.376-1.773 5.027-2.548.55-.261 3.396-1.373 3.059-2.251z" transform="translate(-574.257 -507.507)"/>
        <path id="Path_26564" d="M590.063 574.8a4.473 4.473 0 1 0 4.5-4.449 4.472 4.472 0 0 0-4.5 4.449z" class="cls-7" transform="translate(-576.826 -509.501)"/>
        <circle id="Ellipse_1509" cx="4.26" cy="4.26" r="4.26" class="cls-7" transform="rotate(-84.362 52.212 21.753)"/>
        <path id="Path_26565" d="M583.165 575.638a3.769 3.769 0 0 0 1.453 2.271c2.038 1.233 5.521 2.04 7.875 2.51a100.175 100.175 0 0 0 11.777 1.509c1.5.119 4.7.18 4.88-.21.1-.231-1.575-.32-3.462-.514a103.042 103.042 0 0 1-10.977-1.647 34.823 34.823 0 0 1-7.908-2.651 2.67 2.67 0 0 1-1.68-2.234 15.9 15.9 0 0 1 .886-5.5c.48-1.309 2.677-2.794 2.148-2.785a8.251 8.251 0 0 0-3.03 1.58 2.714 2.714 0 0 0-.848 1.053 16.751 16.751 0 0 0-1.114 6.618z" class="cls-7" transform="translate(-574.818 -508.35)"/>
        <path id="Path_26566" fill="url(#linear-gradient-5)" d="M751.937 521.413a136.527 136.527 0 0 0-5.677-13.785 82.9 82.9 0 0 0-7.482-12.094c-1.624-2.152-2.158-2.352-5.1-2.67-11.264-1.215-36.611-2.273-52.644-2.355s-41.39.717-52.665 1.817c-2.951.288-3.487.483-5.132 2.618a82.766 82.766 0 0 0-7.605 12.016 136.413 136.413 0 0 0-5.818 13.726c-.482 1.271-.662 2.741 1.12 2.683 3.528-.115 27.912-1.044 35.239-1.284 8.118-.267 26.952-.459 34.7-.419s26.581.424 34.7.774c7.324.316 31.7 1.494 35.224 1.644 1.774.077 1.609-1.394 1.14-2.671z" transform="translate(-582.458 -486.342)"/>
        <path id="Path_26567" fill="url(#linear-gradient-6)" d="M717.965 498.858c-1.416-3.631-5.326-4.331-7.269-4.46-24.131-1.6-67.431-.359-76.962.657-3.235.345-5.85.985-7.813 3.569a68.166 68.166 0 0 0-6.247 11.154c-1.356 2.832-3.224 7.166-1.227 10.019 1.545 2.207 9.4.609 12.872-.138 10.628-2.285 23.636-4.567 35.749-6.092 13.32-1.677 33.912-2.134 49.88-.9 2.921.226 3.6-1.109 3.465-2.912a49.986 49.986 0 0 0-2.448-10.897z" transform="translate(-584.805 -487.249)"/>
        <g id="Group_10788" transform="translate(-.304 -.32)">
            <path id="Path_26568" d="M-26.928-7.12a.323.323 0 0 1-.144-.288.344.344 0 0 1 .064-.192q0-.016.1-.112l1.152-1.056-1.568-.176-.128-.032a.285.285 0 0 1-.192-.176.336.336 0 0 1-.048-.176.3.3 0 0 1 .016-.1l.288-.848a.285.285 0 0 1 .176-.192.336.336 0 0 1 .176-.048.263.263 0 0 1 .08.016l.128.064 1.376.784-.32-1.552-.016-.128a.348.348 0 0 1 .1-.24.327.327 0 0 1 .248-.112h.88a.327.327 0 0 1 .248.112.348.348 0 0 1 .1.24l-.016.128-.32 1.552 1.392-.784.128-.064a.178.178 0 0 1 .08-.016.434.434 0 0 1 .232.064.24.24 0 0 1 .12.176l.288.848.016.1a.374.374 0 0 1-.072.216.331.331 0 0 1-.184.136l-.112.032-1.584.176 1.168 1.056q.1.1.1.112a.344.344 0 0 1 .064.192.323.323 0 0 1-.144.288l-.7.528a.459.459 0 0 1-.208.048.312.312 0 0 1-.288-.128.046.046 0 0 0-.016-.032.37.37 0 0 1-.048-.08l-.672-1.456-.672 1.456a.37.37 0 0 1-.048.08.046.046 0 0 0-.016.032.312.312 0 0 1-.288.128.459.459 0 0 1-.208-.048zm7.136 0a.323.323 0 0 1-.144-.288.344.344 0 0 1 .064-.192q0-.016.1-.112l1.152-1.056-1.568-.176-.128-.032a.285.285 0 0 1-.192-.176.336.336 0 0 1-.048-.176.3.3 0 0 1 .016-.1l.288-.848a.285.285 0 0 1 .176-.192.336.336 0 0 1 .176-.048.263.263 0 0 1 .08.016l.128.064 1.376.784-.32-1.552-.016-.128a.348.348 0 0 1 .1-.24.327.327 0 0 1 .248-.112h.88a.327.327 0 0 1 .248.112.348.348 0 0 1 .1.24l-.016.128-.32 1.552 1.392-.784.128-.064a.178.178 0 0 1 .08-.016.434.434 0 0 1 .232.064.24.24 0 0 1 .12.176l.288.848.016.1a.374.374 0 0 1-.072.216.331.331 0 0 1-.184.136l-.112.032-1.584.176 1.168 1.056q.1.1.1.112a.344.344 0 0 1 .064.192.323.323 0 0 1-.144.288l-.7.528a.459.459 0 0 1-.208.048.312.312 0 0 1-.288-.128.046.046 0 0 0-.016-.032.37.37 0 0 1-.048-.08l-.672-1.456-.672 1.456a.37.37 0 0 1-.048.08.046.046 0 0 0-.016.032.312.312 0 0 1-.288.128.459.459 0 0 1-.208-.048zm7.136 0a.323.323 0 0 1-.144-.288.344.344 0 0 1 .064-.192q0-.016.1-.112l1.152-1.056-1.568-.176-.128-.032a.285.285 0 0 1-.192-.176.336.336 0 0 1-.048-.176.3.3 0 0 1 .016-.1l.288-.848a.285.285 0 0 1 .176-.192.336.336 0 0 1 .176-.048.263.263 0 0 1 .08.016l.128.064 1.376.784-.32-1.548-.016-.128a.348.348 0 0 1 .1-.24.327.327 0 0 1 .248-.112h.88a.327.327 0 0 1 .248.112.348.348 0 0 1 .1.24l-.016.128-.32 1.552 1.392-.784.128-.064a.178.178 0 0 1 .08-.016.434.434 0 0 1 .232.064.24.24 0 0 1 .12.176l.288.848.016.1a.374.374 0 0 1-.072.216.331.331 0 0 1-.184.136l-.112.032-1.584.176L-8.8-7.712q.1.1.1.112a.344.344 0 0 1 .064.192.323.323 0 0 1-.144.288l-.7.528a.459.459 0 0 1-.208.048.312.312 0 0 1-.288-.128A.046.046 0 0 0-10-6.7a.37.37 0 0 1-.048-.08l-.672-1.46-.672 1.456a.37.37 0 0 1-.048.08.046.046 0 0 0-.016.032.312.312 0 0 1-.288.128.459.459 0 0 1-.208-.048zm7.136 0a.323.323 0 0 1-.144-.288A.344.344 0 0 1-5.6-7.6q0-.016.1-.112l1.152-1.056-1.572-.176-.128-.032a.285.285 0 0 1-.192-.176.336.336 0 0 1-.048-.176.3.3 0 0 1 .016-.1l.288-.848a.285.285 0 0 1 .176-.192.336.336 0 0 1 .176-.048.263.263 0 0 1 .08.016l.128.064 1.376.784-.32-1.552-.016-.128a.348.348 0 0 1 .1-.24.327.327 0 0 1 .248-.112h.88a.327.327 0 0 1 .248.112.348.348 0 0 1 .1.24l-.016.128-.32 1.552 1.392-.784.128-.064a.178.178 0 0 1 .08-.016.434.434 0 0 1 .232.064.24.24 0 0 1 .12.176l.288.848.016.1a.374.374 0 0 1-.072.216.331.331 0 0 1-.184.136l-.112.032-1.584.176 1.168 1.056q.1.1.1.112a.344.344 0 0 1 .064.192.323.323 0 0 1-.144.288l-.7.528a.459.459 0 0 1-.208.048.312.312 0 0 1-.288-.128.046.046 0 0 0-.016-.028.37.37 0 0 1-.048-.08l-.672-1.46-.672 1.456A.37.37 0 0 1-4.3-6.7a.046.046 0 0 0-.016.032.312.312 0 0 1-.288.128.459.459 0 0 1-.208-.048zm7.136 0a.323.323 0 0 1-.144-.288.344.344 0 0 1 .064-.192q0-.016.1-.112l1.148-1.056-1.568-.176-.128-.032A.285.285 0 0 1 .9-9.152a.336.336 0 0 1-.048-.176.3.3 0 0 1 .016-.1l.288-.848a.285.285 0 0 1 .176-.192.336.336 0 0 1 .176-.048.263.263 0 0 1 .08.016l.128.064 1.376.784-.324-1.548-.016-.128a.348.348 0 0 1 .1-.24.327.327 0 0 1 .248-.112h.88a.327.327 0 0 1 .248.112.348.348 0 0 1 .1.24l-.008.128L4-9.648l1.392-.784.128-.068a.178.178 0 0 1 .08-.016.434.434 0 0 1 .232.064.24.24 0 0 1 .12.176l.288.848.016.1a.374.374 0 0 1-.072.216.331.331 0 0 1-.184.136l-.112.032-1.588.176 1.172 1.056q.1.1.1.112a.344.344 0 0 1 .064.192.323.323 0 0 1-.144.288l-.7.528a.459.459 0 0 1-.208.048.312.312 0 0 1-.288-.128.046.046 0 0 0-.024-.028.37.37 0 0 1-.048-.08l-.672-1.46-.672 1.456a.37.37 0 0 1-.048.08.046.046 0 0 0-.016.032.312.312 0 0 1-.288.128.459.459 0 0 1-.208-.048zm7.136 0a.323.323 0 0 1-.144-.288.344.344 0 0 1 .064-.192q0-.016.1-.112L9.92-8.768l-1.568-.176-.128-.032a.285.285 0 0 1-.192-.176.336.336 0 0 1-.048-.176A.3.3 0 0 1 8-9.424l.288-.848a.285.285 0 0 1 .176-.192.336.336 0 0 1 .176-.048.263.263 0 0 1 .08.016l.128.064 1.376.784L9.9-11.2l-.016-.128a.348.348 0 0 1 .1-.24.327.327 0 0 1 .248-.112h.88a.327.327 0 0 1 .248.112.348.348 0 0 1 .1.24l-.016.128-.32 1.552 1.392-.784.128-.064a.178.178 0 0 1 .08-.016.434.434 0 0 1 .232.064.24.24 0 0 1 .12.176l.288.848.016.1a.374.374 0 0 1-.072.216.331.331 0 0 1-.184.136l-.112.032-1.584.176 1.168 1.056q.1.1.1.112a.344.344 0 0 1 .064.192.323.323 0 0 1-.144.288l-.7.528a.459.459 0 0 1-.208.048.312.312 0 0 1-.288-.128.046.046 0 0 0-.016-.032.37.37 0 0 1-.048-.08l-.668-1.46-.672 1.456a.37.37 0 0 1-.048.08.046.046 0 0 0-.016.032.312.312 0 0 1-.288.128.459.459 0 0 1-.208-.048zm7.136 0a.323.323 0 0 1-.144-.288.344.344 0 0 1 .064-.192q0-.016.1-.112l1.152-1.056-1.568-.176-.128-.032a.285.285 0 0 1-.192-.176.336.336 0 0 1-.048-.176.3.3 0 0 1 .016-.1l.288-.848a.285.285 0 0 1 .176-.192.336.336 0 0 1 .176-.048.263.263 0 0 1 .08.016l.128.064 1.376.784-.324-1.548-.016-.128a.348.348 0 0 1 .1-.24.327.327 0 0 1 .248-.112h.88a.327.327 0 0 1 .248.112.348.348 0 0 1 .1.24l-.016.128-.32 1.552 1.392-.784.128-.064a.178.178 0 0 1 .08-.016.434.434 0 0 1 .232.064.24.24 0 0 1 .12.176l.288.848.016.1a.374.374 0 0 1-.072.216.331.331 0 0 1-.184.136l-.112.032-1.584.176 1.168 1.056q.1.1.1.112a.344.344 0 0 1 .064.192.323.323 0 0 1-.144.288l-.7.528a.459.459 0 0 1-.208.048.312.312 0 0 1-.288-.128.046.046 0 0 0-.016-.032.37.37 0 0 1-.048-.08l-.672-1.46-.672 1.456a.37.37 0 0 1-.048.08.046.046 0 0 0-.016.032.312.312 0 0 1-.288.128.459.459 0 0 1-.208-.048zm7.136 0a.323.323 0 0 1-.144-.288.344.344 0 0 1 .064-.192q0-.016.1-.112l1.152-1.056-1.568-.176-.128-.032a.285.285 0 0 1-.192-.176.336.336 0 0 1-.048-.176.3.3 0 0 1 .016-.1l.288-.848a.285.285 0 0 1 .176-.192.336.336 0 0 1 .176-.048.263.263 0 0 1 .08.016l.128.064 1.376.784-.32-1.552-.016-.128a.348.348 0 0 1 .1-.24.327.327 0 0 1 .248-.112h.88a.327.327 0 0 1 .248.112.348.348 0 0 1 .1.24l-.016.128-.32 1.552 1.392-.784.128-.064a.178.178 0 0 1 .08-.016.434.434 0 0 1 .232.064.24.24 0 0 1 .12.176l.288.848.016.1a.374.374 0 0 1-.072.216.331.331 0 0 1-.184.136l-.112.032-1.584.176 1.172 1.056q.1.1.1.112a.344.344 0 0 1 .064.192.323.323 0 0 1-.144.288l-.7.528a.459.459 0 0 1-.208.048.312.312 0 0 1-.288-.128.046.046 0 0 0-.024-.028.37.37 0 0 1-.048-.08l-.672-1.46-.672 1.456a.37.37 0 0 1-.048.08.046.046 0 0 0-.016.032.312.312 0 0 1-.288.128.459.459 0 0 1-.208-.048z" class="cls-6" transform="translate(98.92 104.222)"/>
        </g>
    </g>
</svg>
