<svg width="114" height="68" viewBox="0 0 114 68" xmlns="http://www.w3.org/2000/svg">
    <g fill="none" fill-rule="evenodd">
        <g transform="rotate(12 2.045 56.042)">
            <ellipse fill-opacity=".81" fill="#FFF" cx="32.953" cy="26.899" rx="28.326" ry="26.899"/>
            <path d="M38.646 52.268c-11.976 2.417-23.82-3.054-29.513-12.702l10.68-2.156c3.962 4.456 10.316 6.757 16.73 5.462 6.415-1.295 11.233-5.85 12.943-11.45l10.682-2.157c-1.07 11.013-9.546 20.586-21.522 23.003zm9.705-20.618c-1.737 5.042-6.172 9.102-12.018 10.282-5.847 1.18-11.637-.816-15.384-4.75l27.402-5.532zm-30.767-9.502c1.738-5.042 6.172-9.102 12.019-10.282 5.847-1.18 11.637.815 15.384 4.75l-27.403 5.532zM27.289 1.53C39.265-.887 51.11 4.584 56.803 14.232L46.12 16.388c-3.96-4.456-10.314-6.757-16.728-5.462-6.415 1.295-11.233 5.85-12.944 11.451L5.768 24.533C6.838 13.52 15.313 3.948 27.289 1.53zm33.68 11.86-3.138.634C51.987 3.858 39.605-1.938 27.079.591 14.554 3.119 5.725 13.196 4.74 24.74l-3.137.633c-1.088.22-1.79 1.245-1.558 2.278l2.524 11.275c.231 1.034 1.31 1.7 2.4 1.48l3.136-.633C13.95 49.94 26.33 55.736 38.857 53.207c12.526-2.528 21.354-12.606 22.339-24.15l3.137-.633c1.089-.22 1.79-1.245 1.558-2.278L63.368 14.87c-.232-1.034-1.311-1.7-2.4-1.48z" fill="#50AF00"/>
        </g>
        <path fill="#50AF00" d="m38.973 21.683-.772-1.678-.735 1.663-1.896.148 1.444 1.215-.4 1.77 1.629-.911 1.648.945-.438-1.779 1.418-1.186zM44.78 22.926l-.54-1.175-.516 1.165-1.327.103 1.011.85-.28 1.24 1.141-.638 1.153.662-.306-1.246.993-.83zM32.74 22.803l-.541-1.175-.515 1.164-1.327.103 1.011.851-.28 1.24 1.14-.64 1.154.663-.306-1.245.993-.83zM43.354 46.05l1.14-.639 1.154.662-.306-1.245.992-.83-1.328-.131-.54-1.175-.516 1.164-1.327.104 1.01.85zM31.314 45.926l1.14-.639 1.154.663-.306-1.246.992-.83-1.329-.13-.54-1.176-.516 1.165-1.326.103 1.01.85zM36.858 47.427l1.628-.912 1.649.946-.438-1.78 1.418-1.186-1.898-.186-.772-1.679-.736 1.663-1.895.148 1.444 1.215z"/>
        <text font-family="Rubik-Black, Rubik" font-size="8.1" font-weight="900" fill="#FFF" transform="translate(.26 1.094)">
                                    <tspan x="9.367" y="35.822">התקבלה הצעה</tspan>
                                </text>
    </g>
</svg>
