<svg xmlns="http://www.w3.org/2000/svg" xmlns:xlink="http://www.w3.org/1999/xlink" width="288.995" height="338.01" xmlns:v="https://vecta.io/nano"><style><![CDATA[.d{fill:#263238}.e{fill:#ffc727}.f{fill:#ffbe9d}.g{fill:#fff}.h{fill:#eb996e}.i{fill:#455a64}.j{opacity:.3}.k{fill:#bd8c83}.l{fill:#cbddf5}.m{fill:#896360}.n{fill:#d6e1f1}.o{fill:#cccbcb}.p{fill:#dbdbdb}.q{fill:#e3efff}]]></style><rect width="98.59" height="71.757" rx="7" transform="matrix(-1 0 0 -1 180.012 128.39)" fill="#e5f2f8"/><path d="M41.031 324.002l1.216.6s13.56 7.475 13.324 10.151l-27.753-4.161.8-5.625z" class="e"/><path d="M27.818 330.594l.413-2.238 26.455 4.826s1.155.723.884 1.572zm14.9-6.063c-.025.135-.712.095-1.444.43-.741.317-1.173.852-1.29.78-.121-.045.2-.825 1.1-1.216s1.681-.114 1.634.006zm2.729 1.64c.011.135-.61.278-1.157.782-.561.488-.77 1.091-.9 1.064-.13 0-.1-.806.586-1.419s1.488-.557 1.471-.427zm1.132 3.731c-.127.011-.214-.7.245-1.385s1.138-.89 1.178-.769c.06.123-.411.46-.78 1.032s-.505 1.129-.643 1.122z" class="d"/><path fill="#ac8179" d="M30.87 312.25l12.011 4.079-2.018 7.8-13.879 1.948z"/><path d="M21.798 320h12v10h-12z" class="k"/><path d="M16.05 201.5l.373 14.307 4.226 44.419-2.2 33.852c-.743 10.609 1.4 28.995 1.4 28.995l17.856-.465 7.756-100.061 6.027-20.091z" class="d"/><path d="M34.586 328.251s14.614 5.117 14.827 7.794l-28.059.512v-7.258z" class="e"/><path fill="#e0e0e0" d="M25.892 327.192c-.556.18-.887.75-.769 1.322a1.1 1.1 0 0 0 1.3.773 1.21 1.21 0 0 0 .806-1.4 1.14 1.14 0 0 0-1.445-.654"/><path d="M21.354 336.554l.036-2.274 26.889.36s1.259.521 1.134 1.4zm13.685-8.456c0 .137-.685.212-1.352.664-.678.436-1.015 1.035-1.141.983-.127-.024.062-.847.878-1.381s1.642-.393 1.615-.266zm2.966 1.164c.034.132-.556.376-1.01.964-.472.574-.578 1.2-.715 1.2-.128.024-.238-.777.341-1.5s1.378-.795 1.384-.664zm1.734 3.493c-.124.031-.327-.65.011-1.407s.973-1.067 1.033-.954c.079.111-.329.521-.6 1.147-.28.614-.308 1.197-.444 1.214zm20.442-128l1.125 58.092a24.34 24.34 0 0 1-1.426 8.7l-15.341 42.735-.757 2.821-10.735-2.3L38.26 201.51z" class="d"/><g class="i"><path d="M45.216 215.014c.012.092.016.186.013.279l.006.818-.008 3.147c0 2.732-.079 6.685-.209 11.569-.284 9.766-.939 23.249-2.121 38.1l-3.506 37.98-1.2 11.491-.343 3.123-.1.811c-.007.093-.022.185-.044.275a1.73 1.73 0 0 1 .011-.279l.064-.815.281-3.13 1.1-11.5 3.408-37.982c1.181-14.845 1.873-28.318 2.217-38.077l.315-11.562.071-3.144.027-.818a1.7 1.7 0 0 1 .018-.286zm-15.584-9.846c.013.221-.007.443-.058.658a9.96 9.96 0 0 1-.462 1.74 11.4 11.4 0 0 1-8.707 7.376 9.96 9.96 0 0 1-1.792.17 2.24 2.24 0 0 1-.658-.052c0-.063.941-.027 2.4-.349a11.84 11.84 0 0 0 8.534-7.229c.563-1.39.68-2.328.743-2.314zm16.518 2.277a.92.92 0 0 1-.899.937.92.92 0 1 1 .615-1.583.92.92 0 0 1 .284.646zm14.49 6.867a5.79 5.79 0 0 1-1.29-1.148c-1.902-2.071-3.143-4.661-3.567-7.441a5.8 5.8 0 0 1-.087-1.724c.055 0 .11.651.319 1.683a16.49 16.49 0 0 0 3.512 7.326l1.113 1.304z"/><path d="M0 230.565l33.34-12.73 11.51 26.071-35.239 12.281z"/></g><path d="M24.466 231.4a19.98 19.98 0 0 1-3.09-3.178c-.013-.274-.478-2.324-.885-4.083-.156-.547-.021-1.137.357-1.562s.947-.628 1.509-.538l2.26-.869c-.55-1.11-1.24-2.145-2.054-3.079a22.9 22.9 0 0 0-4.108-2.681l-.341-3.942-9.021 1.807 1.308 9.055s2.234 8.5 3.236 9.313 3.815 1.2 3.815 1.2c1.122 1.3 3.408.743 3.408.743 2.576 1.493 2.421-.38 2.421-.38a.52.52 0 0 0 .268.137 1.13 1.13 0 0 0 .917-1.943z" class="k"/><path d="M17.883 225.104c-.064.515-.052 1.037.036 1.548a8.02 8.02 0 0 0 1.115 3.561 7.21 7.21 0 0 0 2.864 2.328 4.88 4.88 0 0 0 1.414.558 6.83 6.83 0 0 0-1.277-.808c-1.05-.562-1.962-1.35-2.671-2.307-.61-1.038-1.007-2.187-1.169-3.38-.048-.51-.153-1.013-.312-1.5zm-1.931 1.034a2.96 2.96 0 0 0-.043 1.418 10.14 10.14 0 0 0 .291 1.506 4.68 4.68 0 0 0 .8 1.727 7.87 7.87 0 0 0 1.408 1.226l1.214.863a4.73 4.73 0 0 0 1.178.719c.034-.044-.354-.4-1.007-.946l-1.165-.934a9.05 9.05 0 0 1-1.324-1.19 4.77 4.77 0 0 1-.758-1.579 14.3 14.3 0 0 1-.364-1.443l-.23-1.367zm-2.146 1.374a10.88 10.88 0 0 0 .829 3.344 1.52 1.52 0 0 0 .432.639 5.15 5.15 0 0 0 .494.435 6.19 6.19 0 0 0 .923.6c.558.3.954.36.968.31s-.325-.21-.822-.554c-.291-.2-.57-.416-.837-.647a6.05 6.05 0 0 1-.449-.425 1.23 1.23 0 0 1-.333-.486l-.808-2.294a4.22 4.22 0 0 0-.397-.922z" class="m"/><path d="M48.501 131.452s7.808 3.908 10.873 8.335 8.355 12.452 8.355 12.452l7.055-18.331 10.575 4.694s-6.043 21.888-7.158 24.283c-1.546 3.319-5.227 6.291-11 5.942s-3.925-.2-7.713-3.745l-5.115-5.967z" class="e"/><path d="M53.353 148.525a57.26 57.26 0 0 0 6.541 16.9c-1.187-1.184-2.299-2.441-3.331-3.762l-2.106-2.456-1.1-10.68" class="j"/><path d="M68.973 160.645a5.06 5.06 0 0 1-.325-1.282l-.485-3.146-.286-3.17a5.04 5.04 0 0 1 .008-1.323c.278 1.473.481 2.959.607 4.453a44 44 0 0 1 .481 4.468z" class="d"/><path d="M7.268 133.909s-4.675 3.32-5.48 12.27C1.294 151.673.61 187.296.61 187.296l7.612 29.667 12.135-3.069-4.307-31.263.419-27.149z" class="e"/><path d="M8.225 216.966c.067-.033.137-.057.21-.073l.626-.178 2.411-.646 8.857-2.3-.1.148-3.444-23.632-.9-6.3v-.027l.375-21.424.145-6.32.055-1.7.022-.44c-.001-.05.005-.1.018-.149.012.049.017.1.014.15l.01.441v1.7l-.041 6.322-.256 21.399.909 6.3 3.375 23.764-.116.029-8.886 2.187-2.428.577-.635.141c-.072.019-.146.029-.221.031z" class="d"/><path d="M24.171 122.912s-13.977 6.9-16.9 11c-3.549 4.962 6.274 20.826 7.024 24.76.36 1.89 2.7 16.1 1.6 27.3a192.08 192.08 0 0 0-.834 22.418l45.126-3.638c0-7.871-2.034-13.944-3.389-23.936l-3.391-32.606-4.9-16.756-6.971-2.948z" class="e"/><path d="M52.574 142.706c.041.111.068.226.079.344l.159 1 .508 3.671 1.422 12.143 1.129 12.175.265 3.7.051 1.007a1.32 1.32 0 0 1-.006.353 1.32 1.32 0 0 1-.065-.347l-.118-1-1.608-15.846-1.719-15.833-.093-1c-.018-.122-.02-.245-.004-.367zm-33.989 3.318c-.065 0-.016-.936-.312-2.395-.759-3.864-3.401-7.091-7.038-8.6-1.371-.578-2.3-.713-2.285-.778a2.13 2.13 0 0 1 .654.064 9.73 9.73 0 0 1 1.724.483c3.799 1.425 6.543 4.777 7.19 8.782a9.77 9.77 0 0 1 .134 1.786c.012.221-.01.444-.067.658zm30.369 37.926a4.33 4.33 0 0 1-.882-.127 21.01 21.01 0 0 1-2.355-.589c-1.151-.35-2.278-.774-3.373-1.272a28.53 28.53 0 0 1-7.362-4.831 27.53 27.53 0 0 1-2.508-2.588 21.08 21.08 0 0 1-1.478-1.926 4.28 4.28 0 0 1-.466-.759c.055-.039.771 1.006 2.131 2.52.797.884 1.644 1.722 2.537 2.51a30.7 30.7 0 0 0 7.282 4.778 31.35 31.35 0 0 0 3.312 1.33l3.162.954z" class="d"/><path d="M16.468 155.485c-2.9 17.3-1.431 35.578 3.036 52.543l1.155-.092a213.02 213.02 0 0 0-4.191-52.451zm20.153 29.543c4.728 1.95 9.786 2.977 14.9 3.025-.775 1.17-2.242 1.473-3.643 1.555a11.48 11.48 0 0 1-4.1-.4c-2.572-.787-5.6-1.992-7.156-4.181" class="j"/><path d="M41.207 136.81a3.1 3.1 0 0 1-.776.141c-.715.07-1.436.073-2.152.009-2.351-.284-4.654-.877-6.849-1.765l-6.609-2.5c-.655-.299-1.277-.664-1.857-1.09a3.33 3.33 0 0 1-.439-.39c-.093-.1-.137-.151-.129-.16.024-.025.221.174.643.444a13.06 13.06 0 0 0 1.879.982c1.641.736 4.026 1.469 6.624 2.4a30.2 30.2 0 0 0 6.76 1.843c.966.088 1.936.116 2.905.086z" class="d"/><g class="k"><path d="M86.025 127.817l-3.333-2.121-.463-5.374-.708-4.724.3-8.287-4.032 4.819a3.74 3.74 0 0 0-.592 1.735l-.409 14.547-.072 6.222 7.055 4.427-.151-7.4 1.638-1.752c1.641-1.76.767-2.092.767-2.092z"/><path d="M78.036 118.684c.916-1.616 1.98-3.144 3.177-4.564a4.28 4.28 0 0 1 1.358-1.188 1.61 1.61 0 0 1 1.714.123c.486.515.598 1.278.282 1.911a6.44 6.44 0 0 1-1.234 1.647c-.498.483-.836 1.108-.966 1.79a5.54 5.54 0 0 0 .35 1.9c.502 2.096-.113 4.303-1.626 5.838"/></g><path d="M81.092 126.141c-.024-.022.212-.259.547-.747a6.43 6.43 0 0 0 .972-2.283 6.11 6.11 0 0 0 .125-1.7c-.063-.658-.202-1.306-.416-1.932a3 3 0 0 1-.113-1.137 2.71 2.71 0 0 1 .435-1.118c.434-.682 1.069-1.2 1.5-1.851.22-.306.359-.662.406-1.036a1.25 1.25 0 0 0-2.04-1.188c-.544.359-1.021.811-1.408 1.335l-1.086 1.365-1.45 2.071c-.155.27-.332.526-.53.766a4.09 4.09 0 0 1 .413-.837c.418-.739.874-1.455 1.366-2.147l1.061-1.4a5.7 5.7 0 0 1 1.476-1.433 2.09 2.09 0 0 1 1.13-.284 1.46 1.46 0 0 1 1.112.553 2.13 2.13 0 0 1-.155 2.435c-.48.71-1.109 1.22-1.506 1.843-.201.291-.335.624-.391.974-.033.341-.002.685.093 1.014.211.648.343 1.32.393 2a6.17 6.17 0 0 1-.174 1.775 6.06 6.06 0 0 1-1.1 2.308c-.141.185-.297.357-.467.516-.119.095-.184.147-.193.138z" class="m"/><path d="M185.525 184.289c-.916.509-9.627 1.647-9.627 1.647l.523 5.808 16.932 1.653z" class="f"/><path d="M153.141 182.948c-.187.236-.309.515-.356.812-.005.327 9.052 6.963 10.909 8.32.214.157.473.242.739.241l12.435-.018.066-.99-11.573-8.056c-.218.02-12.22-.309-12.22-.309z" class="d"/><path fill="#fafafa" d="M165.339 183.704c-.17.016-10.976-.149-10.976-.149l9.655 7.225a.97.97 0 0 0 .575.187l11.475.22z"/><path d="M176.115 185.895h-1.426l-5.7-3.919c-.232-.052-4.212-.589-4.212-.589l-4.459 1.718s-.237 1 1.544 1.185c1.321.037 2.632-.225 3.838-.765 0 0 3.975 3.935 5.664 4.875s4.966 2.414 4.966 2.414z" class="f"/><path d="M185.032 109.681a4.1 4.1 0 0 0-1.1 3.486c.1 1.262.484 2.494.509 3.759.049 2.452-1.235 4.785-1.188 7.237s1.427 4.726 1.659 7.178c.219 2.319 2.907 4.059 2.33 6.315s-4.4 5.306-3.267 7.342a1.92 1.92 0 0 0 .914.924 2.33 2.33 0 0 0 1.258 0l5.859-1.109a3.8 3.8 0 0 0 2.009-.8c.526-.63.814-1.425.816-2.246.478-4.916-.668-9.823-1.291-14.723-.727-5.72-.744-11.509-.05-17.233" class="d"/><path d="M185.51 115.947a11.38 11.38 0 0 1 10.7-11.255c2.995-.176 5.932.872 8.139 2.904s3.492 4.874 3.561 7.874l-.266 24.9c-.007.481-.173.947-.474 1.323a10.15 10.15 0 0 1-6.738 3.666 10.64 10.64 0 0 1-6.439-1.814c-.628-.417-.988-1.137-.945-1.89l.289-5.558c.001-.01-.002-.02-.009-.027s-.016-.012-.026-.012a7.56 7.56 0 0 1-1.553-.153c-1.443-.461-5.084-2.163-5.952-7.742a112.82 112.82 0 0 1-.287-12.216z" class="f"/><path d="M193.089 124.627a6.59 6.59 0 0 0-1.6-.284c-.251-.026-.488-.075-.529-.244-.02-.256.04-.511.172-.731q.359-.9.753-1.878a32.06 32.06 0 0 0 1.7-4.913 32.25 32.25 0 0 0-2.095 4.77l-.722 1.89a1.4 1.4 0 0 0-.135.968.62.62 0 0 0 .41.361 1.71 1.71 0 0 0 .426.058 6.48 6.48 0 0 0 1.62.003zm-6.06-4.441a.9.9 0 0 0 .876.907c.233.02.465-.055.643-.207a.87.87 0 0 0 .304-.602.9.9 0 0 0-.875-.907c-.233-.02-.465.054-.643.206s-.288.369-.305.603zm.237-2.201c.1.151.85-.415 1.831-.34.981.059 1.642.722 1.763.584.058-.06-.031-.328-.318-.627a2.17 2.17 0 0 0-1.393-.645 2.2 2.2 0 0 0-1.475.449c-.33.258-.458.51-.408.579zm9.069 2.313a.9.9 0 0 0 .876.907c.233.02.465-.054.643-.206a.87.87 0 0 0 .304-.603.9.9 0 0 0-.875-.907.88.88 0 0 0-.644.206c-.179.152-.288.369-.304.603zm.364-1.969c.128.137.848-.53 1.908-.594 1.059-.08 1.865.485 1.974.331.053-.068-.081-.321-.434-.577a2.47 2.47 0 0 0-3.1.209c-.311.302-.41.57-.348.631z" class="d"/><path d="M193.339 136.059a15.93 15.93 0 0 0 8.56-2.493s-1.527 4.931-8.654 4.271zm.151-9.103a1.8 1.8 0 0 1 1.592-.645c.436.038.838.25 1.114.589.267.33.296.792.071 1.152a1.21 1.21 0 0 1-1.291.319c-.462-.161-.887-.412-1.252-.738-.11-.077-.205-.173-.279-.285a.32.32 0 0 1 0-.36" class="h"/><g class="d"><path d="M195.979 125.294c-.16-.01-.168 1.04-1.086 1.783s-2.053.628-2.062.774c-.016.065.252.2.732.217a2.7 2.7 0 0 0 1.721-.587c.465-.369.767-.906.842-1.495.044-.435-.074-.692-.147-.692zm.359-10.391c.092.265 1.076.155 2.226.309 1.154.132 2.077.478 2.236.244.071-.112-.087-.361-.458-.621a3.96 3.96 0 0 0-3.4-.422c-.426.161-.644.364-.604.49zm-8.974-.024c.185.209.848-.06 1.661-.12.811-.088 1.51.057 1.656-.182.063-.116-.057-.329-.369-.518a2.45 2.45 0 0 0-2.672.244c-.276.242-.358.474-.276.576zm8.054-11.489c.638-.798 1.608-1.26 2.63-1.252 4.389-.352 9.054 2.6 11.23 6.432s1.922 9.292-.142 13.182l-1.649.17c-3.379-.442-8.421-10.3-12.812-15.853-.545-.695.245-1.954.743-2.679z"/><path d="M186.903 105.653c1.962-1.939 5.091-4.252 8.762-2.55.481 1.1-.734 2.387-1.725 3.122l-3.658 2.561c-1.934 1.569-4.38 4.219-4.777 7.319-.025.195-.176.212-.37.169-.251-.057-.746-1.369-.927-3.081-.483-2.812.539-5.671 2.695-7.54z"/></g><path d="M206.546 119.866c.1-.048 4.228-1.352 4.187 2.886s-4.288 3.322-4.294 3.2.107-6.086.107-6.086z" class="f"/><path d="M207.75 124.358c.018-.013.073.053.2.111a.74.74 0 0 0 .551.017c.561-.348.89-.971.862-1.63a2.44 2.44 0 0 0-.2-1.059c-.078-.269-.284-.483-.55-.572-.175-.048-.359.036-.437.2-.058.118-.032.2-.055.21s-.09-.072-.054-.247a.47.47 0 0 1 .169-.264.56.56 0 0 1 .409-.1c.353.073.643.325.765.664a2.51 2.51 0 0 1 .244 1.184c.035.772-.397 1.489-1.095 1.819a.79.79 0 0 1-.674-.119c-.129-.112-.15-.207-.135-.214z" class="h"/><path d="M154.795 140.833l-6.23 3.217-2.5-4.2c-1.171-.673-2.27-1.463-3.281-2.359l-2.221-2.512a2.31 2.31 0 0 1-.559-2.016c.02-.148.088-.285.194-.39l.617-1.085-.436-2.521a8.02 8.02 0 0 1 .726-2.762l-2.327-4.984a1.28 1.28 0 0 1 .188-1.41.54.54 0 0 1 .771-.109c.794.536 3.11 4.566 3.11 4.566l.86.831 1.1.177s-.326-1.552.345-1.9l3.172 2.29 2.62 3.671s.518 5.3 1.215 6.719l2.636 4.777z" class="f"/><path d="M142.82 130.133a8.54 8.54 0 0 1-1.725-3.949c.058-.015.317.918.8 2l.925 1.949zm-1.502 2.529a2.38 2.38 0 0 1-.5-1.09 3.34 3.34 0 0 1-.221-1.177 3.9 3.9 0 0 1 .416 1.119 7.46 7.46 0 0 1 .305 1.148zm.991-9.304c.264.319.509.653.734 1l1.8 2.391 1.036 1.28a4.12 4.12 0 0 0 .955.9 2.04 2.04 0 0 0 1.153.307.62.62 0 0 1-.333.065 1.81 1.81 0 0 1-.893-.248 3.98 3.98 0 0 1-1.024-.906l-1.052-1.276-1.756-2.436a5.88 5.88 0 0 1-.62-1.077zm4.937 5.483c-.032.006-.09-.3-.285-.756a4.39 4.39 0 0 0-1.112-1.547 5.68 5.68 0 0 1-.807-.738 1.6 1.6 0 0 1-.345-.848 1.77 1.77 0 0 1 .048-.823c.036 0 .008.317.093.8a1.56 1.56 0 0 0 .347.751 6.54 6.54 0 0 0 .8.706 3.96 3.96 0 0 1 1.111 1.647 1.84 1.84 0 0 1 .15.808z" class="h"/><path d="M215.794 189.867v-11.016s1.183-17.16 1.183-22.45-6.231-17.005-6.231-17.005l-10.209.307-7.515.166c-.077 0-12.414 11.953-12.414 11.953-1.849 4.933-2.567 10.219-2.1 15.467a28.68 28.68 0 0 0 .871 4.305l2.652 10.378 2 9.321c.4 1.89 21.385.982 30.51.81 2.181-.04 1.253-2.236 1.253-2.236z" class="d"/><path d="M152.646 137.129s13.627 17.678 14.078 17.678 15.756-10.781 15.756-10.781 6.7-4.968 10.757-4.066-1.145 18.808-1.145 18.808-20.967 11.933-28.031 12.534-13.91-23.067-13.91-23.067l-3.072-7.1z" class="f"/><g class="d"><path d="M189.744 159.979a1.79 1.79 0 0 1-.336.214l-.995.558-3.686 2-2.554 1.364-1.438.745a8.03 8.03 0 0 0-1.483.774c-.47.312-.737.852-.7 1.415a9.75 9.75 0 0 0 .258 1.82l.946 3.825c1.1 5.28 2.451 9.984 3.287 13.424l.949 4.084.223 1.118c.033.129.052.262.055.395-.054-.122-.094-.249-.12-.38l-.283-1.1-1.05-4.055c-.893-3.421-2.278-8.117-3.385-13.415-.285-1.3-.682-2.571-.939-3.825a9.95 9.95 0 0 1-.256-1.887 1.9 1.9 0 0 1 .2-.952 2.12 2.12 0 0 1 .631-.708l5.549-2.846 3.734-1.9 1.023-.5a1.83 1.83 0 0 1 .37-.168zm3.909-4.903c-.059-.014.138-.776.245-2.03.274-3.286-.539-6.571-2.313-9.35l-1.163-1.681c.017-.016.16.118.408.376a9.73 9.73 0 0 1 .95 1.175 13.73 13.73 0 0 1 2.351 9.5c-.059.501-.157.997-.293 1.483a1.77 1.77 0 0 1-.185.527z"/><path d="M170.924 151.463l8.351 14.271 16.853-6.9V141.34a7.41 7.41 0 0 0-8.164-1.053c-4.705 2.256-17.04 11.176-17.04 11.176z"/></g><path d="M212.695 143.276c-.747-1.4-1.613-2.861-1.531-4.468l-16 3.826a5.52 5.52 0 0 0 1.287 5.416 14.15 14.15 0 0 0 4.683 3.1c2.076 1 4.329 2 6.564 1.526a9.41 9.41 0 0 0 4.075-2.375 5.71 5.71 0 0 0 1.862-2.452c.479-1.528-.197-3.174-.94-4.573zm-33.426 22.072l-.462.547c5.78 1.271 11.536-2.235 13.057-7.954-4.26 3.097-7.694 5.48-12.595 7.407z" class="j"/><path d="M220.995 142.128a6.59 6.59 0 0 1-3.182-6.717c.426-1.511.956-2.991 1.586-4.429.485-1.494.559-3.3-.5-4.466-.731-.609-1.516-1.15-2.344-1.618-.998-.824-1.703-1.95-2.007-3.209l-.029-3.694a15.43 15.43 0 0 0-12.8-14.6l-6.671 2.407c.497 3.044 1.811 5.897 3.8 8.254a36.22 36.22 0 0 1 2.971 3.493 5.06 5.06 0 0 1 .8 4.355c-.46 1.27-1.623 2.192-2.065 3.469-.872 2.517 1.345 5.19.932 7.822-.145.779-.457 1.518-.914 2.166a12.09 12.09 0 0 1-1.719.536c-1.193.212-2.349.599-3.429 1.148a3.4 3.4 0 0 0-1.818 2.934 54.26 54.26 0 0 1 8.5.041c-1.915 2.533-3.374 7.169-2.808 7.735.747.748 6.093 2.024 7.147 2.1 4.422.34 3.512-2.6 7.913-3.158.475-.014.934-.173 1.315-.457a2.19 2.19 0 0 0 .422-1.911c-.156-1.261-.492-2.528-.74-3.788a6.77 6.77 0 0 0 5.64 1.587z" class="d"/><path d="M201.081 146.084c-.018-.034-.03-.071-.035-.109-.029-.109-.051-.22-.064-.332a3.75 3.75 0 0 1 .071-1.295 6.59 6.59 0 0 1 .788-1.895 22.41 22.41 0 0 1 1.555-2.215c.669-.843 1.196-1.788 1.562-2.8.181-.559.235-1.152.158-1.735-.111-.615-.349-1.2-.7-1.717l-1.111-1.706a3.81 3.81 0 0 1-.576-2.1c.057-.756.283-1.489.661-2.146l1.128-1.96c.758-1.253 1.015-2.747.718-4.181-.273-1.339-.811-2.611-1.581-3.74-.718-1.1-1.525-2.058-2.26-2.975-.701-.842-1.35-1.725-1.944-2.645a9.44 9.44 0 0 1-1.543-4.471 5.99 5.99 0 0 1 .087-1.292 2.22 2.22 0 0 1 .118-.436c-.08.57-.105 1.146-.076 1.72a9.62 9.62 0 0 0 1.612 4.354c.602.904 1.256 1.772 1.959 2.6a36.96 36.96 0 0 1 2.3 2.981 10.5 10.5 0 0 1 1.642 3.846c.143.738.16 1.495.048 2.238-.135.762-.403 1.493-.794 2.161-.729 1.337-1.693 2.561-1.756 3.959a3.5 3.5 0 0 0 .528 1.928c.334.589.742 1.131 1.095 1.7.37.554.619 1.18.732 1.836a4.2 4.2 0 0 1-.184 1.859 10.02 10.02 0 0 1-1.637 2.862c-.568.693-1.096 1.418-1.583 2.17a6.72 6.72 0 0 0-.821 1.83 4.82 4.82 0 0 0-.097 1.706z" class="i"/><path d="M194.127 283.445l3.462 6.991 8.376-2.993-3.022-13.907z" class="f"/><path d="M167.503 232.868c.483.573 23.405 52.9 23.405 52.9s15.52-6.515 15.137-7.09-18.516-47.213-18.516-47.213z" class="e"/><path d="M204.993 283.792l5.348 8.646-24.472 10.249c-.836-2.4 9.859-12.394 9.859-12.394l.975-.884z" class="d"/><g class="g"><path d="M203.851 288.064c.55-.056 1.053.311 1.169.851a1.04 1.04 0 0 1-.834 1.166c-.583.058-1.115-.334-1.233-.908a1.08 1.08 0 0 1 1-1.117" opacity=".6"/><path d="M210.341 292.439l-.821-1.99-23.2 10.592s-.891.931-.447 1.646z"/></g><path d="M195.28 290.336c.053.118.674-.078 1.423.06.752.118 1.272.509 1.362.416.1-.069-.377-.709-1.286-.86s-1.574.285-1.499.384zm-2.123 2.137c.021.127.624.114 1.241.45.628.317.959.821 1.076.766.12-.028-.09-.762-.866-1.165s-1.496-.164-1.451-.051zm-.17 3.683c.119-.02.036-.687-.546-1.213s-1.249-.553-1.258-.432c-.027.127.483.326.954.765s.726.917.85.88z" fill="#a8adaf"/><path d="M166.127 289.445l3.462 6.991 8.376-2.993-3.022-13.907z" class="f"/><path d="M215.296 192.012l-30.914-.188-.413 6.824c-1.716 3.909-3.376 5.906-5.67 6.651-9.385 3.049-33.367 10.931-36.833 12.97-4.325 2.544-3.7 9.239-4.207 13.818s25.116 61.318 25.116 61.318l17.738-7.571-14.478-46.2-1.018-5.852 49.058-.707s9.35-2.342 9.1-15.317-7.479-25.746-7.479-25.746z" class="e"/><path d="M177.998 292.32l4.205 8.5-24.942 9.046c-.719-2.435 10.45-11.9 10.45-11.9l1.472-1.831z" class="d"/><g class="g"><path d="M175.033 294.091c.552-.029 1.037.362 1.126.907a1.04 1.04 0 0 1-.889 1.124c-.585.029-1.098-.388-1.188-.967-.005-.533.528-1.143 1.055-1.067" opacity=".6"/><path d="M182.204 300.822l-.723-2.028-23.693 9.451s-.935.886-.526 1.622z"/></g><path d="M167.262 297.989c.048.12.677-.045 1.418.129.746.154 1.246.57 1.341.481.1-.064-.342-.727-1.243-.922s-1.583.209-1.516.312zm-2.223 2.032c.015.128.617.144 1.218.509.611.347.918.866 1.037.817.121-.023-.053-.766-.808-1.206s-1.487-.238-1.447-.12zm-.351 3.668c.12-.014.069-.684-.486-1.237s-1.221-.612-1.235-.492c-.032.125.467.348.916.81s.68.952.805.919z" fill="#a8adaf"/><path d="M219.497 233.167c0 .092-7.773.166-17.358.166s-17.36-.074-17.36-.166 7.771-.165 17.36-.165l17.358.165zm-16.838-31.089c-.041.047-.783-.626-2.122-1.513a21.47 21.47 0 0 0-2.447-1.393c-2.072-1.006-4.293-1.668-6.578-1.96-.932-.119-1.871-.176-2.81-.173l-2.6.106a2.89 2.89 0 0 1 .688-.153 14.32 14.32 0 0 1 1.911-.187 18.82 18.82 0 0 1 2.852.1c2.326.262 4.587.935 6.677 1.988a18.88 18.88 0 0 1 2.444 1.473 14.33 14.33 0 0 1 1.5 1.2 2.87 2.87 0 0 1 .485.512zm4.56-2.034a6.36 6.36 0 0 1-1.5-.2l-3.546-.834-3.47-1.106a6.29 6.29 0 0 1-1.387-.6 7.43 7.43 0 0 1 1.461.378l3.485 1.009 3.508.925c.496.093.982.237 1.449.428z" class="d"/><g class="i"><path d="M69.244 336.167l3.775-.057 8.342-73.265-3.72-.427zm22.138 0l3.775-.057 8.342-73.265-3.72-.427zm66.731.136l-3.775-.057-8.342-72.594 3.72-.427zm-24.345 0l-3.775-.057-8.343-72.594 3.72-.427z"/><path d="M151.324 274.985H75.125v-7.894h76.199z"/><path d="M124.012 179.072l-48.277.6-.609 87.423 55.434.757z"/></g><path d="M145.628 213.286c-.252-1.689-5.3-7.279-5.3-7.279l-3.284-13.127c-.254-.862-.624-1.686-1.1-2.449-1.789-2.979-4.333-5.432-7.374-7.113l-6.991-3.932-1.673-3.722-17.966-3.2-3.622 4.16s-13.563 5.149-15.343 6.713c-2.184 1.918 3.781 33.915 3.781 33.915l-5.605 23.435c-.976 4.017.429 9.663.429 9.663l9.192-8.786c2.559-3.212 7.111-7.092 11.147-7.035l34.5.153-1.372-9.663 27.891 5.425s4.8-9.358 5.178-9.547-22.488-7.611-22.488-7.611z" fill="#37474f"/><path d="M102.19 177.408c-.242-.247 2.148 7.969 4.9 15.506 1.478 4.073 2.231 8.373 2.225 12.706v27.29l16.54-1.124-2.473-17.977-2.581-16.007-2.3-16.328s-9.386 2.986-16.311-4.066z" class="e"/><g class="d"><path d="M139.089 220.059c-.028-.138-.028-.279 0-.417a6.19 6.19 0 0 1 .217-1.112c.71-2.465 2.636-4.393 5.1-5.106.363-.108.735-.181 1.112-.22a1.06 1.06 0 0 1 .417 0c.007.052-.58.114-1.463.422a7.94 7.94 0 0 0-4.958 4.969c-.312.887-.374 1.474-.425 1.464z"/><path d="M139.942 213.515a6.62 6.62 0 0 1 5.136-.422c-.018.09-1.168-.134-2.586-.01s-2.519.518-2.55.432z"/></g><path d="M85.086 228.406l-1.435 1.628c1.5 1.853 3.535 3.198 5.827 3.853a29.68 29.68 0 0 0 7.03.636c.956.044 1.914-.047 2.844-.271a13.29 13.29 0 0 1 2.78-.859 7.22 7.22 0 0 1 1.93.275 3.76 3.76 0 0 0 1.932.031 1.53 1.53 0 0 0 1.125-1.426 101.9 101.9 0 0 0-22.033-3.867z" class="j"/><path d="M132.3 230.493l-4.058-4.31-8.348-2.112-7.833 2.285c-.184-.006-6.657-1.769-6.657-1.769l-2.263 8.3 11.66.8 13.314-.533s.694-.647.282-1.089 2.226.748 2.536.762.913.252 1.324-.245c.472-.611.49-1.459.043-2.089z" class="f"/><path d="M128.403 232.063a7.26 7.26 0 0 1-1.326-.377l-3.181-.921-3.233-.725c-.457-.061-.906-.166-1.343-.313.462-.023.925.01 1.378.1a29.58 29.58 0 0 1 3.272.643 28.57 28.57 0 0 1 3.177 1.012 5.6 5.6 0 0 1 1.256.581zm3.897-1.57a17.68 17.68 0 0 1-1.852-.6l-4.49-1.345a23.58 23.58 0 0 0-4.526-1.118 11.06 11.06 0 0 0-1.922.075 1.52 1.52 0 0 1 .5-.169c.471-.102.953-.142 1.434-.118 1.568.161 3.111.51 4.595 1.041l4.48 1.434 1.318.548a1.75 1.75 0 0 1 .463.252z" class="h"/><path d="M82.972 183.332s-2.962 1.943-4.426 7.969-7.807 30.632-6.506 34.315 26.6 7.294 26.6 7.294l3-12.65-12.849-3.516.326-16.572c.163-4.855-6.145-16.84-6.145-16.84z" fill="#37474f"/><path d="M101.473 222.147l4.141 1.019-2.491 9.548-4.068-.652z" class="g"/><g class="d"><path d="M71.944 224.314c.021 0-.012.21.062.6a2.8 2.8 0 0 0 .882 1.436 12.17 12.17 0 0 0 5.863 2.356h.019c1.217.4 2.6.717 4.085 1.053l4.763 1.014 11.038 2.151-.172.111.894-3.672 2.05-8.381.1.174-11.433-3.26c-1.573-.664-3.276-.962-4.981-.872a11 11 0 0 0-3.759.883 12.68 12.68 0 0 0-2.16 1.2l-.523.381a1 1 0 0 1-.185.123 1.06 1.06 0 0 1 .163-.15l.5-.409c.669-.496 1.388-.919 2.147-1.262a10.96 10.96 0 0 1 3.8-.949 11.4 11.4 0 0 1 5.082.843h-.013l11.569 3.245-2.073 8.519-.934 3.808-.139-.026-11.038-2.183-4.761-1.043-4.081-1.09c-2.157-.277-4.198-1.133-5.908-2.477-.44-.398-.742-.925-.862-1.506-.035-.204-.033-.413.005-.617z"/><path d="M89.487 217.584c-.036.037-.464-.355-1.236-.872-2.021-1.353-4.411-2.049-6.843-1.993l-1.511.073a4.71 4.71 0 0 1 1.5-.284c2.493-.177 4.968.544 6.976 2.032.426.285.802.638 1.114 1.044z"/><path d="M91.169 196.973a3.86 3.86 0 0 1 .008.771l-.121 2.1-.867 6.876a47.89 47.89 0 0 1-1.6 6.75l-.411 1.128-.368.829a3.76 3.76 0 0 1-.394.666 3.8 3.8 0 0 1 .288-.713l.317-.841.365-1.133a59.61 59.61 0 0 0 1.5-6.736l.952-6.845.216-2.085a3.74 3.74 0 0 1 .115-.767zm14.678-6.486c-.02.005-.06-.145-.2-.393a2.44 2.44 0 0 0-.865-.872 2.3 2.3 0 0 0-3.453 1.4l-.08.378-.176-.35a35.5 35.5 0 0 1-1.76-4.1c-.877-2.314-1.318-4.771-1.3-7.246 0-.473.072-.9.1-1.271l.184-.947c.06-.269.146-.532.255-.785a17.14 17.14 0 0 0-.328 3.007 21.41 21.41 0 0 0 1.374 7.157 39.25 39.25 0 0 0 1.721 4.082l-.257.028a2.52 2.52 0 0 1 1.779-1.8 2.48 2.48 0 0 1 2.032.327 2.33 2.33 0 0 1 .851.963 1.46 1.46 0 0 1 .109.314c.016.07.021.108.014.108zm14.036 1.255a4.16 4.16 0 0 1-.133-.685 7.15 7.15 0 0 1-.122-1.93 4.04 4.04 0 0 1 1.389-2.55c.472-.388 1.063-.6 1.674-.6a2.28 2.28 0 0 1 1.762.788l-.254.146-.547-1.376-2.709-6.961-.789-2.121a4.35 4.35 0 0 1-.251-.792 4.46 4.46 0 0 1 .36.751l.878 2.088 2.791 6.93.895 2.266-.605-.743a2 2 0 0 0-1.534-.691 2.38 2.38 0 0 0-1.509.523 3.9 3.9 0 0 0-1.356 2.37 8.16 8.16 0 0 0 .033 1.89 2.87 2.87 0 0 1 .027.697zm10.682 1.428c.082-.011 1.383 8.742 2.906 19.549l2.609 19.593c-.082.012-1.383-8.74-2.906-19.551l-2.609-19.591z"/></g><path d="M99.489 186.269c.071 2.237.557 4.441 1.434 6.5a4.61 4.61 0 0 1 2.276-1.821 3.62 3.62 0 0 1 3.251 1.344 5.9 5.9 0 0 0-1.038-2.484 2.91 2.91 0 0 0-2.282-1.193 2.02 2.02 0 0 0-1.922 1.567l-1.65-3.876" class="j"/><path d="M89.765 192.595c-.055 0-.037-.6-.211-1.544-.235-1.223-.711-2.387-1.4-3.424-.385-.565-.825-1.089-1.316-1.565a8.92 8.92 0 0 0-1.32-1.027c-.808-.511-1.379-.707-1.359-.759.006-.02.152.017.413.1.159.048.315.108.464.181a5.03 5.03 0 0 1 .591.3 7.87 7.87 0 0 1 1.4 1.007 9.3 9.3 0 0 1 1.377 1.6 8.55 8.55 0 0 1 1.36 3.557c.056.383.075.77.057 1.156a1.15 1.15 0 0 1-.056.418z" class="d"/><path d="M119.627 148.437a12.34 12.34 0 0 0-13.79-9.473l-.633.092c-6.761 1.38-9.366 7.894-7.8 14.615l4.786 23.733.925 2.471c4.146 4.019 10.503 4.68 15.387 1.6l.146-1.394-1.434-7.644s6.409-1.964 5.545-8.529c-.416-3.171-1.806-9.634-3.132-15.471z" class="f"/><path fill="none" stroke="#263238" stroke-linecap="round" stroke-linejoin="bevel" stroke-width=".5" d="M105.873 182.746c1.805.793 3.733 1.266 5.7 1.4a8.52 8.52 0 0 0 4.506-1.4"/><path d="M117.264 172.42a16.06 16.06 0 0 1-8.95-1.276s2.7 4.426 9.154 2.894z" class="h"/><g class="d"><path d="M118.571 153.436c.078.507-.262.983-.766 1.075-.238.054-.487.009-.692-.123a.9.9 0 0 1-.395-.582c-.078-.507.262-.983.766-1.075a.9.9 0 0 1 1.087.705zm-9.854 1.247c.078.506-.262.983-.766 1.074a.9.9 0 0 1-1.087-.7c-.078-.507.262-.983.766-1.075.237-.054.486-.01.691.122s.347.341.396.579zm-.305-1.62c-.1.139-.909-.273-1.946-.117s-1.726.769-1.857.663c-.063-.046.026-.282.326-.564a2.76 2.76 0 0 1 1.464-.681 2.63 2.63 0 0 1 1.571.245c.352.189.493.391.442.454zm9.697-1.281c-.1.139-.913-.272-1.955-.116s-1.735.771-1.866.665c-.063-.046.026-.282.327-.565a2.78 2.78 0 0 1 1.471-.682 2.65 2.65 0 0 1 1.578.244c.356.188.496.391.445.454zm-4.923 8.671a6.73 6.73 0 0 1 1.593-.531c.254-.063.49-.149.508-.331-.017-.269-.115-.526-.282-.738l-1.043-1.849a33.92 33.92 0 0 1-2.446-4.876c1.067 1.478 2.015 3.039 2.833 4.668l1.012 1.865a1.5 1.5 0 0 1 .279.99.65.65 0 0 1-.369.437 1.76 1.76 0 0 1-.428.124 6.61 6.61 0 0 1-1.657.241zm-5.336-11.289c-.081.283-1.1.222-2.285.448-1.185.2-2.122.617-2.3.38-.079-.114.071-.385.441-.678 1.004-.737 2.292-.969 3.491-.631.452.145.687.347.653.481zm10.039-.956c-.192.258-1.089.131-2.133.254-1.047.093-1.906.4-2.139.187-.1-.1.005-.352.363-.619a3.53 3.53 0 0 1 1.684-.6 3.47 3.47 0 0 1 1.759.243c.398.19.549.411.466.535zm2.969-5.809c-.195-.606-.81-.973-1.436-.856.318-.133.607-.326.852-.569a.91.91 0 0 0 .2-.953c-.228-.488-.891-.517-1.424-.6a3.41 3.41 0 0 1-1.85-.942 29.28 29.28 0 0 1-1.72-2.5 4.4 4.4 0 0 0-6.865.053 4.58 4.58 0 0 0-7.182 1.975 5.34 5.34 0 0 0-6.581 6.662l4.391 2.027c-.007-.637.26-1.246.732-1.674s1.105-.633 1.738-.563c1.278.212 2.238 1.549 3.532 1.5 1.008-.042 1.766-.917 2.7-1.29a4.8 4.8 0 0 1 3.561.343 13.88 13.88 0 0 0 3.437 1.254 6.83 6.83 0 0 0 4.113-.989 4.38 4.38 0 0 0 1.432-1.138 1.94 1.94 0 0 0 .37-1.74z"/><path d="M99.73 144.68l18.741-2.318a8.64 8.64 0 0 0-3.209-2.774 14.75 14.75 0 0 0-8.9-1.808c-3.054.392-8.713 5.009-10.614 7.433a4.83 4.83 0 0 0-1.3 3.392c.073 2.463 1.831 5.018 2.718 7.317.457 1.186 1.536 4.818 1.536 4.818 1.029-.154 1.291-1.029.986-2.023l-.776-3.964c1.877-1.98 2.209-4.966.813-7.31-.318-.325-1.129-1.905.005-2.763z"/><path d="M98.591 154.52c-1.346-3.209-2.642-6.663-2.017-10.086l-.56.043-.212.2a2.64 2.64 0 0 0-2.471 4.391c-1.155.122-2.035 1.092-2.044 2.253a4.24 4.24 0 0 0 .862 2.119c.476.613.807 1.325.968 2.084.143.786-.299 1.562-1.049 1.839a1.89 1.89 0 0 0 2.246.782c-.191.685-.572 1.301-1.1 1.777 1.413.549 3.011.322 4.215-.6.783-.427 1.381-1.128 1.678-1.969a4.53 4.53 0 0 0-.516-2.833z"/></g><path d="M98.741 158.426c-.118-.032-4.7-.683-3.906 3.777s5.1 2.748 5.089 2.619-1.183-6.396-1.183-6.396z" class="f"/><path d="M98.656 163.316c-.022-.011-.068.068-.189.151-.171.112-.379.153-.579.114a1.95 1.95 0 0 1-1.195-1.567c-.079-.38-.071-.774.021-1.151a.91.91 0 0 1 .479-.7.4.4 0 0 1 .5.132c.081.114.069.208.094.212s.083-.092.014-.27a.5.5 0 0 0-.225-.248.59.59 0 0 0-.45-.038 1.11 1.11 0 0 0-.689.835 2.68 2.68 0 0 0-.05 1.291 2.05 2.05 0 0 0 1.474 1.726c.255.028.509-.062.69-.244.117-.134.122-.238.105-.243z" class="h"/><path d="M93.638 155.251c-.012.01-.146-.155-.144-.512a1.7 1.7 0 0 1 .7-1.27c.609-.382 1.289-.634 2-.74.811-.094 1.528-.571 1.927-1.283a3.75 3.75 0 0 0 .074-2.4c-.2-.741-.477-1.4-.645-1.981a3.36 3.36 0 0 1-.2-1.93 8.67 8.67 0 0 0 .433 1.852l.722 1.976a3.95 3.95 0 0 1-.067 2.629c-.201.439-.539.801-.963 1.032a4.54 4.54 0 0 1-1.209.419 5.4 5.4 0 0 0-1.929.626 1.64 1.64 0 0 0-.71 1.078 3.93 3.93 0 0 0 .011.504zm-1.314-1.825c-.017.009-.114-.116-.186-.389a1.96 1.96 0 0 1 .087-1.182c.103-.262.259-.501.458-.7.234-.221.512-.392.815-.5a2.5 2.5 0 0 0 .811-.45c.206-.237.295-.554.241-.863-.027-.344-.122-.7-.156-1.059a5.3 5.3 0 0 1-.006-1.033 4.94 4.94 0 0 1 .455-1.681c.16-.389.506-.67.919-.749.3-.032.438.087.426.1-.009.029-.156-.033-.4.035a1.15 1.15 0 0 0-.721.722 5.22 5.22 0 0 0-.357 1.6 5.42 5.42 0 0 0 .025.97l.163 1.07a1.37 1.37 0 0 1-.347 1.133 2.67 2.67 0 0 1-.933.508 1.87 1.87 0 0 0-1.166 1.005 2.54 2.54 0 0 0-.128 1.463zm24.882-14.945c.029 0-.31.285-.932.077a2.66 2.66 0 0 1-.933-.622c-.329-.339-.72-.61-1.152-.8a3.14 3.14 0 0 0-3.361.624c-.508.468-.933 1.089-1.523 1.635a2.93 2.93 0 0 1-1.063.652c-.42.126-.867.136-1.293.03-.844-.2-1.541-.616-2.27-.787a5.71 5.71 0 0 0-2.154-.131c-1.231.148-2.379.7-3.264 1.569a6.18 6.18 0 0 0-1.384 2.071l-.312.878c-.012 0-.006-.086.017-.244a4.82 4.82 0 0 1 .167-.68 5.86 5.86 0 0 1 1.336-2.2 5.77 5.77 0 0 1 3.4-1.717c.761-.109 1.535-.068 2.281.118.786.184 1.5.606 2.261.778a2.11 2.11 0 0 0 1.111-.02 2.6 2.6 0 0 0 .936-.574c.553-.5.99-1.124 1.536-1.618a3.29 3.29 0 0 1 1.885-.881 3.5 3.5 0 0 1 1.793.266 3.75 3.75 0 0 1 1.189.888 2.67 2.67 0 0 0 .846.637 1.29 1.29 0 0 0 .883.051z" class="i"/><path d="M110.827 161.919c.139-.049.415.891 1.416 1.324s1.972.037 2.018.166c.031.055-.17.249-.59.383a2.44 2.44 0 0 1-1.669-.085 2.12 2.12 0 0 1-1.127-1.127c-.15-.379-.113-.643-.048-.661zm58.631 97.704a8.85 8.85 0 0 0-6.362-2.1l-3.89 12.365c2.851.125 5.7 1.6 8.448.843a6.03 6.03 0 0 0 4.194-4.953 7.16 7.16 0 0 0-2.39-6.155z" class="d"/><path fill="#f5f5f5" d="M163.169 257.235c.008-.1.423-.177 1.179-.17a9.6 9.6 0 0 1 3.184.6 8.66 8.66 0 0 1 3.878 3.011c.594.805 1.033 1.715 1.293 2.681a7.07 7.07 0 0 1 .1 3.244 6.55 6.55 0 0 1-1.414 2.952c-.677.782-1.541 1.38-2.51 1.741-1.571.558-3.266.667-4.895.316-1.047-.208-2.069-.525-3.05-.947-.686-.3-1.045-.513-1.015-.611s.45-.071 1.179.051l3.034.457c1.433.17 2.885-.017 4.228-.546.736-.308 1.388-.788 1.9-1.4.539-.672.906-1.464 1.071-2.309.314-1.687-.066-3.43-1.053-4.834-.794-1.202-1.886-2.177-3.17-2.831-.909-.429-1.86-.762-2.838-.993-.708-.188-1.109-.312-1.101-.412z"/><path d="M122.43 318.806l-3.781 8.521 29.45 10.682c.848-2.876-12.339-14.05-12.339-14.05z" class="d"/><path d="M118.649 327.327l.855-2.393 27.975 11.159s1.1 1.046.621 1.916z" class="g"/><g class="d"><path d="M136.291 323.982c-.057.142-.8-.053-1.675.153-.881.182-1.471.673-1.583.568-.123-.076.4-.858 1.468-1.089s1.87.245 1.79.368zm2.626 2.398c-.017.151-.729.17-1.438.6-.722.41-1.084 1.023-1.225.965-.143-.026.063-.9.954-1.424s1.756-.281 1.709-.141zm.414 4.334c-.142-.017-.081-.808.574-1.461s1.441-.723 1.459-.581c.038.148-.552.412-1.081.957s-.805 1.122-.952 1.085zm-1.474-14.045a2.95 2.95 0 0 1-1.472-.543 7.04 7.04 0 0 1-1.371-1.033 7.43 7.43 0 0 1-.684-.757 1.94 1.94 0 0 1-.319-.509.67.67 0 0 1 .211-.788c.22-.151.498-.188.75-.1.188.066.364.16.525.277a5.59 5.59 0 0 1 .8.647 5.53 5.53 0 0 1 1.036 1.386 2.62 2.62 0 0 1 .433 1.512c-.082.024-.251-.547-.757-1.321-.295-.449-.647-.859-1.047-1.218a5.76 5.76 0 0 0-.752-.568c-.282-.2-.547-.294-.677-.184-.048.042-.059.062-.027.177a1.57 1.57 0 0 0 .236.372 8.08 8.08 0 0 0 .617.727c.375.392.786.748 1.228 1.064.76.542 1.301.783 1.27.859z"/><path d="M137.596 316.807a2.5 2.5 0 0 1 .128-1.565 5.1 5.1 0 0 1 .787-1.542 5.15 5.15 0 0 1 .7-.759 1.3 1.3 0 0 1 1.211-.4c.266.103.448.351.467.635a2.16 2.16 0 0 1-.044.6 3.5 3.5 0 0 1-.36.993 3.61 3.61 0 0 1-1.182 1.3c-.853.555-1.515.509-1.51.455a12.69 12.69 0 0 0 1.286-.759 3.61 3.61 0 0 0 .97-1.217 3.24 3.24 0 0 0 .282-.862c.067-.33.042-.625-.087-.636a.9.9 0 0 0-.691.3 5.21 5.21 0 0 0-.655.667 5.63 5.63 0 0 0-.82 1.368c-.355.835-.396 1.428-.482 1.422zm-39.017-76.532c-4.467.1-8.7.735-11.782 3.975-4.081 4.3-9.128 10.419-9.414 14.665-.429 6.346 3.4 8.232 6.195 9.779a7.76 7.76 0 0 0 4.058.939l51.635-.392 1.621-8.746-33.4-8.231 1.387-12.569z"/><path d="M105.942 247.017l19.183-8.07s28.06 1.56 34.045 7.046 5.237 11.721 3.242 17.707-22.517 51.588-22.517 51.588c.823 1.481 1.046 3.222.623 4.863-.654 2.161-2.395 3.819-4.585 4.367l-15.615-5.739s-2.12-.748-.624-2.744a6.9 6.9 0 0 1 2.494-2.369v-3.99s5.487-9.975 5.985-11.347 8.7-29 8.7-29l3.493-6s-8.449-3.972-15.771-6.851l-17.1-4.214z"/></g><g class="i"><path d="M135.229 310.734c-.031.038-.524-.352-1.37-.9a18.51 18.51 0 0 0-7.291-2.772l-1.621-.239a6.07 6.07 0 0 1 1.648.029 15.58 15.58 0 0 1 7.385 2.806c.463.3.884.662 1.249 1.076zm7.804-2.741a5.4 5.4 0 0 1-.907-.955l-1.963-2.493-1.8-2.616c-.26-.356-.476-.742-.642-1.15a6.15 6.15 0 0 1 .817 1.031l1.862 2.557 1.887 2.539a6.15 6.15 0 0 1 .746 1.087zm5.722-50.145c.01.049-.573.173-1.479.474a15.55 15.55 0 0 0-6.255 3.9l-1.075 1.122c.243-.465.553-.891.92-1.266a13.28 13.28 0 0 1 6.348-3.963 5.38 5.38 0 0 1 1.541-.267zm-15.972 27.108a1.48 1.48 0 0 1 .064-.337l.24-.952.935-3.484 3.2-11.465 1.829-6.3c.661-1.681 1.662-3.208 2.94-4.485.845-.865 1.781-1.636 2.791-2.3l.843-.507c.097-.062.2-.113.308-.152.014.024-.39.266-1.084.755a18.65 18.65 0 0 0-2.7 2.351c-1.232 1.273-2.196 2.782-2.834 4.435l-5.079 17.728-1.028 3.458-.294.937a1.47 1.47 0 0 1-.131.318zm-14.368-29.243c-.082.008-.423-3.03-.762-6.783l-.464-6.81c.082-.01.423 3.029.762 6.783l.464 6.81zm-27.036 8.107c-.046.023-.3-.469-.8-1.189a11.69 11.69 0 0 0-5.335-4.168l-1.349-.493a4.4 4.4 0 0 1 1.42.293 10.24 10.24 0 0 1 5.44 4.25 4.4 4.4 0 0 1 .624 1.307zm9.951-11.022c-.029.046-.717-.395-1.91-.938a18 18 0 0 0-9.982-1.432l-2.1.362a2.16 2.16 0 0 1 .539-.2 11.92 11.92 0 0 1 1.525-.368 16.35 16.35 0 0 1 10.107 1.45 11.68 11.68 0 0 1 1.36.782 2.11 2.11 0 0 1 .461.344z"/><path d="M140.225 260.487a2.09 2.09 0 0 1-.405-.067l-1.146-.249-4.209-.946-13.921-2.943-13.995-2.583-4.251-.729-1.155-.207a2.11 2.11 0 0 1-.4-.093 2.09 2.09 0 0 1 .409.033l1.164.151 4.268.635c3.6.565 8.562 1.419 14.018 2.5s10.367 2.181 13.91 3.031l4.188 1.039 1.134.3a2.07 2.07 0 0 1 .391.128z"/><path d="M107.496 253.747a17.49 17.49 0 0 0-.715-1.651c-.324-.559-.721-1.073-1.181-1.527-.569-.559-1.173-1.081-1.808-1.564a27.35 27.35 0 0 0-3.7-2.3c-.548-.26-1.076-.561-1.58-.9a9.96 9.96 0 0 1 1.676.71 21.46 21.46 0 0 1 3.785 2.248 16.73 16.73 0 0 1 1.824 1.609 6.84 6.84 0 0 1 1.169 1.62 5.65 5.65 0 0 1 .461 1.262 1.4 1.4 0 0 1 .069.493z"/></g><path d="M165.006 261.553c.067.064-.8.937-1.469 2.264s-.893 2.531-.983 2.514a6.57 6.57 0 0 1 2.453-4.778z" class="d"/><path d="M131.039 196.754l3.7 26.036.185.416a55.87 55.87 0 0 0-3.885-26.452z" class="j"/><path fill="#cadcf4" d="M150.945 211.716l-12.019 21.02-29.612.644-.074 1.341 28.673-.213.909-.031 30.278.06 6.119-10.552 7.816-11.2c.236-.339.263-.78.072-1.145s-.57-.594-.983-.593l-30.224.116a1.1 1.1 0 0 0-.955.553z"/><path d="M175.218 223.984s1.555 1.426 1.31 2.637-.163 2.112-1.31 2.194c.034.915-.645 1.701-1.556 1.8a1.92 1.92 0 0 1-1.861 2.227s-.678 2.032-2.07 1.54a12.31 12.31 0 0 1-2.293-1.064l-.409-.738s-2.051-.771-1.546-1.929c.306-.7 1.368-.886 1.368-.886a1.99 1.99 0 0 1 .131-1.8c.492-.661 2.093-.114 2.093-.114-.035-.568.146-1.127.507-1.567.545-.647 3.095 1.11 3.095 1.11l1.391-1.661z" class="f"/><path d="M171.802 232.844a28.38 28.38 0 0 1-4.951-3.077 28.42 28.42 0 0 1 4.951 3.077zm1.86-2.227a24.02 24.02 0 0 1-4.587-2.765c1.627.748 3.166 1.675 4.587 2.765zm-2.53-4.168a8.07 8.07 0 0 1 2.1 1.117 19.3 19.3 0 0 1 1.977 1.311c-.772-.214-1.497-.573-2.136-1.057a11.65 11.65 0 0 1-1.941-1.371z" class="h"/><path d="M183.039 211.841a.54.54 0 0 1-.144.015l-.425.015-1.635.028-6.013.048-19.838.044h-1.444a1.19 1.19 0 0 0-1.1.52l-3.899 7.034-4.337 7.792-2.947 5.241-.814 1.417-.219.364a.5.5 0 0 1-.083.12c.013-.047.032-.092.057-.134l.193-.38.766-1.445 2.863-5.287 4.281-7.824 2.537-4.616 1.353-2.447c.3-.445.815-.695 1.35-.655h1.444l19.838.044 6.013.047 1.635.029.425.015c.048-.001.096.004.143.015z" class="d"/><path d="M161.731 222.407a1.28 1.28 0 0 0 .285 1.744 1.28 1.28 0 0 0 1.755-.208 1.28 1.28 0 0 0-.131-1.762c-.59-.461-1.443-.361-1.909.226z" class="g"/><path d="M151.87 288.09c.008-.046.022-.091.042-.134l.149-.383.605-1.466 2.3-5.423 7.882-18.298c.458-1.845.709-3.735.746-5.636.082-2.248-.361-4.483-1.294-6.53a11.74 11.74 0 0 0-1.81-2.617c-.637-.797-1.373-1.51-2.191-2.121-.817-.526-1.691-.956-2.606-1.283l-2.6-.948-4.792-1.342-7.092-1.312-2.452-.328c-.058-.004-.116-.016-.172-.034.058-.008.117-.008.175 0l.51.036 1.956.2c2.396.28 4.775.685 7.129 1.212l4.825 1.309 2.625.939c.938.329 1.835.765 2.673 1.3a16.07 16.07 0 0 1 4.117 4.844 14.75 14.75 0 0 1 1.334 6.677c-.038 1.926-.293 3.841-.76 5.709v.013l-.006.013-7.993 18.28-2.4 5.387-.657 1.443-.177.371c-.016.043-.039.084-.066.122z" class="i"/><path d="M237.904 166.466l9.45-3.028 8.139 25.397-9.45 3.028z" class="l"/><path d="M235.351 167.284l9.447-3.027 8.134 25.389-9.447 3.027z" class="q"/><path d="M243.933 171.314a2.24 2.24 0 0 1-3.157 2.674 2.24 2.24 0 0 1 .342-4.123 2.24 2.24 0 0 1 2.815 1.449z" class="g"/><g fill="#ebebeb"><use xlink:href="#B"/><path d="M249.463 170.074a8.45 8.45 0 0 1-.527 2.287 8.4 8.4 0 0 1-.844 2.191 8.45 8.45 0 0 1 .527-2.288 8.39 8.39 0 0 1 .844-2.19zm.895 2.813a8.44 8.44 0 0 1-.527 2.287 8.41 8.41 0 0 1-.844 2.191 8.45 8.45 0 0 1 .527-2.288 8.41 8.41 0 0 1 .844-2.19z"/><use xlink:href="#B" x="2.702" y="8.429"/><path d="M252.164 178.502a8.44 8.44 0 0 1-.527 2.288 8.44 8.44 0 0 1-.843 2.191 8.4 8.4 0 0 1 .526-2.288 8.41 8.41 0 0 1 .844-2.191zm.901 2.81a8.44 8.44 0 0 1-.527 2.287c-.177.766-.461 1.504-.843 2.191a16.61 16.61 0 0 1 1.37-4.478zm.9 2.81c-.244 1.55-.705 3.057-1.37 4.478a16.61 16.61 0 0 1 1.37-4.478zm-6.222-19.328c-.068.783-.245 1.553-.527 2.287a8.44 8.44 0 0 1-.843 2.191 8.4 8.4 0 0 1 .526-2.287 8.45 8.45 0 0 1 .844-2.191zm-1.394-1.035a3.05 3.05 0 0 1-.247 1.373c-.224.733-.476 1.3-.564 1.277a3.05 3.05 0 0 1 .247-1.373c.224-.732.477-1.303.564-1.277z"/></g><path d="M259.628 185.316l-6.68-22.606s4.686-2.571 6.962-10.791c1.506-5.439-1.106-9.853-1.172-12.008-.04-1.317 2.882-1.986 4.174-2.241 1.736-.399 3.555.131 4.806 1.4 2.629 2.976 3.158 11.943 3.158 11.943s-.387 1.985 1.976 1.228l8.426-2.7c1.091-.363 2.276-.324 3.34.111a3.58 3.58 0 0 1 2.188 2.583c.774 3.287-.454 5.262-.237 5.937s1.523 1.559 1.469 3.716-.529 2.123-.232 3.051a15.9 15.9 0 0 1 .755 4.968 7.22 7.22 0 0 1-.589 2.515c0 0 1.344 2.976.951 5-.516 2.652-5.6 5.933-8.233 5.616-1.232-.148-6.629.264-9.181.43s-9.955.017-11.881 1.848z" class="l"/><path d="M256.692 186.533l-7.274-22.7s4.686-2.572 6.962-10.791c1.11-3.782 1.651-7.709 1.606-11.65-.054-1.319.853-2.485 2.145-2.757a4.12 4.12 0 0 1 4.213 1.372c2.63 2.976 3 12.126 3 12.126s-.388 1.985 1.975 1.228l8.426-2.7c1.091-.363 2.276-.323 3.34.111a3.58 3.58 0 0 1 2.188 2.583c.774 3.287-.453 5.262-.237 5.938s1.523 1.558 1.469 3.716-.529 2.123-.231 3.051a15.9 15.9 0 0 1 .755 4.968c-.044.867-.243 1.719-.589 2.515a12.27 12.27 0 0 1 .951 5c-.276 2.042-3.522 4.106-4.7 4.485s-10.159 1.4-12.711 1.562-9.362.117-11.288 1.943z" class="q"/><path d="M270.209 146.223a11.51 11.51 0 0 1-1.185 2.856c-.425.944-.975 1.827-1.636 2.624a19.67 19.67 0 0 1 1.342-2.776c.421-.939.916-1.843 1.479-2.704zm-.514-3.18c-.232.918-.631 1.786-1.176 2.561a13.17 13.17 0 0 1-1.611 2.3 11.07 11.07 0 0 1 1.328-2.475c.445-.82.932-1.616 1.459-2.386zm-1.113-2.664a4.72 4.72 0 0 1-.988 2.079 12.62 12.62 0 0 1-1.408 1.8c.245-.731.632-1.408 1.138-1.99l1.258-1.889zm-1.659-1.985a4.4 4.4 0 0 1-.74 1.513c-.251.508-.598.962-1.021 1.338.146-.548.398-1.061.74-1.513.25-.508.597-.962 1.021-1.338zm-2.142-.796c.069.06-.151.451-.49.873s-.673.72-.747.666.145-.445.489-.873.679-.728.748-.666zm6.053 12.836c-.163.577-.431 1.119-.79 1.6a4.9 4.9 0 0 1-1.071 1.424 4.91 4.91 0 0 1 .79-1.6 4.9 4.9 0 0 1 1.071-1.424zm16.251 3.518a16.48 16.48 0 0 1-1.884 2.7 16.4 16.4 0 0 1-2.145 2.494 16.43 16.43 0 0 1 1.884-2.7 16.41 16.41 0 0 1 2.145-2.494zm-1.367-3.805c-.262.606-.623 1.164-1.068 1.651a5.93 5.93 0 0 1-1.33 1.449c.262-.606.623-1.164 1.068-1.651.36-.553.809-1.043 1.33-1.449zm1.843 9.726a13.17 13.17 0 0 1-1.442 1.947 13.08 13.08 0 0 1-1.536 1.874 10.93 10.93 0 0 1 2.978-3.821zm.17 4.768a8.88 8.88 0 0 1-1.255 2.056 8.85 8.85 0 0 1-1.526 1.864c.323-.739.746-1.431 1.256-2.056.421-.688.934-1.315 1.525-1.864zm.674 5.488a14 14 0 0 1-3.331 4.491 18.27 18.27 0 0 1 1.626-2.275 18.3 18.3 0 0 1 1.705-2.216zm.313 4.697c-.438 1.005-1.016 1.944-1.716 2.788a11.64 11.64 0 0 1-2.17 2.452 26.93 26.93 0 0 1 1.9-2.649c.609-.903 1.272-1.768 1.986-2.591z" fill="#ebebeb"/><path d="M27.902 336.011h-2.78l-1.583-95.565h5.946z" class="l"/><path d="M27.902 336.011v-.5l.013-1.446.068-5.545.287-20.4 1.053-67.678.165.168h-5.949l.166-.168 1.417 95.531 2.088.022.692.016s-.214.01-.671.016l-2.146.022v-.038l-1.711-95.731h6.275v.168l-1.191 67.8-.537 27.29-.019.473z" class="d"/><path d="M209.42 336.011h-2.78l-.888-95.293h5.946z" class="l"/><path d="M10.166 233.168h221.983v7.882H10.166z" class="q"/><path d="M57.191 233.285s-.02.031-.071.085l-.231.236c-.335.295-.711.539-1.116.726a7.26 7.26 0 0 1-2.145.584c-.993.116-1.993.152-2.991.107a35.66 35.66 0 0 1-3.6-.336c-1.359-.205-2.727-.338-4.1-.4a30.68 30.68 0 0 0-9.229 1.453l-8.957 2.6c-1.345.314-2.71.533-4.085.658a21.23 21.23 0 0 1-3.63-.006c-1.723-.129-3.409-.567-4.977-1.293-.547-.252-1.064-.565-1.539-.935a.48.48 0 0 1 .107.055l.3.179a10.67 10.67 0 0 0 1.188.625 14.76 14.76 0 0 0 4.946 1.212 21.38 21.38 0 0 0 3.585-.021 30.03 30.03 0 0 0 4.04-.671c2.806-.643 5.753-1.69 8.935-2.614 3.016-.962 6.163-1.451 9.329-1.448 1.383.066 2.761.206 4.129.42l3.572.361a18.94 18.94 0 0 0 2.959-.072 7.37 7.37 0 0 0 2.116-.537c.537-.242 1.032-.569 1.465-.968zm-24.283.119a5.3 5.3 0 0 1-.671.465c-.649.4-1.326.754-2.025 1.059a20.24 20.24 0 0 1-3.313 1.094 21.82 21.82 0 0 1-4.327.549c-2.64.086-5.271-.356-7.738-1.3a4.8 4.8 0 0 1-1.868-1.239 2.08 2.08 0 0 1-.305-.475c-.046-.117-.065-.179-.057-.181a4.91 4.91 0 0 0 .448.606 5.08 5.08 0 0 0 1.864 1.153 20.6 20.6 0 0 0 7.642 1.215 22.48 22.48 0 0 0 4.267-.525c1.123-.257 2.224-.603 3.292-1.036a20.27 20.27 0 0 0 2.052-.99 5.7 5.7 0 0 1 .739-.395zm52.087 4.996a3.07 3.07 0 0 1 .345.1 7.78 7.78 0 0 0 1.024.221 7.3 7.3 0 0 0 3.885-.493l-.011.1a10.57 10.57 0 0 0-4.817-1.524c-2.173-.186-4.352.274-6.265 1.322-.235.137-.462.306-.485.512s.16.392.416.508c.274.12.564.203.86.245l.946.174 3.94.619a28.8 28.8 0 0 0 4.192.231 18.88 18.88 0 0 0 2.151-.167l1.071-.182a6.34 6.34 0 0 0 1.036-.272 3.48 3.48 0 0 0 1.345-.789c.336-.307.439-.794.258-1.211a2.29 2.29 0 0 0-1.056-.957 9.27 9.27 0 0 0-1.473-.584c-2.002-.611-4.074-.96-6.166-1.039-3.558-.167-7.118.28-10.524 1.324a28.27 28.27 0 0 0-6.336 2.81c-.677.425-1.2.76-1.531 1.008l-.391.27c-.044.033-.091.062-.14.086a.77.77 0 0 1 .121-.1l.373-.287c.322-.259.833-.607 1.5-1.044a27.25 27.25 0 0 1 6.331-2.888 30.84 30.84 0 0 1 10.616-1.383 24.41 24.41 0 0 1 6.25 1.041 9.44 9.44 0 0 1 1.522.6c.492.221.899.594 1.163 1.064.212.49.092 1.06-.3 1.422-.412.393-.909.686-1.452.857-.351.125-.713.22-1.08.284-.362.078-.727.135-1.092.186-.726.098-1.457.155-2.189.169a28.84 28.84 0 0 1-4.239-.239c-1.368-.165-2.685-.4-3.957-.631l-.946-.177c-.321-.048-.634-.139-.93-.27-.147-.066-.28-.16-.39-.277a.53.53 0 0 1-.142-.425c.048-.313.345-.5.587-.649a11.3 11.3 0 0 1 6.425-1.326c1.736.122 3.416.668 4.891 1.591l.09.059-.1.042c-1.256.516-2.631.671-3.97.45a5.18 5.18 0 0 1-1.356-.381zm28.565-4.911a1.1 1.1 0 0 1 .219.4c.144.377.194.783.146 1.183-.256 1.38-1.029 2.611-2.162 3.44-.617.541-1.295 1.009-2.019 1.394-.621.323-1.274.58-1.948.767-.464.126-.936.222-1.412.287a2.4 2.4 0 0 1-.532.037c-.01-.041.745-.126 1.878-.472a10.71 10.71 0 0 0 1.876-.79c.7-.387 1.357-.848 1.959-1.375a5.69 5.69 0 0 0 2.169-3.3 3.55 3.55 0 0 0-.174-1.571zm39.864 7.147a11.91 11.91 0 0 0-1.019-.8 8.07 8.07 0 0 0-3.472-1.272 9.51 9.51 0 0 0-2.643.062 13.91 13.91 0 0 1-3.1.231 6.86 6.86 0 0 1-3.084-1.228c-.951-.653-1.996-1.156-3.1-1.492a13.89 13.89 0 0 0-6.883-.086 18.01 18.01 0 0 0-5.093 2.095 27.06 27.06 0 0 0-2.952 2.047l-.753.6a1.85 1.85 0 0 1-.272.2 1.58 1.58 0 0 1 .232-.235l.719-.634c.916-.777 1.889-1.483 2.912-2.112a17.74 17.74 0 0 1 5.138-2.166 14.06 14.06 0 0 1 7.045.075 11.42 11.42 0 0 1 3.17 1.529 6.6 6.6 0 0 0 2.951 1.2 13.88 13.88 0 0 0 3.032-.21 9.61 9.61 0 0 1 2.71-.035 7.88 7.88 0 0 1 3.51 1.36 4.15 4.15 0 0 1 .952.871zm35.59-7.393a1.88 1.88 0 0 1-.242.27 10.27 10.27 0 0 1-.759.733 19.92 19.92 0 0 1-3.24 2.338c-1.776 1.046-3.662 1.895-5.623 2.531-1.185.396-2.397.71-3.625.939a22.82 22.82 0 0 1-4.059.421 24.1 24.1 0 0 1-7.7-1.3c-1.954-.648-3.83-1.512-5.592-2.576a20.88 20.88 0 0 1-3.208-2.356c-.357-.3-.587-.565-.76-.731a1.83 1.83 0 0 1-.244-.269 2.19 2.19 0 0 1 .286.24l.8.7a22.99 22.99 0 0 0 3.247 2.292 28.38 28.38 0 0 0 5.573 2.512 24.13 24.13 0 0 0 7.6 1.268 22.77 22.77 0 0 0 4-.414 27.32 27.32 0 0 0 3.592-.917 28.99 28.99 0 0 0 5.6-2.469 21.79 21.79 0 0 0 3.276-2.269c.368-.287.607-.544.794-.7a2.25 2.25 0 0 1 .284-.243zm-5.084-.075a.81.81 0 0 1-.189.124l-.575.317c-.5.268-1.258.628-2.224 1.022a26.91 26.91 0 0 1-3.512 1.161c-1.496.401-3.036.615-4.584.637a22.33 22.33 0 0 1-8.138-1.67 19.2 19.2 0 0 1-2.2-1.051l-.56-.333c-.126-.077-.188-.124-.182-.13a8.38 8.38 0 0 1 .8.391c.727.365 1.471.692 2.231.982 2.569 1.004 5.296 1.542 8.053 1.59a19.09 19.09 0 0 0 4.509-.61 29.29 29.29 0 0 0 3.5-1.107l2.252-.954a7.74 7.74 0 0 1 .819-.369zm22.569.808a1.11 1.11 0 0 1-.257 0l-.727-.038-.524-.032h-.625c-.448 0-.958-.017-1.521.02l-.884.039-.953.09c-.661.046-1.354.173-2.088.273a37.22 37.22 0 0 0-4.641 1.124 35.83 35.83 0 0 0-4.345 1.731l-1.768.945-.779.455-.688.452c-.448.279-.818.565-1.149.811l-.464.341-.366.306-.514.42a.94.94 0 0 1-.193.137c-.007-.005.045-.062.152-.167l.478-.449.351-.321.45-.357 1.131-.841.682-.467.776-.469c.527-.336 1.141-.634 1.769-.97a33.98 33.98 0 0 1 4.378-1.768 35.51 35.51 0 0 1 4.69-1.117l2.112-.255.963-.078.892-.025c.568-.027 1.082 0 1.534.012l.628.022.525.052.724.079a1.1 1.1 0 0 1 .251.045zm-49.089 6.502c-.369-.43-.778-.825-1.221-1.179a12.16 12.16 0 0 0-4.473-2.03 29.31 29.31 0 0 0-3.491-.626l-4.081-.495a40.86 40.86 0 0 1-4.433-.9 34.8 34.8 0 0 0-4.728-.927c-3.109-.26-6.238.091-9.212 1.033-1.272.389-2.522.845-3.746 1.366l-3.157 1.387-4.48 2.145-1.206.6-.315.153c-.036.02-.074.035-.113.046 0 0 .031-.025.1-.065l.3-.172 1.18-.636 4.44-2.208 3.149-1.414a37.14 37.14 0 0 1 3.763-1.4c3.011-.966 6.183-1.326 9.334-1.061a34.46 34.46 0 0 1 4.771.939 41.47 41.47 0 0 0 4.4.909l4.073.514a28.79 28.79 0 0 1 3.514.658 11.85 11.85 0 0 1 4.489 2.118 4.77 4.77 0 0 1 1.143 1.245zm-50-7.193a1.39 1.39 0 0 1-.032.5 5.01 5.01 0 0 1-.434 1.33 8.07 8.07 0 0 1-3.412 3.545 25.68 25.68 0 0 1-5.057 1.89l-1.614.394c-.199.053-.402.086-.607.1a3.16 3.16 0 0 1 .575-.185l1.581-.46c1.713-.49 3.377-1.135 4.972-1.928a8.4 8.4 0 0 0 3.382-3.418 9.09 9.09 0 0 0 .646-1.768zm-51.53 7.767a3.54 3.54 0 0 1 .54-.422l1.58-1.05a48 48 0 0 1 5.661-2.962l6.026-2.437 1.861-.675a4.54 4.54 0 0 1 .7-.219 4.33 4.33 0 0 1-.653.3l-1.824.739-5.977 2.489c-1.943.862-3.839 1.828-5.678 2.894l-1.628.991a4.1 4.1 0 0 1-.608.352zm10.458-7.443c0 .025-.513-.053-1.432 0a11.93 11.93 0 0 0-3.7.914 35.33 35.33 0 0 0-4.811 2.622 25.84 25.84 0 0 1-2.9 1.524 18.59 18.59 0 0 1-3.465 1.083 39.26 39.26 0 0 1-7.091.692l-5.819.072a35.28 35.28 0 0 0-3.891.309l-1.043.17c-.121.028-.244.046-.368.054a2.16 2.16 0 0 1 .354-.1l1.037-.212a30.88 30.88 0 0 1 3.9-.381l5.818-.12a40.08 40.08 0 0 0 7.031-.7 18.5 18.5 0 0 0 3.408-1.061 26.02 26.02 0 0 0 2.875-1.5 34.03 34.03 0 0 1 4.873-2.6 11.6 11.6 0 0 1 3.781-.86 8.16 8.16 0 0 1 1.072.029 2.28 2.28 0 0 1 .371.065zm145.377 7.443a3.55 3.55 0 0 1 .54-.422l1.581-1.05c1.819-1.112 3.71-2.102 5.661-2.962l6.026-2.437 1.861-.675a4.54 4.54 0 0 1 .7-.219 4.31 4.31 0 0 1-.653.3l-1.824.739-5.977 2.489a59.01 59.01 0 0 0-5.678 2.894l-1.628.991a4.1 4.1 0 0 1-.609.352zm10.453-7.443c0 .025-.513-.053-1.433 0a11.94 11.94 0 0 0-3.7.914 35.31 35.31 0 0 0-4.81 2.622 25.74 25.74 0 0 1-2.9 1.524 18.59 18.59 0 0 1-3.465 1.083 39.26 39.26 0 0 1-7.091.692l-5.819.072a35.28 35.28 0 0 0-3.891.309l-1.044.17a2.27 2.27 0 0 1-.367.054c.115-.043.233-.077.354-.1l1.037-.212a30.88 30.88 0 0 1 3.9-.381l5.818-.12a40.08 40.08 0 0 0 7.031-.7 18.5 18.5 0 0 0 3.408-1.061 26.08 26.08 0 0 0 2.875-1.5 34.03 34.03 0 0 1 4.873-2.6 11.6 11.6 0 0 1 3.781-.86 8.14 8.14 0 0 1 1.072.029 2.28 2.28 0 0 1 .371.065z" class="g"/><path d="M204.783 233.137c0 .061-9.277.111-20.718.111s-20.721-.05-20.721-.111 9.275-.111 20.721-.111l20.718.111z" class="d"/><path d="M149.944 87.914c0 .475.353.86 1.75.86s3.313-.385 3.313-.86-1.915-.86-3.313-.86-1.75.385-1.75.86z" fill="#e5f2f8"/><use xlink:href="#C"/><use xlink:href="#C" x="-42.606"/><ellipse cx="117.121" cy="102.518" rx="5.801" ry="7.333"/><ellipse cx="159.726" cy="102.518" rx="5.801" ry="7.333"/><path d="M93.428 93.728h57.126v11.937H93.428z"/><use xlink:href="#C" x="-17.353"/><path d="M173.486 97.133c-.082-.877-2.051-4.428-7.163-6.544-5.225-2.164-13.089-2.219-13.089-2.219s-6.41-9.194-11.796-9.194h-19.39c-2.684 3.44 17.73 13.592 20.476 13.592.791 0 7.533.956 7.533 12.966h21.448c.743 0 1.981-8.601 1.981-8.601z" fill="#ffdb72"/><use xlink:href="#C" x="-59.959"/><path d="M154.096 97.139c0-.777-1.939-4.383-7.164-6.546s-13.088-2.223-13.088-2.223-6.41-9.194-11.796-9.194a45.87 45.87 0 0 0-24.839 7.434c-2.28.249-4.09.321-5.221 1.243-.9.735-1.395 4.7-1.395 7.68-.001.765-1.078 1.453-1.078 2.016 0 3.848 1.467 7.437 3.913 8.116v-3.147c0-4.367 2.844-7.92 6.34-7.92s6.34 3.553 6.34 7.92v2.217c-.004.261.095.513.277.701s.431.295.692.299h27.987c.261-.004.51-.111.692-.299s.282-.44.278-.701v-2.217c0-4.367 2.844-7.92 6.34-7.92s6.34 3.553 6.34 7.92v2.217c-.004.261.096.514.278.701s.431.295.692.299h2.431c.742-.001 1.98-8.23 1.981-8.596z" class="e"/><path d="M108.259 86.382a2.25 2.25 0 0 1 .38-4.075c4.334-1.396 8.857-2.115 13.41-2.132 3.156 0 7.925 4.5 10.023 8.395a.49.49 0 0 1-.419.721c-14.29.03-20.404-1.208-23.394-2.909z" fill="#53729d"/><ellipse cx="99.768" cy="102.518" rx="5.801" ry="7.333" fill="#232932"/><path d="M99.768 97.774c-2.069 0-3.753 2.128-3.753 4.744s1.684 4.745 3.753 4.745 3.753-2.129 3.753-4.745-1.683-4.744-3.753-4.744z" fill="#a6a6a6"/><path d="M100.607 101.505c-.05 0-.64-.011-.688 0-.399.166-.637.58-.58 1.009 0 .461.581 1.009.581 1.009h.688c.496-.065.85-.512.8-1.009.05-.498-.305-.945-.801-1.009z" class="n"/><g class="o"><path d="M99.796 102.518h1.187v4.969h-1.187z"/><path d="M96.302 103.244l3.905-1.307.367 1.162-3.905 1.307z"/><use xlink:href="#D"/><path d="M99.909 102.158l2.236-3.167.961.719-2.236 3.166z"/><path d="M100.205 103.1l.367-1.162 3.13 1.047-.364 1.163z"/></g><use xlink:href="#E" fill="#99a7be"/><path d="M96.845 102.518c0 2.439 1.463 4.456 3.338 4.714-.137.02-.276.03-.415.031-2.069 0-3.753-2.129-3.753-4.745s1.684-4.744 3.753-4.744a3.01 3.01 0 0 1 .415.031c-1.875.262-3.338 2.275-3.338 4.713z" class="o"/><g class="p"><path d="M99.326 102.518h1.187v4.969h-1.187z"/><path d="M95.832 103.243l3.904-1.307.367 1.162-3.904 1.307z"/><use xlink:href="#D" x="-0.47"/><path d="M99.439 102.159l2.507-3.552.961.719-2.508 3.551z"/><path d="M99.736 103.1l.367-1.162 3.604 1.206-.368 1.162z"/></g><path d="M104.033 102.519c0-2.977-1.909-5.39-4.264-5.39s-4.264 2.413-4.264 5.39 1.909 5.39 4.264 5.39 4.264-2.414 4.264-5.39zm-.395 0c0 2.7-1.736 4.891-3.869 4.891s-3.869-2.194-3.869-4.891 1.736-4.89 3.869-4.89 3.869 2.193 3.869 4.89z" class="n"/><path d="M103.905 102.519c0-2.888-1.852-5.229-4.137-5.229s-4.136 2.341-4.136 5.229 1.852 5.228 4.136 5.228 4.137-2.341 4.137-5.228zm-.383 0c0 2.616-1.683 4.745-3.753 4.745s-3.754-2.129-3.754-4.746 1.684-4.744 3.753-4.744 3.753 2.129 3.753 4.744z" class="p"/><use xlink:href="#F" fill="#505b6e"/><ellipse cx="142.373" cy="102.518" rx="5.801" ry="7.333" fill="#232932"/><path d="M142.373 97.774c-2.07 0-3.753 2.128-3.753 4.744s1.683 4.745 3.753 4.745 3.753-2.129 3.753-4.745-1.683-4.744-3.753-4.744z" fill="#a6a6a6"/><path d="M143.212 101.505c-.051 0-.64-.011-.688 0-.4.166-.638.58-.58 1.009 0 .461.581 1.009.581 1.009h.688c.496-.065.85-.512.8-1.009.05-.498-.305-.945-.801-1.009z" class="n"/><g class="o"><path d="M142.401 102.518h1.187v4.969h-1.187z"/><path d="M138.906 103.243l3.905-1.307.367 1.162-3.905 1.307z"/><use xlink:href="#D" x="42.605"/><path d="M142.514 102.159l2.235-3.167.961.719-2.235 3.167z"/><path d="M142.81 103.1l.367-1.162 3.13 1.047-.364 1.163z"/></g><use xlink:href="#E" x="42.605" fill="#99a7be"/><path d="M139.45 102.518c0 2.439 1.463 4.456 3.338 4.714-.137.02-.276.03-.415.031-2.07 0-3.753-2.129-3.753-4.745s1.683-4.744 3.753-4.744a3.01 3.01 0 0 1 .415.031c-1.875.262-3.338 2.275-3.338 4.713z" class="o"/><g class="p"><path d="M141.931 102.518h1.187v4.969h-1.187z"/><path d="M138.436 103.243l3.904-1.306.367 1.162-3.904 1.306z"/><use xlink:href="#D" x="42.135"/><path d="M142.044 102.159l2.506-3.553.961.719-2.507 3.552z"/><path d="M142.341 103.1l.367-1.162 3.604 1.206-.368 1.162z"/></g><path d="M146.638 102.519c0-2.977-1.909-5.39-4.264-5.39s-4.264 2.413-4.264 5.39 1.909 5.39 4.264 5.39 4.264-2.414 4.264-5.39zm-.395 0c0 2.7-1.736 4.891-3.869 4.891s-3.869-2.194-3.869-4.891 1.735-4.89 3.869-4.89 3.869 2.193 3.869 4.89z" class="n"/><path d="M146.509 102.519c0-2.888-1.851-5.229-4.136-5.229s-4.136 2.341-4.136 5.229 1.852 5.228 4.136 5.228 4.136-2.341 4.136-5.228zm-.383 0c0 2.616-1.683 4.745-3.753 4.745s-3.753-2.129-3.753-4.746 1.684-4.744 3.753-4.744 3.753 2.129 3.753 4.744z" class="p"/><use xlink:href="#F" x="42.605" fill="#505b6e"/><path d="M150.554 97.138v8.6h20.953c.736 0 1.963-8.49 1.978-8.6z" class="e"/><path d="M154.096 97.138l-7.084-.012c1.128 1.569 1.724 3.459 1.7 5.392v2.217c-.004.261.096.514.278.701a.99.99 0 0 0 .692.299h2.435c.74-.002 1.978-8.231 1.979-8.597zm-64.581.411c0 3.848 1.467 7.437 3.913 8.116v-3.147a8.6 8.6 0 0 1 2.768-6.538l-5.604-.447c0 .765-1.077 1.453-1.077 2.016zm16.593 4.969v2.217c-.004.261.095.513.277.701s.431.295.692.299h27.984c.261-.004.51-.111.692-.299s.282-.44.278-.701v-2.217a9.03 9.03 0 0 1 1.74-5.437l-34.01-.709c1.55 1.667 2.391 3.87 2.347 6.146z" fill="#fcd461"/><path d="M151.637 93.536c1.74 1.606 2.459 3.126 2.459 3.6l4.794-.006c-.862-3.053-5.063-3.594-7.253-3.594zm19.574.192c-1.296.343-2.368 1.242-2.524 3.4h4.8a7.46 7.46 0 0 0-2.276-3.4z" fill="#fefdfe"/><path d="M167.105 94.17a15.34 15.34 0 0 0-5.345-3.58c-5.225-2.165-13.089-2.22-13.089-2.22h-7.725s7.864.055 13.089 2.219a15.34 15.34 0 0 1 5.345 3.581c1.278 1.357 9.003 1.357 7.725 0z" fill="#fcd461"/><path d="M167.104 94.17a15.34 15.34 0 0 0-5.345-3.58c-5.22-2.165-13.089-2.22-13.089-2.22h-.631s7.864.055 13.088 2.219a15.34 15.34 0 0 1 5.345 3.581c.6.642-.8.98-2.591 1.015 2.068.038 3.897-.3 3.223-1.015z" class="e"/><path d="M143.835 80.175h-17.451c4.372 2.379 8.43 8.195 8.43 8.195h17.77s-4.377-5.816-8.749-8.195z" fill="#7899cb"/><path d="M117.605 102.647h11.62c3.717 0-2.853-3.188-12.388-3.188-5.656 0-5.695 3.188.768 3.188z" class="e"/><path fill="#ff636d" d="M90.81 92.09h-.025l-.187 2.892h.212a1.37 1.37 0 0 0 1.349-1.392v-.111a1.37 1.37 0 0 0-1.349-1.389z"/><path d="M150.114 104.928c-.176 0-.344-.071-.467-.196s-.191-.294-.188-.47v-1.744c0-4.847-3.156-8.79-7.037-8.79s-7.037 3.943-7.037 8.79v1.749a.66.66 0 0 1-.651.666c-9.694-.047-19.1-.232-27.372-.739a.65.65 0 0 1-.6-.72c.451-5.273-2.861-9.746-6.993-9.746-3.7 0-6.74 3.583-7.017 8.116-.006.181-.088.35-.225.468s-.317.173-.497.152c-.683-.064-1.335-.315-1.884-.727.651 2 1.781 3.511 3.282 3.928v-3.147c0-4.367 2.844-7.92 6.34-7.92s6.34 3.553 6.34 7.92v2.217a.99.99 0 0 0 .7.954v-.019a.53.53 0 0 0 .272.064h27.984c.113.005.224-.022.321-.08v.02c.392-.145.651-.52.649-.938v-2.218c0-4.367 2.844-7.92 6.34-7.92s6.34 3.553 6.34 7.92v2.217a.99.99 0 0 0 .745.969v-.011a.56.56 0 0 0 .225.04h2.434c.146 0 .312-.325.484-.844l-2.488.039z" fill="#ffdb72"/><path d="M131.179 87.107c-2.36-3.476-6.364-6.932-9.131-6.932a43.75 43.75 0 0 0-11.347 1.528c3.946 2.848 12.338 4.86 20.478 5.404z" fill="#53729d"/><path d="M134.757 80.175c3.817 2.972 9.45 4.616 15.055 4.949-1.735-1.938-3.75-3.606-5.977-4.949z" fill="#7899cb"/><g fill="#242a33"><path d="M143.835 80.175h-.726c4.372 2.379 8.753 8.195 8.753 8.195h.726s-4.379-5.816-8.753-8.195zm-34.876 6.207a2.25 2.25 0 0 1 .38-4.075 44.41 44.41 0 0 1 12.855-2.126c-.048-.006-.098-.006-.145-.006-4.553.017-9.076.736-13.41 2.132a2.25 2.25 0 0 0-.38 4.075c2.991 1.7 9.1 2.938 23.395 2.909-13.786-.016-19.754-1.236-22.695-2.909z"/><path d="M110.798 87.359l1.434-5.984.157.039-1.438 5.983zm21.273 1.211l-.875-1.437a3.48 3.48 0 0 1-1.234 2.154h1.69a.49.49 0 0 0 .419-.717zm-2.558 1.757a.32.32 0 0 1-.267-.145l-1.076-1.612a.34.34 0 0 1 .084-.463c.071-.05.158-.069.243-.052a.32.32 0 0 1 .206.139l1.072 1.613a.34.34 0 0 1-.084.463c-.052.037-.114.056-.178.057z"/></g><path fill="#95bcf0" d="M129.185 87.914c0 .475-.352.86-1.751.86s-3.312-.385-3.312-.86 1.914-.86 3.312-.86 1.751.385 1.751.86z"/><path d="M128.951 87.39a2.4 2.4 0 0 0-1.517-.336c-1.398 0-3.312.385-3.312.86 0 .106.1.206.261.3a14.41 14.41 0 0 0 2.1.168c1.758 0 2.352-.428 2.468-.992z" class="l"/><path d="M117.118 94.764h-.039l-3.277-.407a.33.33 0 0 1-.284-.371c.008-.087.051-.168.119-.223s.156-.08.243-.07l3.274.408a.33.33 0 0 1 .282.37c-.017.164-.153.289-.318.293z" fill="#242a33"/><g class="g"><path d="M42.783 63.533l5.396-15.42-1.187-.589c-4.743-2.352-8.667-5.453-11.348-8.967-1.346-1.764-2.38-3.63-3.076-5.548a17.57 17.57 0 0 1-1.07-6.01c0-3.361.969-6.631 2.88-9.72 1.878-3.035 4.582-5.772 8.036-8.133 3.495-2.39 7.575-4.268 12.125-5.583C59.274 2.193 64.306 1.5 69.498 1.5s10.224.694 14.958 2.063c4.55 1.315 8.63 3.194 12.126 5.583 3.454 2.361 6.158 5.098 8.036 8.134 1.911 3.088 2.88 6.358 2.88 9.72s-.969 6.632-2.88 9.72c-1.878 3.036-4.582 5.773-8.036 8.133-3.496 2.39-7.575 4.268-12.126 5.584-4.734 1.369-9.767 2.063-14.958 2.063-4.996 0-9.853-.645-14.437-1.915l-.917-.254-.62.72-10.741 12.482z"/><path d="M46.818 56.545l6.809-7.914 1.835.508c4.453 1.235 9.175 1.86 14.036 1.86 5.05 0 9.943-.673 14.542-2.003 4.397-1.271 8.332-3.082 11.696-5.38 3.28-2.243 5.839-4.828 7.607-7.685 1.762-2.847 2.655-5.852 2.655-8.931s-.893-6.084-2.655-8.931c-1.768-2.857-4.327-5.442-7.607-7.684-3.364-2.3-7.3-4.11-11.696-5.381C79.44 3.674 74.548 3 69.498 3s-9.943.674-14.542 2.004c-4.397 1.27-8.332 3.081-11.696 5.38-3.28 2.243-5.84 4.828-7.607 7.685-1.762 2.847-2.655 5.852-2.655 8.93 0 3.727 1.291 7.309 3.839 10.648 2.542 3.332 6.284 6.283 10.821 8.533l2.374 1.178-3.215 9.187m-8.069 13.976l7.577-21.653C36.432 43.961 29.998 35.994 29.998 27c0-14.911 17.685-27 39.5-27s39.5 12.089 39.5 27-17.685 27-39.5 27c-5.248 0-10.257-.7-14.838-1.97L38.748 70.521z" class="d"/></g><path fill="#fafafa" stroke="#263238" stroke-width="3" d="M217.469 107.33l6.714-11.831c-8.604-13.965-5.133-32.187 8.002-42.012s31.595-8.007 42.562 4.191 10.816 30.747-.347 42.766-29.65 13.537-42.624 3.5l-.182.157z"/><path d="M239.229 72.816a4.2 4.2 0 0 1 .988-1.039 1.76 1.76 0 0 1 1.011-.365 1.56 1.56 0 0 1 1.123.505c.314.286.497.688.505 1.112a3.39 3.39 0 0 1-.775 1.786l-.079.1-3.773 5.385v5.267c.05.694-.111 1.387-.46 1.988a1.59 1.59 0 0 1-1.393.645 1.6 1.6 0 0 1-1.4-.651c-.349-.601-.51-1.294-.46-1.988V80.3l-3.795-5.368a3.48 3.48 0 0 1-.809-1.853 1.53 1.53 0 0 1 .517-1.157 1.8 1.8 0 0 1 1.28-.483c.337.011.661.133.921.348a5.1 5.1 0 0 1 .988 1.078l2.785 3.987zm5.087 7.7h4.782a2.24 2.24 0 0 0-.741-1.539 2.3 2.3 0 0 0-1.606-.618 2.31 2.31 0 0 0-1.583.584c-.455.414-.756.97-.852 1.578zm.045 2.37a2.3 2.3 0 0 0 .842 1.595c.548.404 1.22.607 1.9.573a5.41 5.41 0 0 0 2.274-.59c.484-.269 1.004-.467 1.544-.59.387-.015.763.127 1.044.393a1.35 1.35 0 0 1 .4 1.011q0 1.168-1.628 2.106a7.54 7.54 0 0 1-3.83.938 6.02 6.02 0 0 1-4.478-1.822 6.29 6.29 0 0 1-1.8-4.593c-.052-1.712.576-3.376 1.746-4.627 1.116-1.215 2.702-1.89 4.352-1.853a5.64 5.64 0 0 1 4.211 1.741 5.87 5.87 0 0 1 1.7 4.256 1.47 1.47 0 0 1-.371 1.146 2.24 2.24 0 0 1-1.426.326zm13.337 5.462a6.1 6.1 0 0 1-3.218-.775 2.24 2.24 0 0 1-1.275-1.92c-.013-.422.129-.834.4-1.157a1.24 1.24 0 0 1 .977-.472 4.43 4.43 0 0 1 1.685.528 4.43 4.43 0 0 0 1.673.528c.26.012.517-.063.73-.213a.64.64 0 0 0 .281-.528q0-.539-1.741-1.235-.157-.067-.225-.09c-1.013-.354-1.943-.914-2.729-1.645a2.97 2.97 0 0 1-.73-2.061c-.018-1.077.456-2.104 1.286-2.791a4.78 4.78 0 0 1 3.261-1.117c1.054-.033 2.096.227 3.01.752.704.322 1.177 1.002 1.235 1.774.008.402-.148.79-.432 1.074-.277.287-.662.446-1.061.438-.492-.062-.969-.21-1.41-.438a4.19 4.19 0 0 0-1.51-.438c-.214-.012-.425.05-.6.174a.55.55 0 0 0-.225.455q0 .505 1.438 1.056.674.258 1.067.438c.877.343 1.67.871 2.324 1.548.462.55.707 1.249.689 1.967.018 1.148-.493 2.241-1.386 2.963-.986.812-2.237 1.234-3.514 1.185zm10.494-7.783c.049.696-.105 1.391-.444 2-.305.438-.817.685-1.35.651-.534.033-1.047-.216-1.35-.657a3.56 3.56 0 0 1-.45-1.994V73.8c-.047-.685.109-1.369.449-1.965a1.53 1.53 0 0 1 1.351-.647 1.53 1.53 0 0 1 1.353.646c.336.598.489 1.282.441 1.966zm-3.8 5.9a1.92 1.92 0 0 1 .584-1.421c.373-.382.888-.592 1.422-.582.532-.009 1.044.202 1.415.584.382.371.594.883.585 1.415.007.536-.206 1.052-.59 1.426-.367.386-.878.602-1.41.596a1.92 1.92 0 0 1-1.415-.59 1.96 1.96 0 0 1-.585-1.432zM59.668 28.3v-2.142a3.06 3.06 0 0 1 .257-1.419 1.79 1.79 0 0 1 .9-.755 6.38 6.38 0 0 1 1.137-.324 6.24 6.24 0 0 0 1.2-.357 2.97 2.97 0 0 0 1.436-1.046c.328-.496.493-1.082.473-1.677.003-.602-.252-1.175-.7-1.577-.448-.436-1.052-.675-1.677-.664-.552-.008-1.098.114-1.594.357a5.7 5.7 0 0 0-1.544 1.253q-.1.1-.315.332a3.7 3.7 0 0 1-2.44 1.527 2.04 2.04 0 0 1-1.577-.7c-.43-.49-.656-1.125-.631-1.776A5.35 5.35 0 0 1 57 15.124c1.625-1.263 3.636-1.928 5.694-1.884a8.18 8.18 0 0 1 5.827 2.183c1.517 1.381 2.364 3.349 2.324 5.4a7.08 7.08 0 0 1-1.61 4.7 7.18 7.18 0 0 1-4.333 2.44v.1c.056.876-.193 1.744-.704 2.458a2.36 2.36 0 0 1-1.942.888c-.726.038-1.43-.26-1.907-.809-.494-.661-.735-1.477-.681-2.3zm-.37 7.426c-.016-.791.3-1.553.872-2.1a2.91 2.91 0 0 1 2.117-.855 2.85 2.85 0 0 1 2.092.863 2.85 2.85 0 0 1 .863 2.092 2.89 2.89 0 0 1-.872 2.108 2.83 2.83 0 0 1-2.083.88c-.794.01-1.557-.308-2.108-.88-.572-.551-.891-1.314-.881-2.108zm20.126-8.716a5.31 5.31 0 0 1-.656 2.955c-.452.65-1.211 1.015-2 .963-.788.048-1.544-.321-1.992-.971a5.27 5.27 0 0 1-.664-2.947v-9.994a5.15 5.15 0 0 1 .664-2.905 2.26 2.26 0 0 1 1.992-.963 2.26 2.26 0 0 1 2 .955 5.2 5.2 0 0 1 .656 2.914zm-5.611 8.716a2.84 2.84 0 0 1 .863-2.1c.551-.56 1.307-.869 2.092-.855a2.85 2.85 0 0 1 2.092.863 2.85 2.85 0 0 1 .863 2.092 2.89 2.89 0 0 1-.872 2.108 2.83 2.83 0 0 1-2.083.88c-.788.013-1.546-.303-2.092-.872a2.9 2.9 0 0 1-.863-2.116zm-50.582 75.746a50.08 50.08 0 0 1-2.528-8.269 17.5 17.5 0 0 1 .327-8.562c.135-.416 1.318-3.219 1.755-3.195.312.017-.38 2.615-.211 2.879 1.53 2.588 2.238 5.579 2.031 8.578a39.07 39.07 0 0 1-1.373 8.569" class="d"/><path d="M40.036 126.773l-.093-3.647s6.959-1 7.125-7.943c.08-3.353-.316-10.271-.747-16.529-.463-6.729-6.017-11.974-12.761-12.052l-.67-.008c-7.23.338-10.983 6.668-10.445 13.886l1.078 25.308 5.153 5.643c1.85 2.027 4.769 2.682 7.308 1.641s4.157-3.557 4.052-6.299z" class="k"/><path d="M39.983 123.129c-3.208-.046-6.335-1.011-9.011-2.779 0 0 2.077 5.318 9.014 4.773z" class="m"/><path d="M44.56 104.345c-.001.538-.431.976-.968.99a.95.95 0 0 1-1.012-.906c.001-.538.43-.977.967-.991a.95.95 0 0 1 1.013.907zm.283-2.828c-.125.128-.869-.437-1.937-.447-1.066-.025-1.855.515-1.969.383-.057-.059.071-.291.415-.535a2.72 2.72 0 0 1 1.579-.466 2.61 2.61 0 0 1 1.539.516c.326.256.434.491.373.549zm-10.224 2.937a.99.99 0 0 1-.968.989.95.95 0 0 1-1.012-.906c.002-.537.43-.975.967-.99a.95.95 0 0 1 1.013.907zm-.235-2.628c-.125.128-.871-.436-1.937-.446s-1.855.515-1.97.383c-.056-.059.071-.291.416-.535a2.72 2.72 0 0 1 1.579-.467 2.62 2.62 0 0 1 1.54.516c.324.257.432.493.372.549zm3.733 8.245a7.11 7.11 0 0 1 1.737-.292c.273-.025.532-.076.579-.261a1.38 1.38 0 0 0-.172-.81l-.781-2.084a35.64 35.64 0 0 1-1.747-5.449 35.71 35.71 0 0 1 2.182 5.3l.748 2.1c.167.331.213.71.128 1.071a.68.68 0 0 1-.452.393 1.86 1.86 0 0 1-.464.059 6.9 6.9 0 0 1-1.758-.027zm-3.439-11.849c-.108.289-1.173.141-2.426.28-1.256.113-2.27.47-2.433.209-.073-.126.106-.4.517-.673 1.11-.687 2.475-.824 3.7-.373.457.19.689.421.642.557zm9.777-.299c-.185.244-.923 0-1.807 0-.884-.033-1.631.181-1.806-.071-.077-.122.038-.366.363-.6.892-.573 2.042-.55 2.911.058.315.245.42.494.339.613z" class="d"/><path d="M22.993 105.631c-.118-.053-4.756-1.468-4.66 3.282s4.845 3.673 4.851 3.537-.191-6.819-.191-6.819z" class="k"/><path d="M21.697 110.68c-.021-.015-.081.059-.22.127a.83.83 0 0 1-.618.025 2.05 2.05 0 0 1-.985-1.818 2.74 2.74 0 0 1 .208-1.189c.084-.303.312-.545.61-.648a.42.42 0 0 1 .493.217c.066.132.038.227.064.235s.1-.082.058-.277c-.029-.117-.097-.221-.193-.294-.133-.096-.298-.136-.46-.111-.395.086-.717.371-.85.753-.194.416-.283.872-.26 1.33a2.15 2.15 0 0 0 1.249 2.027c.26.07.537.018.754-.141.144-.121.167-.227.15-.236z" class="m"/><path d="M43.06 90.874c.756-.447-1.623-2.868-3.536-3.67-2.893-1.212-7.274-1.883-9.884-1.059-3.142.991-5.729 2.644-7.236 5.574-1.447 2.982-2.075 6.295-1.819 9.6a5.67 5.67 0 0 0 .753 2.882c.694 1.031 1.986 1.655 1.972 3.1a1.99 1.99 0 0 0 .536 1.435c.9.9 1.933 0 2.4-.885a13.76 13.76 0 0 0 1.071-6.248 13.9 13.9 0 0 0-.432-4.508l-.862-2.32c-.265-.794-.167-1.665.267-2.381a2.97 2.97 0 0 1 .375-.4c1.314-1.216 3.182-1.628 4.886-1.078 2.7.869 7.309 2.149 8.475 1.206a7.31 7.31 0 0 0 2.063-2.219zm-3.493 22.497c.03.078-.168.252-.565.362-1.07.254-2.191-.136-2.872-1-.242-.333-.29-.591-.218-.634.16-.1.727.606 1.723.935.986.365 1.868.166 1.932.337z" class="d"/><defs ><path id="B" d="M248.562 167.264c-.068.783-.246 1.553-.527 2.287a8.4 8.4 0 0 1-.844 2.191 8.45 8.45 0 0 1 .527-2.287 8.4 8.4 0 0 1 .844-2.191z"/><path id="C" d="M169.259 102.518c0 4.05-2.6 7.333-5.8 7.333h-3.732V95.185h3.731c3.204 0 5.801 3.283 5.801 7.333z"/><path id="D" d="M97.252 99.111l.96-.719 2.658 3.766-.961.719z"/><path id="E" d="M99.921 101.506c-.496.065-.85.512-.8 1.009-.051.498.304.945.8 1.01.496-.065.85-.512.8-1.009.051-.498-.304-.945-.8-1.01z"/><path id="F" d="M99.919 101.858a.6.6 0 0 0-.519.657.6.6 0 0 0 .519.657.6.6 0 0 0 .52-.657.6.6 0 0 0-.52-.657z"/></defs></svg>