<svg xmlns="http://www.w3.org/2000/svg" xmlns:xlink="http://www.w3.org/1999/xlink" width="950.067" height="534.598" xmlns:v="https://vecta.io/nano"><style><![CDATA[.Y{fill:#ffc727}.Z{opacity:.3}.a{fill:#ffdb72}.b{fill:#d6e1f1}.c{fill:#dbdbdb}.d{fill:#242a33}.e{fill-rule:evenodd}.f{fill:#cccbcb}.g{fill:#a6a6a6}.h{fill:#53729d}.i{fill:#232932}.j{fill:#99a7be}.k{fill:#505b6e}.l{fill:#7899cb}.m{fill:#e3efff}.n{fill:#fcd461}.o{fill:#414c5c}.p{fill:#fffdff}]]></style><rect width="173.371" height="116.476" fill="#fff" stroke="#e8f2ff" stroke-width="2" rx="3" x="607.244" y="323.928"/><path d="M727.549 48.187a7.67 7.67 0 0 1 2.4.752c2.622 1.287 4.573 3.63 5.364 6.442s.347 5.828-1.22 8.293c-.53.853-1.188 1.62-1.952 2.272a9.59 9.59 0 0 1-2.64 1.6 10.51 10.51 0 0 1-6.4.64c-2.165-.491-4.117-1.663-5.567-3.344a9.45 9.45 0 0 1-1.6-2.64 9.29 9.29 0 0 1-.784-2.88c-.232-1.846.039-3.719.784-5.424a10.16 10.16 0 0 1 9.247-6.127 7.52 7.52 0 0 1 2.5.336c0 .08-.9-.176-2.48-.112a10.1 10.1 0 0 0-6.127 2.416c-1.177.997-2.102 2.258-2.7 3.68a10.06 10.06 0 0 0-.688 5.167 9.38 9.38 0 0 0 .768 2.72 9.22 9.22 0 0 0 1.6 2.5 9.74 9.74 0 0 0 5.264 3.2 9.89 9.89 0 0 0 6.1-.592 8.91 8.91 0 0 0 2.5-1.6 8.75 8.75 0 0 0 1.856-2.144 9.85 9.85 0 0 0 1.6-4.959 10.03 10.03 0 0 0-5.375-9.279c-1.554-.693-2.469-.837-2.45-.917zm8.127-10.846c-.007-.117-.007-.235 0-.352V31.63l.08.1-9.231-2.016.16-.08-2.432 5.168v.1h-.112a23.05 23.05 0 0 0-6.015 1.072h-.192l-4.208-4.056h.32l-8 5.087v-.287l1.92 5.375v.128l-.1.112a23.47 23.47 0 0 0-3.5 4.991v.128h-5.855l.24-.208-2.048 9.231-.144-.3 5.152 2.432h.144v.16a23.3 23.3 0 0 0 1.04 6v.16l-.128.128-4.031 4.048v-.352l5.055 8-.336-.128 5.375-1.92h.16l.144.112a22.6 22.6 0 0 0 4.96 3.5c.08.112-.144-.256.16.256v5.7l-.224-.288 9.215 2.08-.32.16 2.448-5.167.08-.144h.176a22.78 22.78 0 0 0 5.983-1.04h.16l.128.128 4.048 4.032h-.352l8-5.039-.112.3-1.92-5.375v-.144l.112-.128c1.389-1.495 2.572-3.169 3.52-4.976v-.128h5.855l-.224.192 2.08-9.231.128.256-5.152-2.464h-.112v-.128a22.73 22.73 0 0 0-1.024-6.015v-.192l4.048-4.048v.224l-5.024-8h.16l-5.392 1.872a25.11 25.11 0 0 0-3.664-2.816l-.992-.592-.32-.208.352.16 1.008.544a23.08 23.08 0 0 1 3.744 2.784h-.1l5.36-1.952h.1v.1l5.087 8 .08.128-.1.1-3.84 3.872v-.192a22.91 22.91 0 0 1 1.072 6.127l-.112-.176 5.167 2.432.16.08v.176l-2.048 9.215v.192h-5.935l.224-.128a24 24 0 0 1-3.583 5.1v-.272l1.92 5.375.08.208-.192.112-8.192 5.184-.16-.16-4.016-3.984h.288a23.23 23.23 0 0 1-6.143 1.072l.24-.16-2.448 5.152-.1.208h-.224l-9.215-1.968h-.224v-5.935c.3.512.08.144.16.256a23.2 23.2 0 0 1-5.087-3.584h.288l-5.599 1.98-.112-.192-5.056-8-.128-.192.16-.16 4.032-4.048v.288a23.75 23.75 0 0 1-1.072-6.143l.16.24-5.119-2.528-.192-.1v-.208l2.08-9.215v-.208h5.9l-.224.128a23.77 23.77 0 0 1 3.6-5.072v.24l-1.9-5.391v-.16l.16-.112 8-5.04h.144l4.16 4.16h-.192c1.981-.62 4.037-.97 6.111-1.04l-.144.1 2.464-5.151v-.116h.112l9.2 2.128h.08v5.327a3.38 3.38 0 0 1-.123.368z" fill="#f2f8ff"/><g class="m"><path d="M774.125 346.691c0 .192-37.26.336-83.192.336s-83.192-.144-83.192-.336 37.244-.336 83.192-.336l83.192.336zm-152.242 15.904h51.467v51.467h-51.467zm157.613 75.25a2.79 2.79 0 0 1-.752 0h-2.176l-8 .1-26.334.112-26.333-.112-8-.1h-2.176a2.79 2.79 0 0 1-.752 0c.25-.028.502-.028.752 0h2.176l8-.112 26.333-.1 26.334.1 8 .112h2.177a3.43 3.43 0 0 1 .752 0zm1.647 11.503a3.52 3.52 0 0 1-.768 0h-2.224l-8.159.112-26.909.1-26.925-.1-8.159-.112h-2.224a3.52 3.52 0 0 1-.768 0 2.88 2.88 0 0 1 .768-.08h2.224l8.159-.1 26.925-.112 26.909.112 8.159.1h2.224a2.88 2.88 0 0 1 .768.08zm0 11.489a2.82 2.82 0 0 1-.768 0h-2.224l-8.159.1-26.909.112-26.925-.112-8.159-.1h-2.224a2.82 2.82 0 0 1-.768 0 3.52 3.52 0 0 1 .768 0h2.224l8.159-.112 26.925-.1 26.957.048 8.159.112h2.224a3.55 3.55 0 0 1 .72.052zm0 11.505a3.52 3.52 0 0 1-.768 0h-2.224l-8.159.112-26.909.1-26.925-.1-8.159-.112h-2.224a3.52 3.52 0 0 1-.768 0 2.85 2.85 0 0 1 .768-.08h2.224l8.159-.1 26.925-.112 26.909.112 8.159.1h2.224a2.85 2.85 0 0 1 .768.08z"/><path d="M686.431 15.199a46.81 46.81 0 0 1 10.015 7.023l10.639-3.792 10 15.79-8 8a45.56 45.56 0 0 1 2.08 12l10.207 4.8-4.128 18.3h-11.2a45.8 45.8 0 0 1-7.007 9.967l3.791 10.639-15.79 10-8-8c-3.888 1.234-7.924 1.94-12 2.1l-4.796 10.184-18.238-4.08V96.838c-3.624-1.881-6.976-4.244-9.967-7.023l-10.639 3.795-10.143-15.742 8-8c-1.24-3.866-1.961-7.879-2.144-11.935l-10.207-4.8 4.1-18.238h11.289a45.31 45.31 0 0 1 7.023-9.967l-3.793-10.641 15.79-10 8 8a45.82 45.82 0 0 1 12.015-2.1l4.8-10.191 18.238 4.1v11.2zm-16.078 21.469a20.03 20.03 0 0 0-15.891 35.928 20.03 20.03 0 0 0 28.461-27.08c-2.848-4.502-7.37-7.686-12.569-8.848z" opacity=".8" class="e"/><path d="M150.422 96.842H268.81s-10.463-19.038-40.924-16.27c-29.085 2.656-30.573-9.359-45.371-10.847s-27.165 9.867-32.093 27.117z"/></g><path d="M406.557 312.001h95.783s-8.463-15.406-33.117-13.167c-23.55 2.144-24.75-7.583-36.8-8.783s-21.882 7.984-25.866 21.95z" fill="#f5f5f5"/><rect width="305.068" height="204.275" fill="#fff" stroke="#e8f2ff" stroke-width="4" rx="3" x="574.403" y="44.67"/><g class="m"><path d="M574.403 62.901c0-.315 68.246-.546 152.408-.546l152.408.546c0 .315-68.224.546-152.408.546s-152.408-.151-152.408-.546z"/><use xlink:href="#B" class="Z"/><use xlink:href="#B" x="8.374" class="Z"/><use xlink:href="#B" x="16.631" class="Z"/><path d="M600.63 84.19H682v81.37h-81.37zm237.013 22.994c0 .315-31.75.546-70.891.546s-70.892-.231-70.892-.546 31.75-.546 70.892-.546l70.891.546z"/><use xlink:href="#C"/><use xlink:href="#C" y="15.118"/><path d="M779.666 152.565c-1.091.171-2.196.241-3.3.21l-8.987.168-29.608.168c-11.549 0-22.049 0-29.629-.168l-8.987-.168c-1.104.031-2.209-.039-3.3-.21a18.01 18.01 0 0 1 3.3-.21l8.987-.168 29.629-.168 29.608.168 8.987.168a18.01 18.01 0 0 1 3.3.21z"/><path d="M605.713 193.006h38.239v38.239h-38.239z" class="Z"/><path d="M675.071 193.006h38.239v38.239h-38.239zm69.358 0h38.239v38.239h-38.239zm69.359 0h38.239v38.239h-38.239z"/></g><rect width="271.765" height="110.39" fill="#fff" stroke="#fbd565" stroke-width="4" rx="3" x="92.358" y="118.25"/><g class="Y"><path d="M92.631 133.14c0-.231 60.749-.441 135.651-.441l135.693.441c0 .231-60.749.42-135.693.42s-135.651-.189-135.651-.42z"/><use xlink:href="#D" class="Z"/><use xlink:href="#D" x="6.803" class="Z"/><use xlink:href="#D" x="13.418" class="Z"/><path d="M115.457 151.072h65.642v65.642h-65.642zm229.871 17.598c0 .231-33.787.441-75.448.441s-75.448-.21-75.448-.441 33.787-.42 75.448-.42l75.448.42zm0 13.374c0 .231-33.787.42-75.448.42s-75.448-.189-75.448-.42 33.787-.441 75.448-.441l75.448.441zm-53.76 13.376a7.39 7.39 0 0 1-.987 0h-2.835l-10.394.126-34.354.126-34.333-.126-10.5-.126h-2.83a7.81 7.81 0 0 1-.987 0 3.4 3.4 0 0 1 .987 0h2.833l10.5-.147 34.333-.126 34.354.126 10.394.147h2.835a3.3 3.3 0 0 1 .984 0z"/></g><path d="M115.457 151.072h65.642v65.642h-65.642z" fill="#f5f5f5" class="Z"/><path d="M667.713 307.876h13.871v44.818h-13.871zm25.533-18.449h13.871v63.246h-13.871zm27.166-8.617h13.871v71.864h-13.871zm27.185-9.075h13.871v80.958h-13.871z" class="Y"/><g class="m"><path d="M281.492 343.884a7.68 7.68 0 0 1 2.4.752c2.622 1.287 4.573 3.63 5.364 6.442s.347 5.828-1.22 8.293a10.45 10.45 0 0 1-4.592 3.952 10.32 10.32 0 0 1-12.015-2.7c-.669-.79-1.209-1.681-1.6-2.64a9.27 9.27 0 0 1-.784-2.88c-.231-1.845.039-3.719.784-5.423a10.16 10.16 0 0 1 9.247-6.127 7.41 7.41 0 0 1 2.5.336 11.76 11.76 0 0 0-2.48-.112 10 10 0 0 0-6.127 2.416 9.81 9.81 0 0 0-2.7 3.68 10.06 10.06 0 0 0-.688 5.168 9.36 9.36 0 0 0 .768 2.72 9.22 9.22 0 0 0 1.6 2.5c2.822 3.242 7.424 4.272 11.359 2.544a8.91 8.91 0 0 0 2.5-1.6 9.17 9.17 0 0 0 1.872-2.144 10 10 0 0 0-3.808-14.239 10.82 10.82 0 0 0-2.38-.938zm8.127-10.895c-.007-.117-.007-.235 0-.352v-5.36l.08.1-9.231-2.016.16-.08-2.432 5.168v.1h-.112a23.06 23.06 0 0 0-6.015 1.072h-.112l-.08-.08-4.064-4.016h.048l-8 5.088.1-.272 1.92 5.375v.12l-.1.112a23.47 23.47 0 0 0-3.5 4.992v.128h-5.711l.24-.208-2.048 9.215-.144-.3 5.151 2.448.144.08v.16a24 24 0 0 0 1.04 6v.16l-.128.128-4.032 4.047v-.352l5.055 8-.336-.128 5.376-1.92h.176l.128.112a22.61 22.61 0 0 0 4.96 3.5c.08.112-.144-.256.16.256v5.7l-.224-.288 9.215 2.08-.32.16 2.448-5.168.08-.144h.176a22.67 22.67 0 0 0 5.983-1.04h.176l4.16 4.16h-.352l8-5.04-.112.3-1.92-5.375v-.144l.112-.128c1.389-1.495 2.572-3.169 3.52-4.976v-.127h5.855l-.224.192 2.08-9.231.128.256-5.151-2.464h-.112v-.128c-.07-2.042-.414-4.065-1.024-6.015v-.192l4.048-4.048v.224l-5.023-8h.16l-5.391 1.872c-1.132-1.049-2.359-1.992-3.664-2.816l-.992-.592-.32-.208.352.16 1.008.544a23.82 23.82 0 0 1 3.744 2.768h-.1l5.359-1.952h.1v.1l5.088 8v.112l-.1.112-4.016 4.048v-.192a22.91 22.91 0 0 1 1.072 6.127l-.112-.176 5.167 2.432.16.08v.176l-2.048 9.215v.192h-5.9l.224-.128a23.44 23.44 0 0 1-3.584 5.088v-.256l1.92 5.375.08.208-.192.112-8 5.056-.192.128-.16-.16-4.048-4.032h.288a23.23 23.23 0 0 1-6.143 1.072l.24-.16-2.448 5.151-.1.208h-.224l-9.215-2.064h-.224v-6.143c.3.512 0 .144.16.256a23.2 23.2 0 0 1-5.087-3.584h.288l-5.599 1.98-.112-.192-5.055-8-.128-.192.16-.16 4.032-4.048v.288a23.74 23.74 0 0 1-1.072-6.143l.16.224-5.1-2.368-.192-.1v-.208l2.08-9.215v-.208h6.111l-.208.128a23.17 23.17 0 0 1 3.584-5.072v.24l-1.9-5.392v-.176l.16-.1 8-5.039.144-.08.128.112 4.032 4.048h-.192c1.981-.62 4.037-.97 6.111-1.04l-.144.1 2.48-5.151v-.112h.112l9.2 2.128h.08v5.327a3.47 3.47 0 0 1-.234.451z"/><path d="M272.213 261.22a25.86 25.86 0 0 1 5.567 3.92l5.951-2.112 5.583 8.815-4.448 4.48c.682 2.179 1.075 4.438 1.168 6.719l5.7 2.7-2.291 10.151h-6.3a25.92 25.92 0 0 1-3.936 5.567l2.128 5.951-8.831 5.583-4.48-4.3c-2.173.68-4.425 1.073-6.7 1.168l-2.7 5.7-10.191-2.288v-6.3a25.6 25.6 0 0 1-5.567-3.936l-5.951 2.128-5.6-8.831 4.464-4.464a26.3 26.3 0 0 1-1.168-6.719l-5.7-2.7 2.272-10.191h6.287c1.052-2.023 2.37-3.895 3.92-5.567l-2.1-5.983 8.815-5.6 4.48 4.464a26.06 26.06 0 0 1 6.719-1.168l2.7-5.7 10.191 2.288v6.3zm-8.991 12a11.2 11.2 0 1 0 7.016 4.937 11.2 11.2 0 0 0-7.016-4.937zm-27.869 48.059a14.88 14.88 0 0 1 3.2 2.272l3.472-1.232 3.2 5.135-2.592 2.608c.399 1.264.63 2.575.688 3.9l3.312 1.6-1.166 5.923h-3.68a15.13 15.13 0 0 1-2.272 3.2l1.232 3.456-5.152 3.2-2.592-2.592a15.36 15.36 0 0 1-3.92.672l-1.6 3.328-5.935-1.344v-3.664a14.65 14.65 0 0 1-3.2-2.288l-3.472 1.232-3.2-5.136 2.591-2.608a15.12 15.12 0 0 1-.672-3.9l-3.328-1.6 1.328-5.935h3.472a15.44 15.44 0 0 1 2.288-3.2l-1.232-3.456 5.136-3.2 2.608 2.608a14.49 14.49 0 0 1 3.9-.688l1.6-3.312 5.935 1.328v3.68zm-5.232 6.975a6.53 6.53 0 0 0-6.774 2.601c-1.524 2.157-1.596 5.021-.184 7.254s4.03 3.394 6.633 2.942 4.676-2.428 5.253-5.006a6.53 6.53 0 0 0-4.928-7.791zm253.925 195.515c-65.576 0-118.733 2.421-118.733 5.413s53.158 5.421 118.733 5.421 118.733-2.424 118.733-5.416-53.16-5.413-118.733-5.413z" class="e"/></g><path fill="#f8c81e" stroke="#04072e" stroke-miterlimit="10" stroke-width="8" d="M435.157 267.016A96.95 96.95 0 0 0 384.545 352l.059 71.2c.03 53.182 43.563 96.669 96.742 96.636 53.182-.027 96.669-43.563 96.636-96.742l-.06-71.2c-.03-53.184-43.563-96.669-96.742-96.636a96.19 96.19 0 0 0-19.492 2" class="e"/><path d="M472.64 351.592c.555-15.89 16.611-15.9 17.185-.008 4.013 45.914 73.643 50.36 81.518 7.238 1.459-7.988 3.461-22.132 13.361-23.686q0-5.492-.005-10.984c-17.174-.374-33.405-5.635-50.4-5.159-22.812.658-30.573 10.753-53.073 12.362-22.5-1.581-30.272-11.669-53.087-12.3-17-.463-33.224 4.817-50.4 5.21v10.983c9.9 1.546 11.921 15.685 13.385 23.673 7.929 43.111 77.551 38.589 81.512-7.33zm23.828-.355c-.512-11.422 1.232-16.137 12.3-19.876 8.444-2.849 16.575-5.332 25.59-5.589 24.548-.709 35.03 5.37 30.191 31.832-6.475 35.426-64.528 31.4-68.078-6.366zm-30.459-.154c-3.523 37.939-61.574 42.033-68.086 6.61-4.866-26.454 5.608-32.544 30.156-31.865 9.02.249 17.152 2.721 25.6 5.565 11.068 3.729 12.82 8.438 12.332 19.69zm-15.527 59.931a3.09 3.09 0 0 0 3.538-4.056 3.09 3.09 0 0 0-2.382-2.01c-5.772-1.089-11.604 1.583-14.547 6.667a3.09 3.09 0 0 0 5.348 3.092c.272-.476.594-.922.961-1.33a41.32 41.32 0 0 0 75.736-.041 7.8 7.8 0 0 1 .964 1.324 3.09 3.09 0 0 0 4.192 1.082 3.09 3.09 0 0 0 1.151-4.174 13.83 13.83 0 0 0-14.544-6.653c-1.098.189-2.008.954-2.383 2.003s-.155 2.218.575 3.059 1.856 1.224 2.948 1.001a8.23 8.23 0 0 1 1.454-.136 35.15 35.15 0 0 1-64.455.035 7.85 7.85 0 0 1 1.443.135z" class="e"/><path d="M434.036 332.029c-11.053.008-20.006 8.975-19.998 20.027s8.974 20.006 20.027 19.999 20.007-8.973 19.999-20.026a20.01 20.01 0 0 0-20.028-20zm94.374-.052c-8.095.004-15.39 4.884-18.484 12.364a20.01 20.01 0 0 0 4.351 21.808c5.728 5.72 14.336 7.428 21.813 4.325s12.348-10.403 12.343-18.498a20.02 20.02 0 0 0-20.023-20z" fill="#fff" class="e"/><path d="M434.239 341.791a10.27 10.27 0 0 0-9.76 13.385c2.146-2.393 5.721-2.853 8.402-1.08s3.659 5.242 2.298 8.153a10.25 10.25 0 0 0 8.541-14.1 4.51 4.51 0 0 1-.4.022 3.48 3.48 0 0 1-3.477-3.48c-.004-.377.056-.752.176-1.11a10.2 10.2 0 0 0-5.787-1.787z" class="e"/><path fill="#313131" d="M528.221 341.74c-5.659.005-10.245 4.595-10.244 10.254 0 .765.086 1.527.257 2.272a6.48 6.48 0 0 1 9.749 7.967h.252a10.25 10.25 0 0 0 9.351-14.431c-1.078.487-2.328.394-3.322-.247s-1.595-1.742-1.596-2.924a3.52 3.52 0 0 1 .425-1.671c-1.497-.808-3.171-1.23-4.872-1.227z" class="e"/><path d="M388.927 245.461c4.705 4.049 9.929 7.453 15.533 10.122-18.273-14.8-15.958-25.344-9.659-53.81l1.815-8.362 1.519-7.26 3.5 6.588a4.3 4.3 0 0 1 .363.593c1.53 2.183 9.4 11.178 37.827 14.344l42.978 5.115c11.39 1.519 18.85 2.792 20.4 3.851 1.294.853 7.2 6.38 12.982 12.462a11.57 11.57 0 0 0-.528-3.669c-1.013-3.583-3.564-8.411-8.519-15.552l-3.306-4.761 5.984.969c9.554 1.5 16.413 4.349 21.561 8.192a37.83 37.83 0 0 1 11.3 13.954 63.75 63.75 0 0 1 3.834 9.307 67.96 67.96 0 0 0 1.806-9.177l.739-5.947 4.132 4.639c5.44 6.18 9.943 12.161 13.042 18.658 3.309 6.784 4.92 14.27 4.693 21.815l-.008.125-.011.125c-.571 4.116 6.188 17.707 6.7 33.113.6 18.173-5.684 40.885-5.684 40.885l-20.24-43.56c.006-.062-7.379-2-9.158-5.394a48.23 48.23 0 0 0-11.341-12.584c-3.4-2.643-7.258-4.7-11.116-5-11.371-.891-27.448.915-39.127 2.253l-.068-.005-.552.081-.531-.168-19.289-5.012a131.21 131.21 0 0 0-19.08-3.309c-3.859-.3-7.988 1.127-11.761 3.206-4.995 2.73-9.454 6.343-13.161 10.664-2.285 3.074-27.583 31.12-27.583 31.12s5.435-9.524 3.864-12.086c-8.473-13.545-7.558-27.489-8.492-54.7l-.2-6.144z"/><g transform="rotate(180 158.235 258.334)"><path fill="#e5f2f8" d="M227.743 87.292c0-1.789 1.329-3.24 6.6-3.24s12.481 1.451 12.481 3.24-7.215 3.242-12.481 3.242-6.6-1.452-6.6-3.242z"/><path d="M316.468 4.612C316.468 2.065 245.625 0 158.234 0S0 2.065 0 4.612s70.844 4.612 158.234 4.612 158.234-2.065 158.234-4.612z" class="h"/><use xlink:href="#E"/><path d="M139.967 32.25c0-15.264-9.789-27.638-21.864-27.638h-14.061v55.276h14.061c12.075 0 21.864-12.376 21.864-27.638z"/><ellipse cx="104.042" cy="32.25" rx="21.864" ry="27.638"/><ellipse cx="264.612" cy="32.25" rx="21.864" ry="27.638"/><path d="M14.748 20.392h215.295v44.987H14.748z"/><use xlink:href="#E" x="-65.4"/><path d="M316.471 52.546c-.31 3.307-7.732 16.686-27 24.665-19.691 8.155-49.329 8.364-49.329 8.364s-24.156 34.649-44.457 34.649h-73.074c-10.115-12.964 66.818-51.226 77.171-51.226 2.982 0 28.388-3.6 28.388-48.867h80.841c2.792 0 7.46 32.415 7.46 32.415z" class="a"/><use xlink:href="#E" x="-225.97"/><path d="M243.392 52.524v.014c0 2.928-7.309 16.518-27 24.672s-49.328 8.364-49.328 8.364-24.157 34.649-44.456 34.649C67.6 120.223 29 92.206 29 92.206c-8.6-.939-15.42-1.211-19.683-4.684C5.918 84.753 4.06 69.817 4.06 58.576c0-2.883-4.06-5.477-4.06-7.6 0-14.5 5.529-28.024 14.748-30.584V32.25c0 16.458 10.719 29.848 23.9 29.848s23.893-13.39 23.893-29.848v-8.356a3.71 3.71 0 0 1 3.649-3.763h105.474a3.71 3.71 0 0 1 3.655 3.763v8.356c0 16.458 10.719 29.848 23.894 29.848s23.894-13.39 23.894-29.848v-8.356a3.71 3.71 0 0 1 3.654-3.763h9.172c2.79 0 7.456 31.014 7.459 32.393z" class="Y"/><path d="M70.639 93.065c-6.294 3.58-5.436 13.168 1.434 15.357 16.333 5.262 33.379 7.973 50.538 8.037 11.895 0 29.871-16.958 37.771-31.639.305-.564.295-1.245-.026-1.8s-.907-.903-1.548-.919c-53.856-.11-76.897 4.552-88.169 10.964z" class="h"/><ellipse cx="38.642" cy="32.25" rx="21.864" ry="27.638" class="i"/><use xlink:href="#F" class="g"/><path d="M41.803 36.067h-2.591c-1.389-.332-2.189-1.947-2.189-3.808 0-1.735 2.189-3.8 2.189-3.8h2.591c1.66 0 3.009 1.707 3.009 3.8s-1.349 3.808-3.009 3.808z" class="b"/><g class="f"><path d="M38.748 13.521h4.472V32.25h-4.472z"/><path d="M25.578 29.515l14.714 4.927 1.383-4.38-14.714-4.927z"/><path d="M29.157 45.094l3.618 2.708L42.79 33.605l-3.618-2.708z"/><path d="M39.175 33.605L47.6 45.54l3.618-2.708-8.425-11.935z"/><path d="M40.293 30.058l1.382 4.38 11.803-3.95-1.382-4.38z"/></g><path d="M39.212 36.067c-1.66 0-3.009-1.708-3.009-3.808s1.349-3.8 3.009-3.8 3.009 1.707 3.009 3.8-1.35 3.808-3.009 3.808z" class="j"/><path d="M27.625 32.251c0-9.192 5.515-16.782 12.581-17.766a11.2 11.2 0 0 0-1.563-.116c-7.8 0-14.145 8.021-14.145 17.882s6.345 17.88 14.145 17.88a11.34 11.34 0 0 0 1.564-.116c-7.067-.988-12.582-8.574-12.582-17.764z" class="f"/><g class="c"><path d="M36.976 13.521h4.472V32.25h-4.472z"/><path d="M23.807 29.515l14.714 4.927 1.383-4.38-14.714-4.927z"/><path d="M27.385 45.094l3.618 2.708 10.014-14.197-3.618-2.708z"/><path d="M37.403 33.605l9.445 13.388 3.618-2.708-9.445-13.388z"/><path d="M38.522 30.06l1.382 4.381 13.576-4.543-1.382-4.381z"/></g><path d="M54.712 32.25c0 11.219-7.2 20.313-16.069 20.313s-16.07-9.094-16.07-20.313 7.195-20.313 16.07-20.313 16.069 9.095 16.069 20.313zm-1.488 0c0-10.165-6.541-18.433-14.581-18.433s-14.582 8.269-14.582 18.434 6.542 18.431 14.582 18.431 14.581-8.269 14.581-18.431z" class="b"/><path d="M54.231 32.246c0 10.882-6.979 19.705-15.589 19.705s-15.588-8.818-15.588-19.705 6.979-19.7 15.589-19.7 15.588 8.822 15.588 19.7zm-1.445 0c0-9.86-6.345-17.882-14.144-17.882s-14.144 8.027-14.144 17.887 6.345 17.88 14.145 17.88 14.144-8.022 14.144-17.88z" class="c"/><use xlink:href="#G" class="k"/><ellipse cx="199.212" cy="32.25" rx="21.864" ry="27.638" class="i"/><use xlink:href="#F" x="160.57" class="g"/><path d="M202.373 36.067h-2.591c-1.389-.332-2.189-1.947-2.189-3.808 0-1.735 2.189-3.8 2.189-3.8h2.591c1.66 0 3.01 1.707 3.01 3.8s-1.35 3.808-3.01 3.808z" class="b"/><g class="f"><path d="M199.318 13.521h4.472V32.25h-4.472z"/><path d="M186.147 29.515l14.715 4.924 1.382-4.38-14.715-4.924z"/><path d="M189.727 45.094l3.618 2.708 10.014-14.197-3.618-2.708z"/><path d="M199.744 33.605l8.429 11.933 3.617-2.709-8.429-11.933z"/><path d="M200.863 30.058l1.382 4.38 11.803-3.95-1.382-4.38z"/></g><path d="M199.782 36.067c-1.659 0-3.009-1.708-3.009-3.808s1.35-3.8 3.009-3.8 3.01 1.707 3.01 3.8-1.351 3.808-3.01 3.808z" class="j"/><path d="M188.195 32.251c0-9.192 5.515-16.782 12.581-17.766a11.21 11.21 0 0 0-1.563-.116c-7.8 0-14.145 8.021-14.145 17.882s6.345 17.88 14.145 17.88c.523-.003 1.046-.041 1.564-.116-7.067-.988-12.582-8.574-12.582-17.764z" class="f"/><g class="c"><path d="M197.546 13.521h4.472V32.25h-4.472z"/><path d="M184.376 29.515l14.714 4.927 1.383-4.38-14.714-4.927z"/><path d="M187.955 45.094l3.618 2.708 10.014-14.197-3.618-2.708z"/><path d="M197.973 33.605l9.449 13.385 3.617-2.709-9.449-13.385z"/><path d="M199.092 30.06l1.382 4.381 13.576-4.543-1.382-4.381z"/></g><path d="M215.282 32.25c0 11.219-7.195 20.313-16.069 20.313s-16.07-9.094-16.07-20.313 7.194-20.313 16.069-20.313 16.07 9.095 16.07 20.313zm-1.488 0c0-10.165-6.541-18.433-14.581-18.433s-14.582 8.269-14.582 18.434 6.541 18.431 14.581 18.431 14.581-8.269 14.581-18.431z" class="b"/><path d="M214.801 32.246c0 10.882-6.979 19.705-15.589 19.705s-15.588-8.818-15.588-19.705 6.979-19.7 15.588-19.7 15.589 8.822 15.589 19.7zm-1.444 0c0-9.86-6.345-17.882-14.145-17.882s-14.144 8.027-14.144 17.887 6.345 17.88 14.144 17.88 14.145-8.022 14.145-17.88z" class="c"/><use xlink:href="#G" x="160.57" class="k"/><path d="M230.043 52.531v-32.4h78.968c2.774 0 7.4 32 7.457 32.4z" class="Y"/><path d="M243.393 52.524v.014l-26.7.032c4.254-5.914 6.502-13.035 6.413-20.32v-8.356a3.71 3.71 0 0 1 3.655-3.763h9.172c2.79 0 7.46 31.014 7.46 32.393zM0 50.98c0-14.504 5.529-28.028 14.748-30.588V32.25c0 10.224 4.139 19.262 10.432 24.643-7.793.5-14.912 1.06-21.12 1.683C4.06 55.692 0 53.099 0 50.98zm62.537-18.73v-8.356a3.71 3.71 0 0 1 3.654-3.763h105.474a3.71 3.71 0 0 1 3.654 3.763v8.356a34.02 34.02 0 0 0 6.547 20.494l-128.175 2.67c5.393-5.478 8.846-13.825 8.846-23.164z" class="n"/><path d="M234.126 66.102c6.559-6.051 9.268-11.781 9.268-13.563l18.067.024c-3.249 11.501-19.083 13.539-27.335 13.539zm73.768-.723c-4.882-1.294-8.922-4.682-9.511-12.816h18.085c-.191 1.924-2.751 7.181-8.574 12.816z" fill="#fefdfe"/><path d="M292.418 63.718a57.81 57.81 0 0 1-20.144 13.492c-19.691 8.155-49.328 8.364-49.328 8.364h-29.114s29.637-.209 49.328-8.364a57.8 57.8 0 0 0 20.144-13.492c4.819-5.119 33.928-5.119 29.114 0z" class="n"/><path d="M292.418 63.719a57.81 57.81 0 0 1-20.144 13.491c-19.69 8.155-49.328 8.364-49.328 8.364h-2.38s29.637-.209 49.328-8.364c7.592-3.023 14.458-7.621 20.143-13.491 2.279-2.42-3.028-3.694-9.765-3.826 7.794-.148 14.687 1.126 12.146 3.826z" class="Y"/><path d="M204.721 116.459H138.95c16.475-8.964 31.77-30.885 31.77-30.885h66.99s-16.514 21.921-32.989 30.885z" class="l"/><path d="M105.864 31.766h43.8c14.002 0-10.763 12.014-46.691 12.014-21.32 0-21.468-12.014 2.891-12.014z" class="Y"/><path d="M4.881 71.552h-.1a123.37 123.37 0 0 1-.7-10.9h.8a5.16 5.16 0 0 1 5.082 5.235v.43a5.16 5.16 0 0 1-5.082 5.235z" fill="#ff636d"/><path d="M228.383 23.165a2.47 2.47 0 0 0-2.468 2.508v6.577c0 18.267-11.9 33.129-26.521 33.129s-26.522-14.862-26.522-33.129v-6.59a2.48 2.48 0 0 0-2.452-2.511c-36.533.182-71.985.875-103.159 2.782-.662.052-1.275.369-1.699.88s-.623 1.172-.552 1.832c1.69 19.876-10.791 36.734-26.366 36.734-13.94 0-25.4-13.5-26.444-30.586a2.44 2.44 0 0 0-2.722-2.334c-2.84.417-5.812 1.431-7.1 2.737 2.453-7.522 6.713-13.231 12.371-14.802V32.25c0 16.458 10.719 29.848 23.9 29.848s23.893-13.39 23.893-29.848v-8.356c-.012-1.644 1.052-3.103 2.622-3.594v.073c.315-.171.669-.254 1.027-.242h105.473a2.16 2.16 0 0 1 1.208.3v-.073c1.478.547 2.456 1.96 2.446 3.536v8.356c0 16.458 10.719 29.848 23.895 29.848s23.894-13.39 23.894-29.848v-8.356c-.015-1.718 1.144-3.224 2.808-3.651v.04c.269-.108.557-.16.846-.152h9.172c.552 0 1.177 1.225 1.825 3.181-3.537-.003-6.18-.097-9.375-.147z" class="a"/><path d="M157.021 90.332c-8.894 13.1-23.985 26.127-34.411 26.127a164.88 164.88 0 0 1-42.766-5.759c14.873-10.733 46.5-18.315 77.177-20.368z" class="h"/><path d="M170.508 116.459c14.387-11.199 35.616-17.396 56.741-18.651-6.172 6.567-14.353 14.2-22.528 18.651z" class="l"/><g class="d"><path d="M204.721 116.459h-2.736c16.476-8.964 32.989-30.885 32.989-30.885h2.736s-16.513 21.921-32.989 30.885zM73.282 93.065c-6.3 3.58-5.44 13.168 1.43 15.357a167.37 167.37 0 0 0 48.448 8.013c-.182.008-.369.024-.549.024-17.159-.064-34.205-2.775-50.538-8.037-6.87-2.189-7.728-11.777-1.434-15.357 11.272-6.411 34.313-11.074 88.169-10.964h.013c-51.967.048-74.458 4.658-85.539 10.964z"/><path d="M80.207 89.382l5.415 22.551.593-.147L80.8 89.235zm80.178-4.562l-3.3 5.414c-.5-3.185-2.155-6.075-4.649-8.118l6.371-.014c.641.015 1.228.363 1.55.917a1.84 1.84 0 0 1 .028 1.801zm-9.659-6.623c-.406.001-.784.206-1.006.546l-4.039 6.077a1.28 1.28 0 0 0 .316 1.745 1.2 1.2 0 0 0 1.693-.327l4.039-6.078c.381-.572.241-1.342-.316-1.744a1.19 1.19 0 0 0-.687-.219z"/></g><path fill="#95bcf0" d="M149.507 87.292c0-1.789-1.328-3.24-6.6-3.24s-12.481 1.451-12.481 3.24 7.214 3.242 12.483 3.242 6.598-1.452 6.598-3.242z"/><path fill="#cbddf5" d="M148.626 89.267c-.912.768-2.639 1.262-5.717 1.262-5.269 0-12.483-1.447-12.483-3.238 0-.4.372-.777.985-1.13a54.31 54.31 0 0 1 7.924-.632c6.614 0 8.855 1.61 9.291 3.738z"/><path d="M95.551 74.184c-.049 0-.098.003-.147.009L83.062 75.72c-.679.095-1.154.72-1.063 1.4a1.22 1.22 0 0 0 1.354 1.1l12.337-1.536c.679-.095 1.155-.72 1.064-1.4a1.23 1.23 0 0 0-1.203-1.1z" class="d"/></g><path d="M885.334 424.82h9.324c.731-.013 1.418-.349 1.878-.917s.645-1.31.505-2.028l-.776-4.358a2.73 2.73 0 0 0-2.664-2.286h-8.267a2.46 2.46 0 0 0-2.422 2.495v4.6a2.46 2.46 0 0 0 2.422 2.494z" class="a"/><path d="M777.139 390.635l.626-.645a6.86 6.86 0 0 1 4.923-2.1h69.158c1.792.004 3.512.71 4.79 1.966l.8.779z" class="o"/><path d="M772.92 390.635l.627-.645a6.86 6.86 0 0 1 4.922-2.1h69.159c1.792.004 3.511.71 4.789 1.966l.8.779z" class="d"/><ellipse cx="800.01" cy="512.332" rx="150.056" ry="4.123" class="h"/><path d="M932.603 485.563c0 14.784-9.48 26.768-21.175 26.768h-13.625v-53.535h13.618c11.7 0 21.182 11.983 21.182 26.767z"/><ellipse cx="897.808" cy="485.564" rx="21.176" ry="26.768"/><path d="M798.358 485.563c0 14.784-9.481 26.768-21.177 26.768h-13.617v-53.535h13.617c11.696 0 21.177 11.983 21.177 26.767z"/><ellipse cx="763.564" cy="485.564" rx="21.176" ry="26.768"/><use xlink:href="#H"/><use xlink:href="#H" x="-134.244"/><path d="M735.073 491.96c-4.288 0-8.894-9.161-8.894-14.723v-15.236l3.018-4.908v-22.835c0-4.417 23.082-43.623 34.889-43.623h93.912c11.277 0 34.094 33.663 34.094 33.663s27.8 2 36.057 3.143 17.471 1.26 17.471 12v18.627l2.681 4.931a14.6 14.6 0 0 1 1.765 6.97v10.262c0 5.725-3.97 11.728-8.02 11.728z" class="a"/><path d="M949.176 464.957a14.56 14.56 0 0 0-.875-1.956l-2.682-4.932V439.44a13.85 13.85 0 0 0-.473-3.756h-96.534v56.276h93.434c2.136 0 4.244-1.678 5.765-4.1q.275-.438.523-.906c1.108-2.071 1.701-4.378 1.732-6.726V469.97c-.003-1.71-.305-3.406-.89-5.013z" class="Y"/><path d="M727.483 483.384c1.672 4.414 4.7 8.576 7.589 8.576h206.973c3.3 0 6.553-4 7.639-8.576z" class="o"/><path d="M948.301 463.001l-2.681-4.932H821.901v8.6h127.774a14.49 14.49 0 0 0-1.374-3.668z" class="a"/><path d="M858.309 441.677H657.544l5.819 50.283h200.765z"/><path d="M870.771 463.001l-2.681-4.931v-18.628c0-10.741-9.212-10.856-17.471-12s-36.057-3.143-36.057-3.143-22.818-33.663-34.095-33.663h-88.093c-11.806 0-34.888 34.062-34.888 48.845v17.609l-1.412 2.295c-1.052 1.717-1.608 3.692-1.607 5.706v12.147c0 5.562 4.606 14.723 8.895 14.723h8.542l2.907-23.651c.868-7.929 7.516-13.965 15.492-14.064h10.74c7.968.098 14.612 6.12 15.49 14.04l2.947 23.676h86.669l2.907-23.651c.867-7.933 7.519-13.971 15.498-14.067h10.739c7.967.099 14.611 6.121 15.489 14.04l2.945 23.676h10.793c4.05 0 8.021-6 8.021-11.728V469.97a14.6 14.6 0 0 0-1.77-6.969z" class="Y"/><ellipse cx="695.663" cy="485.564" rx="21.176" ry="26.768" class="i"/><path d="M695.658 501.372c-6.9 0-12.506-7.092-12.506-15.808s5.615-15.809 12.506-15.809 12.506 7.092 12.506 15.811-5.606 15.806-12.506 15.806z" class="g"/><path d="M698.457 488.939h-2.291c-1.232-.294-1.935-1.722-1.935-3.363 0-1.537 1.935-3.364 1.935-3.364h2.291c1.467 0 2.66 1.509 2.66 3.364s-1.193 3.363-2.66 3.363z" class="b"/><path d="M696.166 488.939c-1.466 0-2.661-1.509-2.661-3.363s1.194-3.364 2.661-3.364 2.661 1.509 2.661 3.364-1.194 3.363-2.661 3.363z" class="j"/><g class="f"><path d="M685.922 485.564c0-8.127 4.876-14.835 11.123-15.708-.458-.065-.92-.099-1.382-.1-6.9 0-12.506 7.092-12.506 15.811s5.61 15.808 12.506 15.808a10.06 10.06 0 0 0 1.382-.1c-6.247-.878-11.123-7.586-11.123-15.711z"/><path d="M697.228 485.563l-1.477-16.557h5.079l-1.477 16.559z"/></g><path d="M697.964 486.605l-13.467-2.907 1.57-4.976 12.554 5.8z" class="g"/><g class="f"><path d="M699.151 486.206l-7.6 13.364-4.11-3.076 9.991-11.574z"/><path d="M699.145 484.92l8.247 9.1-4.11 3.075-5.855-10.891z"/><path d="M697.963 484.523l9.421-4.753 1.569 4.976-10.334 1.858z"/></g><g class="c"><path d="M695.105 485.563l-1.478-16.557h5.08l-1.478 16.559z"/><path d="M695.838 486.605l-13.466-2.907 1.569-4.976 12.553 5.8z"/><path d="M697.027 486.206l-7.6 13.364-4.11-3.076 9.99-11.574z"/><path d="M697.026 484.92l9.544 10.941-4.109 3.075-7.154-12.73z"/><path d="M695.838 484.523l11.546-5.464 1.569 4.976-12.459 2.57z"/></g><path d="M695.663 467.604c-7.847 0-14.208 8.041-14.208 17.96s6.361 17.959 14.208 17.959 14.207-8.04 14.207-17.959-6.361-17.96-14.207-17.96zm0 34.256c-7.11 0-12.891-7.311-12.891-16.3s5.782-16.3 12.891-16.3 12.891 7.311 12.891 16.3-5.783 16.302-12.891 16.302z" class="b"/><path d="M695.663 468.141c-7.611 0-13.783 7.8-13.783 17.423s6.171 17.421 13.783 17.421 13.783-7.8 13.783-17.421-6.172-17.423-13.783-17.423zm0 33.231c-6.9 0-12.505-7.092-12.505-15.808s5.609-15.81 12.505-15.81 12.506 7.092 12.506 15.81-5.61 15.808-12.506 15.808z" class="c"/><use xlink:href="#I" class="k"/><path d="M656.075 459.386a10.91 10.91 0 0 0-1.607 5.706v12.148c0 5.562 4.606 14.722 8.895 14.722h8.542l2.907-23.652a16.13 16.13 0 0 1 6.529-11.137l-23.854-.082zm60.458 8.901l2.946 23.676h86.669l2.907-23.651a16.16 16.16 0 0 1 5.69-10.481l-104.549-.526a16.15 16.15 0 0 1 6.337 10.982zm154.239-5.285l-2.682-4.932-22.833-.1c3.064 2.629 5.033 6.31 5.52 10.318l2.946 23.672h10.793c4.05 0 8.021-6 8.021-11.728v-10.256a14.6 14.6 0 0 0-1.765-6.974z" class="n"/><ellipse cx="829.908" cy="485.564" rx="21.176" ry="26.768" class="i"/><path d="M829.908 501.372c-6.9 0-12.506-7.092-12.506-15.808s5.611-15.811 12.506-15.811 12.506 7.092 12.506 15.811-5.61 15.808-12.506 15.808z" class="g"/><path d="M832.702 488.939h-2.291c-1.233-.294-1.937-1.722-1.937-3.363 0-1.537 1.937-3.364 1.937-3.364h2.291c1.467 0 2.66 1.509 2.66 3.364s-1.193 3.363-2.66 3.363z" class="b"/><path d="M830.411 488.939c-1.468 0-2.66-1.509-2.66-3.363s1.193-3.364 2.66-3.364 2.66 1.509 2.66 3.364-1.193 3.363-2.66 3.363z" class="j"/><g class="f"><path d="M820.167 485.564c0-8.127 4.877-14.835 11.125-15.708-.458-.065-.921-.099-1.384-.1-6.9 0-12.506 7.092-12.506 15.811s5.611 15.808 12.506 15.808a10.1 10.1 0 0 0 1.384-.1c-6.248-.878-11.125-7.586-11.125-15.711z"/><path d="M831.474 485.563l-1.478-16.557h5.08l-1.478 16.559z"/><path d="M832.206 486.605l-13.466-2.907 1.57-4.976 12.552 5.8z"/><path d="M833.397 486.206l-7.6 13.364-4.11-3.076 9.991-11.574z"/><path d="M833.396 484.92l8.247 9.1-4.109 3.075-5.854-10.889z"/><path d="M832.208 484.523l9.421-4.753 1.569 4.976-10.334 1.858z"/></g><g class="c"><path d="M829.35 485.563l-1.478-16.557h5.08l-1.477 16.559z"/><path d="M830.083 486.605l-13.467-2.907 1.57-4.976 12.553 5.8z"/><path d="M831.271 486.206l-7.6 13.364-4.109-3.076 9.99-11.574z"/><path d="M831.268 484.92l9.544 10.941-4.109 3.075-7.154-12.73z"/><path d="M830.083 484.523l11.546-5.464 1.569 4.976-12.459 2.57z"/></g><path d="M829.907 467.604c-7.847 0-14.207 8.041-14.207 17.96s6.36 17.959 14.207 17.959 14.208-8.04 14.208-17.959-6.361-17.96-14.208-17.96zm0 34.256c-7.109 0-12.892-7.311-12.892-16.3s5.783-16.3 12.892-16.3 12.892 7.311 12.892 16.3-5.783 16.302-12.892 16.302z" class="b"/><path d="M829.908 468.141c-7.612 0-13.782 7.8-13.782 17.423s6.17 17.421 13.782 17.421 13.783-7.8 13.783-17.421-6.171-17.423-13.783-17.423zm0 33.231c-6.9 0-12.506-7.092-12.506-15.808s5.61-15.81 12.506-15.81 12.506 7.092 12.506 15.81-5.61 15.808-12.506 15.808z" class="c"/><use xlink:href="#I" x="134.248" class="k"/><path d="M713.66 491.96h92.489l1.054-8.576h-94.61zm-50.298 0h8.542l1.054-8.576h-17.186c1.672 4.414 4.7 8.576 7.59 8.576zm189.293-8.576l1.068 8.576h10.792c3.3 0 6.554-4 7.64-8.576z" class="d"/><path d="M822.623 443.275h-.047l-152.919-2.079a3.6 3.6 0 0 1 .094-7.192l152.919 2.082a3.6 3.6 0 0 1-.046 7.192z" class="Y"/><path fill="#ffedb9" d="M879.838 442.224h58.767v15.845h-58.767z"/><path d="M868.09 458.069h21.245c1.058 0 1.847-1.338 1.625-2.759l-2.418-9.49c-.328-2.1-1.679-3.6-3.242-3.6h-17.21c-3.382.005 0 15.849 0 15.849z" class="p"/><path fill="#ffd17a" d="M868.089 442.225h-3.816c-2.229 0-2.784 7.388-2.784 15.844h6.6z"/><path d="M945.619 442.224h-11.631c-1.21 0-2.255 1.5-2.509 3.6l-1.872 9.489c-.172 1.419.439 2.758 1.258 2.758h14.755z" class="p"/><g class="Y"><rect width="3.233" height="34.983" rx="1.281" transform="matrix(0 -1 1 0 893.322 456.07)"/><rect width="3.233" height="34.983" rx="1.281" transform="matrix(0 -1 1 0 893.322 451.764)"/><rect width="3.233" height="34.983" rx="1.281" transform="matrix(0 -1 1 0 893.322 447.458)"/></g><path d="M662.58 457.113s.783-14.836-5.094-14.836v14.813z" fill="#ff636d"/><path d="M699.609 390.635l.627-.645a6.86 6.86 0 0 1 4.923-2.1h69.157c1.793.004 3.512.71 4.791 1.966l.8.779z" class="o"/><path d="M695.39 390.635l.627-.645a6.86 6.86 0 0 1 4.923-2.1h69.158c1.792.004 3.512.709 4.79 1.966l.8.779z" class="d"/><path d="M818.053 424.298h71.71s-15.987-23.579-27.811-31.263h-71.71c11.823 7.684 27.811 31.263 27.811 31.263z" class="l"/><g class="p"><ellipse cx="882.311" cy="475.084" rx="3.477" ry="4.199"/><path d="M948.149 475.084c0 2.32-1.556 4.2-3.476 4.2s-3.477-1.88-3.477-4.2 1.557-4.2 3.477-4.2 3.476 1.881 3.476 4.2z"/></g><path d="M780.468 394.232H698.08c-3.315 0-10.686 5.44-19.037 17.384l-.1.149c-4.247 6.1.07 14.592 7.355 14.592h121.076a2.3 2.3 0 0 0 1.8-3.643c-13.856-19.612-25.001-28.482-28.706-28.482z" class="l"/><path d="M680.798 411.765l.1-.149c8.352-11.944 15.723-17.384 19.038-17.384h-1.856c-3.315 0-10.686 5.44-19.037 17.384l-.1.149c-4.247 6.1.07 14.592 7.355 14.592h1.861c-7.292 0-11.608-8.496-7.361-14.592z" class="d"/><path d="M745.407 442.523c-.158-.002-.287-.129-.29-.287l-.269-7.195c-.006-.108.048-.211.141-.267s.209-.056.302 0 .147.159.141.267l.267 7.171a.3.3 0 0 1-.279.311zm-42.885-.582a.3.3 0 0 1-.291-.292l-.173-7.2a.29.29 0 1 1 .582 0l.171 7.187a.3.3 0 0 1-.283.308zm99.53 1.353a.3.3 0 0 1-.291-.3l-.09-7.2a.29.29 0 1 1 .582 0l.09 7.191a.3.3 0 0 1-.287.3z" class="a"/><g class="d"><path d="M701.043 450.648h-10.739a19.35 19.35 0 0 0-18.956 17.209l-2.95 24a3.23 3.23 0 0 0 .783.1h2.724l2.907-23.651c.868-7.929 7.516-13.964 15.492-14.064h10.739c7.967.098 14.612 6.121 15.49 14.04l2.946 23.676h3.519l-3-24.133c-1.094-9.681-9.214-17.039-18.955-17.177zm134.241 0h-10.74a19.35 19.35 0 0 0-18.957 17.209l-2.961 24.1h3.522l2.907-23.651c.868-7.93 7.517-13.965 15.493-14.064h10.74c7.967.098 14.611 6.121 15.489 14.04l2.946 23.676h3.516l-3-24.133c-1.094-9.68-9.214-17.038-18.955-17.177zm-27.91-23.99H686.29c-3.532-.017-6.747-2.043-8.286-5.222-1.614-3.156-1.347-6.946.695-9.844l.1-.149c8.412-12.03 15.888-17.51 19.274-17.51h82.391c4.231 0 15.813 10.026 28.945 28.606a2.64 2.64 0 0 1 .207 2.7 2.5 2.5 0 0 1-2.242 1.419zm-109.3-32.126c-3.242 0-10.51 5.4-18.8 17.26l-.1.147c-1.914 2.714-2.164 6.266-.65 9.222 1.441 2.982 4.455 4.884 7.767 4.9h121.083a1.9 1.9 0 0 0 1.726-1.093c.338-.667.278-1.466-.157-2.074-13.825-19.561-24.974-28.359-28.475-28.359z"/><path d="M707.735 426.356h-5.16l4.051-32.125h5.16zm42.227 0h-5.161l1.724-32.125h5.16zm59.216-3.642c-2.889-4.087-5.651-7.681-8.26-10.852l-2.076 14.5h8.531a2.3 2.3 0 0 0 1.805-3.648z"/></g><g class="a"><path d="M716.726 438.044c0 2.182-1.142 2.732-5.705 2.731s-5.706-.549-5.706-2.731 1.141-2.728 5.706-2.73 5.704.549 5.705 2.73z"/><path d="M711.02 437.962a28.8 28.8 0 0 0-5.694.4c.116 1.916 1.366 2.411 5.694 2.413s5.581-.5 5.7-2.417a28.7 28.7 0 0 0-5.7-.396zm48.36.676c0 2.183-1.141 2.732-5.705 2.73s-5.706-.549-5.705-2.73 1.141-2.729 5.705-2.73 5.704.548 5.705 2.73z"/><path d="M753.675 438.556c-1.907-.055-3.814.079-5.694.4.115 1.915 1.366 2.411 5.694 2.413s5.581-.5 5.695-2.416a28.69 28.69 0 0 0-5.695-.397z"/></g><path d="M889.763 424.597h-71.71c-.096 0-.185-.048-.238-.128-.16-.236-16.089-23.617-27.728-31.181a.3.3 0 0 1-.124-.336c.034-.127.148-.216.28-.217h71.71a.28.28 0 0 1 .156.047c11.738 7.628 27.733 31.108 27.893 31.345.062.092.07.211.019.31a.29.29 0 0 1-.258.16zm-71.56-.6h71c-2.323-3.357-16.621-23.654-27.333-30.664h-70.655c11.19 7.827 25.722 28.819 26.988 30.665zm-21.216-6.455h3.717a1.3 1.3 0 1 1 0 2.6h-3.717v-2.6zm0 3.92h3.717a1.3 1.3 0 1 1 0 2.6h-3.717v-2.6z" class="d"/><path d="M795.463 424.82h-9.324c-.731-.013-1.418-.349-1.878-.917s-.645-1.31-.505-2.028l.776-4.358a2.73 2.73 0 0 1 2.664-2.286h8.267a2.46 2.46 0 0 1 2.423 2.495v4.6a2.46 2.46 0 0 1-2.423 2.494z" class="Y"/><path d="M795.463 415.232h-8.267a2.73 2.73 0 0 0-2.664 2.286l-.776 4.358a2.54 2.54 0 0 0 0 .832h10.128c1.536-.023 2.762-1.286 2.74-2.822v-4.335c-.353-.206-.753-.316-1.161-.319z" class="a"/><g fill="#fff"><path d="M605.691 309.232l16.902-48.303-2.374-1.178c-6.737-3.342-12.91-7.216-18.345-11.515-5.427-4.292-10.112-9.003-13.925-14.001-3.852-5.048-6.815-10.395-8.81-15.89-2.04-5.624-3.075-11.438-3.075-17.279a50.21 50.21 0 0 1 2.126-14.41c1.381-4.613 3.446-9.157 6.137-13.505 2.66-4.299 5.958-8.45 9.803-12.341 3.831-3.877 8.237-7.526 13.096-10.847 4.879-3.335 10.252-6.365 15.97-9.006 5.79-2.674 11.983-4.97 18.407-6.828 13.396-3.873 27.633-5.837 42.316-5.837s28.92 1.964 42.317 5.837c6.423 1.857 12.616 4.154 18.405 6.828 5.72 2.64 11.093 5.671 15.972 9.006 4.858 3.32 9.264 6.97 13.095 10.847 3.846 3.89 7.144 8.042 9.804 12.34 2.691 4.35 4.756 8.893 6.137 13.506 1.41 4.712 2.126 9.56 2.126 14.41a50.25 50.25 0 0 1-2.126 14.411c-1.381 4.613-3.446 9.157-6.137 13.506-2.66 4.298-5.958 8.45-9.804 12.341-3.83 3.876-8.237 7.526-13.095 10.847-4.88 3.335-10.253 6.364-15.971 9.005-5.79 2.674-11.983 4.971-18.406 6.828-13.396 3.873-27.634 5.837-42.317 5.837-14.13 0-27.87-1.823-40.839-5.419l-1.834-.508-35.555 41.317z"/><path fill="#263238" d="M613.76 295.256l26.454-30.742 3.668 1.017c12.707 3.523 26.177 5.31 40.037 5.31 57.818 0 104.856-31.301 104.856-69.775s-47.038-69.774-104.856-69.774-104.855 31.3-104.855 69.774c0 21.868 15.884 42.802 42.488 55.998l4.748 2.354-12.54 35.838m-16.137 27.951l21.263-60.768c-27.764-13.771-45.822-36.13-45.822-61.373 0-41.847 49.632-75.774 110.855-75.774s110.856 33.927 110.856 75.774-49.633 75.775-110.856 75.775c-14.726 0-28.784-1.964-41.64-5.528l-44.656 51.894z"/></g><path fill="#263238" d="M659.698 211.361l-.791-6.44c-.265-1.453-.18-2.949.25-4.363a5.43 5.43 0 0 1 2.442-2.605c1.054-.566 2.159-1.032 3.3-1.394a18.9 18.9 0 0 0 3.487-1.517c1.655-.794 3.028-2.076 3.931-3.675.803-1.613 1.083-3.437.803-5.217a6.38 6.38 0 0 0-2.679-4.485 7.1 7.1 0 0 0-5.287-1.378c-1.662.18-3.259.749-4.66 1.661a17.26 17.26 0 0 0-4.179 4.342q-.261.334-.826 1.115-3.579 5.101-6.774 5.493c-1.808.26-3.639-.294-5-1.514-1.473-1.314-2.386-3.142-2.553-5.108q-.858-6.989 5.684-13.543c4.421-4.398 10.221-7.141 16.426-7.768q10.533-1.293 18.327 4.413a21.56 21.56 0 0 1 8.985 15.389c.775 5.12-.329 10.348-3.107 14.718-2.849 4.328-7.149 7.498-12.127 8.938l.037.298a11.53 11.53 0 0 1-1.243 7.626c-1.192 1.944-3.239 3.203-5.512 3.388a7.16 7.16 0 0 1-6.038-1.716q-2.345-2.168-2.896-6.661zm1.642 22.448c-.341-2.373.328-4.78 1.845-6.636 1.476-1.894 3.66-3.105 6.049-3.352a8.63 8.63 0 0 1 9.977 7.794c.326 2.38-.339 4.789-1.842 6.664-1.419 1.915-3.571 3.152-5.94 3.415-2.384.324-4.796-.352-6.664-1.868-1.924-1.447-3.163-3.625-3.425-6.017zm57.283-33.632q.735 5.99-.881 9.127a6.83 6.83 0 0 1-5.659 3.634c-2.353.435-4.762-.394-6.349-2.185q-2.356-2.675-3.085-8.615l-3.69-30.054q-.717-5.84.925-8.98c1.116-2.11 3.252-3.486 5.635-3.631a6.85 6.85 0 0 1 6.368 2.127q2.325 2.636 3.047 8.522zm-13.656 28.275c-.342-2.368.318-4.771 1.82-6.633 1.449-1.886 3.609-3.095 5.974-3.343a8.63 8.63 0 0 1 9.977 7.794c.326 2.38-.339 4.789-1.842 6.664-1.419 1.915-3.571 3.152-5.94 3.415a8.59 8.59 0 0 1-6.612-1.848c-1.908-1.468-3.129-3.655-3.377-6.049z"/><defs ><path id="B" d="M586.436 53.7c-.01 1.161-.838 2.154-1.979 2.372s-2.276-.399-2.714-1.475-.055-2.31.914-2.95 2.255-.507 3.072.318c.455.463.709 1.087.706 1.736z"/><path id="C" d="M837.643 122.329c0 .294-31.75.546-70.891.546s-70.892-.252-70.892-.546 31.75-.546 70.892-.546l70.891.546z"/><path id="D" d="M104.013 126.483c0 .798-.481 1.518-1.219 1.824s-1.587.137-2.151-.428-.733-1.414-.428-2.151 1.025-1.219 1.824-1.219c1.09 0 1.974.884 1.974 1.974z"/><path id="E" d="M300.537 32.25c0-15.264-9.789-27.638-21.865-27.638h-14.06v55.276h14.06c12.076 0 21.865-12.376 21.865-27.638z"/><path id="F" d="M38.643 50.131c-7.8 0-14.145-8.022-14.145-17.88s6.345-17.882 14.145-17.882 14.144 8.021 14.144 17.882-6.345 17.88-14.144 17.88z"/><path id="G" d="M39.212 34.739c-1.215-.16-2.082-1.257-1.958-2.476-.124-1.219.743-2.315 1.958-2.475 1.215.16 2.082 1.256 1.958 2.475.124 1.219-.743 2.316-1.958 2.476z"/><path id="H" d="M864.7 485.563c0 14.784-9.481 26.768-21.176 26.768h-13.617v-53.535h13.618c11.694 0 21.175 11.983 21.175 26.767z"/><path id="I" d="M696.166 487.763a2.25 2.25 0 0 1-2.282-3.584 2.25 2.25 0 0 1 4.013 1.396 2 2 0 0 1-1.731 2.188z"/></defs></svg>