<svg xmlns="http://www.w3.org/2000/svg" xmlns:xlink="http://www.w3.org/1999/xlink" width="542.77" height="437.548" xmlns:v="https://vecta.io/nano"><style><![CDATA[.k{fill:#ffc727}.l{fill:#d6e1f1}.m{fill:#ffdb72}.n{fill:#99a7be}.o{fill:#242a33}.p{fill:#cccbcb}.q{fill:#dbdbdb}.r{fill:#53729d}.s{fill:#232932}.t{fill:#505b6e}.u{fill:#fcd461}.v{fill:#7899cb}.w{fill:#53718b}.x{fill:#fff}.y{fill:#f8c81e}.z{fill:#e5f2f8}.AA{fill:#fffdff}.AB{fill:#a6a6a6}.AC{fill:#cbddf5}.AD{fill:#ff636d}.AE{flood-opacity:.161}.AF{fill:#414c5c}.AG{fill:#3c454c}.AH{fill:#263238}.AI{fill:#203749}.AJ{fill:#86b7e0}.AK{fill:#e4eef7}.AL{fill:#fefdfe}.AM{fill:#95bcf0}]]></style><defs><filter id="A" width="46.623" height="46.623" x="302.922" y="186.951" filterUnits="userSpaceOnUse"><feOffset dy="3"/><feGaussianBlur result="A" stdDeviation="3"/><feFlood class="AE"/><feComposite in2="A" operator="in"/><feComposite in="SourceGraphic"/></filter><filter id="B" width="46.623" height="46.623" x="224.055" y="92.902" filterUnits="userSpaceOnUse"><feOffset dy="3"/><feGaussianBlur result="A" stdDeviation="3"/><feFlood class="AE"/><feComposite in2="A" operator="in"/><feComposite in="SourceGraphic"/></filter><filter id="C" width="46.623" height="46.623" x="334.458" y="94.266" filterUnits="userSpaceOnUse"><feOffset dy="3"/><feGaussianBlur result="A" stdDeviation="3"/><feFlood class="AE"/><feComposite in2="A" operator="in"/><feComposite in="SourceGraphic"/></filter><filter id="D" width="45.26" height="46.623" x="439.409" y="92.902" filterUnits="userSpaceOnUse"><feOffset dy="3"/><feGaussianBlur result="A" stdDeviation="3"/><feFlood class="AE"/><feComposite in2="A" operator="in"/><feComposite in="SourceGraphic"/></filter><path id="E" d="M358.274 2965.456l.166-.17a1.81 1.81 0 0 1 1.3-.555h18.264a1.81 1.81 0 0 1 1.265.519l.211.206z"/><path id="F" d="M338.005 2991.417c-.378.091-.772-.068-.982-.396s-.189-.752.052-1.057.649-.425 1.016-.297.614.474.614.862c.044.436-.265.829-.7.888z"/><path id="G" d="M338.004 2991.107c-.246.058-.502-.046-.638-.259s-.122-.489.035-.688.422-.276.661-.193.399.308.399.561a.53.53 0 0 1-.457.578z"/><path id="H" d="M493.046 2976c0 .456.339.827 1.683.827s3.185-.37 3.185-.827-1.841-.827-3.185-.827-1.683.37-1.683.827z"/><path id="I" d="M515.682 2997.093c0 .65-18.074 1.177-40.37 1.177s-40.369-.527-40.369-1.177 18.074-1.177 40.369-1.177 40.37.527 40.37 1.177z"/><path id="J" d="M511.617 2990.042c0 3.894-2.5 7.051-5.578 7.051h-3.587v-14.102h3.587c3.081 0 5.578 3.157 5.578 7.051z"/><path id="K" d="M515.683 2984.864c-.079-.844-1.973-4.257-6.888-6.293-5.023-2.08-12.585-2.133-12.585-2.133s-6.163-8.84-11.342-8.84h-18.644c-2.581 3.307 17.047 13.069 19.689 13.069.761 0 7.243.919 7.243 12.467h20.624c.711 0 1.903-8.27 1.903-8.27z"/><path id="L" d="M497.043 2984.869c0-.747-1.865-4.214-6.888-6.294s-12.589-2.137-12.589-2.137-6.163-8.84-11.342-8.84a44.1 44.1 0 0 0-23.881 7.148c-2.192.239-3.933.309-5.021 1.195-.867.706-1.341 4.517-1.341 7.385 0 .735-1.036 1.4-1.036 1.938 0 3.7 1.411 7.151 3.763 7.8v-3.022c0-4.2 2.735-7.615 6.1-7.615s6.1 3.416 6.1 7.615v2.132c-.004.251.092.493.267.673s.414.283.665.287h26.903c.522-.008.939-.438.932-.96v-2.132c0-4.2 2.735-7.615 6.1-7.615s6.1 3.416 6.1 7.615v2.132c-.007.522.41.952.932.96h2.34c.696 0 1.89-7.913 1.896-8.265z"/><path id="M" d="M452.965 2974.526a2.16 2.16 0 0 1 .366-3.918 42.57 42.57 0 0 1 12.893-2.05c3.035 0 7.62 4.327 9.637 8.072a.47.47 0 0 1-.4.693c-13.742.029-19.62-1.165-22.496-2.797z"/><path id="N" d="M444.802 2985.48c-1.99 0-3.609 2.047-3.609 4.562s1.619 4.562 3.609 4.562 3.608-2.047 3.608-4.562-1.617-4.562-3.608-4.562z"/><path id="O" d="M445.607 2989.063c-.048 0-.619-.006-.661 0a.92.92 0 0 0-.558.975c0 .444.558.97.558.97h.661a.89.89 0 0 0 .768-.97.89.89 0 0 0-.768-.975z"/><path id="P" d="M444.828 2990.042h1.141v4.778h-1.141z"/><path id="Q" d="M441.468 2990.739l3.754-1.257.353 1.118-3.754 1.257z"/><path id="R" d="M442.381 2986.765l.923-.691 2.555 3.622-.923.691z"/><path id="S" d="M445.222 2990.6l.353-1.118 3.011 1.008-.353 1.118z"/><path id="T" d="M444.947 2989.068a.89.89 0 0 0-.768.971.89.89 0 0 0 .768.971.89.89 0 0 0 .767-.971.89.89 0 0 0-.767-.971z"/><path id="U" d="M441.993 2990.042c0 2.344 1.4 4.28 3.208 4.532a2.86 2.86 0 0 1-.4.03c-1.989 0-3.608-2.047-3.608-4.562s1.619-4.562 3.609-4.562c.134 0 .267.01.4.029-1.809.253-3.209 2.188-3.209 4.533z"/><path id="V" d="M441.016 2990.739l3.753-1.256.353 1.118-3.753 1.256z"/><path id="W" d="M444.77 2990.601l.351-1.114 3.465 1.155-.353 1.118z"/><path id="X" d="M448.901 2990.042c0-2.862-1.836-5.182-4.1-5.182s-4.1 2.32-4.1 5.182 1.836 5.182 4.1 5.182 4.1-2.32 4.1-5.182zm-.38 0c0 2.593-1.669 4.7-3.72 4.7s-3.72-2.107-3.72-4.7 1.669-4.702 3.72-4.702 3.72 2.109 3.72 4.702z"/><path id="Y" d="M448.778 2990.042c0-2.776-1.781-5.027-3.977-5.027s-3.977 2.251-3.977 5.027 1.78 5.027 3.977 5.027 3.977-2.254 3.977-5.027zm-.369 0c0 2.516-1.619 4.562-3.608 4.562s-3.609-2.046-3.609-4.562 1.619-4.561 3.609-4.561 3.609 2.046 3.609 4.561z"/><path id="Z" d="M444.947 2989.407a.58.58 0 0 0-.5.632.58.58 0 0 0 .5.632.58.58 0 0 0 .5-.632.58.58 0 0 0-.5-.632z"/><path id="a" d="M486.574 2989.063c-.049 0-.62-.006-.662 0a.92.92 0 0 0-.558.975c0 .444.558.97.558.97h.662a.89.89 0 0 0 .768-.97.89.89 0 0 0-.768-.975z"/><path id="b" d="M489.868 2990.042c0-2.862-1.836-5.182-4.1-5.182s-4.1 2.32-4.1 5.182 1.835 5.182 4.1 5.182 4.1-2.32 4.1-5.182zm-.38 0c0 2.593-1.669 4.7-3.72 4.7s-3.72-2.107-3.72-4.7 1.668-4.702 3.72-4.702 3.72 2.109 3.72 4.702z"/><path id="c" d="M489.744 2990.042c0-2.776-1.781-5.027-3.977-5.027s-3.977 2.251-3.977 5.027 1.781 5.027 3.977 5.027 3.977-2.254 3.977-5.027zm-.368 0c0 2.516-1.619 4.562-3.609 4.562s-3.609-2.046-3.609-4.562 1.619-4.561 3.609-4.561 3.609 2.046 3.609 4.561z"/><path id="d" d="M497.039 2984.869l-6.812-.012a8.7 8.7 0 0 1 1.636 5.184v2.132c-.007.522.41.952.932.96h2.34c.712 0 1.903-7.912 1.904-8.264z"/><path id="e" d="M434.943 2985.263c0 3.7 1.411 7.151 3.763 7.8v-3.022a8.27 8.27 0 0 1 2.661-6.287l-5.388-.429c0 .735-1.036 1.4-1.036 1.938z"/><path id="f" d="M450.898 2990.042v2.131c-.007.522.41.951.932.959h26.911c.251-.004.49-.107.665-.287s.271-.422.267-.673v-2.13a8.68 8.68 0 0 1 1.668-5.229l-32.7-.681c1.49 1.603 2.3 3.722 2.257 5.91z"/><path id="g" d="M509.546 2982.014a14.75 14.75 0 0 0-5.139-3.442c-5.024-2.081-12.585-2.134-12.585-2.134h-7.428s7.561.053 12.585 2.134c1.937.771 3.689 1.944 5.139 3.442 1.229 1.306 8.657 1.306 7.428 0z"/><path id="h" d="M509.546 2982.014a14.75 14.75 0 0 0-5.139-3.442c-5.024-2.081-12.585-2.134-12.585-2.134h-.607s7.561.053 12.585 2.134a14.75 14.75 0 0 1 5.139 3.442c.581.617-.773.942-2.491.976 1.987.038 3.746-.287 3.098-.976z"/><path id="i" d="M436.184 2980.015h-.021l-.179 2.781h.2c.35-.004.683-.148.927-.398s.378-.588.373-.938v-.11c.005-.35-.129-.687-.373-.937s-.577-.394-.927-.398z"/><path id="j" d="M493.209 2992.36a.63.63 0 0 1-.63-.64v-1.678c.001-4.66-3.034-8.452-6.765-8.452s-6.764 3.792-6.764 8.452v1.681a.63.63 0 0 1-.626.641c-9.321-.046-18.365-.223-26.318-.71-.169-.013-.325-.094-.434-.224s-.159-.299-.14-.468c.428-5.072-2.756-9.372-6.73-9.372-3.552 0-6.48 3.445-6.746 7.8a.62.62 0 0 1-.694.6 3.57 3.57 0 0 1-1.812-.7c.626 1.919 1.713 3.376 3.156 3.776v-3.024c0-4.2 2.735-7.615 6.1-7.615s6.1 3.416 6.1 7.615v2.132c-.003.42.269.792.67.917v-.019a.51.51 0 0 0 .262.062h26.901a.55.55 0 0 0 .308-.077v.019c.376-.139.625-.499.624-.9v-2.134c0-4.2 2.735-7.615 6.1-7.615s6.1 3.416 6.1 7.615v2.132c-.004.438.291.823.716.932v-.016a.54.54 0 0 0 .216.039h2.34c.141 0 .3-.312.466-.811l-2.4.042z"/><path id="k" d="M475.003 2975.224c-2.269-3.343-6.12-6.666-8.779-6.666-3.686.01-7.354.503-10.911 1.469 3.794 2.739 11.863 4.673 19.69 5.197z"/><path id="l" d="M453.638 2974.526a2.16 2.16 0 0 1 .366-3.918 42.7 42.7 0 0 1 12.36-2.044c-.046-.006-.094-.006-.14-.006a42.57 42.57 0 0 0-12.893 2.05 2.16 2.16 0 0 0-.366 3.918c2.876 1.632 8.754 2.826 22.494 2.797-13.255-.012-18.993-1.188-21.821-2.797z"/><path id="m" d="M473.397 2978.32c-.104 0-.2-.052-.257-.139l-1.031-1.552c-.096-.146-.061-.342.081-.444.068-.048.152-.066.234-.051s.153.064.198.134l1.033 1.551c.097.146.061.343-.081.445a.3.3 0 0 1-.177.056z"/><path id="n" d="M473.086 2976c0 .456-.339.827-1.683.827s-3.185-.371-3.185-.827 1.841-.827 3.185-.827 1.683.37 1.683.827z"/><path id="o" d="M472.861 2975.496c-.437-.266-.95-.38-1.458-.323-1.344 0-3.185.37-3.185.827 0 .1.095.2.251.288.669.103 1.345.157 2.022.161 1.687.001 2.259-.41 2.37-.953z"/><path id="p" d="M459.321 2979.344h-.037l-3.149-.392c-.174-.023-.296-.182-.274-.356.008-.084.049-.161.114-.215s.15-.077.234-.067l3.152.392c.173.024.294.183.271.356-.016.16-.15.281-.311.282z"/><path id="q" d="M313.284 3085.987a3 3 0 0 0-2.229-.811c-.273.002-.543.05-.8.141a3.21 3.21 0 0 0-.762.38q-.353.239-.607.448a5.93 5.93 0 0 0-.483.445 5.94 5.94 0 0 0-.483-.445q-.254-.209-.607-.448a3.21 3.21 0 0 0-.762-.38c-.257-.091-.527-.139-.8-.141a3 3 0 0 0-2.229.811 3.05 3.05 0 0 0-.813 2.251c.003.306.053.61.149.9a4.02 4.02 0 0 0 .34.792 5.8 5.8 0 0 0 .432.638q.241.311.353.428a2.13 2.13 0 0 0 .175.17l3.963 3.938a.39.39 0 0 0 .559 0l3.957-3.923c.853-.752 1.376-1.81 1.455-2.944a3.05 3.05 0 0 0-.808-2.25z"/><path id="r" d="M388.829 3192.287h19.111v3.449h-19.111z"/><path id="s" d="M396.647 3195.219h3.475v40.525h-3.475z"/><path id="t" d="M75.007 3170.731a8.97 8.97 0 0 0-8.9 9.011 8.97 8.97 0 0 0 8.988 8.923 8.97 8.97 0 0 0 8.945-8.966 9 9 0 0 0-9.034-8.968zm0 16.071a7.1 7.1 0 0 1 .085-14.2 7.1 7.1 0 0 1 7.079 7.1c-.024 3.936-3.228 7.112-7.164 7.1z"/><path id="u" d="M214.045 3170.731a8.97 8.97 0 0 0-8.9 9.011 8.97 8.97 0 0 0 8.988 8.923 8.97 8.97 0 0 0 8.945-8.966 9 9 0 0 0-9.034-8.968zm0 16.071a7.1 7.1 0 0 1 .086-14.2 7.1 7.1 0 0 1 7.079 7.1c-.024 3.937-3.228 7.112-7.165 7.1z"/><path id="v" d="M79.603 27.955c0 4.231-2.713 7.661-6.06 7.661h-3.898V20.294h3.9c3.345 0 6.058 3.43 6.058 7.661z"/><path id="w" d="M12.449 28.253l-3.854-.832.449-1.424 3.593 1.66z"/><path id="x" d="M12.789 28.139l-2.175 3.825-1.176-.88 2.859-3.313z"/><path id="y" d="M11.939 28.585c-.309-.038-.531-.316-.5-.626-.032-.31.19-.589.5-.627.31.038.532.317.5.627.031.31-.191.588-.5.626z"/><path id="z" d="M311.369 3157.667c0 5-3.209 9.06-7.167 9.06h-4.609v-18.12h4.609c3.958 0 7.167 4.056 7.167 9.06z"/><path id="AA" d="M225.523 3151.805c-2.557 0-4.637 2.629-4.637 5.861s2.08 5.862 4.637 5.862 4.636-2.63 4.636-5.862-2.08-5.861-4.636-5.861z"/><path id="AB" d="M221.239 3158.564l4.824-1.615.452 1.437-4.823 1.614z"/><path id="AC" d="M222.414 3153.455l1.186-.887 3.283 4.654-1.186.887z"/><path id="AD" d="M225.709 3156.851c-.398.053-.682.412-.642.811a.74.74 0 0 0 .642.811.74.74 0 0 0 .642-.811c.04-.399-.244-.758-.642-.811z"/><path id="AE" d="M259.49 3055.223a4.81 4.81 0 0 1 4.813 4.812v1.679h-9.625v-1.679c0-2.658 2.154-4.812 4.812-4.812z"/><path id="AF" d="M305.131 3132.623h-2.07c-.483 0-.875-.392-.875-.875s.392-.875.875-.875h2.07c.483 0 .875.392.875.875s-.392.875-.875.875z"/></defs><g transform="translate(18.044 -2900.003)"><path d="M82.902 3018.364H-18.044v-72.81H82.902zm332.554.478H314.51v-72.81h100.946z" class="z"/><path d="M387.961 2974.484h2.462c.193-.004.375-.092.496-.242s.17-.346.133-.536l-.208-1.15a.72.72 0 0 0-.7-.6h-2.183a.65.65 0 0 0-.64.659v1.215a.65.65 0 0 0 .64.654z" class="m"/><path d="M359.388 2965.456l.165-.17a1.81 1.81 0 0 1 1.3-.555h18.264a1.81 1.81 0 0 1 1.265.519l.211.206z" class="AF"/><use xlink:href="#E" class="o"/><ellipse cx="365.428" cy="2997.595" rx="39.628" ry="1.089" class="r"/><path d="M400.443 2990.526c0 3.9-2.5 7.069-5.592 7.069h-3.601v-14.138h3.6c3.09 0 5.593 3.165 5.593 7.069z"/><ellipse cx="391.255" cy="2990.526" rx="5.592" ry="7.069"/><path d="M364.992 2990.526c0 3.9-2.5 7.069-5.593 7.069h-3.6v-14.138h3.6c3.089 0 5.593 3.165 5.593 7.069z"/><ellipse cx="355.803" cy="2990.526" rx="5.592" ry="7.069"/><path d="M382.513 2990.526c0 3.9-2.5 7.069-5.592 7.069h-3.6v-14.138h3.6c3.088 0 5.592 3.165 5.592 7.069zm-35.454 0c0 3.9-2.5 7.069-5.592 7.069h-3.6v-14.138h3.6c3.092 0 5.592 3.165 5.592 7.069z"/><path d="M348.279 2992.215c-1.133 0-2.349-2.419-2.349-3.888v-4.025l.8-1.3v-6.03c0-1.166 6.1-11.52 9.214-11.52h24.8c2.978 0 9 8.89 9 8.89s7.341.528 9.522.83 4.614.333 4.614 3.169v4.919l.708 1.3c.306.565.467 1.198.466 1.841v2.71c0 1.512-1.048 3.1-2.118 3.1z" class="m"/><path d="M404.821 2985.084a3.81 3.81 0 0 0-.231-.517l-.138-.254-.57-1.048v-4.919c.004-.335-.038-.669-.125-.992h-25.494v14.862h24.675a1.99 1.99 0 0 0 1.522-1.082q.073-.116.138-.239a3.88 3.88 0 0 0 .457-1.776v-2.71c-.001-.452-.08-.9-.235-1.324z" class="k"/><path d="M346.275 2989.95c.442 1.166 1.241 2.265 2 2.265h54.668c.872 0 1.731-1.055 2.017-2.265zm58.315-5.384l-.708-1.3h-32.673v2.272h33.744a3.83 3.83 0 0 0-.363-.972z" class="m"/><path d="M380.824 2978.936h-53.02l1.537 13.279h53.02z"/><path d="M384.115 2984.567l-.708-1.3v-4.919c0-2.837-2.433-2.867-4.614-3.169s-9.522-.83-9.522-.83-6.026-8.89-9-8.89h-23.268c-3.118 0-9.213 9-9.213 12.9v4.651l-.373.606a2.88 2.88 0 0 0-.424 1.507v3.199c0 1.469 1.217 3.888 2.349 3.888h2.256l.768-6.246a4.17 4.17 0 0 1 4.091-3.714h2.836a4.17 4.17 0 0 1 4.091 3.708l.778 6.253h22.888l.768-6.246a4.17 4.17 0 0 1 4.092-3.714h2.836a4.17 4.17 0 0 1 4.091 3.708l.778 6.253h2.85c1.07 0 2.118-1.585 2.118-3.1v-2.71c-.001-.641-.162-1.272-.468-1.835z" class="k"/><ellipse cx="337.871" cy="2990.526" rx="5.592" ry="7.069" class="s"/><path d="M337.87 2994.701c-1.821 0-3.3-1.873-3.3-4.175s1.481-4.175 3.3-4.175 3.3 1.873 3.3 4.175-1.477 4.175-3.3 4.175z"/><path d="M338.609 2991.417h-.605a.84.84 0 0 1-.511-.888c0-.406.511-.888.511-.888h.605c.411.098.701.466.701.888s-.29.79-.701.888z" class="l"/><use xlink:href="#F" class="n"/><g class="l"><path d="M335.299 2990.526c0-2.146 1.288-3.918 2.938-4.148a2.62 2.62 0 0 0-.365-.027c-1.821 0-3.3 1.873-3.3 4.175s1.481 4.175 3.3 4.175a2.63 2.63 0 0 0 .365-.027c-1.65-.23-2.938-2.002-2.938-4.148z"/><path d="M338.285 2990.526l-.39-4.373h1.341l-.39 4.373z"/><path d="M338.478 2990.801l-3.556-.768.414-1.314 3.315 1.532z"/><path d="M338.792 2990.696l-2.007 3.529-1.085-.812 2.639-3.056z"/><path d="M338.792 2990.356l2.178 2.4-1.085.812-1.546-2.876z"/><path d="M338.479 2990.251l2.488-1.255.414 1.314-2.729.491z"/></g><g class="n"><path d="M337.725 2990.526l-.39-4.373h1.341l-.39 4.373z"/><path d="M337.917 2990.801l-3.556-.768.414-1.314 3.315 1.532z"/><path d="M338.231 2990.696l-2.007 3.529-1.085-.812 2.638-3.056z"/><path d="M338.231 2990.356l2.521 2.889-1.085.812-1.889-3.362z"/><path d="M337.918 2990.248l3.049-1.443.414 1.314-3.29.678z"/></g><path d="M337.871 2985.783c-2.072 0-3.752 2.124-3.752 4.743s1.68 4.743 3.752 4.743 3.752-2.123 3.752-4.743-1.68-4.743-3.752-4.743zm0 9.047c-1.878 0-3.4-1.931-3.4-4.3s1.527-4.3 3.4-4.3 3.4 1.931 3.4 4.3-1.523 4.3-3.4 4.3z" class="l"/><path d="M337.871 2985.925c-2.01 0-3.64 2.06-3.64 4.6s1.63 4.6 3.64 4.6 3.64-2.06 3.64-4.6-1.63-4.6-3.64-4.6zm0 8.776c-1.821 0-3.3-1.873-3.3-4.175s1.481-4.175 3.3-4.175 3.3 1.873 3.3 4.175-1.479 4.175-3.3 4.175z" class="n"/><use xlink:href="#G" class="t"/><path d="M327.416 2983.612a2.88 2.88 0 0 0-.424 1.507v3.208c0 1.469 1.217 3.888 2.349 3.888h2.256l.768-6.246a4.26 4.26 0 0 1 1.724-2.941l-6.3-.022zm15.967 2.35l.778 6.253h22.888l.768-6.246c.129-1.08.665-2.07 1.5-2.768l-27.61-.139c.931.698 1.536 1.745 1.676 2.9zm40.732-1.395l-.708-1.3-6.03-.027a4.27 4.27 0 0 1 1.458 2.725l.778 6.253h2.85c1.07 0 2.118-1.585 2.118-3.1v-2.71c.001-.643-.16-1.276-.466-1.841z" class="u"/><ellipse cx="373.323" cy="2990.526" rx="5.592" ry="7.069" class="s"/><path d="M373.324 2994.701c-1.821 0-3.3-1.873-3.3-4.175s1.482-4.175 3.3-4.175 3.3 1.873 3.3 4.175-1.479 4.175-3.3 4.175z"/><path d="M374.061 2991.417h-.6a.84.84 0 0 1-.511-.888c0-.406.511-.888.511-.888h.6c.411.098.701.466.701.888s-.29.79-.701.888z" class="l"/><use xlink:href="#F" x="35.452" class="n"/><g class="l"><path d="M370.751 2990.526c0-2.146 1.288-3.918 2.938-4.148a2.63 2.63 0 0 0-.365-.027c-1.821 0-3.3 1.873-3.3 4.175s1.482 4.175 3.3 4.175a2.64 2.64 0 0 0 .365-.027c-1.65-.23-2.938-2.002-2.938-4.148z"/><path d="M373.737 2990.526l-.39-4.373h1.344l-.39 4.373z"/><path d="M373.93 2990.801l-3.556-.768.414-1.314 3.315 1.532z"/><path d="M374.244 2990.696l-2.007 3.529-1.085-.812 2.638-3.056z"/><path d="M374.244 2990.356l2.178 2.4-1.085.812-1.544-2.872z"/><path d="M373.93 2990.251l2.488-1.255.414 1.314-2.729.491z"/></g><g class="n"><path d="M373.176 2990.526l-.39-4.373h1.341l-.39 4.373z"/><path d="M373.369 2990.801l-3.556-.768.415-1.314 3.315 1.532z"/><path d="M373.683 2990.696l-2.007 3.529-1.085-.812 2.638-3.056z"/><path d="M373.683 2990.356l2.521 2.889-1.085.812-1.889-3.362z"/><path d="M373.37 2990.248l3.049-1.443.414 1.314-3.29.678z"/></g><path d="M373.323 2985.783c-2.072 0-3.752 2.124-3.752 4.743s1.68 4.743 3.752 4.743 3.752-2.123 3.752-4.743-1.68-4.743-3.752-4.743zm0 9.047c-1.877 0-3.4-1.931-3.4-4.3s1.527-4.3 3.4-4.3 3.4 1.931 3.4 4.3-1.523 4.3-3.4 4.3z" class="l"/><path d="M373.324 2985.925c-2.01 0-3.64 2.06-3.64 4.6s1.629 4.6 3.64 4.6 3.64-2.06 3.64-4.6-1.63-4.6-3.64-4.6zm0 8.776c-1.821 0-3.3-1.873-3.3-4.175s1.482-4.175 3.3-4.175 3.3 1.873 3.3 4.175-1.479 4.175-3.3 4.175z" class="n"/><use xlink:href="#G" x="35.452" class="t"/><path d="M342.629 2992.215h24.425l.278-2.265h-24.989zm-13.288 0h2.256l.278-2.265h-4.539c.443 1.166 1.242 2.265 2.005 2.265zm49.991-2.265l.282 2.265h2.85c.873 0 1.731-1.055 2.018-2.265zm-7.931-10.593h-.013l-40.384-.55a.95.95 0 1 1 .025-1.9l40.384.55a.95.95 0 1 1-.012 1.9z" class="k"/><path d="M386.51 2979.08h15.52v4.184h-15.52z" fill="#ffedb9"/><path d="M383.407 2983.264h5.613c.279 0 .488-.353.429-.729l-.639-2.506c-.087-.554-.444-.95-.856-.95h-4.545c-.895.001-.002 4.185-.002 4.185z" class="AA"/><path d="M383.407 2979.08h-1.008c-.589 0-.735 1.951-.735 4.184h1.743z" fill="#ffd17a"/><path d="M403.881 2979.08h-3.072c-.319 0-.6.4-.663.95l-.494 2.506c-.045.375.116.729.332.729h3.9z" class="AA"/><g class="k"><rect width=".854" height="9.239" rx=".427" transform="matrix(0 -1 1 0 390.071 2982.736)"/><rect width=".854" height="9.239" rx=".427" transform="matrix(0 -1 1 0 390.071 2981.599)"/><rect width=".854" height="9.239" rx=".427" transform="matrix(0 -1 1 0 390.071 2980.462)"/></g><path d="M329.134 2983.012s.207-3.918-1.345-3.918v3.912z" class="AD"/><use xlink:href="#E" x="-19.36" class="AF"/><use xlink:href="#E" x="-20.475" class="o"/><path d="M370.193 2974.346h18.937s-4.222-6.227-7.345-8.256h-18.937c3.123 2.029 7.345 8.256 7.345 8.256z" class="v"/><g class="AA"><ellipse cx="387.163" cy="2987.758" rx=".918" ry="1.109"/><path d="M404.549 2987.758c-.092.485-.545.815-1.035.754s-.848-.494-.817-.986.44-.877.934-.876c.557.057.966.551.918 1.109z"/></g><path d="M360.268 2966.406h-21.759c-.876 0-2.822 1.437-5.028 4.591l-.028.039a2.45 2.45 0 0 0 1.942 3.853h31.978a.61.61 0 0 0 .476-.962c-3.66-5.178-6.603-7.521-7.581-7.521z" class="r"/><path d="M333.946 2971.036l.028-.039c2.205-3.154 4.152-4.591 5.028-4.591h-.492c-.876 0-2.822 1.437-5.028 4.591l-.028.039a2.45 2.45 0 0 0 1.942 3.853h.492a2.45 2.45 0 0 1-1.942-3.853z" class="o"/><path d="M351.008 2979.159c-.042-.001-.076-.034-.077-.076l-.071-1.9c0-.028.015-.053.038-.067s.053-.014.077 0 .039.039.038.067l.07 1.894c.001.021-.006.041-.02.056s-.033.025-.054.026zm-11.325-.153c-.042-.001-.076-.035-.077-.077l-.045-1.9c0-.028.015-.053.038-.067s.053-.014.077 0 .039.039.038.067l.045 1.9c.001.021-.007.041-.021.056s-.034.024-.054.025zm26.284.357c-.043-.001-.077-.035-.077-.078l-.024-1.9c0-.028.015-.053.038-.067s.053-.014.077 0 .039.039.038.067l.024 1.9c.001.021-.007.041-.021.056s-.034.024-.055.024z" class="m"/><path d="M339.291 2981.305h-2.836a5.11 5.11 0 0 0-5.006 4.545l-.779 6.339c.068.017.137.026.207.027h.719l.768-6.246a4.17 4.17 0 0 1 4.091-3.714h2.836a4.17 4.17 0 0 1 4.091 3.708l.778 6.253h.929l-.793-6.373a5.11 5.11 0 0 0-5.005-4.539zm35.453 0h-2.836a5.11 5.11 0 0 0-5.006 4.545l-.782 6.365h.932l.768-6.246a4.17 4.17 0 0 1 4.091-3.714h2.836a4.17 4.17 0 0 1 4.09 3.708l.778 6.253h.929l-.793-6.373a5.11 5.11 0 0 0-5.007-4.538z" class="k"/><g class="o"><path d="M367.373 2974.968h-31.977c-.933-.004-1.782-.539-2.188-1.379a2.52 2.52 0 0 1 .183-2.6l.027-.039c2.221-3.177 4.2-4.624 5.09-4.624h21.759c1.117 0 4.176 2.648 7.644 7.555a.7.7 0 0 1 .055.713.66.66 0 0 1-.593.374zm-28.867-8.484c-.856 0-2.776 1.427-4.965 4.558l-.027.039a2.36 2.36 0 0 0-.172 2.436 2.29 2.29 0 0 0 2.051 1.293h31.977a.5.5 0 0 0 .456-.289.53.53 0 0 0-.042-.548c-3.651-5.166-6.6-7.489-7.52-7.489z"/><path d="M341.06 2974.892h-1.363l1.07-8.484h1.366zm11.151 0h-1.363l.455-8.484h1.363zm15.639-.964l-2.181-2.866-.548 3.828h2.255a.61.61 0 0 0 .474-.962z"/></g><g class="m"><path d="M343.434 2977.976c0 .576-.3.721-1.507.721s-1.507-.145-1.507-.721.3-.721 1.507-.721 1.506.145 1.507.721z"/><path d="M341.927 2977.955a7.62 7.62 0 0 0-1.5.106c.031.506.361.637 1.5.637s1.474-.131 1.5-.638c-.495-.085-.998-.12-1.5-.105zm12.771.178c0 .577-.3.722-1.507.721s-1.507-.145-1.507-.721.3-.72 1.507-.721 1.507.145 1.507.721z"/><path d="M353.192 2978.111a7.61 7.61 0 0 0-1.5.106c.03.506.361.637 1.5.637s1.474-.131 1.5-.638c-.495-.085-.998-.12-1.5-.105z"/></g><g class="o"><path d="M389.131 2974.425h-18.938c-.025 0-.049-.013-.063-.034-.042-.062-4.249-6.237-7.323-8.235a.08.08 0 0 1-.033-.089c.009-.034.039-.057.074-.057h18.938c.015 0 .029.004.041.012 3.1 2.014 7.324 8.215 7.366 8.278.016.024.018.056.005.082s-.038.042-.067.043zm-18.9-.158h18.75c-.614-.887-4.39-6.247-7.218-8.1h-18.657c2.955 2.069 6.792 7.613 7.127 8.1zm-5.601-1.705h.982c.189 0 .343.154.343.343s-.154.343-.343.343h-.982v-.686z"/><path d="M364.63 2973.597h.982c.189 0 .343.154.343.343s-.154.343-.343.343h-.982v-.686z"/></g><path d="M364.227 2974.484h-2.462c-.193-.004-.375-.092-.496-.242s-.17-.346-.133-.536l.2-1.151a.72.72 0 0 1 .7-.6h2.183a.65.65 0 0 1 .64.659v1.215a.65.65 0 0 1-.632.655z" class="k"/><path d="M364.227 2971.952h-2.179a.72.72 0 0 0-.7.6l-.2 1.151a.67.67 0 0 0 0 .22h2.674c.406-.006.73-.339.724-.745v-1.145a.62.62 0 0 0-.319-.081z" class="m"/><g class="z"><path d="M305.052 3018.842H204.106v-72.81h100.946zm219.674 0H423.78v-72.81h100.946z"/><use xlink:href="#H"/></g><use xlink:href="#I" class="r"/><use xlink:href="#J"/><use xlink:href="#J" x="-40.965"/><ellipse cx="461.487" cy="2990.042" rx="5.578" ry="7.051"/><ellipse cx="502.452" cy="2990.042" rx="5.578" ry="7.051"/><path d="M438.706 2981.59h54.927v11.477h-54.927z"/><use xlink:href="#J" x="-16.685"/><use xlink:href="#K" class="m"/><use xlink:href="#J" x="-57.65"/><use xlink:href="#L" class="k"/><use xlink:href="#M" class="r"/><ellipse cx="444.801" cy="2990.042" rx="5.578" ry="7.051" class="s"/><use xlink:href="#N" class="AB"/><use xlink:href="#O" class="l"/><g class="p"><use xlink:href="#P"/><use xlink:href="#Q"/><use xlink:href="#R"/><path d="M444.936 2989.696l2.15-3.045.923.691-2.154 3.042z"/><use xlink:href="#S"/></g><use xlink:href="#T" class="n"/><use xlink:href="#U" class="p"/><g class="q"><use xlink:href="#P" x="-0.452"/><use xlink:href="#V"/><use xlink:href="#R" x="-0.452"/><path d="M444.484 2989.695l2.414-3.418.921.694-2.411 3.415z"/><use xlink:href="#W"/></g><use xlink:href="#X" class="l"/><use xlink:href="#Y" class="q"/><use xlink:href="#Z" class="t"/><ellipse cx="485.767" cy="2990.042" rx="5.578" ry="7.051" class="s"/><use xlink:href="#N" x="40.966" class="AB"/><use xlink:href="#a" class="l"/><g class="p"><use xlink:href="#P" x="40.966"/><use xlink:href="#Q" x="40.966"/><use xlink:href="#R" x="40.966"/><path d="M485.903 2989.697l2.149-3.046.923.691-2.153 3.043z"/><use xlink:href="#S" x="40.966"/></g><use xlink:href="#T" x="40.966" class="n"/><use xlink:href="#U" x="40.966" class="p"/><g class="q"><use xlink:href="#P" x="40.514"/><use xlink:href="#V" x="40.966"/><use xlink:href="#R" x="40.514"/><path d="M485.45 2989.698l2.412-3.419.921.694-2.41 3.416z"/><use xlink:href="#W" x="40.966"/></g><use xlink:href="#b" class="l"/><use xlink:href="#c" class="q"/><use xlink:href="#Z" x="40.966" class="t"/><path d="M493.633 2984.869v8.265h20.147c.708 0 1.888-8.163 1.9-8.265z" class="k"/><g class="u"><use xlink:href="#d"/><use xlink:href="#e"/><use xlink:href="#f"/></g><path d="M494.674 2981.406a6.98 6.98 0 0 1 2.364 3.46l4.609-.006c-.828-2.934-4.868-3.454-6.973-3.454zm18.821.184c-1.246.33-2.277 1.195-2.427 3.27h4.614a7.17 7.17 0 0 0-2.187-3.27z" class="AL"/><use xlink:href="#g" class="u"/><use xlink:href="#h" class="k"/><path d="M487.172 2968.558h-16.78c4.2 2.287 8.105 7.879 8.105 7.879h17.095s-4.217-5.592-8.42-7.879z" class="v"/><path d="M461.951 2990.165h11.173c3.574 0-2.745-3.065-11.916-3.065-5.434 0-5.472 3.065.743 3.065z" class="k"/><use xlink:href="#i" class="AD"/><use xlink:href="#j" class="m"/><use xlink:href="#k" class="r"/><path d="M478.444 2968.558c3.67 2.857 9.086 4.438 14.476 4.758a25.14 25.14 0 0 0-5.747-4.758z" class="v"/><g class="o"><path d="M487.174 2968.558h-.7c4.2 2.287 8.416 7.879 8.416 7.879h.7s-4.216-5.592-8.416-7.879z"/><use xlink:href="#l"/><path d="M455.406 2975.465l1.379-5.754.151.037-1.375 5.755zm20.455 1.165l-.842-1.381a3.35 3.35 0 0 1-1.186 2.071h1.625a.47.47 0 0 0 .403-.69z"/><use xlink:href="#m"/></g><use xlink:href="#n" class="AM"/><use xlink:href="#o" class="AC"/><use xlink:href="#p" class="o"/><use xlink:href="#H" x="-220.807" class="z"/><use xlink:href="#I" x="-220.807" class="r"/><use xlink:href="#J" x="-220.807"/><use xlink:href="#J" x="-261.772"/><ellipse cx="240.68" cy="2990.042" rx="5.578" ry="7.051"/><ellipse cx="281.645" cy="2990.042" rx="5.578" ry="7.051"/><path d="M217.899 2981.59h54.927v11.477h-54.927z"/><use xlink:href="#J" x="-237.492"/><use xlink:href="#K" x="-220.807" class="m"/><use xlink:href="#J" x="-278.457"/><use xlink:href="#L" x="-220.807" class="k"/><use xlink:href="#M" x="-220.807" class="r"/><ellipse cx="223.994" cy="2990.042" rx="5.578" ry="7.051" class="s"/><use xlink:href="#N" x="-220.807" class="AB"/><use xlink:href="#O" x="-220.807" class="l"/><g class="p"><use xlink:href="#P" x="-220.807"/><use xlink:href="#Q" x="-220.807"/><use xlink:href="#R" x="-220.807"/><path d="M224.129 2989.696l2.15-3.045.923.691-2.154 3.042z"/><use xlink:href="#S" x="-220.807"/></g><use xlink:href="#T" x="-220.807" class="n"/><use xlink:href="#U" x="-220.807" class="p"/><g class="q"><use xlink:href="#P" x="-221.259"/><use xlink:href="#V" x="-220.807"/><use xlink:href="#R" x="-221.259"/><path d="M223.677 2989.695l2.414-3.418.921.694-2.411 3.415z"/><use xlink:href="#W" x="-220.807"/></g><use xlink:href="#X" x="-220.807" class="l"/><use xlink:href="#Y" x="-220.807" class="q"/><use xlink:href="#Z" x="-220.807" class="t"/><ellipse cx="264.96" cy="2990.042" rx="5.578" ry="7.051" class="s"/><use xlink:href="#N" x="-179.841" class="AB"/><use xlink:href="#a" x="-220.807" class="l"/><g class="p"><use xlink:href="#P" x="-179.841"/><use xlink:href="#Q" x="-179.841"/><use xlink:href="#R" x="-179.841"/><path d="M265.096 2989.697l2.149-3.046.923.691-2.153 3.043z"/><use xlink:href="#S" x="-179.841"/></g><use xlink:href="#T" x="-179.841" class="n"/><use xlink:href="#U" x="-179.841" class="p"/><g class="q"><use xlink:href="#P" x="-180.293"/><use xlink:href="#V" x="-179.841"/><use xlink:href="#R" x="-180.293"/><path d="M264.643 2989.698l2.412-3.419.921.694-2.41 3.416z"/><use xlink:href="#W" x="-179.841"/></g><use xlink:href="#b" x="-220.807" class="l"/><use xlink:href="#c" x="-220.807" class="q"/><use xlink:href="#Z" x="-179.841" class="t"/><path d="M272.826 2984.869v8.265h20.147c.708 0 1.888-8.163 1.9-8.265z" class="k"/><g class="u"><use xlink:href="#d" x="-220.807"/><use xlink:href="#e" x="-220.807"/><use xlink:href="#f" x="-220.807"/></g><path d="M273.867 2981.406a6.98 6.98 0 0 1 2.364 3.46l4.609-.006c-.828-2.934-4.868-3.454-6.973-3.454zm18.821.184c-1.246.33-2.277 1.195-2.427 3.27h4.614a7.17 7.17 0 0 0-2.187-3.27z" class="AL"/><use xlink:href="#g" x="-220.807" class="u"/><use xlink:href="#h" x="-220.807" class="k"/><path d="M266.365 2968.558h-16.78c4.2 2.287 8.105 7.879 8.105 7.879h17.095s-4.217-5.592-8.42-7.879z" class="v"/><path d="M241.144 2990.165h11.173c3.574 0-2.745-3.065-11.916-3.065-5.434 0-5.472 3.065.743 3.065z" class="k"/><use xlink:href="#i" x="-220.807" class="AD"/><use xlink:href="#j" x="-220.807" class="m"/><use xlink:href="#k" x="-220.807" class="r"/><path d="M257.637 2968.558c3.67 2.857 9.086 4.438 14.476 4.758a25.14 25.14 0 0 0-5.747-4.758z" class="v"/><g class="o"><path d="M266.367 2968.558h-.7c4.2 2.287 8.416 7.879 8.416 7.879h.7s-4.216-5.592-8.416-7.879z"/><use xlink:href="#l" x="-220.807"/><path d="M234.599 2975.465l1.379-5.754.151.037-1.375 5.755zm20.455 1.165l-.842-1.381a3.35 3.35 0 0 1-1.186 2.071h1.625a.47.47 0 0 0 .403-.69z"/><use xlink:href="#m" x="-220.807"/></g><use xlink:href="#n" x="-220.807" class="AM"/><use xlink:href="#o" x="-220.807" class="AC"/><use xlink:href="#p" x="-220.807" class="o"/><path d="M192.738 3018.364H91.792v-72.81h100.946z" class="z"/><g filter="url(#A)" transform="translate(-18.04 2900)" class="x"><circle cx="14.312" cy="14.312" r="14.312" transform="translate(311.92 192.95)"/></g><g filter="url(#B)" transform="translate(-18.04 2900)" class="x"><circle cx="14.312" cy="14.312" r="14.312" transform="translate(233.05 98.9)"/></g><g filter="url(#C)" transform="translate(-18.04 2900)" class="x"><circle cx="14.312" cy="14.312" r="14.312" transform="translate(343.46 100.27)"/></g><g filter="url(#D)" transform="translate(-18.04 2900)" class="x"><ellipse cx="13.63" cy="14.312" rx="13.63" ry="14.312" transform="translate(448.41 98.9)"/></g><g class="k"><use xlink:href="#q"/><use xlink:href="#q" x="-78.866" y="-76.155"/><use xlink:href="#q" x="31.537" y="-74.792"/><use xlink:href="#q" x="136.001" y="-76.155"/></g><g fill="#acc7ea"><use xlink:href="#r"/><use xlink:href="#r" y="40.525"/><use xlink:href="#s"/><use xlink:href="#r" x="-58.99"/><use xlink:href="#r" x="-58.99" y="40.525"/><use xlink:href="#s" x="-58.99"/><use xlink:href="#r" x="-142.381"/><use xlink:href="#r" x="-142.381" y="40.525"/><use xlink:href="#s" x="-142.381"/></g><g class="w"><use xlink:href="#r" x="-225.773"/><use xlink:href="#r" x="-225.773" y="40.525"/><use xlink:href="#s" x="-225.773"/></g><g fill="#acc7ea"><use xlink:href="#r" x="-225.773"/><use xlink:href="#r" x="-225.773" y="40.525"/><use xlink:href="#s" x="-225.773"/><path d="M79.665 3192.287h19.111v3.449H79.665zm0 40.525h19.111v3.449H79.665z"/><use xlink:href="#s" x="-309.164"/><rect width="355.556" height="25.423" rx="12.711" x="62.533" y="3166.987"/></g><rect width="346.031" height="17.935" rx="8.967" x="65.974" y="3170.731" class="z"/><g class="AC"><use xlink:href="#t"/><ellipse cx="75.007" cy="3179.698" rx="1.737" ry="1.724"/><path d="M109.753 3170.731a8.97 8.97 0 0 0-8.9 9.011 8.97 8.97 0 0 0 8.988 8.923 8.97 8.97 0 0 0 8.945-8.966 9 9 0 0 0-9.034-8.968zm0 16.071a7.1 7.1 0 0 1 .085-14.2 7.1 7.1 0 0 1 7.079 7.1c-.023 3.937-3.227 7.112-7.164 7.1z"/><ellipse cx="109.753" cy="3179.698" rx="1.737" ry="1.724"/><use xlink:href="#t" x="69.493"/><ellipse cx="144.5" cy="3179.698" rx="1.737" ry="1.724"/><use xlink:href="#t" x="104.239"/><ellipse cx="179.246" cy="3179.698" rx="1.737" ry="1.724"/><use xlink:href="#u"/><ellipse cx="214.045" cy="3179.698" rx="1.737" ry="1.724"/></g><g class="w"><use xlink:href="#t" x="173.784"/><ellipse cx="248.791" cy="3179.698" rx="1.737" ry="1.724"/><use xlink:href="#t" x="208.531"/><ellipse cx="283.538" cy="3179.698" rx="1.737" ry="1.724"/><use xlink:href="#t" x="243.277"/><ellipse cx="318.284" cy="3179.698" rx="1.737" ry="1.724"/></g><g class="AC"><use xlink:href="#t" x="277.971"/><ellipse cx="352.978" cy="3179.698" rx="1.737" ry="1.724"/><use xlink:href="#u" x="173.68"/><ellipse cx="387.725" cy="3179.698" rx="1.737" ry="1.724"/></g><path d="M110.674 2930.193l-6.411 2.26.18-15.922h6.8z" class="AG"/><path d="M79.34 2902.372h57.006c0 4.199-1.668 8.227-4.638 11.196s-6.997 4.638-11.196 4.638H95.174c-8.745 0-15.834-7.089-15.834-15.834z" class="AH"/><path d="M84.506 3091.643l-6.558 4.576-30.491-48.208 6.559-4.577z" class="AG"/><path fill="#efb247" d="M51.229 3053.521a9.05 9.05 0 0 1-7.92-9.966l6.149-54.815a8.89 8.89 0 0 1 9.906-7.852 9.05 9.05 0 0 1 7.916 9.968l-6.146 54.818a8.89 8.89 0 0 1-9.905 7.847z"/><path fill="#f9be4a" d="M52.462 2991.091a11 11 0 0 1 .383-15.634l46.736-44.105c4.467-4.211 11.491-4.042 15.75.38a11 11 0 0 1-.383 15.634l-46.736 44.1c-4.466 4.213-11.49 4.045-15.75-.375z"/><g class="AG"><path d="M110.577 2939.177c.014 1.241-.723 2.368-1.865 2.854s-2.465.234-3.349-.638-1.155-2.19-.686-3.34 1.585-1.902 2.827-1.906a3.05 3.05 0 0 1 3.074 3.03z"/><ellipse cx="60.399" cy="2983.693" rx="3.064" ry="3.041"/><path d="M55.535 3044.874c-.031.807-.384 1.568-.98 2.114a3.02 3.02 0 0 1-2.192.79 3.08 3.08 0 0 1-2.927-3.195c.031-.807.384-1.569.98-2.114s1.385-.83 2.192-.79a3.08 3.08 0 0 1 2.927 3.196zm21.077 38.512h29.819v7.455H76.612z"/></g><path d="M53.732 2900.003h470.993v5.414H53.732z" class="AH"/><path d="M76.866 3089.03l7.587 18.615 45.66 23.722 27.38-9.023 2.158-3.508-50.731-31.21z" fill="#3b5972"/><path d="M108.488 3087.737l50.866 31.057-1.6 3.151-47.1-11.061z" fill="#365169"/><g transform="matrix(.987688 -.156434 .156434 .987688 85.605926 3092.622957)"><path d="M66.075 10.569h2.669a.71.71 0 0 0 .682-.844l-.222-1.246a.78.78 0 0 0-.763-.654h-2.366a.7.7 0 0 0-.693.714v1.316a.7.7 0 0 0 .693.714z" class="m"/><path d="M35.11.786L35.289.6c.369-.382.877-.599 1.409-.6h19.794a1.96 1.96 0 0 1 1.371.563l.228.223z" class="AF"/><path d="M33.902.786L34.081.6c.369-.382.877-.599 1.409-.6h19.794a1.96 1.96 0 0 1 1.371.563l.229.223z" class="o"/><use xlink:href="#v"/><ellipse cx="69.645" cy="27.955" rx="6.061" ry="7.661"/><path d="M41.182 27.955c0 4.231-2.713 7.661-6.061 7.661h-3.897V20.294h3.9c3.345 0 6.058 3.43 6.058 7.661z"/><ellipse cx="31.224" cy="27.955" rx="6.061" ry="7.661"/><use xlink:href="#v" x="-19.433"/><path d="M21.748 27.955c0 4.231-2.714 7.661-6.061 7.661H11.79V20.294h3.9c3.345 0 6.058 3.43 6.058 7.661z"/><path d="M23.07 29.786c-1.228 0-2.546-2.622-2.546-4.214V21.21l.864-1.4v-6.539c0-1.264 6.606-12.485 9.985-12.485h26.878c3.228 0 9.758 9.634 9.758 9.634s7.956.572 10.32.9 5 .361 5 3.435v5.331l.767 1.411a4.18 4.18 0 0 1 .505 1.995v2.937c0 1.639-1.136 3.357-2.3 3.357z" class="m"/><path d="M84.347 22.057c-.069-.193-.153-.38-.25-.56l-.768-1.412v-5.33c.005-.363-.041-.725-.135-1.076H55.565v16.106h26.741a2.16 2.16 0 0 0 1.65-1.173q.079-.125.15-.259a4.2 4.2 0 0 0 .5-1.925v-2.936a4.21 4.21 0 0 0-.255-1.435z" class="k"/><path d="M20.897 27.331c.478 1.264 1.345 2.455 2.172 2.455h59.237c.945 0 1.876-1.144 2.186-2.455zm63.199-5.833l-.767-1.412H47.92v2.463h36.57c-.083-.367-.216-.72-.394-1.051z" class="m"/><path d="M58.34 15.394H.88l1.665 14.391h57.46z"/><path d="M61.907 21.497l-.767-1.411v-5.331c0-3.074-2.637-3.107-5-3.435s-10.32-.9-10.32-.9S39.289.786 36.062.786H10.849C7.47.786.864 10.535.864 14.766v5.04l-.4.657A3.12 3.12 0 0 0 0 22.095v3.477c0 1.592 1.318 4.214 2.546 4.214h2.445l.832-6.769a4.52 4.52 0 0 1 4.434-4.025h3.073c2.28.028 4.182 1.752 4.433 4.018l.844 6.776h24.805l.832-6.769a4.52 4.52 0 0 1 4.434-4.025h3.074a4.52 4.52 0 0 1 4.433 4.018l.843 6.776h3.089c1.159 0 2.3-1.718 2.3-3.357v-2.937c-.001-.697-.176-1.383-.51-1.995z" class="k"/><ellipse cx="11.791" cy="27.955" rx="6.061" ry="7.661" class="s"/><path d="M11.79 32.479c-1.974 0-3.579-2.03-3.579-4.524s1.605-4.525 3.579-4.525 3.579 2.03 3.579 4.525-1.605 4.524-3.579 4.524z"/><path d="M12.591 28.921h-.656a.91.91 0 0 1-.554-.962c0-.44.554-.963.554-.963h.656a.88.88 0 0 1 .761.963.88.88 0 0 1-.761.962z" class="l"/><path d="M11.934 28.921a.88.88 0 0 1-.761-.962.88.88 0 0 1 .761-.963.88.88 0 0 1 .762.963.88.88 0 0 1-.762.962z" class="n"/><g class="l"><path d="M9.002 27.955c0-2.326 1.4-4.246 3.184-4.5-.131-.018-.264-.026-.396-.025-1.974 0-3.579 2.03-3.579 4.525s1.605 4.524 3.579 4.524a2.86 2.86 0 0 0 .4-.029c-1.792-.25-3.188-2.17-3.188-4.495z"/><path d="M12.239 27.955l-.423-4.739h1.454l-.423 4.739z"/><use xlink:href="#w"/><use xlink:href="#x"/><path d="M12.789 27.771l2.36 2.6-1.177.88-1.675-3.112z"/><path d="M12.449 27.657l2.7-1.36.449 1.424-2.961.532z"/></g><g class="n"><path d="M11.631 27.955l-.423-4.739h1.454l-.423 4.739z"/><use xlink:href="#w" x="-0.608"/><use xlink:href="#x" x="-0.608"/><path d="M12.181 27.771l2.731 3.132-1.176.88-2.047-3.644z"/><path d="M11.841 27.657l3.3-1.564.449 1.424-3.561.735z"/></g><path d="M11.79 22.815c-2.245 0-4.066 2.3-4.066 5.14s1.821 5.14 4.066 5.14 4.066-2.3 4.066-5.14-1.82-5.14-4.066-5.14zm0 9.8c-2.034 0-3.689-2.088-3.689-4.66s1.655-4.664 3.689-4.664 3.69 2.093 3.69 4.665-1.656 4.659-3.69 4.659z" class="l"/><path d="M11.791 22.969c-2.179 0-3.945 2.233-3.945 4.987s1.766 4.985 3.945 4.985 3.944-2.232 3.944-4.985-1.766-4.987-3.944-4.987zm0 9.511c-1.974 0-3.58-2.03-3.58-4.524s1.606-4.525 3.58-4.525 3.579 2.03 3.579 4.525-1.606 4.524-3.579 4.524z" class="n"/><use xlink:href="#y" class="t"/><path d="M.46 20.462A3.12 3.12 0 0 0 0 22.095v3.476c0 1.592 1.318 4.214 2.546 4.214h2.445l.832-6.769a4.62 4.62 0 0 1 1.868-3.188l-6.827-.023zm17.304 2.547l.843 6.776h24.805l.832-6.769a4.62 4.62 0 0 1 1.629-3l-29.923-.15a4.62 4.62 0 0 1 1.814 3.143zm44.141-1.512l-.765-1.412-6.535-.029c.877.753 1.441 1.806 1.58 2.953l.843 6.776h3.089c1.159 0 2.3-1.718 2.3-3.357v-2.936a4.18 4.18 0 0 0-.512-1.995z" class="u"/><ellipse cx="50.212" cy="27.955" rx="6.061" ry="7.661" class="s"/><path d="M50.211 32.479c-1.973 0-3.579-2.03-3.579-4.524s1.606-4.525 3.579-4.525 3.58 2.03 3.58 4.525-1.606 4.524-3.58 4.524z"/><path d="M51.012 28.921h-.655a.91.91 0 0 1-.555-.962c0-.44.554-.963.554-.963h.656a.88.88 0 0 1 .762.963.88.88 0 0 1-.762.962z" class="l"/><path d="M50.355 28.921a.88.88 0 0 1-.761-.962.88.88 0 0 1 .761-.963.88.88 0 0 1 .761.963.88.88 0 0 1-.761.962z" class="n"/><g class="l"><path d="M47.423 27.955c0-2.326 1.4-4.246 3.184-4.5-.131-.018-.264-.026-.396-.025-1.973 0-3.579 2.03-3.579 4.525s1.606 4.524 3.579 4.524a2.87 2.87 0 0 0 .4-.029c-1.792-.25-3.188-2.17-3.188-4.495z"/><path d="M50.66 27.955l-.423-4.739h1.454l-.423 4.739z"/><use xlink:href="#w" x="38.421"/><use xlink:href="#x" x="38.421"/><path d="M51.21 27.771l2.36 2.6-1.176.88-1.676-3.112z"/><path d="M50.87 27.657l2.7-1.36.449 1.424-2.961.532z"/></g><g class="n"><path d="M50.052 27.955l-.423-4.739h1.454l-.423 4.739z"/><use xlink:href="#w" x="37.813"/><use xlink:href="#x" x="37.812"/><path d="M50.602 27.771l2.732 3.132-1.176.88-2.048-3.644z"/><path d="M50.262 27.657l3.3-1.564.449 1.424-3.561.735z"/></g><path d="M50.212 22.815c-2.246 0-4.066 2.3-4.066 5.14s1.82 5.14 4.066 5.14 4.066-2.3 4.066-5.14-1.82-5.14-4.066-5.14zm0 9.8c-2.034 0-3.69-2.088-3.69-4.66s1.656-4.664 3.69-4.664 3.69 2.093 3.69 4.665-1.656 4.659-3.69 4.659z" class="l"/><path d="M50.211 22.969c-2.178 0-3.944 2.233-3.944 4.987s1.766 4.985 3.944 4.985 3.945-2.232 3.945-4.985-1.766-4.987-3.945-4.987zm0 9.511c-1.973 0-3.579-2.03-3.579-4.524s1.606-4.525 3.579-4.525 3.579 2.03 3.579 4.525-1.605 4.524-3.579 4.524z" class="n"/><use xlink:href="#y" x="38.421" class="t"/><path d="M16.941 29.786h26.47l.302-2.455H16.635zm-14.396 0H4.99l.302-2.455H.373c.478 1.264 1.345 2.455 2.172 2.455zm54.177-2.455l.306 2.455h3.089c.945 0 1.875-1.144 2.186-2.455zm-8.595-11.48h-.014l-43.766-.596c-.56-.016-1.001-.483-.986-1.043a1.01 1.01 0 0 1 1.013-1.015l43.766.6c.56.016 1.001.483.986 1.043-.002.553-.446 1.003-.999 1.011z" class="k"/><path d="M64.502 15.551h16.819v4.535H64.502z" fill="#ffedb9"/><path d="M61.14 20.086h6.08c.3 0 .529-.383.465-.79l-.691-2.716c-.094-.6-.484-1.029-.928-1.029H61.14c-.968 0 0 4.535 0 4.535z" class="AA"/><path d="M61.14 15.551h-1.089c-.641 0-.8 2.114-.8 4.535h1.889z" fill="#ffd17a"/><path d="M83.329 15.551H80c-.346 0-.645.429-.718 1.029l-.536 2.716c-.049.406.126.79.36.79h4.223z" class="AA"/><g class="k"><rect width=".925" height="10.012" rx=".463" transform="matrix(0 -1 1 0 68.361 19.514)"/><rect width=".925" height="10.012" rx=".463" transform="matrix(0 -1 1 0 68.361 18.281)"/><rect width=".925" height="10.012" rx=".463" transform="matrix(0 -1 1 0 68.361 17.049)"/></g><path d="M2.322 19.812s.224-4.246-1.458-4.246v4.24z" class="AD"/><path d="M12.92.786L13.099.6c.369-.382.877-.599 1.409-.6h19.794a1.96 1.96 0 0 1 1.371.563l.228.223z" class="AF"/><path d="M11.713.786L11.892.6a1.96 1.96 0 0 1 1.409-.6h19.793a1.96 1.96 0 0 1 1.371.563l.228.223z" class="o"/><path d="M46.819 10.42h20.524s-4.576-6.748-7.96-8.948H38.859c3.384 2.2 7.96 8.948 7.96 8.948z" class="v"/><g class="AA"><ellipse cx="65.21" cy="24.955" rx=".995" ry="1.202"/><path d="M84.053 24.954c.051.603-.389 1.135-.99 1.2-.605-.06-1.05-.594-1-1.2-.05-.606.395-1.14 1-1.2.601.065 1.041.597.99 1.2z"/></g><path d="M36.062 1.815h-23.58c-.949 0-3.059 1.557-5.449 4.975l-.03.043c-.562.8-.637 1.845-.197 2.718s1.325 1.433 2.302 1.458h34.655a.66.66 0 0 0 .516-1.043c-3.967-5.612-7.156-8.151-8.217-8.151z" class="r"/><path d="M7.536 6.833l.03-.043c2.39-3.418 4.5-4.975 5.449-4.975h-.533c-.949 0-3.059 1.557-5.449 4.975l-.03.043c-.562.8-.637 1.845-.197 2.718s1.325 1.433 2.302 1.458h.533c-.977-.025-1.862-.585-2.302-1.458s-.364-1.918.197-2.718z" class="o"/><path d="M26.027 15.636c-.045-.001-.082-.037-.083-.082l-.077-2.059c-.001-.047.036-.085.083-.086.023 0 .044.009.06.026s.024.038.024.06l.077 2.052c.002.047-.033.086-.08.089zm-12.273-.166c-.046-.001-.083-.038-.083-.084l-.05-2.061c-.001-.047.036-.085.083-.086.023 0 .044.009.06.026s.024.038.024.06l.049 2.057c.002.047-.034.086-.081.088zm28.484.388c-.022 0-.044-.009-.059-.025s-.024-.037-.024-.06l-.026-2.06c-.001-.047.036-.085.083-.086.023 0 .044.009.06.026s.024.038.024.06l.026 2.058c.001.047-.035.085-.082.087z" class="m"/><path d="M13.33 17.962h-3.073a5.54 5.54 0 0 0-5.426 4.925l-.844 6.87c.073.019.148.028.224.029h.776l.832-6.769a4.52 4.52 0 0 1 4.438-4.026h3.073a4.52 4.52 0 0 1 4.433 4.018l.843 6.776h1.007l-.859-6.907a5.54 5.54 0 0 0-5.424-4.916zm38.421 0h-3.074a5.54 5.54 0 0 0-5.425 4.925l-.848 6.899h1.008l.832-6.769a4.52 4.52 0 0 1 4.434-4.026h3.074c2.28.028 4.182 1.752 4.433 4.018l.843 6.776h1.006l-.859-6.907a5.54 5.54 0 0 0-5.424-4.916z" class="k"/><path d="M15.246 11.009h-1.477l1.16-9.194h1.477zm12.085 0h-1.477l.493-9.194h1.477zm16.948-1.042l-2.364-3.106-.594 4.149h2.442a.66.66 0 0 0 .516-1.043z" class="o"/><g class="m"><path d="M17.819 14.354c0 .624-.327.782-1.633.782s-1.633-.157-1.633-.782.327-.781 1.633-.781 1.633.157 1.633.781z"/><path d="M16.186 14.331a8.24 8.24 0 0 0-1.63.114c.033.549.391.686 1.63.686s1.6-.142 1.63-.692a8.22 8.22 0 0 0-1.63-.108zm13.841.194c0 .625-.327.782-1.633.781s-1.633-.157-1.633-.781.327-.782 1.633-.782 1.633.157 1.633.782z"/><path d="M28.394 14.501a8.27 8.27 0 0 0-1.63.115c.033.548.391.685 1.63.69s1.6-.142 1.63-.692a8.22 8.22 0 0 0-1.63-.113z"/></g><path d="M40.79 8.486h1.064c.205 0 .372.167.372.372s-.167.372-.372.372H40.79v-.744zm0 1.122h1.064c.205 0 .372.167.372.372s-.167.372-.372.372H40.79v-.744z" class="o"/><path d="M40.353 10.569h-2.669a.71.71 0 0 1-.681-.844l.222-1.246a.78.78 0 0 1 .766-.654h2.362a.7.7 0 0 1 .693.714v1.316a.7.7 0 0 1-.693.714z" class="k"/><path d="M40.353 7.825h-2.366a.78.78 0 0 0-.762.654l-.222 1.246c-.013.079-.013.159 0 .238h2.9a.8.8 0 0 0 .784-.808V7.916a.67.67 0 0 0-.334-.091z" class="m"/></g><path d="M77.178 3089.228l55.143 38.021-2.2 4.248-50.234-6.2z" class="w"/><path d="M157.595 3122.351l2.223-3.555-27.904 8.155-1.779 4.465z" fill="#6589a8"/><g transform="matrix(.996195 -.087156 .087156 .996195 62.533002 3035.66204)"><path d="M10.37 51.59l4.139-15.259 33.369-22.897 22.239 4.42 2.021 2.532-32.072 32.301z" fill="#3b5972"/><path d="M39.739 51.873l32.164-31.414-1.554-2.307-35.712 13.15z" fill="#365169"/><path d="M10.587 51.415l39.398-34.966-2.122-3.106L9.321 30.35z" class="w"/><path d="M70.191 17.85l2.077 2.566-22.568-3.696-1.818-3.315z" fill="#6589a8"/><path d="M14.93 59.798l-7.442-1.187c-1.98-.307-3.757-1.387-4.94-3.004S.872 51.97 1.179 49.99c.669-4.118 4.55-6.913 8.668-6.245l7.482 1.193z" class="w"/><path d="M8.971 48.693c.919.094 1.716.676 2.086 1.523s.256 1.826-.298 2.565-1.464 1.122-2.38 1.003c-.919-.094-1.716-.676-2.086-1.523s-.256-1.826.298-2.565 1.464-1.122 2.38-1.003z" class="AG"/></g><path d="M287.508 3139.624c0 .586.436 1.062 2.163 1.062s4.092-.476 4.092-1.062-2.365-1.062-4.092-1.062-2.163.476-2.163 1.062z" class="z"/><use xlink:href="#z"/><use xlink:href="#z" x="-52.634"/><ellipse cx="246.959" cy="3157.667" rx="7.167" ry="9.06"/><ellipse cx="299.593" cy="3157.667" rx="7.167" ry="9.06"/><path d="M217.689 3146.807h70.573v14.746h-70.573z"/><use xlink:href="#z" x="-21.437"/><path d="M316.592 3151.014c-.1-1.084-2.534-5.47-8.85-8.085-6.455-2.673-16.17-2.742-16.17-2.742s-7.917-11.357-14.572-11.357h-23.954c-3.317 4.249 21.9 16.791 25.3 16.791.977 0 9.306 1.181 9.306 16.018h26.494c.916 0 2.446-10.625 2.446-10.625z" class="m"/><use xlink:href="#z" x="-74.071"/><path d="M292.638 3151.021c0-.96-2.4-5.415-8.85-8.087s-16.169-2.742-16.169-2.742-7.919-11.362-14.573-11.362c-10.901.046-21.557 3.234-30.691 9.184-2.816.308-5.053.4-6.451 1.535-1.114.908-1.723 5.8-1.723 9.488.005.945-1.326 1.793-1.326 2.493 0 4.754 1.812 9.187 4.834 10.026v-3.889c0-5.395 3.514-9.784 7.833-9.784s7.833 4.389 7.833 9.784v2.739c-.005.323.119.634.344.866s.533.364.856.368h34.571c.323-.004.631-.137.856-.368s.349-.543.344-.866v-2.739c0-5.395 3.514-9.784 7.833-9.784s7.832 4.389 7.832 9.784v2.739c-.005.323.119.634.344.866s.533.364.856.368h3.007c.909-.001 2.439-10.167 2.44-10.619z" class="k"/><path d="M236.015 3137.732c-.945-.541-1.487-1.584-1.386-2.668s.827-2.009 1.856-2.366c5.352-1.724 10.939-2.613 16.562-2.634 3.9 0 9.791 5.559 12.382 10.371a.6.6 0 0 1-.517.891c-17.654.038-25.207-1.492-28.897-3.594z" class="r"/><ellipse cx="225.522" cy="3157.667" rx="7.167" ry="9.06" class="s"/><use xlink:href="#AA" class="AB"/><path d="M226.558 3156.415c-.062 0-.79-.014-.849 0a1.18 1.18 0 0 0-.718 1.247c0 .57.717 1.247.717 1.247h.849a1.14 1.14 0 0 0 .986-1.247 1.14 1.14 0 0 0-.985-1.247z" class="l"/><g class="p"><path d="M225.557 3157.667h1.466v6.139h-1.466z"/><use xlink:href="#AB"/><use xlink:href="#AC"/><path d="M225.697 3157.223l2.761-3.912 1.186.887-2.762 3.913z"/><path d="M226.064 3158.385l.453-1.435 3.869 1.294-.453 1.436z"/></g><path d="M225.709 3156.415a1.14 1.14 0 0 0-.986 1.247 1.14 1.14 0 0 0 .986 1.247 1.14 1.14 0 0 0 .986-1.247 1.14 1.14 0 0 0-.986-1.247z" class="n"/><path d="M221.911 3157.666c0 3.013 1.808 5.5 4.124 5.823a3.67 3.67 0 0 1-.513.038c-2.556 0-4.636-2.629-4.636-5.861s2.08-5.861 4.637-5.861c.172.001.343.014.513.038-2.317.324-4.125 2.81-4.125 5.823z" class="p"/><g class="q"><path d="M224.976 3157.667h1.466v6.139h-1.466z"/><use xlink:href="#AB" x="-0.58"/><use xlink:href="#AC" x="-0.581"/><path d="M225.116 3157.221l3.097-4.387 1.186.888-3.097 4.387z"/><path d="M225.481 3158.385l.453-1.436 4.45 1.489-.453 1.436z"/></g><path d="M230.79 3157.666c0-3.677-2.359-6.658-5.267-6.658s-5.268 2.981-5.268 6.658 2.358 6.658 5.268 6.658 5.267-2.98 5.267-6.658zm-.488 0c0 3.332-2.144 6.042-4.78 6.042s-4.779-2.71-4.779-6.042 2.144-6.042 4.78-6.042 4.779 2.711 4.779 6.042z" class="l"/><path d="M230.632 3157.666c0-3.567-2.288-6.459-5.11-6.459s-5.11 2.892-5.11 6.459 2.288 6.459 5.11 6.459 5.11-2.892 5.11-6.459zm-.474 0c0 3.232-2.08 5.862-4.636 5.862s-4.637-2.63-4.637-5.862 2.08-5.859 4.637-5.859 4.636 2.628 4.636 5.859z" class="q"/><use xlink:href="#AD" class="t"/><ellipse cx="278.156" cy="3157.667" rx="7.167" ry="9.06" class="s"/><use xlink:href="#AA" x="52.634" class="AB"/><path d="M279.192 3156.415c-.062 0-.79-.014-.849 0a1.18 1.18 0 0 0-.718 1.247c0 .57.718 1.247.718 1.247h.849a1.14 1.14 0 0 0 .986-1.247 1.14 1.14 0 0 0-.986-1.247z" class="l"/><g class="p"><path d="M278.191 3157.667h1.466v6.139h-1.466z"/><use xlink:href="#AB" x="52.634"/><use xlink:href="#AC" x="52.634"/><path d="M278.33 3157.223l2.76-3.913 1.186.887-2.761 3.914z"/><path d="M278.698 3158.385l.453-1.435 3.869 1.294-.453 1.436z"/></g><path d="M278.342 3156.415a1.14 1.14 0 0 0-.986 1.247 1.14 1.14 0 0 0 .986 1.247 1.14 1.14 0 0 0 .987-1.247 1.14 1.14 0 0 0-.987-1.247z" class="n"/><path d="M274.545 3157.666c0 3.013 1.808 5.5 4.124 5.823-.17.025-.341.037-.513.038-2.556 0-4.636-2.629-4.636-5.861s2.08-5.861 4.637-5.861a3.72 3.72 0 0 1 .513.038c-2.317.324-4.125 2.81-4.125 5.823z" class="p"/><g class="q"><path d="M277.61 3157.667h1.466v6.139h-1.466z"/><use xlink:href="#AB" x="52.054"/><use xlink:href="#AC" x="52.053"/><path d="M277.751 3157.222l3.096-4.388 1.186.888-3.096 4.388z"/><path d="M278.115 3158.385l.453-1.436 4.45 1.489-.453 1.436z"/></g><path d="M283.424 3157.666c0-3.677-2.359-6.658-5.268-6.658s-5.267 2.981-5.267 6.658 2.358 6.658 5.267 6.658 5.268-2.98 5.268-6.658zm-.488 0c0 3.332-2.144 6.042-4.78 6.042s-4.779-2.71-4.779-6.042 2.144-6.042 4.779-6.042 4.78 2.711 4.78 6.042z" class="l"/><path d="M283.266 3157.666c0-3.567-2.288-6.459-5.11-6.459s-5.11 2.892-5.11 6.459 2.288 6.459 5.11 6.459 5.11-2.892 5.11-6.459zm-.473 0c0 3.232-2.08 5.862-4.637 5.862s-4.637-2.63-4.637-5.862 2.08-5.859 4.637-5.859 4.636 2.628 4.636 5.859z" class="q"/><use xlink:href="#AD" x="52.634" class="t"/><path d="M288.262 3151.02v10.619h25.885c.91 0 2.426-10.488 2.445-10.619z" class="k"/><path d="M292.638 3151.02l-8.752-.015a11.17 11.17 0 0 1 2.1 6.661v2.739c-.005.323.119.634.344.866s.533.364.856.368h3.007c.914-.001 2.444-10.167 2.445-10.619zm-79.783.507c0 4.754 1.812 9.187 4.834 10.026v-3.887c-.076-3.059 1.17-6.003 3.42-8.077a210.52 210.52 0 0 1-6.923-.552c0 .945-1.331 1.8-1.331 2.49zm20.5 6.139v2.739c-.005.323.119.634.344.866s.533.364.856.368h34.571c.323-.004.631-.137.856-.368s.349-.543.344-.866v-2.739a11.15 11.15 0 0 1 2.144-6.718l-42.015-.875a10.84 10.84 0 0 1 2.9 7.593z" class="u"/><path d="M289.6 3146.571c2.15 1.983 3.038 3.862 3.038 4.446l5.922-.008c-1.06-3.77-6.255-4.438-8.96-4.438zm24.181.236c-1.601.424-2.925 1.535-3.118 4.2h5.928a9.21 9.21 0 0 0-2.81-4.2z" class="AL"/><path d="M308.708 3147.352a18.95 18.95 0 0 0-6.6-4.422c-6.458-2.673-16.173-2.742-16.173-2.742h-9.543s9.715.069 16.169 2.742a18.95 18.95 0 0 1 6.6 4.422c1.583 1.678 11.131 1.678 9.547 0z" class="u"/><path d="M308.708 3147.352a18.95 18.95 0 0 0-6.6-4.422c-6.453-2.673-16.173-2.742-16.173-2.742h-.78s9.715.069 16.169 2.742a18.95 18.95 0 0 1 6.6 4.422c.747.793-.993 1.211-3.2 1.254 2.556.049 4.817-.369 3.984-1.254z" class="k"/><path d="M279.961 3130.064h-21.559c5.4 2.938 10.414 10.124 10.414 10.124h21.959s-5.413-7.186-10.814-10.124z" class="v"/><path d="M247.557 3157.826h14.356c4.591 0-3.527-3.938-15.305-3.938-6.987 0-7.036 3.938.949 3.938z" class="k"/><path d="M214.455 3144.784h-.031l-.231 3.573h.262a1.69 1.69 0 0 0 1.666-1.716v-.141a1.69 1.69 0 0 0-1.666-1.716z" class="AD"/><path d="M287.717 3160.645a.81.81 0 0 1-.809-.822v-2.157c0-5.987-3.899-10.859-8.693-10.859s-8.694 4.872-8.694 10.859v2.16a.81.81 0 0 1-.8.823c-11.975-.058-23.6-.287-33.815-.913a.8.8 0 0 1-.738-.889c.551-6.514-3.541-12.04-8.646-12.04-4.57 0-8.327 4.426-8.669 10.026a.8.8 0 0 1-.892.766 4.59 4.59 0 0 1-2.327-.898c.8 2.466 2.2 4.337 4.055 4.852v-3.887c0-5.395 3.514-9.784 7.833-9.784s7.832 4.389 7.832 9.784v2.741c-.004.539.346 1.018.861 1.178v-.024c.103.056.22.083.337.079h34.573c.14.007.28-.028.4-.1v.024a1.23 1.23 0 0 0 .8-1.159v-2.739c0-5.395 3.514-9.784 7.833-9.784s7.832 4.389 7.832 9.784v2.741c-.006.564.374 1.06.92 1.2v-.013c.088.035.182.052.277.05h3.007c.181 0 .386-.4.6-1.043-1.16-.004-2.031.027-3.077.044z" class="m"/><path d="M264.327 3138.628c-2.917-4.294-7.864-8.564-11.281-8.564a54.05 54.05 0 0 0-14.019 1.888c4.875 3.518 15.242 6.003 25.3 6.676z" class="r"/><path d="M268.747 3130.064c4.716 3.671 11.675 5.7 18.6 6.114a32.3 32.3 0 0 0-7.385-6.114z" class="v"/><g class="o"><path d="M279.965 3130.064h-.9c5.4 2.938 10.813 10.124 10.813 10.124h.9s-5.413-7.186-10.813-10.124zm-43.09 7.668a2.78 2.78 0 0 1 .47-5.034c5.136-1.651 10.487-2.536 15.881-2.626-.06 0-.121-.008-.18-.008a54.68 54.68 0 0 0-16.566 2.634c-1.028.358-1.753 1.283-1.853 2.367s.442 2.127 1.388 2.667c3.695 2.1 11.248 3.63 28.9 3.593-17.033-.014-24.406-1.526-28.04-3.593z"/><path d="M239.148 3138.94l1.771-7.391.194.048-1.771 7.391zm26.281 1.495l-1.082-1.775a4.3 4.3 0 0 1-1.524 2.661h2.088a.6.6 0 0 0 .518-.886zm-3.167 2.171a.4.4 0 0 1-.33-.179l-1.324-1.992a.42.42 0 0 1 .1-.572c.087-.063.197-.087.303-.067a.39.39 0 0 1 .256.174l1.324 1.992a.42.42 0 0 1-.1.572.39.39 0 0 1-.229.072z"/></g><path d="M261.863 3139.624c0 .586-.435 1.062-2.163 1.062s-4.092-.475-4.092-1.062 2.365-1.062 4.092-1.062 2.163.476 2.163 1.062z" class="AM"/><path d="M261.573 3138.977c-.561-.342-1.22-.488-1.873-.415-1.727 0-4.092.476-4.092 1.062 0 .13.122.255.323.37a17.8 17.8 0 0 0 2.6.207c2.165.001 2.9-.527 3.042-1.224z" class="AC"/><path d="M244.176 3143.921h-.048l-4.046-.503a.41.41 0 0 1-.351-.458.4.4 0 0 1 .447-.362l4.045.5a.41.41 0 0 1 .349.457.4.4 0 0 1-.396.366z" class="o"/><use xlink:href="#AE" class="y"/><path d="M253.921 3060.385h11.138v3.827h-11.138z" class="w"/><use xlink:href="#AE" x="31.272" class="y"/><path d="M285.193 3060.385h11.138v3.827h-11.138z" class="w"/><use xlink:href="#AE" x="62.544" class="y"/><path d="M316.465 3060.385h11.138v3.827h-11.138z" class="w"/><path d="M342.432 3064.012v128.055H239.061l.12-73.945h-17.895v-6.4h8.075c5.424 0 9.82-5.226 9.82-11.674l-.12-36.033z" class="AI"/><path d="M246.857 3072.078h86.888v31.903h-86.888z" class="AC"/><path d="M266.94 3094.263a3.86 3.86 0 0 1-.984-2.815v-6.118a3.88 3.88 0 1 1 7.742 0v6.121c-.095 1.553-1.065 2.917-2.501 3.515s-3.088.327-4.257-.7zm4.375-1.31c.345-.421.517-.957.481-1.5v-6.123a2.16 2.16 0 0 0-.476-1.5 2.39 2.39 0 0 0-2.985 0 2.16 2.16 0 0 0-.475 1.5v6.121a2.15 2.15 0 0 0 .48 1.5c.869.698 2.107.698 2.976 0zm5.794 1.31a3.86 3.86 0 0 1-.985-2.815v-6.118a3.88 3.88 0 1 1 7.743 0v6.121c-.095 1.553-1.065 2.917-2.501 3.515s-3.088.327-4.257-.7zm4.375-1.31c.345-.421.517-.957.481-1.5v-6.123c.035-.542-.135-1.077-.476-1.5a2.39 2.39 0 0 0-2.986 0c-.341.423-.51.958-.475 1.5v6.121c-.036.543.136 1.079.48 1.5a2.38 2.38 0 0 0 2.976 0zm6.59 1.907a3.41 3.41 0 0 1-1.4-1.194 4.29 4.29 0 0 1-.667-1.884h1.94c.04.341.165.666.364.945a1.69 1.69 0 0 0 .723.551 2.75 2.75 0 0 0 1.04.181 2.03 2.03 0 0 0 1.464-.5 1.85 1.85 0 0 0 .523-1.407v-.408a2.26 2.26 0 0 0-.494-1.56c-.363-.381-.875-.583-1.4-.551h-.961v-1.8h.961a1.6 1.6 0 0 0 1.232-.472 1.89 1.89 0 0 0 .438-1.333v-.417a1.61 1.61 0 0 0-.463-1.231c-.363-.31-.833-.466-1.31-.435a2.01 2.01 0 0 0-.868.181 1.65 1.65 0 0 0-.647.556 2.53 2.53 0 0 0-.388.94h-1.93c.099-.672.337-1.315.7-1.889a3.44 3.44 0 0 1 1.311-1.195 3.93 3.93 0 0 1 1.819-.407c.99-.063 1.966.266 2.715.917a3.4 3.4 0 0 1 .961 2.584v.222a2.89 2.89 0 0 1-.551 1.759c-.392.518-.937.901-1.558 1.093.691.129 1.306.516 1.722 1.083.428.632.643 1.385.611 2.148v.222a4.13 4.13 0 0 1-.457 2.01 3.01 3.01 0 0 1-1.329 1.268 4.67 4.67 0 0 1-2.1.435 4.62 4.62 0 0 1-2.001-.412zm8.414-3.431l4.553-9.75h1.958l-4.44 9.639h6.652v1.75h-8.722zm5.849-4.213h1.856v7.926h-1.857zm7.169 7.658a3.27 3.27 0 0 1-1.3-1.157 4.59 4.59 0 0 1-.667-1.824v-.009h1.9v.009a1.75 1.75 0 0 0 .6 1.153c.366.287.823.433 1.287.412a1.73 1.73 0 0 0 1.413-.606 2.62 2.62 0 0 0 .5-1.709v-1.13c.037-.608-.14-1.209-.5-1.7a1.73 1.73 0 0 0-1.413-.606 1.8 1.8 0 0 0-.952.278c-.319.199-.591.464-.8.777h-1.735v-7.092h6.913v1.8h-5.01v3.028a2.71 2.71 0 0 1 .793-.445c.289-.104.593-.157.9-.157a3.96 3.96 0 0 1 2.01.481 3.1 3.1 0 0 1 1.27 1.407 5.25 5.25 0 0 1 .433 2.232v1.13a5.09 5.09 0 0 1-.448 2.231c-.278.595-.734 1.089-1.306 1.412a4.12 4.12 0 0 1-2.061.486 4.02 4.02 0 0 1-1.827-.401z" class="x"/><path d="M303.215 3119.28h1.763v22.504h-1.763zm8.593 0h1.763v22.504h-1.763z" class="AJ"/><g class="AK"><use xlink:href="#AF"/><use xlink:href="#AF" x="8.594" y="6.027"/></g><path d="M320.402 3119.28h1.763v22.504h-1.763z" class="AJ"/><path d="M322.318 3128.928h-2.07c-.483 0-.875-.392-.875-.875s.392-.875.875-.875h2.07c.483.001.874.392.875.875s-.392.875-.875.875z" class="AK"/><path d="M328.995 3119.28h1.763v22.504h-1.763z" class="AJ"/><use xlink:href="#AF" x="25.781" class="AK"/><ellipse cx="254.896" cy="3135.515" rx="6.302" ry="6.255" class="y"/><path d="M259.15 3131.584l-2.243 2.872c-.323.411-.917.486-1.332.167a.94.94 0 0 1-.168-1.322l2.244-2.871c.323-.411.917-.486 1.332-.167a.94.94 0 0 1 .167 1.321z" class="AI"/><ellipse cx="272.548" cy="3135.515" rx="6.302" ry="6.255" class="y"/><path d="M276.788 3139.466l-3.037-2.03a.94.94 0 0 1-.258-1.308c.295-.432.883-.545 1.318-.255l3.037 2.03a.94.94 0 0 1 .257 1.307c-.295.432-.882.546-1.317.256z" class="AI"/><ellipse cx="290.2" cy="3135.515" rx="6.302" ry="6.255" class="y"/><path d="M294.439 3139.466l-3.037-2.03a.94.94 0 0 1-.257-1.308c.295-.431.882-.545 1.317-.255l3.037 2.03a.94.94 0 0 1 .257 1.307c-.295.432-.882.546-1.317.256z" class="AI"/><path d="M248.594 3119.562h8.668v3.567h-8.668z" class="AK"/><path d="M261.674 3119.562h8.668v3.567h-8.668zm13.08 0h8.668v3.567h-8.668zm13.081 0h8.668v3.567h-8.668z" class="AJ"/><g fill-rule="evenodd"><path stroke="#191405" stroke-miterlimit="10" stroke-width="4" d="M402.081 3095.7c-19.286 10.494-31.306 30.677-31.345 52.633l.037 44.095c.114 33.034 26.885 59.774 59.919 59.849 33.033-.113 59.773-26.882 59.85-59.915l-.037-44.095c-.113-33.033-26.882-59.773-59.915-59.849-4.056 0-8.101.414-12.072 1.236" class="y"/><path d="M425.296 3148.08c.343-9.841 10.287-9.848 10.643-.005 2.486 28.435 45.609 31.189 50.486 4.483.9-4.948 2.143-13.707 8.275-14.67v-6.8c-10.636-.231-20.689-3.49-31.216-3.195-14.128.407-18.934 6.66-32.87 7.656-13.935-.979-18.749-7.227-32.878-7.617-10.527-.287-20.576 2.984-31.211 3.227v6.8c6.134.958 7.383 9.714 8.29 14.661 4.911 26.7 48.029 23.9 50.483-4.54zm14.757-.22c-.316-7.074.763-9.994 7.616-12.31 5.229-1.764 10.266-3.3 15.849-3.462 15.2-.439 21.7 3.326 18.7 19.714-4.01 21.94-39.964 19.444-42.163-3.943zm-18.864-.1c-2.182 23.5-38.135 26.032-42.168 4.094-3.014-16.384 3.473-20.156 18.676-19.735 5.586.154 10.623 1.685 15.854 3.446 6.854 2.309 7.94 5.226 7.638 12.194zm-9.618 37.121c1.037.198 2.039-.483 2.237-1.52s-.483-2.039-1.52-2.237a8.57 8.57 0 0 0-9.009 4.129c-.515.913-.199 2.071.709 2.596s2.069.221 2.603-.681a4.76 4.76 0 0 1 .6-.824 25.59 25.59 0 0 0 46.905-.025c.228.252.429.527.6.82a1.91 1.91 0 0 0 2.592.663 1.91 1.91 0 0 0 .717-2.578c-1.824-3.146-5.435-4.798-9.008-4.12a1.91 1.91 0 1 0 .706 3.755 5.07 5.07 0 0 1 .9-.084 21.77 21.77 0 0 1-39.919.022c.3 0 .599.029.894.084z"/><path d="M401.386 3135.964c-5.013.002-9.532 3.024-11.448 7.656s-.854 9.964 2.693 13.507 8.878 4.602 13.509 2.681 7.649-6.442 7.646-11.455c-.001-3.287-1.309-6.439-3.634-8.763a12.39 12.39 0 0 0-8.766-3.626zm58.45-.032c-5.014.002-9.532 3.024-11.449 7.657s-.853 9.964 2.694 13.507 8.879 4.601 13.51 2.68 7.648-6.443 7.645-11.457c-.007-6.843-5.557-12.387-12.4-12.387z" class="x"/><path d="M401.513 3142.01a6.36 6.36 0 0 0-6.044 8.29c1.328-1.484 3.544-1.77 5.205-.672s2.267 3.248 1.423 5.052a6.35 6.35 0 0 0 5.766-6.326c.001-.826-.161-1.644-.477-2.408l-.245.013c-.571 0-1.119-.227-1.523-.632s-.63-.952-.63-1.523a2.08 2.08 0 0 1 .109-.688c-1.055-.723-2.305-1.109-3.584-1.107z"/><path fill="#313131" d="M459.718 3141.978a6.35 6.35 0 0 0-6.344 6.353 6.28 6.28 0 0 0 .159 1.407c1.477-1.113 3.523-1.073 4.955.097s1.879 3.168 1.082 4.837h.156a6.35 6.35 0 0 0 5.791-8.937c-.667.301-1.442.244-2.057-.153s-.987-1.079-.988-1.811c.001-.361.091-.717.263-1.035-.927-.501-1.964-.762-3.017-.76z"/></g><path d="M373.45 3082.35a43.27 43.27 0 0 0 9.62 6.269c-11.317-9.165-9.883-15.7-5.982-33.326l1.124-5.179.941-4.5 2.171 4.08c.084.116.159.239.224.367.948 1.352 5.825 6.923 23.428 8.884l26.618 3.168c7.054.941 11.674 1.729 12.635 2.385 2.832 2.41 5.517 4.987 8.04 7.718a7.16 7.16 0 0 0-.327-2.272c-.627-2.219-2.207-5.209-5.276-9.632l-2.048-2.948 3.706.6c5.917.927 10.165 2.693 13.353 5.073a23.43 23.43 0 0 1 7 8.642 39.5 39.5 0 0 1 2.375 5.764 42.03 42.03 0 0 0 1.118-5.684l.458-3.683 2.559 2.873c3.213 3.46 5.932 7.349 8.077 11.555a28.83 28.83 0 0 1 2.906 13.511v.077l-.007.077c-.354 2.549 3.832 10.967 4.148 20.508.372 11.255-3.521 25.321-3.521 25.321l-12.541-26.97c0-.039-4.57-1.241-5.672-3.341a29.88 29.88 0 0 0-7.024-7.794c-1.952-1.669-4.341-2.744-6.885-3.1-7.042-.552-17 .567-24.232 1.4h-.042l-.342.05-.329-.1-11.946-3.1c-3.883-.973-7.833-1.658-11.817-2.049a13.48 13.48 0 0 0-7.284 1.986c-3.093 1.69-5.855 3.926-8.151 6.6-1.416 1.9-17.083 19.273-17.083 19.273s3.366-5.9 2.393-7.485c-5.248-8.389-4.681-17.024-5.26-33.878l-.122-3.805z"/><g class="x"><path d="M379.188 3213.72l-11.239 32.117 1.367.518c11.454 4.34 21.01 10.382 27.632 17.471 3.324 3.56 5.887 7.354 7.616 11.28 1.768 4.015 2.664 8.173 2.664 12.36 0 6.448-2.092 12.719-6.217 18.637-2.003 2.873-4.487 5.649-7.383 8.25-2.884 2.59-6.2 5.027-9.855 7.245-3.67 2.226-7.71 4.248-12.008 6.01-4.35 1.783-9.001 3.315-13.826 4.553-10.055 2.58-20.741 3.889-31.761 3.889s-21.702-1.308-31.757-3.889c-4.825-1.238-9.477-2.77-13.826-4.553-4.299-1.762-8.339-3.784-12.008-6.01-3.655-2.218-6.971-4.656-9.855-7.246-2.896-2.6-5.38-5.376-7.382-8.25-4.126-5.917-6.218-12.188-6.218-18.637s2.092-12.719 6.218-18.637c2.003-2.874 4.486-5.65 7.382-8.25 2.884-2.59 6.2-5.028 9.855-7.246 3.67-2.227 7.71-4.249 12.008-6.011 4.35-1.783 9-3.315 13.826-4.553 10.055-2.58 20.74-3.89 31.758-3.89 9.547 0 18.895.99 27.784 2.944l.875.192.584-.68 23.766-27.614z"/><path d="M375.154 3220.708l-19.762 22.963-1.75-.384c-8.783-1.93-18.023-2.908-27.462-2.908-10.893 0-21.452 1.292-31.386 3.842-4.758 1.22-9.343 2.73-13.63 4.488-4.226 1.733-8.195 3.72-11.797 5.905-3.577 2.17-6.817 4.552-9.632 7.08s-5.217 5.212-7.154 7.991c-3.947 5.662-5.948 11.644-5.948 17.78s2.001 12.118 5.948 17.78c1.937 2.779 4.344 5.468 7.154 7.991s6.055 4.91 9.632 7.08c3.602 2.185 7.571 4.172 11.798 5.905 4.286 1.756 8.871 3.266 13.63 4.487 9.933 2.55 20.491 3.842 31.384 3.842s21.454-1.293 31.387-3.842c4.758-1.22 9.344-2.73 13.63-4.487 4.227-1.733 8.196-3.72 11.798-5.905 3.577-2.17 6.817-4.552 9.632-7.08s5.217-5.212 7.154-7.991c3.948-5.662 5.948-11.644 5.948-17.78 0-3.977-.854-7.931-2.537-11.754-1.66-3.771-4.13-7.425-7.34-10.86-6.466-6.923-15.826-12.833-27.066-17.093l-2.735-1.036 9.104-26.014m8.069-13.976l-13.375 38.22c23.349 8.85 38.88 24.581 38.88 42.514 0 27.661-36.957 50.084-82.548 50.084s-82.547-22.423-82.547-50.085 36.957-50.086 82.547-50.086c9.87 0 19.333 1.05 28.106 2.977l28.937-33.624z" class="AH"/></g><path d="M279.509 3305.493a7.54 7.54 0 0 1-5.806-2.375 8.86 8.86 0 0 1-2.2-6.272c-.09-2.295.729-4.533 2.28-6.227a7.59 7.59 0 0 1 5.772-2.42 7.09 7.09 0 0 1 3.476.786q1.421.786 1.421 1.831c.004.44-.166.863-.472 1.179-.28.321-.686.505-1.112.505a6.7 6.7 0 0 1-1.454-.32c-.594-.191-1.212-.298-1.836-.32a3.55 3.55 0 0 0-2.926 1.376 5.78 5.78 0 0 0-1.095 3.7 5.44 5.44 0 0 0 1.117 3.611c.744.887 1.858 1.379 3.015 1.331.686-.021 1.364-.163 2-.421a5.62 5.62 0 0 1 1.482-.421c.399.008.776.188 1.033.494.296.303.461.71.46 1.134a2.38 2.38 0 0 1-1.488 1.992 7.39 7.39 0 0 1-3.667.837zm9.66-11.8a3.51 3.51 0 0 1 1.3-.876 5.2 5.2 0 0 1 1.808-.27 4.25 4.25 0 0 1 3.279 1.224c.819.998 1.224 2.272 1.134 3.56v5.2a3.53 3.53 0 0 1-.449 1.988 1.55 1.55 0 0 1-1.37.651 1.55 1.55 0 0 1-1.37-.651 3.53 3.53 0 0 1-.449-1.988v-4.1a3.88 3.88 0 0 0-.455-2.162 1.7 1.7 0 0 0-1.5-.646c-.569-.042-1.12.21-1.46.668a3.68 3.68 0 0 0-.472 2.094v4.144a3.53 3.53 0 0 1-.449 1.988 1.55 1.55 0 0 1-1.37.651 1.54 1.54 0 0 1-1.365-.651 3.57 3.57 0 0 1-.444-1.988v-12.419c-.049-.696.105-1.391.444-2a1.54 1.54 0 0 1 1.365-.651 1.54 1.54 0 0 1 1.37.663c.34.605.496 1.296.449 1.988zm12.467 3.838h4.784a2.24 2.24 0 0 0-.741-1.539 2.3 2.3 0 0 0-1.606-.618 2.31 2.31 0 0 0-1.583.584c-.455.412-.756.967-.854 1.573zm.045 2.37a2.3 2.3 0 0 0 .845 1.594c.548.404 1.22.607 1.9.573a5.41 5.41 0 0 0 2.274-.59c.484-.269 1.004-.467 1.544-.59.387-.015.763.127 1.044.393a1.35 1.35 0 0 1 .4 1.011q0 1.168-1.628 2.106a7.54 7.54 0 0 1-3.834.938c-1.682.043-3.305-.619-4.477-1.826a6.29 6.29 0 0 1-1.8-4.593c-.052-1.712.576-3.376 1.746-4.627 1.116-1.215 2.702-1.89 4.352-1.853a5.64 5.64 0 0 1 4.211 1.741 5.87 5.87 0 0 1 1.7 4.256 1.47 1.47 0 0 1-.371 1.146 2.24 2.24 0 0 1-1.426.326zm8.739-1.011c-.072-1.717.546-3.392 1.718-4.65a5.98 5.98 0 0 1 4.515-1.786c1.017-.044 2.027.179 2.931.646a1.91 1.91 0 0 1 1.123 1.679c.012.409-.142.806-.427 1.1a1.44 1.44 0 0 1-1.078.438 4.8 4.8 0 0 1-1.134-.275 4.81 4.81 0 0 0-1.415-.275 2.23 2.23 0 0 0-1.814.843 3.38 3.38 0 0 0-.691 2.212 3.3 3.3 0 0 0 .708 2.24c.487.55 1.198.849 1.932.814a4.61 4.61 0 0 0 1.42-.274 4.61 4.61 0 0 1 1.073-.275 1.28 1.28 0 0 1 1 .455 1.62 1.62 0 0 1 .4 1.117 2.02 2.02 0 0 1-1.221 1.711 5.98 5.98 0 0 1-3.034.7c-1.636.061-3.218-.588-4.341-1.78a6.52 6.52 0 0 1-1.665-4.641zm14.859-2.112l3.088-3.2a3.8 3.8 0 0 1 .943-.752 1.94 1.94 0 0 1 .91-.236 1.53 1.53 0 0 1 1.084.416 1.31 1.31 0 0 1 .444.988 1.87 1.87 0 0 1-.247.887 3.43 3.43 0 0 1-.674.865l-2.437 2.245 3.38 3.987a3.18 3.18 0 0 1 .539.859 2.35 2.35 0 0 1 .168.882 1.36 1.36 0 0 1-.488 1.061c-.334.29-.765.444-1.207.43-.35.001-.694-.095-.994-.275a3.14 3.14 0 0 1-.893-.848l-3.616-4.827v3.268c.047.702-.111 1.402-.453 2.016a1.54 1.54 0 0 1-1.366.666c-.539.034-1.056-.219-1.359-.666-.341-.615-.497-1.315-.449-2.016v-12.418c-.049-.696.105-1.391.444-2a1.54 1.54 0 0 1 1.365-.651 1.54 1.54 0 0 1 1.37.663c.34.605.495 1.296.448 1.988zm7.616-7.221a2.02 2.02 0 0 1 2.1-2.1 1.97 1.97 0 0 1 1.46.618 2.04 2.04 0 0 1 .606 1.482c.012.555-.205 1.091-.6 1.482a1.98 1.98 0 0 1-1.466.606 2.03 2.03 0 0 1-1.494-.606c-.398-.389-.617-.926-.606-1.482zm3.886 12.971a3.6 3.6 0 0 1-.438 1.993c-.305.437-.816.683-1.348.646a1.55 1.55 0 0 1-1.369-.651 3.53 3.53 0 0 1-.449-1.988v-7.289a3.54 3.54 0 0 1 .444-1.982c.315-.44.836-.685 1.376-.646.532-.037 1.043.209 1.348.646.334.604.487 1.293.438 1.982zm2.191 0v-7.289a3.54 3.54 0 0 1 .444-1.982 1.54 1.54 0 0 1 1.365-.646c.347-.006.688.094.977.286a2.47 2.47 0 0 1 .752.87 3.5 3.5 0 0 1 1.348-.932 5.2 5.2 0 0 1 1.853-.292 4.25 4.25 0 0 1 3.279 1.224c.82.998 1.226 2.272 1.136 3.561v5.2a3.53 3.53 0 0 1-.449 1.988 1.55 1.55 0 0 1-1.37.651 1.55 1.55 0 0 1-1.37-.651 3.53 3.53 0 0 1-.449-1.988v-4.1a3.88 3.88 0 0 0-.462-2.161 1.7 1.7 0 0 0-1.5-.646c-.569-.042-1.12.21-1.46.668a3.68 3.68 0 0 0-.472 2.094v4.144a3.53 3.53 0 0 1-.449 1.988 1.55 1.55 0 0 1-1.37.651 1.54 1.54 0 0 1-1.359-.65 3.57 3.57 0 0 1-.444-1.988zm20.946.966a3.9 3.9 0 0 1-1.414 1.275c-.583.289-1.227.434-1.878.421a4.69 4.69 0 0 1-3.723-1.808 6.74 6.74 0 0 1-1.522-4.492c-.048-1.672.538-3.301 1.64-4.56a5.14 5.14 0 0 1 4-1.853 4 4 0 0 1 1.634.314c.492.222.924.557 1.263.977.173-.334.421-.625.724-.848a1.5 1.5 0 0 1 .884-.31c.54-.039 1.061.206 1.376.646a3.54 3.54 0 0 1 .444 1.982v7.289a19.28 19.28 0 0 1-.2 3.139c-.098.66-.321 1.294-.657 1.87a5.17 5.17 0 0 1-2.2 2.027 7.42 7.42 0 0 1-3.319.691 8.46 8.46 0 0 1-3.83-.752q-1.482-.752-1.482-1.9a1.55 1.55 0 0 1 .444-1.134c.296-.3.703-.462 1.124-.447a6.36 6.36 0 0 1 1.567.483 6.42 6.42 0 0 0 2.319.483 2.71 2.71 0 0 0 2.089-.8 3.19 3.19 0 0 0 .741-2.257q0-.067-.011-.213-.011-.146-.012-.223zm-4.784-4.6a3.46 3.46 0 0 0 .663 2.2c.399.54 1.035.854 1.707.842a2.1 2.1 0 0 0 1.722-.851 3.42 3.42 0 0 0 .674-2.2c.033-.769-.206-1.525-.674-2.135a2.12 2.12 0 0 0-1.718-.825 2.09 2.09 0 0 0-1.707.825 3.31 3.31 0 0 0-.667 2.139zm-52.908-31.36c0-2.856 1.218-6.006 4.578-6.006s4.578 3.15 4.578 6.006-1.222 6.006-4.582 6.006-4.574-3.15-4.574-6.006zm-1.974 0c0 3.885 2.289 7.6 6.552 7.6s6.552-3.717 6.552-7.6-2.289-7.6-6.552-7.6-6.556 3.715-6.556 7.6zm14.969 6.615a.89.89 0 0 0 .924.987.89.89 0 0 0 .924-.987v-4.452l4.662 4.872c.441.441.63.567 1.071.567.415.006.76-.32.777-.735a1.17 1.17 0 0 0-.441-.945l-4.872-4.809 4.2-3.318a.96.96 0 0 0 .462-.8.76.76 0 0 0-.777-.819 1.8 1.8 0 0 0-1.05.567l-4.032 3.383v-7.875a.89.89 0 0 0-.924-.987.89.89 0 0 0-.924.987zm18.963-9.539c.012-.235-.074-.465-.237-.635a.86.86 0 0 0-.624-.265c-.237-.005-.464.09-.628.261s-.248.403-.233.639v.588h-.042a3.9 3.9 0 0 0-3.045-1.488c-3.15 0-4.914 2.751-4.914 5.712s1.765 5.714 4.914 5.714a3.62 3.62 0 0 0 3.045-1.68h.042v.777c-.015.236.069.468.233.639s.391.266.628.261c.236.001.461-.094.624-.265a.86.86 0 0 0 .237-.635zm-7.875 4.809c0-1.89.8-4.116 3.066-4.116s3.066 2.226 3.066 4.116-.8 4.116-3.066 4.116-3.066-2.225-3.066-4.111zm12.852 5.191l-1.176 3.13c-.153.324-.245.672-.273 1.029.021.445.395.791.84.777.421-.005.788-.287.9-.693l4.662-13.335a3.24 3.24 0 0 0 .252-1.029c-.021-.445-.395-.791-.84-.777a.9.9 0 0 0-.882.693l-2.518 7.665h-.042l-2.558-7.66a.95.95 0 0 0-.924-.693c-.445-.014-.819.332-.84.777a3.24 3.24 0 0 0 .252 1.029zm8-.546c.002.591.481 1.07 1.072 1.072s1.068-.481 1.071-1.071c-.003-.59-.481-1.068-1.071-1.071-.59.003-1.068.481-1.071 1.071zm6.993 0c.002.591.481 1.07 1.072 1.072s1.068-.481 1.071-1.071c-.003-.59-.481-1.068-1.071-1.071-.59.003-1.068.481-1.071 1.071zm6.993 0c.002.591.481 1.07 1.072 1.072s1.068-.481 1.071-1.071c-.003-.59-.481-1.068-1.071-1.071-.59.003-1.068.481-1.071 1.071z" class="AH"/></g></svg>