<svg xmlns="http://www.w3.org/2000/svg" xmlns:xlink="http://www.w3.org/1999/xlink" width="312.193" height="302.035" xmlns:v="https://vecta.io/nano"><style><![CDATA[.W{opacity:.3}.X{fill:#ffc727}.Y{fill:#ffdb72}.Z{fill:#242a33}.a{fill:#e3efff}.b{fill:#d6e1f1}.c{fill:#dbdbdb}.d{stroke-width:2}.e{fill:#414c5c}.f{fill:#a6a6a6}.g{fill:#cccbcb}.h{fill:#fffdff}.i{fill-rule:evenodd}]]></style><rect width="125.032" height="62.368" fill="#fff" stroke="#e3efff" rx="3" x="1" y="88.808" class="d"/><path d="M1.154 97.222c0-.131 27.939-.249 62.388-.249l62.407.249c0 .13-27.939.237-62.407.237s-62.388-.107-62.388-.237z" class="a"/><path d="M14.05 107.351h37.086v37.086H14.05z" fill="#e8f2ff"/><path d="M115.414 117.294c0 .13-19.089.249-42.626.249s-42.626-.119-42.626-.249 19.089-.237 42.626-.237l42.626.237zm0 7.557c0 .13-19.089.237-42.626.237s-42.626-.107-42.626-.237 19.089-.249 42.626-.249l42.626.249zm-18.521 7.557a4.1 4.1 0 0 1-.558 0h-1.6l-5.873.071-19.409.071-19.4-.071-5.932-.071h-1.6a4.4 4.4 0 0 1-.558 0 1.93 1.93 0 0 1 .558 0h1.6l5.932-.083 19.4-.071 19.409.071 5.873.083h1.6c.185-.028.373-.028.558 0z" class="a"/><g fill="#e8f2ff"><path d="M7.585 93.46c0 .451-.272.858-.689 1.031s-.897.076-1.216-.244-.413-.8-.238-1.217.582-.687 1.034-.685c.614.003 1.11.501 1.11 1.115z" class="W"/><use xlink:href="#B" class="W"/><use xlink:href="#B" x="3.737" class="W"/></g><rect width="97.95" height="65.806" rx="3" fill="#fff" stroke="#e8f2ff" x="157.39" y="183.012" class="d"/><path d="M225.359 27.225a4.34 4.34 0 0 1 1.356.425 5.8 5.8 0 0 1 2.341 8.325 5.5 5.5 0 0 1-1.1 1.283 5.42 5.42 0 0 1-1.491.9 5.94 5.94 0 0 1-3.616.362c-1.223-.277-2.326-.939-3.145-1.889a5.34 5.34 0 0 1-.9-1.491 5.25 5.25 0 0 1-.443-1.627 5.84 5.84 0 0 1 .443-3.064 5.74 5.74 0 0 1 5.224-3.462 4.25 4.25 0 0 1 1.41.19c0 .045-.506-.1-1.4-.063a5.7 5.7 0 0 0-3.469 1.366 5.54 5.54 0 0 0-1.528 2.079c-.384.922-.518 1.929-.389 2.92a5.29 5.29 0 0 0 .434 1.537c.222.515.526.992.9 1.41.77.908 1.813 1.543 2.974 1.808 1.154.256 2.36.139 3.444-.334.517-.219.993-.523 1.41-.9a4.94 4.94 0 0 0 1.055-1.22 5.57 5.57 0 0 0 .9-2.8c.085-2.187-1.097-4.228-3.037-5.242-.863-.387-1.382-.468-1.373-.513zm4.592-6.128a1.67 1.67 0 0 1 0-.2v-3.028l.045.054-5.215-1.139.09-.045-1.374 2.92v.054h-.063c-1.155.05-2.299.254-3.4.606h-.108l-2.377-2.287h.181l-4.519 2.874v-.163l1.089 3.034v.072l-.054.063c-.78.85-1.445 1.798-1.98 2.82v.072h-3.308l.136-.118-1.157 5.215-.081-.172 2.91 1.374h.081v.09a13.16 13.16 0 0 0 .588 3.39v.09l-.072.072-2.278 2.287v-.2l2.856 4.519-.19-.072 3.037-1.085h.09l.081.063c.84.783 1.782 1.449 2.8 1.98.045.063-.081-.145.09.145V47.6l-.127-.163 5.206 1.175-.181.09 1.383-2.919.045-.081h.1a12.87 12.87 0 0 0 3.38-.588h.09l.072.072 2.287 2.278h-.2l4.519-2.847-.063.172-1.085-3.037v-.075l.063-.072a13.01 13.01 0 0 0 1.989-2.811v-.072h3.308l-.127.108 1.175-5.215.072.145-2.91-1.392h-.063v-.072c-.039-1.154-.234-2.298-.579-3.4v-.108l2.287-2.287v.127l-2.838-4.519h.09l-3.042 1.058a14.19 14.19 0 0 0-2.07-1.591l-.56-.334-.181-.118.2.09.57.307a13.07 13.07 0 0 1 2.115 1.573h-.054l3.028-1.1h.052v.054l2.919 4.591-.054.054-2.165 2.184v-.108c.358 1.121.562 2.286.606 3.462l-.063-.1 2.92 1.374.09.045v.1l-1.157 5.206v.108h-3.353l.127-.072a13.56 13.56 0 0 1-2.025 2.883v-.154l1.085 3.037.045.117-.109.063-4.627 2.928-.09-.09-2.269-2.251h.163a13.13 13.13 0 0 1-3.471.606l.136-.09-1.437 3.029h-.126l-5.206-1.112h-.139v-3.351l.09.145a13.11 13.11 0 0 1-2.874-2.025h.163l-3.164 1.121-.063-.108-2.856-4.519-.072-.108.09-.09 2.278-2.287v.163a13.42 13.42 0 0 1-.606-3.471l.091.136-3-1.482v-.118l1.175-5.206v-.117h3.335l-.126.072a13.43 13.43 0 0 1 2.034-2.865v.136l-1.076-3.046v-.09l.09-.063 4.519-2.847h.081l2.35 2.35h-.108a13.04 13.04 0 0 1 3.453-.587l-.081.054 1.392-2.91v-.068h.063l5.2 1.2h.045v3.01a1.98 1.98 0 0 1-.072.21z" fill="#f2f8ff"/><g class="a"><path d="M251.671 195.872c0 .109-21.051.19-47 .19s-47-.081-47-.19 21.042-.19 47-.19l47 .19zm-86.01 8.985h29.078v29.078h-29.078zm89.047 42.514a1.57 1.57 0 0 1-.425 0h-1.229l-4.519.054-14.878.063-14.878-.063-4.519-.054h-1.229a1.59 1.59 0 0 1-.425 0 1.89 1.89 0 0 1 .425 0h1.229l4.519-.063 14.878-.054 14.878.054 4.519.063h1.229a1.89 1.89 0 0 1 .425 0zm.931 6.497a1.99 1.99 0 0 1-.434 0h-1.256l-4.61.063-15.2.054-15.212-.054-4.61-.063h-1.256a1.99 1.99 0 0 1-.434 0c.142-.035.288-.05.434-.045h1.256l4.61-.054 15.212-.063 15.2.063 4.61.054h1.256c.146-.005.292.01.434.045zm0 6.494a1.6 1.6 0 0 1-.434 0h-1.256l-4.61.054-15.2.063-15.212-.063-4.61-.054h-1.256a1.6 1.6 0 0 1-.434 0 2 2 0 0 1 .434 0h1.256l4.61-.063 15.212-.054 15.23.027 4.61.063h1.256a1.95 1.95 0 0 1 .404.027zm0 6.499a1.97 1.97 0 0 1-.434 0h-1.256l-4.61.063-15.2.054-15.212-.054-4.61-.063h-1.256a1.97 1.97 0 0 1-.434 0 1.61 1.61 0 0 1 .434-.045h1.256l4.61-.054 15.212-.063 15.2.063 4.61.054h1.256a1.61 1.61 0 0 1 .434.045z"/><path d="M202.13 8.587c2.051 1.069 3.954 2.404 5.658 3.968l6.011-2.142 5.649 8.921-4.519 4.519a25.74 25.74 0 0 1 1.175 6.779l5.767 2.712-2.332 10.34h-6.327c-1.063 2.045-2.394 3.939-3.959 5.631l2.142 6.011-8.921 5.649-4.519-4.519a25.75 25.75 0 0 1-6.779 1.184l-2.712 5.758-10.3-2.3V54.71a25.6 25.6 0 0 1-5.631-3.968l-6.011 2.142-5.731-8.894 4.519-4.519c-.701-2.184-1.108-4.452-1.211-6.743l-5.767-2.712 2.314-10.3h6.381a25.6 25.6 0 0 1 3.968-5.631l-2.147-6.013 8.921-5.649 4.519 4.519c2.2-.695 4.483-1.094 6.788-1.184L191.788 0l10.3 2.314v6.327zm-9.082 12.13c-5.266-1.176-10.631 1.53-12.815 6.464s-.58 10.725 3.832 13.832 10.404 2.666 14.314-1.052 4.65-9.681 1.768-14.243c-1.608-2.544-4.163-4.343-7.1-5z" opacity=".8" class="i"/><path d="M2.297 80.711h66.887s-5.911-10.756-23.121-9.192c-16.432 1.5-17.273-5.288-25.634-6.128S5.081 70.968 2.297 80.711z"/></g><path fill="#f5f5f5" d="M44.007 176.273h54.115s-4.781-8.7-18.71-7.439c-13.3 1.211-13.983-4.284-20.789-4.962s-12.365 4.51-14.616 12.401z"/><rect width="172.356" height="115.411" rx="3" fill="#fff" stroke="#e8f2ff" x="138.836" y="25.237" class="d"/><g class="a"><path d="M138.836 35.535c0-.178 38.557-.308 86.107-.308l86.107.308c0 .177-38.545.308-86.107.308s-86.107-.082-86.107-.308z"/><use xlink:href="#C" class="W"/><use xlink:href="#C" x="4.734" class="W"/><use xlink:href="#C" x="9.4" class="W"/><path d="M153.654 47.565h45.972v45.972h-45.972zM287.56 60.556c0 .178-17.938.308-40.052.308s-40.052-.131-40.052-.308 17.938-.308 40.052-.308l40.052.308z"/><use xlink:href="#D"/><use xlink:href="#D" y="8.541"/><path d="M254.806 86.192a10.18 10.18 0 0 1-1.863.119l-5.078.095-16.728.095c-6.528 0-12.457 0-16.74-.095l-5.078-.095a10.18 10.18 0 0 1-1.863-.119 10.17 10.17 0 0 1 1.863-.119l5.078-.095 16.74-.095 16.728.095 5.078.095c.623-.018 1.247.022 1.863.119z"/><path d="M156.525 109.043h21.604v21.604h-21.604z" class="W"/><path d="M195.711 109.043h21.604v21.604h-21.604zm39.186 0h21.604v21.604h-21.604zm39.186 0h21.604v21.604h-21.604z"/></g><path d="M191.554 173.942h7.837v25.321h-7.837zm14.426-10.423h7.837v35.733h-7.837zm15.347-4.869h7.837v40.601h-7.837zm15.359-5.127h7.837v45.74h-7.837z" class="X"/><g class="i"><path d="M87.786 295.917c-37.049 0-67.081 1.368-67.081 3.058s30.033 3.06 67.081 3.06 67.081-1.369 67.081-3.06-30.034-3.058-67.081-3.058z" class="a"/><path fill="#f8c81e" stroke="#04072e" stroke-miterlimit="10" stroke-width="4" d="M60.165 150.858c-17.593 9.573-28.558 27.985-28.594 48.014l.034 40.225c.102 30.135 24.522 54.529 54.657 54.6 30.135-.102 54.53-24.522 54.6-54.657l-.034-40.225c-.102-30.135-24.522-54.53-54.657-54.6-3.699 0-7.389.378-11.012 1.128"/><path d="M81.342 198.64c.314-8.978 9.385-8.984 9.709 0 2.267 25.94 41.607 28.452 46.056 4.09.824-4.513 1.955-12.5 7.548-13.382v-6.205c-9.7-.211-18.873-3.184-28.477-2.915-12.888.372-17.273 6.075-29.985 6.984-12.712-.893-17.1-6.592-29.993-6.949-9.6-.262-18.771 2.722-28.472 2.944v6.205c5.6.874 6.735 8.861 7.563 13.375 4.48 24.357 43.814 21.8 46.052-4.142zm13.462-.2c-.289-6.453.7-9.117 6.947-11.23 4.77-1.609 9.365-3.012 14.458-3.158 13.869-.4 19.791 3.034 17.057 17.984-3.658 20.015-36.457 17.738-38.462-3.6zm-17.209-.087c-1.99 21.434-34.788 23.748-38.467 3.735-2.749-14.946 3.168-18.387 17.037-18 5.1.141 9.691 1.538 14.462 3.144 6.253 2.107 7.243 4.767 6.967 11.124zm-8.772 33.861c.612.117 1.24-.102 1.647-.574s.532-1.125.327-1.714-.709-1.023-1.321-1.14a7.82 7.82 0 0 0-8.219 3.767c-.482.835-.197 1.902.638 2.384s1.902.197 2.384-.637a4.34 4.34 0 0 1 .543-.751c3.718 8.504 12.121 13.997 21.402 13.992s17.678-5.507 21.387-14.015a4.4 4.4 0 0 1 .545.748c.493.81 1.543 1.078 2.364.603s1.111-1.519.654-2.35c-1.663-2.87-4.958-4.377-8.217-3.759-.612.115-1.116.548-1.323 1.135a1.74 1.74 0 0 0 .322 1.713c.406.472 1.033.693 1.645.578a4.62 4.62 0 0 1 .822-.077 19.86 19.86 0 0 1-36.416.02 4.38 4.38 0 0 1 .816.077z"/><path d="M59.532 187.589a11.31 11.31 0 0 0-11.299 11.315 11.31 11.31 0 0 0 11.314 11.299 11.31 11.31 0 0 0 7.983-19.308 11.3 11.3 0 0 0-7.998-3.306zm53.319-.03a11.31 11.31 0 1 0 11.312 11.3 11.31 11.31 0 0 0-11.312-11.3z" fill="#fff"/><path d="M59.647 193.104a5.8 5.8 0 0 0-5.514 7.562c1.212-1.356 3.236-1.618 4.753-.614s2.068 2.968 1.293 4.614a5.79 5.79 0 0 0 4.825-7.968c-.072.008-.145.011-.223.012-.521 0-1.021-.207-1.39-.576s-.575-.869-.575-1.39c-.002-.213.032-.425.1-.627-.962-.66-2.102-1.012-3.269-1.01z"/><path fill="#313131" d="M112.744 193.075c-1.537.001-3.01.613-4.096 1.701s-1.694 2.562-1.692 4.099c0 .432.048.863.145 1.284a3.66 3.66 0 0 1 5.508 4.5h.142a5.79 5.79 0 0 0 5.283-8.153 1.97 1.97 0 0 1-2.778-1.792 1.99 1.99 0 0 1 .24-.944 5.77 5.77 0 0 0-2.752-.693z"/></g><path d="M34.046 138.681a39.48 39.48 0 0 0 8.776 5.719c-10.324-8.361-9.016-14.319-5.457-30.4l1.025-4.724.858-4.1 1.98 3.722a2.43 2.43 0 0 1 .205.335c.864 1.233 5.313 6.316 21.371 8.1l24.282 2.89c6.435.858 10.65 1.577 11.527 2.176a84.77 84.77 0 0 1 7.334 7.041c.012-.703-.089-1.403-.3-2.073-.572-2.024-2.013-4.752-4.813-8.786l-1.868-2.69 3.381.548c5.4.846 9.273 2.457 12.181 4.628 2.73 2.078 4.92 4.782 6.384 7.884.859 1.693 1.584 3.451 2.166 5.258.459-1.703.8-3.435 1.021-5.185l.418-3.36 2.335 2.621c2.931 3.156 5.411 6.704 7.368 10.541a26.31 26.31 0 0 1 2.651 12.325v.07l-.006.07c-.323 2.325 3.5 10 3.784 18.708.34 10.267-3.211 23.1-3.211 23.1l-11.435-24.611c0-.035-4.169-1.132-5.174-3.048a27.25 27.25 0 0 0-6.407-7.11c-1.781-1.521-3.96-2.501-6.28-2.824-6.424-.5-15.507.517-22.106 1.273h-.038l-.312.046-.3-.095-10.9-2.832c-3.542-.888-7.146-1.513-10.78-1.87a12.3 12.3 0 0 0-6.645 1.811 26.62 26.62 0 0 0-7.435 6.025c-1.288 1.734-15.588 17.58-15.588 17.58s3.071-5.381 2.183-6.828c-4.787-7.653-4.27-15.53-4.8-30.9l-.112-3.471z"/><path d="M280.363 248.632h4.391c.344-.006.668-.165.884-.432s.303-.617.238-.955l-.365-2.052c-.102-.616-.631-1.069-1.255-1.076h-3.893a1.16 1.16 0 0 0-1.141 1.175v2.166a1.16 1.16 0 0 0 1.141 1.174z" class="Y"/><path d="M229.414 232.538l.295-.3a3.23 3.23 0 0 1 2.319-.989h32.562a3.23 3.23 0 0 1 2.256.926l.376.367z" class="e"/><path d="M227.427 232.538l.3-.3a3.23 3.23 0 0 1 2.318-.989h32.568a3.23 3.23 0 0 1 2.255.926l.376.367z" class="Z"/><ellipse cx="240.184" cy="289.842" fill="#53729d" rx="70.664" ry="1.941"/><path d="M302.623 277.237c0 6.962-4.464 12.605-9.972 12.605h-6.417v-25.21h6.413c5.512 0 9.976 5.643 9.976 12.605z"/><ellipse cx="286.239" cy="277.237" rx="9.972" ry="12.605"/><path d="M239.406 277.237c0 6.962-4.465 12.605-9.972 12.605h-6.413v-25.21h6.413c5.507 0 9.972 5.643 9.972 12.605z"/><ellipse cx="223.021" cy="277.237" rx="9.972" ry="12.605"/><path d="M270.647 277.237c0 6.962-4.464 12.605-9.972 12.605h-6.413v-25.21h6.413c5.508 0 9.972 5.643 9.972 12.605zm-63.214 0c0 6.962-4.465 12.605-9.972 12.605h-6.413v-25.21h6.413c5.504 0 9.972 5.643 9.972 12.605z"/><path d="M209.603 280.249c-2.019 0-4.188-4.314-4.188-6.933v-7.177l1.421-2.311v-10.752c0-2.08 10.87-20.543 16.43-20.543h44.225c5.31 0 16.056 15.852 16.056 15.852s13.091.941 16.98 1.48 8.227.593 8.227 5.652v8.772l1.263 2.322c.546 1.008.832 2.136.831 3.282v4.832c0 2.7-1.87 5.523-3.777 5.523z" class="Y"/><path d="M310.428 267.533a6.87 6.87 0 0 0-.412-.921l-1.263-2.323v-8.771c.007-.597-.068-1.192-.223-1.769h-45.46v26.5h44a3.55 3.55 0 0 0 2.715-1.929q.13-.206.246-.427c.522-.975.801-2.061.816-3.167v-4.832c-.002-.805-.143-1.604-.419-2.361z" class="X"/><path d="M206.03 276.211c.787 2.079 2.213 4.039 3.574 4.039h97.467c1.556 0 3.086-1.882 3.6-4.039z" class="e"/><path d="M310.016 266.611l-1.263-2.322h-58.261v4.052h60.171c-.136-.603-.354-1.185-.647-1.73z" class="Y"/><path d="M267.637 256.57h-94.543l2.74 23.679h94.544z"/><path d="M273.505 266.612l-1.262-2.322v-8.772c0-5.058-4.338-5.112-8.227-5.652s-16.98-1.48-16.98-1.48-10.745-15.852-16.056-15.852h-41.484c-5.56 0-16.429 16.04-16.429 23v8.293l-.665 1.081c-.495.809-.757 1.739-.756 2.687v5.72c0 2.619 2.169 6.933 4.189 6.933h4.023l1.369-11.138c.409-3.736 3.542-6.579 7.3-6.623h5.057a7.43 7.43 0 0 1 7.294 6.612l1.388 11.149h40.814l1.369-11.138c.409-3.736 3.542-6.579 7.3-6.623h5.057c3.752.047 6.88 2.883 7.294 6.612l1.387 11.149h5.083c1.907 0 3.777-2.827 3.777-5.523v-4.832c-.003-1.147-.292-2.275-.842-3.281z" class="X"/><ellipse cx="191.045" cy="277.237" rx="9.972" ry="12.605" fill="#232932"/><path d="M191.045 284.681c-3.247 0-5.889-3.34-5.889-7.444s2.642-7.445 5.889-7.445 5.889 3.34 5.889 7.445-2.641 7.444-5.889 7.444z" class="f"/><path d="M192.361 278.827h-1.079a1.5 1.5 0 0 1-.911-1.584c0-.724.911-1.584.911-1.584h1.079a1.63 1.63 0 0 1 0 3.168z" class="b"/><use xlink:href="#E" fill="#99a7be"/><g class="g"><path d="M186.457 277.237c0-3.827 2.3-6.986 5.238-7.4-.216-.031-.433-.047-.651-.048-3.247 0-5.889 3.34-5.889 7.445s2.642 7.444 5.889 7.444c.218-.001.435-.017.651-.048-2.938-.408-5.238-3.567-5.238-7.393z"/><path d="M191.782 277.241l-.7-7.8h2.392l-.7 7.8z"/></g><path d="M192.129 277.727l-6.342-1.369.739-2.343 5.912 2.732z" class="f"/><g class="g"><use xlink:href="#F"/><path d="M192.691 276.934l3.884 4.286-1.935 1.448-2.757-5.129z"/><path d="M192.128 276.747l4.437-2.238.739 2.343-4.866.875z"/></g><g class="c"><path d="M190.782 277.241l-.7-7.8h2.392l-.7 7.8z"/><path d="M191.127 277.727l-6.341-1.369.739-2.343 5.911 2.732z"/><use xlink:href="#F" x="-1"/><path d="M191.687 276.934l4.494 5.152-1.935 1.448-3.369-5.995z"/><path d="M191.128 276.747l5.437-2.573.739 2.343-5.867 1.21z"/></g><path d="M191.044 268.78c-3.7 0-6.691 3.787-6.691 8.457s3 8.457 6.691 8.457 6.69-3.786 6.69-8.457-2.994-8.457-6.69-8.457zm0 16.132c-3.348 0-6.071-3.443-6.071-7.674s2.723-7.675 6.071-7.675 6.071 3.443 6.071 7.675-2.723 7.674-6.071 7.674z" class="b"/><path d="M191.045 269.033c-3.584 0-6.49 3.674-6.49 8.2s2.906 8.2 6.49 8.2 6.49-3.673 6.49-8.2-2.905-8.2-6.49-8.2zm0 15.649c-3.247 0-5.889-3.34-5.889-7.444s2.642-7.445 5.889-7.445 5.889 3.34 5.889 7.445-2.641 7.444-5.889 7.444z" class="c"/><use xlink:href="#G" fill="#505b6e"/><path d="M172.401 264.908a5.14 5.14 0 0 0-.756 2.687v5.721c0 2.619 2.169 6.933 4.189 6.933h4.023l1.369-11.138a7.6 7.6 0 0 1 3.074-5.245l-11.233-.039zm28.472 4.191l1.388 11.149h40.814l1.369-11.138a7.61 7.61 0 0 1 2.68-4.936l-49.234-.247a7.6 7.6 0 0 1 2.983 5.172zm72.633-2.487l-1.263-2.322-10.752-.048a7.61 7.61 0 0 1 2.6 4.859l1.387 11.149h5.078c1.907 0 3.777-2.827 3.777-5.523v-4.832a6.88 6.88 0 0 0-.827-3.283z" fill="#fcd461"/><ellipse cx="254.263" cy="277.237" rx="9.972" ry="12.605" fill="#232932"/><path d="M254.264 284.681c-3.247 0-5.889-3.34-5.889-7.444s2.642-7.445 5.889-7.445 5.889 3.34 5.889 7.445-2.642 7.444-5.889 7.444z" class="f"/><path d="M255.579 278.827H254.5a1.5 1.5 0 0 1-.912-1.584c0-.724.912-1.584.912-1.584h1.079a1.63 1.63 0 0 1 0 3.168z" class="b"/><use xlink:href="#E" x="63.222" fill="#99a7be"/><g class="g"><path d="M249.676 277.237c0-3.827 2.3-6.986 5.239-7.4a4.7 4.7 0 0 0-.652-.048c-3.247 0-5.889 3.34-5.889 7.445s2.642 7.444 5.889 7.444a4.77 4.77 0 0 0 .652-.048c-2.942-.408-5.239-3.567-5.239-7.393z"/><path d="M255.001 277.241l-.7-7.8h2.392l-.7 7.8z"/><path d="M255.346 277.727l-6.341-1.369.739-2.343 5.911 2.732z"/><use xlink:href="#F" x="63.214"/><path d="M255.906 276.934l3.883 4.286-1.935 1.448-2.755-5.128z"/><path d="M255.346 276.747l4.437-2.238.739 2.343-4.867.875z"/></g><g class="c"><path d="M254 277.241l-.7-7.8h2.392l-.7 7.8z"/><path d="M254.345 277.727l-6.341-1.369.739-2.343 5.912 2.732z"/><use xlink:href="#F" x="62.217"/><path d="M254.906 276.934l4.494 5.152-1.935 1.448-3.369-5.995z"/><path d="M254.346 276.747l5.437-2.573.739 2.343-5.867 1.21z"/></g><path d="M254.263 268.78c-3.7 0-6.69 3.787-6.69 8.457s3 8.457 6.69 8.457 6.691-3.786 6.691-8.457-2.996-8.457-6.691-8.457zm0 16.132c-3.348 0-6.071-3.443-6.071-7.674s2.723-7.675 6.071-7.675 6.071 3.443 6.071 7.675-2.723 7.674-6.071 7.674z" class="b"/><path d="M254.263 269.033c-3.584 0-6.49 3.674-6.49 8.2s2.906 8.2 6.49 8.2 6.491-3.673 6.491-8.2-2.906-8.2-6.491-8.2zm0 15.649c-3.247 0-5.889-3.34-5.889-7.444s2.642-7.445 5.889-7.445 5.889 3.34 5.889 7.445-2.641 7.444-5.889 7.444z" class="c"/><use xlink:href="#G" x="63.218" fill="#505b6e"/><path d="M199.521 280.25h43.554l.5-4.039h-44.557zm-23.687 0h4.023l.5-4.039h-8.093c.783 2.079 2.209 4.039 3.57 4.039zm89.142-4.039l.5 4.039h5.082c1.556 0 3.086-1.882 3.6-4.039z" class="Z"/><path d="M250.833 257.323h-.022l-72.012-.98c-.921-.031-1.649-.793-1.637-1.715s.759-1.665 1.681-1.672l72.012.98c.908.044 1.619.795 1.614 1.704s-.727 1.651-1.636 1.683z" class="X"/><path fill="#ffedb9" d="M277.776 256.828h27.674v7.462h-27.674z"/><path d="M272.246 264.289h10c.5 0 .87-.63.765-1.3l-1.139-4.469c-.154-.988-.791-1.693-1.527-1.693h-8.1c-1.594.001.001 7.462.001 7.462z" class="h"/><path fill="#ffd17a" d="M272.244 256.828h-1.8c-1.05 0-1.311 3.479-1.311 7.461h3.108z"/><path d="M308.751 256.828h-5.477c-.57 0-1.062.706-1.182 1.694l-.882 4.469c-.081.668.207 1.3.592 1.3h6.948z" class="h"/><g class="X"><rect width="1.522" height="16.474" rx=".761" transform="matrix(0 -1 1 0 284.126 263.348)"/><rect width="1.522" height="16.474" rx=".761" transform="matrix(0 -1 1 0 284.126 261.32)"/><rect width="1.522" height="16.474" rx=".761" transform="matrix(0 -1 1 0 284.126 259.292)"/></g><path fill="#ff636d" d="M175.466 263.838s.369-6.987-2.4-6.987v6.976z"/><path d="M192.903 232.538l.3-.3a3.23 3.23 0 0 1 2.318-.989h32.567a3.23 3.23 0 0 1 2.256.926l.375.367z" class="e"/><path d="M190.916 232.538l.3-.3a3.23 3.23 0 0 1 2.318-.989h32.567c.844.002 1.654.334 2.256.926l.376.367z" class="Z"/><path d="M248.681 248.386h33.765s-7.528-11.1-13.1-14.722h-33.77c5.576 3.618 13.105 14.722 13.105 14.722z" fill="#7899cb"/><g class="h"><ellipse cx="278.94" cy="272.302" rx="1.637" ry="1.977"/><path d="M309.945 272.302c-.164.864-.972 1.452-1.845 1.342s-1.51-.879-1.455-1.757.783-1.562 1.662-1.562a1.83 1.83 0 0 1 1.637 1.977z"/></g><path d="M230.981 234.227h-38.8c-1.561 0-5.032 2.562-8.965 8.186l-.049.07c-.925 1.317-1.05 3.036-.325 4.473s2.181 2.359 3.789 2.399h57.02c.401-.011.763-.243.941-.602s.143-.788-.091-1.114c-6.527-9.235-11.775-13.412-13.52-13.412z" fill="#7899cb"/><path d="M184.045 242.484l.049-.07c3.933-5.625 7.4-8.186 8.965-8.186h-.877c-1.561 0-5.032 2.562-8.965 8.186l-.049.07c-.925 1.317-1.05 3.036-.325 4.473s2.181 2.359 3.789 2.399h.877c-1.609-.04-3.065-.962-3.789-2.399s-.599-3.156.325-4.473z" class="Z"/><path d="M214.47 256.969c-.075-.001-.135-.06-.137-.135l-.127-3.388c0-.076.061-.137.137-.137s.137.061.137.137l.126 3.377c.002.037-.01.073-.035.101s-.059.044-.096.046zm-20.197-.274c-.076-.001-.136-.062-.137-.138l-.081-3.392c0-.076.061-.137.137-.137s.137.061.137.137l.081 3.385c.002.037-.011.073-.036.1s-.06.043-.097.045zm46.87.637c-.076-.001-.137-.063-.137-.139l-.042-3.39c0-.076.061-.137.137-.137s.137.061.137.137l.042 3.386a.14.14 0 0 1-.135.143z" class="Y"/><g class="Z"><path d="M193.578 260.795h-5.053a9.11 9.11 0 0 0-8.927 8.1l-1.389 11.3c.121.031.245.047.369.048h1.283l1.369-11.138c.409-3.736 3.542-6.579 7.3-6.623h5.057c3.752.047 6.88 2.883 7.294 6.612l1.387 11.149h1.657l-1.414-11.365c-.518-4.559-4.345-8.022-8.933-8.083zm63.217 0h-5.058a9.11 9.11 0 0 0-8.927 8.1l-1.394 11.354h1.659l1.369-11.138c.409-3.736 3.542-6.578 7.3-6.623h5.058a7.43 7.43 0 0 1 7.294 6.612l1.387 11.149h1.656l-1.414-11.365c-.515-4.56-4.341-8.026-8.93-8.089zm-13.143-11.298h-57.02a4.36 4.36 0 0 1-3.9-2.459 4.49 4.49 0 0 1 .327-4.636l.049-.07c3.961-5.665 7.482-8.246 9.076-8.246h38.8c1.992 0 7.447 4.722 13.63 13.471.264.373.303.861.1 1.271a1.18 1.18 0 0 1-1.062.669zm-51.47-15.128c-1.527 0-4.949 2.544-8.854 8.128l-.048.069a4.21 4.21 0 0 0-.306 4.343c.68 1.403 2.099 2.297 3.658 2.304h57.02c.348.001.665-.2.813-.515.159-.314.131-.691-.074-.977-6.51-9.212-11.761-13.355-13.409-13.355z"/><path d="M196.73 249.356h-2.43l1.908-15.128h2.43zm19.885 0h-2.43l.812-15.128h2.43zm27.886-1.716l-3.89-5.11-.978 6.826h4.018c.401-.011.763-.243.941-.602s.143-.788-.091-1.114z"/></g><g class="Y"><path d="M200.963 254.86c0 1.028-.538 1.287-2.687 1.286s-2.687-.259-2.687-1.286.537-1.285 2.687-1.286 2.687.258 2.687 1.286z"/><path d="M198.277 254.821a13.6 13.6 0 0 0-2.681.188c.055.9.643 1.135 2.681 1.136s2.628-.234 2.682-1.138a13.51 13.51 0 0 0-2.682-.186zm22.773.318c0 1.028-.537 1.287-2.687 1.286s-2.687-.258-2.687-1.286.537-1.285 2.687-1.286 2.687.258 2.687 1.286z"/><path d="M218.363 255.1a13.56 13.56 0 0 0-2.681.188c.054.9.643 1.135 2.681 1.136s2.628-.234 2.682-1.138c-.886-.151-1.784-.213-2.682-.186z"/></g><path d="M282.45 248.527h-33.77c-.045 0-.087-.023-.112-.06-.075-.111-7.576-11.121-13.057-14.684-.052-.034-.075-.098-.058-.158s.071-.1.132-.1h33.765c.026 0 .051.008.073.022 5.528 3.592 13.06 14.649 13.135 14.761.029.043.033.099.009.146s-.068.072-.117.073zm-33.7-.282h33.434c-1.094-1.581-7.827-11.139-12.871-14.44h-33.27c5.269 3.685 12.113 13.571 12.707 14.44zm-9.99-3.04h1.751a.61.61 0 1 1 0 1.222h-1.751v-1.222zm0 1.846h1.751a.61.61 0 1 1 0 1.222h-1.751v-1.222z" class="Z"/><path d="M238.043 248.632h-4.391c-.344-.006-.668-.165-.884-.432s-.303-.617-.238-.955l.365-2.052c.102-.616.631-1.069 1.255-1.076h3.893a1.16 1.16 0 0 1 1.141 1.175v2.166a1.16 1.16 0 0 1-1.141 1.174z" class="X"/><path d="M238.042 244.117h-3.893c-.624.007-1.153.46-1.255 1.076l-.365 2.052c-.022.13-.022.262 0 .392h4.769a1.31 1.31 0 0 0 1.29-1.329v-2.039a1.1 1.1 0 0 0-.546-.152z" class="Y"/><g fill="#fff"><path d="M160.023 168.629l7.651-21.868-2.373-1.177c-7.435-3.687-13.582-8.542-17.775-14.039-2.095-2.746-3.706-5.65-4.788-8.63-1.099-3.035-1.659-6.17-1.659-9.318 0-5.214 1.505-10.289 4.473-15.085 1.451-2.345 3.253-4.614 5.357-6.742s4.53-4.139 7.207-5.968c5.488-3.752 11.897-6.702 19.048-8.77 7.45-2.153 15.372-3.245 23.546-3.245s16.094 1.092 23.545 3.246c7.151 2.068 13.56 5.018 19.048 8.77 2.676 1.83 5.101 3.837 7.207 5.968s3.906 4.397 5.357 6.742c2.968 4.796 4.473 9.871 4.473 15.085s-1.505 10.289-4.473 15.085c-1.45 2.345-3.253 4.614-5.357 6.742s-4.53 4.139-7.207 5.968c-5.488 3.751-11.897 6.702-19.048 8.77-7.45 2.153-15.372 3.245-23.545 3.245-7.866 0-15.512-1.014-22.725-3.013l-1.834-.509-16.128 18.743z"/><path fill="#263238" d="M168.091 154.653l7.028-8.166 3.668 1.017c6.952 1.927 14.328 2.904 21.923 2.904 31.226 0 56.63-16.513 56.63-36.81s-25.404-36.811-56.63-36.811-56.631 16.513-56.631 36.81c0 11.342 8.432 22.295 22.555 29.3l4.747 2.354-3.29 9.402m-16.137 27.951l12.014-34.332c-15.687-7.78-25.889-20.413-25.889-34.675 0-23.642 28.04-42.81 62.63-42.81s62.631 19.168 62.631 42.81-28.04 42.811-62.63 42.811c-8.32 0-16.263-1.109-23.526-3.123l-25.23 29.32z"/></g><path fill="#263238" d="M185.883 116.815l-.422-3.438a4.95 4.95 0 0 1 .133-2.334 2.9 2.9 0 0 1 1.304-1.391c.563-.302 1.153-.551 1.762-.744.646-.207 1.27-.478 1.862-.81.884-.424 1.617-1.109 2.099-1.962.428-.861.578-1.835.429-2.785-.113-.966-.634-1.837-1.43-2.395-.805-.611-1.821-.876-2.822-.736-.888.096-1.74.4-2.488.887a9.22 9.22 0 0 0-2.234 2.318q-.14.179-.441.595-1.911 2.724-3.617 2.934a3.3 3.3 0 0 1-2.669-.809 4.12 4.12 0 0 1-1.364-2.728q-.458-3.732 3.035-7.232a14.5 14.5 0 0 1 8.771-4.148 13.23 13.23 0 0 1 9.786 2.356 11.51 11.51 0 0 1 4.797 8.218 11.45 11.45 0 0 1-1.654 7.86 11.62 11.62 0 0 1-6.476 4.773l.02.16c.254 1.395.019 2.834-.665 4.075-.636 1.038-1.73 1.71-2.943 1.809-1.158.207-2.347-.13-3.223-.914-.923-.964-1.472-2.226-1.548-3.559zm.876 11.983c-.183-1.268.175-2.554.985-3.546a4.71 4.71 0 0 1 3.23-1.79 4.61 4.61 0 0 1 5.331 4.165c.174 1.271-.182 2.557-.984 3.557a4.58 4.58 0 0 1-3.171 1.823c-1.273.175-2.562-.185-3.561-.993-1.026-.772-1.688-1.934-1.828-3.211zm30.588-17.962c.321 1.637.159 3.331-.467 4.877a3.65 3.65 0 0 1-3.023 1.943c-1.257.233-2.543-.21-3.39-1.167-.987-1.34-1.559-2.939-1.647-4.601l-1.97-16.046a8.33 8.33 0 0 1 .493-4.796c.597-1.126 1.737-1.86 3.009-1.936a3.66 3.66 0 0 1 3.401 1.136 8.4 8.4 0 0 1 1.626 4.549zm-7.291 15.101a4.6 4.6 0 0 1 .975-3.545 4.63 4.63 0 0 1 3.189-1.777 4.61 4.61 0 0 1 5.331 4.165c.171 1.27-.186 2.554-.988 3.553a4.58 4.58 0 0 1-3.171 1.823c-1.263.176-2.542-.182-3.531-.987-1.018-.783-1.67-1.95-1.803-3.227z"/><defs ><path id="B" d="M11.428 93.46c0 .616-.499 1.115-1.115 1.115s-1.115-.499-1.115-1.115.499-1.115 1.115-1.115c.296 0 .579.117.788.327s.327.493.327.788z"/><path id="C" d="M145.634 30.339c-.005.656-.473 1.217-1.117 1.34s-1.286-.225-1.533-.832-.032-1.305.515-1.667 1.273-.288 1.735.177a1.39 1.39 0 0 1 .4.981z"/><path id="D" d="M287.56 69.11c0 .166-17.938.308-40.052.308s-40.052-.142-40.052-.308 17.938-.308 40.052-.308l40.052.308z"/><path id="E" d="M191.279 278.827a1.63 1.63 0 0 1-1.652-2.594 1.63 1.63 0 0 1 2.905 1.01 1.45 1.45 0 0 1-1.253 1.584z"/><path id="F" d="M192.688 277.54l-3.579 6.293-1.935-1.448 4.7-5.45z"/><path id="G" d="M191.282 278.273a1.06 1.06 0 0 1-1.075-1.687 1.06 1.06 0 0 1 1.89.656c.052.508-.309.964-.815 1.031z"/></defs></svg>