<svg width="2350" height="550" viewBox="0 0 2350 550" xmlns="http://www.w3.org/2000/svg" xmlns:xlink="http://www.w3.org/1999/xlink">
    <defs>
        <linearGradient x1="50%" y1="-2.736%" x2="50%" y2="113.723%" id="wh8i4zb4fb">
            <stop stop-color="gray" offset="0%"/>
            <stop stop-color="#B3B3B3" offset="100%"/>
        </linearGradient>
        <linearGradient x1="50%" y1="-2.736%" x2="50%" y2="113.723%" id="fuydwp9ude">
            <stop stop-color="#999" offset="0%"/>
            <stop stop-color="#E6E6E6" offset="100%"/>
        </linearGradient>
        <path d="M522.393 46.136C451.845 71.427 407.302 22.252 301.625 7.51 195.947-7.233 0 88.287 0 88.287h1074.716S999.222 39.79 920.037 14.068C889.07 4.008 850.373 0 809.077 0c-108.76 0-235.55 27.806-286.684 46.136" id="9xd293ms0a"/>
        <path d="M0 54.23v217.767h2350V6.458s-110.735 5.09-815.917-4.214C1416.705.695 1307.403 0 1205.62 0 307.04.003 0 54.23 0 54.23" id="7142mghfld"/>
    </defs>
    <g fill="none" fill-rule="evenodd" opacity=".3">
        <path d="M1581.23 143.83V114.99h-24.94V93.615h-83.895v79.873h-12.003v-27.5c-17.697-17.682-46.782-16.316-62.739 2.948l-3.644 4.398v80.618h-47.335v-82.585h-20.386v-16.713h-13.176c-3.832-8.84-12.637-15.025-22.892-15.025V97.273c-19.592-29.599-62.887-30.123-83.192-1.01l-.703 1.01v80.853h-12.004v-27.5l-32.99-32.964-33.392 40.31v80.616h-47.335v-82.583h-20.386v-16.714h-22.121v16.714h-20.361v72.753h-19.75v-80.924c-28.946-20.384-66.952-21.714-97.084-4.005v-28.838h-24.94V93.518h-83.896v79.97h-12.004v-27.5l-32.989-32.963-33.392 40.309v80.618h-47.335v-82.585H645.96v-16.713h-22.123v5.998c-23.79-7.359-49.963-4.593-71.95 8.329v-28.839h-24.94V98.766h-83.895v79.873h-12.003v-27.5c-17.696-17.682-46.781-16.315-62.738 2.948l-3.645 4.398v80.618h-32.72v63.904h219.941v-3.684h78.109v-1.467h270.906v-3.684h82.395v8.32h331.863v-4.636h266.07v-3.684h78.108V137.644c-25.357-9.917-54.207-7.862-78.108 6.185" fill="#CCC"/>
        <path d="M737.55 143.83V114.99h24.94V93.615h83.895v79.873h12.003v-27.5c17.696-17.682 46.782-16.316 62.739 2.948l3.644 4.398v80.618h47.334v-82.585h20.387v-16.713h13.176c3.832-8.84 12.637-15.025 22.892-15.025V23.28c19.592-29.598 62.886-30.123 83.192-1.009l.703 1.01v154.844h12.003v-27.5l32.99-32.964 33.393 40.31v80.616h47.334v-82.583h20.387v-16.714h22.121v16.714h20.361v72.753h19.75v-80.924c28.946-20.384 66.95-21.714 97.084-4.005v-28.838h24.94V18.644h83.895v154.844h12.003v-27.5l32.99-32.963 33.393 40.309v80.618h47.335v-82.585h20.386v-16.713h22.121v5.998c23.792-7.359 49.964-4.593 71.951 8.329v-28.839h24.94V98.766h83.896v79.873h12.003v-27.5c17.696-17.682 46.78-16.315 62.738 2.948l3.644 4.398v80.618h32.72v63.904h-219.94v-3.684h-78.11v-1.467h-270.905v-3.684h-82.396v8.32H1003.62v-4.636H737.55v-3.684H659.44V137.644c25.357-9.917 54.208-7.862 78.109 6.185" fill="#B3B3B3"/>
        <g transform="matrix(-1 0 0 1 1276.204 208.356)">
            <mask id="w0ul7f64yc" fill="#fff">
                <use xlink:href="#9xd293ms0a"/>
            </mask>
            <path d="M522.393 46.136C451.845 71.427 407.302 22.252 301.625 7.51 195.947-7.233 0 88.287 0 88.287h1074.716S999.222 39.79 920.037 14.068C889.07 4.008 850.373 0 809.077 0c-108.76 0-235.55 27.806-286.684 46.136" fill="url(#wh8i4zb4fb)" mask="url(#w0ul7f64yc)"/>
        </g>
        <g transform="matrix(-1 0 0 1 2350 278.003)">
            <mask id="ogyepdn2cf" fill="#fff">
                <use xlink:href="#7142mghfld"/>
            </mask>
            <path d="M0 54.23v217.767h2350V6.458s-110.735 5.09-815.917-4.214C1416.705.695 1307.403 0 1205.62 0 307.04.003 0 54.23 0 54.23" fill="url(#fuydwp9ude)" mask="url(#ogyepdn2cf)"/>
        </g>
    </g>
</svg>
