<svg width="85" height="29" viewBox="0 0 85 29" xmlns="http://www.w3.org/2000/svg">
    <path d="M83.42 13.855c-.193-.147-19.683-14.593-42.798-11.417-13.71 1.883-25.96 9.53-36.451 22.711l3.225-1.057a.908.908 0 0 1 1.142.571.891.891 0 0 1-.57 1.133L.631 28.2l.307-7.77a.895.895 0 0 1 1.14-.824c.395.11.678.478.662.902l-.148 3.733C13.415 10.562 26.112 2.62 40.37.661 48.613-.472 56.406.567 63.085 2.417c12.642 3.501 21.29 9.912 21.422 10.01a.895.895 0 0 1 .177 1.257.904.904 0 0 1-1.264.17z" fill="#D3D3D3" fill-rule="nonzero"/>
</svg>
