<svg width="41" height="39" viewBox="0 0 41 39" xmlns="http://www.w3.org/2000/svg">
    <path d="M40.283 1.91c-.151-.008-15.282-.588-26.051 9.222-6.387 5.818-9.986 14.1-10.724 24.62l1.285-1.687a.565.565 0 0 1 .79-.107.56.56 0 0 1 .107.786l-2.924 3.837-2.589-4.125a.56.56 0 0 1 .296-.83.564.564 0 0 1 .659.233l1.243 1.982c.733-10.896 4.457-19.487 11.099-25.538 3.84-3.499 8.216-5.716 12.306-7.12C33.52.526 40.236.783 40.338.788c.31.014.55.277.535.587a.563.563 0 0 1-.59.535z" fill="#D3D3D3" fill-rule="nonzero"/>
</svg>
