<svg width="74" height="51" viewBox="0 0 74 51" xmlns="http://www.w3.org/2000/svg">
    <path d="M1.73.728c.05.238 5.282 23.927 24.81 36.695 11.583 7.574 25.846 9.839 42.411 6.774l-3.128-1.318a.908.908 0 0 1-.487-1.18.891.891 0 0 1 1.173-.481l7.116 2.998-5.33 5.662a.895.895 0 0 1-1.4-.126.903.903 0 0 1 .092-1.115l2.56-2.72c-17.143 3.224-31.935.889-43.98-6.987C18.6 34.376 13.4 28.48 9.573 22.702 2.33 11.766.009 1.252-.026 1.092A.895.895 0 0 1 .666.029a.904.904 0 0 1 1.066.7z" fill="#D3D3D3" fill-rule="nonzero"/>
</svg>
