<svg width="51" height="27" viewBox="0 0 51 27" xmlns="http://www.w3.org/2000/svg">
    <path d="M1.501 4.576c.14-.059 14.153-5.796 27.636-.278 7.997 3.273 14.221 9.816 18.528 19.443L45.878 22.6a.565.565 0 0 0-.778.17.56.56 0 0 0 .17.775l4.064 2.6 1.014-4.763a.56.56 0 0 0-.562-.677.563.563 0 0 0-.54.444l-.487 2.288C44.33 13.454 37.881 6.663 29.564 3.26 24.755 1.291 19.884.71 15.561.795 7.378.955 1.159 3.502 1.065 3.541a.561.561 0 0 0-.3.735c.12.286.45.42.736.3z" fill="#D3D3D3" fill-rule="nonzero"/>
</svg>
