<svg width="73" height="54" viewBox="0 0 73 54" xmlns="http://www.w3.org/2000/svg">
    <path d="M70.428 1.564c-.042.24-4.444 24.096-23.515 37.539-11.311 7.972-25.486 10.734-42.148 8.249l3.08-1.426c.451-.21.651-.743.445-1.197a.891.891 0 0 0-1.188-.44L.095 47.535l5.523 5.473a.895.895 0 0 0 1.397-.175.903.903 0 0 0-.132-1.11l-2.654-2.63c17.246 2.624 31.948-.226 43.711-8.517 6.802-4.795 11.793-10.869 15.416-16.777 6.858-11.182 8.81-21.77 8.84-21.931a.895.895 0 0 0-.728-1.04.904.904 0 0 0-1.04.737z" fill="#FFF" fill-rule="nonzero"/>
</svg>
