<svg width="120" height="40" viewBox="0 0 120 40" fill="none" xmlns="http://www.w3.org/2000/svg">
<g clip-path="url(#clip0_707_5087)">
<path d="M6.36212 30H120L113.638 40H0L6.36212 30Z" fill="#FF218C"/>
<path d="M13.44 27.92C9.6 27.92 6.32 26.64 3.84 24.08C1.36 21.52 0 18.24 0 14.48C0 10.64 1.28 7.43998 3.84 4.87998C6.4 2.31998 9.6 1.03998 13.44 1.03998C15.76 1.03998 18 1.59998 20 2.71998C21.92 3.75998 23.6 5.35998 24.72 7.27998L18.32 10.96C17.92 10.08 17.2 9.43998 16.4 8.95998C15.52 8.47998 14.48 8.23998 13.44 8.23998C11.76 8.15998 10.16 8.79998 9.04 9.99998C7.92 11.2 7.28 12.8 7.36 14.48C7.28 16.16 7.92 17.76 9.04 18.96C10.16 20.16 11.76 20.8 13.44 20.72C14.48 20.72 15.52 20.48 16.4 20C17.2 19.52 17.92 18.8 18.32 18L24.72 21.68C23.6 23.6 22 25.2 20 26.24C18 27.36 15.76 27.92 13.44 27.92ZM37.6 27.36L36.72 24H29.28L28.4 27.28H20.48L28.72 1.59998H37.36L45.6 27.36H37.6ZM30.88 18.16H35.12L32.96 10.24L30.88 18.16ZM56.32 27.28L52.24 19.2H50.4V27.28H43.04V1.51998H53.36C56.16 1.51998 58.48 2.31998 60.32 3.99998C62.16 5.67998 63.04 7.83998 63.04 10.56C63.04 12 62.72 13.44 62 14.72C61.28 15.92 60.32 16.96 59.04 17.68L64.08 27.28H56.32ZM50.4 8.31998V13.12H53.2C53.84 13.2 54.56 12.96 55.04 12.56C55.52 12.08 55.76 11.44 55.68 10.8C55.68 10.16 55.44 9.51998 54.96 9.03998C54.48 8.55998 53.76 8.31998 53.12 8.39998L50.4 8.31998Z" fill="#15142B"/>
<path d="M65.2 27.3599L57.92 1.59991H66L69.52 15.7599L73.68 1.59991H79.36L83.52 15.7599L87.04 1.59991H95.12L87.84 27.3599H80.56L76.56 13.5999L72.48 27.3599H65.2ZM94.24 1.59991H101.6V27.3599H94.24V1.59991ZM111.44 20.1599H120V27.2799H101.76V21.5999L110 8.63992H102V1.59991H119.68V7.27992L111.44 20.1599Z" fill="white"/>
<path d="M24.3249 38.3107C23.52 38.3107 22.8603 38.1443 22.3459 37.8114C21.8375 37.4785 21.5833 36.9792 21.5833 36.3135C21.5833 36.1864 21.5985 36.0321 21.6287 35.8505C21.7013 35.4148 21.8163 34.8762 21.9737 34.2347C22.3852 32.5946 23.5109 31.7745 25.3507 31.7745C25.8228 31.7745 26.2706 31.8441 26.6943 31.9833C27.1239 32.1165 27.4719 32.3283 27.7382 32.6188C28.0106 32.9032 28.1467 33.2573 28.1467 33.6809C28.1467 33.7959 28.1316 33.9351 28.1013 34.0985C28.0892 34.153 28.059 34.2014 28.0106 34.2437C27.9621 34.2801 27.9107 34.2982 27.8562 34.2982H26.0043C25.9075 34.2982 25.8409 34.2801 25.8046 34.2437C25.7683 34.2074 25.7411 34.1378 25.7229 34.0349C25.6987 33.8534 25.6382 33.7263 25.5413 33.6537C25.4506 33.581 25.3204 33.5447 25.151 33.5447C24.9392 33.5447 24.7637 33.6022 24.6245 33.7172C24.4913 33.8262 24.3915 34.0138 24.3249 34.2801C24.1978 34.7824 24.0889 35.2907 23.9981 35.8052C23.9799 35.8959 23.9708 35.9776 23.9708 36.0503C23.9708 36.2258 24.0162 36.3529 24.107 36.4315C24.2039 36.5042 24.34 36.5405 24.5155 36.5405C24.8665 36.5405 25.1268 36.3771 25.2962 36.0503C25.3507 35.9474 25.4021 35.8778 25.4506 35.8415C25.505 35.8052 25.5837 35.787 25.6866 35.787H27.5385C27.593 35.787 27.6353 35.8082 27.6656 35.8505C27.7019 35.8869 27.714 35.9322 27.7019 35.9867C27.5204 36.7735 27.127 37.3575 26.5218 37.7388C25.9226 38.1201 25.1903 38.3107 24.3249 38.3107ZM30.1116 38.2199C30.0451 38.2199 29.9936 38.1957 29.9573 38.1473C29.921 38.0989 29.9089 38.0414 29.921 37.9748L31.1647 32.1104C31.1768 32.0438 31.2131 31.9863 31.2736 31.9379C31.3341 31.8895 31.3977 31.8653 31.4643 31.8653H34.1513C34.9078 31.8653 35.4888 32.0166 35.8943 32.3192C36.3059 32.6157 36.5116 33.0333 36.5116 33.572C36.5116 33.7293 36.4935 33.8957 36.4572 34.0713C36.3724 34.4646 36.209 34.8126 35.9669 35.1152C35.7309 35.4118 35.4434 35.6569 35.1045 35.8505L35.7763 37.9203C35.7884 37.9627 35.7914 37.996 35.7854 38.0202C35.7733 38.0747 35.743 38.1231 35.6946 38.1654C35.6462 38.2018 35.5948 38.2199 35.5403 38.2199H33.6793C33.5704 38.2199 33.4887 38.1957 33.4342 38.1473C33.3858 38.0928 33.3555 38.0353 33.3434 37.9748L32.9349 36.2409H32.5627L32.1905 37.9748C32.1784 38.0414 32.1421 38.0989 32.0816 38.1473C32.021 38.1957 31.9575 38.2199 31.8909 38.2199H30.1116ZM33.5885 34.5161C33.7459 34.5161 33.873 34.4556 33.9698 34.3345C34.0666 34.2135 34.115 34.0743 34.115 33.9169C34.115 33.808 34.0878 33.7202 34.0333 33.6537C33.9849 33.5871 33.9032 33.5538 33.7882 33.5538H33.1255L32.9258 34.5161H33.5885ZM37.816 38.2199C37.7675 38.2199 37.7282 38.2048 37.6979 38.1745C37.6677 38.1443 37.6526 38.1049 37.6526 38.0565C37.6526 38.0262 37.6616 37.993 37.6798 37.9566L40.9297 32.1649C40.9781 32.0862 41.0417 32.0166 41.1204 31.9561C41.199 31.8956 41.2928 31.8653 41.4018 31.8653H43.4171C43.526 31.8653 43.6077 31.8956 43.6622 31.9561C43.7167 32.0105 43.75 32.0801 43.7621 32.1649L44.5609 37.9566C44.567 38.0353 44.5458 38.0989 44.4974 38.1473C44.449 38.1957 44.3884 38.2199 44.3158 38.2199H42.6818C42.4881 38.2199 42.3852 38.1443 42.3731 37.993L42.2823 37.3938H40.3306L39.9856 37.993C39.9432 38.0595 39.8918 38.114 39.8313 38.1564C39.7708 38.1987 39.6891 38.2199 39.5862 38.2199H37.816ZM41.1657 35.6236H42.1916L42.0372 33.9351L41.1657 35.6236ZM46.8916 38.2199C46.8251 38.2199 46.7736 38.1957 46.7373 38.1473C46.6949 38.0989 46.6798 38.0414 46.6919 37.9748L46.9733 36.6676C46.9975 36.5465 47.0641 36.4406 47.173 36.3498L50.1869 33.7081H47.9356C47.869 33.7081 47.8176 33.6839 47.7813 33.6355C47.745 33.5871 47.7329 33.5296 47.745 33.463L48.0355 32.1104C48.0476 32.0438 48.0808 31.9863 48.1353 31.9379C48.1958 31.8895 48.2594 31.8653 48.326 31.8653H53.3007C53.3673 31.8653 53.4187 31.8895 53.455 31.9379C53.4974 31.9863 53.5125 32.0438 53.5004 32.1104L53.219 33.3995C53.1948 33.5024 53.1343 33.6022 53.0374 33.6991L50.1597 36.3589H52.4655C52.5321 36.3589 52.5835 36.3831 52.6199 36.4315C52.6622 36.48 52.6743 36.5375 52.6562 36.604L52.3657 37.9748C52.3536 38.0414 52.3173 38.0989 52.2567 38.1473C52.2023 38.1957 52.1417 38.2199 52.0752 38.2199H46.8916ZM56.7629 38.2199C56.6963 38.2199 56.6419 38.1957 56.5995 38.1473C56.5632 38.0989 56.5511 38.0414 56.5632 37.9748L56.9445 36.1864L55.7643 32.1467C55.7401 32.0741 55.7522 32.0105 55.8006 31.9561C55.8491 31.8956 55.9156 31.8653 56.0004 31.8653H57.6162C57.7191 31.8653 57.7948 31.8895 57.8432 31.9379C57.8977 31.9863 57.934 32.0378 57.9521 32.0922L58.4696 33.9169L59.7677 32.0922C59.798 32.0438 59.8494 31.9954 59.9221 31.947C60.0007 31.8925 60.0915 31.8653 60.1944 31.8653H61.9918C62.0463 31.8653 62.0856 31.8835 62.1099 31.9198C62.1401 31.95 62.1552 31.9863 62.1552 32.0287C62.1552 32.0771 62.1431 32.1165 62.1189 32.1467L59.214 36.1864L58.8327 37.9748C58.8206 38.0414 58.7843 38.0989 58.7238 38.1473C58.6693 38.1957 58.6088 38.2199 58.5422 38.2199H56.7629ZM69.2733 38.3107C68.6802 38.3107 68.1748 38.235 67.7572 38.0837C67.3396 37.9324 67.0249 37.7297 66.8131 37.4755C66.6013 37.2213 66.4954 36.9399 66.4954 36.6313C66.4954 36.5405 66.5045 36.4557 66.5226 36.3771C66.5287 36.3226 66.5559 36.2772 66.6043 36.2409C66.6527 36.1985 66.7042 36.1774 66.7587 36.1774H68.4835C68.5682 36.1774 68.6317 36.1895 68.6741 36.2137C68.7225 36.2318 68.78 36.2712 68.8466 36.3317C68.9979 36.4709 69.2067 36.5405 69.473 36.5405C69.6969 36.5405 69.8754 36.5163 70.0086 36.4679C70.1478 36.4134 70.2174 36.3377 70.2174 36.2409C70.2174 36.1501 70.1387 36.0775 69.9813 36.023C69.824 35.9686 69.5396 35.9141 69.128 35.8596C68.5107 35.7749 68.0296 35.5903 67.6846 35.3059C67.3457 35.0214 67.1762 34.6492 67.1762 34.1893C67.1762 34.0501 67.1944 33.8988 67.2307 33.7354C67.3578 33.1181 67.6846 32.6369 68.2111 32.292C68.7377 31.947 69.4125 31.7745 70.2355 31.7745C70.7257 31.7745 71.1736 31.8653 71.5791 32.0469C71.9846 32.2224 72.3023 32.4463 72.5323 32.7186C72.7622 32.991 72.8772 33.2573 72.8772 33.5175C72.8772 33.578 72.8742 33.6234 72.8682 33.6537C72.8621 33.7081 72.8349 33.7566 72.7865 33.7989C72.738 33.8352 72.6896 33.8534 72.6412 33.8534H70.8256C70.7409 33.8534 70.6743 33.8443 70.6259 33.8262C70.5835 33.8019 70.5381 33.7626 70.4897 33.7081C70.3808 33.5992 70.2325 33.5447 70.0449 33.5447C69.7604 33.5447 69.597 33.6295 69.5547 33.7989C69.5365 33.8897 69.591 33.9653 69.7181 34.0259C69.8452 34.0864 70.0994 34.1409 70.4806 34.1893C71.225 34.2801 71.7667 34.4586 72.1056 34.7249C72.4445 34.9912 72.614 35.3513 72.614 35.8052C72.614 35.9565 72.5958 36.1199 72.5595 36.2954C72.4203 36.9611 72.0723 37.4634 71.5155 37.8023C70.9648 38.1412 70.2174 38.3107 69.2733 38.3107ZM74.2255 38.2199C74.1771 38.2199 74.1378 38.2048 74.1075 38.1745C74.0773 38.1443 74.0621 38.1049 74.0621 38.0565C74.0621 38.0262 74.0712 37.993 74.0894 37.9566L77.3393 32.1649C77.3877 32.0862 77.4513 32.0166 77.5299 31.9561C77.6086 31.8956 77.7024 31.8653 77.8113 31.8653H79.8267C79.9356 31.8653 80.0173 31.8956 80.0718 31.9561C80.1262 32.0105 80.1595 32.0801 80.1716 32.1649L80.9705 37.9566C80.9765 38.0353 80.9554 38.0989 80.9069 38.1473C80.8585 38.1957 80.798 38.2199 80.7254 38.2199H79.0913C78.8977 38.2199 78.7948 38.1443 78.7827 37.993L78.6919 37.3938H76.7401L76.3952 37.993C76.3528 38.0595 76.3014 38.114 76.2408 38.1564C76.1803 38.1987 76.0986 38.2199 75.9957 38.2199H74.2255ZM77.5753 35.6236H78.6011L78.4468 33.9351L77.5753 35.6236ZM83.4828 38.2199C83.4162 38.2199 83.3617 38.1957 83.3194 38.1473C83.283 38.0989 83.2709 38.0414 83.283 37.9748L84.5358 32.1104C84.5479 32.0438 84.5812 31.9863 84.6357 31.9379C84.6962 31.8895 84.7597 31.8653 84.8263 31.8653H86.6419C86.7085 31.8653 86.7599 31.8895 86.7962 31.9379C86.8386 31.9863 86.8537 32.0438 86.8416 32.1104L85.9338 36.3589H88.4484C88.515 36.3589 88.5665 36.3831 88.6028 36.4315C88.6451 36.48 88.6572 36.5375 88.6391 36.604L88.3486 37.9748C88.3365 38.0414 88.3002 38.0989 88.2396 38.1473C88.1852 38.1957 88.1247 38.2199 88.0581 38.2199H83.4828ZM90.9544 38.2199C90.8878 38.2199 90.8334 38.1957 90.791 38.1473C90.7547 38.0989 90.7426 38.0414 90.7547 37.9748L92.0075 32.1104C92.0196 32.0438 92.0528 31.9863 92.1073 31.9379C92.1678 31.8895 92.2314 31.8653 92.2979 31.8653H96.955C97.0215 31.8653 97.073 31.8895 97.1093 31.9379C97.1517 31.9863 97.1668 32.0438 97.1547 32.1104L96.8823 33.3904C96.8642 33.457 96.8249 33.5145 96.7643 33.5629C96.7099 33.6113 96.6493 33.6355 96.5828 33.6355H93.8594L93.7323 34.2074H96.256C96.3225 34.2074 96.374 34.2316 96.4103 34.2801C96.4527 34.3285 96.4678 34.386 96.4557 34.4525L96.2015 35.6327C96.1894 35.6992 96.1531 35.7567 96.0926 35.8052C96.032 35.8536 95.9685 35.8778 95.9019 35.8778H93.3782L93.2602 36.4497H96.0562C96.1228 36.4497 96.1743 36.4739 96.2106 36.5223C96.2469 36.5707 96.259 36.6282 96.2469 36.6948L95.9745 37.9748C95.9624 38.0414 95.9261 38.0989 95.8656 38.1473C95.8111 38.1957 95.7506 38.2199 95.684 38.2199H90.9544Z" fill="white"/>
</g>
<defs>
<clipPath id="clip0_707_5087">
<rect width="120" height="40" fill="white"/>
</clipPath>
</defs>
</svg>
