<svg width="120" height="40" viewBox="0 0 120 40" fill="none" xmlns="http://www.w3.org/2000/svg">
    <g clip-path="url(#25apdn5o6a)">
        <path d="M6.362 30H120l-6.362 10H0l6.362-10z" fill="#FF218C"/>
        <path d="M13.44 27.92c-3.84 0-7.12-1.28-9.6-3.84C1.36 21.52 0 18.24 0 14.48c0-3.84 1.28-7.04 3.84-9.6 2.56-2.56 5.76-3.84 9.6-3.84 2.32 0 4.56.56 6.56 1.68a12.3 12.3 0 0 1 4.72 4.56l-6.4 3.68c-.4-.88-1.12-1.52-1.92-2-.88-.48-1.92-.72-2.96-.72-1.68-.08-3.28.56-4.4 1.76-1.12 1.2-1.76 2.8-1.68 4.48-.08 1.68.56 3.28 1.68 4.48 1.12 1.2 2.72 1.84 4.4 1.76 1.04 0 2.08-.24 2.96-.72.8-.48 1.52-1.2 1.92-2l6.4 3.68C23.6 23.6 22 25.2 20 26.24c-2 1.12-4.24 1.68-6.56 1.68zm24.16-.56L36.72 24h-7.44l-.88 3.28h-7.92L28.72 1.6h8.64l8.24 25.76h-8zm-6.72-9.2h4.24l-2.16-7.92-2.08 7.92zm25.44 9.12-4.08-8.08H50.4v8.08h-7.36V1.52h10.32c2.8 0 5.12.8 6.96 2.48 1.84 1.68 2.72 3.84 2.72 6.56 0 1.44-.32 2.88-1.04 4.16-.72 1.2-1.68 2.24-2.96 2.96l5.04 9.6h-7.76zM50.4 8.32v4.8h2.8c.64.08 1.36-.16 1.84-.56.48-.48.72-1.12.64-1.76 0-.64-.24-1.28-.72-1.76s-1.2-.72-1.84-.64l-2.72-.08z" fill="#15142B"/>
        <path d="M65.2 27.36 57.92 1.6H66l3.52 14.16L73.68 1.6h5.68l4.16 14.16L87.04 1.6h8.08l-7.28 25.76h-7.28l-4-13.76-4.08 13.76H65.2zM94.24 1.6h7.36v25.76h-7.36V1.6zm17.2 18.56H120v7.12h-18.24V21.6L110 8.64h-8V1.6h17.68v5.68l-8.24 12.88z" fill="#07B9E0"/>
        <path d="M24.325 38.31c-.805 0-1.465-.166-1.98-.498-.508-.333-.762-.833-.762-1.498 0-.127.016-.282.046-.463.072-.436.187-.975.345-1.616.411-1.64 1.537-2.46 3.377-2.46.472 0 .92.07 1.343.208.43.134.778.345 1.044.636.273.284.409.638.409 1.062 0 .115-.015.254-.046.418a.253.253 0 0 1-.245.2h-1.852c-.097 0-.163-.019-.2-.055-.036-.036-.063-.106-.081-.209-.024-.182-.085-.309-.182-.381-.09-.073-.22-.11-.39-.11a.8.8 0 0 0-.526.173c-.134.11-.233.297-.3.563a21.33 21.33 0 0 0-.327 1.525 1.26 1.26 0 0 0-.027.245c0 .176.045.303.136.382.097.072.233.108.409.108.35 0 .61-.163.78-.49a.636.636 0 0 1 .155-.208.425.425 0 0 1 .236-.055h1.851c.055 0 .097.021.128.064.036.036.048.081.036.136-.182.786-.575 1.37-1.18 1.752-.6.381-1.332.572-2.197.572zm5.787-.09a.181.181 0 0 1-.155-.073c-.036-.048-.048-.106-.036-.172l1.244-5.864a.283.283 0 0 1 .109-.173.301.301 0 0 1 .19-.073h2.687c.757 0 1.338.152 1.743.454.412.297.618.714.618 1.253 0 .157-.019.324-.055.5a2.484 2.484 0 0 1-.49 1.043 2.98 2.98 0 0 1-.862.736l.671 2.07a.204.204 0 0 1 .01.1.253.253 0 0 1-.245.2h-1.862c-.109-.001-.19-.025-.245-.074a.368.368 0 0 1-.09-.172l-.41-1.734h-.371l-.373 1.734a.283.283 0 0 1-.108.172.301.301 0 0 1-.191.073h-1.78zm3.477-3.704c.157 0 .284-.06.38-.181a.65.65 0 0 0 .146-.418.403.403 0 0 0-.082-.263c-.048-.067-.13-.1-.245-.1h-.662l-.2.962h.663zm4.227 3.704a.16.16 0 0 1-.118-.045.16.16 0 0 1-.045-.118c0-.03.009-.064.027-.1l3.25-5.792a.779.779 0 0 1 .19-.209.448.448 0 0 1 .282-.09h2.015c.109 0 .19.03.245.09a.358.358 0 0 1 .1.209l.799 5.792a.23.23 0 0 1-.064.19.246.246 0 0 1-.181.073h-1.634c-.194 0-.297-.076-.309-.227l-.09-.6H40.33l-.345.6a.57.57 0 0 1-.155.163.42.42 0 0 1-.245.064h-1.77zm3.35-2.596h1.026l-.155-1.689-.871 1.689zm5.726 2.596a.181.181 0 0 1-.155-.073.196.196 0 0 1-.045-.172l.281-1.307a.55.55 0 0 1 .2-.318l3.014-2.642h-2.251a.181.181 0 0 1-.155-.072.212.212 0 0 1-.036-.173l.29-1.352a.301.301 0 0 1 .29-.245h4.976c.066 0 .118.024.154.072a.196.196 0 0 1 .045.173L53.22 33.4a.636.636 0 0 1-.182.3l-2.877 2.659h2.306c.066 0 .117.024.154.073a.177.177 0 0 1 .036.172l-.29 1.37a.283.283 0 0 1-.11.173.266.266 0 0 1-.18.073h-5.184zm9.87 0a.207.207 0 0 1-.163-.073c-.036-.048-.048-.106-.036-.172l.381-1.788-1.18-4.04a.182.182 0 0 1 .037-.19.242.242 0 0 1 .2-.092h1.615c.103 0 .179.025.227.073.055.048.091.1.11.154l.517 1.825 1.298-1.825a.515.515 0 0 1 .154-.145.466.466 0 0 1 .272-.082h1.798c.054 0 .094.019.118.055.03.03.045.066.045.109a.183.183 0 0 1-.036.118l-2.905 4.04-.381 1.788a.283.283 0 0 1-.11.172.267.267 0 0 1-.18.073h-1.78zm12.511.09c-.593 0-1.098-.075-1.516-.226-.417-.152-.732-.354-.944-.608a1.288 1.288 0 0 1-.29-1.099.193.193 0 0 1 .081-.136.231.231 0 0 1 .155-.064h1.725c.084 0 .148.013.19.037a.584.584 0 0 1 .173.118c.15.139.36.209.626.209.224 0 .402-.025.536-.073.139-.055.208-.13.208-.227 0-.09-.078-.163-.236-.218-.157-.054-.441-.109-.853-.163-.617-.085-1.098-.27-1.443-.554-.34-.284-.509-.657-.509-1.117 0-.139.018-.29.055-.454a2.19 2.19 0 0 1 .98-1.443c.527-.345 1.201-.517 2.025-.517.49 0 .938.09 1.343.272.406.175.723.4.953.672.23.272.345.538.345.799 0 .06-.003.105-.009.136a.224.224 0 0 1-.081.145.242.242 0 0 1-.146.054h-1.815a.586.586 0 0 1-.2-.027.568.568 0 0 1-.136-.118.601.601 0 0 0-.445-.163c-.285 0-.448.084-.49.254-.019.09.036.166.163.227.127.06.381.115.763.163.744.091 1.286.27 1.625.536.339.266.508.626.508 1.08 0 .151-.018.315-.055.49-.139.666-.487 1.169-1.043 1.507-.551.34-1.299.509-2.243.509zm4.953-.09a.16.16 0 0 1-.118-.045.16.16 0 0 1-.046-.118c0-.03.01-.064.027-.1l3.25-5.792a.78.78 0 0 1 .19-.209.448.448 0 0 1 .282-.09h2.016c.109 0 .19.03.245.09a.358.358 0 0 1 .1.209l.799 5.792a.23.23 0 0 1-.064.19.246.246 0 0 1-.182.073h-1.634c-.193 0-.296-.076-.308-.227l-.091-.6H76.74l-.345.6a.569.569 0 0 1-.154.163.42.42 0 0 1-.245.064h-1.77zm3.35-2.596H78.6l-.154-1.689-.872 1.689zm5.907 2.596a.207.207 0 0 1-.164-.073.212.212 0 0 1-.036-.172l1.253-5.864a.3.3 0 0 1 .29-.245h1.816c.067 0 .118.024.154.072a.196.196 0 0 1 .046.173l-.908 4.248h2.514c.067 0 .119.024.155.073a.177.177 0 0 1 .036.172l-.29 1.37a.283.283 0 0 1-.11.173.266.266 0 0 1-.18.073h-4.576zm7.471 0a.207.207 0 0 1-.163-.073c-.036-.048-.048-.106-.036-.172l1.252-5.864a.301.301 0 0 1 .29-.245h4.658c.067 0 .118.024.154.072a.196.196 0 0 1 .046.173l-.273 1.28a.33.33 0 0 1-.118.172.266.266 0 0 1-.181.073h-2.724l-.127.572h2.524c.067 0 .118.024.154.072a.196.196 0 0 1 .046.173l-.255 1.18a.283.283 0 0 1-.108.172.301.301 0 0 1-.191.073h-2.524l-.118.572h2.796c.067 0 .118.024.155.072a.212.212 0 0 1 .036.173l-.272 1.28a.283.283 0 0 1-.11.172.267.267 0 0 1-.181.073h-4.73z" fill="#fff"/>
    </g>
    <defs>
        <clipPath id="25apdn5o6a">
            <path fill="#fff" d="M0 0h120v40H0z"/>
        </clipPath>
    </defs>
</svg>
