<svg width="16" height="16" viewBox="0 0 16 16" fill="none" xmlns="http://www.w3.org/2000/svg">
    <g clip-path="url(#rt8zi7mtga)">
        <path d="M10.5 7h-5v1.5l1 2 2 .5L10 9.5l.5-2.5z" fill="#28CBFF"/>
        <path d="M13.657 2.397A7.948 7.948 0 0 0 8 .054a7.948 7.948 0 0 0-5.657 2.343A8.048 8.048 0 0 0 0 8.085a7.98 7.98 0 0 0 1.82 5.069 8.022 8.022 0 0 0 4.546 2.752 1.87 1.87 0 0 0 1.567-.382c.44-.357.691-.887.692-1.453v-2.703a3.052 3.052 0 0 0 2.438-2.986v-1.61a.625.625 0 0 0-.625-.624h-.532V4.554a.625.625 0 1 0-1.25 0v1.594h-1.25V4.554a.625.625 0 1 0-1.25 0v1.594h-.562a.625.625 0 0 0-.625.625v1.61a3.052 3.052 0 0 0 2.406 2.978v2.71a.626.626 0 0 1-.754.612c-3.11-.646-5.366-3.419-5.372-6.598 0 0 .001.008.001 0 0-3.722 3.028-6.78 6.75-6.78a6.758 6.758 0 0 1 6.75 6.75 6.756 6.756 0 0 1-4.119 6.236.625.625 0 1 0 .488 1.151 7.985 7.985 0 0 0 3.516-2.908A8 8 0 0 0 16 8.054a7.948 7.948 0 0 0-2.343-5.657zM6.219 8.382v-.984h3.593v.984c0 .991-.806 1.797-1.796 1.797-.991 0-1.797-.806-1.797-1.797z" fill="#000"/>
    </g>
    <defs>
        <clipPath id="rt8zi7mtga">
            <path fill="#fff" d="M0 0h16v16H0z"/>
        </clipPath>
    </defs>
</svg>
