<svg width="16" height="16" viewBox="0 0 16 16" fill="none" xmlns="http://www.w3.org/2000/svg">
    <g clip-path="url(#kjo8mipmya)">
        <path d="M9.5 6 8 3 6.5 6l-3 .5 2 2.5-.5 3 3-1.5 3 1.5-.5-3.5 2-2-3-.5z" fill="#28CBFF"/>
        <path d="M13.657 2.343A7.948 7.948 0 0 0 8 0a7.948 7.948 0 0 0-5.657 2.343A7.948 7.948 0 0 0 0 8c0 2.137.832 4.146 2.343 5.657A7.948 7.948 0 0 0 8 16a7.948 7.948 0 0 0 5.657-2.343A7.948 7.948 0 0 0 16 8a7.948 7.948 0 0 0-2.343-5.657zM8 15.063A7.07 7.07 0 0 1 .937 8 7.07 7.07 0 0 1 8 .937 7.07 7.07 0 0 1 15.063 8 7.07 7.07 0 0 1 8 15.063z" fill="#000"/>
        <path d="M13.133 6.275a.469.469 0 0 0-.378-.32L9.76 5.522 8.42 2.807a.469.469 0 0 0-.84 0L6.24 5.52l-2.995.435a.469.469 0 0 0-.26.8l2.168 2.112-.512 2.983a.469.469 0 0 0 .68.494L8 10.937l2.679 1.408a.468.468 0 0 0 .68-.494l-.512-2.983 2.168-2.113a.468.468 0 0 0 .118-.48zm-3.116 2.094a.469.469 0 0 0-.135.414l.393 2.29-2.057-1.08a.468.468 0 0 0-.436 0l-2.056 1.08.392-2.29a.469.469 0 0 0-.135-.414L4.32 6.747l2.299-.334a.469.469 0 0 0 .353-.257L8 4.073l1.028 2.083c.068.139.2.235.353.257l2.3.334-1.664 1.622z" fill="#000"/>
    </g>
    <defs>
        <clipPath id="kjo8mipmya">
            <path fill="#fff" d="M0 0h16v16H0z"/>
        </clipPath>
    </defs>
</svg>
