<svg width="16" height="16" viewBox="0 0 16 16" fill="none" xmlns="http://www.w3.org/2000/svg">
    <g clip-path="url(#3ss7uusnqa)">
        <path d="M4.5 6 2 4.5V4L8 .5V4L4.5 6zM11.5 5.5 14 4v-.5L8 0v3.5l3.5 2zM11.75 6.165 14.3 4.75l.432.25.031 6.946-3.03-1.75.017-4.03z" fill="#28CBFF"/>
        <path d="m4.013 9.781-1.549 1.415-.433-.25L2 4l2.031 1.75-.018 4.031zM8.129 11.925l.081 2.915-.081.258-6.179-3.173 2.95-1.883 3.229 1.883zM8.44 11.803l-.082 2.914.081.259 6.18-3.173-2.95-1.884-3.23 1.884z" fill="#28CBFF"/>
        <path d="M8 0 1.072 4v8L8 16l6.928-4V4L8 0zm.469 1.353 5.053 2.918-1.877 1.083L8.47 3.52V1.353zm-.938 0V3.52L4.355 5.354 2.478 4.271l5.053-2.918zM2.01 5.083l1.877 1.083v3.668l-1.877 1.083V5.083zm5.522 9.564-5.053-2.918 1.876-1.083 3.177 1.834v2.167zM4.823 9.834V6.166L8 4.332l3.177 1.834v3.668L8 11.668 4.823 9.834zm3.646 4.813V12.48l3.177-1.834 1.876 1.083-5.053 2.918zm5.522-3.73-1.877-1.083V6.166l1.877-1.083v5.834z" fill="#000"/>
    </g>
    <defs>
        <clipPath id="3ss7uusnqa">
            <path fill="#fff" d="M0 0h16v16H0z"/>
        </clipPath>
    </defs>
</svg>
