<svg width="16" height="16" viewBox="0 0 16 16" fill="none" xmlns="http://www.w3.org/2000/svg">
    <g clip-path="url(#qtyyrocfwa)">
        <path d="M7 5 6 7.5h1.5L9 9l.5 1.5h5l1 .5V7l-1-1.5-2-2H8L7 5z" fill="#28CBFF"/>
        <path d="M10.372 10.433 9.189 8.297c-.437-.78-1.295-1.266-2.241-1.266H4.052c-.946 0-1.804.485-2.242 1.267L.636 10.414a.625.625 0 0 0-.032.066A2.197 2.197 0 0 0 0 11.982v3.392c0 .345.28.625.625.625h1.653c.345 0 .625-.28.625-.625v-.313h5.194v.313c0 .345.28.625.625.625h1.653c.345 0 .625-.28.625-.625v-3.406a2.17 2.17 0 0 0-.618-1.514l-.01-.022zM4.052 8.28h2.896c.486 0 .937.246 1.149.624l.433.783H2.468l.434-.782c.212-.38.664-.625 1.15-.625zm5.698 5.531H7.477l-.561-.773a.625.625 0 0 0-.506-.258H4.615c-.206 0-.4.102-.516.272l-.52.76H1.25v-1.83c0-.576.544-1.046 1.213-1.046h6.074c.669 0 1.213.463 1.213 1.032v1.844zm-.844-1.406a.625.625 0 1 1-1.25 0 .625.625 0 0 1 1.25 0zm-5.594 0a.625.625 0 1 1-1.25 0 .625.625 0 0 1 1.25 0zM1.25 5.97V4.952c0-.575.228-1.1.604-1.504a.637.637 0 0 1 .032-.066L3.06 1.266C3.498.484 4.356 0 5.302 0h2.896c.636 0 1.226.193 1.662.544a.625.625 0 0 1-.783.974c-.215-.173-.527-.268-.88-.268H5.303c-.486 0-.938.245-1.15.625l-.434.781H5.25a.625.625 0 1 1 0 1.25H3.713c-.669 0-1.213.47-1.213 1.046v1.017a.625.625 0 1 1-1.25 0zM3.938 4.75a.625.625 0 1 1 0 1.25.625.625 0 0 1 0-1.25zm9.343 4a.625.625 0 1 1 0-1.25.625.625 0 0 1 0 1.25zM16 7.531v3.719c0 .345-.28.625-.625.625h-1.653a.625.625 0 0 1-.625-.625v-.313h-.722a.625.625 0 1 1 0-1.25h2.375V7.595c0-.569-.544-1.032-1.213-1.032H9.094a.625.625 0 0 1 0-1.25h4.436l-.433-.782c-.212-.378-.663-.624-1.15-.624H9.053c-.486 0-.938.246-1.15.625l-.445.813c-.176.281-.332.437-.622.437-.474 0-.753-.51-.522-.924l.497-.934c.438-.782 1.296-1.267 2.242-1.267h2.896c.946 0 1.804.485 2.241 1.266l1.183 2.136.01.022A2.173 2.173 0 0 1 16 7.53z" fill="#000"/>
    </g>
    <defs>
        <clipPath id="qtyyrocfwa">
            <path fill="#fff" d="M0 0h16v16H0z"/>
        </clipPath>
    </defs>
</svg>
