<svg xmlns="http://www.w3.org/2000/svg" width="294.111" height="201.232" viewBox="0 0 294.111 201.232">
    <defs>
        <style>
            .cls-1{fill:#f2f8ff}.cls-2{fill:#e3efff}.cls-9{fill:#83d9ff}.cls-12,.cls-15,.cls-16{fill-rule:evenodd}.cls-16,.cls-6{fill:#fff}.cls-11,.cls-6{stroke:#263238;stroke-linecap:round}.cls-6{stroke-linejoin:round}.cls-7{opacity:.3}.cls-8{fill:#ffc727}.cls-10,.cls-12{fill:#263238}.cls-11{fill:none;stroke-width:.7px}.cls-19{fill:#53729d}.cls-20{fill:#ffdb72}.cls-21{fill:#232932}.cls-22{fill:#a6a6a6}.cls-23{fill:#d6e1f1}.cls-24{fill:#cccbcb}.cls-25{fill:#99a7be}.cls-26{fill:#dbdbdb}.cls-27{fill:#505b6e}.cls-28{fill:#fcd461}.cls-29{fill:#fefdfe}.cls-30{fill:#7899cb}.cls-32{fill:#242a33}
        </style>
    </defs>
    <g id="Group_10339" transform="translate(-38 -152.518)">
        <path id="Path_22966" d="M420.915 132.051a2.632 2.632 0 0 1 .822.258 3.52 3.52 0 0 1 1.42 5.048 3.337 3.337 0 0 1-.669.778 3.288 3.288 0 0 1-.9.548 3.6 3.6 0 0 1-2.193.219 3.558 3.558 0 0 1-1.907-1.146 3.24 3.24 0 0 1-.548-.9 3.183 3.183 0 0 1-.269-.987 3.541 3.541 0 0 1 .269-1.858 3.481 3.481 0 0 1 3.168-2.1 2.576 2.576 0 0 1 .855.115c0 .027-.307-.06-.85-.038a3.459 3.459 0 0 0-2.1.828 3.36 3.36 0 0 0-.926 1.261 3.448 3.448 0 0 0-.236 1.77 3.207 3.207 0 0 0 .263.932 3.157 3.157 0 0 0 .548.855 3.338 3.338 0 0 0 1.8 1.1 3.387 3.387 0 0 0 2.088-.2 3.053 3.053 0 0 0 .855-.548 2.993 2.993 0 0 0 .636-.734 3.376 3.376 0 0 0 .548-1.7 3.437 3.437 0 0 0-1.842-3.179c-.525-.245-.837-.294-.832-.322z" class="cls-1" transform="translate(-144.151 36.976)"/>
        <path id="Path_22967" d="M418.386 123.18a.969.969 0 0 1 0-.121v-1.836l.027.033-3.163-.691.055-.027-.833 1.77v.033h-.038a7.9 7.9 0 0 0-2.061.367h-.066l-1.442-1.387h.11l-2.741 1.743v-.1l.658 1.842v.044l-.033.038a8.04 8.04 0 0 0-1.2 1.71v.044h-2.006l.082-.071c-.219.992-.46 2.061-.7 3.163l-.049-.1 1.765.833h.049v.055a7.98 7.98 0 0 0 .356 2.055v.055l-.044.044-1.381 1.387v-.121l1.732 2.741-.115-.044 1.842-.658h.055l.049.038a7.746 7.746 0 0 0 1.7 1.2c.027.038-.049-.088.055.088v1.951l-.077-.1 3.157.713-.11.055c.28-.6.548-1.184.839-1.77l.027-.049h.06a7.805 7.805 0 0 0 2.05-.356h.055l.044.044 1.387 1.381h-.121l2.741-1.727-.038.1-.658-1.842v-.049l.038-.044a7.891 7.891 0 0 0 1.206-1.7v-.044h2.006l-.077.066c.252-1.1.488-2.16.713-3.163l.044.088-1.765-.844h-.038v-.044a7.788 7.788 0 0 0-.351-2.061v-.066c.5-.5.954-.959 1.387-1.387v.077l-1.721-2.741h.055l-1.847.641a8.6 8.6 0 0 0-1.255-.965l-.34-.2-.11-.071.121.055.345.186a7.924 7.924 0 0 1 1.283.954h-.033l1.836-.669h.033v.033l1.743 2.741.027.044-.033.033-1.315 1.326v-.066a7.849 7.849 0 0 1 .367 2.1l-.038-.06 1.77.833.055.027v.06c-.219 1-.455 2.044-.7 3.157v.066h-2.034l.077-.044a8.221 8.221 0 0 1-1.228 1.749v-.093c.214.6.438 1.217.658 1.842l.027.071-.066.038-2.741 1.738-.066.038-.055-.055-1.383-1.368h.1a7.959 7.959 0 0 1-2.1.367l.082-.055c-.274.581-.548 1.173-.839 1.765l-.033.071h-.077l-3.157-.674h-.076v-2.034c.1.175.027.049.055.088a7.947 7.947 0 0 1-1.743-1.228h.1l-1.842.652-.077.027-.038-.066-1.732-2.741-.044-.066.055-.055 1.381-1.387v.1a8.134 8.134 0 0 1-.367-2.1l.055.082-1.754-.866-.066-.033v-.071l.713-3.157v-.071h2.023l-.077.044a8.144 8.144 0 0 1 1.233-1.738v.082l-.652-1.847v-.055l.055-.038 2.741-1.727h.049l.038.038 1.387 1.387h-.066a7.909 7.909 0 0 1 2.094-.356l-.049.033c.307-.636.592-1.233.844-1.765v-.042h.038l3.152.729h.027v1.825a1.187 1.187 0 0 1-.047.126z" class="cls-1" transform="translate(-138.837 42.131)"/>
        <path id="Path_22968" d="M417.352 386.134V383.8c0-1.518 0-3.749-.027-6.61 0-5.717-.027-13.966-.044-24.084l.088.088-57.076.027.121-.115v33.024l-.11-.11 41.054.049 11.79.033h.044l-11.768.033-41.109.049h-.1V353H417.5v.093c0 10.146-.033 18.406-.044 24.117v8.29a1.778 1.778 0 0 1-.104.634z" class="cls-2" transform="translate(-118.652 -62.932)"/>
        <path id="Path_22969" d="M417.5 360.4c0 .066-12.766.115-28.5.115s-28.5-.049-28.5-.115 12.76-.115 28.5-.115 28.5.044 28.5.115z" class="cls-2" transform="translate(-118.783 -66.221)"/>
        <path id="Rectangle_2006" d="M0 0H17.633V17.633H0z" class="cls-2" transform="translate(246.563 299.623)"/>
        <path id="Path_22970" d="M435.861 375.671a.957.957 0 0 1-.258 0h-.745l-2.741.033-9.022.038-9.022-.038-2.741-.033h-.745a.957.957 0 0 1-.258 0 1.178 1.178 0 0 1 .258 0h.745l2.741-.038 9.022-.033 9.022.033 2.741.038h.745a1.174 1.174 0 0 1 .258 0z" class="cls-2" transform="translate(-141.3 -73.144)"/>
        <path id="Path_22971" d="M436.435 382.839a1.207 1.207 0 0 1-.263 0h-.762l-2.8.038-9.219.033-9.225-.033-2.8-.038h-.762a1.208 1.208 0 0 1-.263 0 .974.974 0 0 1 .263-.027h.762l2.8-.033 9.225-.038 9.219.038 2.8.033h.762a.974.974 0 0 1 .263.027z" class="cls-2" transform="translate(-141.309 -76.37)"/>
        <path id="Path_22972" d="M436.435 390.041a.975.975 0 0 1-.263 0h-.762l-2.8.033-9.219.038-9.225-.038-2.8-.033h-.762a.975.975 0 0 1-.263 0 1.206 1.206 0 0 1 .263 0h.762l2.8-.038 9.225-.033 9.236.016 2.8.038h.762a1.2 1.2 0 0 1 .246.017z" class="cls-2" transform="translate(-141.309 -79.637)"/>
        <path id="Path_22973" d="M436.435 397.209a1.207 1.207 0 0 1-.263 0h-.762l-2.8.038-9.219.033-9.225-.033-2.8-.038h-.762a1.208 1.208 0 0 1-.263 0 .975.975 0 0 1 .263-.027h.762l2.8-.033 9.225-.038 9.219.038 2.8.033h.762a.975.975 0 0 1 .263.027z" class="cls-2" transform="translate(-141.309 -82.863)"/>
        <g id="Group_9186" opacity="0.8" transform="translate(236.115 125.518)">
            <path id="Path_22987" fill="#83d9ff" fill-rule="evenodd" d="M376.842 58a16.038 16.038 0 0 1 3.431 2.406l3.645-1.3 3.426 5.41-2.744 2.739a15.61 15.61 0 0 1 .713 4.111l3.5 1.644-1.413 6.271h-3.837a15.688 15.688 0 0 1-2.4 3.415l1.3 3.645-5.41 3.426-2.741-2.741a15.615 15.615 0 0 1-4.111.718l-1.644 3.492-6.249-1.4v-3.87a15.522 15.522 0 0 1-3.415-2.406l-3.645 1.3-3.475-5.394 2.741-2.741a15.7 15.7 0 0 1-.734-4.089l-3.5-1.644 1.4-6.249h3.87a15.523 15.523 0 0 1 2.406-3.415l-1.3-3.645 5.41-3.426L364.811 57a15.7 15.7 0 0 1 4.116-.718l1.644-3.492 6.249 1.4v3.84zm-5.509 7.356a6.862 6.862 0 1 0 4.306 3.031 6.868 6.868 0 0 0-4.306-3.031z" transform="translate(-350.28 -25.79)"/>
        </g>
        <path id="Path_22988" d="M63.7 154.884h40.561s-3.585-6.523-14.021-5.574c-9.965.91-10.475-3.207-15.545-3.716s-9.307 3.381-10.995 9.29z" class="cls-2" transform="translate(15.335 30.812)"/>
        <path id="Path_22989" fill="#f5f5f5" d="M223.8 290.841h32.816s-2.9-5.278-11.346-4.511c-8.068.734-8.479-2.6-12.607-3.009s-7.498 2.734-8.863 7.52z" transform="translate(-57.011 -31.428)"/>
        <g id="Group_9204" transform="translate(-6 -27)">
            <rect id="Rectangle_14942" width="108.176" height="81.531" class="cls-6" rx="8.548" transform="translate(229.435 193.989)"/>
            <rect id="Rectangle_14943" width="100.176" height="66.531" class="cls-6" rx="8.548" transform="translate(62.435 214.475)"/>
            <g id="Group_9187" class="cls-7" transform="translate(232.734 197.074)">
                <path id="Path_22993" d="M314.983 149.1a.835.835 0 1 1-.242-.595.842.842 0 0 1 .242.595z" class="cls-8" transform="translate(-308.3 -147.26)"/>
            </g>
            <g id="Group_9188" class="cls-7" transform="translate(235.604 197.074)">
                <path id="Path_22994" d="M318.973 149.1a.835.835 0 1 1-.242-.595.842.842 0 0 1 .242.595z" class="cls-8" transform="translate(-312.29 -147.26)"/>
            </g>
            <g id="Group_9189" class="cls-7" transform="translate(238.432 197.074)">
                <path id="Path_22995" d="M322.9 149.1a.835.835 0 1 1-.242-.595.842.842 0 0 1 .242.595z" class="cls-8" transform="translate(-316.22 -147.26)"/>
            </g>
            <path id="Rectangle_2008" d="M0 0H27.878V27.878H0z" class="cls-9" transform="translate(239.281 208.362)"/>
            <path id="Path_22996" d="M416.326 174.827c0 .108-10.878.187-24.288.187s-24.288-.079-24.288-.187 10.878-.187 24.288-.187 24.288.086 24.288.187z" class="cls-10" transform="translate(-95.843 41.413)"/>
            <path id="Path_22997" d="M416.326 182.037c0 .1-10.878.187-24.288.187s-24.288-.086-24.288-.187 10.878-.187 24.288-.187 24.288.108 24.288.187z" class="cls-10" transform="translate(-95.843 39.391)"/>
            <path id="Path_22998" d="M416.326 189.237c0 .1-10.878.187-24.288.187s-24.288-.086-24.288-.187 10.878-.187 24.288-.187 24.288.079 24.288.187z" class="cls-10" transform="translate(-95.843 37.37)"/>
            <g id="Group_9190" class="cls-7" transform="translate(241.022 245.644)">
                <path id="Rectangle_2009" d="M0 0H13.101V13.101H0z" class="cls-9"/>
            </g>
            <path id="Rectangle_2010" d="M0 0H13.101V13.101H0z" class="cls-9" transform="translate(264.784 245.644)"/>
            <path id="Rectangle_2011" d="M0 0H13.101V13.101H0z" class="cls-9" transform="translate(288.547 245.644)"/>
            <path id="Rectangle_2012" d="M0 0H13.101V13.101H0z" class="cls-9" transform="translate(312.31 245.644)"/>
            <path id="Line_603" d="M0 0L48 0" class="cls-11" transform="translate(272.015 216.484)"/>
            <path id="Line_607" d="M0 0L102 0" class="cls-11" transform="translate(232.515 203.484)"/>
            <path id="Line_604" d="M0 0L48 0" class="cls-11" transform="translate(272.015 221.484)"/>
            <path id="Line_605" d="M0 0L48 0" class="cls-11" transform="translate(272.015 226.484)"/>
            <path id="Line_606" d="M0 0L24.5 0" class="cls-11" transform="translate(272.015 231.484)"/>
            <path id="Line_608" d="M0 0L51.5 0" class="cls-11" transform="translate(100.015 237.484)"/>
            <path id="Line_611" d="M0 0L93 0" class="cls-11" transform="translate(65.515 225.484)"/>
            <path id="Line_609" d="M0 0L51.5 0" class="cls-11" transform="translate(100.015 241.484)"/>
            <path id="Line_610" d="M0 0L20.5 0" class="cls-11" transform="translate(100.015 245.484)"/>
        </g>
        <g id="Group_9205" transform="translate(20 -27)">
            <g id="Group_9195" class="cls-7" transform="translate(41.782 222.176)">
                <path id="Path_23002" d="M49.233 183.826a.676.676 0 1 1-.676-.676.676.676 0 0 1 .676.676z" class="cls-8" transform="translate(-47.88 -183.15)"/>
            </g>
            <g id="Group_9196" class="cls-7" transform="translate(44.113 222.176)">
                <path id="Path_23003" d="M52.473 183.826a.676.676 0 1 1-.676-.676.676.676 0 0 1 .676.676z" class="cls-8" transform="translate(-51.12 -183.15)"/>
            </g>
            <g id="Group_9197" class="cls-7" transform="translate(46.379 222.176)">
                <path id="Path_23004" d="M55.623 183.826a.676.676 0 1 1-.676-.676.676.676 0 0 1 .676.676z" class="cls-8" transform="translate(-54.27 -183.15)"/>
            </g>
            <path id="Rectangle_2018" d="M0 0H22.489V22.489H0z" class="cls-9" transform="translate(47.055 231.276)"/>
            <path id="Path_23005" d="M144.518 204.124c0 .079-11.576.151-25.849.151s-25.849-.072-25.849-.151 11.576-.144 25.849-.144 25.849.065 25.849.144z" class="cls-10" transform="translate(-18.707 33.182)"/>
        </g>
        <g id="freepik--Chart--inject-6" transform="translate(264.722 244.355)">
            <path id="Rectangle_2020" d="M0 0H3.82V12.344H0z" class="cls-10" transform="translate(0 9.954)"/>
            <path id="Rectangle_2021" d="M0 0H3.82V17.419H0z" class="cls-10" transform="translate(7.032 4.873)"/>
            <path id="Rectangle_2022" d="M0 0H3.82V19.793H0z" class="cls-10" transform="translate(14.514 2.499)"/>
            <path id="Rectangle_2023" d="M0 0H3.82V22.298H0z" class="cls-10" transform="translate(22.002)"/>
        </g>
        <g id="freepik--Gears--inject-6" transform="translate(99.539 239.093)">
            <path id="Path_23069" d="M149.488 262.921a8.859 8.859 0 0 1 1.907 1.343l2.039-.724 1.913 3.02-1.524 1.535a8.928 8.928 0 0 1 .4 2.3l1.951.926-.784 3.475h-2.16a8.88 8.88 0 0 1-1.348 1.907l.729 2.039-3.026 1.913-1.535-1.474a8.926 8.926 0 0 1-2.3.4l-.926 1.951-3.492-.784v-2.16a8.771 8.771 0 0 1-1.907-1.348l-2.039.729-1.918-3.026 1.532-1.525a9.011 9.011 0 0 1-.4-2.3l-1.951-.926.778-3.492h2.154a8.724 8.724 0 0 1 1.343-1.907l-.718-2.05 3.02-1.918 1.535 1.529a8.929 8.929 0 0 1 2.3-.4l.926-1.951 3.492.784v2.16zm-3.08 4.111a3.837 3.837 0 1 0 2.4 1.692 3.837 3.837 0 0 0-2.4-1.692z" class="cls-12" transform="translate(-125.264 -255)"/>
            <path id="Path_23071" d="M131.595 301.451a5.1 5.1 0 0 1 1.1.778l1.189-.422 1.1 1.759-.888.893a5.185 5.185 0 0 1 .236 1.337l1.135.548-.4 2.028H133.8a5.185 5.185 0 0 1-.778 1.1l.422 1.184-1.765 1.1-.888-.888a5.262 5.262 0 0 1-1.343.23l-.548 1.14-2.034-.46v-1.255a5.021 5.021 0 0 1-1.1-.784l-1.189.422-1.1-1.759.888-.893a5.18 5.18 0 0 1-.23-1.337l-1.14-.548.455-2.034h1.189a5.29 5.29 0 0 1 .784-1.1l-.422-1.184 1.759-1.1.893.893a4.962 4.962 0 0 1 1.337-.236l.548-1.135 2.034.455v1.261zm-1.792 2.39a2.236 2.236 0 1 0 1.688 2.669 2.236 2.236 0 0 0-1.688-2.669z" class="cls-12" transform="translate(-96 -277.953)"/>
        </g>
        <g id="Group_8385" transform="translate(152.658 234.369)">
            <path id="Path_21841" fill="#e3efff" fill-rule="evenodd" d="M427.721 199.366c-22.467 0-40.679.829-40.679 1.855s18.212 1.856 40.679 1.856 40.679-.83 40.679-1.856-18.213-1.855-40.679-1.855z" transform="translate(-387.042 -83.695)"/>
            <path id="Path_21842" fill="#f8c81e" fill-rule="evenodd" stroke="#04072e" stroke-miterlimit="10" stroke-width="2px" d="M411.484 104.238a33.216 33.216 0 0 0-17.34 29.116l.02 24.393a33.223 33.223 0 0 0 33.145 33.108 33.222 33.222 0 0 0 33.108-33.145l-.02-24.393a33.222 33.222 0 0 0-33.145-33.108 32.955 32.955 0 0 0-6.678.684" transform="translate(-387.555 -76.533)"/>
            <path id="Path_21843" d="M424.145 134.914c.19-5.444 5.691-5.448 5.888 0 1.375 15.73 25.231 17.254 27.929 2.48.5-2.737 1.186-7.583 4.578-8.115v-3.763c-5.884-.128-11.445-1.931-17.269-1.767-7.816.225-10.474 3.684-18.183 4.235-7.709-.542-10.372-4-18.188-4.214-5.824-.159-11.383 1.651-17.266 1.785v3.763c3.393.53 4.084 5.374 4.586 8.111 2.716 14.77 26.569 13.221 27.927-2.511zm8.164-.122c-.175-3.913.422-5.529 4.213-6.81a29.7 29.7 0 0 1 8.767-1.915c8.41-.243 12 1.84 10.344 10.906-2.218 12.137-22.108 10.757-23.324-2.181zm-10.436-.053c-1.207 13-21.1 14.4-23.327 2.265-1.667-9.063 1.921-11.15 10.332-10.917a29.667 29.667 0 0 1 8.77 1.907c3.792 1.278 4.392 2.891 4.225 6.746z" class="cls-15" transform="translate(-387.373 -78.232)"/>
            <path id="Path_21844" d="M418.125 157.559a1.058 1.058 0 1 0 .4-2.078 4.743 4.743 0 0 0-4.984 2.284 1.058 1.058 0 0 0 1.832 1.06 2.63 2.63 0 0 1 .329-.456 14.157 14.157 0 0 0 25.948-.014 2.667 2.667 0 0 1 .33.454 1.057 1.057 0 0 0 1.83-1.06 4.738 4.738 0 0 0-4.983-2.28 1.057 1.057 0 1 0 .391 2.077 2.819 2.819 0 0 1 .5-.046 12.043 12.043 0 0 1-22.083.012 2.688 2.688 0 0 1 .495.046z" class="cls-15" transform="translate(-388.945 -80.519)"/>
            <path id="Path_21845" d="M411.887 128.56a6.857 6.857 0 1 0 6.862 6.853 6.857 6.857 0 0 0-6.862-6.853z" class="cls-16" transform="translate(-388.342 -78.581)"/>
            <path id="Path_21846" d="M446.737 128.541a6.857 6.857 0 1 0 6.86 6.853 6.857 6.857 0 0 0-6.86-6.853z" class="cls-16" transform="translate(-390.859 -78.58)"/>
            <path id="Path_21847" d="M412.222 132.165a3.518 3.518 0 0 0-3.344 4.586 2.221 2.221 0 0 1 3.667 2.423 3.512 3.512 0 0 0 2.926-4.832c-.044 0-.088.006-.135.007a1.192 1.192 0 0 1-1.191-1.192 1.156 1.156 0 0 1 .06-.38 3.5 3.5 0 0 0-1.983-.612z" class="cls-15" transform="translate(-388.607 -78.841)"/>
            <path id="Path_21848" fill="#313131" fill-rule="evenodd" d="M446.928 132.146a3.513 3.513 0 0 0-3.51 3.514 3.477 3.477 0 0 0 .088.778 2.22 2.22 0 0 1 3.34 2.73h.086a3.512 3.512 0 0 0 3.2-4.944 1.194 1.194 0 0 1-1.685-1.086 1.208 1.208 0 0 1 .146-.572 3.5 3.5 0 0 0-1.669-.42z" transform="translate(-391.114 -78.84)"/>
            <path id="Path_21849" d="M395.633 95.01a23.939 23.939 0 0 0 5.322 3.468c-6.261-5.07-5.467-8.683-3.309-18.436.145-.653.29-1.328.622-2.865l.52-2.487 1.2 2.257a1.469 1.469 0 0 1 .124.2c.524.748 3.222 3.83 12.96 4.914 5.851.651 10.985 1.246 14.725 1.753 3.9.52 6.458.957 6.99 1.319a51.414 51.414 0 0 1 4.448 4.27 3.965 3.965 0 0 0-.181-1.257 19.738 19.738 0 0 0-2.919-5.328L435 81.19l2.05.332a16.233 16.233 0 0 1 7.387 2.807 12.96 12.96 0 0 1 3.872 4.781 21.843 21.843 0 0 1 1.314 3.189 23.273 23.273 0 0 0 .619-3.144l.253-2.037 1.416 1.589a28.267 28.267 0 0 1 4.468 6.392 15.954 15.954 0 0 1 1.608 7.474v.086c-.2 1.41 2.12 6.067 2.294 11.345.206 6.226-1.947 14.008-1.947 14.008l-6.934-14.924c0-.021-2.528-.687-3.138-1.848a16.525 16.525 0 0 0-3.885-4.311 7.45 7.45 0 0 0-3.808-1.713c-3.9-.305-9.4.314-13.405.772h-.023l-.189.028-.182-.058c-1.965-.539-4.295-1.172-6.609-1.717a44.951 44.951 0 0 0-6.537-1.134 7.458 7.458 0 0 0-4.029 1.1 16.141 16.141 0 0 0-4.509 3.654c-.783 1.053-9.45 10.662-9.45 10.662s1.862-3.263 1.324-4.141c-2.9-4.641-2.589-9.418-2.909-18.741l-.068-2.105z" transform="translate(-387.543 -74.69)"/>
        </g>
        <g id="Group_9203" transform="rotate(180 73.213 164.767)">
            <g id="Group_307">
                <g id="Group_209" transform="translate(78.027 28.797)">
                    <path id="Path_2715" fill="#e5f2f8" d="M0 1.11C0 .5.455 0 2.26 0s4.277.5 4.277 1.11S4.065 2.221 2.26 2.221 0 1.723 0 1.11z"/>
                </g>
                <g id="Group_219">
                    <path id="Path_2720" d="M108.425 1.58C108.425.708 84.153 0 54.212 0S0 .708 0 1.58s24.272 1.58 54.212 1.58 54.213-.707 54.213-1.58z" class="cls-19"/>
                </g>
                <g id="Group_226" transform="translate(28.155 1.58)">
                    <g id="Group_220" transform="translate(62.504)">
                        <path id="Path_2721" d="M12.308 9.469C12.308 4.239 8.954 0 4.817 0H0v18.938h4.817c4.137 0 7.491-4.238 7.491-9.469z"/>
                    </g>
                    <g id="Group_221" transform="translate(7.491)">
                        <path id="Path_2722" d="M12.308 9.469C12.308 4.239 8.954 0 4.817 0H0v18.938h4.817c4.137 0 7.491-4.238 7.491-9.469z"/>
                    </g>
                    <g id="Group_223">
                        <g id="Group_222">
                            <ellipse id="Ellipse_826" cx="7.491" cy="9.469" rx="7.491" ry="9.469"/>
                        </g>
                    </g>
                    <g id="Group_225" transform="translate(55.013)">
                        <g id="Group_224">
                            <ellipse id="Ellipse_827" cx="7.491" cy="9.469" rx="7.491" ry="9.469"/>
                        </g>
                    </g>
                </g>
                <g id="Group_227" transform="translate(5.053 6.986)">
                    <path id="Rectangle_434" d="M0 0H73.762V15.413H0z"/>
                </g>
                <g id="Group_228" transform="translate(68.252 1.58)">
                    <path id="Path_2723" d="M12.308 9.469C12.308 4.239 8.954 0 4.817 0H0v18.938h4.817c4.137 0 7.491-4.238 7.491-9.469z"/>
                </g>
                <g id="Group_229" transform="translate(41.694 6.897)">
                    <path id="Path_2724" d="M66.732 11.106c-.106 1.133-2.649 5.717-9.25 8.45-6.746 2.794-16.9 2.865-16.9 2.865S32.305 34.292 25.35 34.292H.313c-3.466-4.441 22.893-17.55 26.44-17.55 1.022 0 9.726-1.234 9.726-16.742h27.7c.953 0 2.553 11.106 2.553 11.106z" class="cls-20"/>
                </g>
                <g id="Group_230" transform="translate(13.239 1.58)">
                    <path id="Path_2725" d="M12.308 9.469C12.308 4.239 8.954 0 4.817 0H0v18.938h4.817c4.137 0 7.491-4.238 7.491-9.469z"/>
                </g>
                <g id="Group_231" transform="translate(0 6.897)">
                    <path id="Path_2726" d="M83.388 11.1c0 1-2.5 5.659-9.25 8.453s-16.9 2.865-16.9 2.865-8.276 11.874-15.231 11.874a59.226 59.226 0 0 1-32.073-9.6c-2.944-.322-5.282-.415-6.742-1.6-1.164-.949-1.8-6.066-1.8-9.917C1.391 12.184 0 11.3 0 10.569 0 5.6 1.894.966 5.053.089v4.063c0 5.639 3.672 10.226 8.187 10.226s8.186-4.588 8.186-10.226V1.289A1.271 1.271 0 0 1 22.677 0h36.137a1.271 1.271 0 0 1 1.252 1.289v2.863c0 5.639 3.672 10.226 8.186 10.226s8.186-4.588 8.186-10.226V1.289A1.271 1.271 0 0 1 77.69 0h3.142c.957 0 2.555 10.626 2.556 11.1z" class="cls-8"/>
                </g>
                <g id="Group_232" transform="translate(22.743 28.129)">
                    <path id="Path_2727" d="M1.459 3.756a2.9 2.9 0 0 0 .491 5.262 57.166 57.166 0 0 0 17.315 2.753c4.075 0 10.233-5.811 12.942-10.84A.631.631 0 0 0 31.666 0C13.215-.038 5.32 1.56 1.459 3.756z" class="cls-19"/>
                </g>
                <g id="Group_251" transform="translate(5.748 1.58)">
                    <g id="Group_233">
                        <ellipse id="Ellipse_828" cx="7.491" cy="9.469" class="cls-21" rx="7.491" ry="9.469"/>
                    </g>
                    <g id="Group_234" transform="translate(2.645 3.343)">
                        <path id="Path_2728" d="M4.846 12.252C2.174 12.252 0 9.5 0 6.126S2.174 0 4.846 0s4.846 2.748 4.846 6.126-2.174 6.126-4.846 6.126z" class="cls-22"/>
                    </g>
                    <g id="Group_235" transform="translate(6.936 8.17)">
                        <path id="Path_2729" d="M1.638 2.607c-.065 0-.826.015-.888 0A1.234 1.234 0 0 1 0 1.3C0 .708.75 0 .75 0h.888a1.193 1.193 0 0 1 1.031 1.3 1.193 1.193 0 0 1-1.031 1.307z" class="cls-23"/>
                    </g>
                    <g id="Group_236" transform="translate(7.527 3.052)">
                        <path id="Rectangle_435" d="M0 0H1.532V6.417H0z" class="cls-24"/>
                    </g>
                    <g id="Group_237" transform="translate(2.988 7.031)">
                        <path id="Path_21460" d="M.013 1.574l5.317.046L5.316.047 0 0z" class="cls-24" transform="rotate(18.01 .25 1.582)"/>
                    </g>
                    <g id="Group_238" transform="translate(4.162 9.005)">
                        <path id="Path_21461" d="M.083 5.952l1.548.022L1.548.022 0 0z" class="cls-24" transform="rotate(36 1.754 5.401)"/>
                    </g>
                    <g id="Group_239" transform="translate(7.604 9.005)">
                        <path id="Path_21462" d="M.022 1.548l5 .07L5 .07 0 0z" class="cls-24" transform="rotate(53.997 .655 1.285)"/>
                    </g>
                    <g id="Group_240" transform="translate(8.032 7.365)">
                        <path id="Path_21463" d="M.037 4.264l1.574.014L1.574.014 0 0z" class="cls-24" transform="rotate(72 2.034 2.8)"/>
                    </g>
                    <g id="Group_241" transform="translate(6.655 8.17)">
                        <path id="Path_2730" d="M1.031 2.607A1.193 1.193 0 0 1 0 1.3 1.193 1.193 0 0 1 1.031 0a1.193 1.193 0 0 1 1.031 1.3 1.193 1.193 0 0 1-1.031 1.307z" class="cls-25"/>
                    </g>
                    <g id="Group_242" transform="translate(2.645 3.343)">
                        <path id="Path_2731" d="M1.071 6.126c0-3.149 1.89-5.748 4.31-6.087A3.839 3.839 0 0 0 4.846 0C2.174 0 0 2.748 0 6.126s2.174 6.126 4.846 6.126a3.885 3.885 0 0 0 .536-.04c-2.421-.338-4.311-2.937-4.311-6.086z" class="cls-24"/>
                    </g>
                    <g id="Group_243" transform="translate(6.92 3.052)">
                        <path id="Rectangle_440" d="M0 0H1.532V6.417H0z" class="cls-26"/>
                    </g>
                    <g id="Group_244" transform="translate(2.381 7.031)">
                        <path id="Path_21464" d="M.013 1.574l5.316.047L5.316.047 0 0z" class="cls-26" transform="rotate(18.01 .25 1.582)"/>
                    </g>
                    <g id="Group_245" transform="translate(3.555 9.005)">
                        <path id="Path_21465" d="M.083 5.952l1.548.022L1.548.022 0 0z" class="cls-26" transform="rotate(36 1.754 5.401)"/>
                    </g>
                    <g id="Group_246" transform="translate(6.99 9.005)">
                        <path id="Path_21466" d="M.022 1.548l5.613.078L5.613.079 0 0z" class="cls-26" transform="rotate(53.997 .658 1.291)"/>
                    </g>
                    <g id="Group_247" transform="translate(7.423 7.162)">
                        <path id="Path_21467" d="M.043 4.9l1.574.014-.043-4.9L0 0z" class="cls-26" transform="rotate(72.002 2.338 3.219)"/>
                    </g>
                    <g id="Group_248" transform="translate(1.985 2.51)">
                        <path id="Path_2732" d="M11.011 6.959c0 3.844-2.465 6.959-5.506 6.959S0 10.8 0 6.959 2.465 0 5.506 0s5.505 3.116 5.505 6.959zm-.51 0c0-3.483-2.241-6.315-5-6.315s-5 2.833-5 6.315 2.241 6.315 5 6.315S10.5 10.441 10.5 6.96z" class="cls-23"/>
                    </g>
                    <g id="Group_249" transform="translate(2.15 2.718)">
                        <path id="Path_2733" d="M10.682 6.751c0 3.728-2.391 6.751-5.341 6.751S0 10.479 0 6.751 2.391 0 5.341 0s5.341 3.022 5.341 6.751zm-.495 0c0-3.378-2.174-6.127-4.846-6.127S.495 3.373.495 6.751s2.174 6.126 4.846 6.126 4.846-2.748 4.846-6.126z" class="cls-26"/>
                    </g>
                    <g id="Group_250" transform="translate(7.015 8.625)">
                        <path id="Path_2734" d="M.671 1.7A.776.776 0 0 1 0 .848.776.776 0 0 1 .671 0a.776.776 0 0 1 .671.848.776.776 0 0 1-.671.852z" class="cls-27"/>
                    </g>
                </g>
                <g id="Group_270" transform="translate(60.761 1.58)">
                    <g id="Group_252">
                        <ellipse id="Ellipse_829" cx="7.491" cy="9.469" class="cls-21" rx="7.491" ry="9.469"/>
                    </g>
                    <g id="Group_253" transform="translate(2.645 3.343)">
                        <path id="Path_2735" d="M4.846 12.252C2.174 12.252 0 9.5 0 6.126S2.174 0 4.846 0s4.846 2.748 4.846 6.126-2.174 6.126-4.846 6.126z" class="cls-22"/>
                    </g>
                    <g id="Group_254" transform="translate(6.936 8.17)">
                        <path id="Path_2736" d="M1.638 2.607c-.065 0-.826.015-.888 0A1.234 1.234 0 0 1 0 1.3C0 .708.75 0 .75 0h.888a1.193 1.193 0 0 1 1.031 1.3 1.193 1.193 0 0 1-1.031 1.307z" class="cls-23"/>
                    </g>
                    <g id="Group_255" transform="translate(7.527 3.052)">
                        <path id="Rectangle_445" d="M0 0H1.532V6.417H0z" class="cls-24"/>
                    </g>
                    <g id="Group_256" transform="translate(2.988 7.031)">
                        <path id="Path_21468" d="M.013 1.574l5.317.046L5.316.047 0 0z" class="cls-24" transform="rotate(18 .25 1.582)"/>
                    </g>
                    <g id="Group_257" transform="translate(4.162 9.005)">
                        <path id="Path_21469" d="M.083 5.952l1.548.022L1.548.022 0 0z" class="cls-24" transform="rotate(36 1.754 5.401)"/>
                    </g>
                    <g id="Group_258" transform="translate(7.604 9.005)">
                        <path id="Path_21470" d="M.022 1.548l5 .07L5 .07 0 0z" class="cls-24" transform="rotate(53.98 .654 1.285)"/>
                    </g>
                    <g id="Group_259" transform="translate(8.032 7.365)">
                        <path id="Path_21471" d="M.037 4.264l1.574.014L1.574.014 0 0z" class="cls-24" transform="rotate(72 2.034 2.8)"/>
                    </g>
                    <g id="Group_260" transform="translate(6.655 8.17)">
                        <path id="Path_2737" d="M1.031 2.607A1.193 1.193 0 0 1 0 1.3 1.193 1.193 0 0 1 1.031 0a1.193 1.193 0 0 1 1.031 1.3 1.193 1.193 0 0 1-1.031 1.307z" class="cls-25"/>
                    </g>
                    <g id="Group_261" transform="translate(2.645 3.343)">
                        <path id="Path_2738" d="M1.071 6.126c0-3.149 1.89-5.748 4.31-6.087A3.84 3.84 0 0 0 4.846 0C2.174 0 0 2.748 0 6.126s2.174 6.126 4.846 6.126a3.886 3.886 0 0 0 .536-.04c-2.421-.338-4.311-2.937-4.311-6.086z" class="cls-24"/>
                    </g>
                    <g id="Group_262" transform="translate(6.92 3.052)">
                        <path id="Rectangle_450" d="M0 0H1.532V6.417H0z" class="cls-26"/>
                    </g>
                    <g id="Group_263" transform="translate(2.381 7.031)">
                        <path id="Path_21472" d="M.013 1.574l5.316.047L5.316.047 0 0z" class="cls-26" transform="rotate(18.01 .25 1.582)"/>
                    </g>
                    <g id="Group_264" transform="translate(3.555 9.005)">
                        <path id="Path_21473" d="M.083 5.952l1.548.022L1.548.022 0 0z" class="cls-26" transform="rotate(36 1.754 5.401)"/>
                    </g>
                    <g id="Group_265" transform="translate(6.99 9.005)">
                        <path id="Path_21474" d="M.022 1.548l5.613.078L5.613.079 0 0z" class="cls-26" transform="rotate(53.98 .658 1.292)"/>
                    </g>
                    <g id="Group_266" transform="translate(7.423 7.162)">
                        <path id="Path_21475" d="M.043 4.9l1.574.014-.043-4.9L0 0z" class="cls-26" transform="rotate(72.002 2.338 3.219)"/>
                    </g>
                    <g id="Group_267" transform="translate(1.986 2.51)">
                        <path id="Path_2739" d="M11.011 6.959c0 3.844-2.465 6.959-5.506 6.959S0 10.8 0 6.959 2.465 0 5.506 0s5.505 3.116 5.505 6.959zm-.51 0c0-3.483-2.241-6.315-5-6.315s-5 2.833-5 6.315 2.241 6.315 5 6.315S10.5 10.441 10.5 6.96z" class="cls-23"/>
                    </g>
                    <g id="Group_268" transform="translate(2.15 2.718)">
                        <path id="Path_2740" d="M10.682 6.751c0 3.728-2.391 6.751-5.341 6.751S0 10.479 0 6.751 2.391 0 5.341 0s5.341 3.022 5.341 6.751zm-.495 0c0-3.378-2.174-6.127-4.846-6.127S.495 3.373.495 6.751s2.174 6.126 4.846 6.126 4.846-2.748 4.846-6.126z" class="cls-26"/>
                    </g>
                    <g id="Group_269" transform="translate(7.015 8.625)">
                        <path id="Path_2741" d="M.671 1.7A.776.776 0 0 1 0 .848.776.776 0 0 1 .671 0a.776.776 0 0 1 .671.848.776.776 0 0 1-.671.852z" class="cls-27"/>
                    </g>
                </g>
                <g id="Group_271" transform="translate(78.815 6.897)">
                    <path id="Path_2742" d="M0 11.1V0h27.055c.95 0 2.535 10.963 2.555 11.1z" class="cls-8"/>
                </g>
                <g id="Group_275" transform="translate(0 6.897)">
                    <g id="Group_272" transform="translate(74.241)">
                        <path id="Path_2743" d="M9.147 11.1c-2.092 0-5.249 0-9.148.011A11.678 11.678 0 0 0 2.2 4.152V1.289A1.271 1.271 0 0 1 3.449 0h3.143c.956 0 2.554 10.626 2.555 11.1z" class="cls-28"/>
                    </g>
                    <g id="Group_273" transform="translate(0 .089)">
                        <path id="Path_2744" d="M0 10.48C0 5.511 1.894.877 5.053 0v4.063a11.107 11.107 0 0 0 3.574 8.443c-2.67.172-5.109.363-7.236.577C1.391 12.095 0 11.206 0 10.48z" class="cls-28"/>
                    </g>
                    <g id="Group_274" transform="translate(18.395)">
                        <path id="Path_2745" d="M3.031 4.152V1.289A1.271 1.271 0 0 1 4.282 0h36.137a1.271 1.271 0 0 1 1.252 1.289v2.863a11.655 11.655 0 0 0 2.243 7.021c-13.415.1-30.163.338-43.914.915a11.33 11.33 0 0 0 3.031-7.936z" class="cls-28"/>
                    </g>
                </g>
                <g id="Group_278" transform="translate(80.214 18)">
                    <path id="Path_2747" d="M0 4.647C2.247 2.574 3.175.611 3.175 0c0 0 4.034.008 6.19.008C8.252 3.948 2.827 4.647 0 4.647z" class="cls-29"/>
                </g>
                <g id="Group_279" transform="translate(102.229 18.009)">
                    <path id="Path_2748" d="M3.259 4.391C1.586 3.948.2 2.787 0 0h6.2c-.069.659-.947 2.46-2.941 4.391z" class="cls-29"/>
                </g>
                <g id="Group_280" transform="translate(66.409 20.515)">
                    <path id="Path_2749" d="M33.777 1.315a19.806 19.806 0 0 1-6.9 4.622C20.129 8.732 9.975 8.8 9.975 8.8H0s10.154-.072 16.9-2.865a19.8 19.8 0 0 0 6.9-4.622c1.653-1.751 11.627-1.751 9.977.002z" class="cls-28"/>
                </g>
                <g id="Group_281" transform="translate(75.568 20.516)">
                    <path id="Path_2750" d="M24.617 1.315a19.806 19.806 0 0 1-6.9 4.622C10.969 8.731.815 8.8.815 8.8H0s10.154-.072 16.9-2.865a19.807 19.807 0 0 0 6.9-4.622C24.582.486 22.764.049 20.456 0c2.669-.047 5.032.39 4.161 1.315z" class="cls-8"/>
                </g>
                <g id="Group_283" transform="translate(47.605 29.318)">
                    <g id="Group_282">
                        <path id="Path_2751" d="M22.534 10.581H0C5.645 7.51 10.885 0 10.885 0h22.951s-5.658 7.51-11.302 10.581z" class="cls-30"/>
                    </g>
                </g>
                <g id="Group_284" transform="translate(29.901 10.883)">
                    <path id="Path_2752" d="M6.369 0h15c4.8 0-3.686 4.116-16 4.116-7.295 0-7.345-4.116 1-4.116z" class="cls-8"/>
                </g>
                <g id="Group_286" transform="translate(1.398 20.78)">
                    <path id="Path_2754" fill="#ff636d" d="M.274 3.734H.241C.1 2.5.023 1.209 0 0h.274a1.768 1.768 0 0 1 1.741 1.794v.147A1.768 1.768 0 0 1 .274 3.734z"/>
                </g>
                <g id="Group_287" transform="translate(.815 6.897)">
                    <path id="Path_2755" d="M77.431 1.039a.847.847 0 0 0-.846.859v2.254c0 6.259-4.076 11.35-9.086 11.35s-9.087-5.092-9.087-11.35V1.894a.849.849 0 0 0-.84-.86c-12.517.061-24.663.3-35.343.954a.841.841 0 0 0-.771.929c.579 6.81-3.7 12.585-9.033 12.585-4.776 0-8.7-4.626-9.06-10.479a.835.835 0 0 0-.932-.8A4.8 4.8 0 0 0 0 5.161C.84 2.584 2.3.628 4.238.089v4.063c0 5.639 3.672 10.226 8.187 10.226s8.186-4.588 8.186-10.226V1.289a1.28 1.28 0 0 1 .9-1.231v.025A.687.687 0 0 1 21.863 0H58a.739.739 0 0 1 .414.1V.078a1.283 1.283 0 0 1 .838 1.211v2.863c0 5.639 3.672 10.226 8.187 10.226s8.186-4.588 8.186-10.226V1.289a1.28 1.28 0 0 1 .961-1.251v.014a.725.725 0 0 1 .29-.052h3.142c.189 0 .4.42.625 1.09-1.212-.001-2.119-.033-3.212-.051z" class="cls-20"/>
                </g>
                <g id="Group_288" transform="translate(27.355 30.948)">
                    <path id="Path_2756" d="M26.442 0c-3.047 4.489-8.218 8.951-11.79 8.951A56.49 56.49 0 0 1 0 6.978C5.1 3.3 15.931.7 26.442 0z" class="cls-19"/>
                </g>
                <g id="Group_289" transform="translate(58.418 33.51)">
                    <path id="Path_2757" d="M0 6.39C4.929 2.553 12.2.43 19.44 0a33.76 33.76 0 0 1-7.718 6.39z" class="cls-30"/>
                </g>
                <g id="Group_290" transform="translate(69.202 29.318)">
                    <path id="Path_2758" d="M.937 10.581H0C5.645 7.51 11.3 0 11.3 0h.937S6.582 7.51.937 10.581z" class="cls-32"/>
                </g>
                <g id="Group_298" transform="translate(22.743 28.129)">
                    <path id="Path_2766" d="M2.362 3.756a2.9 2.9 0 0 0 .491 5.261 57.343 57.343 0 0 0 16.6 2.745c-.062 0-.126.008-.188.008A57.166 57.166 0 0 1 1.95 9.018a2.9 2.9 0 0 1-.491-5.261C5.32 1.56 13.215-.038 31.666 0 13.866.016 6.16 1.6 2.362 3.756z" class="cls-32"/>
                </g>
                <g id="Group_299" transform="translate(27.428 30.573)">
                    <path id="Path_21476" d="M0 .209l7.945.054V.054L0 0z" class="cls-32" transform="rotate(76.11 .127 .163)"/>
                </g>
                <g id="Group_301" transform="translate(52.226 28.129)">
                    <g id="Group_300">
                        <path id="Path_2767" d="M2.724.931a21.717 21.717 0 0 1-1.13 1.855A4.5 4.5 0 0 0 0 0h2.183a.631.631 0 0 1 .541.931z" class="cls-32"/>
                    </g>
                </g>
                <g id="Group_302" transform="translate(49.838 26.791)">
                    <path id="Path_2768" d="M1.8 0a.413.413 0 0 0-.345.187L.073 2.269a.438.438 0 0 0 .108.6.41.41 0 0 0 .58-.112L2.146.673a.438.438 0 0 0-.108-.6A.407.407 0 0 0 1.8 0z" class="cls-32"/>
                </g>
                <g id="Group_303" transform="translate(44.685 28.797)">
                    <path id="Path_2769" fill="#95bcf0" d="M6.537 1.11C6.537.5 6.082 0 4.277 0S0 .5 0 1.11s2.472 1.11 4.277 1.11 2.26-.497 2.26-1.11z"/>
                </g>
                <g id="Group_304" transform="translate(44.685 29.303)">
                    <path id="Path_2770" fill="#cbddf5" d="M6.235 1.281a3.1 3.1 0 0 1-1.958.434C2.472 1.714 0 1.217 0 .6 0 .468.127.337.337.217A18.607 18.607 0 0 1 3.052 0c2.266 0 3.034.552 3.183 1.281z"/>
                </g>
            </g>
            <g id="Group_308" transform="translate(28.09 25.416)">
                <path id="Path_2773" d="M4.646 0A.457.457 0 0 0 4.6 0L.367.526A.427.427 0 0 0 0 1a.419.419 0 0 0 .464.375L4.7.857a.427.427 0 0 0 .36-.479A.422.422 0 0 0 4.646 0z" class="cls-32"/>
            </g>
        </g>
    </g>
</svg>
