<svg xmlns="http://www.w3.org/2000/svg" width="563.779" height="241.516" viewBox="0 0 563.779 241.516">
    <defs>
        <style>
            .cls-1{fill:#ffdb72}.cls-2{fill:#414c5c}.cls-3{fill:#242a33}.cls-5{fill:#ffc727}.cls-6{fill:#232932}.cls-7{fill:#d6e1f1}.cls-8{fill:#99a7be}.cls-9{fill:#505b6e}.cls-10{fill:#fcd461}.cls-12{fill:#fffdff}.cls-15{fill:#7899cb}
        </style>
    </defs>
    <g id="Group_8635">
        <g id="Group_7408" transform="translate(437.624 51.364)">
            <g id="Group_7407">
                <path id="Path_19701" d="M1000.027 528.16h17.516a4.648 4.648 0 0 0 4.476-5.532l-1.457-8.186a5.131 5.131 0 0 0-5-4.294h-15.53a4.62 4.62 0 0 0-4.55 4.687v8.639a4.619 4.619 0 0 0 4.545 4.686z" class="cls-1" transform="translate(-995.477 -510.148)"/>
            </g>
        </g>
        <g id="Group_7525">
            <g id="Group_7411" transform="translate(231)">
                <g id="Group_7409" transform="translate(7.925)">
                    <path id="Path_19702" d="M835.524 475.161l1.177-1.212a12.889 12.889 0 0 1 9.248-3.949h129.917a12.878 12.878 0 0 1 9 3.694l1.5 1.464z" class="cls-2" transform="translate(-835.524 -470.003)"/>
                </g>
                <g id="Group_7410">
                    <path id="Path_19703" d="M829.144 475.161l1.178-1.212a12.886 12.886 0 0 1 9.247-3.949h129.919a12.879 12.879 0 0 1 9 3.694l1.5 1.464z" class="cls-3" transform="translate(-829.144 -470.003)"/>
                </g>
            </g>
            <g id="Group_7412" transform="translate(0 226.026)">
                <ellipse id="Ellipse_1043" cx="281.889" cy="7.745" fill="#53729d" rx="281.889" ry="7.745"/>
            </g>
            <g id="Group_7421" transform="translate(173.643 133.201)">
                <g id="Group_7416" transform="translate(252.186)">
                    <g id="Group_7413" transform="translate(39.78)">
                        <path id="Path_19704" d="M1083.366 624.393c0 27.772-17.809 50.286-39.779 50.286H1018V574.11h25.582c21.974 0 39.784 22.512 39.784 50.283z" transform="translate(-1018.005 -574.11)"/>
                    </g>
                    <g id="Group_7415">
                        <g id="Group_7414">
                            <ellipse id="Ellipse_1044" cx="39.78" cy="50.285" rx="39.78" ry="50.285"/>
                        </g>
                    </g>
                </g>
                <g id="Group_7420">
                    <g id="Group_7417" transform="translate(39.78)">
                        <path id="Path_19705" d="M880.356 624.393c0 27.772-17.811 50.286-39.782 50.286h-25.58V574.11h25.581c21.97 0 39.781 22.512 39.781 50.283z" transform="translate(-814.994 -574.11)"/>
                    </g>
                    <g id="Group_7419">
                        <g id="Group_7418">
                            <ellipse id="Ellipse_1045" cx="39.78" cy="50.285" rx="39.78" ry="50.285"/>
                        </g>
                    </g>
                </g>
            </g>
            <g id="Group_7422" transform="translate(338.053 133.202)">
                <path id="Path_19706" d="M980.683 624.393c0 27.772-17.81 50.286-39.78 50.286h-25.581V574.11H940.9c21.973 0 39.783 22.512 39.783 50.283z" transform="translate(-915.322 -574.11)"/>
            </g>
            <g id="Group_7423" transform="translate(85.868 133.202)">
                <path id="Path_19707" d="M777.673 624.393c0 27.772-17.81 50.286-39.78 50.286h-25.581V574.11h25.581c21.97 0 39.78 22.512 39.78 50.283z" transform="translate(-712.312 -574.11)"/>
            </g>
            <g id="Group_7424" transform="translate(143.193 5.158)">
                <path id="Path_19708" d="M775.167 664.378c-8.056 0-16.708-17.209-16.708-27.657v-28.629l5.668-9.22v-42.89c0-8.3 43.362-81.948 65.54-81.948h176.419c21.185 0 64.049 63.237 64.049 63.237s52.221 3.754 67.736 5.9 32.821 2.367 32.821 22.545v34.991l5.037 9.264a27.427 27.427 0 0 1 3.317 13.094v19.276c0 10.755-7.458 22.032-15.067 22.032z" class="cls-1" transform="translate(-758.459 -474.034)"/>
            </g>
            <g id="Group_7425" transform="translate(373.191 89.784)">
                <path id="Path_19709" d="M1132.523 595.167a27.264 27.264 0 0 0-1.644-3.675l-.984-1.809-4.053-7.455v-35a26.018 26.018 0 0 0-.889-7.055H943.608v105.721h175.522c4.012 0 7.973-3.153 10.83-7.7q.517-.823.983-1.7a27.559 27.559 0 0 0 3.253-12.635v-19.274a27.675 27.675 0 0 0-1.673-9.418z" class="cls-5" transform="translate(-943.608 -540.176)"/>
            </g>
            <g id="Group_7427" transform="translate(145.644 179.391)">
                <g id="Group_7426">
                    <path id="Path_19710" d="M760.432 610.21c3.14 8.293 8.828 16.111 14.257 16.111H1163.5c6.206 0 12.31-7.507 14.35-16.111z" class="cls-2" transform="translate(-760.432 -610.21)"/>
                </g>
            </g>
            <g id="Group_7428" transform="translate(323.012 131.835)">
                <path id="Path_19711" d="M1140.665 582.306l-5.037-9.265H903.214V589.2h240.031a27.233 27.233 0 0 0-2.58-6.894z" class="cls-1" transform="translate(-903.214 -573.042)"/>
            </g>
            <g id="Group_7429" transform="translate(14.257 101.043)">
                <path id="Path_19712" d="M1031.815 548.975H654.666l10.93 94.46h377.15z" transform="translate(-654.666 -548.975)"/>
            </g>
            <g id="Group_7430" transform="translate(8.479 5.158)">
                <path id="Path_19713" d="M1056.353 609.976l-5.036-9.264v-34.991c0-20.178-17.305-20.394-32.819-22.545s-67.735-5.9-67.735-5.9-42.865-63.237-64.049-63.237H721.223c-22.177 0-65.538 63.988-65.538 91.758v33.081l-2.652 4.311a20.483 20.483 0 0 0-3.019 10.719v22.819c0 10.448 8.653 27.657 16.71 27.657h16.047l5.461-44.431c1.856-15.1 14.327-26.421 29.1-26.421h20.175c14.761 0 27.223 11.295 29.1 26.375l5.535 44.477h162.813l5.462-44.431c1.854-15.1 14.326-26.421 29.1-26.421H989.7c14.76 0 27.22 11.295 29.1 26.375l5.533 44.477h20.267c7.608 0 15.068-11.277 15.068-22.032V623.07a27.43 27.43 0 0 0-3.315-13.094z" class="cls-5" transform="translate(-650.014 -474.034)"/>
            </g>
            <g id="Group_7449" transform="translate(46.087 133.201)">
                <g id="Group_7431">
                    <ellipse id="Ellipse_1046" cx="39.78" cy="50.285" class="cls-6" rx="39.78" ry="50.285"/>
                </g>
                <g id="Group_7432" transform="translate(16.286 20.586)">
                    <path id="Path_19714" d="M716.892 649.6c-12.955 0-23.493-13.324-23.493-29.7s10.538-29.7 23.493-29.7 23.492 13.323 23.492 29.7-10.538 29.7-23.492 29.7z" transform="translate(-693.399 -590.199)"/>
                </g>
                <g id="Group_7433" transform="translate(37.09 43.989)">
                    <path id="Path_19715" d="M718.086 621.127c-.317 0-4 .069-4.3 0-2.314-.552-3.635-3.234-3.635-6.318 0-2.888 3.635-6.319 3.635-6.319h4.3c2.755 0 5 2.835 5 6.319s-2.245 6.318-5 6.318z" class="cls-7" transform="translate(-710.146 -608.49)"/>
                </g>
                <g id="Group_7434" transform="translate(35.728 43.989)">
                    <path id="Path_19716" d="M714.048 621.127c-2.755 0-5-2.835-5-6.318s2.244-6.319 5-6.319 5 2.835 5 6.319-2.248 6.318-5 6.318z" class="cls-8" transform="translate(-709.05 -608.49)"/>
                </g>
                <g id="Group_7435" transform="translate(16.286 20.586)">
                    <path id="Path_19717" d="M698.593 619.9c0-15.266 9.16-27.868 20.9-29.508a18.715 18.715 0 0 0-2.6-.193c-12.955 0-23.493 13.323-23.493 29.7s10.538 29.7 23.493 29.7a18.9 18.9 0 0 0 2.6-.192c-11.74-1.643-20.9-14.244-20.9-29.507z" class="cls-8" transform="translate(-693.399 -590.199)"/>
                </g>
                <g id="Group_7436" transform="translate(39.946 19.177)">
                    <path id="Path_19718" d="M715.221 620.205l-2.776-31.105h9.542l-2.775 31.108z" class="cls-8" transform="translate(-712.445 -589.098)"/>
                </g>
                <g id="Group_7437" transform="translate(18.804 37.431)">
                    <path id="Path_19719" d="M720.723 618.173l-25.3-5.46 2.949-9.348 23.582 10.9z" class="cls-7" transform="translate(-695.425 -603.365)"/>
                </g>
                <g id="Group_7438" transform="translate(24.335 49.076)">
                    <path id="Path_19720" d="M721.876 614.882l-14.277 25.1-7.72-5.778 18.768-21.743z" class="cls-8" transform="translate(-699.878 -612.466)"/>
                </g>
                <g id="Group_7439" transform="translate(43.103 49.076)">
                    <path id="Path_19721" d="M718.214 612.466l15.492 17.1-7.721 5.778-11-20.458z" class="cls-8" transform="translate(-714.986 -612.466)"/>
                </g>
                <g id="Group_7440" transform="translate(44.101 39.401)">
                    <path id="Path_19722" d="M715.79 613.833l17.7-8.929 2.948 9.348-19.412 3.49z" class="cls-8" transform="translate(-715.79 -604.904)"/>
                </g>
                <g id="Group_7441" transform="translate(35.955 19.177)">
                    <path id="Path_19723" d="M712.009 620.205l-2.777-31.105h9.543L716 620.205z" class="cls-8" transform="translate(-709.232 -589.098)"/>
                </g>
                <g id="Group_7442" transform="translate(14.812 37.431)">
                    <path id="Path_19724" d="M717.509 618.173l-25.3-5.46 2.948-9.348 23.582 10.9z" class="cls-8" transform="translate(-692.213 -603.365)"/>
                </g>
                <g id="Group_7443" transform="translate(20.344 49.076)">
                    <path id="Path_19725" d="M718.662 614.882l-14.277 25.1-7.72-5.778 18.767-21.743z" class="cls-8" transform="translate(-696.666 -612.466)"/>
                </g>
                <g id="Group_7444" transform="translate(39.112 49.076)">
                    <path id="Path_19726" d="M715 612.466l17.929 20.554-7.72 5.777-13.438-23.914z" class="cls-8" transform="translate(-711.774 -612.466)"/>
                </g>
                <g id="Group_7445" transform="translate(40.11 38.065)">
                    <path id="Path_19727" d="M712.577 614.124l21.69-10.264 2.948 9.347-23.4 4.827z" class="cls-8" transform="translate(-712.577 -603.86)"/>
                </g>
                <g id="Group_7446" transform="translate(13.09 16.547)">
                    <path id="Path_19728" d="M717.516 587.042c-14.741 0-26.69 15.105-26.69 33.738s11.949 33.737 26.69 33.737 26.689-15.1 26.689-33.737-11.949-33.738-26.689-33.738zm0 64.352c-13.357 0-24.218-13.734-24.218-30.613s10.861-30.616 24.218-30.616 24.217 13.733 24.217 30.616-10.863 30.613-24.217 30.613z" class="cls-7" transform="translate(-690.826 -587.042)"/>
                </g>
                <g id="Group_7447" transform="translate(13.889 17.556)">
                    <path id="Path_19729" d="M717.36 587.831c-14.3 0-25.892 14.654-25.892 32.73s11.593 32.727 25.892 32.727 25.892-14.653 25.892-32.727-11.593-32.73-25.892-32.73zm0 62.427c-12.955 0-23.492-13.322-23.492-29.7s10.537-29.7 23.492-29.7 23.493 13.323 23.493 29.7-10.538 29.699-23.493 29.699z" class="cls-8" transform="translate(-691.469 -587.831)"/>
                </g>
                <g id="Group_7448" transform="translate(37.474 46.194)">
                    <path id="Path_19730" d="M713.707 618.437c-1.793 0-3.252-1.845-3.252-4.111s1.46-4.112 3.252-4.112 3.253 1.845 3.253 4.112-1.46 4.111-3.253 4.111z" class="cls-9" transform="translate(-710.455 -610.214)"/>
                </g>
            </g>
            <g id="Group_7453" transform="translate(8.479 129.996)">
                <g id="Group_7450">
                    <path id="Path_19731" d="M653.032 575.914a20.483 20.483 0 0 0-3.019 10.719v22.82c0 10.448 8.653 27.656 16.71 27.656h16.047l5.461-44.431a30.307 30.307 0 0 1 12.269-20.921l-44.812-.154z" class="cls-10" transform="translate(-650.014 -571.604)"/>
                </g>
                <g id="Group_7451" transform="translate(104.69 .399)">
                    <path id="Path_19732" d="M746.194 592.546l5.534 44.476h162.813l5.459-44.43a30.352 30.352 0 0 1 10.692-19.692l-196.4-.987a30.333 30.333 0 0 1 11.902 20.633z" class="cls-10" transform="translate(-734.29 -571.916)"/>
                </g>
                <g id="Group_7452" transform="translate(358.41 1.647)">
                    <path id="Path_19733" d="M986.465 582.349l-5.038-9.265-42.892-.193a30.365 30.365 0 0 1 10.37 19.383l5.534 44.476h20.275c7.608 0 15.068-11.277 15.068-22.031v-19.278a27.43 27.43 0 0 0-3.317-13.092z" class="cls-10" transform="translate(-938.535 -572.891)"/>
                </g>
            </g>
            <g id="Group_7472" transform="translate(298.273 133.201)">
                <g id="Group_7454">
                    <ellipse id="Ellipse_1047" cx="39.78" cy="50.285" class="cls-6" rx="39.78" ry="50.285"/>
                </g>
                <g id="Group_7455" transform="translate(16.287 20.586)">
                    <path id="Path_19734" d="M919.9 649.6c-12.953 0-23.493-13.324-23.493-29.7s10.54-29.7 23.493-29.7 23.5 13.322 23.5 29.7-10.541 29.7-23.5 29.7z" transform="translate(-896.41 -590.199)"/>
                </g>
                <g id="Group_7456" transform="translate(37.089 43.989)">
                    <path id="Path_19735" d="M921.1 621.127c-.316 0-4 .069-4.3 0-2.317-.552-3.638-3.234-3.638-6.318 0-2.888 3.638-6.319 3.638-6.319h4.3c2.756 0 5 2.835 5 6.319s-2.247 6.318-5 6.318z" class="cls-7" transform="translate(-913.156 -608.49)"/>
                </g>
                <g id="Group_7457" transform="translate(35.729 43.989)">
                    <path id="Path_19736" d="M917.058 621.127c-2.756 0-5-2.835-5-6.318s2.241-6.319 5-6.319 5 2.835 5 6.319-2.244 6.318-5 6.318z" class="cls-8" transform="translate(-912.061 -608.49)"/>
                </g>
                <g id="Group_7458" transform="translate(16.287 20.586)">
                    <path id="Path_19737" d="M901.6 619.9c0-15.266 9.162-27.868 20.9-29.508a18.771 18.771 0 0 0-2.6-.193c-12.953 0-23.493 13.323-23.493 29.7s10.54 29.7 23.493 29.7a18.962 18.962 0 0 0 2.6-.192c-11.734-1.643-20.9-14.244-20.9-29.507z" class="cls-8" transform="translate(-896.41 -590.199)"/>
                </g>
                <g id="Group_7459" transform="translate(39.946 19.177)">
                    <path id="Path_19738" d="M918.232 620.205l-2.776-31.105H925l-2.776 31.108z" class="cls-8" transform="translate(-915.456 -589.098)"/>
                </g>
                <g id="Group_7460" transform="translate(18.804 37.431)">
                    <path id="Path_19739" d="M923.732 618.173l-25.3-5.46 2.949-9.348 23.581 10.9z" class="cls-7" transform="translate(-898.436 -603.365)"/>
                </g>
                <g id="Group_7461" transform="translate(24.335 49.076)">
                    <path id="Path_19740" d="M924.886 614.882l-14.276 25.1-7.721-5.778 18.768-21.743z" class="cls-8" transform="translate(-902.889 -612.466)"/>
                </g>
                <g id="Group_7462" transform="translate(43.103 49.076)">
                    <path id="Path_19741" d="M921.227 612.466l15.492 17.1-7.719 5.775-11-20.458z" class="cls-8" transform="translate(-917.997 -612.466)"/>
                </g>
                <g id="Group_7463" transform="translate(44.101 39.401)">
                    <path id="Path_19742" d="M918.8 613.833l17.7-8.929 2.948 9.348-19.413 3.49z" class="cls-7" transform="translate(-918.8 -604.904)"/>
                </g>
                <g id="Group_7464" transform="translate(35.955 19.177)">
                    <path id="Path_19743" d="M915.019 620.205l-2.776-31.105h9.543l-2.776 31.108z" class="cls-8" transform="translate(-912.243 -589.098)"/>
                </g>
                <g id="Group_7465" transform="translate(14.812 37.431)">
                    <path id="Path_19744" d="M920.52 618.173l-25.3-5.46 2.949-9.348 23.582 10.9z" class="cls-8" transform="translate(-895.223 -603.365)"/>
                </g>
                <g id="Group_7466" transform="translate(20.344 49.076)">
                    <path id="Path_19745" d="M921.673 614.882l-14.277 25.1-7.72-5.778 18.767-21.743z" class="cls-8" transform="translate(-899.676 -612.466)"/>
                </g>
                <g id="Group_7467" transform="translate(39.112 49.076)">
                    <path id="Path_19746" d="M918.014 612.466l17.929 20.554-7.72 5.777-13.439-23.914z" class="cls-8" transform="translate(-914.784 -612.466)"/>
                </g>
                <g id="Group_7468" transform="translate(40.11 38.065)">
                    <path id="Path_19747" d="M915.587 614.124l21.69-10.264 2.948 9.347-23.4 4.827z" class="cls-8" transform="translate(-915.587 -603.86)"/>
                </g>
                <g id="Group_7469" transform="translate(13.091 16.547)">
                    <path id="Path_19748" d="M920.526 587.042c-14.741 0-26.689 15.105-26.689 33.738s11.948 33.737 26.689 33.737 26.691-15.1 26.691-33.737-11.951-33.738-26.691-33.738zm0 64.352c-13.354 0-24.218-13.734-24.218-30.613s10.863-30.616 24.218-30.616 24.219 13.733 24.219 30.616-10.865 30.613-24.219 30.613z" class="cls-7" transform="translate(-893.837 -587.042)"/>
                </g>
                <g id="Group_7470" transform="translate(13.889 17.556)">
                    <path id="Path_19749" d="M920.37 587.831c-14.3 0-25.89 14.654-25.89 32.73s11.591 32.727 25.89 32.727 25.893-14.653 25.893-32.727-11.593-32.73-25.893-32.73zm0 62.427c-12.953 0-23.493-13.322-23.493-29.7s10.54-29.7 23.493-29.7 23.494 13.323 23.494 29.7-10.539 29.699-23.494 29.699z" class="cls-8" transform="translate(-894.48 -587.831)"/>
                </g>
                <g id="Group_7471" transform="translate(37.474 46.194)">
                    <path id="Path_19750" d="M916.718 618.437c-1.793 0-3.252-1.845-3.252-4.111s1.458-4.112 3.252-4.112 3.252 1.845 3.252 4.112-1.459 4.111-3.252 4.111z" class="cls-9" transform="translate(-913.466 -610.214)"/>
                </g>
            </g>
            <g id="Group_7476" transform="translate(10.93 179.391)">
                <g id="Group_7473" transform="translate(106.741)">
                    <path id="Path_19751" d="M739.919 626.321h173.745l1.98-16.111h-177.73z" class="cls-3" transform="translate(-737.914 -610.21)"/>
                </g>
                <g id="Group_7474">
                    <path id="Path_19752" d="M666.245 626.321h16.047l1.98-16.111h-32.285c3.141 8.29 8.829 16.111 14.258 16.111z" class="cls-3" transform="translate(-651.987 -610.21)"/>
                </g>
                <g id="Group_7475" transform="translate(369.857)">
                    <path id="Path_19753" d="M949.723 610.21l2.006 16.111H972c6.207 0 12.312-7.507 14.352-16.111z" class="cls-3" transform="translate(-949.723 -610.21)"/>
                </g>
            </g>
            <g id="Group_7478" transform="translate(30.542 86.623)">
                <g id="Group_7477">
                    <path id="Path_19754" d="M961.6 555.126h-.089l-287.267-3.911a6.759 6.759 0 0 1 .176-13.51l287.267 3.911a6.76 6.76 0 0 1-.087 13.51z" class="cls-5" transform="translate(-667.774 -537.705)"/>
                </g>
            </g>
            <g id="Group_7479" transform="translate(431.851 102.07)">
                <path id="Rectangle_1027" fill="#ffedb9" d="M0 0H110.397V29.765H0z"/>
            </g>
            <g id="Group_7480" transform="translate(406.957 102.071)">
                <path id="Path_19755" d="M973.614 579.543h39.91c1.988 0 3.47-2.514 3.053-5.182l-4.543-17.827c-.615-3.94-3.155-6.755-6.09-6.755h-32.33c-6.354 0 0 29.764 0 29.764z" class="cls-12" transform="translate(-970.79 -549.779)"/>
            </g>
            <g id="Group_7481" transform="translate(397.383 102.071)">
                <path id="Path_19756" fill="#ffd17a" d="M975.48 549.779h-7.169c-4.188 0-5.229 13.879-5.229 29.764h12.4z" transform="translate(-963.083 -549.779)"/>
            </g>
            <g id="Group_7482" transform="translate(525.29 102.07)">
                <path id="Path_19757" d="M1096.183 549.778h-21.85c-2.273 0-4.237 2.816-4.713 6.757l-3.517 17.826c-.323 2.667.824 5.182 2.363 5.182h27.718z" class="cls-12" transform="translate(-1066.048 -549.778)"/>
            </g>
            <g id="Group_7486" transform="translate(457.181 105.827)">
                <g id="Group_7483" transform="translate(0 16.178)">
                    <rect id="Rectangle_1028" width="6.073" height="65.718" class="cls-5" rx="1.281" transform="rotate(-90 3.037 3.037)"/>
                </g>
                <g id="Group_7484" transform="translate(0 8.089)">
                    <rect id="Rectangle_1029" width="6.073" height="65.718" class="cls-5" rx="1.281" transform="rotate(-90 3.037 3.037)"/>
                </g>
                <g id="Group_7485">
                    <rect id="Rectangle_1030" width="6.073" height="65.718" class="cls-5" rx="1.281" transform="rotate(-90 3.037 3.037)"/>
                </g>
            </g>
            <g id="Group_7487" transform="translate(14.149 102.168)">
                <path id="Path_19758" fill="#ff636d" d="M664.147 577.726s1.47-27.871-9.57-27.871v27.828z" transform="translate(-654.578 -549.855)"/>
            </g>
            <g id="Group_7490" transform="translate(85.357)">
                <g id="Group_7488" transform="translate(7.924)">
                    <path id="Path_19759" d="M718.28 475.161l1.177-1.212a12.886 12.886 0 0 1 9.249-3.949h129.916a12.879 12.879 0 0 1 9 3.694l1.5 1.464z" class="cls-2" transform="translate(-718.28 -470.003)"/>
                </g>
                <g id="Group_7489">
                    <path id="Path_19760" d="M711.9 475.161l1.178-1.212a12.884 12.884 0 0 1 9.248-3.949h129.917a12.875 12.875 0 0 1 9 3.694l1.5 1.464z" class="cls-3" transform="translate(-711.901 -470.003)"/>
                </g>
            </g>
            <g id="Group_7491" transform="translate(263.539 9.665)">
                <path id="Path_19761" d="M907.583 536.286H1042.3s-30.032-44.294-52.244-58.729H855.338c22.211 14.435 52.245 58.729 52.245 58.729z" class="cls-15" transform="translate(-855.338 -477.557)"/>
            </g>
            <g id="Group_7494" transform="translate(429.965 155.911)">
                <g id="Group_7492">
                    <ellipse id="Ellipse_1048" cx="6.532" cy="7.888" class="cls-12" rx="6.532" ry="7.888"/>
                </g>
            </g>
            <g id="Group_7497" transform="translate(547.114 155.911)">
                <g id="Group_7495">
                    <path id="Path_19763" d="M1096.679 599.746c0 4.358-2.924 7.889-6.531 7.889s-6.532-3.531-6.532-7.889 2.925-7.888 6.532-7.888 6.531 3.532 6.531 7.888z" class="cls-12" transform="translate(-1083.616 -591.859)"/>
                </g>
            </g>
            <g id="Group_7499" transform="translate(51.292 11.913)">
                <g id="Group_7498">
                    <path id="Path_19765" d="M878.365 479.314H723.589c-6.228 0-20.074 10.219-35.763 32.657-.064.093-.129.186-.2.28-7.978 11.451.132 27.412 13.817 27.412h227.466a4.325 4.325 0 0 0 3.39-6.845c-26.039-36.841-46.975-53.504-53.934-53.504z" class="cls-15" transform="translate(-684.478 -479.314)"/>
                </g>
            </g>
            <g id="Group_7501" transform="translate(51.292 11.913)">
                <path id="Path_19767" d="M691.128 512.251l.195-.28c15.689-22.438 29.537-32.657 35.764-32.657h-3.5c-6.228 0-20.074 10.219-35.763 32.657l-.2.28c-7.978 11.451.132 27.412 13.817 27.412h3.5c-13.683 0-21.792-15.963-13.813-27.412z" class="cls-3" transform="translate(-684.478 -479.314)"/>
            </g>
            <g id="Group_7505" transform="translate(178.265 88.015)">
                <path id="Path_19771" d="M787.743 553.41a.55.55 0 0 1-.545-.539c-.336-8.411-.506-12.958-.506-13.516a.548.548 0 1 1 1.095 0c0 .541.169 5.073.5 13.47a.556.556 0 0 1-.524.585z" class="cls-1" transform="translate(-786.692 -538.793)"/>
            </g>
            <g id="Group_7506" transform="translate(97.882 86.894)">
                <path id="Path_19772" d="M722.854 552.56a.555.555 0 0 1-.547-.548c-.2-7.9-.324-12.672-.324-13.532a.547.547 0 1 1 1.094 0c0 .845.122 5.609.321 13.5a.555.555 0 0 1-.531.579z" class="cls-1" transform="translate(-721.984 -537.917)"/>
            </g>
            <g id="Group_7507" transform="translate(285.001 89.441)">
                <path id="Path_19773" d="M873.33 554.55a.554.554 0 0 1-.546-.556c-.115-8.687-.169-12.983-.169-13.523a.547.547 0 1 1 1.093 0c0 .535.053 4.827.169 13.509a.556.556 0 0 1-.539.57z" class="cls-1" transform="translate(-872.615 -539.908)"/>
            </g>
            <g id="Group_7510" transform="translate(34.648 117.894)">
                <g id="Group_7508">
                    <path id="Path_19774" d="M732.406 562.146h-20.174c-18.035 0-33.345 13.9-35.611 32.329l-5.541 45.089a6.07 6.07 0 0 0 1.47.19h5.117l5.461-44.43c1.856-15.1 14.326-26.421 29.1-26.421h20.175c14.76 0 27.222 11.294 29.1 26.375l5.535 44.476h6.61l-5.639-45.335c-2.287-18.399-17.594-32.273-35.603-32.273z" class="cls-3" transform="translate(-671.08 -562.146)"/>
                </g>
                <g id="Group_7509" transform="translate(252.157)">
                    <path id="Path_19775" d="M935.416 562.146h-20.175c-18.035 0-33.344 13.9-35.611 32.329l-5.563 45.278h6.616l5.461-44.43c1.856-15.1 14.327-26.421 29.1-26.421h20.176c14.759 0 27.221 11.294 29.1 26.375l5.535 44.476h6.606l-5.639-45.335c-2.29-18.398-17.597-32.272-35.606-32.272z" class="cls-3" transform="translate(-874.067 -562.146)"/>
                </g>
            </g>
            <g id="Group_7512" transform="translate(50.729 11.349)">
                <g id="Group_7511">
                    <path id="Path_19776" d="M929.019 540.349H701.555a17.384 17.384 0 0 1-15.565-9.81 17.928 17.928 0 0 1 1.306-18.493l.195-.28c15.8-22.6 29.847-32.893 36.207-32.893h154.777c7.947 0 29.706 18.835 54.374 53.738a4.963 4.963 0 0 1 .389 5.069 4.7 4.7 0 0 1-4.219 2.669zM723.7 480c-6.09 0-19.743 10.148-35.319 32.425l-.193.276a16.787 16.787 0 0 0-1.221 17.325 16.294 16.294 0 0 0 14.591 9.2h227.461a3.567 3.567 0 0 0 3.242-2.053 3.769 3.769 0 0 0-.3-3.9C905.994 496.528 885.051 480 878.475 480z" class="cls-3" transform="translate(-684.025 -478.873)"/>
                </g>
            </g>
            <g id="Group_7513" transform="translate(98.852 11.913)">
                <path id="Path_19777" d="M732.458 539.663h-9.694l7.611-60.35h9.694z" class="cls-3" transform="translate(-722.764 -479.314)"/>
            </g>
            <g id="Group_7514" transform="translate(178.176 11.913)">
                <path id="Path_19778" d="M796.315 539.663h-9.695l3.238-60.35h9.694z" class="cls-3" transform="translate(-786.62 -479.314)"/>
            </g>
            <g id="Group_7516" transform="translate(279.695 45.032)">
                <g id="Group_7515">
                    <path id="Path_19779" d="M887.76 525.585c-5.428-7.678-10.615-14.429-15.516-20.386l-3.9 27.23h16.026a4.324 4.324 0 0 0 3.39-6.844z" class="cls-3" transform="translate(-868.344 -505.199)"/>
                </g>
            </g>
            <g id="Group_7518" transform="translate(103.999 89.09)">
                <g id="Group_7517">
                    <path id="Path_19780" d="M748.344 544.763c0 4.1-2.145 5.133-10.718 5.13s-10.719-1.031-10.718-5.13 2.144-5.125 10.718-5.13 10.716 1.031 10.718 5.13z" class="cls-1" transform="translate(-726.908 -539.633)"/>
                </g>
            </g>
            <g id="Group_7519" transform="translate(104.02 94.064)">
                <path id="Path_19781" d="M737.621 543.521a54.076 54.076 0 0 0-10.7.752c.217 3.6 2.566 4.529 10.7 4.532s10.484-.934 10.7-4.54a53.888 53.888 0 0 0-10.7-.744z" class="cls-1" transform="translate(-726.925 -543.521)"/>
            </g>
            <g id="Group_7521" transform="translate(184.128 90.204)">
                <g id="Group_7520">
                    <path id="Path_19782" d="M812.847 545.633c0 4.1-2.144 5.132-10.718 5.129s-10.719-1.031-10.718-5.129 2.144-5.126 10.718-5.129 10.716 1.03 10.718 5.129z" class="cls-1" transform="translate(-791.412 -540.504)"/>
                </g>
            </g>
            <g id="Group_7522" transform="translate(184.149 95.179)">
                <path id="Path_19783" d="M802.125 544.392a54.146 54.146 0 0 0-10.7.752c.216 3.6 2.566 4.529 10.7 4.532s10.483-.934 10.7-4.539a53.881 53.881 0 0 0-10.7-.745z" class="cls-1" transform="translate(-791.429 -544.392)"/>
            </g>
            <g id="Group_7524" transform="translate(262.992 9.102)">
                <path id="Path_19785" d="M1042.4 536.972H907.687a.54.54 0 0 1-.447-.24c-.3-.443-30.224-44.365-52.088-58.576a.568.568 0 0 1-.234-.632.549.549 0 0 1 .525-.407h134.713a.535.535 0 0 1 .293.088c22.051 14.329 52.1 58.438 52.4 58.882a.574.574 0 0 1 .036.583.54.54 0 0 1-.485.302zm-134.43-1.126h133.372c-4.364-6.307-31.224-44.436-51.346-57.6H857.274c21.021 14.699 48.321 54.134 50.698 57.6z" class="cls-3" transform="translate(-854.897 -477.117)"/>
            </g>
        </g>
        <g id="Group_7530" transform="translate(251.278 51.364)">
            <g id="Group_7526" transform="translate(24.932 4.339)">
                <path id="Rectangle_1031" d="M0 0h7.952a1.47 1.47 0 0 1 1.47 1.47v1.938a1.471 1.471 0 0 1-1.47 1.47H0V0z" class="cls-3"/>
            </g>
            <g id="Group_7527" transform="translate(24.932 11.703)">
                <path id="Rectangle_1032" d="M0 0h7.952a1.471 1.471 0 0 1 1.471 1.471v1.937a1.471 1.471 0 0 1-1.471 1.47H0V0z" class="cls-3"/>
            </g>
            <g id="Group_7528">
                <path id="Path_19786" d="M867.535 528.16H850.02a4.648 4.648 0 0 1-4.476-5.532l1.456-8.186a5.131 5.131 0 0 1 5-4.294h15.53a4.621 4.621 0 0 1 4.551 4.687v8.639a4.62 4.62 0 0 1-4.546 4.686z" class="cls-5" transform="translate(-845.467 -510.148)"/>
            </g>
            <g id="Group_7529" transform="translate(.013)">
                <path id="Path_19787" d="M867.533 510.148H852a5.129 5.129 0 0 0-5 4.294l-1.458 8.186a4.773 4.773 0 0 0 0 1.562h19.022a5.226 5.226 0 0 0 5.148-5.3v-8.144a4.4 4.4 0 0 0-2.179-.598z" class="cls-1" transform="translate(-845.478 -510.148)"/>
            </g>
        </g>
    </g>
</svg>
