
<svg xmlns="http://www.w3.org/2000/svg" width="227" height="244.589" viewBox="0 0 227 244.589"><defs><style>.a{fill:#21283a;}.b{fill:#ffdb72;}.c{fill:#414c5c;}.d{fill:#242a33;}.e{fill:#53729d;}.f{fill:#ffc727;}.g{fill:#232932;}.h{fill:#d6e1f1;}.i{fill:#99a7be;}.j{fill:#505b6e;}.k{fill:#fcd461;}.l{fill:#ffedb9;}.m{fill:#fffdff;}.n{fill:#ffd17a;}.o{fill:#ff636d;}.p{fill:#7899cb;}</style></defs><g transform="translate(-74 -6000)"><rect class="a" width="227" height="219" rx="60" transform="translate(74 6000)"/><g transform="translate(77.694 6151.886)"><g transform="translate(167.977 19.716)"><path class="b" d="M997.223,517.062h6.723a1.784,1.784,0,0,0,1.718-2.124l-.559-3.142a1.969,1.969,0,0,0-1.921-1.648h-5.961a1.773,1.773,0,0,0-1.746,1.8v3.316A1.773,1.773,0,0,0,997.223,517.062Z" transform="translate(-995.477 -510.148)"/></g><g transform="translate(88.667)"><g transform="translate(3.042)"><path class="c" d="M835.524,471.983l.452-.465a4.947,4.947,0,0,1,3.55-1.515h49.867a4.943,4.943,0,0,1,3.454,1.418l.576.562Z" transform="translate(-835.524 -470.003)"/></g><path class="d" d="M829.144,471.983l.452-.465A4.946,4.946,0,0,1,833.145,470h49.868a4.943,4.943,0,0,1,3.453,1.418l.575.562Z" transform="translate(-829.144 -470.003)"/></g><g transform="translate(0 86.758)"><ellipse class="e" cx="108.2" cy="2.973" rx="108.2" ry="2.973"/></g><g transform="translate(66.651 51.128)"><g transform="translate(96.799)"><g transform="translate(15.269 0)"><path d="M1043.093,593.411c0,10.66-6.836,19.3-15.269,19.3H1018v-38.6h9.819C1036.257,574.11,1043.093,582.751,1043.093,593.411Z" transform="translate(-1018.005 -574.11)"/></g><ellipse cx="15.269" cy="19.301" rx="15.269" ry="19.301"/></g><g transform="translate(15.269 0)"><path d="M840.083,593.411c0,10.66-6.837,19.3-15.27,19.3h-9.819v-38.6h9.819C833.246,574.11,840.083,582.751,840.083,593.411Z" transform="translate(-814.994 -574.11)"/></g><ellipse cx="15.269" cy="19.301" rx="15.269" ry="19.301"/></g><g transform="translate(129.758 51.128)"><path d="M940.41,593.411c0,10.66-6.836,19.3-15.269,19.3h-9.819v-38.6h9.819C933.574,574.11,940.41,582.751,940.41,593.411Z" transform="translate(-915.322 -574.11)"/></g><g transform="translate(32.959 51.128)"><path d="M737.4,593.411c0,10.66-6.836,19.3-15.269,19.3h-9.819v-38.6h9.819C730.564,574.11,737.4,582.751,737.4,593.411Z" transform="translate(-712.312 -574.11)"/></g><g transform="translate(54.963 1.98)"><path class="b" d="M764.872,547.1c-3.092,0-6.413-6.606-6.413-10.616V525.491l2.176-3.539V505.489c0-3.185,16.644-31.455,25.157-31.455h67.716c8.131,0,24.584,24.273,24.584,24.273s20.045,1.441,26,2.266,12.6.909,12.6,8.654v13.431l1.933,3.556a10.527,10.527,0,0,1,1.273,5.026v7.4c0,4.128-2.863,8.457-5.783,8.457Z" transform="translate(-758.459 -474.034)"/></g><g transform="translate(143.245 34.463)"><path class="f" d="M1016.121,561.284a10.472,10.472,0,0,0-.631-1.411l-.378-.694-1.556-2.862V542.884a9.985,9.985,0,0,0-.341-2.708H943.608v40.578h67.372c1.54,0,3.06-1.21,4.157-2.954q.2-.316.377-.653a10.578,10.578,0,0,0,1.249-4.85v-7.4a10.623,10.623,0,0,0-.642-3.615Z" transform="translate(-943.608 -540.176)"/></g><g transform="translate(55.904 68.857)"><path class="c" d="M760.432,610.21c1.205,3.183,3.389,6.184,5.472,6.184H915.145c2.382,0,4.725-2.882,5.508-6.184Z" transform="translate(-760.432 -610.21)"/></g><g transform="translate(123.985 50.604)"><path class="b" d="M994.357,576.6l-1.933-3.556H903.214v6.2h92.133A10.452,10.452,0,0,0,994.357,576.6Z" transform="translate(-903.214 -573.042)"/></g><g transform="translate(5.473 38.784)"><path d="M799.43,548.975H654.666l4.2,36.257H803.626Z" transform="translate(-654.666 -548.975)"/></g><g transform="translate(3.255 1.98)"><path class="f" d="M805.982,526.214l-1.933-3.556V509.227c0-7.745-6.642-7.828-12.6-8.654s-26-2.266-26-2.266S749,474.034,740.868,474.034H677.347c-8.513,0-25.156,24.561-25.156,35.22v12.7l-1.018,1.654a7.863,7.863,0,0,0-1.159,4.115v8.759c0,4.01,3.321,10.616,6.414,10.616h6.159l2.1-17.054A11.38,11.38,0,0,1,675.854,519.9H683.6a11.379,11.379,0,0,1,11.169,10.124l2.125,17.072h62.494l2.1-17.054A11.38,11.38,0,0,1,772.653,519.9H780.4a11.379,11.379,0,0,1,11.169,10.124L793.69,547.1h7.783c2.92,0,5.784-4.329,5.784-8.457v-7.4A10.527,10.527,0,0,0,805.982,526.214Z" transform="translate(-650.014 -474.034)"/></g><g transform="translate(17.69 51.128)"><ellipse class="g" cx="15.269" cy="19.301" rx="15.269" ry="19.301"/><g transform="translate(6.251 7.902)"><path d="M702.417,613c-4.973,0-9.018-5.114-9.018-11.4s4.045-11.4,9.018-11.4,9.017,5.114,9.017,11.4S707.389,613,702.417,613Z" transform="translate(-693.399 -590.199)"/></g><g transform="translate(14.237 16.885)"><path class="h" d="M713.194,613.34c-.122,0-1.537.027-1.652,0a2.3,2.3,0,0,1-1.4-2.425c0-1.109,1.4-2.426,1.4-2.426h1.652a2.492,2.492,0,0,1,0,4.851Z" transform="translate(-710.146 -608.49)"/></g><g transform="translate(13.714 16.885)"><path class="i" d="M710.968,613.34a2.492,2.492,0,1,1,1.919-2.425A2.22,2.22,0,0,1,710.968,613.34Z" transform="translate(-709.05 -608.49)"/></g><g transform="translate(6.251 7.902)"><path class="i" d="M695.393,601.6c0-5.86,3.516-10.7,8.021-11.326a7.181,7.181,0,0,0-1-.074c-4.973,0-9.018,5.114-9.018,11.4s4.045,11.4,9.018,11.4a7.247,7.247,0,0,0,1-.074C698.909,612.295,695.393,607.458,695.393,601.6Z" transform="translate(-693.399 -590.199)"/></g><g transform="translate(15.333 7.361)"><path class="i" d="M713.511,601.038l-1.065-11.94h3.663l-1.065,11.94Z" transform="translate(-712.446 -589.098)"/></g><g transform="translate(7.218 14.368)"><path class="h" d="M705.136,609.049l-9.71-2.1,1.132-3.588,9.052,4.183Z" transform="translate(-695.425 -603.365)"/></g><g transform="translate(9.341 18.837)"><path class="i" d="M708.322,613.393l-5.48,9.636-2.963-2.218,7.2-8.346Z" transform="translate(-699.878 -612.466)"/></g><g transform="translate(16.545 18.837)"><path class="i" d="M716.226,612.466l5.947,6.563-2.964,2.218-4.222-7.853Z" transform="translate(-714.987 -612.466)"/></g><g transform="translate(16.928 15.123)"><path class="i" d="M715.79,608.331l6.793-3.427,1.131,3.588-7.451,1.34Z" transform="translate(-715.79 -604.904)"/></g><g transform="translate(13.801 7.361)"><path class="i" d="M710.3,601.038l-1.066-11.94H712.9l-1.065,11.94Z" transform="translate(-709.232 -589.098)"/></g><g transform="translate(5.686 14.368)"><path class="i" d="M701.922,609.049l-9.71-2.1,1.132-3.588,9.052,4.183Z" transform="translate(-692.213 -603.365)"/></g><g transform="translate(7.809 18.837)"><path class="i" d="M705.109,613.393l-5.48,9.636-2.963-2.218,7.2-8.346Z" transform="translate(-696.666 -612.466)"/></g><g transform="translate(15.013 18.837)"><path class="i" d="M713.013,612.466l6.882,7.889-2.963,2.217-5.158-9.179Z" transform="translate(-711.774 -612.466)"/></g><g transform="translate(15.396 14.611)"><path class="i" d="M712.577,607.8l8.326-3.94,1.131,3.588L713.05,609.3Z" transform="translate(-712.577 -603.86)"/></g><g transform="translate(5.024 6.351)"><path class="h" d="M701.071,587.042c-5.658,0-10.245,5.8-10.245,12.95s4.587,12.949,10.245,12.949,10.244-5.8,10.244-12.949S706.729,587.042,701.071,587.042Zm0,24.7c-5.127,0-9.3-5.271-9.3-11.75s4.169-11.752,9.3-11.752,9.3,5.271,9.3,11.752S706.2,611.743,701.071,611.743Z" transform="translate(-690.826 -587.042)"/></g><g transform="translate(5.331 6.739)"><path class="i" d="M701.407,587.831c-5.488,0-9.938,5.625-9.938,12.563s4.45,12.562,9.938,12.562,9.938-5.624,9.938-12.562S706.9,587.831,701.407,587.831Zm0,23.962c-4.973,0-9.017-5.114-9.017-11.4s4.045-11.4,9.017-11.4,9.018,5.114,9.018,11.4S706.38,611.793,701.407,611.793Z" transform="translate(-691.469 -587.831)"/></g><g transform="translate(14.384 17.731)"><path class="j" d="M711.7,613.37a1.622,1.622,0,1,1,1.249-1.578A1.444,1.444,0,0,1,711.7,613.37Z" transform="translate(-710.455 -610.214)"/></g></g><g transform="translate(3.255 49.897)"><path class="k" d="M651.172,573.258a7.863,7.863,0,0,0-1.159,4.115v8.759c0,4.011,3.321,10.616,6.414,10.616h6.159l2.1-17.054a11.633,11.633,0,0,1,4.708-8.031l-17.2-.059Z" transform="translate(-650.014 -571.604)"/><g transform="translate(40.184 0.153)"><path class="k" d="M738.859,579.835l2.124,17.072h62.494l2.1-17.054a11.65,11.65,0,0,1,4.1-7.557l-75.387-.379A11.643,11.643,0,0,1,738.859,579.835Z" transform="translate(-734.29 -571.916)"/></g><g transform="translate(137.572 0.632)"><path class="k" d="M956.932,576.521,955,572.965l-16.464-.074a11.655,11.655,0,0,1,3.98,7.44l2.124,17.072h7.782c2.92,0,5.784-4.329,5.784-8.457v-7.4A10.528,10.528,0,0,0,956.932,576.521Z" transform="translate(-938.535 -572.891)"/></g></g><g transform="translate(114.489 51.128)"><ellipse class="g" cx="15.269" cy="19.301" rx="15.269" ry="19.301"/><g transform="translate(6.251 7.902)"><path d="M905.427,613c-4.972,0-9.017-5.114-9.017-11.4s4.046-11.4,9.017-11.4,9.018,5.114,9.018,11.4S910.4,613,905.427,613Z" transform="translate(-896.41 -590.199)"/></g><g transform="translate(14.236 16.885)"><path class="h" d="M916.2,613.34c-.121,0-1.536.027-1.652,0a2.3,2.3,0,0,1-1.4-2.425c0-1.109,1.4-2.426,1.4-2.426H916.2a2.492,2.492,0,0,1,0,4.851Z" transform="translate(-913.156 -608.49)"/></g><g transform="translate(13.714 16.885)"><path class="i" d="M913.979,613.34a2.492,2.492,0,1,1,1.918-2.425A2.219,2.219,0,0,1,913.979,613.34Z" transform="translate(-912.061 -608.49)"/></g><g transform="translate(6.251 7.902)"><path class="i" d="M898.4,601.6c0-5.86,3.517-10.7,8.021-11.326a7.206,7.206,0,0,0-1-.074c-4.972,0-9.017,5.114-9.017,11.4s4.046,11.4,9.017,11.4a7.272,7.272,0,0,0,1-.074C901.92,612.295,898.4,607.458,898.4,601.6Z" transform="translate(-896.41 -590.199)"/></g><g transform="translate(15.333 7.361)"><path class="i" d="M916.522,601.038l-1.066-11.94h3.663l-1.066,11.94Z" transform="translate(-915.456 -589.098)"/></g><g transform="translate(7.218 14.368)"><path class="h" d="M908.146,609.049l-9.71-2.1,1.132-3.588,9.051,4.183Z" transform="translate(-898.436 -603.365)"/></g><g transform="translate(9.341 18.837)"><path class="i" d="M911.332,613.393l-5.48,9.636-2.964-2.218,7.2-8.346Z" transform="translate(-902.889 -612.466)"/></g><g transform="translate(16.545 18.837)"><path class="i" d="M919.237,612.466l5.946,6.563-2.963,2.218L918,613.393Z" transform="translate(-917.997 -612.466)"/></g><g transform="translate(16.928 15.123)"><path class="h" d="M918.8,608.331l6.793-3.427,1.131,3.588-7.452,1.34Z" transform="translate(-918.801 -604.904)"/></g><g transform="translate(13.801 7.361)"><path class="i" d="M913.309,601.038l-1.066-11.94h3.663l-1.065,11.94Z" transform="translate(-912.243 -589.098)"/></g><g transform="translate(5.686 14.368)"><path class="i" d="M904.933,609.049l-9.71-2.1,1.132-3.588,9.052,4.183Z" transform="translate(-895.223 -603.365)"/></g><g transform="translate(7.809 18.837)"><path class="i" d="M908.119,613.393l-5.48,9.636-2.963-2.218,7.2-8.346Z" transform="translate(-899.676 -612.466)"/></g><g transform="translate(15.013 18.837)"><path class="i" d="M916.024,612.466l6.882,7.889-2.963,2.217-5.158-9.179Z" transform="translate(-914.784 -612.466)"/></g><g transform="translate(15.396 14.611)"><path class="i" d="M915.587,607.8l8.326-3.94,1.132,3.588-8.984,1.853Z" transform="translate(-915.587 -603.86)"/></g><g transform="translate(5.025 6.351)"><path class="h" d="M904.081,587.042c-5.658,0-10.244,5.8-10.244,12.95s4.586,12.949,10.244,12.949,10.245-5.8,10.245-12.949S909.739,587.042,904.081,587.042Zm0,24.7c-5.126,0-9.3-5.271-9.3-11.75s4.17-11.752,9.3-11.752,9.3,5.271,9.3,11.752S909.207,611.743,904.081,611.743Z" transform="translate(-893.837 -587.042)"/></g><g transform="translate(5.331 6.739)"><path class="i" d="M904.417,587.831c-5.489,0-9.937,5.625-9.937,12.563s4.449,12.562,9.938,12.562,9.939-5.624,9.939-12.562S909.906,587.831,904.417,587.831Zm0,23.962c-4.972,0-9.017-5.114-9.017-11.4s4.046-11.4,9.017-11.4,9.018,5.114,9.018,11.4S909.39,611.793,904.417,611.793Z" transform="translate(-894.48 -587.831)"/></g><g transform="translate(14.384 17.731)"><path class="j" d="M914.714,613.37a1.622,1.622,0,1,1,1.248-1.578A1.444,1.444,0,0,1,914.714,613.37Z" transform="translate(-913.466 -610.214)"/></g></g><g transform="translate(4.195 68.857)"><g transform="translate(40.971)"><path class="d" d="M738.684,616.394h66.69l.76-6.184H737.914Z" transform="translate(-737.914 -610.21)"/></g><path class="d" d="M657.46,616.394h6.16l.76-6.184H651.987C653.192,613.393,655.376,616.394,657.46,616.394Z" transform="translate(-651.987 -610.21)"/><g transform="translate(141.966)"><path class="d" d="M949.723,610.21l.77,6.184h7.782c2.383,0,4.726-2.882,5.509-6.184Z" transform="translate(-949.723 -610.21)"/></g></g><g transform="translate(11.723 33.249)"><path class="f" d="M780.557,544.392h-.034l-110.264-1.5a2.594,2.594,0,0,1,.068-5.186l110.264,1.5a2.595,2.595,0,0,1-.033,5.186Z" transform="translate(-667.774 -537.705)"/></g><g transform="translate(165.761 39.179)"><rect class="l" width="42.375" height="11.425"/></g><g transform="translate(156.206 39.179)"><path class="m" d="M971.874,561.2h15.319c.763,0,1.332-.965,1.172-1.989l-1.744-6.843c-.236-1.512-1.211-2.593-2.338-2.593H971.874C969.435,549.779,971.874,561.2,971.874,561.2Z" transform="translate(-970.79 -549.779)"/></g><g transform="translate(152.531 39.179)"><path class="n" d="M967.842,549.779H965.09c-1.608,0-2.007,5.327-2.007,11.425h4.759Z" transform="translate(-963.083 -549.779)"/></g><g transform="translate(201.627 39.178)"><path class="m" d="M1077.615,549.778h-8.387c-.872,0-1.626,1.081-1.809,2.594l-1.35,6.842c-.124,1.024.316,1.989.907,1.989h10.639Z" transform="translate(-1066.048 -549.778)"/></g><g transform="translate(175.484 40.621)"><g transform="translate(0 6.21)"><rect class="f" width="2.331" height="25.225" rx="1.166" transform="translate(0 2.331) rotate(-90)"/></g><g transform="translate(0 3.105)"><rect class="f" width="2.331" height="25.225" rx="1.166" transform="translate(0 2.331) rotate(-90)"/></g><g transform="translate(0 0)"><rect class="f" width="2.331" height="25.225" rx="1.166" transform="translate(0 2.331) rotate(-90)"/></g></g><g transform="translate(5.431 39.216)"><path class="o" d="M658.251,560.553s.564-10.7-3.673-10.7v10.681Z" transform="translate(-654.578 -549.855)"/></g><g transform="translate(32.763)"><g transform="translate(3.042)"><path class="c" d="M718.28,471.983l.452-.465a4.946,4.946,0,0,1,3.55-1.515h49.867a4.944,4.944,0,0,1,3.454,1.418l.575.562Z" transform="translate(-718.28 -470.003)"/></g><path class="d" d="M711.9,471.983l.452-.465A4.945,4.945,0,0,1,715.9,470H765.77a4.942,4.942,0,0,1,3.454,1.418l.575.562Z" transform="translate(-711.901 -470.003)"/></g><g transform="translate(101.156 3.71)"><path class="p" d="M875.392,500.1H927.1s-11.527-17-20.053-22.542H855.338C863.863,483.1,875.392,500.1,875.392,500.1Z" transform="translate(-855.338 -477.557)"/></g><g transform="translate(165.037 59.845)"><g transform="translate(0 0)"><ellipse class="m" cx="2.507" cy="3.028" rx="2.507" ry="3.028"/></g></g><g transform="translate(210.004 59.845)"><g transform="translate(0 0)"><path class="m" d="M1088.63,594.887a2.552,2.552,0,1,1-2.507-3.028A2.8,2.8,0,0,1,1088.63,594.887Z" transform="translate(-1083.617 -591.859)"/></g></g><g transform="translate(19.688 4.573)"><path class="p" d="M758.9,479.314H699.49c-2.39,0-7.705,3.922-13.727,12.535l-.075.107a6.684,6.684,0,0,0,5.3,10.522H778.3a1.66,1.66,0,0,0,1.3-2.627C769.607,485.71,761.571,479.314,758.9,479.314Z" transform="translate(-684.478 -479.314)"/></g><g transform="translate(19.688 4.573)"><path class="d" d="M687.031,491.956l.075-.107c6.022-8.613,11.337-12.535,13.727-12.535H699.49c-2.39,0-7.705,3.922-13.727,12.535l-.075.107a6.684,6.684,0,0,0,5.3,10.522h1.342A6.684,6.684,0,0,1,687.031,491.956Z" transform="translate(-684.478 -479.314)"/></g><g transform="translate(68.425 33.784)"><path class="b" d="M787.1,544.4a.211.211,0,0,1-.209-.207c-.129-3.229-.194-4.974-.194-5.188a.21.21,0,1,1,.42,0c0,.208.065,1.947.193,5.17a.213.213,0,0,1-.2.224Z" transform="translate(-786.692 -538.793)"/></g><g transform="translate(37.571 33.353)"><path class="b" d="M722.318,543.537a.213.213,0,0,1-.21-.21c-.077-3.034-.124-4.864-.124-5.194a.21.21,0,1,1,.42,0c0,.324.047,2.153.123,5.182a.213.213,0,0,1-.2.222Z" transform="translate(-721.984 -537.917)"/></g><g transform="translate(109.394 34.331)"><path class="b" d="M872.889,545.528a.213.213,0,0,1-.21-.214c-.044-3.334-.065-4.983-.065-5.191a.21.21,0,1,1,.42,0c0,.205.021,1.853.065,5.185a.213.213,0,0,1-.207.219Z" transform="translate(-872.615 -539.908)"/></g><g transform="translate(13.299 45.252)"><path class="d" d="M694.619,562.146h-7.743a13.951,13.951,0,0,0-13.669,12.409l-2.127,17.307a2.334,2.334,0,0,0,.564.073h1.964l2.1-17.054a11.38,11.38,0,0,1,11.171-10.141h7.744a11.379,11.379,0,0,1,11.169,10.124l2.124,17.072h2.537l-2.165-17.4A13.954,13.954,0,0,0,694.619,562.146Z" transform="translate(-671.08 -562.146)"/><g transform="translate(96.788)"><path class="d" d="M897.615,562.146h-7.744A13.951,13.951,0,0,0,876.2,574.555l-2.135,17.38h2.54l2.1-17.054a11.381,11.381,0,0,1,11.171-10.141h7.744a11.379,11.379,0,0,1,11.168,10.124l2.125,17.072h2.536l-2.164-17.4A13.954,13.954,0,0,0,897.615,562.146Z" transform="translate(-874.067 -562.146)"/></g></g><g transform="translate(19.472 4.356)"><path class="d" d="M778.063,502.47H690.754a6.673,6.673,0,0,1-5.975-3.765,6.882,6.882,0,0,1,.5-7.1l.075-.108c6.066-8.675,11.457-12.626,13.9-12.626h59.409c3.051,0,11.4,7.23,20.871,20.627a1.9,1.9,0,0,1,.149,1.946A1.805,1.805,0,0,1,778.063,502.47Zm-78.81-23.165c-2.338,0-7.578,3.9-13.557,12.446l-.074.106a6.443,6.443,0,0,0-.469,6.65,6.254,6.254,0,0,0,5.6,3.531h87.309a1.369,1.369,0,0,0,1.244-.788,1.446,1.446,0,0,0-.113-1.5c-9.969-14.1-18.008-20.449-20.532-20.449Z" transform="translate(-684.025 -478.873)"/></g><g transform="translate(37.943 4.573)"><path class="d" d="M726.485,502.478h-3.721l2.921-23.164h3.721Z" transform="translate(-722.764 -479.314)"/></g><g transform="translate(68.391 4.573)"><path class="d" d="M790.341,502.478H786.62l1.243-23.164h3.721Z" transform="translate(-786.62 -479.314)"/></g><g transform="translate(107.358 17.285)"><path class="d" d="M875.8,513.024c-2.083-2.947-4.075-5.538-5.956-7.825l-1.5,10.452H874.5A1.66,1.66,0,0,0,875.8,513.024Z" transform="translate(-868.344 -505.199)"/></g><g transform="translate(39.919 34.196)"><path class="b" d="M735.136,541.6c0,1.574-.823,1.97-4.114,1.969s-4.114-.4-4.114-1.969.823-1.967,4.114-1.969S735.135,540.029,735.136,541.6Z" transform="translate(-726.908 -539.633)"/></g><g transform="translate(39.927 36.105)"><path class="b" d="M731.03,543.521a20.759,20.759,0,0,0-4.106.289c.083,1.381.985,1.739,4.106,1.74s4.024-.358,4.106-1.743A20.684,20.684,0,0,0,731.03,543.521Z" transform="translate(-726.925 -543.521)"/></g><g transform="translate(70.675 34.624)"><path class="b" d="M799.64,542.473c0,1.574-.823,1.97-4.114,1.969s-4.114-.4-4.114-1.969.823-1.968,4.114-1.969S799.639,540.9,799.64,542.473Z" transform="translate(-791.412 -540.504)"/></g><g transform="translate(70.684 36.533)"><path class="b" d="M795.535,544.392a20.782,20.782,0,0,0-4.106.289c.083,1.381.985,1.738,4.106,1.74s4.024-.359,4.106-1.742A20.687,20.687,0,0,0,795.535,544.392Z" transform="translate(-791.429 -544.392)"/></g><g transform="translate(100.946 3.494)"><path class="d" d="M926.869,500.092H875.16a.207.207,0,0,1-.171-.092c-.115-.17-11.6-17.029-19.993-22.484a.218.218,0,0,1-.09-.242.211.211,0,0,1,.2-.156h51.708a.2.2,0,0,1,.112.034c8.464,5.5,20,22.431,20.113,22.6a.22.22,0,0,1,.014.224A.207.207,0,0,1,926.869,500.092Zm-51.6-.432h51.193c-1.675-2.421-11.985-17.056-19.709-22.11H855.809C863.878,483.192,874.357,498.329,875.269,499.659Z" transform="translate(-854.897 -477.117)"/></g><g transform="translate(96.45 19.716)"><g transform="translate(9.57 1.665)"><path class="d" d="M0,0H2.681a.936.936,0,0,1,.936.936v0a.936.936,0,0,1-.936.936H0a0,0,0,0,1,0,0V0A0,0,0,0,1,0,0Z"/></g><g transform="translate(9.57 4.492)"><path class="d" d="M0,0H2.681a.936.936,0,0,1,.936.936v0a.936.936,0,0,1-.936.936H0a0,0,0,0,1,0,0V0A0,0,0,0,1,0,0Z"/></g><path class="f" d="M853.938,517.062h-6.723a1.784,1.784,0,0,1-1.718-2.124l.559-3.142a1.969,1.969,0,0,1,1.921-1.648h5.961a1.774,1.774,0,0,1,1.747,1.8v3.316A1.773,1.773,0,0,1,853.938,517.062Z" transform="translate(-845.468 -510.148)"/><g transform="translate(0.005)"><path class="b" d="M853.944,510.148h-5.961a1.969,1.969,0,0,0-1.921,1.648l-.56,3.142a1.833,1.833,0,0,0,0,.6h7.3a2.006,2.006,0,0,0,1.976-2.035v-3.126A1.69,1.69,0,0,0,853.944,510.148Z" transform="translate(-845.478 -510.148)"/></g></g></g></g></svg>