<svg width="25" height="30" viewBox="0 0 25 30" xmlns="http://www.w3.org/2000/svg">
    <g fill-rule="nonzero" fill="none">
        <g transform="translate(4.478 4.533)">
            <path d="M16.044 8.12c.001-3.675-2.438-6.892-5.947-7.843-3.508-.95-7.21.603-9.024 3.786-1.815 3.184-1.288 7.204 1.283 9.8a7.826 7.826 0 0 1 2.318 5.496v.207h6.697v-.208a7.535 7.535 0 0 1 2.221-5.4 8.135 8.135 0 0 0 2.452-5.838z" fill="#FCD461"/>
            <path d="M4.674 22.967h6.697v.538a1.51 1.51 0 0 1-1.502 1.52H6.175a1.51 1.51 0 0 1-1.501-1.52v-.538z" fill="#E1F1FC"/>
            <rect fill="#E1F1FC" x="3.722" y="22.076" width="8.601" height="1.519" rx=".759"/>
            <rect fill="#E1F1FC" x="3.722" y="20.545" width="8.601" height="1.519" rx=".759"/>
            <rect fill="#E1F1FC" x="3.722" y="19.015" width="8.601" height="1.519" rx=".759"/>
        </g>
        <g fill="#051720">
            <path d="M4.675 10.821c.111.033.231.02.333-.036a.443.443 0 0 0 .211-.265c.066-.228.144-.455.231-.678a.445.445 0 0 0-.244-.576.436.436 0 0 0-.57.247 8.584 8.584 0 0 0-.258.757.448.448 0 0 0 .297.551zM18.291 6.413a8.334 8.334 0 0 0-6.331-2.304 8.464 8.464 0 0 0-6.683 4.109.448.448 0 0 0-.011.443.437.437 0 0 0 .758.019 7.588 7.588 0 0 1 5.99-3.686c3.175-.207 6.139 1.613 7.424 4.557a7.738 7.738 0 0 1-1.672 8.621 7.808 7.808 0 0 0-1.963 3.2.447.447 0 0 0 .091.433.435.435 0 0 0 .742-.16 6.915 6.915 0 0 1 1.738-2.836 8.536 8.536 0 0 0 2.585-6.156 8.642 8.642 0 0 0-2.668-6.24z"/>
            <path d="M18.968 12.258a.442.442 0 0 0 .435-.498 7.073 7.073 0 0 0-.316-1.38.435.435 0 0 0-.744-.148.447.447 0 0 0-.085.435c.132.391.224.794.275 1.204a.44.44 0 0 0 .435.387zM16.05 23.105h-1.904v-5.109h.314c.656 0 1.188-.538 1.188-1.202 0-.664-.532-1.203-1.188-1.203-.657 0-1.189.539-1.189 1.203v.316H11.73v-.316c0-.664-.532-1.203-1.189-1.203-.656 0-1.188.539-1.188 1.203s.532 1.202 1.188 1.202h.314v5.109H9.55a8.336 8.336 0 0 0-2.408-5.024 7.635 7.635 0 0 1-2.221-5.684c.006-.178.018-.359.036-.535a.442.442 0 0 0-.39-.487.44.44 0 0 0-.481.395c-.02.198-.034.399-.04.598a8.518 8.518 0 0 0 2.477 6.34 7.454 7.454 0 0 1 2.149 4.433c-.4.094-.723.392-.852.786s-.046.828.22 1.145a1.188 1.188 0 0 0 0 1.53 1.2 1.2 0 0 0-.202 1.2c.155.407.518.695.945.751A1.94 1.94 0 0 0 10.653 30h3.694a1.94 1.94 0 0 0 1.869-1.447c.427-.056.79-.344.945-.751a1.2 1.2 0 0 0-.202-1.2c.372-.44.372-1.09 0-1.53.298-.356.364-.855.168-1.278a1.18 1.18 0 0 0-1.077-.69zm0 3.049h-7.1a.315.315 0 0 1-.313-.317c0-.174.14-.316.313-.316h7.1c.173 0 .313.142.313.316 0 .175-.14.317-.313.317zm-1.903-9.36c0-.175.14-.317.313-.317.172 0 .312.142.312.317 0 .174-.14.316-.312.316h-.313v-.316zm-3.92 0c0-.175.14-.317.313-.317s.313.142.313.317v.316h-.313a.315.315 0 0 1-.313-.316zm1.502 1.202h1.54v5.109h-1.54v-5.109zM8.95 23.991h7.1c.173 0 .313.141.313.316 0 .175-.14.317-.313.317h-7.1a.315.315 0 0 1-.313-.317c0-.175.14-.316.313-.316zm7.1 3.693h-3.04a.44.44 0 0 0-.437.443.44.44 0 0 0 .438.443h2.255a1.056 1.056 0 0 1-.92.543h-3.693c-.38 0-.731-.208-.918-.543h.93a.44.44 0 0 0 .438-.443.44.44 0 0 0-.438-.443H8.95a.315.315 0 0 1-.313-.317c0-.175.14-.316.313-.316h7.1c.173 0 .313.141.313.316 0 .175-.14.317-.313.317zM12.5 2.911a.44.44 0 0 0 .438-.443V.443A.44.44 0 0 0 12.5 0a.44.44 0 0 0-.438.443v2.025a.44.44 0 0 0 .438.443zM7.09 4.054a.437.437 0 0 0 .76.001.448.448 0 0 0-.001-.444l-1-1.754a.437.437 0 0 0-.761-.002.448.448 0 0 0 .002.445l1 1.754zM1.835 6.93l1.733 1.012c.21.12.476.047.596-.164.12-.21.05-.48-.158-.604L2.273 6.162a.433.433 0 0 0-.44-.002.444.444 0 0 0 .002.77zM2.877 12.648a.44.44 0 0 0-.437-.443H.438a.44.44 0 0 0-.438.443.44.44 0 0 0 .438.443H2.44a.44.44 0 0 0 .437-.443zM3.568 17.354l-1.734 1.013a.444.444 0 0 0-.001.77c.136.079.304.078.44-.003l1.733-1.012a.446.446 0 0 0 .157-.604.435.435 0 0 0-.595-.164zM17.311 4.215a.433.433 0 0 0 .598-.162l1.001-1.754a.448.448 0 0 0 .002-.445.437.437 0 0 0-.76.002l-1 1.754a.446.446 0 0 0 .16.605zM21.213 8.001c.077 0 .152-.02.219-.06l1.733-1.012a.444.444 0 0 0 .002-.77.433.433 0 0 0-.44.003l-1.733 1.012a.445.445 0 0 0 .22.827zM24.562 12.205H22.56a.44.44 0 0 0-.437.443.44.44 0 0 0 .437.443h2.002a.44.44 0 0 0 .438-.443.44.44 0 0 0-.438-.443zM23.165 18.367l-1.733-1.013a.435.435 0 0 0-.596.164c-.12.211-.05.48.158.604l1.733 1.012c.136.08.303.082.44.002a.444.444 0 0 0-.002-.769z"/>
        </g>
    </g>
</svg>
