<svg xmlns="http://www.w3.org/2000/svg" width="315.953" height="70.896"  xmlns:v="https://vecta.io/nano"><style>.A{isolation:isolate}</style><g class="A"><path d="M35.448 70.896q-15.3 0-25.375-10.17Q-.002 50.556 0 35.448q0-15.109 10.073-25.279Q20.146-.001 35.448-.001a34.84 34.84 0 0 1 17.337 4.456 32.6 32.6 0 0 1 12.4 12.01l-16.86 9.685a12.14 12.14 0 0 0-5.133-5.23c-2.371-1.303-5.039-1.97-7.744-1.937a15.37 15.37 0 0 0-11.623 4.649c-3.004 3.185-4.608 7.44-4.455 11.816-.153 4.376 1.451 8.631 4.455 11.816a15.37 15.37 0 0 0 11.622 4.649c2.725.046 5.414-.621 7.8-1.937a12.08 12.08 0 0 0 5.078-5.327l16.857 9.683a32.38 32.38 0 0 1-12.4 12.107 34.84 34.84 0 0 1-17.334 4.457zm63.535-1.55l-2.324-8.714H77.095l-2.324 8.717H53.947l21.6-67.8h22.662l21.6 67.8zM81.26 45.132h11.234L86.877 24.31zm67.119 24.116l-10.754-21.306h-4.84V69.25h-19.37V1.45h27.119q11.138 0 18.4 6.538 7.262 6.538 7.264 17.288c.053 3.796-.899 7.539-2.76 10.848a21.6 21.6 0 0 1-7.7 7.845l13.367 25.281zm-15.594-49.974v12.591h7.361c1.772.161 3.535-.398 4.891-1.55a6 6 0 0 0 1.788-4.649c.099-1.75-.553-3.46-1.792-4.7a6.83 6.83 0 0 0-4.891-1.695z" fill="#04072e"/><path d="M171.74 69.35l-19.177-67.8h21.308l9.2 37.288L194.016 1.55h14.915l10.945 37.288 9.2-37.288h21.308l-19.176 67.8h-19.08l-10.654-36.226L190.82 69.35zm76.323-67.8h19.371v67.8h-19.371zm45.327 49.008h22.567V69.35h-47.945V54.432l21.6-34.092h-21.116V1.55h46.489v14.915z" fill="#07b9e0"/></g></svg>