<svg width="108" height="24" viewBox="0 0 108 24" fill="none" xmlns="http://www.w3.org/2000/svg">
<mask id="mask0_256_2115" style="mask-type:luminance" maskUnits="userSpaceOnUse" x="0" y="0" width="58" height="24">
<path fill-rule="evenodd" clip-rule="evenodd" d="M0 0H57.2308V24H0V0Z" fill="white"/>
</mask>
<g mask="url(#mask0_256_2115)">
<path fill-rule="evenodd" clip-rule="evenodd" d="M49.0858 10.2624C48.6815 10.6341 48.1298 10.8089 47.4305 10.7871H44.9395V6.52472H47.4305C48.1298 6.52472 48.6815 6.71602 49.0858 7.09835C49.4901 7.48095 49.6923 8.01095 49.6923 8.68862C49.6923 9.36628 49.4901 9.89069 49.0858 10.2624ZM27.502 15.2787L29.403 8.22961L31.3041 15.2787H27.502ZM52.7075 14.8852C53.822 14.2078 54.6905 13.3224 55.3135 12.2296C55.9362 11.1366 56.2476 9.91274 56.2476 8.55741C56.2476 6.13118 55.4281 4.1804 53.7891 2.70507C52.1503 1.22948 50.0744 0.491952 47.5613 0.491952H38.3834V16.6827L33.2372 0.524678H25.5669L20.2138 17.3325L16.3563 15.1148C15.9847 15.8798 15.4112 16.4808 14.6353 16.9179C13.8597 17.3553 12.98 17.5738 11.9967 17.5738C10.3797 17.5738 9.06858 17.0491 8.06338 16C7.05819 14.9509 6.55546 13.6174 6.55546 12C6.55546 10.3826 7.05819 9.04937 8.06338 8.00001C9.06858 6.95092 10.3797 6.42624 11.9967 6.42624C12.9582 6.42624 13.8323 6.64495 14.6191 7.08209C15.4057 7.51923 15.9847 8.10936 16.3563 8.85248L22.0598 5.57377C21.0546 3.86883 19.656 2.51377 17.8642 1.50832C16.0722 0.502861 14.1164 0 11.9967 0C8.54404 0 5.6814 1.14753 3.409 3.4426C1.13633 5.73767 0 8.59014 0 12C0 15.4099 1.13633 18.2624 3.409 20.5574C5.6814 22.8525 8.54404 24 11.9967 24C14.1164 24 16.0722 23.4972 17.8642 22.4917C18.1715 22.3193 18.4627 22.1325 18.7468 21.9388L18.2574 23.4753H25.3047L26.0915 20.5247H32.7126L33.4995 23.4753H40.5467L40.5364 23.4426H44.9391V16.2296H46.5779L50.2162 23.4426H57.2308L52.7075 14.8852Z" fill="#15142B"/>
</g>
<path fill-rule="evenodd" clip-rule="evenodd" d="M99.2564 17.6045L106.742 5.99997V0.923096H90.6297V7.31888H97.9473L90.4619 18.9231V24H107.077V17.6045H99.2564Z" fill="#28CBFF"/>
<path fill-rule="evenodd" clip-rule="evenodd" d="M83.9238 0.923096H77.5167L74.4112 13.6154L70.7173 0.923096H65.6833L61.9894 13.6154L58.8841 0.923096H51.6924L58.165 24H64.6047L68.2004 11.6705L71.7961 24H78.2358L83.9238 3.72036V24H90.4616V0.923096H84.7084H83.9238Z" fill="#28CBFF"/>
</svg>
