<svg xmlns="http://www.w3.org/2000/svg" width="117.461" height="26.357" viewBox="0 0 117.461 26.357">
    <g>
        <g style="isolation:isolate">
            <path fill="#fff" d="M13.853 7.025A12.726 12.726 0 0 1 4.42 3.244a12.822 12.822 0 0 1-3.745-9.4 12.822 12.822 0 0 1 3.745-9.4 12.726 12.726 0 0 1 9.434-3.781 12.952 12.952 0 0 1 6.446 1.661 12.119 12.119 0 0 1 4.609 4.465l-6.265 3.6a4.514 4.514 0 0 0-1.908-1.944 5.83 5.83 0 0 0-2.881-.72 5.714 5.714 0 0 0-4.321 1.728 6.091 6.091 0 0 0-1.658 4.393 6.091 6.091 0 0 0 1.657 4.393 5.714 5.714 0 0 0 4.32 1.729 5.8 5.8 0 0 0 2.9-.72 4.491 4.491 0 0 0 1.89-1.98l6.265 3.6a12.037 12.037 0 0 1-4.609 4.5 12.952 12.952 0 0 1-6.446 1.657zm23.62-.576l-.863-3.241h-7.274l-.864 3.241h-7.741l8.03-25.2h8.426l8.03 25.2zm-6.589-9h4.177l-2.088-7.741zm24.953 8.964l-4-7.921h-1.8v7.921h-7.2v-25.2h10.084a9.84 9.84 0 0 1 6.841 2.43 8.229 8.229 0 0 1 2.7 6.427 8 8 0 0 1-1.026 4.03 8.028 8.028 0 0 1-2.863 2.917l4.969 9.4zm-5.8-18.58v4.681h2.737a2.464 2.464 0 0 0 1.826-.576 2.229 2.229 0 0 0 .666-1.728 2.288 2.288 0 0 0-.666-1.746 2.539 2.539 0 0 0-1.818-.63z" transform="translate(-98.913 -91.881) translate(98.913 91.881) translate(-.675 19.332)"/>
            <path fill="#07b9e0" d="M7.129 6.3L0-18.9h7.921l3.421 13.863L15.411-18.9h5.545l4.069 13.863 3.42-13.863h7.921L29.238 6.3h-7.094L18.183-7.162 14.223 6.3zM35.5-18.9h7.2V6.3h-7.2zM52.354-.681h8.39V6.3H42.92V.76l8.03-12.674H43.1V-18.9h17.283v5.545z" transform="translate(-98.913 -91.881) translate(98.913 91.881) translate(56.718 19.476)"/>
        </g>
    </g>
</svg>
