<?xml version="1.0" encoding="UTF-8"?><svg xmlns="http://www.w3.org/2000/svg" viewBox="0 0 3710 1567.24"><defs><style>.g{fill:#07b9e0;}.h{fill:#15142b;}</style></defs><g id="a"><g id="b" transform="translate(-98.913 -118.052)"><g id="c" transform="translate(98.913 118.052)"><path id="d" class="h" d="M594.39,1018.32c-104.94,0-191.96-34.88-261.06-104.63-69.1-69.75-103.65-156.44-103.63-260.06,0-103.63,34.54-190.32,103.63-260.07,69.09-69.75,156.11-104.63,261.06-104.63,62.43-.51,123.92,15.29,178.36,45.84,52.85,28.97,96.92,71.66,127.57,123.56l-173.46,99.64c-11.64-22.95-30.08-41.74-52.81-53.81-24.39-13.4-51.84-20.27-79.67-19.93-44.84-1.75-88.31,15.64-119.58,47.83-30.91,32.77-47.41,76.55-45.83,121.56-1.58,45.02,14.93,88.79,45.83,121.56,31.26,32.19,74.73,49.57,119.57,47.83,28.03,.48,55.7-6.39,80.25-19.93,22.69-12.39,40.95-31.55,52.24-54.8l173.43,99.62c-30.42,52.34-74.52,95.4-127.57,124.56-54.44,30.55-115.91,46.36-178.33,45.85Zm653.65-15.95l-23.91-89.65h-201.28l-23.91,89.68h-214.24l222.22-697.53h233.15l222.22,697.53-214.26-.03Zm-182.34-249.12h115.58l-57.79-214.22-57.79,214.22Zm690.53,248.11l-110.64-219.2h-49.79v219.22h-199.28V303.85h279c76.39,0,139.49,22.42,189.3,67.26,49.81,44.84,74.72,104.13,74.73,177.86,.55,39.06-9.25,77.56-28.4,111.61-19,33.28-46.29,61.09-79.22,80.71l137.52,260.09-213.23-.02Zm-160.43-514.14v129.54h75.73c18.23,1.66,36.37-4.09,50.32-15.95,12.77-12.52,19.48-29.97,18.39-47.83,1.02-18.01-5.68-35.6-18.44-48.35-13.83-12.19-31.91-18.46-50.32-17.44l-75.69,.03Z"/><path id="e" class="g" d="M1996.58,1002.41l-197.29-697.53h219.22l94.65,383.62,112.6-383.62h153.45l112.6,383.62,94.65-383.62h219.22l-197.28,697.53h-196.3l-109.61-372.7-109.61,372.7h-196.3Zm785.22-697.53h199.29V1002.41h-199.29V304.88Zm466.33,504.2h232.17v193.33h-493.26v-153.48l222.22-350.74h-217.24v-193.31h478.28v153.45l-222.17,350.75Z"/></g></g></g><g id="f"><g><path d="M318.46,1315.51c-1.25-1.16-1.88-2.66-1.88-4.5v-33c0-1.83,.62-3.38,1.88-4.62s2.79-1.88,4.62-1.88h33c1.83,0,3.33,.62,4.5,1.88,1.16,1.25,1.75,2.79,1.75,4.62v33c0,1.67-.59,3.12-1.75,4.38-1.17,1.25-2.67,1.88-4.5,1.88h-33c-1.84,0-3.38-.58-4.62-1.75Z"/><path d="M396.96,1315.51c-1.25-1.16-1.88-2.66-1.88-4.5v-130.25c0-1.83,.62-3.33,1.88-4.5,1.25-1.16,2.79-1.75,4.62-1.75h56.75c22.66,0,39.54,4.79,50.62,14.38,11.08,9.59,16.62,25.21,16.62,46.88v75c0,1.84-.62,3.38-1.88,4.62s-2.79,1.88-4.62,1.88h-117.5c-1.84,0-3.38-.58-4.62-1.75Zm88.38-32.25v-46.25c0-19-9.42-28.5-28.25-28.5h-24v74.75h52.25Z"/><path d="M559.71,1256.26c-1.25-1.16-1.88-2.66-1.88-4.5v-71c0-1.83,.62-3.33,1.88-4.5,1.25-1.16,2.79-1.75,4.62-1.75h31.25c1.83,0,3.33,.59,4.5,1.75,1.16,1.17,1.75,2.67,1.75,4.5v71c0,1.67-.59,3.12-1.75,4.38-1.17,1.25-2.67,1.88-4.5,1.88h-31.25c-1.84,0-3.38-.58-4.62-1.75Z"/><path d="M721.21,1315.39c-1.25,1.25-2.79,1.88-4.62,1.88h-80.25c-1.84,0-3.38-.58-4.62-1.75-1.25-1.16-1.88-2.66-1.88-4.5v-21.5c0-1.83,.62-3.33,1.88-4.5,1.25-1.16,2.79-1.75,4.62-1.75h41.5l-2.25-49.25c-.5-9.66-2.17-16.66-5-21-2.84-4.33-8-6.5-15.5-6.5h-12.75c-1.67,0-3.12-.62-4.38-1.88s-1.88-2.71-1.88-4.38v-21c0-1.83,.58-3.38,1.75-4.62,1.16-1.25,2.66-1.88,4.5-1.88h13.5c21.83,0,37.71,4.92,47.62,14.75,9.91,9.84,15.29,25.59,16.12,47.25l3.25,76.25c.16,1.67-.38,3.12-1.62,4.38Z"/><path d="M751.71,1315.51c-1.25-1.16-1.88-2.66-1.88-4.5v-23c0-1.83,.62-3.38,1.88-4.62s2.79-1.88,4.62-1.88h36.25c19,0,29-9.41,30-28.25,.16-2,.25-4.5,.25-7.5,0-2.83-.09-5.25-.25-7.25-1-18.83-11-28.25-30-28.25h-36.25c-1.84,0-3.38-.62-4.62-1.88s-1.88-2.79-1.88-4.62v-23c0-1.83,.62-3.33,1.88-4.5,1.25-1.16,2.79-1.75,4.62-1.75h37.5c44.16,0,67.25,21.42,69.25,64.25,.16,1.84,.25,4.17,.25,7,0,22.67-5.46,40.25-16.38,52.75-10.92,12.5-28.62,18.75-53.12,18.75h-37.5c-1.84,0-3.38-.58-4.62-1.75Z"/><path d="M959.71,1315.51c-1.25-1.16-1.88-2.66-1.88-4.5v-74c0-19-9.42-28.5-28.25-28.5h-38c-1.67,0-3.12-.62-4.38-1.88s-1.88-2.71-1.88-4.38v-21.5c0-1.83,.62-3.33,1.88-4.5,1.25-1.16,2.71-1.75,4.38-1.75h39.5c23.16,0,40.46,4.75,51.88,14.25,11.41,9.5,17.12,25.09,17.12,46.75v75.5c0,1.67-.59,3.12-1.75,4.38-1.17,1.25-2.67,1.88-4.5,1.88h-29.5c-1.84,0-3.38-.58-4.62-1.75Z"/><path d="M1146.58,1233.14c-5,9.09-12.34,16.62-22,22.62l19.5,26.75c1,1.34,1.79,2.59,2.38,3.75,.58,1.17,.88,2.67,.88,4.5v20.25c0,1.67-.59,3.12-1.75,4.38-1.17,1.25-2.67,1.88-4.5,1.88h-101.5c-1.67,0-3.12-.62-4.38-1.88s-1.88-2.71-1.88-4.38v-22.25c0-1.83,.62-3.33,1.88-4.5,1.25-1.16,2.71-1.75,4.38-1.75h58.75l-72.75-99c-1-1.66-1.5-3-1.5-4,0-1.5,.54-2.71,1.62-3.62,1.08-.91,2.38-1.38,3.88-1.38h31c3.33,0,6,1.5,8,4.5l35,48c7.66-6.5,11.5-17.08,11.5-31.75v-14c0-2,.62-3.62,1.88-4.88s2.79-1.88,4.62-1.88h26.25c1.66,0,3.12,.67,4.38,2,1.25,1.34,1.88,2.92,1.88,4.75v21.5c0,11.17-2.5,21.29-7.5,30.38Z"/><path d="M1279.33,1315.51c-1.17-1.16-1.75-2.66-1.75-4.5v-74c0-19-9.42-28.5-28.25-28.5h-57c-1.84,0-3.38-.58-4.62-1.75-1.25-1.16-1.88-2.66-1.88-4.5v-21.5c0-1.83,.62-3.33,1.88-4.5,1.25-1.16,2.79-1.75,4.62-1.75h58.25c23,0,40.29,5.09,51.88,15.25,11.58,10.17,17.38,26,17.38,47.5v73.75c0,1.84-.62,3.34-1.88,4.5-1.25,1.17-2.79,1.75-4.62,1.75h-29.5c-1.84,0-3.34-.58-4.5-1.75Zm-91.62,0c-1.25-1.16-1.88-2.66-1.88-4.5v-73c0-1.83,.62-3.33,1.88-4.5,1.25-1.16,2.79-1.75,4.62-1.75h29.5c1.83,0,3.33,.59,4.5,1.75,1.16,1.17,1.75,2.67,1.75,4.5v73c0,1.67-.59,3.12-1.75,4.38-1.17,1.25-2.67,1.88-4.5,1.88h-29.5c-1.84,0-3.38-.58-4.62-1.75Z"/><path d="M1543.2,1189.39c11.58,9.92,17.38,25.38,17.38,46.38v75.25c0,1.67-.59,3.12-1.75,4.38-1.17,1.25-2.67,1.88-4.5,1.88h-29.5c-1.84,0-3.38-.58-4.62-1.75-1.25-1.16-1.88-2.66-1.88-4.5v-74c0-19-9.42-28.5-28.25-28.5h-16.25c-2.67,11.34-3.92,23.59-3.75,36.75l2,65.75c0,1.84-.62,3.34-1.88,4.5-1.25,1.17-2.79,1.75-4.62,1.75l-53-.25c-1.84,0-3.38-.58-4.62-1.75-1.25-1.16-1.88-2.66-1.88-4.5v-19.75c0-1.83,.62-3.33,1.88-4.5,1.25-1.16,2.79-1.75,4.62-1.75h20.25v-39.25c-.34-13.66,.91-26,3.75-37h-14.75c-1.84,0-3.38-.58-4.62-1.75-1.25-1.16-1.88-2.66-1.88-4.5v-21.5c0-1.83,.62-3.33,1.88-4.5,1.25-1.16,2.79-1.75,4.62-1.75h69.75c22.83,0,40.04,4.96,51.62,14.88Z"/><path d="M1659.95,1315.51c-1.25-1.16-1.88-2.66-1.88-4.5v-74c0-19-9.42-28.5-28.25-28.5h-38c-1.67,0-3.12-.62-4.38-1.88s-1.88-2.71-1.88-4.38v-21.5c0-1.83,.62-3.33,1.88-4.5,1.25-1.16,2.71-1.75,4.38-1.75h39.5c23.16,0,40.46,4.75,51.88,14.25,11.41,9.5,17.12,25.09,17.12,46.75v75.5c0,1.67-.59,3.12-1.75,4.38-1.17,1.25-2.67,1.88-4.5,1.88h-29.5c-1.84,0-3.38-.58-4.62-1.75Z"/><path d="M1734.45,1256.26c-1.25-1.16-1.88-2.66-1.88-4.5v-71c0-1.83,.62-3.33,1.88-4.5,1.25-1.16,2.79-1.75,4.62-1.75h31.25c1.83,0,3.33,.59,4.5,1.75,1.16,1.17,1.75,2.67,1.75,4.5v71c0,1.67-.59,3.12-1.75,4.38-1.17,1.25-2.67,1.88-4.5,1.88h-31.25c-1.84,0-3.38-.58-4.62-1.75Z"/><path d="M1811.95,1315.51c-1.25-1.16-1.88-2.66-1.88-4.5v-130.25c0-1.83,.62-3.33,1.88-4.5,1.25-1.16,2.79-1.75,4.62-1.75h59c23.66,0,41.12,4.88,52.38,14.62s16.88,25.79,16.88,48.12v73.75c0,1.67-.59,3.12-1.75,4.38-1.17,1.25-2.67,1.88-4.5,1.88h-29.5c-1.84,0-3.38-.58-4.62-1.75-1.25-1.16-1.88-2.66-1.88-4.5v-74c0-19-9.42-28.5-28.25-28.5h-22v102.5c0,1.67-.59,3.12-1.75,4.38-1.17,1.25-2.67,1.88-4.5,1.88h-29.5c-1.84,0-3.38-.58-4.62-1.75Z"/><path d="M1975.2,1315.39c-1.25-1.25-1.88-2.71-1.88-4.38v-21.5c0-1.83,.62-3.33,1.88-4.5,1.25-1.16,2.71-1.75,4.38-1.75h62.75v-46.25c0-18.83-9.42-28.25-28.25-28.25h-32c-1.84,0-3.34-.62-4.5-1.88-1.17-1.25-1.75-2.79-1.75-4.62v-21.5c0-1.83,.62-3.33,1.88-4.5,1.25-1.16,2.71-1.75,4.38-1.75h33.25c23.33,0,40.96,4.92,52.88,14.75,11.91,9.84,17.88,25.75,17.88,47.75v46.25h8.75c1.83,0,3.33,.59,4.5,1.75,1.16,1.17,1.75,2.67,1.75,4.5v21.5c0,1.67-.59,3.12-1.75,4.38-1.17,1.25-2.67,1.88-4.5,1.88h-115.25c-1.67,0-3.12-.62-4.38-1.88Z"/><path d="M2183.44,1315.51c-1.25-1.16-1.88-2.66-1.88-4.5v-33c0-1.83,.62-3.38,1.88-4.62s2.79-1.88,4.62-1.88h33c1.83,0,3.33,.62,4.5,1.88,1.16,1.25,1.75,2.79,1.75,4.62v33c0,1.67-.59,3.12-1.75,4.38-1.17,1.25-2.67,1.88-4.5,1.88h-33c-1.84,0-3.38-.58-4.62-1.75Z"/><path d="M2353.56,1315.51c-1.17-1.16-1.75-2.66-1.75-4.5v-74c0-19-9.42-28.5-28.25-28.5h-57c-1.84,0-3.38-.58-4.62-1.75-1.25-1.16-1.88-2.66-1.88-4.5v-21.5c0-1.83,.62-3.33,1.88-4.5,1.25-1.16,2.79-1.75,4.62-1.75h58.25c23,0,40.29,5.09,51.88,15.25,11.58,10.17,17.38,26,17.38,47.5v73.75c0,1.84-.62,3.34-1.88,4.5-1.25,1.17-2.79,1.75-4.62,1.75h-29.5c-1.84,0-3.34-.58-4.5-1.75Zm-91.62,0c-1.25-1.16-1.88-2.66-1.88-4.5v-73c0-1.83,.62-3.33,1.88-4.5,1.25-1.16,2.79-1.75,4.62-1.75h29.5c1.83,0,3.33,.59,4.5,1.75,1.16,1.17,1.75,2.67,1.75,4.5v73c0,1.67-.59,3.12-1.75,4.38-1.17,1.25-2.67,1.88-4.5,1.88h-29.5c-1.84,0-3.38-.58-4.62-1.75Z"/><path d="M2512.94,1315.39c-1.25,1.25-2.79,1.88-4.62,1.88h-80.25c-1.84,0-3.38-.58-4.62-1.75-1.25-1.16-1.88-2.66-1.88-4.5v-21.5c0-1.83,.62-3.33,1.88-4.5,1.25-1.16,2.79-1.75,4.62-1.75h41.5l-2.25-49.25c-.5-9.66-2.17-16.66-5-21-2.84-4.33-8-6.5-15.5-6.5h-12.75c-1.67,0-3.12-.62-4.38-1.88s-1.88-2.71-1.88-4.38v-21c0-1.83,.58-3.38,1.75-4.62,1.16-1.25,2.66-1.88,4.5-1.88h13.5c21.83,0,37.71,4.92,47.62,14.75,9.91,9.84,15.29,25.59,16.12,47.25l3.25,76.25c.16,1.67-.38,3.12-1.62,4.38Z"/><path d="M2704.06,1176.26c1.16,1.17,1.75,2.67,1.75,4.5v65.5c0,14.67-3.34,27.54-10,38.62-6.67,11.09-15.75,19.62-27.25,25.62s-24.25,8.91-38.25,8.75h-24c-13.34,0-25-2.58-35-7.75-10-5.16-17.62-12.16-22.88-21-5.25-8.83-7.88-18.58-7.88-29.25v-80.5c0-1.83,.62-3.33,1.88-4.5,1.25-1.16,2.79-1.75,4.62-1.75h26.25c1.83,0,3.33,.59,4.5,1.75,1.16,1.17,1.75,2.67,1.75,4.5l.25,60c9-.83,15.33-4.29,19-10.38,3.66-6.08,5.5-14.79,5.5-26.12v-23c0-2,.62-3.62,1.88-4.88s2.79-1.88,4.62-1.88h26c1.66,0,3.12,.67,4.38,2,1.25,1.34,1.88,2.92,1.88,4.75v23.5c0,19-4.92,34-14.75,45-9.84,11-23.75,17.42-41.75,19.25,3.16,5.34,7.38,9.42,12.62,12.25,5.25,2.84,11.04,4.25,17.38,4.25h5.75c8.5,0,16.16-1.75,23-5.25,6.83-3.5,12.16-8.33,16-14.5,3.83-6.16,5.75-13.08,5.75-20.75v-64.25c0-1.83,.58-3.33,1.75-4.5s2.66-1.75,4.5-1.75h26.25c1.83,0,3.33,.59,4.5,1.75Z"/><path d="M2830.06,1315.51c-1.17-1.16-1.75-2.66-1.75-4.5v-74c0-19-9.42-28.5-28.25-28.5h-57c-1.84,0-3.38-.58-4.62-1.75-1.25-1.16-1.88-2.66-1.88-4.5v-21.5c0-1.83,.62-3.33,1.88-4.5,1.25-1.16,2.79-1.75,4.62-1.75h58.25c23,0,40.29,5.09,51.88,15.25,11.58,10.17,17.38,26,17.38,47.5v73.75c0,1.84-.62,3.34-1.88,4.5-1.25,1.17-2.79,1.75-4.62,1.75h-29.5c-1.84,0-3.34-.58-4.5-1.75Zm-91.62,0c-1.25-1.16-1.88-2.66-1.88-4.5v-73c0-1.83,.62-3.33,1.88-4.5,1.25-1.16,2.79-1.75,4.62-1.75h29.5c1.83,0,3.33,.59,4.5,1.75,1.16,1.17,1.75,2.67,1.75,4.5v73c0,1.67-.59,3.12-1.75,4.38-1.17,1.25-2.67,1.88-4.5,1.88h-29.5c-1.84,0-3.38-.58-4.62-1.75Z"/><path d="M3025.43,1315.51c-1.25-1.16-1.88-2.66-1.88-4.5v-74c0-19-9.42-28.5-28.25-28.5h-38c-1.67,0-3.12-.62-4.38-1.88s-1.88-2.71-1.88-4.38v-21.5c0-1.83,.62-3.33,1.88-4.5,1.25-1.16,2.71-1.75,4.38-1.75h39.5c23.16,0,40.46,4.75,51.88,14.25,11.41,9.5,17.12,25.09,17.12,46.75v75.5c0,1.67-.59,3.12-1.75,4.38-1.17,1.25-2.67,1.88-4.5,1.88h-29.5c-1.84,0-3.38-.58-4.62-1.75Z"/><path d="M3212.31,1233.14c-5,9.09-12.34,16.62-22,22.62l19.5,26.75c1,1.34,1.79,2.59,2.38,3.75,.58,1.17,.88,2.67,.88,4.5v20.25c0,1.67-.59,3.12-1.75,4.38-1.17,1.25-2.67,1.88-4.5,1.88h-101.5c-1.67,0-3.12-.62-4.38-1.88s-1.88-2.71-1.88-4.38v-22.25c0-1.83,.62-3.33,1.88-4.5,1.25-1.16,2.71-1.75,4.38-1.75h58.75l-72.75-99c-1-1.66-1.5-3-1.5-4,0-1.5,.54-2.71,1.62-3.62,1.08-.91,2.38-1.38,3.88-1.38h31c3.33,0,6,1.5,8,4.5l35,48c7.66-6.5,11.5-17.08,11.5-31.75v-14c0-2,.62-3.62,1.88-4.88s2.79-1.88,4.62-1.88h26.25c1.66,0,3.12,.67,4.38,2,1.25,1.34,1.88,2.92,1.88,4.75v21.5c0,11.17-2.5,21.29-7.5,30.38Z"/><path d="M3253.43,1315.51c-1.25-1.16-1.88-2.66-1.88-4.5v-130.25c0-1.83,.62-3.33,1.88-4.5,1.25-1.16,2.79-1.75,4.62-1.75h31.25c1.83,0,3.33,.59,4.5,1.75,1.16,1.17,1.75,2.67,1.75,4.5v130.25c0,1.67-.59,3.12-1.75,4.38-1.17,1.25-2.67,1.88-4.5,1.88h-31.25c-1.84,0-3.38-.58-4.62-1.75Z"/><path d="M3456.05,1189.76c10.66,10.17,16,25.42,16,45.75v75.5c0,1.67-.59,3.12-1.75,4.38-1.17,1.25-2.67,1.88-4.5,1.88h-68.25c-1.67,0-3.12-.62-4.38-1.88s-1.88-2.71-1.88-4.38v-21.5c0-1.83,.62-3.33,1.88-4.5,1.25-1.16,2.71-1.75,4.38-1.75h32.25v-45.75c0-8.66-2.09-15.41-6.25-20.25-4.17-4.83-9.59-7.25-16.25-7.25h-19.5l-21.25,100.75c-.17,1.84-.84,3.38-2,4.62-1.17,1.25-2.67,1.88-4.5,1.88h-28.75c-1.84,0-3.38-.62-4.62-1.88s-1.71-2.79-1.38-4.62l24.5-100.5h-16.5c-1.84,0-3.34-.62-4.5-1.88-1.17-1.25-1.75-2.79-1.75-4.62v-23c0-1.83,.62-3.33,1.88-4.5,1.25-1.16,2.71-1.75,4.38-1.75h80.25c17.66,0,31.83,5.09,42.5,15.25Z"/></g></g></svg>