<svg xmlns="http://www.w3.org/2000/svg" width="106.982" height="34.872" viewBox="0 0 106.982 34.872">
    <defs>
        <style>
            .cls-6,.cls-7{fill-rule:evenodd}.cls-7{fill:#fff}
        </style>
    </defs>
    <g id="Group_10151" transform="translate(-98.913 -76.394)">
        <g id="CarWiz" transform="translate(98.783 88.859)" style="isolation:isolate">
            <path id="Path_22470" fill="#04072e" d="M10.557.432A9.543 9.543 0 0 1 3.483-2.4 9.615 9.615 0 0 1 .675-9.45a9.615 9.615 0 0 1 2.808-7.05 9.543 9.543 0 0 1 7.074-2.835 9.712 9.712 0 0 1 4.833 1.245 9.088 9.088 0 0 1 3.456 3.348l-4.7 2.7a3.385 3.385 0 0 0-1.429-1.458 4.372 4.372 0 0 0-2.16-.54 4.284 4.284 0 0 0-3.24 1.3 4.568 4.568 0 0 0-1.242 3.29 4.568 4.568 0 0 0 1.242 3.294 4.284 4.284 0 0 0 3.24 1.3 4.351 4.351 0 0 0 2.174-.54 3.367 3.367 0 0 0 1.417-1.485l4.7 2.7A9.026 9.026 0 0 1 15.39-.81 9.712 9.712 0 0 1 10.557.432zM28.269 0l-.648-2.43h-5.454L21.519 0h-5.805l6.021-18.9h6.318L34.074 0zm-4.941-6.75h3.132l-1.566-5.805zM42.039-.027l-3-5.94h-1.35v5.94h-5.4v-18.9h7.56a7.379 7.379 0 0 1 5.13 1.823 6.171 6.171 0 0 1 2.025 4.819 6 6 0 0 1-.77 3.024 6.02 6.02 0 0 1-2.146 2.187l3.729 7.047zm-4.347-13.932v3.51h2.052a1.847 1.847 0 0 0 1.363-.432 1.672 1.672 0 0 0 .5-1.3 1.716 1.716 0 0 0-.5-1.309 1.9 1.9 0 0 0-1.363-.473z" transform="translate(-.544 18.48)"/>
            <path id="Path_22469" fill="#07b9e0" d="M5.346 0L0-18.9h5.94L8.505-8.505 11.556-18.9h4.158l3.051 10.395L21.33-18.9h5.94L21.924 0H16.6l-2.97-10.1L10.665 0zm21.276-18.9h5.4V0h-5.4zM39.258-5.238h6.291V0H32.184v-4.158l6.021-9.5h-5.886V-18.9h12.96v4.158z" transform="translate(42.661 18.48)"/>
        </g>
        <g id="Group_8385" transform="translate(182.13 76.394)">
            <path id="Path_21841" fill="#ccc" fill-rule="evenodd" d="M398.925 199.366c-6.563 0-11.883.242-11.883.542s5.32.542 11.883.542 11.883-.243 11.883-.542-5.32-.542-11.883-.542z" transform="translate(-387.042 -165.577)"/>
            <path id="Path_21842" fill="#f8c81e" fill-rule="evenodd" stroke="#191405" stroke-miterlimit="10" d="M399.209 101.387a9.7 9.7 0 0 0-5.065 8.505l.006 7.125a9.7 9.7 0 0 0 9.682 9.671 9.7 9.7 0 0 0 9.671-9.682l-.006-7.125a9.7 9.7 0 0 0-9.682-9.671 9.626 9.626 0 0 0-1.951.2" transform="translate(-392.219 -93.294)"/>
            <path id="Path_21843" d="M401.129 127c.056-1.59 1.662-1.591 1.72 0 .4 4.595 7.37 5.04 8.158.724.146-.8.346-2.215 1.337-2.371v-1.1c-1.719-.037-3.343-.564-5.044-.516-2.283.066-3.06 1.076-5.312 1.237-2.252-.158-3.03-1.168-5.313-1.231-1.7-.046-3.325.482-5.043.521v1.1c.991.155 1.193 1.57 1.34 2.369.794 4.314 7.761 3.862 8.158-.734zm2.385-.035c-.051-1.143.123-1.615 1.231-1.989a8.675 8.675 0 0 1 2.561-.559c2.457-.071 3.506.537 3.021 3.186-.648 3.545-6.458 3.142-6.813-.637zm-3.048-.015c-.353 3.8-6.162 4.207-6.814.662-.487-2.648.561-3.257 3.018-3.189a8.666 8.666 0 0 1 2.562.557c1.108.373 1.283.844 1.234 1.971z" class="cls-6" transform="translate(-390.387 -110.443)"/>
            <path id="Path_21844" d="M414.777 156.021a.309.309 0 1 0 .116-.607 1.385 1.385 0 0 0-1.456.667.309.309 0 0 0 .535.309.768.768 0 0 1 .1-.133 4.135 4.135 0 0 0 7.58 0 .781.781 0 0 1 .1.133.309.309 0 0 0 .535-.31 1.384 1.384 0 0 0-1.456-.666.309.309 0 0 0 .114.607.822.822 0 0 1 .146-.014 3.518 3.518 0 0 1-6.451 0 .785.785 0 0 1 .144.014z" class="cls-6" transform="translate(-406.253 -133.517)"/>
            <path id="Path_21845" d="M407.036 128.56a2 2 0 1 0 2 2 2 2 0 0 0-2-2z" class="cls-7" transform="translate(-400.158 -113.961)"/>
            <path id="Path_21846" d="M441.885 128.541a2 2 0 1 0 2 2 2 2 0 0 0-2-2z" class="cls-7" transform="translate(-425.563 -113.947)"/>
            <path id="Path_21847" d="M409.737 132.165a1.027 1.027 0 0 0-.977 1.34.649.649 0 0 1 1.071.708 1.026 1.026 0 0 0 .855-1.411h-.04a.348.348 0 0 1-.348-.348.339.339 0 0 1 .018-.111 1.021 1.021 0 0 0-.579-.179z" class="cls-6" transform="translate(-402.839 -116.589)"/>
            <path id="Path_21848" fill="#313131" fill-rule="evenodd" d="M444.443 132.146a1.026 1.026 0 0 0-1 1.254.648.648 0 0 1 .976.8h.025a1.026 1.026 0 0 0 .936-1.444.349.349 0 0 1-.492-.317.353.353 0 0 1 .043-.167 1.022 1.022 0 0 0-.488-.123z" transform="translate(-428.139 -116.575)"/>
            <path id="Path_21849" d="M394.46 80.626a6.992 6.992 0 0 0 1.554 1.013c-1.829-1.481-1.6-2.536-.967-5.385l.182-.837.152-.727.351.659a.438.438 0 0 1 .036.059c.153.218.941 1.119 3.786 1.436 1.709.19 3.209.364 4.3.512a9.212 9.212 0 0 1 2.042.385 15.021 15.021 0 0 1 1.3 1.247 1.157 1.157 0 0 0-.053-.367 5.766 5.766 0 0 0-.853-1.556l-.331-.476.6.1a4.742 4.742 0 0 1 2.158.82 3.786 3.786 0 0 1 1.131 1.4 6.38 6.38 0 0 1 .384.931 6.791 6.791 0 0 0 .181-.918l.074-.6.414.464a8.253 8.253 0 0 1 1.305 1.867 4.659 4.659 0 0 1 .47 2.183v.025a30.3 30.3 0 0 1 .67 3.314 16.474 16.474 0 0 1-.569 4.092l-2.026-4.359c0-.006-.739-.2-.917-.54a4.827 4.827 0 0 0-1.135-1.259 2.176 2.176 0 0 0-1.112-.5 23.254 23.254 0 0 0-3.916.225h-.007l-.055.008-.053-.017c-.574-.157-1.254-.342-1.93-.5a13.129 13.129 0 0 0-1.91-.331 2.179 2.179 0 0 0-1.177.321 4.715 4.715 0 0 0-1.317 1.067c-.229.308-2.761 3.114-2.761 3.114s.544-.953.387-1.21c-.848-1.356-.756-2.751-.85-5.474l-.02-.615z" transform="translate(-392.097 -74.69)"/>
        </g>
    </g>
</svg>
