<svg xmlns="http://www.w3.org/2000/svg" viewBox="0 0 195.802 176.913"><defs/><defs><style>.cls-3,.cls-4{fill-rule:evenodd}.cls-4{fill:#fff}</style></defs><g id="Group_10720" transform="translate(-97 -263.815)"><g id="Group_10701" transform="translate(97 285.425)"><circle id="Ellipse_1224" cx="77.652" cy="77.652" r="77.652" fill="#fcf8c8"/><g id="Group_10700" transform="translate(46.763 28.315)"><path id="Path_22777" fill="#f8c81e" fill-rule="evenodd" stroke="#191405" stroke-miterlimit="10" stroke-width="2" d="M17.149 24.153A28.958 28.958 0 002.032 49.537l.018 21.266a28.964 28.964 0 0028.9 28.864 28.963 28.963 0 0028.864-28.9l-.018-21.266a28.963 28.963 0 00-28.9-28.864 28.733 28.733 0 00-5.822.6"/><path id="Path_22778" d="M419.977 133.481c.166-4.746 4.961-4.75 5.133 0 1.2 13.714 22 15.042 24.349 2.162.436-2.386 1.034-6.611 3.991-7.075v-3.281c-5.13-.112-9.978-1.683-15.055-1.541-6.814.2-9.132 3.212-15.852 3.692-6.721-.472-9.042-3.485-15.856-3.674-5.077-.138-9.924 1.439-15.053 1.556v3.281c2.958.462 3.561 4.685 4 7.071 2.368 12.877 23.164 11.526 24.347-2.19zm7.117-.106c-.153-3.412.368-4.82 3.673-5.937a25.891 25.891 0 017.644-1.669c7.332-.212 10.463 1.6 9.018 9.508-1.934 10.581-19.274 9.378-20.334-1.9zm-9.1-.046c-1.053 11.332-18.391 12.555-20.337 1.974-1.453-7.9 1.675-9.721 9.007-9.518a25.864 25.864 0 017.646 1.662c3.306 1.114 3.829 2.52 3.684 5.881z" class="cls-3" transform="translate(-391.631 -84.066)"/><path id="Path_22780" d="M417.519 157.28a.922.922 0 10.345-1.812 4.134 4.134 0 00-4.345 1.991.923.923 0 001.6.924 2.294 2.294 0 01.287-.4 12.342 12.342 0 0022.622-.012 2.337 2.337 0 01.288.4.922.922 0 001.6-.924 4.131 4.131 0 00-4.344-1.987.921.921 0 00.341 1.811 2.454 2.454 0 01.434-.04 10.5 10.5 0 01-19.252.01 2.344 2.344 0 01.431.04z" class="cls-3" transform="translate(-395.792 -90.116)"/><path id="Path_22781" d="M411.008 128.56a5.978 5.978 0 105.982 5.975 5.978 5.978 0 00-5.982-5.975z" class="cls-4" transform="translate(-394.193 -84.988)"/><path id="Path_22782" d="M445.859 128.541a5.978 5.978 0 105.98 5.974 5.978 5.978 0 00-5.98-5.974z" class="cls-4" transform="translate(-400.855 -84.984)"/><path id="Path_22783" d="M411.772 132.165a3.067 3.067 0 00-2.915 4 1.936 1.936 0 013.2 2.113 3.061 3.061 0 002.551-4.212c-.038 0-.077.006-.118.007a1.039 1.039 0 01-1.039-1.039 1.006 1.006 0 01.053-.332 3.047 3.047 0 00-1.729-.534z" class="cls-3" transform="translate(-394.896 -85.676)"/><path id="Path_22784" fill="#313131" fill-rule="evenodd" d="M446.478 132.146a3.061 3.061 0 00-2.983 3.742 1.935 1.935 0 012.912 2.38h.075a3.062 3.062 0 002.793-4.31 1.041 1.041 0 01-1.469-.947 1.056 1.056 0 01.127-.5 3.051 3.051 0 00-1.455-.366z" transform="translate(-401.532 -85.673)"/><path id="Path_22779" d="M395.421 92.405a20.869 20.869 0 004.639 3.023c-5.458-4.42-4.767-7.57-2.885-16.072.126-.569.253-1.157.542-2.5l.454-2.168 1.047 1.968a1.287 1.287 0 01.108.177c.457.652 2.809 3.339 11.3 4.284 5.1.568 9.577 1.086 12.837 1.528 3.4.454 5.63.834 6.094 1.15a44.846 44.846 0 013.878 3.722 3.453 3.453 0 00-.158-1.1 17.207 17.207 0 00-2.545-4.645l-.988-1.422 1.788.29a14.152 14.152 0 016.44 2.447 11.3 11.3 0 013.375 4.168 19.045 19.045 0 011.145 2.78 20.273 20.273 0 00.539-2.741l.221-1.776 1.234 1.386a24.638 24.638 0 013.9 5.573 13.9 13.9 0 011.4 6.516v.074c-.171 1.229 1.848 5.289 2 9.89a49.167 49.167 0 01-1.7 12.212l-6.045-13.011c0-.019-2.2-.6-2.735-1.611a14.4 14.4 0 00-3.387-3.759 6.493 6.493 0 00-3.32-1.493 69.4 69.4 0 00-11.687.673h-.02l-.165.024-.159-.05c-1.713-.47-3.744-1.022-5.761-1.5a39.185 39.185 0 00-5.7-.988 6.5 6.5 0 00-3.513.958 14.074 14.074 0 00-3.931 3.185c-.683.918-8.239 9.3-8.239 9.3s1.623-2.845 1.154-3.61c-2.531-4.046-2.258-8.21-2.537-16.338l-.059-1.835z" transform="translate(-392.08 -74.69)"/></g></g><g id="Group_10702" transform="translate(194.405 263.815)"><g id="Group_10133"><g id="Union_46" fill="#fff" stroke="none"><path d="M14.934 80.849l6.818-19.486.438-1.251-1.187-.589c-5.958-2.955-10.89-6.854-14.263-11.275-1.699-2.227-3.006-4.585-3.885-7.008-.9-2.477-1.355-5.038-1.355-7.61 0-4.257 1.225-8.396 3.642-12.301 2.367-3.826 5.77-7.271 10.114-10.24 4.387-2.999 9.504-5.356 15.209-7.005C36.395 2.369 42.698 1.5 49.199 1.5c6.5 0 12.803.87 18.733 2.584 5.705 1.65 10.822 4.006 15.209 7.004 4.344 2.97 7.747 6.415 10.115 10.24 2.416 3.906 3.641 8.045 3.641 12.301 0 4.257-1.225 8.396-3.641 12.301-2.368 3.826-5.77 7.271-10.115 10.24-4.387 3-9.504 5.356-15.209 7.005C62.002 64.89 55.7 65.76 49.2 65.76c-6.256 0-12.34-.807-18.08-2.399l-.917-.254-.62.721-14.65 17.022z"/><path fill="#263238" d="M18.968 73.86l9.476-11.011 1.242-1.443 1.834.509c5.61 1.555 11.558 2.344 17.679 2.344 6.36 0 12.522-.85 18.317-2.525 5.551-1.605 10.524-3.893 14.778-6.802 4.171-2.85 7.43-6.145 9.686-9.79 2.268-3.666 3.417-7.539 3.417-11.513 0-3.973-1.15-7.846-3.417-11.51-2.256-3.647-5.515-6.941-9.686-9.792-4.254-2.909-9.227-5.197-14.778-6.802C61.72 3.849 55.558 3 49.199 3c-6.36 0-12.523.85-18.317 2.525-5.552 1.605-10.524 3.893-14.78 6.802-4.17 2.85-7.428 6.145-9.685 9.791C4.15 25.783 3 29.656 3 33.63c0 2.398.426 4.787 1.265 7.1.827 2.28 2.061 4.503 3.668 6.609 3.234 4.24 7.984 7.988 13.736 10.842l2.374 1.177-.875 2.5-4.2 12.004m-8.069 13.976l9.437-26.97C8.014 54.755 0 44.832 0 33.63 0 15.057 22.027 0 49.199 0 76.37 0 98.397 15.057 98.397 33.63S76.37 67.258 49.2 67.258c-6.536 0-12.775-.871-18.48-2.453L10.9 87.835z"/></g></g><path id="Path_24346" fill="#263238" d="M6.808 20.379V17.5a4.115 4.115 0 01.346-1.908 2.409 2.409 0 011.216-1.017 8.58 8.58 0 011.53-.435 8.39 8.39 0 001.618-.48 3.983 3.983 0 001.931-1.406A3.853 3.853 0 0014.084 10a2.831 2.831 0 00-.937-2.12 3.152 3.152 0 00-2.254-.893 4.724 4.724 0 00-2.143.48 7.661 7.661 0 00-2.076 1.684q-.134.134-.424.446-1.85 2.054-3.281 2.054a2.741 2.741 0 01-2.12-.937A3.424 3.424 0 010 8.326Q0 5.2 3.236 2.667A12.052 12.052 0 0110.892.134a11 11 0 017.835 2.935 9.568 9.568 0 013.125 7.265 9.518 9.518 0 01-2.165 6.317 9.656 9.656 0 01-5.826 3.281v.134a5.118 5.118 0 01-.96 3.292 3.172 3.172 0 01-2.611 1.194 3.177 3.177 0 01-2.567-1.082 4.659 4.659 0 01-.915-3.091zm-.491 9.977a3.8 3.8 0 011.172-2.824 3.913 3.913 0 012.846-1.15 3.963 3.963 0 013.973 3.973 3.885 3.885 0 01-1.172 2.835 3.8 3.8 0 01-2.8 1.183 4.039 4.039 0 01-4.018-4.018zm27.052-11.718a7.142 7.142 0 01-.882 3.973 3.032 3.032 0 01-2.69 1.295 3.029 3.029 0 01-2.678-1.306 7.079 7.079 0 01-.893-3.962V5.2a6.922 6.922 0 01.893-3.906A3.038 3.038 0 0129.8 0a3.041 3.041 0 012.69 1.283 6.983 6.983 0 01.879 3.917zm-7.544 11.718a3.973 3.973 0 117.946 0 3.885 3.885 0 01-1.171 2.835 3.934 3.934 0 01-5.614.011 3.893 3.893 0 01-1.161-2.846z" transform="rotate(-7 168.301 -229.381)"/></g></g></svg>