<svg xmlns="http://www.w3.org/2000/svg" width="324" height="151" viewBox="0 0 324 151">
  <defs>
    <style>
      .cls-1 {
        fill: #ededed;
      }

      .cls-2 {
        fill: #d3d3d3;
      }
    </style>
  </defs>
  <g id="Group_10701" data-name="Group 10701" transform="translate(-22 -111)">
    <rect id="Rectangle_15245" data-name="Rectangle 15245" class="cls-1" width="324" height="151" transform="translate(22 111)"/>
    <g id="employee" transform="translate(153.092 152.088)">
      <g id="Group_10663" data-name="Group 10663" transform="translate(-0.001 0)">
        <path id="Path_26383" data-name="Path 26383" class="cls-2" d="M65.746,85.935A2.049,2.049,0,0,0,63.7,83.889H59.36a2.049,2.049,0,0,0-2.046,2.046v4.339a2.049,2.049,0,0,0,2.046,2.046H63.7a2.049,2.049,0,0,0,2.046-2.046V85.935ZM63.73,90.275a.03.03,0,0,1-.03.03H59.36a.03.03,0,0,1-.03-.03V85.935a.03.03,0,0,1,.03-.03H63.7a.03.03,0,0,1,.03.03v4.339Z" transform="translate(-49.613 -72.612)"/>
        <path id="Path_26384" data-name="Path 26384" class="cls-2" d="M146,85.935a2.049,2.049,0,0,0-2.046-2.046h-4.339a2.049,2.049,0,0,0-2.046,2.046v4.339a2.049,2.049,0,0,0,2.046,2.046h4.339A2.049,2.049,0,0,0,146,90.275Zm-2.016,4.339a.03.03,0,0,1-.03.03h-4.339a.03.03,0,0,1-.03-.03V85.935a.03.03,0,0,1,.03-.03h4.339a.03.03,0,0,1,.03.03Z" transform="translate(-119.082 -72.612)"/>
        <path id="Path_26385" data-name="Path 26385" class="cls-2" d="M65.746,168.883a2.049,2.049,0,0,0-2.046-2.046H59.36a2.049,2.049,0,0,0-2.046,2.046v4.339a2.049,2.049,0,0,0,2.046,2.046H63.7a2.049,2.049,0,0,0,2.046-2.046v-4.339Zm-2.016,4.339a.03.03,0,0,1-.03.03H59.36a.03.03,0,0,1-.03-.03v-4.339a.03.03,0,0,1,.03-.03H63.7a.03.03,0,0,1,.03.03v4.339Z" transform="translate(-49.613 -144.41)"/>
        <path id="Path_26386" data-name="Path 26386" class="cls-2" d="M146,168.883a2.049,2.049,0,0,0-2.046-2.046h-4.339a2.049,2.049,0,0,0-2.046,2.046v4.339a2.049,2.049,0,0,0,2.046,2.046h4.339A2.049,2.049,0,0,0,146,173.223Zm-2.016,4.339a.03.03,0,0,1-.03.03h-4.339a.03.03,0,0,1-.03-.03v-4.339a.03.03,0,0,1,.03-.03h4.339a.03.03,0,0,1,.03.03Z" transform="translate(-119.082 -144.41)"/>
        <path id="Path_26387" data-name="Path 26387" class="cls-2" d="M63.7,249.785H59.36a2.049,2.049,0,0,0-2.046,2.046v4.339a2.049,2.049,0,0,0,2.046,2.046H63.7a2.049,2.049,0,0,0,2.046-2.046v-4.339A2.049,2.049,0,0,0,63.7,249.785Zm.03,6.386a.03.03,0,0,1-.03.03H59.36a.03.03,0,0,1-.03-.03v-4.339a.03.03,0,0,1,.03-.03H63.7a.03.03,0,0,1,.03.03v4.339Z" transform="translate(-49.613 -216.208)"/>
        <path id="Path_26388" data-name="Path 26388" class="cls-2" d="M143.958,249.785h-4.339a2.049,2.049,0,0,0-2.046,2.046v4.339a2.049,2.049,0,0,0,2.046,2.046h4.339A2.049,2.049,0,0,0,146,256.171v-4.339A2.049,2.049,0,0,0,143.958,249.785Zm.03,6.386a.03.03,0,0,1-.03.03h-4.339a.03.03,0,0,1-.03-.03v-4.339a.03.03,0,0,1,.03-.03h4.339a.03.03,0,0,1,.03.03Z" transform="translate(-119.082 -216.208)"/>
        <path id="Path_26389" data-name="Path 26389" class="cls-2" d="M65.634,62.414h-1.5V53.9a7.741,7.741,0,0,0-5.53-7.387L52.5,44.716a2.119,2.119,0,0,0-.587-.391l-1.268-.565a2.551,2.551,0,0,0-1.119-.219V40.7a9.134,9.134,0,0,0,3.707-6.324,2.284,2.284,0,0,0,1.733-2.213V24.139a3.428,3.428,0,0,0-3.318-3.422,3.428,3.428,0,0,0-3.418-3.233H39.909a6.537,6.537,0,0,0-2.188.376c.006-.065.01-.131.01-.2V13.323a2.049,2.049,0,0,0-2.046-2.046H31.346A2.049,2.049,0,0,0,29.3,13.323v4.339a2.049,2.049,0,0,0,2.046,2.046h3.643a6.557,6.557,0,0,0-1.443,2.718h-2.2A2.049,2.049,0,0,0,29.3,24.473v4.339a2.049,2.049,0,0,0,2.046,2.046h2v1.3a2.269,2.269,0,0,0,.493,1.415h-2.49A2.049,2.049,0,0,0,29.3,35.623v4.339a2.049,2.049,0,0,0,2.046,2.046h4.339a2.048,2.048,0,0,0,2.046-2.046v-.155a9.231,9.231,0,0,0,1.05.892v2.837a2.549,2.549,0,0,0-1.107.222l-1.243.558a2.116,2.116,0,0,0-.583.39l-6.142,1.8A7.741,7.741,0,0,0,24.175,53.9v.684a1.008,1.008,0,0,0,2.016,0V53.9a5.714,5.714,0,0,1,4.082-5.453L35.3,46.968a2.126,2.126,0,0,0,.5.78L39.243,51.2l.01.01a2.185,2.185,0,0,0,1.919.59l.715,1.228-1.664,9.39H32.5v-2.19a1.008,1.008,0,0,0-2.016,0v2.19H26.191V59.293a1.008,1.008,0,0,0-2.016,0v3.121h-4.2V50.65h.127a1.008,1.008,0,1,0,0-2.016H7.969a1.008,1.008,0,1,0,0,2.016H8.1V62.414H4.445V9.625A1.524,1.524,0,0,1,5.968,8.1H39.486a1.524,1.524,0,0,1,1.522,1.523v4.088a1.008,1.008,0,1,0,2.016,0V9.625a3.543,3.543,0,0,0-3.087-3.509V2.48A2.483,2.483,0,0,0,37.458,0H8a2.483,2.483,0,0,0-2.48,2.48V6.116A3.543,3.543,0,0,0,2.429,9.625V62.514a3.205,3.205,0,0,0,.8,6.31H65.635a3.205,3.205,0,1,0,0-6.41ZM8,2.016H37.458a.464.464,0,0,1,.464.464V6.086H7.532V2.48A.464.464,0,0,1,8,2.016ZM62.122,53.9v8.519h-4.3v-2.19a1.008,1.008,0,0,0-2.016,0v2.19H48.092l-1.667-9.4.725-1.3a2.181,2.181,0,0,0,1.937-.58l3.445-3.355a2.1,2.1,0,0,0,.514-.8l5,1.466A5.714,5.714,0,0,1,62.122,53.9Zm-18.6-2.067-.635-1.09,1.352-1.129,1.2,1.028-.665,1.192H43.524Zm6.3-6.226,1.268.565a.1.1,0,0,1,.03.169l-3.44,3.35a.181.181,0,0,1-.243.007l-1.6-1.365,3.435-2.66a.536.536,0,0,1,.547-.066ZM48.232,19.5a1.409,1.409,0,0,1,1.407,1.407,1.826,1.826,0,0,0,1.824,1.824h.081a1.409,1.409,0,0,1,1.407,1.407v4.266h-.661a.673.673,0,0,1-.673-.673v-.92a2.775,2.775,0,0,0-3.655-2.642,12.215,12.215,0,0,1-7.617,0,2.78,2.78,0,0,0-3.655,2.642v.92a.673.673,0,0,1-.673.673h-.661V24.052A4.556,4.556,0,0,1,39.909,19.5ZM31.316,17.662V13.323a.03.03,0,0,1,.03-.03h4.339a.03.03,0,0,1,.03.03v4.339a.03.03,0,0,1-.03.03H31.346A.03.03,0,0,1,31.316,17.662Zm0,11.15V24.473a.03.03,0,0,1,.03-.03h2v4.4h-2a.03.03,0,0,1-.03-.03Zm4.4,11.15a.03.03,0,0,1-.03.03H31.346a.03.03,0,0,1-.03-.03V35.623a.03.03,0,0,1,.03-.03H35.3a9.043,9.043,0,0,0,.413,1.233v3.137Zm1.328-6.2a1.43,1.43,0,0,0-1.422-1.339.264.264,0,0,1-.264-.264v-1.74h.661a2.692,2.692,0,0,0,2.689-2.689v-.92a.766.766,0,0,1,1.01-.726,14.243,14.243,0,0,0,8.878,0,.766.766,0,0,1,1.007.727v.92a2.692,2.692,0,0,0,2.689,2.689h.661v1.74a.264.264,0,0,1-.264.264,1.43,1.43,0,0,0-1.422,1.339,7.126,7.126,0,0,1-14.223,0Zm7.112,8.688a9.086,9.086,0,0,0,3.357-.641v2.675l-3.275,2.536-3.44-2.57v-2.64a9.09,9.09,0,0,0,3.358.641Zm-6.929,3.87a.1.1,0,0,1,.031-.168L38.5,45.6a.538.538,0,0,1,.541.06l3.582,2.676L40.9,49.771a.181.181,0,0,1-.24-.006Zm6.563,7.521h.735l1.52,8.57H42.271ZM10.112,50.65h7.851V62.414H10.112ZM65.634,66.808H3.226a1.189,1.189,0,1,1,0-2.378H65.635a1.189,1.189,0,1,1,0,2.378Z" transform="translate(-0.021 0)"/>
      </g>
    </g>
  </g>
</svg>
