<svg xmlns="http://www.w3.org/2000/svg" width="297.441" height="296.977" viewBox="0 0 297.441 296.977">
    <defs>
        <clipPath id="clip-path">
            <path id="Rectangle_15226" fill="#fff" stroke="#707070" d="M0 0H155V150H0z" transform="translate(39.535 5.219)"/>
        </clipPath>
        <style>
            .cls-6{fill:#fff}.cls-2{fill:#e5f2f8}.cls-3{fill:#e3efff}.cls-4{fill:#e0e0e0}.cls-5{fill:#cbddf5}.cls-7{fill:#455a64}.cls-8{fill:#263238}.cls-10{fill:#ffc727}.cls-11{opacity:.5}.cls-12{fill:#fafafa}.cls-13{opacity:.4}.cls-14{fill:#ffbe9d}.cls-15{fill:#eb996e}
        </style>
    </defs>
    <g id="Group_10605" transform="translate(15053 12404)">
        <g id="Price-pana" transform="translate(-15053 -12404)">
            <g id="freepik--background-complete--inject-4">
                <path id="Path_26160" d="M80.507 135.4a24.869 24.869 0 1 1-28.173-20.949A24.869 24.869 0 0 1 80.507 135.4z" class="cls-2" transform="translate(-31.039 -53.972)"/>
                <path id="Path_26161" d="M77.518 139.072a18.922 18.922 0 1 1-7.424-12.446 18.922 18.922 0 0 1 7.424 12.446z" class="cls-3" transform="translate(-33.902 -56.791)"/>
                <path id="Path_26162" d="M77.236 138.185a11.419 11.419 0 0 1-.824-2.185 20.178 20.178 0 0 0-3-5.406 19.076 19.076 0 0 0-2.98-3.048 18.846 18.846 0 0 0-4.143-2.561 18.449 18.449 0 0 0-5.149-1.48 17.863 17.863 0 0 0-2.832-.169 18.612 18.612 0 0 0-5.744 1.02 18.178 18.178 0 0 0-4.926 2.588 17.7 17.7 0 0 0-2.027 1.71 19.016 19.016 0 0 0-3.007 3.825 19.281 19.281 0 0 0-1.744 3.893 20.017 20.017 0 0 0-.946 6.129 14.917 14.917 0 0 1 0 2.331 5.378 5.378 0 0 1-.547-2.3 17.685 17.685 0 0 1 .527-6.454 19.05 19.05 0 0 1 1.683-4.19 19.5 19.5 0 0 1 3.109-4.183 18.925 18.925 0 0 1 2.115-1.872 18.633 18.633 0 0 1 2.487-1.6 19.084 19.084 0 0 1 2.8-1.243 19.537 19.537 0 0 1 6.19-1.095 19.919 19.919 0 0 1 3.061.2 18.789 18.789 0 0 1 2.879.676 18.086 18.086 0 0 1 2.636 1.027 19.4 19.4 0 0 1 4.352 2.852 19.1 19.1 0 0 1 3.027 3.379 17.57 17.57 0 0 1 2.7 5.873 5.208 5.208 0 0 1 .303 2.283z" class="cls-4" transform="translate(-33.709 -56.472)"/>
                <path id="Path_26163" d="M67.523 155.429l.52 3.257-2.906.466-.507-3.169a14.013 14.013 0 0 1-7.623-1.169l1.034-3.8a11.934 11.934 0 0 0 5.974 1.162l-.8-4.852c-3.379-.264-7.136-.764-7.805-4.926-.493-3.088 1.352-6.082 5.839-7.353l-.5-3.264 2.913-.466.507 3.169a13.326 13.326 0 0 1 6.2.831l-.885 3.811a12.1 12.1 0 0 0-4.73-.8l.831 4.94c3.379.237 7.075.75 7.731 4.852.478 3.033-1.316 6.006-5.793 7.311zm-4.981-12.421l-.676-4.129c-1.487.595-1.967 1.534-1.811 2.5s1.136 1.426 2.487 1.629zm6.129 6.217c-.169-1.02-1.095-1.439-2.419-1.676l.642 4.014c1.419-.547 1.939-1.406 1.791-2.338z" class="cls-4" transform="translate(-38.916 -59.523)"/>
                <path id="Path_26164" d="M348.665 56.3a25.213 25.213 0 1 1-28.572-21.267A25.213 25.213 0 0 1 348.665 56.3z" class="cls-3" transform="translate(-117.757 -28.22)"/>
                <path id="Path_26165" d="M345.6 60.03a19.212 19.212 0 1 1-21.767-16.219A19.212 19.212 0 0 1 345.6 60.03z" class="cls-3" transform="translate(-120.634 -31.088)"/>
                <path id="Path_26166" d="M345.351 59.072a12.266 12.266 0 0 1-.838-2.217 19.8 19.8 0 0 0-6.082-8.6 19.131 19.131 0 0 0-4.2-2.6 17.462 17.462 0 0 0-2.5-.926 18.528 18.528 0 0 0-2.7-.581 19.125 19.125 0 0 0-2.872-.169 21.1 21.1 0 0 0-2.953.291 20.706 20.706 0 0 0-2.865.743 18.919 18.919 0 0 0-2.642 1.149 17.359 17.359 0 0 0-2.358 1.48 18.071 18.071 0 0 0-2.027 1.73 19.1 19.1 0 0 0-3.048 3.886 19.41 19.41 0 0 0-1.771 3.94 20.2 20.2 0 0 0-.96 6.217 15.4 15.4 0 0 1 0 2.365 5.476 5.476 0 0 1-.554-2.338 17.752 17.752 0 0 1 .534-6.542 19.289 19.289 0 0 1 1.71-4.251 19.667 19.667 0 0 1 16.942-10.11 20.272 20.272 0 0 1 3.1.2 19.409 19.409 0 0 1 2.926.676 18.242 18.242 0 0 1 2.669 1.041 19.211 19.211 0 0 1 7.481 6.3 17.57 17.57 0 0 1 2.75 5.954 5.731 5.731 0 0 1 .258 2.362z" class="cls-5" transform="translate(-120.471 -30.745)"/>
                <path id="Path_26167" d="M335.511 76.606l.527 3.3-2.946.473-.52-3.217a14.118 14.118 0 0 1-7.724-1.189l1.047-3.859a12.1 12.1 0 0 0 6.082 1.183l-.811-4.933c-3.379-.27-7.238-.777-7.913-4.994-.5-3.129 1.352-6.177 5.92-7.434l-.527-3.278 2.953-.473.514 3.217a13.468 13.468 0 0 1 6.278.845l-.892 3.865a12.2 12.2 0 0 0-4.764-.811l.8 5.014c3.379.243 7.177.757 7.839 4.92.496 3.053-1.322 6.065-5.863 7.371zm-5.021-12.57l-.676-4.19c-1.507.6-1.987 1.554-1.831 2.534s1.155 1.447 2.507 1.656zm6.217 6.3c-.169-1.034-1.115-1.46-2.453-1.7l.676 4.055c1.379-.547 1.906-1.419 1.757-2.385z" class="cls-5" transform="translate(-125.754 -33.871)"/>
                <path id="Path_26168" d="M452.554 178.4a19.172 19.172 0 1 1-7.514-12.62 19.2 19.2 0 0 1 7.514 12.62z" class="cls-3" transform="translate(-155.318 -69.467)"/>
                <path id="Path_26169" d="M450.226 181.259a14.631 14.631 0 1 1-16.577-12.333 14.631 14.631 0 0 1 16.577 12.333z" class="cls-3" transform="translate(-157.511 -71.669)"/>
                <path id="Path_26170" d="M450.029 180.546a9.91 9.91 0 0 1-.635-1.689 15.539 15.539 0 0 0-2.311-4.19 14.978 14.978 0 0 0-2.3-2.352 14.689 14.689 0 0 0-3.2-1.98 15.207 15.207 0 0 0-6.17-1.243 15.845 15.845 0 0 0-2.244.216 16.5 16.5 0 0 0-2.19.568 14.191 14.191 0 0 0-5.345 3.318 14.564 14.564 0 0 0-2.325 2.96 14.807 14.807 0 0 0-1.352 2.994 15.544 15.544 0 0 0-.73 4.73 7.848 7.848 0 0 1 0 1.8 4.453 4.453 0 0 1-.419-1.777 13.517 13.517 0 0 1 .405-4.974 14.439 14.439 0 0 1 1.3-3.237 14.686 14.686 0 0 1 2.392-3.223 14.039 14.039 0 0 1 1.635-1.446 13.693 13.693 0 0 1 1.919-1.237 14.493 14.493 0 0 1 2.162-.96 15.9 15.9 0 0 1 2.359-.622 16.454 16.454 0 0 1 2.426-.23 14.854 14.854 0 0 1 6.616 1.453 14.59 14.59 0 0 1 5.7 4.791 13.4 13.4 0 0 1 2.095 4.535 4.2 4.2 0 0 1 .212 1.795z" class="cls-5" transform="translate(-157.388 -71.409)"/>
                <path id="Path_26171" d="M442.5 193.864l.405 2.514-2.244.358-.392-2.446a10.813 10.813 0 0 1-5.886-.9l.8-2.94a9.164 9.164 0 0 0 4.616.892l-.6-3.751c-2.588-.2-5.508-.588-6.021-3.8-.385-2.379 1.02-4.73 4.5-5.677l-.4-2.494 2.25-.358.392 2.446a10.373 10.373 0 0 1 4.778.676l-.676 2.946a9.46 9.46 0 0 0-3.622-.622l.615 3.818c2.581.189 5.46.581 5.967 3.751.386 2.296-.999 4.594-4.482 5.587zm-3.832-9.569l-.514-3.19c-1.149.46-1.514 1.183-1.392 1.926s.892 1.108 1.933 1.264zm4.73 4.791c-.128-.784-.845-1.108-1.865-1.291l.493 3.1c1.149-.426 1.514-1.088 1.4-1.811z" class="cls-5" transform="translate(-161.398 -73.773)"/>
                <path id="Path_26172" d="M184.655 376.887a21.9 21.9 0 1 1-16.563-26.146 21.9 21.9 0 0 1 16.563 26.146z" class="cls-3" transform="translate(-66.812 -130.492)"/>
                <path id="Path_26173" d="M182.074 378.248a16.692 16.692 0 1 1-12.624-19.915 16.692 16.692 0 0 1 12.624 19.915z" class="cls-3" transform="translate(-69.312 -132.995)"/>
                <path id="Path_26174" d="M182.315 377.433a10.336 10.336 0 0 1 0-2.027 17.672 17.672 0 0 0-.757-5.406 17.126 17.126 0 0 0-1.487-3.446 16.415 16.415 0 0 0-2.6-3.379 14.731 14.731 0 0 0-1.744-1.534 15.1 15.1 0 0 0-2.027-1.311 15.475 15.475 0 0 0-2.277-1.027 16.376 16.376 0 0 0-7.542-.865 16.759 16.759 0 0 0-2.372.466 15.71 15.71 0 0 0-2.183.777 16.67 16.67 0 0 0-3.683 2.2 17.232 17.232 0 0 0-2.656 2.642 17.772 17.772 0 0 0-2.7 4.73 10.415 10.415 0 0 1-.75 1.912 4.928 4.928 0 0 1 .277-2.068 15.387 15.387 0 0 1 2.46-5.143 16.839 16.839 0 0 1 2.7-2.913 17.108 17.108 0 0 1 3.865-2.46 16.037 16.037 0 0 1 2.352-.912 17.071 17.071 0 0 1 13.13 1.5 15.724 15.724 0 0 1 2.169 1.446 16.291 16.291 0 0 1 1.845 1.676 17.085 17.085 0 0 1 2.7 3.717 16.852 16.852 0 0 1 1.426 3.71 15.5 15.5 0 0 1 .385 5.69 4.989 4.989 0 0 1-.531 2.025z" class="cls-5" transform="translate(-69.446 -132.694)"/>
                <path id="Path_26175" d="M169.234 387.2l-.595 2.845-2.541-.534.581-2.771a12.147 12.147 0 0 1-5.9-3.379l2.027-2.8a10.576 10.576 0 0 0 4.555 2.838l.885-4.244c-2.7-1.277-5.622-2.879-4.859-6.515.561-2.7 3.007-4.6 7.116-4.21l.588-2.818 2.541.534-.581 2.771a11.839 11.839 0 0 1 4.832 2.629l-1.926 2.859a10.663 10.663 0 0 0-3.609-2.135l-.906 4.318c2.7 1.257 5.582 2.845 4.832 6.427-.539 2.659-2.945 4.538-7.04 4.185zm-.2-11.765l.757-3.609c-1.412 0-2.1.676-2.277 1.487s.497 1.535 1.524 2.123zm3.082 7.042c.182-.892-.453-1.527-1.46-2.135l-.737 3.507c1.345-.014 2.048-.561 2.217-1.372z" class="cls-5" transform="translate(-73.104 -135.488)"/>
                <path id="Path_26176" d="M297.044 352.942L279.474 342a5.825 5.825 0 0 0-4.683-.676l-43.554 12.488a5.825 5.825 0 0 0-3.974 7.265l9.137 30.748a5.825 5.825 0 0 0 7.258 3.92l43.25-12.941a5.852 5.852 0 0 0 3.642-3.19l8.724-19.354a5.832 5.832 0 0 0-2.23-7.319zm-5.771 7.5a4.8 4.8 0 1 1-4.3-5.258 4.8 4.8 0 0 1 4.3 5.258z" class="cls-2" transform="translate(-94.58 -127.543)"/>
                <path id="Path_26177" d="M253.134 373.865c-1.061-3.744.541-6.758 3.778-7.69s6.15.791 7.224 4.562-.514 6.758-3.744 7.677-6.192-.814-7.258-4.549zm7.832-2.23c-.676-2.379-1.919-3.257-3.318-2.859s-2.007 1.831-1.331 4.176 1.953 3.251 3.311 2.859 2.014-1.777 1.338-4.176zm9.231-8.968l3.771-1.068-8.832 26.5-3.771 1.068zm.987 17.361c-1.061-3.737.541-6.758 3.744-7.677s6.19.811 7.258 4.548-.541 6.758-3.778 7.69-6.143-.817-7.224-4.56zm7.8-2.217c-.676-2.345-1.919-3.257-3.318-2.859s-1.987 1.8-1.311 4.176 1.953 3.244 3.318 2.859 1.994-1.831 1.324-4.176z" class="cls-6" transform="translate(-102.941 -134.188)"/>
                <path id="Path_26178" d="M326.8 371.92a2.471 2.471 0 0 1 .527.182c.331.142.825.345 1.453.629s1.392.635 2.271 1.074 1.858.96 2.913 1.608a23.872 23.872 0 0 1 3.271 2.385l.412.365.405.392a10.389 10.389 0 0 1 .791.838 6.543 6.543 0 0 1 1.25 2.115 3.813 3.813 0 0 1 .182 1.3 3.434 3.434 0 0 1-.324 1.311 4.4 4.4 0 0 1-1.879 1.966 6.543 6.543 0 0 1-2.7.723 12.046 12.046 0 0 1-2.825-.189 16.55 16.55 0 0 1-5.2-1.912 21.393 21.393 0 0 1-2.23-1.433c-.676-.5-1.352-1.014-1.987-1.521a38.332 38.332 0 0 1-6.183-6.082c-.378-.487-.723-.966-1.034-1.426-.155-.23-.3-.459-.439-.676a3.92 3.92 0 0 1-.358-.676 1.859 1.859 0 0 1-.068-1.419 2.027 2.027 0 0 1 .743-.933 2.7 2.7 0 0 1 .446-.25 2.992 2.992 0 0 1 .419-.135 2.068 2.068 0 0 1 .676-.047 1.211 1.211 0 0 1 .405.108l.128.074h-.142a1.654 1.654 0 0 0-.4-.054 2.159 2.159 0 0 0-.635.095 2.5 2.5 0 0 0-.385.149 2.539 2.539 0 0 0-.392.25 1.8 1.8 0 0 0-.628.845 1.608 1.608 0 0 0 .095 1.216 5.1 5.1 0 0 0 .358.676c.135.223.291.439.446.676.318.446.676.912 1.054 1.385a39.8 39.8 0 0 0 6.19 5.92q.953.75 1.987 1.5a21.866 21.866 0 0 0 2.162 1.385 16.416 16.416 0 0 0 5.028 1.845 11.82 11.82 0 0 0 2.7.182 5.974 5.974 0 0 0 2.473-.676 3.913 3.913 0 0 0 1.676-1.717 3.055 3.055 0 0 0 .128-2.25 6.179 6.179 0 0 0-1.135-1.96c-.243-.284-.493-.561-.757-.818l-.392-.385-.4-.365a24.815 24.815 0 0 0-3.176-2.4c-1.027-.676-2.027-1.2-2.852-1.662s-1.608-.838-2.217-1.149l-1.412-.716a1.959 1.959 0 0 1-.446-.351z" class="cls-4" transform="translate(-123.085 -136.946)"/>
                <path id="Path_26179" d="M196.487 48.74l-4.325-11.549a3.46 3.46 0 0 0-1.973-2.027l-25.051-9.833a3.46 3.46 0 0 0-4.521 1.98l-6.825 17.807a3.467 3.467 0 0 0 2.027 4.48l25.071 9.562a3.474 3.474 0 0 0 2.872-.189L194.879 53a3.46 3.46 0 0 0 1.608-4.264zm-5.46 1.446a2.859 2.859 0 1 1 .78-2.054 2.859 2.859 0 0 1-.78 2.054z" class="cls-2" transform="translate(-70.764 -25.082)"/>
                <path id="Path_26180" d="M172.186 40.792c.851-2.149 2.7-2.994 4.562-2.257s2.615 2.595 1.757 4.73-2.7 3-4.548 2.264-2.657-2.561-1.771-4.737zm4.494 1.784c.541-1.352.277-2.23-.527-2.548s-1.595.142-2.129 1.493-.257 2.237.527 2.548 1.561-.1 2.1-1.466zm7.6-.885l2.169.858-13.793 9.326-2.169-.865zm-5.845 8.562c.858-2.149 2.7-2.994 4.548-2.264s2.629 2.622 1.771 4.771-2.7 2.994-4.562 2.257-2.6-2.602-1.755-4.764zm4.48 1.777c.534-1.352.277-2.23-.527-2.548s-1.588.128-2.129 1.493-.257 2.237.527 2.548 1.595-.128 2.129-1.48z" class="cls-6" transform="translate(-76.252 -29.359)"/>
                <path id="Path_26181" d="M209.957 65.225a1.392 1.392 0 0 1 .176.277c.108.189.27.46.46.824s.433.8.676 1.352.534 1.129.791 1.811a14.19 14.19 0 0 1 .676 2.311l.061.324a3 3 0 0 0 .047.331 5.557 5.557 0 0 1 .068.676 3.832 3.832 0 0 1-.176 1.446 2.278 2.278 0 0 1-.385.676 1.98 1.98 0 0 1-.628.5 2.541 2.541 0 0 1-1.595.243 3.73 3.73 0 0 1-1.534-.628 7.325 7.325 0 0 1-1.216-1.129 9.7 9.7 0 0 1-1.757-2.784 12.844 12.844 0 0 1-.527-1.473q-.209-.73-.385-1.439a22.976 22.976 0 0 1-.716-5.1v-1.05a1.61 1.61 0 0 1 .047-.48 2.505 2.505 0 0 1 .081-.46 1.115 1.115 0 0 1 .48-.676 1.223 1.223 0 0 1 .676-.169 1.825 1.825 0 0 1 .3.047 1.2 1.2 0 0 1 .25.088 1.128 1.128 0 0 1 .338.223.675.675 0 0 1 .155.2c0 .047.034.074 0 .074s0 0-.054-.061a1.291 1.291 0 0 0-.169-.169 1.115 1.115 0 0 0-.338-.182 1.142 1.142 0 0 0-.23-.068 1.243 1.243 0 0 0-.277 0 1.061 1.061 0 0 0-.574.108.973.973 0 0 0-.4.615 2.7 2.7 0 0 0-.061.433 2.329 2.329 0 0 1-.034.473v1.034a23.576 23.576 0 0 0 .77 5.028c.122.466.25.946.4 1.426a12.294 12.294 0 0 0 .52 1.439 9.69 9.69 0 0 0 1.7 2.7 7.175 7.175 0 0 0 1.216 1.041 3.609 3.609 0 0 0 1.406.588 2.311 2.311 0 0 0 1.406-.209 1.777 1.777 0 0 0 .879-1.014 3.562 3.562 0 0 0 .176-1.352 5.359 5.359 0 0 0-.061-.676.774.774 0 0 0-.047-.324l-.054-.311a14.124 14.124 0 0 0-.628-2.284c-.243-.676-.507-1.291-.743-1.818s-.453-.98-.628-1.352l-.405-.851a1.149 1.149 0 0 1-.122-.237z" class="cls-4" transform="translate(-87.113 -36.6)"/>
            </g>
            <g id="freepik--Device--inject-4" transform="translate(42.906 37.187)">
                <path id="Path_26182" d="M94.53 232.458l.07-144.279a8.109 8.109 0 0 1 8.109-8.069l214.08.108a8.109 8.109 0 0 1 8.069 8.109l-.074 144.279a8.069 8.069 0 0 1-8.109 8.069l-214.074-.108a8.109 8.109 0 0 1-8.071-8.109z" class="cls-7" transform="translate(-94.53 -80.11)"/>
                <path id="Rectangle_15214" d="M0 0H150.314V192.273H0z" class="cls-6" transform="rotate(90.03 104.767 109.575)"/>
                <path id="Path_26183" d="M108.75 202.013a6.156 6.156 0 1 1 4.358-1.8 6.156 6.156 0 0 1-4.358 1.8z" class="cls-8" transform="translate(-97.146 -115.641)"/>
                <rect id="Rectangle_15215" width="48.318" height="2.541" class="cls-8" rx="1.22" transform="rotate(90.03 83.761 139.85)"/>
                <path id="Path_26252" d="M266.322 298.915a.352.352 0 0 1-.257-.115l-3.514-4.136a.338.338 0 0 1 .514-.439l3.244 3.811 2.906-3.8a.338.338 0 1 1 .534.412l-3.156 4.109a.318.318 0 0 1-.257.128z" class="cls-8" transform="translate(-148.979 -149.487)"/>
                <g id="Mask_Group_126" clip-path="url(#clip-path)">
                    <g id="Group_10622" transform="translate(45.39 -51.781)">
                        <path id="Path_26184" d="M142.554 93.79h128.217a6.664 6.664 0 0 1 6.664 6.664v84.669H135.89v-84.669a6.664 6.664 0 0 1 6.664-6.664z" class="cls-3" transform="translate(-135.89 -93.79)"/>
                        <g id="Group_10621" transform="translate(12.44 27.965)">
                            <path id="Path_26209" d="M249.912 256.791c0 .065-19.722.122-44.046.122s-44.056-.056-44.056-.122 19.721-.121 44.056-.121 44.046.051 44.046.121z" class="cls-4" transform="translate(-152.994 -221.035)"/>
                            <path id="Rectangle_15217" d="M0 0H103.982V15.258H0z" class="cls-10" transform="translate(6.526 20.424)"/>
                            <g id="Group_10602" class="cls-11" transform="translate(6.526 20.424)">
                                <path id="Rectangle_15218" d="M0 0H103.982V15.258H0z"/>
                            </g>
                            <path id="Path_26210" d="M165.349 244.978a10.029 10.029 0 1 0 10.169-9.879 10.029 10.029 0 0 0-10.169 9.879z" class="cls-8" transform="translate(-154.879 -209.544)"/>
                            <path id="Path_26211" d="M165.359 256.19a.2.2 0 0 1 0 .023 10.028 10.028 0 1 0 20.055.29v-.023z" class="cls-8" transform="translate(-154.884 -220.779)"/>
                            <path id="Path_26212" d="M171.739 248.429a7.043 7.043 0 1 0 7.132-6.94 7.043 7.043 0 0 0-7.132 6.94z" class="cls-12" transform="translate(-158.283 -212.948)"/>
                            <path id="Path_26213" d="M178.861 241.489a7.043 7.043 0 0 0-7.141 6.94l14.081.2a7.043 7.043 0 0 0-6.94-7.14z" class="cls-4" transform="translate(-158.273 -212.948)"/>
                            <path id="Path_26214" d="M177.629 251.626a4.29 4.29 0 1 0 4.351-4.206 4.29 4.29 0 0 0-4.351 4.206z" class="cls-8" transform="translate(-161.42 -216.107)"/>
                            <path id="Path_26215" d="M329.409 244.978a10.029 10.029 0 1 0 10.174-9.879 10.029 10.029 0 0 0-10.174 9.879z" class="cls-8" transform="translate(-242.268 -209.544)"/>
                            <path id="Path_26216" d="M329.419 256.19a.192.192 0 0 1 0 .023 10.028 10.028 0 1 0 20.055.29v-.023z" class="cls-8" transform="translate(-242.273 -220.779)"/>
                            <path id="Path_26217" d="M335.809 248.429a7.038 7.038 0 1 0 7.136-6.94 7.038 7.038 0 0 0-7.136 6.94z" class="cls-12" transform="translate(-245.678 -212.948)"/>
                            <path id="Path_26218" d="M342.946 241.489a7.038 7.038 0 0 0-7.136 6.94l14.076.2a7.043 7.043 0 0 0-6.94-7.14z" class="cls-4" transform="translate(-245.678 -212.948)"/>
                            <path id="Path_26219" d="M341.689 251.626a4.29 4.29 0 1 0 4.351-4.206 4.29 4.29 0 0 0-4.351 4.206z" class="cls-8" transform="translate(-248.81 -216.107)"/>
                            <path id="Path_26220" d="M176.587 192.26s-14.763 1.089-20.236 2.337c-3.86.865-11.3 2.337-11.216 7.038l.589 3.355a5.043 5.043 0 0 0-2.757 4.472c0 3.215-.673 8.2 5.767 8.412 1.061.033 3.075 0 3.075 0s-1.234-13.712 11.361-14.113c12.819-.411 11.968 13.987 11.968 13.987h53.5s-2.2-14.02 11.6-14.048 11.683 14.142 11.683 14.142 5.075.439 7.44-3.827 1.743-7.3 1.743-7.3l-.075-2.692a1.748 1.748 0 0 0-1.678-1.7s.935-6.79-.5-7.945-9.169-8.262-9.169-8.262l.369-.234a.869.869 0 0 0-.178-1.561c-2.944-1.009-8.767-3.014-10.132-3.491a2.533 2.533 0 0 0-.636-.135c-.818-.061-3.131-.21-7.374-.252-5.173-.056-25.7 0-25.7 0s-7.061.579-11 2.313c-4.116 1.77-18.444 9.504-18.444 9.504z" class="cls-10" transform="translate(-142.947 -180.417)"/>
                            <g id="Group_10603" class="cls-13" transform="translate(1.513 28.585)">
                                <path id="Path_26221" d="M148.434 241.652a2.256 2.256 0 0 0-1.767.243 1.692 1.692 0 0 0-.43 1.108 4.852 4.852 0 0 0 .037 1.664 2.038 2.038 0 0 0 .935 1.323 1.309 1.309 0 0 0 1.542-.182 2.023 2.023 0 0 0 .379-1.439 11.952 11.952 0 0 0-.089-2.047 1 1 0 0 0-.182-.411.556.556 0 0 0-.43-.257" transform="translate(-146.184 -241.583)"/>
                            </g>
                            <path id="Path_26222" d="M148.249 228.71c1.57 0 3.089-.089 4.673-.192a.767.767 0 0 0 .467-.145.78.78 0 0 0 .164-.57 2.969 2.969 0 0 0-.673-2.337 2.5 2.5 0 0 0-1.435-.467 9.221 9.221 0 0 0-3.776.379z" class="cls-12" transform="translate(-145.463 -204.136)"/>
                            <path id="Path_26223" d="M184.33 239.6a.883.883 0 0 1 0-.131l-.028-.393c0-.35-.047-.86-.079-1.514s-.079-1.463-.178-2.388a18.4 18.4 0 0 0-.551-3.117 14.019 14.019 0 0 0-1.509-3.519 11.033 11.033 0 0 0-2.916-3.271 17.059 17.059 0 0 0-9.52-2.86 15.464 15.464 0 0 0-9.454 2.977 13.954 13.954 0 0 0-3.066 3.131 15.062 15.062 0 0 0-1.8 3.379 13.9 13.9 0 0 0-.757 3.07 13.144 13.144 0 0 0-.093 2.383 11.921 11.921 0 0 0 .187 1.5c.028.168.051.3.07.388a.254.254 0 0 1 0 .136l-.028-.131a3.165 3.165 0 0 0-.079-.388 11.264 11.264 0 0 1-.206-1.5 12.734 12.734 0 0 1 .079-2.4 13.553 13.553 0 0 1 .748-3.084 14.71 14.71 0 0 1 1.795-3.4 13.819 13.819 0 0 1 3.08-3.155 15.464 15.464 0 0 1 9.506-3 17.021 17.021 0 0 1 9.569 2.887 11.089 11.089 0 0 1 2.935 3.271 13.959 13.959 0 0 1 1.5 3.538 18.494 18.494 0 0 1 .542 3.126c.089.935.126 1.738.159 2.393s.047 1.168.065 1.514v.4a.57.57 0 0 0 .029.158z" class="cls-6" transform="translate(-148.993 -202.733)"/>
                            <path id="Path_26224" d="M219.252 219.535a1.015 1.015 0 0 1 0-.112v-.332c0-.294 0-.729-.037-1.295l-.14-4.916c-.061-2.116-.131-4.673-.21-7.627 0-.738-.042-1.5-.061-2.276a7.314 7.314 0 0 1 .051-1.192l.084-.6.126-.608a12.51 12.51 0 0 1 2.206-4.673l9.263-5.837 2.5-1.575a19.386 19.386 0 0 1 2.645-1.477 25.826 25.826 0 0 1 2.879-1.15c.491-.173 1-.313 1.5-.467a15.352 15.352 0 0 1 1.538-.374 35.109 35.109 0 0 1 5.968-.757q2.958-.131 5.781 0h.056v.056c-.888 3.968-1.72 7.706-2.486 11.132a12.451 12.451 0 0 0-1.117 2.393 6.542 6.542 0 0 0-.374 2.477c.061.822.084 1.626.107 2.407s.028 1.542.042 2.276c.042 2.944.056 5.51.061 7.622s0 3.776 0 4.912v1.626a1.034 1.034 0 0 1 0 .112v-1.74c0-1.136 0-2.8-.028-4.912s-.033-4.673-.084-7.622c0-.734-.033-1.491-.047-2.271s-.047-1.584-.112-2.407a6.645 6.645 0 0 1 .379-2.5 12.1 12.1 0 0 1 1.122-2.411c.762-3.426 1.594-7.169 2.482-11.137l.042.061a55.192 55.192 0 0 0-5.772 0 35.414 35.414 0 0 0-5.954.752c-.519.1-1.023.248-1.533.379s-1 .29-1.5.467a26.883 26.883 0 0 0-2.865 1.14 19.25 19.25 0 0 0-2.636 1.472l-2.561 1.584-9.267 5.828a12.5 12.5 0 0 0-2.2 4.645 17.463 17.463 0 0 0-.206 4.673c.07 2.944.136 5.51.187 7.627l.117 4.916c0 .565.023 1 .028 1.294v.444z" class="cls-8" transform="translate(-183.35 -182.432)"/>
                            <path id="Path_26225" d="M292.58 184.648h.341l1-.023 3.692-.075 12.44-.21h.019l1.743 2.131 5 6.122c.187.234.379.467.565.692a3.863 3.863 0 0 1 .537 3.912c-.2.467-.383.9-.565 1.323l-1.72 3.977-.467 1.08c-.056.122-.093.215-.126.28a.641.641 0 0 1-.047.093l.037-.1.117-.28c.108-.252.257-.622.467-1.089l1.687-3.991a7.036 7.036 0 0 0 .855-2.8 3.888 3.888 0 0 0-.369-1.594 3.968 3.968 0 0 0-.467-.729l-.57-.7-4.982-6.075-1.743-2.136h.037l-12.44.178-3.692.042h-1.337z" class="cls-8" transform="translate(-222.651 -182.507)"/>
                            <path id="Path_26226" d="M273.169 217.836h.15a1.069 1.069 0 0 0 .393-.159.991.991 0 0 0 .4-.523 1.154 1.154 0 0 0 .051-.411 1.047 1.047 0 0 0-.117-.467 1 1 0 0 0-.865-.528h-4.159a.981.981 0 0 0-.972.869 1.1 1.1 0 0 0 .117.664 1.009 1.009 0 0 0 .467.425 1.473 1.473 0 0 0 .622.075h3.9a.583.583 0 0 1-.154 0h-4.066a1.178 1.178 0 0 1-.332-.075 1.1 1.1 0 0 1-.528-.467 1.206 1.206 0 0 1-.136-.72 1.089 1.089 0 0 1 1.07-.958h4.159a1.059 1.059 0 0 1 1.052 1.042 1.169 1.169 0 0 1-.061.43 1.033 1.033 0 0 1-.435.537 1.085 1.085 0 0 1-.411.145.607.607 0 0 1-.145.121z" class="cls-8" transform="translate(-209.521 -199.137)"/>
                            <path id="Path_26227" d="M332.5 217.836h.15a1.069 1.069 0 0 0 .393-.159.99.99 0 0 0 .4-.523 1.153 1.153 0 0 0 .051-.411 1.047 1.047 0 0 0-.117-.467 1 1 0 0 0-.865-.528h-4.159a.982.982 0 0 0-.659.257.963.963 0 0 0-.313.612 1.1 1.1 0 0 0 .121.664 1 1 0 0 0 .467.425 1.492 1.492 0 0 0 .626.075h3.893a.532.532 0 0 1-.15 0h-4.066a1.173 1.173 0 0 1-.336-.075 1.1 1.1 0 0 1-.528-.467 1.2 1.2 0 0 1-.131-.72 1.079 1.079 0 0 1 .341-.673 1.061 1.061 0 0 1 .724-.285h4.164a1.056 1.056 0 0 1 1.037 1.052 1.168 1.168 0 0 1-.061.43 1.052 1.052 0 0 1-.43.537 1.085 1.085 0 0 1-.411.145.64.64 0 0 1-.145.112z" class="cls-8" transform="translate(-241.128 -199.137)"/>
                            <path id="Path_26228" d="M381.827 210.75h-5.547a2.042 2.042 0 0 0-1.809 1.094 2.07 2.07 0 0 0-.065 1.781l2.178 4.94 5.557-.056s1.177-6.24-.314-7.759z" class="cls-12" transform="translate(-266.147 -196.574)"/>
                            <path id="Path_26229" d="M225.62 195.728l28.624-.528 18.633-.341 6.141-3.547a.935.935 0 0 0 .285-1.4l-3.827-5.028a2.117 2.117 0 0 0-1.673-.837l-20.838-.168s-7.847-.467-14.02 3a131.6 131.6 0 0 0-13.324 8.847z" class="cls-8" transform="translate(-186.984 -182.248)"/>
                            <path id="Path_26230" d="M233.279 185.41s1.215.467.285 1.07-15.422 9.749-15.422 9.749l-3.183-1.309c5.894-3.29 11.923-6.496 18.32-9.51z" class="cls-7" transform="translate(-181.306 -183.077)"/>
                            <path id="Path_26231" d="M183.078 209.018h-.089l-.266.061-1.014.21c-.888.173-2.168.421-3.739.7-3.178.547-7.594 1.182-12.5 1.608-1.224.107-2.425.192-3.584.271s-2.271.145-3.332.243a28.8 28.8 0 0 0-5.571.935 15.857 15.857 0 0 0-3.51 1.463c-.4.21-.682.416-.883.542l-.229.145-.079.047.075-.056.22-.154a9.378 9.378 0 0 1 .879-.556 15.275 15.275 0 0 1 3.51-1.5 28.038 28.038 0 0 1 5.58-.977c1.061-.1 2.178-.173 3.337-.252s2.337-.164 3.58-.271c4.9-.425 9.319-1.052 12.5-1.58 1.594-.266 2.874-.5 3.739-.664l1.023-.2.262-.047z" class="cls-8" transform="translate(-145.787 -195.637)"/>
                            <path id="Path_26232" d="M385.514 236.427c0 .028-1.907.051-4.262.051s-4.262-.023-4.262-.051 1.907-.047 4.262-.047 4.262.02 4.262.047z" class="cls-8" transform="translate(-267.613 -210.227)"/>
                            <path id="Path_26233" d="M265.713 246.847c0 .028-10.749.047-24.049.047s-24.054 0-24.054-.047 10.749-.047 24.054-.047 24.049.019 24.049.047z" class="cls-8" transform="translate(-182.717 -215.777)"/>
                            <path id="Path_26234" d="M151.44 236.771s-1.524.047-3.4.047-3.4-.023-3.4-.047 1.523-.051 3.4-.051 3.4.023 3.4.051z" class="cls-8" transform="translate(-143.849 -210.408)"/>
                            <path id="Path_26235" d="M370.051 192.08s-1.28 1.43-.776 2.482 5.692 4.725 5.692 4.725l3.771.706z" class="cls-7" transform="translate(-263.442 -186.63)"/>
                            <path id="Path_26236" d="M293.421 186.6l-.851 9.15 15.17-.43 6.113-3.556-3.958-5.164z" class="cls-7" transform="translate(-222.646 -183.71)"/>
                            <path id="Path_26237" d="M233.31 196.167s9.146-6.608 12.758-7.945a23.067 23.067 0 0 1 8.571-1.678c3.131-.089 5.033 0 5.033 0l-2.416 9.3z" class="cls-7" transform="translate(-191.08 -183.66)"/>
                            <path id="Path_26238" d="M230.44 203.718a1.6 1.6 0 0 1 .818-1.4l2.1-1.182a4.01 4.01 0 0 1 1.963-.514 4.01 4.01 0 0 1 1.248.2 2.281 2.281 0 0 1 1.533 2.094 2.337 2.337 0 0 1-2.337 2.4h-3.739a1.608 1.608 0 0 1-1.589-1.6z" class="cls-10" transform="translate(-189.551 -191.179)"/>
                            <path id="Path_26239" d="M230.423 203.676a1.074 1.074 0 0 0 .028.2 1.524 1.524 0 0 0 .182.551 1.579 1.579 0 0 0 .645.631 1.537 1.537 0 0 0 .542.173h3.851a2.337 2.337 0 0 0 .893-.145 2.257 2.257 0 0 0 .79-.5 2.191 2.191 0 0 0 .537-.813 2.336 2.336 0 0 0 .14-.991 2.257 2.257 0 0 0-.935-1.678 2.389 2.389 0 0 0-.865-.365 3.823 3.823 0 0 0-.935-.107 4.019 4.019 0 0 0-1.645.35c-.238.108-.467.248-.682.365l-.626.346-1.075.6a1.617 1.617 0 0 0-.645.636 1.71 1.71 0 0 0-.187.547 1.808 1.808 0 0 1-.023.206.975.975 0 0 1 0-.206 1.523 1.523 0 0 1 .173-.565 1.65 1.65 0 0 1 .65-.664l1.07-.608.622-.355c.22-.122.439-.257.687-.369a4 4 0 0 1 1.678-.369 3.942 3.942 0 0 1 .935.1 2.542 2.542 0 0 1 .9.379 2.379 2.379 0 0 1 .991 1.753 2.426 2.426 0 0 1-.15 1.033 2.36 2.36 0 0 1-.556.846 2.43 2.43 0 0 1-.827.523 2.663 2.663 0 0 1-.935.15h-3.206a5.991 5.991 0 0 1-.654 0 1.616 1.616 0 0 1-.561-.182 1.682 1.682 0 0 1-.65-.664 1.646 1.646 0 0 1-.173-.565 1.7 1.7 0 0 1 .016-.243z" class="cls-8" transform="translate(-189.535 -191.136)"/>
                            <path id="Path_26240" d="M348.166 240.589v-.514c0-.168.033-.374.042-.617s0-.528.028-.846 0-.673 0-1.061a10.059 10.059 0 0 0-.079-1.252 15.925 15.925 0 0 0-.542-3.014 13.213 13.213 0 0 0-.593-1.682 11.267 11.267 0 0 0-3.837-4.757 13.841 13.841 0 0 0-4.206-2.075 17.717 17.717 0 0 0-4.963-.664 16.358 16.358 0 0 0-4.986.724 14.186 14.186 0 0 0-2.22.935 12.558 12.558 0 0 0-1.925 1.262 15.814 15.814 0 0 0-2.972 3.047 12.006 12.006 0 0 0-.991 1.654c-.262.565-.5 1.112-.682 1.65a19.631 19.631 0 0 0-1.08 5.258 12.412 12.412 0 0 0 0 1.463v.383a1.8 1.8 0 0 0-.033-.379c0-.336-.028-.832 0-1.467a19.25 19.25 0 0 1 1.056-5.281 15.515 15.515 0 0 1 .678-1.659 11.508 11.508 0 0 1 .991-1.668 15.989 15.989 0 0 1 2.977-3.07 12.856 12.856 0 0 1 1.939-1.271 14.355 14.355 0 0 1 2.234-.935 16.4 16.4 0 0 1 5.014-.752 17.58 17.58 0 0 1 5.024.673 13.842 13.842 0 0 1 4.206 2.089 12.874 12.874 0 0 1 1.659 1.453 10.183 10.183 0 0 1 1.285 1.636 10.844 10.844 0 0 1 .907 1.715 13.087 13.087 0 0 1 .594 1.692 16.051 16.051 0 0 1 .533 3.028c.051.467.047.869.07 1.257s0 .743 0 1.061-.028.6-.042.846-.037.467-.047.622-.028.29-.037.379z" class="cls-6" transform="translate(-236.785 -203.631)"/>
                            <path id="Path_26241" d="M264.621 209.26h-.659l-1.795.033c-1.519.028-3.617.084-5.93.15s-4.416.107-5.935.117h-1.795l1.795-.033c1.519-.028 3.617-.084 5.93-.145s4.416-.108 5.935-.122h2.453z" class="cls-6" transform="translate(-198.846 -195.781)"/>
                            <path id="Path_26242" d="M274.651 215.232a28.906 28.906 0 0 1-3.271 0 26.263 26.263 0 0 1 3.271 0z" class="cls-6" transform="translate(-211.358 -198.935)"/>
                            <path id="Path_26243" d="M269.251 193.829s-2.028.874-4.552 1.869-4.58 1.832-4.589 1.8 2.024-.874 4.552-1.893 4.575-1.805 4.589-1.776z" class="cls-6" transform="translate(-205.356 -187.561)"/>
                            <path id="Path_26244" d="M260.906 195.2c0 .023-1.93.879-4.337 1.907s-4.36 1.846-4.37 1.823 1.93-.883 4.332-1.911 4.369-1.848 4.375-1.819z" class="cls-6" transform="translate(-201.142 -188.291)"/>
                            <path id="Path_26245" d="M316.461 193.069c0 .023-2.028.874-4.552 1.893s-4.58 1.832-4.589 1.809 2.023-.874 4.552-1.9 4.58-1.835 4.589-1.802z" class="cls-6" transform="translate(-230.502 -187.156)"/>
                            <path id="Path_26246" d="M308.076 194.439c0 .023-1.93.879-4.337 1.907s-4.36 1.846-4.37 1.823 1.93-.883 4.332-1.911 4.375-1.847 4.375-1.819z" class="cls-6" transform="translate(-226.268 -187.886)"/>
                            <path id="Path_26247" d="M307.089 209.226c0 .028-4.052.075-9.052.1s-9.057.033-9.057 0 4.052-.07 9.057-.1 9.052-.026 9.052 0z" class="cls-6" transform="translate(-220.734 -195.751)"/>
                            <path id="Path_26248" d="M331.545 214.959c0 .028-1.136.061-2.538.075s-2.538 0-2.538-.028 1.136-.056 2.538-.07a22.721 22.721 0 0 1 2.538.023z" class="cls-6" transform="translate(-240.703 -198.797)"/>
                            <path id="Path_26249" d="M159.739 212h-.112l-.318.042a3.52 3.52 0 0 0-.5.07c-.2.033-.421.056-.664.107-.467.084-1.066.215-1.7.383a20.42 20.42 0 0 0-2.024.668 21.206 21.206 0 0 0-1.944.888c-.579.308-1.089.608-1.51.874-.21.131-.393.262-.556.374s-.3.206-.416.29l-.262.187-.093.056a.578.578 0 0 1 .084-.075l.248-.2c.107-.084.243-.192.407-.3s.341-.248.551-.383c.416-.28.935-.584 1.5-.9a19.6 19.6 0 0 1 1.949-.9 20.6 20.6 0 0 1 2.038-.668c.64-.164 1.22-.285 1.715-.365.243-.042.467-.065.664-.093s.369-.042.5-.051h.322a.342.342 0 0 1 .121-.004z" class="cls-6" transform="translate(-146.512 -197.237)"/>
                            <path id="Path_26250" d="M236.484 201.974a2.456 2.456 0 0 0-.178-.178 1.247 1.247 0 0 0-.622-.248 2.7 2.7 0 0 0-1 .107 7.644 7.644 0 0 0-1.178.4 7.722 7.722 0 0 0-1.921 1.192c-.444.374-.682.65-.7.636a1.2 1.2 0 0 1 .159-.2q.234-.246.491-.467a7.213 7.213 0 0 1 1.925-1.229 6.837 6.837 0 0 1 1.2-.4 2.687 2.687 0 0 1 1.028-.089 1.22 1.22 0 0 1 .636.29.975.975 0 0 1 .126.145c.029.018.039.037.034.041z" class="cls-6" transform="translate(-189.791 -191.641)"/>
                            <path id="Path_26251" d="M349.346 187.828a3 3 0 0 1-.794.084 4.7 4.7 0 0 1-.935-.117 8.3 8.3 0 0 1-1.2-.369c-.43-.164-.893-.369-1.4-.58l-.776-.318c-.271-.1-.551-.2-.837-.3a32.068 32.068 0 0 0-3.818-1.042 43.6 43.6 0 0 0-7.141-.888c-.467-.028-.879-.028-1.243-.037h-1.528l.593-.033h2.182a41.413 41.413 0 0 1 7.155.86 32.2 32.2 0 0 1 3.827 1.051c.285.108.57.2.837.308l.78.322c.5.215.958.425 1.4.594a8.686 8.686 0 0 0 1.178.379 5.207 5.207 0 0 0 .935.131 4.772 4.772 0 0 0 .589-.023h.154z" class="cls-8" transform="translate(-242.301 -182.448)"/>
                        </g>
                    </g>
                    <g id="Group_10623" transform="translate(45.39 46.569)">
                        <path id="Path_26184-2" d="M142.554 93.79h128.217a6.664 6.664 0 0 1 6.664 6.664v84.669H135.89v-84.669a6.664 6.664 0 0 1 6.664-6.664z" class="cls-3" transform="translate(-135.89 -93.79)"/>
                        <g id="Group_10621-2" transform="translate(12.44 27.965)">
                            <path id="Path_26209-2" d="M249.912 256.791c0 .065-19.722.122-44.046.122s-44.056-.056-44.056-.122 19.721-.121 44.056-.121 44.046.051 44.046.121z" class="cls-4" transform="translate(-152.994 -221.035)"/>
                            <path id="Rectangle_15217-2" d="M0 0H103.982V15.258H0z" class="cls-10" transform="translate(6.526 20.424)"/>
                            <g id="Group_10602-2" class="cls-11" transform="translate(6.526 20.424)">
                                <path id="Rectangle_15218-2" d="M0 0H103.982V15.258H0z"/>
                            </g>
                            <path id="Path_26210-2" d="M165.349 244.978a10.029 10.029 0 1 0 10.169-9.879 10.029 10.029 0 0 0-10.169 9.879z" class="cls-8" transform="translate(-154.879 -209.544)"/>
                            <path id="Path_26211-2" d="M165.359 256.19a.2.2 0 0 1 0 .023 10.028 10.028 0 1 0 20.055.29v-.023z" class="cls-8" transform="translate(-154.884 -220.779)"/>
                            <path id="Path_26212-2" d="M171.739 248.429a7.043 7.043 0 1 0 7.132-6.94 7.043 7.043 0 0 0-7.132 6.94z" class="cls-12" transform="translate(-158.283 -212.948)"/>
                            <path id="Path_26213-2" d="M178.861 241.489a7.043 7.043 0 0 0-7.141 6.94l14.081.2a7.043 7.043 0 0 0-6.94-7.14z" class="cls-4" transform="translate(-158.273 -212.948)"/>
                            <path id="Path_26214-2" d="M177.629 251.626a4.29 4.29 0 1 0 4.351-4.206 4.29 4.29 0 0 0-4.351 4.206z" class="cls-8" transform="translate(-161.42 -216.107)"/>
                            <path id="Path_26215-2" d="M329.409 244.978a10.029 10.029 0 1 0 10.174-9.879 10.029 10.029 0 0 0-10.174 9.879z" class="cls-8" transform="translate(-242.268 -209.544)"/>
                            <path id="Path_26216-2" d="M329.419 256.19a.192.192 0 0 1 0 .023 10.028 10.028 0 1 0 20.055.29v-.023z" class="cls-8" transform="translate(-242.273 -220.779)"/>
                            <path id="Path_26217-2" d="M335.809 248.429a7.038 7.038 0 1 0 7.136-6.94 7.038 7.038 0 0 0-7.136 6.94z" class="cls-12" transform="translate(-245.678 -212.948)"/>
                            <path id="Path_26218-2" d="M342.946 241.489a7.038 7.038 0 0 0-7.136 6.94l14.076.2a7.043 7.043 0 0 0-6.94-7.14z" class="cls-4" transform="translate(-245.678 -212.948)"/>
                            <path id="Path_26219-2" d="M341.689 251.626a4.29 4.29 0 1 0 4.351-4.206 4.29 4.29 0 0 0-4.351 4.206z" class="cls-8" transform="translate(-248.81 -216.107)"/>
                            <path id="Path_26220-2" d="M176.587 192.26s-14.763 1.089-20.236 2.337c-3.86.865-11.3 2.337-11.216 7.038l.589 3.355a5.043 5.043 0 0 0-2.757 4.472c0 3.215-.673 8.2 5.767 8.412 1.061.033 3.075 0 3.075 0s-1.234-13.712 11.361-14.113c12.819-.411 11.968 13.987 11.968 13.987h53.5s-2.2-14.02 11.6-14.048 11.683 14.142 11.683 14.142 5.075.439 7.44-3.827 1.743-7.3 1.743-7.3l-.075-2.692a1.748 1.748 0 0 0-1.678-1.7s.935-6.79-.5-7.945-9.169-8.262-9.169-8.262l.369-.234a.869.869 0 0 0-.178-1.561c-2.944-1.009-8.767-3.014-10.132-3.491a2.533 2.533 0 0 0-.636-.135c-.818-.061-3.131-.21-7.374-.252-5.173-.056-25.7 0-25.7 0s-7.061.579-11 2.313c-4.116 1.77-18.444 9.504-18.444 9.504z" class="cls-10" transform="translate(-142.947 -180.417)"/>
                            <g id="Group_10603-2" class="cls-13" transform="translate(1.513 28.585)">
                                <path id="Path_26221-2" d="M148.434 241.652a2.256 2.256 0 0 0-1.767.243 1.692 1.692 0 0 0-.43 1.108 4.852 4.852 0 0 0 .037 1.664 2.038 2.038 0 0 0 .935 1.323 1.309 1.309 0 0 0 1.542-.182 2.023 2.023 0 0 0 .379-1.439 11.952 11.952 0 0 0-.089-2.047 1 1 0 0 0-.182-.411.556.556 0 0 0-.43-.257" transform="translate(-146.184 -241.583)"/>
                            </g>
                            <path id="Path_26222-2" d="M148.249 228.71c1.57 0 3.089-.089 4.673-.192a.767.767 0 0 0 .467-.145.78.78 0 0 0 .164-.57 2.969 2.969 0 0 0-.673-2.337 2.5 2.5 0 0 0-1.435-.467 9.221 9.221 0 0 0-3.776.379z" class="cls-12" transform="translate(-145.463 -204.136)"/>
                            <path id="Path_26223-2" d="M184.33 239.6a.883.883 0 0 1 0-.131l-.028-.393c0-.35-.047-.86-.079-1.514s-.079-1.463-.178-2.388a18.4 18.4 0 0 0-.551-3.117 14.019 14.019 0 0 0-1.509-3.519 11.033 11.033 0 0 0-2.916-3.271 17.059 17.059 0 0 0-9.52-2.86 15.464 15.464 0 0 0-9.454 2.977 13.954 13.954 0 0 0-3.066 3.131 15.062 15.062 0 0 0-1.8 3.379 13.9 13.9 0 0 0-.757 3.07 13.144 13.144 0 0 0-.093 2.383 11.921 11.921 0 0 0 .187 1.5c.028.168.051.3.07.388a.254.254 0 0 1 0 .136l-.028-.131a3.165 3.165 0 0 0-.079-.388 11.264 11.264 0 0 1-.206-1.5 12.734 12.734 0 0 1 .079-2.4 13.553 13.553 0 0 1 .748-3.084 14.71 14.71 0 0 1 1.795-3.4 13.819 13.819 0 0 1 3.08-3.155 15.464 15.464 0 0 1 9.506-3 17.021 17.021 0 0 1 9.569 2.887 11.089 11.089 0 0 1 2.935 3.271 13.959 13.959 0 0 1 1.5 3.538 18.494 18.494 0 0 1 .542 3.126c.089.935.126 1.738.159 2.393s.047 1.168.065 1.514v.4a.57.57 0 0 0 .029.158z" class="cls-6" transform="translate(-148.993 -202.733)"/>
                            <path id="Path_26224-2" d="M219.252 219.535a1.015 1.015 0 0 1 0-.112v-.332c0-.294 0-.729-.037-1.295l-.14-4.916c-.061-2.116-.131-4.673-.21-7.627 0-.738-.042-1.5-.061-2.276a7.314 7.314 0 0 1 .051-1.192l.084-.6.126-.608a12.51 12.51 0 0 1 2.206-4.673l9.263-5.837 2.5-1.575a19.386 19.386 0 0 1 2.645-1.477 25.826 25.826 0 0 1 2.879-1.15c.491-.173 1-.313 1.5-.467a15.352 15.352 0 0 1 1.538-.374 35.109 35.109 0 0 1 5.968-.757q2.958-.131 5.781 0h.056v.056c-.888 3.968-1.72 7.706-2.486 11.132a12.451 12.451 0 0 0-1.117 2.393 6.542 6.542 0 0 0-.374 2.477c.061.822.084 1.626.107 2.407s.028 1.542.042 2.276c.042 2.944.056 5.51.061 7.622s0 3.776 0 4.912v1.626a1.034 1.034 0 0 1 0 .112v-1.74c0-1.136 0-2.8-.028-4.912s-.033-4.673-.084-7.622c0-.734-.033-1.491-.047-2.271s-.047-1.584-.112-2.407a6.645 6.645 0 0 1 .379-2.5 12.1 12.1 0 0 1 1.122-2.411c.762-3.426 1.594-7.169 2.482-11.137l.042.061a55.192 55.192 0 0 0-5.772 0 35.414 35.414 0 0 0-5.954.752c-.519.1-1.023.248-1.533.379s-1 .29-1.5.467a26.883 26.883 0 0 0-2.865 1.14 19.25 19.25 0 0 0-2.636 1.472l-2.561 1.584-9.267 5.828a12.5 12.5 0 0 0-2.2 4.645 17.463 17.463 0 0 0-.206 4.673c.07 2.944.136 5.51.187 7.627l.117 4.916c0 .565.023 1 .028 1.294v.444z" class="cls-8" transform="translate(-183.35 -182.432)"/>
                            <path id="Path_26225-2" d="M292.58 184.648h.341l1-.023 3.692-.075 12.44-.21h.019l1.743 2.131 5 6.122c.187.234.379.467.565.692a3.863 3.863 0 0 1 .537 3.912c-.2.467-.383.9-.565 1.323l-1.72 3.977-.467 1.08c-.056.122-.093.215-.126.28a.641.641 0 0 1-.047.093l.037-.1.117-.28c.108-.252.257-.622.467-1.089l1.687-3.991a7.036 7.036 0 0 0 .855-2.8 3.888 3.888 0 0 0-.369-1.594 3.968 3.968 0 0 0-.467-.729l-.57-.7-4.982-6.075-1.743-2.136h.037l-12.44.178-3.692.042h-1.337z" class="cls-8" transform="translate(-222.651 -182.507)"/>
                            <path id="Path_26226-2" d="M273.169 217.836h.15a1.069 1.069 0 0 0 .393-.159.991.991 0 0 0 .4-.523 1.154 1.154 0 0 0 .051-.411 1.047 1.047 0 0 0-.117-.467 1 1 0 0 0-.865-.528h-4.159a.981.981 0 0 0-.972.869 1.1 1.1 0 0 0 .117.664 1.009 1.009 0 0 0 .467.425 1.473 1.473 0 0 0 .622.075h3.9a.583.583 0 0 1-.154 0h-4.066a1.178 1.178 0 0 1-.332-.075 1.1 1.1 0 0 1-.528-.467 1.206 1.206 0 0 1-.136-.72 1.089 1.089 0 0 1 1.07-.958h4.159a1.059 1.059 0 0 1 1.052 1.042 1.169 1.169 0 0 1-.061.43 1.033 1.033 0 0 1-.435.537 1.085 1.085 0 0 1-.411.145.607.607 0 0 1-.145.121z" class="cls-8" transform="translate(-209.521 -199.137)"/>
                            <path id="Path_26227-2" d="M332.5 217.836h.15a1.069 1.069 0 0 0 .393-.159.99.99 0 0 0 .4-.523 1.153 1.153 0 0 0 .051-.411 1.047 1.047 0 0 0-.117-.467 1 1 0 0 0-.865-.528h-4.159a.982.982 0 0 0-.659.257.963.963 0 0 0-.313.612 1.1 1.1 0 0 0 .121.664 1 1 0 0 0 .467.425 1.492 1.492 0 0 0 .626.075h3.893a.532.532 0 0 1-.15 0h-4.066a1.173 1.173 0 0 1-.336-.075 1.1 1.1 0 0 1-.528-.467 1.2 1.2 0 0 1-.131-.72 1.079 1.079 0 0 1 .341-.673 1.061 1.061 0 0 1 .724-.285h4.164a1.056 1.056 0 0 1 1.037 1.052 1.168 1.168 0 0 1-.061.43 1.052 1.052 0 0 1-.43.537 1.085 1.085 0 0 1-.411.145.64.64 0 0 1-.145.112z" class="cls-8" transform="translate(-241.128 -199.137)"/>
                            <path id="Path_26228-2" d="M381.827 210.75h-5.547a2.042 2.042 0 0 0-1.809 1.094 2.07 2.07 0 0 0-.065 1.781l2.178 4.94 5.557-.056s1.177-6.24-.314-7.759z" class="cls-12" transform="translate(-266.147 -196.574)"/>
                            <path id="Path_26229-2" d="M225.62 195.728l28.624-.528 18.633-.341 6.141-3.547a.935.935 0 0 0 .285-1.4l-3.827-5.028a2.117 2.117 0 0 0-1.673-.837l-20.838-.168s-7.847-.467-14.02 3a131.6 131.6 0 0 0-13.324 8.847z" class="cls-8" transform="translate(-186.984 -182.248)"/>
                            <path id="Path_26230-2" d="M233.279 185.41s1.215.467.285 1.07-15.422 9.749-15.422 9.749l-3.183-1.309c5.894-3.29 11.923-6.496 18.32-9.51z" class="cls-7" transform="translate(-181.306 -183.077)"/>
                            <path id="Path_26231-2" d="M183.078 209.018h-.089l-.266.061-1.014.21c-.888.173-2.168.421-3.739.7-3.178.547-7.594 1.182-12.5 1.608-1.224.107-2.425.192-3.584.271s-2.271.145-3.332.243a28.8 28.8 0 0 0-5.571.935 15.857 15.857 0 0 0-3.51 1.463c-.4.21-.682.416-.883.542l-.229.145-.079.047.075-.056.22-.154a9.378 9.378 0 0 1 .879-.556 15.275 15.275 0 0 1 3.51-1.5 28.038 28.038 0 0 1 5.58-.977c1.061-.1 2.178-.173 3.337-.252s2.337-.164 3.58-.271c4.9-.425 9.319-1.052 12.5-1.58 1.594-.266 2.874-.5 3.739-.664l1.023-.2.262-.047z" class="cls-8" transform="translate(-145.787 -195.637)"/>
                            <path id="Path_26232-2" d="M385.514 236.427c0 .028-1.907.051-4.262.051s-4.262-.023-4.262-.051 1.907-.047 4.262-.047 4.262.02 4.262.047z" class="cls-8" transform="translate(-267.613 -210.227)"/>
                            <path id="Path_26233-2" d="M265.713 246.847c0 .028-10.749.047-24.049.047s-24.054 0-24.054-.047 10.749-.047 24.054-.047 24.049.019 24.049.047z" class="cls-8" transform="translate(-182.717 -215.777)"/>
                            <path id="Path_26234-2" d="M151.44 236.771s-1.524.047-3.4.047-3.4-.023-3.4-.047 1.523-.051 3.4-.051 3.4.023 3.4.051z" class="cls-8" transform="translate(-143.849 -210.408)"/>
                            <path id="Path_26235-2" d="M370.051 192.08s-1.28 1.43-.776 2.482 5.692 4.725 5.692 4.725l3.771.706z" class="cls-7" transform="translate(-263.442 -186.63)"/>
                            <path id="Path_26236-2" d="M293.421 186.6l-.851 9.15 15.17-.43 6.113-3.556-3.958-5.164z" class="cls-7" transform="translate(-222.646 -183.71)"/>
                            <path id="Path_26237-2" d="M233.31 196.167s9.146-6.608 12.758-7.945a23.067 23.067 0 0 1 8.571-1.678c3.131-.089 5.033 0 5.033 0l-2.416 9.3z" class="cls-7" transform="translate(-191.08 -183.66)"/>
                            <path id="Path_26238-2" d="M230.44 203.718a1.6 1.6 0 0 1 .818-1.4l2.1-1.182a4.01 4.01 0 0 1 1.963-.514 4.01 4.01 0 0 1 1.248.2 2.281 2.281 0 0 1 1.533 2.094 2.337 2.337 0 0 1-2.337 2.4h-3.739a1.608 1.608 0 0 1-1.589-1.6z" class="cls-10" transform="translate(-189.551 -191.179)"/>
                            <path id="Path_26239-2" d="M230.423 203.676a1.074 1.074 0 0 0 .028.2 1.524 1.524 0 0 0 .182.551 1.579 1.579 0 0 0 .645.631 1.537 1.537 0 0 0 .542.173h3.851a2.337 2.337 0 0 0 .893-.145 2.257 2.257 0 0 0 .79-.5 2.191 2.191 0 0 0 .537-.813 2.336 2.336 0 0 0 .14-.991 2.257 2.257 0 0 0-.935-1.678 2.389 2.389 0 0 0-.865-.365 3.823 3.823 0 0 0-.935-.107 4.019 4.019 0 0 0-1.645.35c-.238.108-.467.248-.682.365l-.626.346-1.075.6a1.617 1.617 0 0 0-.645.636 1.71 1.71 0 0 0-.187.547 1.808 1.808 0 0 1-.023.206.975.975 0 0 1 0-.206 1.523 1.523 0 0 1 .173-.565 1.65 1.65 0 0 1 .65-.664l1.07-.608.622-.355c.22-.122.439-.257.687-.369a4 4 0 0 1 1.678-.369 3.942 3.942 0 0 1 .935.1 2.542 2.542 0 0 1 .9.379 2.379 2.379 0 0 1 .991 1.753 2.426 2.426 0 0 1-.15 1.033 2.36 2.36 0 0 1-.556.846 2.43 2.43 0 0 1-.827.523 2.663 2.663 0 0 1-.935.15h-3.206a5.991 5.991 0 0 1-.654 0 1.616 1.616 0 0 1-.561-.182 1.682 1.682 0 0 1-.65-.664 1.646 1.646 0 0 1-.173-.565 1.7 1.7 0 0 1 .016-.243z" class="cls-8" transform="translate(-189.535 -191.136)"/>
                            <path id="Path_26240-2" d="M348.166 240.589v-.514c0-.168.033-.374.042-.617s0-.528.028-.846 0-.673 0-1.061a10.059 10.059 0 0 0-.079-1.252 15.925 15.925 0 0 0-.542-3.014 13.213 13.213 0 0 0-.593-1.682 11.267 11.267 0 0 0-3.837-4.757 13.841 13.841 0 0 0-4.206-2.075 17.717 17.717 0 0 0-4.963-.664 16.358 16.358 0 0 0-4.986.724 14.186 14.186 0 0 0-2.22.935 12.558 12.558 0 0 0-1.925 1.262 15.814 15.814 0 0 0-2.972 3.047 12.006 12.006 0 0 0-.991 1.654c-.262.565-.5 1.112-.682 1.65a19.631 19.631 0 0 0-1.08 5.258 12.412 12.412 0 0 0 0 1.463v.383a1.8 1.8 0 0 0-.033-.379c0-.336-.028-.832 0-1.467a19.25 19.25 0 0 1 1.056-5.281 15.515 15.515 0 0 1 .678-1.659 11.508 11.508 0 0 1 .991-1.668 15.989 15.989 0 0 1 2.977-3.07 12.856 12.856 0 0 1 1.939-1.271 14.355 14.355 0 0 1 2.234-.935 16.4 16.4 0 0 1 5.014-.752 17.58 17.58 0 0 1 5.024.673 13.842 13.842 0 0 1 4.206 2.089 12.874 12.874 0 0 1 1.659 1.453 10.183 10.183 0 0 1 1.285 1.636 10.844 10.844 0 0 1 .907 1.715 13.087 13.087 0 0 1 .594 1.692 16.051 16.051 0 0 1 .533 3.028c.051.467.047.869.07 1.257s0 .743 0 1.061-.028.6-.042.846-.037.467-.047.622-.028.29-.037.379z" class="cls-6" transform="translate(-236.785 -203.631)"/>
                            <path id="Path_26241-2" d="M264.621 209.26h-.659l-1.795.033c-1.519.028-3.617.084-5.93.15s-4.416.107-5.935.117h-1.795l1.795-.033c1.519-.028 3.617-.084 5.93-.145s4.416-.108 5.935-.122h2.453z" class="cls-6" transform="translate(-198.846 -195.781)"/>
                            <path id="Path_26242-2" d="M274.651 215.232a28.906 28.906 0 0 1-3.271 0 26.263 26.263 0 0 1 3.271 0z" class="cls-6" transform="translate(-211.358 -198.935)"/>
                            <path id="Path_26243-2" d="M269.251 193.829s-2.028.874-4.552 1.869-4.58 1.832-4.589 1.8 2.024-.874 4.552-1.893 4.575-1.805 4.589-1.776z" class="cls-6" transform="translate(-205.356 -187.561)"/>
                            <path id="Path_26244-2" d="M260.906 195.2c0 .023-1.93.879-4.337 1.907s-4.36 1.846-4.37 1.823 1.93-.883 4.332-1.911 4.369-1.848 4.375-1.819z" class="cls-6" transform="translate(-201.142 -188.291)"/>
                            <path id="Path_26245-2" d="M316.461 193.069c0 .023-2.028.874-4.552 1.893s-4.58 1.832-4.589 1.809 2.023-.874 4.552-1.9 4.58-1.835 4.589-1.802z" class="cls-6" transform="translate(-230.502 -187.156)"/>
                            <path id="Path_26246-2" d="M308.076 194.439c0 .023-1.93.879-4.337 1.907s-4.36 1.846-4.37 1.823 1.93-.883 4.332-1.911 4.375-1.847 4.375-1.819z" class="cls-6" transform="translate(-226.268 -187.886)"/>
                            <path id="Path_26247-2" d="M307.089 209.226c0 .028-4.052.075-9.052.1s-9.057.033-9.057 0 4.052-.07 9.057-.1 9.052-.026 9.052 0z" class="cls-6" transform="translate(-220.734 -195.751)"/>
                            <path id="Path_26248-2" d="M331.545 214.959c0 .028-1.136.061-2.538.075s-2.538 0-2.538-.028 1.136-.056 2.538-.07a22.721 22.721 0 0 1 2.538.023z" class="cls-6" transform="translate(-240.703 -198.797)"/>
                            <path id="Path_26249-2" d="M159.739 212h-.112l-.318.042a3.52 3.52 0 0 0-.5.07c-.2.033-.421.056-.664.107-.467.084-1.066.215-1.7.383a20.42 20.42 0 0 0-2.024.668 21.206 21.206 0 0 0-1.944.888c-.579.308-1.089.608-1.51.874-.21.131-.393.262-.556.374s-.3.206-.416.29l-.262.187-.093.056a.578.578 0 0 1 .084-.075l.248-.2c.107-.084.243-.192.407-.3s.341-.248.551-.383c.416-.28.935-.584 1.5-.9a19.6 19.6 0 0 1 1.949-.9 20.6 20.6 0 0 1 2.038-.668c.64-.164 1.22-.285 1.715-.365.243-.042.467-.065.664-.093s.369-.042.5-.051h.322a.342.342 0 0 1 .121-.004z" class="cls-6" transform="translate(-146.512 -197.237)"/>
                            <path id="Path_26250-2" d="M236.484 201.974a2.456 2.456 0 0 0-.178-.178 1.247 1.247 0 0 0-.622-.248 2.7 2.7 0 0 0-1 .107 7.644 7.644 0 0 0-1.178.4 7.722 7.722 0 0 0-1.921 1.192c-.444.374-.682.65-.7.636a1.2 1.2 0 0 1 .159-.2q.234-.246.491-.467a7.213 7.213 0 0 1 1.925-1.229 6.837 6.837 0 0 1 1.2-.4 2.687 2.687 0 0 1 1.028-.089 1.22 1.22 0 0 1 .636.29.975.975 0 0 1 .126.145c.029.018.039.037.034.041z" class="cls-6" transform="translate(-189.791 -191.641)"/>
                            <path id="Path_26251-2" d="M349.346 187.828a3 3 0 0 1-.794.084 4.7 4.7 0 0 1-.935-.117 8.3 8.3 0 0 1-1.2-.369c-.43-.164-.893-.369-1.4-.58l-.776-.318c-.271-.1-.551-.2-.837-.3a32.068 32.068 0 0 0-3.818-1.042 43.6 43.6 0 0 0-7.141-.888c-.467-.028-.879-.028-1.243-.037h-1.528l.593-.033h2.182a41.413 41.413 0 0 1 7.155.86 32.2 32.2 0 0 1 3.827 1.051c.285.108.57.2.837.308l.78.322c.5.215.958.425 1.4.594a8.686 8.686 0 0 0 1.178.379 5.207 5.207 0 0 0 .935.131 4.772 4.772 0 0 0 .589-.023h.154z" class="cls-8" transform="translate(-242.301 -182.448)"/>
                        </g>
                    </g>
                </g>
            </g>
            <g id="freepik--Character--inject-4" transform="translate(4.457 70.558)">
                <path id="Rectangle_15220" d="M0 0H9V8H0z" class="cls-14" transform="translate(32.984 213.848)"/>
                <path id="Rectangle_15221" d="M0 0H9V8H0z" class="cls-14" transform="translate(6.984 213.848)"/>
                <path id="Path_26253" d="M94.737 448.963h1.225s11.9 4.426 12.036 6.623H84.981l.27-5.767z" class="cls-7" transform="translate(-52.959 -229.221)"/>
                <path id="Path_26369" d="M94.737 448.963h1.225s11.9 4.426 12.036 6.623H84.981l.27-5.767z" class="cls-7" transform="translate(-78.959 -229.221)"/>
                <path id="Path_26255" d="M85 463.535l.068-1.865 22.037.716s1.027.446.912 1.169z" class="cls-8" transform="translate(-52.992 -237.19)"/>
                <path id="Path_26370" d="M85 463.535l.068-1.865 22.037.716s1.027.446.912 1.169z" class="cls-8" transform="translate(-78.992 -237.19)"/>
                <path id="Path_26256" d="M100.81 454.436c0 .108-.568.162-1.122.52s-.845.831-.953.791.068-.676.743-1.122 1.353-.298 1.332-.189z" class="cls-6" transform="translate(-57.435 -234.808)"/>
                <path id="Path_26366" d="M100.81 454.436c0 .108-.568.162-1.122.52s-.845.831-.953.791.068-.676.743-1.122 1.353-.298 1.332-.189z" class="cls-6" transform="translate(-83.435 -234.808)"/>
                <path id="Path_26257" d="M104.658 455.974c0 .108-.46.3-.845.77s-.493.98-.6.973-.182-.642.3-1.223 1.145-.649 1.145-.52z" class="cls-6" transform="translate(-58.87 -235.325)"/>
                <path id="Path_26367" d="M104.658 455.974c0 .108-.46.3-.845.77s-.493.98-.6.973-.182-.642.3-1.223 1.145-.649 1.145-.52z" class="cls-6" transform="translate(-84.87 -235.325)"/>
                <path id="Path_26258" d="M107.343 459.31c-.1 0-.257-.534 0-1.149s.818-.865.865-.77-.277.426-.507.933-.243.976-.358.986z" class="cls-6" transform="translate(-60.19 -235.796)"/>
                <path id="Path_26368" d="M107.343 459.31c-.1 0-.257-.534 0-1.149s.818-.865.865-.77-.277.426-.507.933-.243.976-.358.986z" class="cls-6" transform="translate(-86.19 -235.796)"/>
                <path id="Path_26259" d="M100.373 450.28c-.047.1-.561-.054-1.2 0s-1.129.243-1.189.142.419-.493 1.169-.534 1.274.304 1.22.392z" class="cls-6" transform="translate(-57.201 -233.369)"/>
                <path id="Path_26269" d="M93.69 284.288a76.973 76.973 0 0 1 1.642 18.454c-.169 3.19-10.414 95.353-10.414 95.353l-13.036-1.169 2.25-86.176-.547.493s-7.765 36.249-8.278 41.98c-.46 5.156-6.839 43.055-6.839 43.055l-12.644-.608 3.041-48.833 3.835-47.474 1.534-13.833z" class="cls-8" transform="translate(-40.347 -180.082)"/>
                <path id="Path_26270" d="M83.91 306.212a2.914 2.914 0 0 0 .615.324 6.756 6.756 0 0 0 1.811.588 3.728 3.728 0 0 0 1.352 0 2.7 2.7 0 0 0 1.352-.676 3.379 3.379 0 0 0 .818-1.5c.155-.568.237-1.156.345-1.757.405-2.4.676-4.589.818-6.177.074-.791.122-1.433.142-1.879a3.075 3.075 0 0 0 0-.676 3.377 3.377 0 0 0-.122.676c-.061.507-.142 1.129-.237 1.872-.2 1.575-.5 3.757-.906 6.15a5.72 5.72 0 0 1-1.054 3.1 3.007 3.007 0 0 1-2.494.71 7.791 7.791 0 0 1-1.791-.48 3.2 3.2 0 0 0-.649-.277z" class="cls-7" transform="translate(-52.638 -182.977)"/>
                <path id="Path_26271" d="M89.189 295.041a.614.614 0 0 0-.3-.081 1.351 1.351 0 0 0-.811.284 1.385 1.385 0 1 0 2.135.743 1.3 1.3 0 0 0-.46-.723c-.162-.122-.277-.135-.284-.122a1.662 1.662 0 0 1 .527.892 1.25 1.25 0 0 1-.25 1.02 1.088 1.088 0 0 1-1.2.257 1.074 1.074 0 0 1-.77-.946 1.23 1.23 0 0 1 .439-.953 1.655 1.655 0 0 1 .974-.371z" class="cls-7" transform="translate(-53.802 -183.14)"/>
                <path id="Path_26272" d="M56.17 302.32a1.676 1.676 0 0 0 .5.061 9.275 9.275 0 0 0 1.352 0 13.008 13.008 0 0 0 4.345-1.115 13.258 13.258 0 0 0 3.724-2.5 9.227 9.227 0 0 0 .909-1.008 1.562 1.562 0 0 0 .284-.419c-.041-.034-.493.514-1.352 1.264a14.59 14.59 0 0 1-7.94 3.561c-1.112.122-1.815.102-1.822.156z" class="cls-7" transform="translate(-43.644 -183.911)"/>
                <path id="Path_26273" d="M108.17 295.06a5.948 5.948 0 0 0 .784 1.46 16.51 16.51 0 0 0 5.839 5.406 6.006 6.006 0 0 0 1.514.676 14.487 14.487 0 0 0-1.406-.865 20.625 20.625 0 0 1-3.149-2.392 21.355 21.355 0 0 1-2.622-2.96 15.479 15.479 0 0 0-.96-1.325z" class="cls-7" transform="translate(-60.504 -183.172)"/>
                <path id="Path_26274" d="M94.032 146.749a11.414 11.414 0 0 0-12.11-9.643l-.588.041c-6.332.838-9.157 6.677-8.15 12.982l2.2 22.368.108 4.629 15.07 1.352-.324-9.765s6.041-1.392 5.677-7.508c-.18-2.941-1.038-8.989-1.883-14.456z" class="cls-14" transform="translate(-49.096 -131.95)"/>
                <path id="Path_26275" d="M94.677 183.047a14.867 14.867 0 0 1-8.177-1.757s2.2 4.257 8.258 3.264z" class="cls-15" transform="translate(-53.478 -146.286)"/>
                <path id="Path_26276" d="M101.985 159.429a.872.872 0 0 1-.777.939.838.838 0 0 1-.96-.716.878.878 0 0 1 .777-.946.845.845 0 0 1 .96.723z" class="cls-8" transform="translate(-57.934 -138.96)"/>
                <path id="Path_26277" d="M100.836 155.617c-.095.122-.791-.318-1.73-.25s-1.595.595-1.7.487.041-.264.324-.5a2.371 2.371 0 0 1 1.352-.527 2.271 2.271 0 0 1 1.392.338c.301.168.416.364.362.452z" class="cls-8" transform="translate(-57.001 -137.703)"/>
                <path id="Path_26278" d="M88.879 160.978a.872.872 0 0 1-.777.939.838.838 0 0 1-.953-.723.872.872 0 0 1 .777-.939.831.831 0 0 1 .953.723z" class="cls-8" transform="translate(-53.687 -139.463)"/>
                <path id="Path_26279" d="M87.2 156.819c-.1.122-.8-.318-1.737-.243s-1.588.588-1.7.48.041-.257.324-.5a2.446 2.446 0 0 1 1.352-.527 2.311 2.311 0 0 1 1.352.338c.343.202.458.398.409.452z" class="cls-8" transform="translate(-52.578 -138.094)"/>
                <path id="Path_26280" d="M94.177 163.411a6.2 6.2 0 0 1 1.507-.385c.237-.041.46-.108.487-.277a1.2 1.2 0 0 0-.209-.676c-.27-.561-.547-1.156-.845-1.777a33.726 33.726 0 0 1-1.94-4.656 33.649 33.649 0 0 1 2.311 4.494l.811 1.784a1.352 1.352 0 0 1 .2.933.608.608 0 0 1-.372.378 1.426 1.426 0 0 1-.365.088 6.027 6.027 0 0 1-1.581.095z" class="cls-8" transform="translate(-55.641 -137.969)"/>
                <path id="Path_26281" d="M90.587 168.4c.155 0 .23 1 1.156 1.656s2.027.473 2.027.608-.23.216-.676.264a2.521 2.521 0 0 1-1.676-.453 2.223 2.223 0 0 1-.906-1.392c-.087-.426.008-.683.075-.683z" class="cls-8" transform="translate(-54.768 -142.106)"/>
                <path id="Path_26282" d="M86.789 151.448c-.074.264-1.02.209-2.108.426s-1.96.574-2.129.358c-.068-.1.068-.358.405-.628a3.622 3.622 0 0 1 1.548-.676 3.554 3.554 0 0 1 1.683.074c.412.142.635.324.601.446z" class="cls-8" transform="translate(-52.192 -136.42)"/>
                <path id="Path_26283" d="M100.16 151.57c-.149.223-.811.047-1.588.095s-1.426.25-1.595 0c-.074-.1 0-.324.284-.547a2.25 2.25 0 0 1 1.27-.439 2.176 2.176 0 0 1 1.3.338c.288.209.397.425.329.553z" class="cls-8" transform="translate(-56.866 -136.359)"/>
                <path id="Path_26284" d="M73.432 164.367a1.662 1.662 0 0 0-1.906-1.466c-1.129.189-2.352.933-2.1 3.278.439 4.17 4.528 2.872 4.521 2.75s-.313-2.818-.515-4.562z" class="cls-14" transform="translate(-47.931 -140.317)"/>
                <path id="Path_26285" d="M73.568 168.106a1.228 1.228 0 0 1-.182.128.75.75 0 0 1-.541.068 1.811 1.811 0 0 1-1-1.527 2.487 2.487 0 0 1 .095-1.061.845.845 0 0 1 .493-.615.372.372 0 0 1 .446.155c.068.115.047.2.074.2s.081-.081 0-.25a.439.439 0 0 0-.189-.243.561.561 0 0 0-.412-.061 1.02 1.02 0 0 0-.676.723 2.386 2.386 0 0 0-.128 1.189 1.892 1.892 0 0 0 1.243 1.689.77.77 0 0 0 .676-.182c.101-.112.115-.206.101-.213z" class="cls-15" transform="translate(-48.622 -140.968)"/>
                <path id="Path_26286" d="M123.836 218c1.939 5.65 2.588 5.744 4.352 22.057.338 3.169-.514 7.988-3.325 9.461s-7.8-.149-9.461-2.859l-1.872-12.022z" class="cls-14" transform="translate(-62.242 -158.188)"/>
                <path id="Path_26287" d="M118.54 251.309a26.138 26.138 0 0 1 1.054-2.426 25.392 25.392 0 0 1 1.487-2.183 2.283 2.283 0 0 0-.574.541 8.488 8.488 0 0 0-1.088 1.548 8.7 8.7 0 0 0-.723 1.75 2.661 2.661 0 0 0-.156.77z" class="cls-15" transform="translate(-63.866 -167.493)"/>
                <path id="Path_26288" d="M51.624 239.237l.076-13.427-.047-1.318L38 221.309s2.7-8.785 5.129-18.287a14.488 14.488 0 0 1 7.271-8.785l.25-.115L64.011 189c2.649 2.825 6.292 4.622 10.008 3.534a10.306 10.306 0 0 0 5.163-3.311l9.076 2.663a11.434 11.434 0 0 1 6.082 4.953c1.852 3.271 7.758 18.246 7.866 18.611l-10.954.987s1.946 35.512 1.257 41.858c0 0-2.656 1.838-9.366 2.156-13.6.642-33.857-.324-33.857-.324.318-2.027.676-5.474.838-7.2z" class="cls-10" transform="translate(-37.753 -148.785)"/>
                <path id="Path_26289" d="M116.287 210c-.054 0 .237 8.468.676 18.922s.791 18.922.845 18.922-.23-8.474-.676-18.922-.784-18.922-.845-18.922z" class="cls-8" transform="translate(-63.133 -155.594)"/>
                <path id="Path_26290" d="M119.126 219.329L114.9 236.94a3.058 3.058 0 0 1-2.507 2.027l-24 .081a2.845 2.845 0 0 1-1.75-2.96l3.142-16.82a2.19 2.19 0 0 1 2.095-1.777l25.294-.581a1.967 1.967 0 0 1 1.953 2.419z" class="cls-8" transform="translate(-53.518 -157.834)"/>
                <path id="Path_26291" d="M133.433 224.41a1.534 1.534 0 0 0-.034-1.9 2.345 2.345 0 0 0-1.825-.811 5.143 5.143 0 0 0-1.994.46 13.514 13.514 0 0 0-2.25 1.189 2.176 2.176 0 0 0-1.1 1.352c-.088.595.574 1.25 1.088.946a2.521 2.521 0 0 0-1.433 1.784c-.088.75.318 1.142 1.047 1.352a1.135 1.135 0 0 0-.615 1.46 1.3 1.3 0 0 0 1.669.446 3.75 3.75 0 0 0 1.385-1.223 4.25 4.25 0 0 0-.189 2.7c1.588-.581 3.149-2.352 2.7-4.055a2.277 2.277 0 0 0 .642-2.7 2.223 2.223 0 0 0 1.277-1.892" class="cls-14" transform="translate(-66.243 -159.387)"/>
                <path id="Path_26292" d="M130.62 235.251a3.509 3.509 0 0 1 .622-.446 6.27 6.27 0 0 0 1.352-1.21 3.257 3.257 0 0 0 .676-1.642 7.382 7.382 0 0 1 .047-.764 1.656 1.656 0 0 1 .1.777 3.014 3.014 0 0 1-.676 1.757 5.008 5.008 0 0 1-1.453 1.2 2.157 2.157 0 0 1-.669.324z" class="cls-15" transform="translate(-67.783 -162.464)"/>
                <path id="Path_26293" d="M127.47 231.342a6.408 6.408 0 0 0 .676-.541 4.731 4.731 0 0 1 1.8-.98 2.568 2.568 0 0 1 1.108 0 2.028 2.028 0 0 1 .818.385 2.615 2.615 0 0 1 .547.676.541.541 0 0 0-.068-.23 1.614 1.614 0 0 0-.4-.52 2.06 2.06 0 0 0-.858-.446 2.527 2.527 0 0 0-1.189 0 4.325 4.325 0 0 0-1.845 1.054 3.021 3.021 0 0 0-.589.602z" class="cls-15" transform="translate(-66.761 -161.953)"/>
                <path id="Path_26294" d="M127.62 227.006a3.264 3.264 0 0 0 .831-.365 8.114 8.114 0 0 1 .892-.412 7.144 7.144 0 0 1 1.142-.324 3.278 3.278 0 0 1 1.169-.041 2.149 2.149 0 0 1 .872.358 2.027 2.027 0 0 1 .581.676.582.582 0 0 0-.074-.243 1.528 1.528 0 0 0-.433-.52 2.028 2.028 0 0 0-.919-.412 3.291 3.291 0 0 0-1.23 0 6.793 6.793 0 0 0-1.169.351 6.667 6.667 0 0 0-.885.453 6.941 6.941 0 0 0-.777.48z" class="cls-15" transform="translate(-66.81 -160.673)"/>
                <path id="Path_26295" d="M69.61 149.3c.345 1.189.223 3.176 1.291 2.906 2.122-.534 1.608 3.811 2.629 3.379s1.892-1.656 1.953-4.332c.081-3.379-1.284-5.839.047-9.724a5.143 5.143 0 0 1 4.291-2.663 5.224 5.224 0 0 1 4.5 2.386c.189-1.189.77-2.973 1.825-3.541a3.041 3.041 0 0 1 3.379.277 2.487 2.487 0 0 1 .446 3.244 1.2 1.2 0 0 0 1.352-.48 2.027 2.027 0 0 1-.527 1.521 1.885 1.885 0 0 0 1.075-.743c-.108.487-.209.98-.318 1.466 1.784.047 3.534-1.683 4.055-3.223a7.954 7.954 0 0 0-1.135-6.758 7.346 7.346 0 0 0-6.083-3.515 5.643 5.643 0 0 0-5.454 3.447 7.772 7.772 0 0 0-6.589-.676 5.717 5.717 0 0 0-3.257 4.529 3.433 3.433 0 0 0-3.379.676c-.074.068-.155.128-.223.2a5.089 5.089 0 0 0-1.48 4.73c.128.676.365 1.352.5 1.926.352 1.539 1.102 4.968 1.102 4.968z" class="cls-8" transform="translate(-47.448 -129.492)"/>
                <path id="Path_26296" d="M99.429 143.034a.724.724 0 0 0 .142-.115 2.658 2.658 0 0 0 .351-.385 3.589 3.589 0 0 0 .676-1.777 3.379 3.379 0 0 0-.831-2.669 3.676 3.676 0 0 0-3.19-1.21 4.129 4.129 0 0 0-1.689.676 5.441 5.441 0 0 0-1.243 1.135 6.589 6.589 0 0 0-1.284 2.527 6.467 6.467 0 0 0-.2 1.9 5.182 5.182 0 0 0 .047.52.677.677 0 0 0 .041.176 7.623 7.623 0 0 1 .243-2.561 6.623 6.623 0 0 1 1.284-2.453 4.649 4.649 0 0 1 2.832-1.723 3.507 3.507 0 0 1 3.034 1.129 3.3 3.3 0 0 1 .831 2.548 3.791 3.791 0 0 1-.628 1.75 4.436 4.436 0 0 1-.416.532z" class="cls-7" transform="translate(-55.31 -131.878)"/>
                <path id="Path_26297" d="M99.861 144.292a1.553 1.553 0 0 0 .128-.2c.074-.142.189-.338.324-.6a13.557 13.557 0 0 0 .987-2.331 7.035 7.035 0 0 0 .27-1.73 4.987 4.987 0 0 0-.358-1.98 3.919 3.919 0 0 0-1.439-1.71 4.771 4.771 0 0 0-2.271-.75 5.717 5.717 0 0 0-2.358.378 7.494 7.494 0 0 0-1.933 1.1 5.812 5.812 0 0 0-2.115 3.061 4.177 4.177 0 0 0 .128 2.507 3.165 3.165 0 0 0 .311.615c.088.128.142.2.149.189a4.632 4.632 0 0 1-.392-.831 4.176 4.176 0 0 1-.068-2.446 5.71 5.71 0 0 1 2.088-2.96 6.312 6.312 0 0 1 4.176-1.426 4.481 4.481 0 0 1 2.183.716 3.7 3.7 0 0 1 1.352 1.615 4.677 4.677 0 0 1 .365 1.919 6.582 6.582 0 0 1-.243 1.7 14.24 14.24 0 0 1-.919 2.331l-.3.615a.972.972 0 0 0-.068.223z" class="cls-7" transform="translate(-54.924 -131.271)"/>
                <path id="Path_26298" d="M71.4 151.026a7.194 7.194 0 0 1-.892-.919 6.082 6.082 0 0 1-1.189-5.751c.223-.75.487-1.176.453-1.2a1.594 1.594 0 0 0-.2.291 5.926 5.926 0 0 0-.385.865 6.015 6.015 0 0 0-.2 3.109 5.933 5.933 0 0 0 1.419 2.771 4.541 4.541 0 0 0 .676.676 1.169 1.169 0 0 0 .318.158z" class="cls-7" transform="translate(-47.763 -133.923)"/>
                <path id="Path_26299" d="M76.339 151.332a3.328 3.328 0 0 1-.541-.318 3.021 3.021 0 0 1-1.054-1.264l-.176-.405.041.439.182 1.994.135-.081a5.454 5.454 0 0 1-2.3-3.528 5.6 5.6 0 0 1 0-1.967 7.487 7.487 0 0 1 .588-1.723.425.425 0 0 0-.081.1 3.211 3.211 0 0 0-.182.318 5.075 5.075 0 0 0-.453 1.284 5.467 5.467 0 0 0-.054 2.027 5.535 5.535 0 0 0 2.365 3.649l.155.1v-.182c-.081-.73-.155-1.406-.216-1.994l-.135.034a2.919 2.919 0 0 0 1.142 1.277 2.627 2.627 0 0 0 .419.209.453.453 0 0 0 .162.027z" class="cls-7" transform="translate(-48.899 -134.351)"/>
                <path id="Path_26300" d="M79.991 140.6a4.156 4.156 0 0 1 .966-1.21 3.6 3.6 0 0 1 1.5-.676 3.737 3.737 0 0 1 2.027.182 4.385 4.385 0 0 1 1.683 1.135 5.257 5.257 0 0 1 .906 1.412 9.964 9.964 0 0 1 .453 1.493 1.277 1.277 0 0 0 0-.426 5.467 5.467 0 0 0-.3-1.122 5.054 5.054 0 0 0-.906-1.473 4.432 4.432 0 0 0-1.744-1.2 3.872 3.872 0 0 0-2.108-.176 3.548 3.548 0 0 0-1.548.77 2.994 2.994 0 0 0-.8.865 2.161 2.161 0 0 0-.128.291c-.001.094-.041.128-.001.135z" class="cls-7" transform="translate(-51.362 -132.403)"/>
                <path id="Path_26301" d="M81.4 136.566a5.593 5.593 0 0 1 1.149-.439 4.143 4.143 0 0 1 2.865.405 5.136 5.136 0 0 1 2.027 2.108c.365.676.48 1.142.514 1.129a.946.946 0 0 0-.068-.331 4.439 4.439 0 0 0-.331-.858 4.98 4.98 0 0 0-2.027-2.21 4.115 4.115 0 0 0-2.987-.37 3.034 3.034 0 0 0-.851.365.959.959 0 0 0-.291.201z" class="cls-7" transform="translate(-51.824 -131.559)"/>
                <path id="Path_26302" d="M59.6 213.54c.095 0-.176 7.521-.615 16.786s-.872 16.773-.993 16.766.176-7.515.615-16.786.893-16.773.993-16.766z" class="cls-8" transform="translate(-44.225 -156.742)"/>
                <path id="Path_26303" d="M37.841 241.209c.439-3.332.811-6.278.811-6.278l10.9 2.527-.466 1.757 8.393-8.555 1.352.115 4.237 4.406s-3.7 7.812-5.845 10.853c-2.8 3.953-7.2 9.981-13.218 9.461-5.556-.453-6.961-8.305-6.164-14.286z" class="cls-14" transform="translate(-37.635 -162.292)"/>
                <path id="Path_26304" d="M46.67 247.421a9.711 9.711 0 0 1 2.4-2.176 9.461 9.461 0 0 1 2.845-1.575c.047.088-1.2.818-2.642 1.858a29.037 29.037 0 0 1-2.603 1.893z" class="cls-15" transform="translate(-40.564 -166.51)"/>
                <path id="Path_26305" d="M80.319 213.212l-3.744-1.912-4.859 1.541-2.406 2.223-3.73 9.319-2.96 3.751 5.231 6.812 3.3-6.042s2.811-1.223 3.933-3 1.629-2.7 1.629-2.7 1.629-.784 1.926-1.527a3.75 3.75 0 0 0 .284-1.352l-.818-1.2a2.967 2.967 0 0 0-.25-1.527 1.5 1.5 0 0 0-.642-.52s.237-1.007-.142-1.352a11.834 11.834 0 0 0-2.244-1.027l1.635-.926s3.654 1.095 3.857-.561z" class="cls-14" transform="translate(-45.736 -156.015)"/>
                <path id="Path_26306" d="M80.58 219.107c0 .047.574.068 1.264.21s1.216.365 1.237.318a2.913 2.913 0 0 0-1.2-.473 2.96 2.96 0 0 0-1.301-.055z" class="cls-15" transform="translate(-51.559 -158.531)"/>
                <path id="Path_26307" d="M82.25 222.2a10.14 10.14 0 0 0 1.081.135 10.227 10.227 0 0 0 1.074.189 3.3 3.3 0 0 0-2.156-.324z" class="cls-15" transform="translate(-52.1 -159.532)"/>
                <path id="Path_26308" d="M84.547 226.623c.047 0 .074-.216.074-.48s-.047-.473-.095-.473-.074.216-.068.48.049.473.089.473z" class="cls-15" transform="translate(-52.816 -160.674)"/>
                <path id="Path_26309" d="M83.506 227.888a1.676 1.676 0 0 1 1.1-1.406.71.71 0 0 0-.3 0 1.264 1.264 0 0 0-.581.419 1.277 1.277 0 0 0-.27.676c-.01.203.031.323.051.311z" class="cls-15" transform="translate(-52.491 -160.933)"/>
                <path id="Path_26310" d="M79.2 223.679a2.369 2.369 0 0 1 .676-.676 2.406 2.406 0 0 1 .892-.216.584.584 0 0 0-.284-.088 1.237 1.237 0 0 0-.676.169 1.25 1.25 0 0 0-.5.493c-.119.217-.132.312-.108.318z" class="cls-15" transform="translate(-51.107 -159.711)"/>
                <path id="Path_26311" d="M76.667 220.623a2.57 2.57 0 0 1 .6-.622 2.831 2.831 0 0 1 .818-.277.521.521 0 0 0-.27-.054 1.257 1.257 0 0 0-1.081.676c-.073.168-.08.277-.067.277z" class="cls-15" transform="translate(-50.288 -158.729)"/>
                <path id="Path_26312" d="M74.961 218.808a1.678 1.678 0 0 1 .039-.318 1.419 1.419 0 0 1 .852-1.149 2.066 2.066 0 0 0 .3-.128.907.907 0 0 0-.338 0 1.3 1.3 0 0 0-.933 1.25.6.6 0 0 0 .08.345z" class="cls-15" transform="translate(-49.711 -157.928)"/>
                <path id="Path_26313" d="M77.33 215.978c0 .054.784.068 1.73.21a17.3 17.3 0 0 1 1.676.432 3.806 3.806 0 0 0-1.656-.588 7.442 7.442 0 0 0-1.237-.095 1.561 1.561 0 0 0-.513.041z" class="cls-15" transform="translate(-50.505 -157.517)"/>
            </g>
            <g id="freepik--Plant--inject-4" transform="translate(221.488 169.829)">
                <path id="Path_26315" d="M375.776 376.789a20.8 20.8 0 0 0-8.893-3.061 5.936 5.936 0 0 0-4.21.77.858.858 0 0 0-.432.77.953.953 0 0 0 .412.527 12.712 12.712 0 0 0 13.124.993" class="cls-10" transform="translate(-359.908 -307.927)"/>
                <path id="Path_26316" d="M377.394 371.225a44.057 44.057 0 0 1-5.751-5.055 14.563 14.563 0 0 1-3.6-6.67 2.7 2.7 0 0 1 .284-2.23c4.582 3.582 8.184 8.211 9.069 13.955" class="cls-10" transform="translate(-361.75 -302.613)"/>
                <path id="Path_26317" d="M382.06 371.632a20.835 20.835 0 0 1 .108-7.548 10.211 10.211 0 0 1 4.021-6.224 8.889 8.889 0 0 1-.108 5.913 28.446 28.446 0 0 1-3.987 8.393" class="cls-10" transform="translate(-366.24 -302.804)"/>
                <path id="Path_26318" d="M383.481 390.15a13.185 13.185 0 0 0-7.136 3.609 13.516 13.516 0 0 0-4.055 7.008c2.7-.162 4.94-2.027 6.589-4.163s2.784-4.433 4.589-6.413" class="cls-10" transform="translate(-363.167 -313.273)"/>
                <path id="Path_26319" d="M389.7 384.064a17.57 17.57 0 0 1 2.027-16.644 21.183 21.183 0 0 1-2.027 16.644" class="cls-10" transform="translate(-368.413 -305.904)"/>
                <path id="Path_26320" d="M393.148 402.5a12.7 12.7 0 0 0-12.164 7.008.939.939 0 0 0-.088.953.926.926 0 0 0 .811.236c2.4-.155 4.521-1.6 6.278-3.244a61.158 61.158 0 0 1 5.217-4.96" class="cls-10" transform="translate(-365.928 -317.268)"/>
                <path id="Path_26321" d="M398.3 393.853a22.734 22.734 0 0 1-.223-12.664c.446-1.629 1.2-3.345 2.7-4.109a.527.527 0 0 1 .412-.068.547.547 0 0 1 .264.3 7.678 7.678 0 0 1 .635 3.636 22.714 22.714 0 0 1-.568 3.676c-.48 2.25-.73 4.663-1.96 6.6a11.951 11.951 0 0 0-.784 1.446c-.237.493-.237.676-.453 1.061" class="cls-10" transform="translate(-371.272 -309.009)"/>
                <path id="Path_26322" d="M421.8 398.71a16.32 16.32 0 0 1 2.859-13.421c.209-.264.48-.554.818-.52.514.047.642.73.622 1.243a24.247 24.247 0 0 1-4.3 12.7" class="cls-10" transform="translate(-379.088 -311.528)"/>
                <path id="Path_26323" d="M424.127 404.612a19.53 19.53 0 0 0 16.023-3.271 13 13 0 0 0-8.677-1.054 12.436 12.436 0 0 0-7.352 4.325" class="cls-10" transform="translate(-379.971 -316.456)"/>
                <path id="Path_26324" d="M425.9 398.437a18.542 18.542 0 0 1 14.543-8.407 9.016 9.016 0 0 1-4.73 5.258 26.106 26.106 0 0 1-6.981 2.027c-.926.182-2.2.378-2.8 1.108" class="cls-10" transform="translate(-380.548 -313.234)"/>
                <path id="Path_26325" d="M421.478 373.182a42.131 42.131 0 0 0 1.858-8.515 14.191 14.191 0 0 0-1.7-8.427 18.547 18.547 0 0 0-.243 17.232" class="cls-10" transform="translate(-378.438 -302.279)"/>
                <path id="Path_26326" d="M436.5 368.741c3.291-5.974 10-10.752 16.793-11.421-2.622 6.521-9.765 11.563-16.793 11.421" class="cls-10" transform="translate(-383.985 -302.629)"/>
                <path id="Path_26327" d="M433.44 375.535c4.906.743 9.083 3.879 13.671 5.778a6.164 6.164 0 0 0 3.088.595 2.419 2.419 0 0 0 1.521-4.278 6.557 6.557 0 0 0-2.25-1.352 24.964 24.964 0 0 0-15.611-.872" class="cls-10" transform="translate(-382.993 -308.221)"/>
                <path id="Path_26328" d="M429.23 380.938a5.75 5.75 0 0 1 2.372 1.642 25.6 25.6 0 0 0 10.366 5.325c.4.1.919.142 1.115-.216s-.047-.676-.27-.973a14.285 14.285 0 0 0-6.258-4.251c-2.392-.885-4.467-1.96-7.326-1.73" class="cls-10" transform="translate(-381.628 -310.21)"/>
                <path id="Path_26329" d="M424.483 350.035a19.652 19.652 0 0 0 15.043 5.122 1.061 1.061 0 0 0 .676-.25c.378-.412-.074-1.047-.52-1.392a17.328 17.328 0 0 0-15.212-3.48" class="cls-10" transform="translate(-380.085 -300.095)"/>
                <path id="Path_26330" d="M430.11 346.272a20.949 20.949 0 0 1 18.773-3.1 14.867 14.867 0 0 1-8.941 3.926 28.237 28.237 0 0 1-9.833-.831" class="cls-10" transform="translate(-381.913 -297.724)"/>
                <path id="Path_26331" d="M426.661 327.73c-.433-4.413-.155-7.9-.46-12.333 0-.358-.1-.784-.432-.912-.46-.176-.845.392-1 .865a14.144 14.144 0 0 0 1.885 12.313" class="cls-10" transform="translate(-379.971 -288.73)"/>
                <path id="Path_26332" d="M427.4 328.167a25.877 25.877 0 0 0 7.312-7.109c1.446-1.973 2.663-4.339 2.331-6.758a6.988 6.988 0 0 0-5.271 2.615 14.758 14.758 0 0 0-2.7 5.406c-.588 1.939-.993 3.94-1.683 5.846" class="cls-10" transform="translate(-381.031 -288.681)"/>
                <path id="Path_26333" d="M437.968 326.563a58.893 58.893 0 0 0 18-10.617c-2.149-.865-4.609-.345-6.758.52a21.355 21.355 0 0 0-11.31 10.05" class="cls-10" transform="translate(-384.439 -289.071)"/>
                <path id="Path_26334" d="M430.4 335.9a36.943 36.943 0 0 0 9.995.047 42.228 42.228 0 0 0 9.326-3.1 1.1 1.1 0 0 0 .635-.48.716.716 0 0 0-.23-.8 1.784 1.784 0 0 0-.791-.372 17.212 17.212 0 0 0-10.083.6 46.337 46.337 0 0 0-8.853 4.1" class="cls-10" transform="translate(-382.007 -293.996)"/>
                <path id="Path_26335" d="M401.53 343.5a17.657 17.657 0 0 1-.162-14.631 11.3 11.3 0 0 1 1.291 7.271c-.257 2.5-1.014 5.075-1.061 7.582" class="cls-10" transform="translate(-372.106 -293.405)"/>
                <path id="Path_26336" d="M381.654 343.759a20.408 20.408 0 0 0-15.165 6.46 14.252 14.252 0 0 0 8.305-1.568 41.993 41.993 0 0 0 7.109-4.73" class="cls-10" transform="translate(-361.286 -298.232)"/>
                <path id="Path_26337" d="M373.069 340.612c-2.771-.223-5.406-.568-8.109.25a9.725 9.725 0 0 0-6.17 5.231 14.65 14.65 0 0 0 7.575-1.433 43.167 43.167 0 0 0 6.677-4.055" class="cls-10" transform="translate(-358.79 -297.126)"/>
                <path id="Path_26338" d="M385.472 338.843c-2.494-1.629-5.048-3.291-7.954-3.967s-6.258-.176-8.278 2.027c2.345 1.352 5.2 1.541 7.913 1.541s6.082-.034 8.63.872" class="cls-10" transform="translate(-362.178 -295.261)"/>
                <path id="Path_26339" d="M390.961 332.728c-4.257-4.183-5.873-11.691-4.163-17.408a26.518 26.518 0 0 1 4.163 17.408" class="cls-10" transform="translate(-367.653 -289.012)"/>
                <path id="Path_26340" d="M410.6 316.972c.8-1.872 1.352-3.832 2.088-5.731a16.556 16.556 0 0 1 2.98-5.278 7.839 7.839 0 0 1 5.271-2.7 21.227 21.227 0 0 1-10.231 13.766" class="cls-10" transform="translate(-375.588 -285.102)"/>
                <path id="Path_26341" d="M402.185 323.6c-1.352-1.831-2.865-4.311-4.67-5.677a7.822 7.822 0 0 0-6.346-1.669 14.772 14.772 0 0 0 11.015 7.346" class="cls-10" transform="translate(-369.288 -289.264)"/>
                <path id="Path_26342" d="M407.009 317.188a31.408 31.408 0 0 1-2.095-6.8 10.623 10.623 0 0 1 1.061-6.92c2.338 4.42 3.1 9.164 1.156 13.772" class="cls-10" transform="translate(-373.686 -285.17)"/>
                <path id="Path_26343" d="M410.64 298.982c1.318-4.379 5.332-7.6 9.664-9.082a3.555 3.555 0 0 1 1.689-.257 1.466 1.466 0 0 1 1.25 1.041c.162.75-.46 1.412-1.034 1.912a33.013 33.013 0 0 1-11.569 6.386" class="cls-10" transform="translate(-375.601 -280.682)"/>
                <path id="Path_26344" d="M410.674 291.108a31.384 31.384 0 0 1 1.264-8.366 10.609 10.609 0 0 1 5.264-6.352c.432 2.852-.824 5.683-2.338 8.143s-3.379 4.771-4.264 7.508" class="cls-10" transform="translate(-375.588 -276.39)"/>
                <path id="Path_26345" d="M406.665 293.684c-1.095-3.2-1.2-7.251-3.115-10.029-1.352-1.946-3.474-3.271-4.629-5.325a8.11 8.11 0 0 0 .27 6.041 17.386 17.386 0 0 0 3.534 5.062c1.419 1.514 2.629 2.649 3.94 4.251" class="cls-10" transform="translate(-371.653 -277.019)"/>
                <path id="Path_26346" d="M410.559 394.516c-.088 0-.162-21.294-.169-47.555s.061-47.561.142-47.561.162 21.287.169 47.561-.061 47.555-.142 47.555z" class="cls-8" transform="translate(-375.52 -283.85)"/>
                <path id="Path_26347" d="M429.237 345.76a4.391 4.391 0 0 1-.8.3l-2.2.743c-1.858.628-4.413 1.548-7.184 2.7s-5.325 2.129-6.8 3.379a4.994 4.994 0 0 0-1.353 1.818c-.21.5-.243.8-.277.8a.676.676 0 0 1 0-.223 3.145 3.145 0 0 1 .155-.622 4.8 4.8 0 0 1 1.352-1.926 11.832 11.832 0 0 1 2.953-1.831c1.183-.554 2.487-1.129 3.879-1.7 2.777-1.142 5.352-2.027 7.231-2.608.939-.291 1.7-.507 2.237-.676a4.388 4.388 0 0 1 .8-.155z" class="cls-8" transform="translate(-375.593 -298.881)"/>
                <path id="Path_26348" d="M436.04 323.59a1.967 1.967 0 0 1-.223.243l-.676.635-2.548 2.318-8.488 7.562c-3.318 2.953-6.183 5.771-8.163 7.893-.993 1.061-1.777 1.94-2.311 2.548-.25.284-.453.52-.622.676s-.216.243-.23.237a1.287 1.287 0 0 1 .182-.27c.128-.176.318-.426.574-.743.507-.676 1.27-1.541 2.244-2.622a106.273 106.273 0 0 1 8.109-7.974c3.325-2.94 6.352-5.589 8.555-7.494l2.615-2.244.716-.595a1.45 1.45 0 0 1 .266-.17z" class="cls-8" transform="translate(-376.295 -291.693)"/>
                <path id="Path_26349" d="M424.216 340.463c-.088-.041.608-1.635 1.3-3.663s1.02-3.724 1.108-3.71a12.476 12.476 0 0 1-.818 3.811 24.212 24.212 0 0 1-1.034 2.561 3.88 3.88 0 0 1-.554 1z" class="cls-8" transform="translate(-380 -294.773)"/>
                <path id="Path_26350" d="M404.743 355.546a3.793 3.793 0 0 1-.507-.595l-1.291-1.662c-1.095-1.419-2.615-3.379-4.318-5.528s-3.271-4.055-4.406-5.46l-1.352-1.656a3.878 3.878 0 0 1-.46-.635 3.713 3.713 0 0 1 .554.554c.338.372.824.912 1.412 1.595 1.176 1.352 2.771 3.264 4.48 5.406s3.2 4.129 4.251 5.589c.527.723.946 1.318 1.23 1.737a3.3 3.3 0 0 1 .407.655z" class="cls-8" transform="translate(-369.69 -297.017)"/>
                <path id="Path_26351" d="M403.614 352.174a7.434 7.434 0 0 1-1.71-3.2 9.13 9.13 0 0 1-.392-3.223h.142c-.061.243-.108.372-.135.372s0-.142 0-.4h.135a14.717 14.717 0 0 0 .541 3.142 23.962 23.962 0 0 0 1.419 3.309z" class="cls-8" transform="translate(-372.637 -298.868)"/>
                <path id="Path_26352" d="M392.421 344.832a5.553 5.553 0 0 0-1.189-.676 7.927 7.927 0 0 0-3.318-.264 19.8 19.8 0 0 0-3.332.541 9.729 9.729 0 0 1-1.352.324 4.993 4.993 0 0 1 1.318-.534 15 15 0 0 1 3.379-.635 7.189 7.189 0 0 1 3.419.365 2.134 2.134 0 0 1 1.075.879z" class="cls-8" transform="translate(-366.714 -298.156)"/>
                <path id="Path_26353" d="M388.788 342.16c0 .047-.676-.277-1.825-.676a18.408 18.408 0 0 0-9.218-.676c-1.176.216-1.892.432-1.906.385a1.765 1.765 0 0 1 .487-.209 12.594 12.594 0 0 1 1.352-.385 16.266 16.266 0 0 1 9.333.71 11.186 11.186 0 0 1 1.3.595 1.846 1.846 0 0 1 .477.256z" class="cls-8" transform="translate(-364.318 -297.085)"/>
                <path id="Path_26354" d="M409.456 328.51a38.872 38.872 0 0 1-1.352-4.629 37.766 37.766 0 0 1-1.034-4.73 38.872 38.872 0 0 1 1.352 4.629 36.357 36.357 0 0 1 1.034 4.73z" class="cls-8" transform="translate(-374.443 -290.254)"/>
                <path id="Path_26355" d="M408.976 330.594a21.741 21.741 0 0 0-1.48-2.771 11.765 11.765 0 0 0-2.176-2.244 1.892 1.892 0 0 1 .845.433 6.682 6.682 0 0 1 1.588 1.635 6.19 6.19 0 0 1 1.223 2.946z" class="cls-8" transform="translate(-373.876 -292.338)"/>
                <path id="Path_26356" d="M401.254 408.439c-.034 0-.1-.514-.338-1.419a19.994 19.994 0 0 0-1.446-3.683 50.909 50.909 0 0 0-7.549-10.637c-1.683-1.926-3.318-3.744-4.73-5.481a39.192 39.192 0 0 1-3.379-4.859 22.975 22.975 0 0 1-1.7-3.6c-.162-.446-.277-.791-.338-1.034a2.1 2.1 0 0 1-.088-.365s.182.487.534 1.352a26.288 26.288 0 0 0 1.78 3.533 40.035 40.035 0 0 0 3.379 4.785c1.392 1.723 3.034 3.534 4.73 5.46a48.408 48.408 0 0 1 7.515 10.745 18.288 18.288 0 0 1 1.352 3.751 10.789 10.789 0 0 1 .189 1.068 2.027 2.027 0 0 1 .088.385z" class="cls-8" transform="translate(-366.215 -309.126)"/>
                <path id="Path_26357" d="M427.453 395.249a9.068 9.068 0 0 1-.885.493 19.724 19.724 0 0 0-2.284 1.507 25.777 25.777 0 0 0-3 2.744c-1.054 1.108-2.142 2.406-3.25 3.784-2.21 2.784-4.284 5.244-5.521 7.2-.635.973-1.088 1.8-1.392 2.372a7.087 7.087 0 0 1-.48.885.636.636 0 0 1 .081-.25c.081-.162.155-.4.291-.676a23.067 23.067 0 0 1 1.311-2.433 80.491 80.491 0 0 1 5.476-7.275c1.108-1.352 2.21-2.7 3.284-3.8a24.333 24.333 0 0 1 3.075-2.7 15.82 15.82 0 0 1 2.358-1.446c.291-.149.534-.236.676-.3a.82.82 0 0 1 .26-.105z" class="cls-8" transform="translate(-375.601 -314.926)"/>
                <path id="Path_26358" d="M430.423 404.351a12.054 12.054 0 0 1-1.865.27 24.931 24.931 0 0 0-4.42.872 13.2 13.2 0 0 0-3.953 2.075c-.912.71-1.352 1.291-1.385 1.257a1.451 1.451 0 0 1 .277-.432 7.431 7.431 0 0 1 .966-.993 12.017 12.017 0 0 1 4-2.2 20.141 20.141 0 0 1 4.494-.8 10.577 10.577 0 0 1 1.885-.054z" class="cls-8" transform="translate(-378.246 -317.871)"/>
                <path id="Path_26359" d="M419.606 406.972c-.095-.061.743-1.352 1.4-3.068s.75-3.264.858-3.244a2.894 2.894 0 0 1 0 1 11.1 11.1 0 0 1-.541 2.352 12.064 12.064 0 0 1-1.081 2.163 5.33 5.33 0 0 1-.636.797z" class="cls-8" transform="translate(-378.505 -316.681)"/>
                <path id="Path_26360" d="M432.913 370.77a2.228 2.228 0 0 1-.3.155l-.879.4a10.022 10.022 0 0 0-1.352.676c-.5.3-1.142.554-1.784.939l-1.014.574c-.351.2-.676.446-1.074.676-.743.453-1.493 1.014-2.3 1.588a43.1 43.1 0 0 0-4.8 4.224 44.119 44.119 0 0 0-4.055 4.94c-.547.824-1.081 1.595-1.507 2.358-.216.378-.446.73-.635 1.095l-.547 1.034c-.358.676-.615 1.277-.872 1.811s-.453 1.007-.6 1.392l-.365.892a1.547 1.547 0 0 1-.149.3 1.209 1.209 0 0 1 .088-.324c.081-.237.189-.541.311-.906a14.1 14.1 0 0 1 .561-1.419c.237-.547.487-1.183.838-1.845l.527-1.048c.182-.365.412-.73.629-1.108.419-.777.946-1.561 1.487-2.386a41.561 41.561 0 0 1 4.055-5 41.111 41.111 0 0 1 4.852-4.237c.811-.568 1.575-1.129 2.331-1.575.379-.23.73-.466 1.088-.676l1.034-.568c.676-.372 1.277-.642 1.811-.9s1.007-.453 1.4-.6l.9-.345a1.267 1.267 0 0 1 .321-.117z" class="cls-8" transform="translate(-375.614 -306.99)"/>
                <path id="Path_26361" d="M423.88 382.936a2.156 2.156 0 0 1 .737-1.088 4.588 4.588 0 0 1 2.946-1.129 8.111 8.111 0 0 1 3.1.6 4.353 4.353 0 0 1 1.176.574 7.792 7.792 0 0 1-1.25-.365 9.163 9.163 0 0 0-3.021-.507 4.811 4.811 0 0 0-2.811.987 9.828 9.828 0 0 0-.879.926z" class="cls-8" transform="translate(-379.893 -310.216)"/>
                <path id="Path_26362" d="M420.94 384.338a10.811 10.811 0 0 0 .838-2.7 11.169 11.169 0 0 0-.189-2.845 1.79 1.79 0 0 1 .345.791 5.534 5.534 0 0 1 .149 2.088 5.594 5.594 0 0 1-.622 2.027 2.089 2.089 0 0 1-.521.639z" class="cls-8" transform="translate(-378.94 -309.59)"/>
                <path id="Path_26363" d="M388.87 427.87c.46 8.109 2.913 16.408 6.683 24.781h16.381a71.154 71.154 0 0 0 6.285-24.781z" class="cls-7" transform="translate(-368.542 -325.503)"/>
                <path id="Path_26364" d="M416.829 447.275c0 .088-5.406.155-12.063.155s-12.056-.068-12.056-.155 5.406-.155 12.056-.155 12.063.074 12.063.155z" class="cls-12" transform="translate(-369.788 -331.744)"/>
                <path id="Path_26365" d="M417.012 451.639c0 .088-5.062.155-11.306.155s-11.306-.068-11.306-.155 5.062-.149 11.306-.149 11.306.068 11.306.149z" class="cls-12" transform="translate(-370.335 -333.161)"/>
            </g>
        </g>
    </g>
</svg>
