<svg xmlns="http://www.w3.org/2000/svg" width="221.172" height="49.044" viewBox="0 0 221.172 49.044"><defs><style>.a{fill:#060a3d;}.b{fill:#fff;}</style></defs><g transform="translate(-77.675 -23.528)"><path class="a" d="M26.2,1.072A23.681,23.681,0,0,1,8.643-5.963,23.859,23.859,0,0,1,1.675-23.45,23.859,23.859,0,0,1,8.643-40.937,23.681,23.681,0,0,1,26.2-47.972,24.1,24.1,0,0,1,38.19-44.89a22.551,22.551,0,0,1,8.576,8.308l-11.658,6.7A8.4,8.4,0,0,0,31.557-33.5a10.849,10.849,0,0,0-5.36-1.34,10.632,10.632,0,0,0-8.04,3.216,11.334,11.334,0,0,0-3.082,8.174,11.334,11.334,0,0,0,3.082,8.174A10.632,10.632,0,0,0,26.2-12.06,10.8,10.8,0,0,0,31.59-13.4a8.356,8.356,0,0,0,3.517-3.685l11.658,6.7A22.4,22.4,0,0,1,38.19-2.01,24.1,24.1,0,0,1,26.2,1.072ZM70.149,0,68.541-6.03H55.007L53.4,0h-14.4L53.935-46.9H69.613L84.554,0ZM57.888-16.75H65.66L61.774-31.155ZM104.319-.067l-7.437-14.74h-3.35V-.067h-13.4v-46.9h18.76a18.311,18.311,0,0,1,12.73,4.522,15.313,15.313,0,0,1,5.025,11.959,14.883,14.883,0,0,1-1.91,7.5,14.939,14.939,0,0,1-5.327,5.427L118.657-.067ZM93.532-34.639v8.71h5.092A4.584,4.584,0,0,0,102.007-27a4.149,4.149,0,0,0,1.239-3.216,4.258,4.258,0,0,0-1.239-3.249,4.724,4.724,0,0,0-3.383-1.173Z" transform="translate(76 71.5)"/><path class="b" d="M13.266,0,0-46.9H14.74L21.1-21.1,28.676-46.9H38.994L46.565-21.1,52.93-46.9H67.67L54.4,0h-13.2l-7.37-25.058L26.465,0Zm52.8-46.9h13.4V0h-13.4ZM97.418-13h15.611V0H79.864V-10.318L94.8-33.9H80.2v-13h32.16v10.318Z" transform="translate(185.818 71.5)"/></g></svg>