<svg xmlns="http://www.w3.org/2000/svg" width="375" height="243" viewBox="0 0 375 243">
    <defs>
        <filter id="Rectangle_1" width="238.669" height="170.548" x="69.159" y="41.185" filterUnits="userSpaceOnUse">
            <feOffset dy="3"/>
            <feGaussianBlur result="blur" stdDeviation="3"/>
            <feFlood flood-opacity=".161"/>
            <feComposite in2="blur" operator="in"/>
            <feComposite in="SourceGraphic"/>
        </filter>
        <style>
            .cls-1{fill:#67d0ff}.cls-2,.cls-8{fill:#fff}.cls-2{fill-rule:evenodd}.cls-3{fill:#e5f2f8}.cls-4{fill:#e3efff}.cls-5{fill:#407bff}.cls-9{fill:#cc9f1f}.cls-7{fill:#263238}.cls-10{fill:#ffc727}.cls-11{fill:#acc7ea}.cls-12{opacity:.2}.cls-13{fill:#e0e0e0}
        </style>
    </defs>
    <g id="Group_10754" transform="translate(0 -98)">
        <path id="Rectangle_15393" d="M0 0H375V243H0z" class="cls-1" transform="translate(0 98)"/>
        <g id="Group_10728" transform="translate(17.877 -5076.751)">
            <g id="Background_Complete" transform="translate(254.492 5201.141)">
                <g id="Group_19">
                    <g id="Group_18">
                        <g id="Group_17">
                            <g id="Group_16">
                                <g id="Group_15">
                                    <g id="Group_14">
                                        <g id="Group_13">
                                            <g id="Group_12">
                                                <path id="Path_4" d="M586.431 32.545a18.159 18.159 0 0 1 4.664 1.231l3.428-2.873 5.888 4.482-1.855 4.07a18.12 18.12 0 0 1 2.431 4.167l4.454.392.994 7.333-4.188 1.565a18.1 18.1 0 0 1-1.232 4.664l2.873 3.428-4.481 5.888-4.07-1.855a18.152 18.152 0 0 1-4.168 2.43l-.391 4.454-7.334 1-1.565-4.189a18.1 18.1 0 0 1-4.664-1.232l-3.429 2.873-5.886-4.485 1.856-4.07a18.17 18.17 0 0 1-2.43-4.167l-4.453-.393-.995-7.333 4.188-1.565a18.088 18.088 0 0 1 1.232-4.665l-2.873-3.428 4.481-5.888 4.07 1.856a18.141 18.141 0 0 1 4.168-2.431l.392-4.453 7.332-.995 1.566 4.188zm-2.2 10.112a7.939 7.939 0 1 0 7.974 6.073 7.942 7.942 0 0 0-7.973-6.074z" class="cls-2" transform="translate(-561.875 -28.357)"/>
                                            </g>
                                        </g>
                                    </g>
                                </g>
                            </g>
                        </g>
                    </g>
                </g>
            </g>
            <g id="Nuts" transform="translate(15.624 5236.917)">
                <g id="Group_51" transform="translate(0 64.616)">
                    <g id="Group_30" transform="translate(12.41)">
                        <g id="Group_25">
                            <g id="Group_24">
                                <g id="Group_23">
                                    <g id="Group_22">
                                        <path id="Path_8" d="M118.434 243.339a16.963 16.963 0 0 1 3.683 2.595l3.936-1.4 3.7 5.839-2.948 2.961a16.941 16.941 0 0 1 .773 4.44l3.773 1.792-1.513 6.745-4.176.009a16.913 16.913 0 0 1-2.6 3.684l1.4 3.936-5.838 3.7-2.961-2.948a16.917 16.917 0 0 1-4.44.772l-1.791 3.773-6.746-1.513-.009-4.177A16.909 16.909 0 0 1 99 270.95l-3.937 1.4-3.7-5.839 2.949-2.961a16.953 16.953 0 0 1-.773-4.439l-3.772-1.792 1.513-6.745 4.176-.009a16.9 16.9 0 0 1 2.6-3.684l-1.4-3.936 5.838-3.7 2.961 2.948a16.952 16.952 0 0 1 4.44-.773l1.791-3.772 6.744 1.513.01 4.176zm-5.947 7.936a7.415 7.415 0 1 0 5.612 8.859 7.415 7.415 0 0 0-5.612-8.859z" class="cls-2" transform="translate(-89.766 -237.65)"/>
                                    </g>
                                </g>
                            </g>
                        </g>
                    </g>
                    <g id="Group_41" transform="translate(26.315 53.882)">
                        <g id="Group_35" transform="translate(12.41 12.209)">
                            <g id="Group_34">
                                <g id="Group_33">
                                    <g id="Group_32">
                                        <g id="Group_31">
                                            <path id="Path_10" d="M152.976 375.662a5.05 5.05 0 0 1 1.586.5 6.674 6.674 0 0 1 3.16 3.2 6.755 6.755 0 0 1 .645 3.089 6.867 6.867 0 0 1-1.063 3.464 6.872 6.872 0 0 1-3.034 2.607 6.843 6.843 0 0 1-7.954-1.784 6.872 6.872 0 0 1-1.63-3.654 6.867 6.867 0 0 1 .519-3.587 6.758 6.758 0 0 1 1.9-2.518 6.675 6.675 0 0 1 4.223-1.542 5.064 5.064 0 0 1 1.646.229c-.007.047-.586-.117-1.641-.079a6.687 6.687 0 0 0-4.052 1.6 6.549 6.549 0 0 0-2.245 5.851 6.548 6.548 0 0 0 1.563 3.451 6.5 6.5 0 0 0 7.518 1.686 6.546 6.546 0 0 0 2.883-2.456 6.553 6.553 0 0 0 .47-6.248 6.685 6.685 0 0 0-2.98-3.179c-.934-.485-1.528-.585-1.514-.63z" class="cls-3" transform="translate(-144.628 -375.433)"/>
                                        </g>
                                    </g>
                                </g>
                            </g>
                        </g>
                        <g id="Group_40">
                            <g id="Group_39">
                                <g id="Group_38">
                                    <g id="Group_37">
                                        <g id="Group_36">
                                            <path id="Path_11" d="M144.893 355.239a1.378 1.378 0 0 1-.014-.235c0-.176-.01-.411-.017-.715l-.039-2.827.048.06-6.108-1.333.109-.053-1.606 3.419-.029.061h-.069a15.281 15.281 0 0 0-3.982.707l-.072.023-.055-.054-2.686-2.659.17.018-5.273 3.358.061-.178 1.274 3.558.033.091-.066.071a15.192 15.192 0 0 0-2.317 3.3l-.046.089h-.1l-3.777.013.167-.134-1.36 6.1-.1-.2 3.413 1.617.1.047v.111a15.246 15.246 0 0 0 .694 3.967l.034.107-.08.08-2.666 2.679.026-.234 3.348 5.28-.225-.078 3.56-1.268.11-.039.085.079a15.148 15.148 0 0 0 3.287 2.316c.047.076-.1-.17.1.171v3.777l-.15-.187 6.1 1.37-.214.1 1.622-3.411.049-.1h.114a15.137 15.137 0 0 0 3.967-.688l.108-.034.08.08 2.676 2.668-.227-.025 5.284-3.34-.072.209-1.263-3.562-.035-.1.071-.077a15.149 15.149 0 0 0 2.327-3.292l.047-.09H155.186l-.156.125 1.381-6.1.081.165-3.409-1.629-.076-.036v-.083a15.267 15.267 0 0 0-.682-3.983l-.023-.074.054-.054 2.675-2.669-.015.141-3.323-5.3.1.035-3.568 1.244-.036.012-.027-.025a15.894 15.894 0 0 0-2.426-1.869l-.649-.391a1.54 1.54 0 0 1-.214-.132 2 2 0 0 1 .23.1c.149.077.375.193.667.365a14.821 14.821 0 0 1 2.478 1.832l-.063-.013 3.552-1.29.064-.023.037.059 3.369 5.267.049.077-.064.065-2.657 2.687.031-.127a15.476 15.476 0 0 1 .717 4.048l-.079-.119 3.417 1.613.106.05-.025.116c-.429 1.929-.879 3.956-1.357 6.1l-.027.125h-.129l-3.777.015.147-.09a15.484 15.484 0 0 1-2.369 3.373l.036-.175 1.272 3.559.047.133-.119.076-5.277 3.351-.124.079-.1-.1-2.68-2.664.187.046a15.5 15.5 0 0 1-4.065.71l.163-.108-1.618 3.413-.065.138-.149-.034-6.1-1.367-.15-.034v-.154-3.777c.207.34.057.094.1.17a15.507 15.507 0 0 1-3.371-2.376l.195.04-3.561 1.267-.144.051-.082-.129-3.344-5.283-.081-.127.106-.107 2.668-2.676-.045.187a15.571 15.571 0 0 1-.7-4.064l.1.158-3.41-1.624-.13-.062.032-.139 1.375-6.1.03-.134h3.914l-.147.089a15.492 15.492 0 0 1 2.379-3.364l-.033.161-1.261-3.563-.038-.106.1-.064 5.288-3.334.093-.059.077.077 2.671 2.674-.127-.031a15.453 15.453 0 0 1 4.049-.691l-.1.064 1.634-3.406.034-.071.076.018 6.092 1.4.048.011v.049l-.026 2.8-.013.725a1.887 1.887 0 0 1-.003.257z" class="cls-3" transform="translate(-118.755 -349.98)"/>
                                        </g>
                                    </g>
                                </g>
                            </g>
                        </g>
                    </g>
                    <g id="Group_50" transform="translate(0 42.109)">
                        <g id="Group_45">
                            <g id="Group_44">
                                <g id="Group_43">
                                    <g id="Group_42">
                                        <path id="Path_12" d="M80.583 328.749a9.885 9.885 0 0 1 2.145 1.51l2.291-.815 2.153 3.4-1.716 1.724a9.851 9.851 0 0 1 .45 2.584l2.2 1.043-.881 3.926-2.431.005a9.832 9.832 0 0 1-1.511 2.145l.816 2.291-3.4 2.153L78.973 347a9.852 9.852 0 0 1-2.584.449l-1.043 2.2-3.927-.881-.005-2.431a9.856 9.856 0 0 1-2.144-1.511l-2.292.816-2.153-3.4 1.716-1.723a9.887 9.887 0 0 1-.45-2.584l-2.2-1.043.881-3.926 2.431-.005a9.846 9.846 0 0 1 1.511-2.145l-.814-2.296 3.4-2.153 1.723 1.716a9.858 9.858 0 0 1 2.585-.45l1.042-2.2 3.926.881.006 2.431zm-3.462 4.62a4.316 4.316 0 1 0 3.268 5.156 4.316 4.316 0 0 0-3.267-5.156z" class="cls-2" transform="translate(-63.895 -325.437)"/>
                                    </g>
                                </g>
                            </g>
                        </g>
                    </g>
                </g>
                <g id="Group_59" transform="translate(252.196 39.206)">
                    <g id="Group_58">
                        <g id="Group_57">
                            <g id="Group_56">
                                <g id="Group_55">
                                    <g id="Group_54">
                                        <g id="Group_53">
                                            <g id="Group_52">
                                                <path id="Path_14" d="M606.512 187.552a12.468 12.468 0 0 1 3.2.846l2.352-1.971 4.041 3.076-1.273 2.793a12.452 12.452 0 0 1 1.668 2.86l3.057.269.682 5.033-2.874 1.074a12.424 12.424 0 0 1-.846 3.2l1.971 2.353-3.075 4.041-2.793-1.273a12.455 12.455 0 0 1-2.86 1.667l-.269 3.056-5.033.683-1.074-2.874a12.425 12.425 0 0 1-3.2-.846l-2.353 1.972-4.041-3.076 1.274-2.794a12.461 12.461 0 0 1-1.668-2.86l-3.056-.27-.683-5.032 2.874-1.074a12.424 12.424 0 0 1 .846-3.2l-1.972-2.353 3.075-4.041 2.794 1.274a12.439 12.439 0 0 1 2.86-1.668l.269-3.057 5.032-.683 1.075 2.874zm-1.51 6.94a5.449 5.449 0 1 0 5.473 4.167 5.45 5.45 0 0 0-5.475-4.167z" class="cls-2" transform="translate(-589.659 -184.678)"/>
                                            </g>
                                        </g>
                                    </g>
                                </g>
                            </g>
                        </g>
                    </g>
                </g>
                <g id="Group_77" transform="translate(270.724)">
                    <g id="Group_76">
                        <g id="Group_67" transform="translate(12.191 11.863)">
                            <g id="Group_66">
                                <g id="Group_65">
                                    <g id="Group_64">
                                        <g id="Group_63">
                                            <g id="Group_62">
                                                <g id="Group_61">
                                                    <g id="Group_60">
                                                        <path id="Path_15" d="M659.544 127.781a4.969 4.969 0 0 1 1.627-.085 6.545 6.545 0 0 1 4 1.862 6.632 6.632 0 0 1 1.647 2.62 6.737 6.737 0 0 1 .205 3.547 6.739 6.739 0 0 1-1.9 3.432 6.71 6.71 0 0 1-7.92 1.075 6.736 6.736 0 0 1-2.746-2.8 6.73 6.73 0 0 1-.748-3.473 6.634 6.634 0 0 1 .89-2.964 6.546 6.546 0 0 1 3.356-2.859 4.964 4.964 0 0 1 1.591-.352c.009.046-.579.093-1.536.488a6.555 6.555 0 0 0-3.178 2.855 6.423 6.423 0 0 0-.067 6.144 6.421 6.421 0 0 0 2.615 2.639 6.372 6.372 0 0 0 7.486-1.016 6.425 6.425 0 0 0 1.817-3.24 6.425 6.425 0 0 0-1.7-5.9 6.552 6.552 0 0 0-3.825-1.9c-1.031-.138-1.611-.026-1.614-.073z" class="cls-4" transform="translate(-653.7 -127.673)"/>
                                                    </g>
                                                </g>
                                            </g>
                                        </g>
                                    </g>
                                </g>
                            </g>
                        </g>
                        <g id="Group_75">
                            <g id="Group_74">
                                <g id="Group_73">
                                    <g id="Group_72">
                                        <g id="Group_71">
                                            <g id="Group_70">
                                                <g id="Group_69">
                                                    <g id="Group_68">
                                                        <path id="Path_16" d="M648.815 106.479a1.447 1.447 0 0 1-.094-.212l-.26-.652-1-2.585.065.038-6.07.86.082-.086c-.094 1.118-.2 2.361-.31 3.691l-.005.066-.062.026a15 15 0 0 0-3.42 2.009l-.058.046-.069-.031-3.376-1.528.163-.041-3.7 4.886v-.185l2.385 2.835.061.072-.036.087a14.912 14.912 0 0 0-1 3.825l-.012.1-.093.035-3.468 1.3.108-.18.832 6.074-.159-.151 3.69.322.108.009.042.1a14.961 14.961 0 0 0 1.992 3.41l.068.087-.046.1-1.535 3.373-.057-.224 4.88 3.711-.234.006 2.84-2.381.087-.073.106.044a14.854 14.854 0 0 0 3.812 1.007l.154.121v.02l.011.027.02.055.041.109.082.218.163.436.325.871.646 1.73-.2-.121 6.076-.823-.161.169.326-3.69.01-.112.1-.043a14.854 14.854 0 0 0 3.412-1.986l.087-.068.1.046 3.371 1.539-.218.055 3.717-4.874v.216l-2.376-2.843-.066-.079.039-.094a14.884 14.884 0 0 0 1.015-3.82l.012-.1.093-.034 3.471-1.291-.1.168-.811-6.077.13.125-3.689-.334-.082-.007-.031-.075a14.973 14.973 0 0 0-1.986-3.429l-.047-.06.032-.068 1.548-3.366.034.135-4.862-3.734h.105l-2.855 2.362-.028.024-.034-.014a15.55 15.55 0 0 0-2.868-.89l-.731-.139a1.568 1.568 0 0 1-.242-.048 1.746 1.746 0 0 1 .247.017c.163.02.41.049.738.108a14.52 14.52 0 0 1 2.9.839l-.062.01 2.824-2.4.051-.044.054.041 4.9 3.692.071.053-.036.082-1.526 3.377-.015-.128A15.159 15.159 0 0 1 661 115.6l-.113-.083 3.691.316.115.01.016.115.836 6.074.017.124-.117.044-3.467 1.3.1-.132a15.17 15.17 0 0 1-1.026 3.908l-.027-.173 2.384 2.837.09.106-.084.111-3.707 4.881-.087.115-.131-.059-3.373-1.534.188-.022a15.179 15.179 0 0 1-3.494 2.04l.113-.154-.323 3.69-.013.149-.148.02-6.075.827-.149.02-.053-.141-.647-1.73-.325-.87-.163-.437-.081-.218-.041-.109-.02-.055-.011-.027v-.02l.153.121a15.209 15.209 0 0 1-3.909-1.033l.192-.03-2.841 2.38-.115.1-.119-.091-4.877-3.715-.117-.09.061-.134 1.54-3.371.022.188a15.292 15.292 0 0 1-2.035-3.5l.15.11-3.689-.329-.14-.012-.019-.139-.817-6.076-.018-.133.126-.047 3.471-1.291-.1.132a15.161 15.161 0 0 1 1.038-3.9l.024.16-2.374-2.845-.077-.092.072-.094 3.723-4.87.066-.085.1.045 3.368 1.547-.128.015a15.146 15.146 0 0 1 3.487-2.018l-.068.092c.122-1.329.236-2.571.34-3.688l.007-.077.076-.01 6.079-.789.048-.006.016.045.932 2.584.235.671a1.811 1.811 0 0 1 .057.231z" class="cls-4" transform="translate(-628.285 -102.943)"/>
                                                    </g>
                                                </g>
                                            </g>
                                        </g>
                                    </g>
                                </g>
                            </g>
                        </g>
                    </g>
                </g>
            </g>
            <g id="Screen" transform="translate(60.281 5221.936)">
                <g id="Group_222">
                    <g id="Group_86">
                        <g id="Group_81">
                            <g id="Group_78" filter="url(#Rectangle_1)" transform="translate(-78.16 -47.18)">
                                <rect id="Rectangle_1-2" width="220.669" height="152.548" class="cls-3" rx="4" transform="translate(78.16 47.18)"/>
                            </g>
                        </g>
                        <g id="Group_83" transform="translate(3.578 2.899)">
                            <path id="Path_18" d="M167.172 79.112a1.359 1.359 0 1 1-1.359-1.359 1.359 1.359 0 0 1 1.359 1.359z" class="cls-3" transform="translate(-164.453 -77.753)"/>
                        </g>
                        <g id="Group_84" transform="translate(8.481 2.899)">
                            <path id="Path_19" d="M177.393 79.112a1.359 1.359 0 1 1-1.359-1.359 1.36 1.36 0 0 1 1.359 1.359z" class="cls-3" transform="translate(-174.675 -77.753)"/>
                        </g>
                        <g id="Group_85" transform="translate(13.384 2.899)">
                            <path id="Path_20" d="M187.614 79.112a1.359 1.359 0 1 1-1.359-1.359 1.359 1.359 0 0 1 1.359 1.359z" class="cls-3" transform="translate(-184.896 -77.753)"/>
                        </g>
                    </g>
                    <g id="Group_221" transform="translate(14.262 18.57)">
                        <g id="Group_108">
                            <g id="Group_10727">
                                <g id="Group_17-2" transform="translate(.732 23.538)">
                                    <path id="Path_14-2" d="M221.049 347.147h51.572v-16.076H227.16l-4.242 3.447a5.061 5.061 0 0 0-1.869 3.928z" class="cls-5" transform="translate(-221.049 -331.071)"/>
                                    <path id="Path_15-2" fill="#cc9f1f" d="M221.049 347.147h51.572v-16.076H227.16l-4.242 3.447a5.061 5.061 0 0 0-1.869 3.928z" opacity="0.5" transform="translate(-221.049 -331.071)"/>
                                </g>
                                <g id="Group_18-2" transform="translate(40.717 27.54)">
                                    <path id="Path_16-2" d="M204.731 355.2c0-5.868-2.66-10.624-5.942-10.624h6.3c3.281 0 5.942 4.756 5.942 10.624s-2.66 10.624-5.942 10.624h-6.3c3.282-.005 5.942-4.761 5.942-10.624z" class="cls-7" transform="translate(-192.847 -344.571)"/>
                                    <ellipse id="Ellipse_1" cx="5.942" cy="10.624" class="cls-7" rx="5.942" ry="10.624"/>
                                    <ellipse id="Ellipse_2" cx="4.213" cy="8.285" class="cls-8" rx="4.213" ry="8.285" transform="translate(1.251 2.34)"/>
                                </g>
                                <g id="Group_19-2" transform="translate(74.965 27.54)">
                                    <path id="Path_17" d="M89.218 355.2c0-5.868-2.66-10.624-5.942-10.624h6.3c3.281 0 5.942 4.756 5.942 10.624s-2.66 10.624-5.942 10.624h-6.3c3.281-.005 5.942-4.761 5.942-10.624z" class="cls-7" transform="translate(-77.334 -344.571)"/>
                                    <ellipse id="Ellipse_3" cx="5.942" cy="10.624" class="cls-7" rx="5.942" ry="10.624"/>
                                </g>
                                <g id="Group_20" transform="translate(0 27.54)">
                                    <path id="Path_18-2" d="M342.065 355.2c0-5.868-2.66-10.624-5.942-10.624h6.3c3.282 0 5.942 4.756 5.942 10.624s-2.66 10.624-5.942 10.624h-6.3c3.277-.005 5.942-4.761 5.942-10.624z" class="cls-7" transform="translate(-330.181 -344.571)"/>
                                    <ellipse id="Ellipse_4" cx="5.942" cy="10.624" class="cls-7" rx="5.942" ry="10.624"/>
                                    <ellipse id="Ellipse_5" cx="4.213" cy="8.285" class="cls-8" rx="4.213" ry="8.285" transform="translate(1.251 2.34)"/>
                                </g>
                                <g id="Group_21" transform="translate(51.843 30.588)">
                                    <path id="Path_19-2" d="M84.555 365.391h7.621l.425-.426a2.343 2.343 0 0 1 1.656-.686h19.053a2.343 2.343 0 0 1 1.656.686l.259.259h.695a4.092 4.092 0 0 0 4.092-4.092v-6.283H76.776l3.445 7.479a4.6 4.6 0 0 0 4.334 3.063z" class="cls-5" transform="translate(-76.776 -354.849)"/>
                                    <path id="Path_20-2" d="M84.555 365.391h7.621l.425-.426a2.343 2.343 0 0 1 1.656-.686h19.053a2.343 2.343 0 0 1 1.656.686l.259.259h.695a4.092 4.092 0 0 0 4.092-4.092v-6.283H76.776l3.445 7.479a4.6 4.6 0 0 0 4.334 3.063z" class="cls-9" transform="translate(-76.776 -354.849)"/>
                                </g>
                                <path id="Path_21" d="M349.884 255.536a.146.146 0 0 0 .075-.02.148.148 0 0 0 .053-.2l-2.075-3.558a.148.148 0 1 0-.256.149l2.075 3.558a.148.148 0 0 0 .128.071z" class="cls-7" transform="translate(-335.266 -251.682)"/>
                                <path id="Path_22" d="M241.473 275.674v-4.044c0-2.125 3.089-12.156 7.339-14.034s14.528-2.718 21-2.372 15.109 13.885 15.109 13.885l-.939 11.645c-1.315 0-5.507-.4-6.122 11.126a3.168 3.168 0 0 1-3.159 3.006h-22.667a3.161 3.161 0 0 1-3.132-2.717c-.581-4.106-2.14-11.417-5.872-11.417a4.629 4.629 0 0 0-4.5 4.811 17.419 17.419 0 0 1 2-8.1z" class="cls-10" transform="translate(-237.802 -254.12)"/>
                                <g id="Group_22-2" transform="translate(32.011 1.104)">
                                    <path id="Path_23" d="M148.379 255.405c11.794 0 25.152 13.885 25.152 13.885h-33.762s-8.635-13.54-15.109-13.885z" class="cls-10" transform="translate(-124.66 -255.405)"/>
                                    <path id="Path_24" d="M153.872 255.405c9.226 0 18.9 9.15 21.722 12.035a.506.506 0 0 1-.362.86h-25.294a6.473 6.473 0 0 1-5.222-2.637c-2.719-3.706-7.96-10.032-12.2-10.259z" class="cls-11" transform="translate(-129.198 -254.415)"/>
                                </g>
                                <path id="Path_25" d="M77.715 302.238l12.473 9.842 33.559-.107a11.846 11.846 0 0 1 1.927 5.864H82.438a6.706 6.706 0 0 0-5.662-3.953c0-3.493.939-11.646.939-11.646z" class="cls-10" transform="translate(-30.595 -287.249)"/>
                                <path id="Path_26" d="M219.724 307.91a.148.148 0 0 0 .022-.295 16.432 16.432 0 0 1-8.093-3.765 2.391 2.391 0 0 1-.43-3.184.148.148 0 0 0-.244-.167 2.687 2.687 0 0 0 .483 3.578 16.732 16.732 0 0 0 8.241 3.832z" class="cls-12" transform="translate(-164.441 -285.98)"/>
                                <path id="Path_27" d="M129.308 311.973s-5.9-6.868-12.27-9.735H83.276l12.473 9.842z" class="cls-10" transform="translate(-36.156 -287.249)"/>
                                <path id="Rectangle_95" d="M0 0H22.138V0.642H0z" class="cls-9" transform="translate(67.046 24.724)"/>
                                <path id="Path_28" d="M181.826 321.906l-1.19-1.19a1.969 1.969 0 0 0-.973-.531l-8.958-1.951a1.971 1.971 0 0 0-.952.029l-.479.135a1.969 1.969 0 0 0-.948 3.191l1.926 2.2a1.969 1.969 0 0 0 1.3.664l8.7.806a1.969 1.969 0 0 0 1.571-.565 1.969 1.969 0 0 0 .003-2.788z" class="cls-8" transform="translate(-114.321 -298.47)"/>
                                <path id="Path_29" d="M81.337 326.473l.984-1.834a1.617 1.617 0 0 1 .594-.623 1.618 1.618 0 0 1 1.582-.045l.744.39a1.617 1.617 0 0 1 .78.913l.456 1.343a1.617 1.617 0 0 1-1.256 2.113l-2.048.354a1.617 1.617 0 0 1-1.7-.827l-.135-.257a1.617 1.617 0 0 1-.001-1.527z" class="cls-8" transform="translate(7.22 -302.408)"/>
                                <path id="Path_30" d="M289.117 274.61H257.9a1.7 1.7 0 0 1-1.624-2.185c.71-2.374 2.079-6.08 4.124-7.972a1.711 1.711 0 0 1 .81-.415 118.7 118.7 0 0 1 13.983-1.6 13.8 13.8 0 0 1 10.794 4.1 37.864 37.864 0 0 1 4.5 5.495 1.657 1.657 0 0 1-1.37 2.577z" class="cls-11" transform="translate(-248.893 -259.225)"/>
                                <path id="Path_31" d="M178.716 362.389a2.284 2.284 0 1 0 2.224-1.762 2.034 2.034 0 0 0-2.224 1.762z" class="cls-7" transform="translate(-118.308 -328.326)"/>
                                <path id="Path_32" d="M127.618 330.532c-.73 0-1.086.747-.8 1.667a2.28 2.28 0 0 0 1.847 1.667c.73 0 1.086-.746.8-1.667a2.28 2.28 0 0 0-1.847-1.667z" class="cls-9" transform="translate(-49.295 -307.154)"/>
                                <path id="Path_33" d="M78.605 362.389c0 .973.28 1.763.626 1.763s.626-.789.626-1.763-.28-1.762-.626-1.762-.626.789-.626 1.762z" class="cls-7" transform="translate(14.68 -328.326)"/>
                                <path id="Path_34" d="M266.208 295.67v-1a1.929 1.929 0 0 0-2.323-1.889l-3.8.792a1.929 1.929 0 0 0-1.535 1.889v.207a1.929 1.929 0 0 0 1.929 1.929h3.8a1.929 1.929 0 0 0 1.929-1.928z" class="cls-7" transform="translate(-225.022 -280.567)"/>
                                <path id="Path_35" d="M325.81 263.6s.507-.051 1.392-.129c-3.91 8.009-2.913 11.888-2.913 11.888h-2.981c-.031-4.871 4.502-11.759 4.502-11.759z" class="cls-7" transform="translate(-304.622 -259.979)"/>
                                <path id="Path_37" d="M334.2 328.253a.148.148 0 0 0 .148-.148c0-3-1.529-15.372-1.931-17.227a11.333 11.333 0 0 1 0-5.115.148.148 0 1 0-.284-.084 11.637 11.637 0 0 0 0 5.262c.4 1.849 1.924 14.176 1.924 17.165a.148.148 0 0 0 .143.147z" class="cls-12" transform="translate(-314.885 -289.594)"/>
                                <path id="Path_38" d="M317.984 320.364h3.616a.448.448 0 0 0 .451-.548l-.074-.42a.684.684 0 0 0-.644-.548h-3.616a.448.448 0 0 0-.451.548l.074.42a.684.684 0 0 0 .644.548z" class="cls-12" transform="translate(-298.278 -298.935)"/>
                            </g>
                        </g>
                        <g id="Group_130" transform="translate(73.837 66.486)">
                            <g id="Group_129">
                                <g id="Group_128">
                                    <g id="Group_109">
                                        <path id="Path_31-2" d="M340.658 330.925l5.07-10.554c.59-1.229 1.761-1.5 2.582-.594l2.667 2.939c.872.96 2.122.589 2.668-.791l7.693-19.453c.642-1.623 2.2-1.788 3-.316l4.8 8.892c.775 1.433 2.288 1.322 2.959-.219l3.51-8.054c.732-1.681 2.424-1.627 3.106.1l2.9 7.328c.682 1.723 2.372 1.777 3.1.1l9.91-22.674c.705-1.613 2.313-1.639 3.042-.048l16.373 35.754c.656 1.433 2.061 1.585 2.855.31l9.947-15.985a1.464 1.464 0 0 1 2.631-.089l7.912 11.593c.844 1.237 2.262.966 2.86-.546l14.157-35.794c.929-2.349 3.39-1.387 3.39 1.326v46.775z" class="cls-1" transform="translate(-340.658 -281.493)"/>
                                    </g>
                                    <g id="Group_111" transform="translate(.309 50.953)">
                                        <g id="Group_110">
                                            <path id="Path_32-2" d="M457.831 357.739a.864.864 0 0 1-.009-.141c0-.1 0-.243-.008-.431 0-.4-.009-.984-.016-1.788l.033.033c-6.764.053-30.3.092-58.245.092s-51.487-.039-58.25-.092l.033-.033-.016 1.788c0 .188-.007.329-.009.431a.91.91 0 0 1-.008.141.866.866 0 0 1-.009-.141c0-.1 0-.243-.008-.431 0-.4-.009-.984-.016-1.788v-.033h.033c6.763-.053 30.293-.092 58.25-.092s51.481.039 58.245.092h.033v.033l-.016 1.788c0 .188-.007.329-.009.431a.919.919 0 0 1-.008.141z" class="cls-7" transform="translate(-341.302 -355.254)"/>
                                        </g>
                                    </g>
                                    <g id="Group_113" transform="translate(13.161 52.257)">
                                        <g id="Group_112">
                                            <path id="Path_33-2" d="M368.22 358.967c-.069 0-.125-.222-.125-.5s.056-.5.125-.5.125.222.125.5-.056.5-.125.5z" class="cls-7" transform="translate(-368.095 -357.974)"/>
                                        </g>
                                    </g>
                                    <g id="Group_115" transform="translate(26.105 52.257)">
                                        <g id="Group_114">
                                            <path id="Path_34-2" d="M395.2 358.967c-.069 0-.125-.222-.125-.5s.056-.5.125-.5.125.222.125.5-.051.5-.125.5z" class="cls-7" transform="translate(-395.08 -357.974)"/>
                                        </g>
                                    </g>
                                    <g id="Group_117" transform="translate(39.049 52.257)">
                                        <g id="Group_116">
                                            <path id="Path_35-2" d="M422.19 358.967c-.069 0-.125-.222-.125-.5s.056-.5.125-.5.125.222.125.5-.056.5-.125.5z" class="cls-7" transform="translate(-422.065 -357.974)"/>
                                        </g>
                                    </g>
                                    <g id="Group_119" transform="translate(51.992 52.257)">
                                        <g id="Group_118">
                                            <path id="Path_36" d="M449.174 358.967c-.069 0-.125-.222-.125-.5s.056-.5.125-.5.125.222.125.5-.056.5-.125.5z" class="cls-7" transform="translate(-449.049 -357.974)"/>
                                        </g>
                                    </g>
                                    <g id="Group_121" transform="translate(64.937 52.257)">
                                        <g id="Group_120">
                                            <path id="Path_37-2" d="M476.159 358.967c-.069 0-.125-.222-.125-.5s.056-.5.125-.5.125.222.125.5-.056.5-.125.5z" class="cls-7" transform="translate(-476.034 -357.974)"/>
                                        </g>
                                    </g>
                                    <g id="Group_123" transform="translate(77.881 52.257)">
                                        <g id="Group_122">
                                            <path id="Path_38-2" d="M503.144 358.967c-.069 0-.125-.222-.125-.5s.056-.5.125-.5.125.222.125.5-.056.5-.125.5z" class="cls-7" transform="translate(-503.019 -357.974)"/>
                                        </g>
                                    </g>
                                    <g id="Group_125" transform="translate(90.825 52.257)">
                                        <g id="Group_124">
                                            <path id="Path_39" d="M530.129 358.967c-.069 0-.125-.222-.125-.5s.056-.5.125-.5.125.222.125.5-.054.5-.125.5z" class="cls-7" transform="translate(-530.004 -357.974)"/>
                                        </g>
                                    </g>
                                    <g id="Group_127" transform="translate(103.768 52.257)">
                                        <g id="Group_126">
                                            <path id="Path_40" d="M557.113 358.967c-.069 0-.125-.222-.125-.5s.056-.5.125-.5.125.222.125.5-.056.5-.125.5z" class="cls-7" transform="translate(-556.988 -357.974)"/>
                                        </g>
                                    </g>
                                </g>
                            </g>
                        </g>
                        <g id="Group_157" transform="translate(112.523 10.373)">
                            <g id="Group_139" transform="translate(0 .406)">
                                <g id="Group_138">
                                    <g id="Group_136">
                                        <g id="Group_133" transform="translate(0 8.955)">
                                            <path id="Path_42" d="M476.035 166.831h-63.356a1.134 1.134 0 0 1 0-2.262h63.357a1.133 1.133 0 0 1 0 2.262z" class="cls-13" transform="translate(-411.623 -164.569)"/>
                                        </g>
                                        <g id="Group_134">
                                            <path id="Path_43" d="M476.035 148.16h-63.356a1.134 1.134 0 0 1 0-2.262h63.357a1.134 1.134 0 0 1 0 2.262z" class="cls-13" transform="translate(-411.623 -145.898)"/>
                                        </g>
                                        <g id="Group_135" transform="translate(0 8.955)">
                                            <path id="Path_44" d="M443.414 166.831h-30.66a1.131 1.131 0 0 1 0-2.262h30.66a1.131 1.131 0 1 1 0 2.262z" class="cls-1" transform="translate(-411.623 -164.569)"/>
                                        </g>
                                    </g>
                                    <g id="Group_137" transform="translate(70.606 8.557)">
                                        <path id="Path_45" d="M570.84 165.773h-.5v.649h-.366v-.649h-1.466v-.264l1.35-1.726h.407l-1.293 1.666h1.014v-.573h.354v.573h.5z" class="cls-7" transform="translate(-568.506 -163.76)"/>
                                        <path id="Path_46" d="M575.543 165.63c0 .456-.324.822-1 .822a1.511 1.511 0 0 1-.968-.32l.173-.3a1.185 1.185 0 0 0 .792.283c.4 0 .626-.185.626-.471s-.188-.483-.8-.483h-.6l.14-1.38h1.494v.328h-1.172l-.071.723h.294c.783.002 1.092.331 1.092.798z" class="cls-7" transform="translate(-571.144 -163.76)"/>
                                        <path id="Path_47" d="M578.165 164.456a.638.638 0 0 1 .614-.72c.366 0 .611.286.611.72s-.245.72-.611.72a.639.639 0 0 1-.614-.72zm.983 0c0-.317-.14-.506-.369-.506s-.369.192-.369.506.143.5.369.5.369-.183.369-.5zm1.221-.7h.291l-1.8 2.639h-.29zm-.531 1.941a.621.621 0 1 1 .61.72.636.636 0 0 1-.609-.717zm.98 0c0-.313-.143-.505-.37-.505s-.369.189-.369.505.139.505.369.505.371-.189.371-.502z" class="cls-7" transform="translate(-573.532 -163.736)"/>
                                    </g>
                                </g>
                            </g>
                            <g id="Group_145" transform="translate(0 17.249)">
                                <g id="Group_144">
                                    <g id="Group_142" transform="translate(0 .406)">
                                        <g id="Group_140">
                                            <path id="Path_48" d="M476.035 184.12h-63.356a1.134 1.134 0 0 1 0-2.262h63.357a1.133 1.133 0 0 1 0 2.262z" class="cls-13" transform="translate(-411.623 -181.858)"/>
                                        </g>
                                        <g id="Group_141">
                                            <path id="Path_49" d="M453.4 184.12h-40.58a1.067 1.067 0 0 1-1.2-1.131c0-.625.357-1.131.8-1.131H453a1.177 1.177 0 0 1 1.3 1.131 1.138 1.138 0 0 1-.9 1.131z" class="cls-1" transform="translate(-411.623 -181.858)"/>
                                        </g>
                                    </g>
                                    <g id="Group_143" transform="translate(70.576)">
                                        <path id="Path_50" d="M570.433 181.072v.257l-1.066 2.382h-.4l1.044-2.311h-1.206v.471h-.362v-.8z" class="cls-7" transform="translate(-568.443 -181.042)"/>
                                        <path id="Path_51" d="M573.127 182.359c0-.86.46-1.349 1.078-1.349s1.074.49 1.074 1.349-.46 1.349-1.074 1.349-1.078-.489-1.078-1.349zm1.775 0c0-.675-.286-1.014-.7-1.014s-.7.339-.7 1.014.286 1.014.7 1.014.698-.339.698-1.014z" class="cls-7" transform="translate(-570.88 -181.01)"/>
                                        <path id="Path_52" d="M578.283 181.745a.638.638 0 0 1 .614-.72c.366 0 .611.286.611.72s-.245.72-.611.72a.638.638 0 0 1-.614-.72zm.984 0c0-.317-.14-.505-.37-.505s-.369.192-.369.505.143.505.369.505.37-.188.37-.505zm1.221-.7h.291l-1.8 2.639h-.29zm-.531 1.942a.62.62 0 1 1 .611.72.636.636 0 0 1-.611-.718zm.98 0c0-.313-.143-.506-.369-.506s-.369.189-.369.506.139.5.369.5.369-.187.369-.498z" class="cls-7" transform="translate(-573.563 -181.018)"/>
                                    </g>
                                </g>
                            </g>
                            <g id="Group_151" transform="translate(0 25.346)">
                                <g id="Group_150">
                                    <g id="Group_148" transform="translate(0 .407)">
                                        <g id="Group_146">
                                            <path id="Path_53" d="M476.035 201h-63.356a1.134 1.134 0 0 1 0-2.262h63.357a1.133 1.133 0 0 1 0 2.262z" class="cls-13" transform="translate(-411.623 -198.737)"/>
                                        </g>
                                        <g id="Group_147" transform="translate(0 .001)">
                                            <path id="Path_54" d="M437.957 201h-25.2a1.131 1.131 0 0 1 0-2.262h25.2a1.131 1.131 0 0 1 0 2.262z" class="cls-1" transform="translate(-411.623 -198.737)"/>
                                        </g>
                                    </g>
                                    <g id="Group_149" transform="translate(70.527)">
                                        <path id="Path_55" d="M570.309 199.8c0 .456-.324.822-1 .822a1.511 1.511 0 0 1-.969-.32l.174-.3a1.184 1.184 0 0 0 .792.283c.4 0 .626-.184.626-.471s-.189-.482-.8-.482h-.6l.14-1.38h1.488v.328h-1.17l-.071.724h.294c.787-.004 1.096.327 1.096.796z" class="cls-7" transform="translate(-568.341 -197.921)"/>
                                        <path id="Path_56" d="M573.095 199.238c0-.86.46-1.349 1.078-1.349s1.075.49 1.075 1.349-.46 1.349-1.075 1.349-1.078-.487-1.078-1.349zm1.775 0c0-.675-.286-1.014-.7-1.014s-.7.339-.7 1.014.286 1.014.7 1.014.7-.339.7-1.014z" class="cls-7" transform="translate(-570.815 -197.889)"/>
                                        <path id="Path_57" d="M578.252 198.624a.638.638 0 0 1 .614-.72c.366 0 .611.286.611.72s-.245.72-.611.72a.638.638 0 0 1-.614-.72zm.983 0c0-.317-.14-.505-.369-.505s-.369.192-.369.505.143.505.369.505.369-.188.369-.505zm1.221-.7h.291l-1.8 2.639h-.29zm-.531 1.941a.621.621 0 1 1 .61.72.636.636 0 0 1-.609-.717zm.98 0c0-.313-.143-.505-.37-.505s-.369.189-.369.505.139.505.369.505.371-.189.371-.502z" class="cls-7" transform="translate(-573.498 -197.897)"/>
                                    </g>
                                </g>
                            </g>
                            <g id="Group_156">
                                <g id="Group_155">
                                    <g id="Group_153" transform="translate(0 .406)">
                                        <g id="Group_152">
                                            <path id="Path_58" d="M457.675 148.16h-44.921a1.131 1.131 0 0 1 0-2.262h44.922a1.131 1.131 0 0 1 0 2.262z" class="cls-1" transform="translate(-411.623 -145.898)"/>
                                        </g>
                                    </g>
                                    <g id="Group_154" transform="translate(70.644)">
                                        <path id="Path_59" d="M570.628 146.916a.853.853 0 0 1-.935.833c-.708 0-1.108-.475-1.108-1.316a1.217 1.217 0 0 1 1.248-1.383 1.269 1.269 0 0 1 .656.154l-.143.294a.917.917 0 0 0-.5-.124c-.535 0-.878.335-.878.995a.809.809 0 0 0 0 .094.877.877 0 0 1 .757-.347.815.815 0 0 1 .903.8zm-.365.015c0-.309-.234-.509-.6-.509a.548.548 0 0 0-.607.513c0 .271.219.509.626.509a.522.522 0 0 0 .58-.513z" class="cls-7" transform="translate(-568.585 -145.05)"/>
                                        <path id="Path_60" d="M573.433 146.4c0-.859.46-1.349 1.078-1.349s1.074.49 1.074 1.349-.46 1.35-1.074 1.35-1.078-.491-1.078-1.35zm1.775 0c0-.675-.286-1.014-.7-1.014s-.7.339-.7 1.014.286 1.014.7 1.014.7-.34.7-1.014z" class="cls-7" transform="translate(-571.108 -145.05)"/>
                                        <path id="Path_61" d="M578.589 145.786a.639.639 0 0 1 .615-.72c.366 0 .611.286.611.72s-.245.72-.611.72a.639.639 0 0 1-.615-.72zm.984 0c0-.317-.14-.505-.369-.505s-.369.192-.369.505.143.505.369.505.369-.191.369-.505zm1.221-.7h.291l-1.8 2.639h-.29zm-.531 1.941a.62.62 0 1 1 .61.72.636.636 0 0 1-.61-.717zm.98 0c0-.313-.143-.505-.37-.505s-.369.189-.369.505.139.505.369.505.37-.189.37-.502z" class="cls-7" transform="translate(-573.79 -145.058)"/>
                                    </g>
                                </g>
                            </g>
                        </g>
                        <g id="Group_215" transform="translate(6.752 85.365)">
                            <g id="Group_214">
                                <g id="Group_168">
                                    <g id="Group_166" transform="translate(.259)">
                                        <g id="Group_164">
                                            <path id="Path_65" d="M202.676 316.069a1.333 1.333 0 0 1-1.333-1.333v-25.015a1.333 1.333 0 0 1 1.333-1.333 1.333 1.333 0 0 1 1.333 1.333v25.015a1.333 1.333 0 0 1-1.333 1.333z" class="cls-13" transform="translate(-201.343 -288.388)"/>
                                        </g>
                                        <g id="Group_165" transform="translate(0 9.006)">
                                            <path id="Path_66" d="M202.676 325.956a1.333 1.333 0 0 1-1.333-1.333V308.5a1.333 1.333 0 0 1 1.333-1.334 1.333 1.333 0 0 1 1.333 1.334v16.126a1.333 1.333 0 0 1-1.333 1.33z" class="cls-1" transform="translate(-201.343 -307.163)"/>
                                        </g>
                                    </g>
                                    <g id="Group_167" transform="translate(0 28.823)">
                                        <path id="Path_67" d="M201.557 348.517v2.224h-.229v-2.02h-.528v-.2z" class="cls-7" transform="translate(-200.804 -348.498)"/>
                                        <path id="Path_68" d="M203.478 349.608c0-.708.372-1.131.886-1.131s.89.423.89 1.131-.375 1.131-.89 1.131-.886-.422-.886-1.131zm1.541 0c0-.594-.267-.921-.655-.921s-.654.327-.654.921.267.921.654.921.655-.329.655-.921z" class="cls-7" transform="translate(-202.195 -348.477)"/>
                                    </g>
                                </g>
                                <g id="Group_173" transform="translate(4.978)">
                                    <g id="Group_171" transform="translate(.611)">
                                        <g id="Group_169">
                                            <path id="Path_69" d="M213.787 316.069a1.333 1.333 0 0 1-1.333-1.333v-25.015a1.333 1.333 0 0 1 1.333-1.333 1.333 1.333 0 0 1 1.333 1.333v25.015a1.333 1.333 0 0 1-1.333 1.333z" class="cls-13" transform="translate(-212.454 -288.388)"/>
                                        </g>
                                        <g id="Group_170" transform="translate(0 3.927)">
                                            <path id="Path_70" d="M213.787 320.447a1.334 1.334 0 0 1-1.333-1.333v-21.206a1.333 1.333 0 0 1 1.333-1.333 1.333 1.333 0 0 1 1.333 1.333v21.205a1.333 1.333 0 0 1-1.333 1.334z" class="cls-1" transform="translate(-212.454 -296.575)"/>
                                        </g>
                                    </g>
                                    <g id="Group_172" transform="translate(0 28.823)">
                                        <path id="Path_71" d="M212.807 350.517v.2h-1.559v-.162l.924-.906c.251-.248.3-.4.3-.549 0-.258-.181-.416-.521-.416a.754.754 0 0 0-.606.248l-.162-.14a1 1 0 0 1 .788-.318c.451 0 .737.229.737.6a.915.915 0 0 1-.365.7l-.756.743z" class="cls-7" transform="translate(-211.181 -348.477)"/>
                                        <path id="Path_72" d="M215.138 349.608c0-.708.372-1.131.886-1.131s.89.423.89 1.131-.375 1.131-.89 1.131-.886-.422-.886-1.131zm1.541 0c0-.594-.267-.921-.655-.921s-.654.327-.654.921.267.921.654.921.655-.329.655-.921z" class="cls-7" transform="translate(-213.24 -348.477)"/>
                                    </g>
                                </g>
                                <g id="Group_178" transform="translate(10.298)">
                                    <g id="Group_176" transform="translate(.62)">
                                        <g id="Group_174">
                                            <path id="Path_73" d="M224.9 316.069a1.333 1.333 0 0 1-1.333-1.333v-25.015a1.333 1.333 0 0 1 1.333-1.333 1.333 1.333 0 0 1 1.334 1.333v25.015a1.333 1.333 0 0 1-1.334 1.333z" class="cls-13" transform="translate(-223.566 -288.388)"/>
                                        </g>
                                        <g id="Group_175" transform="translate(0 12.815)">
                                            <path id="Path_74" d="M224.9 330.088a1.333 1.333 0 0 1-1.333-1.334v-12.316a1.333 1.333 0 0 1 1.333-1.333 1.333 1.333 0 0 1 1.334 1.333v12.317a1.334 1.334 0 0 1-1.334 1.333z" class="cls-1" transform="translate(-223.566 -315.105)"/>
                                        </g>
                                    </g>
                                    <g id="Group_177" transform="translate(0 28.823)">
                                        <path id="Path_75" d="M223.88 350.1c0 .371-.27.658-.807.658a1.156 1.156 0 0 1-.8-.286l.111-.181a.973.973 0 0 0 .689.257c.369 0 .572-.171.572-.448s-.187-.442-.6-.442h-.159v-.168l.616-.772h-1.138v-.2h1.43v.162l-.629.79c.477.03.715.276.715.63z" class="cls-7" transform="translate(-222.273 -348.498)"/>
                                        <path id="Path_76" d="M226.289 349.608c0-.708.372-1.131.886-1.131s.889.423.889 1.131-.375 1.131-.889 1.131-.886-.422-.886-1.131zm1.541 0c0-.594-.267-.921-.654-.921s-.654.327-.654.921.267.921.654.921.654-.329.654-.921z" class="cls-7" transform="translate(-224.363 -348.477)"/>
                                    </g>
                                </g>
                                <g id="Group_183" transform="translate(15.665)">
                                    <g id="Group_181" transform="translate(.583)">
                                        <g id="Group_179">
                                            <path id="Path_77" d="M236.011 316.069a1.333 1.333 0 0 1-1.334-1.333v-25.015a1.333 1.333 0 0 1 1.334-1.333 1.333 1.333 0 0 1 1.333 1.333v25.015a1.333 1.333 0 0 1-1.333 1.333z" class="cls-13" transform="translate(-234.677 -288.388)"/>
                                        </g>
                                        <g id="Group_180" transform="translate(0 3.927)">
                                            <path id="Path_78" d="M236.011 320.447a1.334 1.334 0 0 1-1.334-1.333v-21.206a1.333 1.333 0 0 1 1.334-1.333 1.333 1.333 0 0 1 1.333 1.333v21.205a1.333 1.333 0 0 1-1.333 1.334z" class="cls-1" transform="translate(-234.677 -296.575)"/>
                                        </g>
                                    </g>
                                    <g id="Group_182" transform="translate(0 28.823)">
                                        <path id="Path_79" d="M235.389 350.156h-.445v.585h-.229v-.585h-1.254v-.165l1.178-1.474h.254l-1.137 1.436h.966v-.514h.223v.514h.445z" class="cls-7" transform="translate(-233.461 -348.498)"/>
                                        <path id="Path_80" d="M237.913 349.608c0-.708.372-1.131.886-1.131s.889.423.889 1.131-.375 1.131-.889 1.131-.886-.422-.886-1.131zm1.541 0c0-.594-.267-.921-.654-.921s-.654.327-.654.921.267.921.654.921.654-.329.654-.921z" class="cls-7" transform="translate(-235.777 -348.477)"/>
                                    </g>
                                </g>
                                <g id="Group_188" transform="translate(21.189)">
                                    <g id="Group_186" transform="translate(.389)">
                                        <g id="Group_184">
                                            <path id="Path_81" d="M247.122 316.069a1.333 1.333 0 0 1-1.333-1.333v-25.015a1.333 1.333 0 0 1 1.333-1.333 1.333 1.333 0 0 1 1.333 1.333v25.015a1.333 1.333 0 0 1-1.333 1.333z" class="cls-13" transform="translate(-245.789 -288.388)"/>
                                        </g>
                                        <g id="Group_185" transform="translate(0 7.99)">
                                            <path id="Path_82" d="M247.122 324.854a1.333 1.333 0 0 1-1.333-1.334v-17.141a1.333 1.333 0 0 1 1.333-1.333 1.333 1.333 0 0 1 1.333 1.333v17.142a1.333 1.333 0 0 1-1.333 1.333z" class="cls-1" transform="translate(-245.789 -305.046)"/>
                                        </g>
                                    </g>
                                    <g id="Group_187" transform="translate(0 28.823)">
                                        <path id="Path_83" d="M246.581 350.086c0 .378-.263.674-.807.674a1.149 1.149 0 0 1-.8-.286l.111-.181a.96.96 0 0 0 .683.257c.378 0 .578-.184.578-.454 0-.286-.177-.464-.743-.464h-.473l.115-1.115h1.216v.2h-1.016l-.076.708h.286c.672.003.926.267.926.661z" class="cls-7" transform="translate(-244.977 -348.498)"/>
                                        <path id="Path_84" d="M248.92 349.608c0-.708.372-1.131.886-1.131s.89.423.89 1.131-.375 1.131-.89 1.131-.886-.422-.886-1.131zm1.541 0c0-.594-.267-.921-.654-.921s-.654.327-.654.921.267.921.654.921.654-.329.654-.921z" class="cls-7" transform="translate(-247.029 -348.477)"/>
                                    </g>
                                </g>
                                <g id="Group_193" transform="translate(26.396)">
                                    <g id="Group_191" transform="translate(.512)">
                                        <g id="Group_189">
                                            <path id="Path_85" d="M258.233 316.069a1.333 1.333 0 0 1-1.333-1.333v-25.015a1.333 1.333 0 0 1 1.333-1.333 1.333 1.333 0 0 1 1.334 1.333v25.015a1.333 1.333 0 0 1-1.334 1.333z" class="cls-13" transform="translate(-256.9 -288.388)"/>
                                        </g>
                                        <g id="Group_190" transform="translate(0 12.697)">
                                            <path id="Path_86" d="M258.233 329.842a1.314 1.314 0 0 1-1.333-1.215V316.31a1.364 1.364 0 0 1 1.333-1.451 1.334 1.334 0 0 1 1.334 1.333v12.317a1.333 1.333 0 0 1-1.334 1.333z" class="cls-1" transform="translate(-256.9 -314.859)"/>
                                        </g>
                                    </g>
                                    <g id="Group_192" transform="translate(0 28.823)">
                                        <path id="Path_87" d="M257.5 350.056a.693.693 0 0 1-.759.683c-.591 0-.912-.41-.912-1.112 0-.756.413-1.15 1.016-1.15a1.018 1.018 0 0 1 .527.121l-.092.184a.778.778 0 0 0-.432-.1c-.48 0-.788.307-.788.911 0 .051 0 .114.01.181a.71.71 0 0 1 .68-.381.673.673 0 0 1 .75.663zm-.225.006c0-.293-.216-.48-.559-.48a.515.515 0 0 0-.572.486c0 .245.2.476.588.476a.486.486 0 0 0 .545-.482z" class="cls-7" transform="translate(-255.832 -348.477)"/>
                                        <path id="Path_88" d="M259.861 349.608c0-.708.372-1.131.886-1.131s.89.423.89 1.131-.375 1.131-.89 1.131-.886-.422-.886-1.131zm1.541 0c0-.594-.267-.921-.654-.921s-.654.327-.654.921.267.921.654.921.652-.329.652-.921z" class="cls-7" transform="translate(-257.928 -348.477)"/>
                                    </g>
                                </g>
                                <g id="Group_198" transform="translate(31.654)">
                                    <g id="Group_196" transform="translate(.583)">
                                        <g id="Group_194">
                                            <path id="Path_89" d="M269.345 316.069a1.333 1.333 0 0 1-1.334-1.333v-25.015a1.333 1.333 0 0 1 1.334-1.333 1.333 1.333 0 0 1 1.333 1.333v25.015a1.333 1.333 0 0 1-1.333 1.333z" class="cls-13" transform="translate(-268.011 -288.388)"/>
                                        </g>
                                        <g id="Group_195" transform="translate(0 2.657)">
                                            <path id="Path_90" d="M269.345 319.069a1.334 1.334 0 0 1-1.334-1.333v-22.475a1.333 1.333 0 0 1 1.334-1.333 1.333 1.333 0 0 1 1.333 1.333v22.475a1.333 1.333 0 0 1-1.333 1.333z" class="cls-1" transform="translate(-268.011 -293.928)"/>
                                        </g>
                                    </g>
                                    <g id="Group_197" transform="translate(0 28.823)">
                                        <path id="Path_91" d="M268.427 348.517v.162l-.931 2.062h-.248l.915-2.02h-1.143v.416h-.22v-.619z" class="cls-7" transform="translate(-266.795 -348.498)"/>
                                        <path id="Path_92" d="M270.692 349.608c0-.708.372-1.131.886-1.131s.889.423.889 1.131-.375 1.131-.889 1.131-.886-.422-.886-1.131zm1.541 0c0-.594-.267-.921-.654-.921s-.655.327-.655.921.267.921.655.921.654-.329.654-.921z" class="cls-7" transform="translate(-268.823 -348.477)"/>
                                    </g>
                                </g>
                                <g id="Group_203" transform="translate(36.914)">
                                    <g id="Group_201" transform="translate(.654)">
                                        <g id="Group_199">
                                            <path id="Path_93" d="M280.456 316.069a1.333 1.333 0 0 1-1.333-1.333v-25.015a1.333 1.333 0 0 1 1.333-1.333 1.333 1.333 0 0 1 1.333 1.333v25.015a1.333 1.333 0 0 1-1.333 1.333z" class="cls-13" transform="translate(-279.123 -288.388)"/>
                                        </g>
                                        <g id="Group_200" transform="translate(0 15.355)">
                                            <path id="Path_94" d="M280.456 332.843a1.333 1.333 0 0 1-1.333-1.333v-9.777a1.333 1.333 0 0 1 1.333-1.333 1.333 1.333 0 0 1 1.333 1.333v9.777a1.334 1.334 0 0 1-1.333 1.333z" class="cls-1" transform="translate(-279.123 -320.399)"/>
                                        </g>
                                    </g>
                                    <g id="Group_202" transform="translate(0 28.823)">
                                        <path id="Path_95" d="M279.482 350.1c0 .394-.333.638-.864.638s-.858-.245-.858-.638a.555.555 0 0 1 .429-.547.5.5 0 0 1-.35-.489c0-.362.308-.588.779-.588s.785.226.785.588a.5.5 0 0 1-.356.489.56.56 0 0 1 .435.547zm-.235 0c0-.273-.235-.445-.629-.445s-.626.172-.626.445.232.448.626.448.628-.174.628-.448zm-.629-.626c.346 0 .553-.155.553-.4s-.219-.4-.553-.4-.55.153-.55.4.203.397.55.397z" class="cls-7" transform="translate(-277.76 -348.477)"/>
                                        <path id="Path_96" d="M282.008 349.608c0-.708.372-1.131.886-1.131s.889.423.889 1.131-.375 1.131-.889 1.131-.886-.422-.886-1.131zm1.541 0c0-.594-.267-.921-.654-.921s-.655.327-.655.921.267.921.655.921.654-.329.654-.921z" class="cls-7" transform="translate(-279.97 -348.477)"/>
                                    </g>
                                </g>
                                <g id="Group_208" transform="translate(42.158)">
                                    <g id="Group_206" transform="translate(.739)">
                                        <g id="Group_204">
                                            <path id="Path_97" d="M291.568 316.069a1.333 1.333 0 0 1-1.333-1.333v-25.015a1.333 1.333 0 0 1 1.333-1.333 1.333 1.333 0 0 1 1.333 1.333v25.015a1.333 1.333 0 0 1-1.333 1.333z" class="cls-13" transform="translate(-290.234 -288.388)"/>
                                        </g>
                                        <g id="Group_205" transform="translate(0 21.586)">
                                            <path id="Path_98" d="M291.568 339.484a1.314 1.314 0 0 1-1.333-1.215v-3.429a1.363 1.363 0 0 1 1.333-1.451 1.333 1.333 0 0 1 1.333 1.333v3.429a1.333 1.333 0 0 1-1.333 1.333z" class="cls-1" transform="translate(-290.234 -333.389)"/>
                                        </g>
                                    </g>
                                    <g id="Group_207" transform="translate(0 28.823)">
                                        <path id="Path_99" d="M290.364 349.589c0 .756-.413 1.15-1.016 1.15a1.019 1.019 0 0 1-.527-.121l.092-.184a.785.785 0 0 0 .432.1c.48 0 .788-.308.788-.912 0-.05 0-.114-.009-.181a.711.711 0 0 1-.68.381.673.673 0 0 1-.75-.667.693.693 0 0 1 .759-.683c.59.005.911.415.911 1.117zm-.314-.442c0-.244-.2-.476-.588-.476a.487.487 0 0 0-.543.483c0 .292.216.48.559.48a.515.515 0 0 0 .572-.487z" class="cls-7" transform="translate(-288.693 -348.477)"/>
                                        <path id="Path_100" d="M292.862 349.608c0-.708.372-1.131.886-1.131s.89.423.89 1.131-.375 1.131-.89 1.131-.886-.422-.886-1.131zm1.541 0c0-.594-.267-.921-.654-.921s-.654.327-.654.921.267.921.654.921.651-.329.651-.921z" class="cls-7" transform="translate(-290.862 -348.477)"/>
                                    </g>
                                </g>
                                <g id="Group_213" transform="translate(46.897)">
                                    <g id="Group_211" transform="translate(1.33)">
                                        <g id="Group_209">
                                            <path id="Path_101" d="M302.679 316.069a1.333 1.333 0 0 1-1.334-1.333v-25.015a1.333 1.333 0 0 1 1.334-1.333 1.333 1.333 0 0 1 1.333 1.333v25.015a1.333 1.333 0 0 1-1.333 1.333z" class="cls-13" transform="translate(-301.345 -288.388)"/>
                                        </g>
                                        <g id="Group_210" transform="translate(0 12.697)">
                                            <path id="Path_102" d="M302.679 329.842a1.315 1.315 0 0 1-1.334-1.215V316.31a1.364 1.364 0 0 1 1.334-1.451 1.333 1.333 0 0 1 1.333 1.333v12.317a1.333 1.333 0 0 1-1.333 1.333z" class="cls-1" transform="translate(-301.345 -314.859)"/>
                                        </g>
                                    </g>
                                    <g id="Group_212" transform="translate(0 28.823)">
                                        <path id="Path_103" d="M299.326 348.517v2.224h-.226v-2.02h-.524v-.2z" class="cls-7" transform="translate(-298.573 -348.498)"/>
                                        <path id="Path_104" d="M301.247 349.608c0-.708.372-1.131.886-1.131s.89.423.89 1.131-.375 1.131-.89 1.131-.886-.422-.886-1.131zm1.541 0c0-.594-.267-.921-.655-.921s-.654.327-.654.921.267.921.654.921.655-.329.655-.921z" class="cls-7" transform="translate(-299.964 -348.477)"/>
                                        <path id="Path_105" d="M305.627 349.608c0-.708.372-1.131.886-1.131s.889.423.889 1.131-.375 1.131-.889 1.131-.886-.422-.886-1.131zm1.541 0c0-.594-.267-.921-.654-.921s-.655.327-.655.921.267.921.655.921.654-.329.654-.921z" class="cls-7" transform="translate(-302.243 -348.477)"/>
                                    </g>
                                </g>
                            </g>
                        </g>
                        <g id="Group_217" transform="translate(67.232 81.501)">
                            <g id="Group_216">
                                <path id="Path_106" d="M327.014 317.106c-.069 0-.125-8.233-.125-18.385s.056-18.387.125-18.387.125 8.231.125 18.387-.056 18.385-.125 18.385z" class="cls-11" transform="translate(-326.889 -280.333)"/>
                            </g>
                        </g>
                    </g>
                </g>
            </g>
        </g>
    </g>
</svg>
