<svg xmlns="http://www.w3.org/2000/svg" width="875.822" height="562.616" viewBox="0 0 875.822 562.616">
    <defs>
        <style>
            .cls-1{fill:#ebebeb}.cls-2{fill:#e0e0e0}.cls-3{fill:#f0f0f0}.cls-5{fill:#263238}.cls-6{fill:#ffc727}.cls-10,.cls-8{fill:#fff}.cls-10,.cls-11{fill-rule:evenodd}
        </style>
    </defs>
    <g id="Group_9654" transform="translate(-537.426 -137.88)">
        <g id="freepik--background-complete--inject-3" transform="translate(537.426 98.387)">
            <path id="Rectangle_1194" d="M0 0H875.822V0.438H0z" class="cls-1" transform="translate(0 573.487)"/>
            <path id="Rectangle_1195" d="M0 0H37.976V0.438H0z" class="cls-1" transform="translate(750.089 601.671)"/>
            <path id="Rectangle_1196" d="M0 0H59.749V0.438H0z" class="cls-1" transform="translate(543.99 592.598)"/>
            <path id="Rectangle_1197" d="M0 0H78.001V0.438H0z" class="cls-1" transform="translate(694.684 585.416)"/>
            <path id="Rectangle_1198" d="M0 0H19.513V0.438H0z" class="cls-1" transform="translate(283.556 594.245)"/>
            <path id="Rectangle_1199" d="M0 0H67.246V0.438H0z" class="cls-1" transform="translate(200.703 594.245)"/>
            <path id="Rectangle_1200" d="M0 0H48.521V0.438H0z" class="cls-1" transform="translate(116.151 586.853)"/>
            <path id="Path_20955" d="M347.247 273.759l.788-23.017-14.118-4.624A138.727 138.727 0 0 0 330.133 223l11.981-8.758-8.128-21.615-14.819 1.191a136.93 136.93 0 0 0-12.262-19.881l7.672-12.8-15.763-16.837-13.242 6.779a143.247 143.247 0 0 0-19.023-13.733l2.137-14.714-21.02-9.529-9.634 11.281a141.291 141.291 0 0 0-22.771-5.255l-3.5-14.416-23.087-.788-4.554 14.136a140.973 140.973 0 0 0-23.1 3.766l-8.9-11.911-21.62 8.07 1.19 14.814a140.364 140.364 0 0 0-19.881 12.384l-12.892-7.847-16.9 15.765 6.779 13.312a135.94 135.94 0 0 0-13.663 18.988l-14.7-2.207-9.6 21.02 11.351 9.617a137.565 137.565 0 0 0-5.255 22.771l-14.591 3.661-.788 23.017 14.188 4.624a135.577 135.577 0 0 0 3.766 23.1l-11.981 8.758 8.145 21.637 14.819-1.191a134.875 134.875 0 0 0 12.262 19.881l-7.69 12.8 15.765 16.833 13.242-6.779a141.423 141.423 0 0 0 18.988 13.715l-2.207 14.7 21.02 9.546 9.687-11.281a143.156 143.156 0 0 0 22.771 5.342l3.5 14.416 23.087.788 4.554-14.136a142.748 142.748 0 0 0 23.122-3.766l8.758 11.911 21.615-8.075-1.121-14.819a146.151 146.151 0 0 0 19.881-12.384l12.734 7.672 16.9-15.765-6.772-13.308a135.55 135.55 0 0 0 13.663-18.988l14.7 2.207 9.6-21.02-11.351-9.634a135.337 135.337 0 0 0 5.342-22.771zm-155.529 74.568a91.366 91.366 0 1 1 94.4-88.16 91.366 91.366 0 0 1-94.4 88.16z" class="cls-1" transform="translate(31.231 -18.23)"/>
            <path id="Path_20956" d="M477.861 197.768l5.8-5.413-2.295-4.572a48.34 48.34 0 0 0 4.712-6.551l5.08.753 3.276-7.252-3.889-3.311a47.007 47.007 0 0 0 1.839-7.865l4.992-1.244.245-7.952-4.87-1.576a49.605 49.605 0 0 0-1.3-7.987l4.117-3.065-2.8-7.444-5.1.4a49.488 49.488 0 0 0-4.256-6.866l2.645-4.379-5.448-5.815-4.554 2.33a49.464 49.464 0 0 0-6.551-4.712l.736-5.08-7.234-3.311-3.328 3.906a48.745 48.745 0 0 0-7.865-1.752l-1.244-4.975-7.953-.3-1.594 4.9a47.3 47.3 0 0 0-7.953 1.3l-3.048-4.116-7.462 2.785.42 5.115a46.558 46.558 0 0 0-6.866 4.256l-4.414-2.645-5.815 5.413 2.259 4.467a46.6 46.6 0 0 0-4.729 6.551l-5.062-.753-3.293 7.252 3.906 3.328a46.392 46.392 0 0 0-1.752 7.847l-5.01 1.244-.245 7.952 4.887 1.576a47.731 47.731 0 0 0 1.279 7.987l-4.134 3.048 2.8 7.444 5.115-.385a49.5 49.5 0 0 0 4.256 6.866l-2.645 4.379 5.448 5.815 4.554-2.33a47.919 47.919 0 0 0 6.551 4.712l-.753 5.062 7.252 3.311 3.328-3.889a50.692 50.692 0 0 0 7.865 1.752l1.244 4.975 7.952.3 1.594-4.9a47.048 47.048 0 0 0 7.952-1.3l3.048 4.116 7.462-2.785-.4-5.115a46.747 46.747 0 0 0 6.849-4.257zm-41.374-33.509a10.373 10.373 0 1 1-.07 0z" class="cls-1" transform="translate(294.614 -18.365)"/>
            <path id="Path_20957" d="M421.6 336.612l-18.112-12.524a98.539 98.539 0 0 0-7.287-18.865l4.642-18.217-26.275-28.131-18.5 3.381a98.619 98.619 0 0 0-18.34-8.565l-11.246-18.935-38.536-1.314-12.507 18.112a99.024 99.024 0 0 0-18.848 7.269l-18.217-4.642-28.131 26.275 3.381 18.462a98.485 98.485 0 0 0-8.548 18.375l-18.935 11.246-1.314 38.536 18.129 12.507a95.9 95.9 0 0 0 7.269 18.953l-4.694 18.059 26.275 28.131 18.375-3.363a100.164 100.164 0 0 0 18.462 8.583l11.228 18.9 38.536 1.331 12.493-18.114a99.983 99.983 0 0 0 19.023-7.287l18.112 4.624 28.149-26.275-3.384-18.461a97.044 97.044 0 0 0 8.548-18.392l18.935-11.245zM301.7 395.1a44.85 44.85 0 1 0-.017 0z" class="cls-1" transform="translate(138.926 79.123)"/>
            <path id="Path_20958" d="M390.311 313.36h-.123l-30.338-1.034a3.643 3.643 0 0 1-3.048-1.752l-8.18-13.75a83.8 83.8 0 0 1-12.752-5.924l-13.085 2.26a3.678 3.678 0 0 1-3.363-1.121L298.7 269.867a3.678 3.678 0 0 1-.876-3.5l3.311-12.98a79.623 79.623 0 0 1-5.01-13.085l-13.19-9.108a3.679 3.679 0 0 1-1.594-3.171l1.033-30.338a3.748 3.748 0 0 1 1.752-3.048l13.785-8.18a79.385 79.385 0 0 1 5.9-12.7l-2.417-13.19a3.7 3.7 0 0 1 1.121-3.381l22.176-20.7a3.7 3.7 0 0 1 3.5-.893l13.032 3.328a80.281 80.281 0 0 1 13.05-5.027l9.108-13.19a3.5 3.5 0 0 1 3.171-1.594l30.321 1.051a3.7 3.7 0 0 1 3.065 1.752l8.18 13.768a81.3 81.3 0 0 1 12.647 5.921l13.242-2.435a3.661 3.661 0 0 1 3.363 1.121l20.73 22.168a3.713 3.713 0 0 1 .876 3.5l-3.328 13.015a81.606 81.606 0 0 1 5.045 13.05l13.172 9.109a3.678 3.678 0 0 1 1.594 3.17l-1.034 30.321a3.783 3.783 0 0 1-1.752 3.065l-13.786 8.18a81.445 81.445 0 0 1-5.9 12.682l2.417 13.207a3.66 3.66 0 0 1-1.121 3.363l-22.316 20.722a3.679 3.679 0 0 1-3.5.876l-12.967-3.307a83.178 83.178 0 0 1-13.12 5.027l-9.021 13.172a3.731 3.731 0 0 1-3.048 1.752zM362.127 305l26.275.893 8.758-12.593a3.5 3.5 0 0 1 2.084-1.471 76.794 76.794 0 0 0 14.276-5.483 3.783 3.783 0 0 1 2.557-.263l12.262 3.135 19.268-17.954L445.4 258.6a3.662 3.662 0 0 1 .455-2.575 72.831 72.831 0 0 0 6.394-13.715 3.73 3.73 0 0 1 1.646-2.067l13.19-7.812.893-26.275-12.611-8.756a3.694 3.694 0 0 1-1.419-1.874v-.3a75.328 75.328 0 0 0-5.465-14.013 3.7 3.7 0 0 1-.28-2.592l3.153-12.4-17.956-19.267-12.594 2.312a3.731 3.731 0 0 1-2.557-.455 74.09 74.09 0 0 0-13.733-6.429 3.989 3.989 0 0 1-.788-.35 3.677 3.677 0 0 1-1.226-1.261l-7.9-13.225-26.275-.911-8.758 12.629a3.783 3.783 0 0 1-2.172 1.489 74.677 74.677 0 0 0-14.118 5.448 3.643 3.643 0 0 1-2.575.28l-12.4-3.153-19.268 17.954 2.312 12.559a3.818 3.818 0 0 1-.333 2.33l-.175.3a72.791 72.791 0 0 0-6.394 13.768 3.714 3.714 0 0 1-1.611 1.962l-13.19 7.83-.893 26.275 12.629 8.758a3.679 3.679 0 0 1 1.471 2.067 72.727 72.727 0 0 0 5.448 14.223 4.451 4.451 0 0 1 .3.806 3.922 3.922 0 0 1 0 1.752l-3.153 12.261 17.953 19.266 12.507-2.295a3.678 3.678 0 0 1 2.54.455 75.775 75.775 0 0 0 13.82 6.428 3.5 3.5 0 0 1 2.049 1.629zm43.406-166.073zm-27.168 132.849h-1.945a55.229 55.229 0 1 1 1.944 0zm0-103.5a48.258 48.258 0 1 0 1.664 0z" class="cls-1" transform="translate(211.466 -6.823)"/>
            <path id="Path_20959" d="M390.28 114.265L377.7 110.9l-3.36-12.575 4.922-4.9 5.185 10.738 10.755 5.2z" class="cls-2" transform="translate(281.37 -26.122)"/>
            <path id="Path_20960" d="M387.435 108.1a5.859 5.859 0 0 0-8.285-8.285l6.25-9.385 8.373 4.239 1.839 8.758z" class="cls-2" transform="translate(284.986 -28.369)"/>
            <path id="Path_20961" d="M376.58 97.954l9.214-9.214 12.542 3.346 3.381 12.559-9.214 9.214-12.559-3.381zm16.728 7.532a4.151 4.151 0 1 1 0-.035z" class="cls-3" transform="translate(283.054 -29.64)"/>
            <path id="Path_20962" d="M91.355 301.513l6.744-1.822 1.8-6.744-2.627-2.627-2.785 5.763-5.78 2.785z" class="cls-2" transform="translate(66.678 121.876)"/>
            <path id="Path_20963" d="M91.924 298.2a3.153 3.153 0 0 1 4.449-4.449l-3.346-5.027-4.607 2.242-.981 4.729z" class="cls-2" transform="translate(65.724 120.674)"/>
            <path id="Path_20964" d="M99.665 292.74l-4.94-4.94-6.744 1.752-1.751 6.748 4.852 4.992 6.744-1.752zm-8.965 4.046a3.153 3.153 0 1 1 4.3-.143 3.153 3.153 0 0 1-4.307.142z" class="cls-3" transform="translate(64.814 119.982)"/>
            <path id="Path_20965" d="M76.814 88.366l5.605 5.605a3.749 3.749 0 0 0 5.255 0 3.766 3.766 0 0 0 0-5.255l-5.588-5.588a3.766 3.766 0 0 0-5.255 0 3.748 3.748 0 0 0-.017 5.238z" class="cls-3" transform="translate(56.942 -34.66)"/>
            <path id="Path_20966" d="M76.529 77.833a7.795 7.795 0 1 1-5.255 10.124 8.04 8.04 0 0 1 5.255-10.124z" class="cls-2" transform="translate(53.285 -38.053)"/>
            <path id="Rectangle_1201" d="M0 0H2.4V17.692H0z" class="cls-3" transform="rotate(-109.76 80.28 -18.18)"/>
        </g>
        <g id="freepik--Shadow--inject-3" transform="translate(702.583 668.137)">
            <ellipse id="freepik--path--inject-3" cx="257.754" cy="15.049" fill="#f5f5f5" rx="257.754" ry="15.049"/>
        </g>
        <g id="freepik--oops--inject-3" transform="translate(688.417 171.934)">
            <path id="Path_20967" d="M87.111 133.926c-1.752-7.725-.981-14.206 2.347-19.5s8.758-8.758 16.483-10.51 14.4-1.051 19.618 2.207 8.758 8.758 10.51 16.29a30.041 30.041 0 0 1 .3 14.223 20.39 20.39 0 0 1-6.183 10.089 27.2 27.2 0 0 1-12.472 5.921 30.916 30.916 0 0 1-13.8.473 20.53 20.53 0 0 1-10.335-6.131 27.448 27.448 0 0 1-6.464-13.067zm14.609-3.258q1.629 7.147 4.992 9.669a10.317 10.317 0 0 0 14.539-3.223c1.261-2.435 1.279-6.306.088-11.578q-1.524-6.674-4.922-9.144a9.389 9.389 0 0 0-7.988-1.419 9.108 9.108 0 0 0-6.393 4.729c-1.297 2.576-1.42 6.079-.316 10.966z" class="cls-5" transform="translate(-86.2 -72.479)"/>
            <path id="Path_20968" d="M118.833 127.307a17.517 17.517 0 0 1 2.365-14.118 20.249 20.249 0 0 1 13.12-8.32q10.282-2.33 16.886 2.435a19.093 19.093 0 0 1 4.624 25q-4.1 6.253-13.348 8.338a20.722 20.722 0 0 1-14.293-1.156 17.254 17.254 0 0 1-9.354-12.179zm13.155-3.03a10.65 10.65 0 0 0 3.381 6.358 6.271 6.271 0 0 0 9.336-2.084 11.088 11.088 0 0 0 .245-7.357 10.51 10.51 0 0 0-3.346-6.2 5.833 5.833 0 0 0-5.045-1.139 6.113 6.113 0 0 0-4.239 3.276 10.51 10.51 0 0 0-.332 7.145z" class="cls-5" transform="translate(-62.097 -71.64)"/>
            <path id="Path_20969" d="M153.188 151.663l-10.738-47.295 12.262-2.8 1.156 5.062a16.642 16.642 0 0 1 3.7-5.378 13.75 13.75 0 0 1 6.008-2.96 12.629 12.629 0 0 1 11.806 2.838 22.438 22.438 0 0 1 6.709 12.139c1.3 5.693.911 10.352-1.121 14.013a13.786 13.786 0 0 1-9.336 6.849 15.012 15.012 0 0 1-5.763.228 13.593 13.593 0 0 1-5.15-2.049l3.714 16.343zm6.323-33.036a9.266 9.266 0 0 0 3.083 5.64 5.588 5.588 0 0 0 4.765.981 4.94 4.94 0 0 0 3.5-2.75 10.509 10.509 0 0 0 0-6.761 9.827 9.827 0 0 0-3-5.745 5.1 5.1 0 0 0-4.379-1.051 5.465 5.465 0 0 0-3.748 2.925 10.019 10.019 0 0 0-.228 6.761z" class="cls-5" transform="translate(-43.92 -76.342)"/>
            <path id="Path_20970" d="M170.358 123.443l12.752-4.186a6.568 6.568 0 0 0 3.013 2.8 8.215 8.215 0 0 0 7.935-1.927 2.61 2.61 0 0 0 .648-2.347 2.435 2.435 0 0 0-1.979-1.874 27.288 27.288 0 0 0-5.956 0 58.907 58.907 0 0 1-9.984 0 10.3 10.3 0 0 1-5.255-2.4 9.652 9.652 0 0 1-2.435-11.368 11.824 11.824 0 0 1 4.572-4.887 29.392 29.392 0 0 1 8.986-3.311 32.37 32.37 0 0 1 9.249-1.121 12.1 12.1 0 0 1 5.535 1.752 15.519 15.519 0 0 1 4.449 4.589l-12.262 4.046a4.4 4.4 0 0 0-2.155-2.049 6.744 6.744 0 0 0-3.976-.175 5.4 5.4 0 0 0-3.065 1.524 2.365 2.365 0 0 0-.578 2.137 2.1 2.1 0 0 0 1.752 1.612 21.649 21.649 0 0 0 5.885-.123 39.273 39.273 0 0 1 10.195-.14 11.018 11.018 0 0 1 5.745 2.645 9.564 9.564 0 0 1 2.908 4.992 10.825 10.825 0 0 1-.473 6.183 12.4 12.4 0 0 1-4.624 5.728 27.607 27.607 0 0 1-10.125 4.046q-9.371 2.137-14.013.368a12.384 12.384 0 0 1-6.744-6.516z" class="cls-5" transform="translate(-24.568 -80.125)"/>
            <path id="Path_20971" d="M193.85 85.57h14.381v11.035l-2.645 22.195h-8.9l-2.836-22.16zm.7 36.574h13.418v11.876h-13.417z" class="cls-5" transform="translate(-5.286 -85.57)"/>
        </g>
        <g id="freepik--error-404--inject-3" transform="translate(662.056 196.092)">
            <path id="Path_20972" d="M150.523 190.279h-.315c-7.882-3.065-12.594-6.043-15.047-9.634a9 9 0 0 1-5.658-.771 11.386 11.386 0 0 1-4.887-4.589 4.45 4.45 0 0 1-4.239.648 10.755 10.755 0 0 1-5.255-4.222 3.906 3.906 0 0 1-2.733.753c-5.255-.42-12.262-10.79-12.77-21.825a.911.911 0 0 1 .841-.928.876.876 0 0 1 .911.841c.49 10.51 7.2 19.846 11.175 20.161a2.207 2.207 0 0 0 1.629-.473 21.51 21.51 0 0 1-1.752-16.5c1.506-5.255 2.838-7.322 4.449-7.007 3.013.753 2.61 12.261 1.016 19.776a10.755 10.755 0 0 1-1.471 3.819 9.459 9.459 0 0 0 4.449 3.871 2.768 2.768 0 0 0 2.925-.613c-1.366-3.381-1.752-8.005.21-13.89 2.452-7.76 3.5-7.97 4.046-8.11a1.156 1.156 0 0 1 1.121.385c1.629 1.839-.315 13.89-2.347 19.846a8.758 8.758 0 0 1-.981 2.032 9.739 9.739 0 0 0 4.362 4.379 7.725 7.725 0 0 0 3.994.753c-.158-.333-.3-.666-.438-1.016-1.384-3.766-.7-8.093 2.084-13.277 1.839-3.416 3.346-5.027 4.747-5.027a1.944 1.944 0 0 1 1.752 1.156c1.524 2.82.42 12.121-2.592 16.746a7.007 7.007 0 0 1-2.838 2.452c2.347 3.083 6.814 5.8 14.013 8.565a.858.858 0 0 1 .508 1.121.893.893 0 0 1-.911.578zm-9.949-28.85s-1 0-3.206 4.116c-2.54 4.694-3.188 8.566-1.979 11.824a8.866 8.866 0 0 0 .525 1.174 5.046 5.046 0 0 0 2.312-1.927c2.452-3.749 3.626-11.456 2.715-14.469-.122-.612-.367-.717-.367-.717zM128 154.055a40.875 40.875 0 0 0-2.347 6.183 19.934 19.934 0 0 0-.666 11.473l.158-.455a57.435 57.435 0 0 0 2.908-17.2zm-11.526-5.518c-.3.263-1.156 1.366-2.365 5.64a19.688 19.688 0 0 0 1.261 14.434 10.824 10.824 0 0 0 .788-2.452c1.874-8.6 1.349-16.378.368-17.622z" class="cls-5" transform="translate(-49.751 -63.778)"/>
            <path id="Path_20973" d="M170.313 233.646a15.764 15.764 0 0 1-7.988-2.085.893.893 0 0 1-.315-1.209.858.858 0 0 1 1.191-.3c6.253 3.661 14.328 1.1 15.992-1.576a1.542 1.542 0 0 0 .263-1.174 14.223 14.223 0 0 1-8.986-2.557c-4.467-2.785-4.817-3.626-4.782-4.291a1.068 1.068 0 0 1 .6-.911c1.752-.876 9.652 2.75 12.945 4.922a6.357 6.357 0 0 1 1.086.911 6.219 6.219 0 0 0 3.328-2 5.028 5.028 0 0 0 1.033-1.979h-.35c-2.8.28-5.605-.928-8.6-3.7-2.067-1.892-2.855-3.206-2.592-4.239a1.576 1.576 0 0 1 1.261-1.138c2.417-.613 8.408 1.944 10.843 4.624a4.694 4.694 0 0 1 1.121 2.067c2.295-1.069 4.712-3.5 7.567-7.479a.876.876 0 0 1 1.226-.21.893.893 0 0 1 .21 1.226c-3.311 4.624-6.078 7.252-8.846 8.32a6.463 6.463 0 0 1-1.524 3.5 8.058 8.058 0 0 1-3.819 2.47 3.223 3.223 0 0 1-.49 2.435c-1.475 2.516-5.714 4.373-10.374 4.373zm-1.559-12.156c.6.438 1.436 1.016 2.645 1.752a14.014 14.014 0 0 0 6.306 2.312 43.211 43.211 0 0 0-8.951-4.064zm6.113-7.444a7.584 7.584 0 0 0 2.049 2.435c2.592 2.4 4.957 3.5 7.234 3.223h.561a3.17 3.17 0 0 0-.771-1.454c-2.451-2.769-7.846-4.485-9.072-4.205z" class="cls-5" transform="translate(-2.944 -15.324)"/>
            <path id="Path_20974" d="M261.711 278.545l-27.29 4.955-24.786-135.26-52.654 9.56L71.15 310.2l9.214 50.29 110.09-19.99 7.532 41.129 52.654-9.6-7.531-41.129 27.291-4.957zm-138.117 25.171l45.543-79.822 12.7 69.26z" class="cls-6" transform="translate(-71.15 -62.623)"/>
            <path id="Path_20975" d="M386.915 175.8a103.063 103.063 0 0 0-5.605-24.908 81.118 81.118 0 0 0-12.261-21.352 70.715 70.715 0 0 0-22.249-18.147q-14.013-7.69-37.17-10.7-48.08-6.274-74.93 17.058t-35.383 89.334a244.056 244.056 0 0 0-1.752 49.642q1.752 22.771 8.373 36.662a76.618 76.618 0 0 0 25.662 31.143q16.588 11.648 45.543 15.4 51.463 6.709 76.319-19.776t32.931-89.509a226.8 226.8 0 0 0 .522-54.847z" class="cls-6" transform="translate(23.46 -99.362)"/>
            <path id="Path_20976" d="M284.644 313.659c-4.221-.14-8.758-.526-13.33-1.121-16.045-2.085-28.447-6.148-36.89-12.069A57.209 57.209 0 0 1 215.156 277l-.088-.193c-3.363-7.007-5.57-17.078-6.534-29.778a224.552 224.552 0 0 1 1.611-45.718c6.253-48.555 19.163-68.822 28.885-77.265 11.351-9.844 26.677-14.293 46.821-13.593 4.134.14 8.513.508 13.015 1.086 12.927 1.752 23.174 4.554 30.426 8.513a52.18 52.18 0 0 1 16.308 13.12 61.742 61.742 0 0 1 9.371 16.238 83.7 83.7 0 0 1 4.484 20.231 207.872 207.872 0 0 1-.508 50.307c-4.852 37.73-14.241 64.25-27.886 78.824-10.124 10.79-25.311 15.765-46.436 14.959z" class="cls-5" transform="translate(31.738 -91.08)"/>
            <path id="Path_20977" d="M309.11 164.313l.228-6.639-4.081-1.331a39.962 39.962 0 0 0-1.086-6.656l3.5-2.557-2.347-6.236-4.274.35a39.962 39.962 0 0 0-3.5-5.728l2.207-3.7-4.554-4.852-3.819 1.962a40.587 40.587 0 0 0-5.465-3.959l.613-4.239-6.061-2.75-2.768 3.258a40.75 40.75 0 0 0-6.569-1.541l-1.033-4.151-6.656-.228-1.314 4.064a41.233 41.233 0 0 0-6.656 1.086l-2.575-3.5-6.236 2.33.35 4.274a40.181 40.181 0 0 0-5.728 3.5l-3.678-2.225-4.87 4.537 1.962 3.836a38.151 38.151 0 0 0-3.941 5.483l-4.239-.648-2.768 6.061 3.276 2.768a37.539 37.539 0 0 0-1.541 6.586l-4.169 1.051-.228 6.621 4.081 1.331a39.586 39.586 0 0 0 1.086 6.674l-3.5 2.54 2.347 6.236 4.274-.35a37.676 37.676 0 0 0 3.5 5.728l-2.225 3.7 4.554 4.852 3.819-1.944a40.463 40.463 0 0 0 5.465 3.941l-.631 4.239 6.061 2.75 2.785-3.24a40.5 40.5 0 0 0 6.586 1.524l1.033 4.169 6.639.228 1.314-4.081a39.574 39.574 0 0 0 6.674-1.086l2.54 3.5 6.236-2.33-.333-4.256a43.6 43.6 0 0 0 5.728-3.5l3.678 2.207 4.87-4.537-1.944-3.836a37.861 37.861 0 0 0 3.924-5.465l4.239.631 2.768-6.061-3.258-2.768a38.944 38.944 0 0 0 1.524-6.569zm-44.842 21.493a26.275 26.275 0 1 1 18.891-7.053 26.275 26.275 0 0 1-18.891 7.053z" class="cls-6" transform="translate(41.551 -87.367)"/>
            <path id="Path_20978" fill="#ffc727" d="M312.571 228.076l.49-4.484-2.7-1.086a28.034 28.034 0 0 0-.385-4.554l2.435-1.559-1.244-4.327h-2.908a25.964 25.964 0 0 0-2.085-4.046l1.647-2.382-2.8-3.5-2.68 1.121a28.156 28.156 0 0 0-3.5-2.943l.648-2.838-3.941-2.172-2.067 2.084a27.8 27.8 0 0 0-4.347-1.39l-.491-2.855-4.467-.508-1.1 2.7a26.009 26.009 0 0 0-4.537.42l-1.559-2.487-4.327 1.279v2.908a26.1 26.1 0 0 0-4.046 2.1l-2.382-1.752-3.5 2.8 1.121 2.68a28.256 28.256 0 0 0-2.925 3.5l-2.838-.631-2.155 3.941 2.067 2.049a26.272 26.272 0 0 0-1.384 4.362l-2.873.473-.473 4.467 2.68 1.121a25.8 25.8 0 0 0 .4 4.519l-2.47 1.559 1.261 4.327h2.925a26.643 26.643 0 0 0 2.1 4.029l-1.752 2.382 2.8 3.5 2.715-1.139a25.494 25.494 0 0 0 3.5 2.925l-.613 2.89 3.941 2.155 2.049-2.05a28.241 28.241 0 0 0 4.344 1.349l.508 2.873 4.467.49 1.086-2.68a28.4 28.4 0 0 0 4.624-.385l1.559 2.47 4.309-1.261v-2.908a28.822 28.822 0 0 0 4.064-2.1l2.347 1.752 3.5-2.82-1.138-2.68a28.5 28.5 0 0 0 2.96-3.5l2.82.631 2.172-3.941-2.067-2.032a28.868 28.868 0 0 0 1.349-4.344zm-22.544-1.752a7.812 7.812 0 1 1-3.1-10.6 7.812 7.812 0 0 1 3.1 10.6z" opacity="0.3" transform="translate(65.732 -29.25)"/>
            <path id="Path_20979" d="M330.536 182.405l-5.255-3.608a29.066 29.066 0 0 0-2.1-5.43l1.331-5.255-7.568-8.112-5.255.981a29.781 29.781 0 0 0-5.255-2.47l-3.241-5.465-11.088-.368-3.608 5.255a27.885 27.885 0 0 0-5.43 2.1l-5.255-1.349-8.11 7.585.981 5.255a27.459 27.459 0 0 0-2.47 5.255l-5.448 3.241-.385 11.088 5.255 3.608a28.234 28.234 0 0 0 2.1 5.465l-1.331 5.255 7.567 8.11 5.255-.963a30.059 30.059 0 0 0 5.255 2.47l3.223 5.448 11.105.385 3.591-5.255a29.1 29.1 0 0 0 5.483-2.1l5.255 1.331 8.11-7.567-.963-5.255a29.241 29.241 0 0 0 2.47-5.255l5.447-3.24zm-34.56 16.851a12.472 12.472 0 1 1 12.892-12.034 12.472 12.472 0 0 1-12.892 12.034z" class="cls-8" transform="translate(72.587 -59.285)"/>
            <path id="Path_20980" d="M330.374 129.838l.911-2.19a11.729 11.729 0 0 0 1.752-1.209h2.032l2.382-3.5-.771-1.874a10.825 10.825 0 0 0 .7-1.944l1.752-1.611-.736-4.116-2.207-.911a11.133 11.133 0 0 0-1.209-1.752V108.7l-3.416-2.382-1.892.788a9.723 9.723 0 0 0-2.137-.49l-1.612-1.752-4.1.736-.923 2.2a11.39 11.39 0 0 0-1.839 1.191h-2.014l-2.382 3.5.771 1.874a10.829 10.829 0 0 0-.49 2.137l-1.752 1.629.736 4.1 2.207.911a10.043 10.043 0 0 0 1.191 1.752v2.014l3.5 2.382 1.874-.771a11.26 11.26 0 0 0 2.154.473l1.612 1.752zm-8.758-11.351a4.694 4.694 0 1 1 5.448 3.784 4.694 4.694 0 0 1-5.449-3.783z" class="cls-6" transform="translate(110.778 -95.229)"/>
            <path id="Path_20981" d="M296.189 116.737l-1.349-1.137a34.858 34.858 0 0 1 10.51-8.758l.823 1.541a33.055 33.055 0 0 0-9.984 8.354z" class="cls-6" transform="translate(96.985 -93.741)"/>
            <path id="Path_20982" d="M303.883 108.981l-.683-1.611a41.9 41.9 0 0 1 20.564-3.293l-.175 1.752a39.92 39.92 0 0 0-19.706 3.152z" class="cls-6" transform="translate(103.269 -95.952)"/>
            <path id="Path_20983" d="M302.316 118.944l-1.436-.981a29.323 29.323 0 0 1 17.289-11.193l.333 1.752a27.536 27.536 0 0 0-16.185 10.422z" class="cls-6" transform="translate(101.525 -93.793)"/>
            <path id="Path_20984" d="M251.3 240.766a.911.911 0 0 1-.631-.28l-3.661-3.784a30.639 30.639 0 0 1-5.518-1.016l-5.728 2.522a.858.858 0 0 1-.823 0l-9.6-6.358a.858.858 0 0 1-.385-.753v-6.236a30.13 30.13 0 0 1-3.083-4.694l-4.922-1.892a.876.876 0 0 1-.543-.648l-2.277-11.281a.876.876 0 0 1 .245-.806l3.784-3.661a32.894 32.894 0 0 1 1.016-5.518l-2.522-5.728a.858.858 0 0 1 0-.823l6.358-9.6a.823.823 0 0 1 .753-.385l6.236.088a28.937 28.937 0 0 1 4.694-3.083l1.909-4.922a.859.859 0 0 1 .631-.543l11.28-2.277a.858.858 0 0 1 .806.245l3.661 3.784a31.106 31.106 0 0 1 5.535 1.016l5.71-2.522a.893.893 0 0 1 .841 0l9.582 6.358a.946.946 0 0 1 .4.753l-.105 6.236a30.233 30.233 0 0 1 3.1 4.694l4.9 1.909a.858.858 0 0 1 .543.631l2.295 11.281a.911.911 0 0 1-.245.806l-3.8 3.678a31.532 31.532 0 0 1-1.016 5.5l2.522 5.728a.893.893 0 0 1 0 .841l-6.271 9.511a.893.893 0 0 1-.736.385l-6.253-.088a32.2 32.2 0 0 1-4.677 3.083l-1.905 4.923a.859.859 0 0 1-.648.543l-11.281 2.382zm-9.862-7.007a.634.634 0 0 1 .245 0 29.178 29.178 0 0 0 5.8 1.068.981.981 0 0 1 .561.263l3.5 3.678 10.335-2.084 1.857-4.8a.963.963 0 0 1 .42-.455 28.112 28.112 0 0 0 4.922-3.241.823.823 0 0 1 .578-.193l6.078.088 5.815-8.758-2.452-5.57a.877.877 0 0 1 0-.6 30.63 30.63 0 0 0 1.068-5.8.893.893 0 0 1 .263-.561l3.679-3.5-2.084-10.335-4.782-1.857a.858.858 0 0 1-.473-.42 28.783 28.783 0 0 0-3.241-4.922.911.911 0 0 1-.193-.561v-6.1l-8.758-5.815-5.553 2.452a.912.912 0 0 1-.613 0 29.78 29.78 0 0 0-5.815-1.068.981.981 0 0 1-.561-.263l-3.5-3.678-10.335 2.1-1.839 4.87a.894.894 0 0 1-.4.473 27.922 27.922 0 0 0-4.94 3.241.753.753 0 0 1-.561.193l-6.078-.088-5.833 8.758 2.452 5.57a.876.876 0 0 1 0 .753 30.014 30.014 0 0 0-1.016 5.658.876.876 0 0 1-.263.561l-3.678 3.5 2.1 10.335 4.764 1.857a.964.964 0 0 1 .49.455 28.413 28.413 0 0 0 3.223 4.887.84.84 0 0 1 .193.56v6.1l8.758 5.815 5.57-2.452a.913.913 0 0 1 .295-.114zm8.6-5.675a23.332 23.332 0 0 1-19.426-36.224 23.349 23.349 0 1 1 19.426 36.224zm-17.954-35.26a21.493 21.493 0 1 0 13.7-9.264 21.58 21.58 0 0 0-13.702 9.263z" class="cls-8" transform="translate(36.304 -46.967)"/>
            <path id="Path_20985" d="M510.7 294.8l-27.5-3.713 18.182-136.3-53.04-7.147-128.661 118.446-6.761 50.675 110.861 14.959-5.535 41.461 53.04 7.147 5.535-41.444 27.5 3.713zm-139.117-18.782l67.894-61.886-9.319 69.785z" class="cls-6" transform="translate(110.575 -63.074)"/>
            <path id="Path_20986" d="M394.534 376.647h-.228a.876.876 0 0 1-.7-1.016l40.988-224.1a.893.893 0 0 1 1.016-.7.876.876 0 0 1 .7 1.016l-40.9 224.087a.893.893 0 0 1-.876.713z" class="cls-5" transform="translate(171.211 -60.688)"/>
            <path id="Path_20987" d="M416.063 154.009a1.437 1.437 0 1 1-1.384-1.489 1.437 1.437 0 0 1 1.384 1.489z" class="cls-5" transform="translate(185.942 -59.406)"/>
            <path id="Path_20988" d="M412.732 171.309a1.436 1.436 0 1 1-.383-1.031 1.436 1.436 0 0 1 .383 1.031z" class="cls-5" transform="translate(183.44 -46.403)"/>
            <path id="Path_20989" d="M409.4 188.639a1.436 1.436 0 0 1-1.489 1.384 1.419 1.419 0 0 1-1.384-1.471 1.437 1.437 0 0 1 1.489-1.4 1.454 1.454 0 0 1 1.384 1.487z" class="cls-5" transform="translate(180.936 -33.377)"/>
            <path id="Path_20990" d="M402.839 206.684a1.436 1.436 0 1 1-.664-1.375 1.436 1.436 0 0 1 .664 1.375z" class="cls-5" transform="translate(176.009 -19.892)"/>
            <path id="Path_20991" d="M402.732 223.208a1.419 1.419 0 0 1-1.489 1.384 1.436 1.436 0 1 1 1.489-1.384z" class="cls-5" transform="translate(175.923 -7.391)"/>
            <path id="Path_20992" d="M399.4 240.5a1.436 1.436 0 1 1-1.384-1.471 1.436 1.436 0 0 1 1.384 1.471z" class="cls-5" transform="translate(173.42 5.619)"/>
            <path id="Path_20993" d="M396.073 257.805a1.454 1.454 0 0 1-1.489 1.4 1.441 1.441 0 1 1 1.489-1.4z" class="cls-5" transform="translate(170.916 18.618)"/>
            <path id="Path_20994" d="M392.732 275.119a1.436 1.436 0 1 1-1.384-1.489 1.419 1.419 0 0 1 1.384 1.489z" class="cls-5" transform="translate(168.407 31.625)"/>
            <path id="Path_20995" d="M401.16 207.6a.858.858 0 0 1-.841-.683.876.876 0 0 1 .666-1.051l4.344-.928a.878.878 0 1 1 .368 1.717l-4.344.928z" class="cls-5" transform="translate(176.251 -20.021)"/>
            <path id="Path_20996" d="M411.929 197.24a149 149 0 0 0-5.255 16.4c-1.314 6.183-1.384 20.021-1.384 20.021" class="cls-5" transform="translate(180.004 -25.792)"/>
            <path id="Path_20997" d="M405.666 234.934a.911.911 0 0 1-.876-.893c0-.56.105-14.013 1.419-20.179a147.518 147.518 0 0 1 5.255-16.535.876.876 0 1 1 1.629.631 147.815 147.815 0 0 0-5.255 16.273c-1.279 6.026-1.366 19.689-1.384 19.829a.876.876 0 0 1-.788.874z" class="cls-5" transform="translate(179.628 -26.194)"/>
        </g>
        <path id="Path_21007" d="M336.876 316.475a.426.426 0 0 1-.186 0 .651.651 0 0 1-.452-.824c1.768-6.168 3.7-9.93 6.235-11.964a6.887 6.887 0 0 1 .213-4.334 8.575 8.575 0 0 1 3.137-3.988 3.377 3.377 0 0 1-.784-3.164 8.215 8.215 0 0 1 2.845-4.2 2.978 2.978 0 0 1-.758-2.007c0-3.988 7.325-10 15.633-11.14a.671.671 0 0 1 .186 1.329c-7.9 1.077-14.517 6.793-14.49 9.811a1.741 1.741 0 0 0 .479 1.21 16.272 16.272 0 0 1 12.337-2.486c4.081.784 5.743 1.648 5.557 2.885-.372 2.326-9.053 2.818-14.876 2.127a8.217 8.217 0 0 1-2.991-.864 7.151 7.151 0 0 0-2.659 3.629 2.087 2.087 0 0 0 .651 2.18c2.473-1.329 5.942-1.808 10.529-.8 6.022 1.329 6.248 2.061 6.394 2.5a.89.89 0 0 1-.226.891c-1.263 1.329-10.5.7-15.142-.439a6.524 6.524 0 0 1-1.609-.6 7.245 7.245 0 0 0-3 3.6 5.624 5.624 0 0 0-.306 3.058 7.65 7.65 0 0 1 .731-.386c2.752-1.329 6.075-1.09 10.183.665 2.659 1.157 3.988 2.194 4.121 3.244a1.489 1.489 0 0 1-.758 1.329c-2.034 1.329-9.133 1.143-12.829-.824a5.317 5.317 0 0 1-2.047-1.981c-2.167 1.994-3.922 5.544-5.517 11.114a.678.678 0 0 1-.6.425zm7.205-12.4a3.989 3.989 0 0 0 1.622 1.622c3 1.6 8.907 1.954 11.114 1.063.452-.186.518-.332.518-.332s-.066-.744-3.323-2.14c-3.722-1.6-6.647-1.821-9.08-.691a7.7 7.7 0 0 0-.851.478zm4.44-8.734l.332.093a43.99 43.99 0 0 0 13.214 1 28.852 28.852 0 0 0-4.839-1.329 15.128 15.128 0 0 0-8.707.239zm1.675-7.471a7.872 7.872 0 0 0 1.9.425c6.647.784 12.483-.133 13.294-.971-.226-.2-1.117-.771-4.414-1.4a14.956 14.956 0 0 0-10.776 1.942z" class="cls-5" transform="rotate(8 -750.256 5565.377)"/>
        <path id="Path_21008" d="M224.992 408.858c.877-.279.585-1.13-.4-1.13h-18c-34.271-3.629-58.214 1.236-43.125 2.38s-1.063.9-12.084 5.078 81.956 5.224 90.4 0c7.763-4.813-28.941-2.433-16.791-6.328z" class="cls-5" transform="translate(677.556 263.707)"/>
        <path id="Path_21032" d="M219.67 400.95a1.09 1.09 0 1 1-1.09-1.09 1.09 1.09 0 0 1 1.09 1.09z" class="cls-5" transform="translate(699.628 261.551)"/>
        <path id="Path_21033" d="M227.18 406.86a1.09 1.09 0 1 1-1.09-1.09 1.09 1.09 0 0 1 1.09 1.09z" class="cls-5" transform="translate(702.102 263.498)"/>
        <g id="freepik--robot-parts--inject-3" transform="translate(727.795 668.773)">
            <path id="Path_21034" d="M84.959 420.05a12.789 12.789 0 0 1-9.744-5.251.665.665 0 1 1 1.09-.758c2.486 3.589 7.976 5.49 10.369 4.36a1.73 1.73 0 0 0 .625-.452 8.043 8.043 0 0 1-4.679-5.956c-.306-1.688-.545-3.988.838-4.281 1.914-.425 4.414 4.188 5.318 7.684a5.025 5.025 0 0 1 .173 1.781 5.663 5.663 0 0 0 2.366.186 2.579 2.579 0 0 0 1.835-.984 7.791 7.791 0 0 1-3.071-5.57c-.505-3.642-.12-4.267.279-4.586a.878.878 0 0 1 .917-.093c1.422.6 3.137 5.756 3.47 8.681a3.537 3.537 0 0 1 0 .917 5.2 5.2 0 0 0 1.795.346 5.7 5.7 0 0 0 3.2-.838c-.186-.12-.359-.253-.532-.386-1.329-1.183-1.941-3.071-1.7-5.756.186-2.087.651-3.23 1.489-3.589a1.5 1.5 0 0 1 1.609.319 9.2 9.2 0 0 1 2.3 7.391 3.987 3.987 0 0 1-.678 1.529c2.446.426 5.876-.266 8.84-1a.684.684 0 1 1 .319 1.329c-3.6.891-7.484 1.622-10.223.824a7.564 7.564 0 0 1-4.653 1.542 6.423 6.423 0 0 1-2.18-.412 3.723 3.723 0 0 1-2.818 1.688 7.086 7.086 0 0 1-2.978-.253 2.937 2.937 0 0 1-1.329 1.183 5.532 5.532 0 0 1-2.247.405zm-1.143-11.007a5.743 5.743 0 0 0 .106 2.725 6.713 6.713 0 0 0 3.775 4.919 4.267 4.267 0 0 0-.16-.931c-1.037-3.802-3.03-6.421-3.721-6.713zm7.4-1.157a18.865 18.865 0 0 0 .226 2.738 6.887 6.887 0 0 0 2.021 4.281 20.9 20.9 0 0 0-2.247-7.019zm8.362-1.157s-.505.253-.691 2.473.2 3.749 1.236 4.639a4.072 4.072 0 0 0 .8.505 2.977 2.977 0 0 0 .718-1.329 8.322 8.322 0 0 0-1.582-5.889c-.279-.346-.439-.4-.479-.4z" class="cls-5" transform="translate(-75.075 -405.399)"/>
            <path id="Path_21035" d="M229.825 427.076l3.6-6.248-3.6-6.248h-3.855l2.18 6.248-2.18 6.248z" class="cls-5" transform="translate(-25.373 -402.375)"/>
            <path id="Path_21036" d="M228.08 423.644a3.257 3.257 0 1 1 0-6.5l-6.115-1.223-1.635 4.945 2.738 4.174z" class="cls-5" transform="translate(-27.231 -401.933)"/>
            <path id="Path_21037" d="M229.241 414.58h-7.219l-3.6 6.248 3.6 6.248h7.219l3.6-6.248zm-3.6 9.505a3.257 3.257 0 1 1 3.244-3.257 3.257 3.257 0 0 1-3.244 3.257z" class="cls-6" transform="translate(-27.86 -402.375)"/>
            <path id="Path_21038" d="M418.552 416.559l-2.672-4.64 2.672-4.639h2.858l-1.609 4.639 1.609 4.64z" class="cls-6" transform="translate(37.179 -404.779)"/>
            <path id="Path_21039" d="M419.9 414.01a2.42 2.42 0 1 0 0-4.826l4.546-.9 1.21 3.669-2.021 3.1z" class="cls-6" transform="translate(38.503 -404.45)"/>
            <path id="Path_21040" d="M420.269 407.28h5.318l2.659 4.639-2.659 4.64h-5.318l-2.659-4.64zm2.659 7.059a2.423 2.423 0 1 1 .013 0z" class="cls-5" transform="translate(37.749 -404.779)"/>
            <path id="Path_21041" d="M343.7 420.31h6.009a2.845 2.845 0 0 0 2.832-2.845 2.845 2.845 0 0 0-2.832-2.845H343.7a2.845 2.845 0 0 0-2.845 2.845 2.845 2.845 0 0 0 2.845 2.845z" class="cls-5" transform="translate(12.469 -402.361)"/>
            <path id="Path_21042" d="M335.894 415.622a5.929 5.929 0 1 1 2.659 8.215 6.128 6.128 0 0 1-2.659-8.215z" class="cls-6" transform="translate(10.615 -403.044)"/>
            <path id="Rectangle_1202" d="M0 0H1.821V13.427H0z" class="cls-5" transform="rotate(-154.76 177.303 -28.372)"/>
        </g>
        <g id="Group_9603" transform="rotate(79.98 232.99 863.619)">
            <path id="Path_21842" fill="#f8c81e" fill-rule="evenodd" stroke="#04072e" stroke-miterlimit="10" stroke-width="4px" d="M433.343 109.317a75.087 75.087 0 0 0-39.2 65.82l.046 55.143a75.1 75.1 0 0 0 74.927 74.845 75.1 75.1 0 0 0 74.845-74.925l-.046-55.143a75.1 75.1 0 0 0-74.927-74.845 74.5 74.5 0 0 0-15.1 1.546" transform="translate(-379.249 -46.687)"/>
            <path id="Path_21845" d="M420.525 128.56a15.5 15.5 0 1 0 15.512 15.493 15.5 15.5 0 0 0-15.512-15.493z" class="cls-10" transform="translate(-367.299 -15.578)"/>
            <path id="Path_21846" d="M455.378 128.541a15.5 15.5 0 1 0 15.508 15.491 15.5 15.5 0 0 0-15.508-15.491z" class="cls-10" transform="translate(-329.059 -15.598)"/>
            <path id="Path_21847" d="M416.646 132.165a7.953 7.953 0 0 0-7.559 10.367 5.021 5.021 0 0 1 8.289 5.478 7.939 7.939 0 0 0 6.615-10.923c-.1.01-.2.015-.306.017a2.694 2.694 0 0 1-2.693-2.7 2.612 2.612 0 0 1 .136-.86 7.9 7.9 0 0 0-4.482-1.384z" class="cls-11" transform="translate(-363.263 -11.622)"/>
            <path id="Path_21848" fill="#313131" fill-rule="evenodd" d="M451.352 132.146a7.941 7.941 0 0 0-7.934 7.945 7.861 7.861 0 0 0 .2 1.76 5.018 5.018 0 0 1 7.55 6.17h.2a7.939 7.939 0 0 0 7.242-11.177 2.7 2.7 0 0 1-3.809-2.456 2.729 2.729 0 0 1 .329-1.294 7.912 7.912 0 0 0-3.773-.95z" transform="translate(-325.18 -11.643)"/>
            <path id="Path_21849" d="M397.722 120.625a54.117 54.117 0 0 0 12.03 7.84C395.6 117 397.393 108.836 402.271 86.789c.327-1.477.657-3 1.405-6.476l1.177-5.623 2.714 5.1a3.325 3.325 0 0 1 .281.459c1.185 1.69 7.284 8.658 29.3 11.109 13.228 1.472 24.832 2.817 33.286 3.962 8.821 1.177 14.6 2.162 15.8 2.982a116.207 116.207 0 0 1 10.054 9.652 8.961 8.961 0 0 0-.409-2.842c-.785-2.775-2.76-6.514-6.6-12.045l-2.561-3.687 4.635.751c7.4 1.16 12.712 3.368 16.7 6.344a29.3 29.3 0 0 1 8.752 10.807 49.376 49.376 0 0 1 2.97 7.208 52.636 52.636 0 0 0 1.4-7.108l.573-4.606 3.2 3.593a63.9 63.9 0 0 1 10.1 14.451 36.066 36.066 0 0 1 3.635 16.9l-.006.1-.009.1c-.442 3.188 4.792 13.714 5.187 25.646.466 14.075-4.4 31.665-4.4 31.665l-15.675-33.737c0-.048-5.715-1.552-7.093-4.178a37.355 37.355 0 0 0-8.784-9.746c-2.634-2.047-5.621-3.637-8.609-3.872-8.807-.69-21.258.709-30.3 1.745h-.052l-.428.063-.411-.13c-4.442-1.219-9.708-2.649-14.939-3.882a101.617 101.617 0 0 0-14.778-2.563c-2.989-.233-6.187.872-9.109 2.483a36.49 36.49 0 0 0-10.193 8.259c-1.77 2.38-21.363 24.1-21.363 24.1s4.209-7.376 2.993-9.36c-6.562-10.491-5.854-21.29-6.577-42.366l-.153-4.759z" transform="translate(-379.433 -74.69)"/>
            <path id="Line_515" fill="none" stroke="#000" stroke-linecap="round" stroke-width="5px" d="M0 0L49.24 8.682" transform="translate(81.315 180.536)"/>
            <path id="Path_21843" d="M465.131 149.006c.43-12.307 12.865-12.315 13.31-.006 3.108 35.56 57.037 39 63.136 5.606 1.13-6.187 2.68-17.141 10.348-18.345v-8.507c-13.3-.289-25.873-4.365-39.037-4-17.668.51-23.679 8.328-41.105 9.574-17.427-1.225-23.446-9.037-41.116-9.526-13.165-.359-25.732 3.731-39.031 4.035v8.507c7.67 1.2 9.233 12.148 10.367 18.335 6.141 33.389 60.063 29.887 63.131-5.677zm18.454-.275c-.4-8.847.954-12.5 9.524-15.394 6.54-2.206 12.838-4.13 19.82-4.329 19.012-.549 27.131 4.159 23.383 24.654-5.015 27.437-49.977 24.316-52.727-4.931zm-23.585-.12c-2.729 29.384-47.689 32.555-52.733 5.12-3.769-20.489 4.343-25.206 23.356-24.679 6.986.193 13.284 2.108 19.826 4.31 8.572 2.888 9.929 6.535 9.551 15.25z" class="cls-11" transform="rotate(-23 229.291 1078.408)"/>
        </g>
    </g>
</svg>
