<svg width="43" height="43" viewBox="0 0 43 43" fill="none" xmlns="http://www.w3.org/2000/svg">
    <circle cx="21.119" cy="21.536" r="20.998" fill="url(#h0j9i8rj8a)"/>
    <path d="M31.122 27.172h-20.14c.923 0 1.445-.483 1.74-1.284 1.433-3.864-2.383-15.127 8.33-15.127 10.713 0 6.896 11.263 8.33 15.127.296.8.818 1.284 1.74 1.284z" fill="#F7C71E"/>
    <path d="M33.072 29.121a1.95 1.95 0 0 1-1.95 1.95h-20.14a1.944 1.944 0 0 1-1.38-.57 1.95 1.95 0 0 1 1.379-3.329h20.141c.538 0 1.026.218 1.379.57.353.353.57.84.57 1.38z" fill="#D6A703"/>
    <path d="M29.381 25.888H18.913a1.998 1.998 0 0 1-1.996-2.062c.148-4.773-.613-12.974 4.057-13.064-12.82.066-4.625 16.41-9.992 16.41h20.14c-.922 0-1.444-.483-1.74-1.284z" fill="#D6A703"/>
    <path d="M33.072 29.121a1.95 1.95 0 0 1-1.95 1.95H16.616a1.944 1.944 0 0 1-1.378-.57 1.95 1.95 0 0 1 1.379-3.329h14.505c.538 0 1.026.218 1.379.57.353.353.57.84.57 1.38z" fill="#F7C71E"/>
    <path d="M24.952 31.071a3.902 3.902 0 0 1-3.9 3.9 3.9 3.9 0 0 1-3.9-3.9h7.8z" fill="#D6A703"/>
    <path d="M24.763 32.274a3.91 3.91 0 0 1-2.668 2.556 3.904 3.904 0 0 1-1.99-1.305c-.406-.501-.04-1.25.606-1.25h4.052z" fill="#F7C71E"/>
    <path d="M23.034 10.91a1.988 1.988 0 1 0-3.964 0" fill="#D6A703"/>
    <path d="M31.122 26.77h-.002c-.776 0-1.215-.403-1.465-1.346-.257-.965-.265-2.363-.275-3.844-.01-1.795-.023-3.828-.469-5.647a.401.401 0 0 0-.779.191c.424 1.727.436 3.71.446 5.46.01 1.534.019 2.982.301 4.046.123.462.3.842.528 1.14h-16.71c.228-.298.404-.678.527-1.14.283-1.064.292-2.512.301-4.045.014-2.341.03-4.995.989-7.026 1.078-2.286 3.216-3.397 6.538-3.397 1.824 0 3.317.343 4.436 1.02.971.585 1.684 1.419 2.18 2.546a.4.4 0 1 0 .734-.322c-.557-1.267-1.397-2.246-2.499-2.912-.703-.424-1.53-.73-2.47-.917a2.392 2.392 0 0 0-2.381-2.205 2.391 2.391 0 0 0-2.38 2.205c-.898.178-1.692.464-2.372.859-1.096.635-1.94 1.57-2.512 2.781-1.033 2.19-1.05 4.938-1.065 7.363-.009 1.48-.017 2.88-.274 3.844-.25.943-.69 1.346-1.466 1.346h-.001a2.354 2.354 0 0 0-2.351 2.351 2.354 2.354 0 0 0 2.35 2.351h2.539a.401.401 0 0 0 0-.802h-2.538c-.854 0-1.55-.695-1.55-1.549a1.55 1.55 0 0 1 1.55-1.549h20.14c.854 0 1.549.695 1.549 1.55 0 .854-.695 1.549-1.55 1.549H15.125a.4.4 0 1 0 0 .801h1.646a4.306 4.306 0 0 0 4.282 3.9 4.306 4.306 0 0 0 4.282-3.9h5.788a2.354 2.354 0 0 0 2.351-2.35 2.354 2.354 0 0 0-2.351-2.352zM21.052 9.174c.768 0 1.41.549 1.556 1.274a13.274 13.274 0 0 0-1.556-.088c-.545 0-1.064.03-1.556.088a1.59 1.59 0 0 1 1.556-1.274zm0 25.397a3.504 3.504 0 0 1-3.476-3.099h6.951a3.504 3.504 0 0 1-3.475 3.099z" fill="#000"/>
    <defs>
        <linearGradient id="h0j9i8rj8a" x1="6.944" y1="4.323" x2="35.969" y2="39.086" gradientUnits="userSpaceOnUse">
            <stop stop-color="#fff"/>
            <stop offset="1" stop-color="#fff"/>
        </linearGradient>
    </defs>
</svg>
