<svg xmlns="http://www.w3.org/2000/svg" width="315.797" height="234.686" viewBox="0 0 315.797 234.686">
    <defs>
        <style>
            .cls-1{fill:#e2eefe}.cls-2{fill:#ebebeb}.cls-3{fill:#fafafa}.cls-4{fill:#f0f0f0}.cls-5{fill:#f5f5f5}.cls-8{fill:#e0e0e0}.cls-7{fill:#e6e6e6}.cls-9{fill:#fff}.cls-10{fill:#263238}.cls-11{fill:#ffc727}.cls-12{fill:#e1f1fb}.cls-13{fill:#407bff}.cls-15{fill:#cc9f1f}.cls-16{fill:#7899cb}.cls-17{opacity:.2}.cls-18{fill:#f7a9a0}.cls-19{fill:#37474f}
        </style>
    </defs>
    <g id="Group_9676" transform="translate(-11.957 -177.53)">
        <path id="Path_22789" d="M253.06 438.962c0 5.727-45.075 10.368-100.685 10.368S51.69 444.7 51.69 438.962s45.075-10.352 100.685-10.352 100.685 4.641 100.685 10.352z" class="cls-1" transform="translate(9.933 -55.076)"/>
        <path id="Path_22790" d="M253.06 438.962c0 5.727-45.075 10.368-100.685 10.368S51.69 444.7 51.69 438.962s45.075-10.352 100.685-10.352 100.685 4.641 100.685 10.352z" class="cls-1" transform="translate(60.038 -37.114)"/>
        <g id="Background_Complete" transform="translate(11.957 153.5)">
            <g id="Group_3">
                <g id="Group_1">
                    <path id="Rectangle_1" d="M0 0H315.797V0.158H0z" class="cls-2" transform="translate(0 206.813)"/>
                </g>
                <g id="Group_2" transform="translate(33.133 211.114)">
                    <path id="Rectangle_2" d="M0 0H16.42V0.158H0z" class="cls-2" transform="translate(234.602 5.865)"/>
                    <path id="Rectangle_3" d="M0 0H28.439V0.158H0z" class="cls-2" transform="translate(163.293 7.579)"/>
                    <path id="Rectangle_4" d="M0 0H38.396V0.158H0z" class="cls-2" transform="translate(195.574)"/>
                    <path id="Rectangle_5" d="M0 0H12.148V0.158H0z" class="cls-2" transform="translate(0 1.061)"/>
                    <path id="Rectangle_6" d="M0 0H34.922V0.158H0z" class="cls-2" transform="translate(17.772 1.061)"/>
                    <path id="Rectangle_7" d="M0 0H47.033V0.158H0z" class="cls-2" transform="translate(74.028 3.728)"/>
                </g>
            </g>
            <g id="Group_12" transform="translate(29.204 24.03)">
                <g id="Group_4" transform="translate(0 63.288)">
                    <path id="Rectangle_8" d="M0 0H13.391V46.343H0z" class="cls-3" transform="translate(0 73.151)"/>
                    <path id="Rectangle_9" d="M0 0H13.391V36.178H0z" class="cls-3" transform="translate(11.726 83.317)"/>
                    <path id="Rectangle_10" d="M0 0H13.391V65.991H0z" class="cls-3" transform="translate(20.289 53.504)"/>
                    <path id="Rectangle_11" d="M0 0H13.391V119.495H0z" class="cls-3" transform="translate(29.188)"/>
                    <path id="Rectangle_12" d="M0 0H35.933V110.194H0z" class="cls-3" transform="translate(39.767 9.301)"/>
                </g>
                <g id="Group_5" transform="translate(182.047 100.998)">
                    <path id="Rectangle_13" d="M0 0H15.299V31.718H0z" class="cls-3" transform="rotate(180 24.324 40.892)"/>
                    <path id="Rectangle_14" d="M0 0H15.299V24.761H0z" class="cls-3" transform="rotate(180 17.625 40.892)"/>
                    <path id="Rectangle_15" d="M0 0H15.299V45.166H0z" class="cls-3" transform="rotate(180 12.733 40.892)"/>
                    <path id="Rectangle_16" d="M0 0H15.299V81.785H0z" class="cls-3" transform="rotate(180 7.65 40.892)"/>
                </g>
                <g id="Group_11" transform="translate(33.037)">
                    <g id="Group_7" transform="translate(110.29 82.873)">
                        <path id="Rectangle_17" d="M0 0H46.948V99.909H0z" class="cls-4"/>
                        <g id="Group_6" transform="translate(8.555 4.187)">
                            <path id="Rectangle_18" d="M0 0H2.236V12.158H0z" class="cls-5" transform="translate(31.686)"/>
                            <path id="Rectangle_19" d="M0 0H2.236V12.158H0z" class="cls-5" transform="translate(31.686 19.013)"/>
                            <path id="Rectangle_20" d="M0 0H2.236V12.158H0z" class="cls-5" transform="translate(31.686 38.026)"/>
                            <path id="Rectangle_21" d="M0 0H2.236V12.158H0z" class="cls-5" transform="translate(31.686 57.039)"/>
                            <path id="Rectangle_22" d="M0 0H2.236V12.158H0z" class="cls-5" transform="translate(31.686 76.052)"/>
                            <path id="Rectangle_23" d="M0 0H2.236V12.158H0z" class="cls-5" transform="translate(23.764)"/>
                            <path id="Rectangle_24" d="M0 0H2.236V12.158H0z" class="cls-5" transform="translate(23.764 19.013)"/>
                            <path id="Rectangle_25" d="M0 0H2.236V12.158H0z" class="cls-5" transform="translate(23.764 38.026)"/>
                            <path id="Rectangle_26" d="M0 0H2.236V12.158H0z" class="cls-5" transform="translate(23.764 57.039)"/>
                            <path id="Rectangle_27" d="M0 0H2.236V12.158H0z" class="cls-5" transform="translate(23.764 76.052)"/>
                            <path id="Rectangle_28" d="M0 0H2.236V12.158H0z" class="cls-5" transform="translate(15.843)"/>
                            <path id="Rectangle_29" d="M0 0H2.236V12.158H0z" class="cls-5" transform="translate(15.843 19.013)"/>
                            <path id="Rectangle_30" d="M0 0H2.236V12.158H0z" class="cls-5" transform="translate(15.843 38.026)"/>
                            <path id="Rectangle_31" d="M0 0H2.236V12.158H0z" class="cls-5" transform="translate(15.843 57.039)"/>
                            <path id="Rectangle_32" d="M0 0H2.236V12.158H0z" class="cls-5" transform="translate(15.843 76.052)"/>
                            <path id="Rectangle_33" d="M0 0H2.236V12.158H0z" class="cls-5" transform="translate(7.921)"/>
                            <path id="Rectangle_34" d="M0 0H2.236V12.158H0z" class="cls-5" transform="translate(7.921 19.013)"/>
                            <path id="Rectangle_35" d="M0 0H2.236V12.158H0z" class="cls-5" transform="translate(7.921 38.026)"/>
                            <path id="Rectangle_36" d="M0 0H2.236V12.158H0z" class="cls-5" transform="translate(7.921 57.039)"/>
                            <path id="Rectangle_37" d="M0 0H2.236V12.158H0z" class="cls-5" transform="translate(7.921 76.052)"/>
                            <path id="Rectangle_38" d="M0 0H2.236V12.158H0z" class="cls-5"/>
                            <path id="Rectangle_39" d="M0 0H2.236V12.158H0z" class="cls-5" transform="translate(0 19.013)"/>
                            <path id="Rectangle_40" d="M0 0H2.236V12.158H0z" class="cls-5" transform="translate(0 38.026)"/>
                            <path id="Rectangle_41" d="M0 0H2.236V12.158H0z" class="cls-5" transform="translate(0 57.039)"/>
                            <path id="Rectangle_42" d="M0 0H2.236V12.158H0z" class="cls-5" transform="translate(0 76.052)"/>
                        </g>
                        <path id="Path_3" fill="#e0e0e0" d="M273.168 224.213h9.673l4.206 99.909h-13.879z" opacity="0.5" transform="translate(-273.168 -224.213)"/>
                    </g>
                    <g id="Group_8" transform="translate(64.938 44.269)">
                        <path id="Path_4" d="M236.628 163.09l27.842 5.269V301.6h-27.842z" class="cls-4" transform="translate(-214.355 -163.09)"/>
                        <path id="Rectangle_43" d="M0 0H22.273V138.514H0z" class="cls-7"/>
                        <path id="Rectangle_44" d="M0 0H50.115V0.71H0z" class="cls-8" transform="rotate(180 25.058 6.093)"/>
                        <path id="Rectangle_45" d="M0 0H50.115V0.71H0z" class="cls-8" transform="rotate(180 25.058 9.864)"/>
                        <path id="Rectangle_46" d="M0 0H50.115V0.709H0z" class="cls-8" transform="rotate(180 25.058 13.635)"/>
                        <path id="Rectangle_47" d="M0 0H50.115V0.71H0z" class="cls-8" transform="rotate(180 25.058 17.406)"/>
                        <path id="Rectangle_48" d="M0 0H50.115V0.709H0z" class="cls-8" transform="rotate(180 25.058 21.177)"/>
                        <path id="Rectangle_49" d="M0 0H50.115V0.71H0z" class="cls-8" transform="rotate(180 25.058 24.948)"/>
                        <path id="Rectangle_50" d="M0 0H50.115V0.71H0z" class="cls-8" transform="rotate(180 25.058 28.72)"/>
                        <path id="Rectangle_51" d="M0 0H50.115V0.709H0z" class="cls-8" transform="rotate(180 25.057 32.49)"/>
                        <path id="Rectangle_52" d="M0 0H50.115V0.71H0z" class="cls-8" transform="rotate(180 25.057 36.261)"/>
                        <path id="Rectangle_53" d="M0 0H50.115V0.709H0z" class="cls-8" transform="rotate(180 25.057 40.032)"/>
                        <path id="Rectangle_54" d="M0 0H50.115V0.71H0z" class="cls-8" transform="rotate(180 25.057 43.803)"/>
                        <path id="Rectangle_55" d="M0 0H50.115V0.71H0z" class="cls-8" transform="rotate(180 25.057 47.575)"/>
                        <path id="Rectangle_56" d="M0 0H50.115V0.709H0z" class="cls-8" transform="rotate(180 25.057 51.346)"/>
                        <path id="Rectangle_57" d="M0 0H50.115V0.71H0z" class="cls-8" transform="rotate(180 25.057 55.117)"/>
                        <path id="Rectangle_58" d="M0 0H50.115V0.709H0z" class="cls-8" transform="rotate(180 25.057 58.888)"/>
                        <path id="Rectangle_59" d="M0 0H50.115V0.71H0z" class="cls-8" transform="rotate(180 25.057 62.658)"/>
                        <path id="Rectangle_60" d="M0 0H50.115V0.71H0z" class="cls-8" transform="rotate(180 25.057 66.43)"/>
                    </g>
                    <g id="Group_9" transform="translate(29.468)">
                        <path id="Rectangle_61" d="M0 0H23.288V167.952H0z" class="cls-4" transform="translate(0 14.831)"/>
                        <path id="Path_5" d="M168.491 107.831H145.2L153.773 93h33.348z" class="cls-3" transform="translate(-145.203 -93)"/>
                        <path id="Path_6" d="M182.074 107.831L200.7 93v182.782h-18.63z" class="cls-2" transform="translate(-158.787 -93)"/>
                        <path id="Rectangle_62" d="M0 0H41.918V0.894H0z" class="cls-8" transform="translate(0 22.656)"/>
                        <path id="Rectangle_63" d="M0 0H41.918V0.894H0z" class="cls-8" transform="translate(0 32.163)"/>
                        <path id="Rectangle_64" d="M0 0H41.918V0.894H0z" class="cls-8" transform="translate(0 41.669)"/>
                        <path id="Rectangle_65" d="M0 0H41.918V0.894H0z" class="cls-8" transform="translate(0 51.176)"/>
                        <path id="Rectangle_66" d="M0 0H41.918V0.894H0z" class="cls-8" transform="translate(0 60.682)"/>
                        <path id="Rectangle_67" d="M0 0H41.918V0.894H0z" class="cls-8" transform="translate(0 70.189)"/>
                        <path id="Rectangle_68" d="M0 0H41.918V0.894H0z" class="cls-8" transform="translate(0 79.695)"/>
                        <path id="Rectangle_69" d="M0 0H41.918V0.894H0z" class="cls-8" transform="translate(0 89.202)"/>
                        <path id="Rectangle_70" d="M0 0H41.918V0.894H0z" class="cls-8" transform="translate(0 98.708)"/>
                        <path id="Rectangle_71" d="M0 0H41.918V0.894H0z" class="cls-8" transform="translate(0 108.215)"/>
                        <path id="Rectangle_72" d="M0 0H41.918V0.894H0z" class="cls-8" transform="translate(0 117.721)"/>
                        <path id="Rectangle_73" d="M0 0H41.918V0.894H0z" class="cls-8" transform="translate(0 127.228)"/>
                        <path id="Rectangle_74" d="M0 0H41.918V0.894H0z" class="cls-8" transform="translate(0 136.734)"/>
                        <path id="Rectangle_75" d="M0 0H41.918V0.894H0z" class="cls-8" transform="translate(0 146.241)"/>
                        <path id="Rectangle_76" d="M0 0H41.918V0.894H0z" class="cls-8" transform="translate(0 155.747)"/>
                        <path id="Rectangle_77" d="M0 0H41.918V0.894H0z" class="cls-8" transform="translate(0 165.254)"/>
                        <path id="Rectangle_78" d="M0 0H41.918V0.894H0z" class="cls-8" transform="translate(0 174.76)"/>
                    </g>
                    <g id="Group_10" transform="translate(0 90.096)">
                        <path id="Rectangle_79" d="M0 0H25.421V86.681H0z" class="cls-4" transform="translate(0 6.005)"/>
                        <path id="Rectangle_80" d="M0 0H4.08V13.912H0z" class="cls-7" transform="translate(5.004 10.486)"/>
                        <path id="Rectangle_81" d="M0 0H4.08V13.912H0z" class="cls-7" transform="translate(15.012 10.486)"/>
                        <path id="Rectangle_82" d="M0 0H4.08V13.912H0z" class="cls-7" transform="translate(5.004 28.503)"/>
                        <path id="Rectangle_83" d="M0 0H4.08V13.912H0z" class="cls-7" transform="translate(15.012 28.503)"/>
                        <path id="Rectangle_84" d="M0 0H4.08V13.912H0z" class="cls-7" transform="translate(5.004 46.519)"/>
                        <path id="Rectangle_85" d="M0 0H4.08V13.912H0z" class="cls-7" transform="translate(15.012 46.519)"/>
                        <path id="Rectangle_86" d="M0 0H4.08V13.912H0z" class="cls-7" transform="translate(5.004 64.535)"/>
                        <path id="Rectangle_87" d="M0 0H4.08V13.912H0z" class="cls-7" transform="translate(15.012 64.535)"/>
                        <path id="Path_7" d="M123.967 241.654H98.546l5.963-6.005h25.421z" class="cls-9" transform="translate(-98.546 -235.648)"/>
                        <path id="Path_8" d="M138.795 241.654l5.963-6.005 5.963 6.005v86.681h-11.926z" class="cls-7" transform="translate(-113.374 -235.648)"/>
                    </g>
                </g>
            </g>
        </g>
        <g id="freepik--Device--inject-4" transform="translate(205.448 232.474)">
            <path id="Path_19242" d="M215.884 52.69h-61.322a6.261 6.261 0 0 0-6.2 6.319v126.227a6.264 6.264 0 0 0 6.2 6.319h61.322a6.271 6.271 0 0 0 6.21-6.319V59.009a6.268 6.268 0 0 0-6.21-6.319zm2.329 128.647a5.8 5.8 0 0 1-5.557 6.01H157.8a5.8 5.8 0 0 1-5.564-6.01V63.793c0-6.768 2.488-7.1 5.564-7.1h10.991c.638 0 1.161.725 1.161 1.625v.388c0 2.107 1.153 2.115 2.568 2.115h25.405c1.429 0 2.575 0 2.575-2.115v-.388c0-.9.515-1.625 1.164-1.625h10.987c3.069 0 5.557.9 5.557 7.1z" class="cls-10" transform="translate(-148.359 -52.69)"/>
            <path id="Path_19243" d="M225.019 70.828v117.544a5.8 5.8 0 0 1-5.557 6.01H164.6a5.8 5.8 0 0 1-5.564-6.01V70.828c0-6.768 2.488-7.1 5.564-7.1h10.991c.638 0 1.161.725 1.161 1.625v.388c0 2.107 1.153 2.115 2.568 2.115h25.405c1.429 0 2.575 0 2.575-2.115v-.388c0-.9.515-1.625 1.164-1.625h10.987c3.08.002 5.568.902 5.568 7.1z" class="cls-9" transform="translate(-155.166 -59.726)"/>
            <path id="Path_19244" d="M225.019 70.828v117.544a5.8 5.8 0 0 1-5.557 6.01H164.6a5.8 5.8 0 0 1-5.564-6.01V70.828c0-6.768 2.488-7.1 5.564-7.1h10.991c.638 0 1.161.725 1.161 1.625v.388c0 2.107 1.153 2.115 2.568 2.115h25.405c1.429 0 2.575 0 2.575-2.115v-.388c0-.9.515-1.625 1.164-1.625h10.987c3.08.002 5.568.902 5.568 7.1z" class="cls-9" transform="translate(-155.166 -59.726)"/>
            <path id="Path_19245" d="M224.994 70.828v10.465H159V70.828c0-6.768 2.488-7.1 5.564-7.1h10.99c.638 0 1.161.725 1.161 1.625v.388c0 2.107 1.153 2.115 2.568 2.115H204.7c1.429 0 2.575 0 2.575-2.115v-.388c0-.9.515-1.625 1.164-1.625h10.991c3.075.002 5.564.902 5.564 7.1z" class="cls-11" transform="translate(-155.14 -59.726)"/>
            <g id="freepik--u5Zjqx--inject-4" transform="translate(16.156 6.146)">
                <path id="Path_19246" d="M195.276 70.13l-.105.105c-.022 0-.04.04-.062.062a1.451 1.451 0 0 0-2.046 0l-.058-.062-.105-.105.134-.116a1.472 1.472 0 0 1 .312-.2 1.516 1.516 0 0 1 .41-.138.511.511 0 0 0 .207-.029.359.359 0 0 1 .181 0h.138a1.635 1.635 0 0 1 .363.091 1.66 1.66 0 0 1 .258.12 1.94 1.94 0 0 1 .243.17l.112.1z" class="cls-9" transform="translate(-192.9 -69.634)"/>
                <path id="Path_19247" d="M193.977 71.472c-.054-.058-.109-.112-.167-.167a1.2 1.2 0 0 1 1.708 0l-.167.167a.947.947 0 0 0-.686-.283.965.965 0 0 0-.688.283z" class="cls-9" transform="translate(-193.48 -70.473)"/>
                <path id="Path_19248" d="M195.777 72.467l-.167.167a.5.5 0 0 0-.7 0l-.167-.167a.725.725 0 0 1 1.037 0z" class="cls-9" transform="translate(-194.073 -71.3)"/>
                <path id="Path_19249" d="M196.01 73.459a.149.149 0 0 1-.149.149.152.152 0 1 1 0-.3.149.149 0 0 1 .149.152z" class="cls-9" transform="translate(-194.675 -71.974)"/>
            </g>
            <path id="Path_19250" d="M170.9 71.119a.439.439 0 1 1 .439.439.439.439 0 0 1-.439-.439z" class="cls-9" transform="translate(-162.724 -64.155)"/>
            <path id="Path_19251" d="M174.7 71.119a.439.439 0 1 1 .439.439.439.439 0 0 1-.439-.439z" class="cls-9" transform="translate(-165.146 -64.155)"/>
            <path id="Path_19252" d="M178.5 71.119a.435.435 0 1 1 .126.31.439.439 0 0 1-.126-.31z" class="cls-9" transform="translate(-167.567 -64.155)"/>
            <path id="Path_19253" d="M182.3 71.119a.435.435 0 1 1 .126.31.439.439 0 0 1-.126-.31z" class="cls-9" transform="translate(-169.989 -64.155)"/>
            <path id="Path_19254" d="M186.09 71.119a.439.439 0 1 1 .439.439.439.439 0 0 1-.439-.439z" class="cls-9" transform="translate(-172.404 -64.155)"/>
            <path id="Path_19255" d="M321.042 71.64h-3.562V70h3.562zm-3.373-.189h3.2v-1.277h-3.2z" class="cls-9" transform="translate(-256.136 -63.721)"/>
            <path id="Rectangle_886" d="M0 0H2.296V1.088H0z" class="cls-9" transform="translate(61.641 6.551)"/>
            <path id="Rectangle_887" d="M0 0H0.316V0.881H0z" class="cls-9" transform="translate(64.906 6.656)"/>
            <path id="Path_19256" d="M172.2 95.059l-1.948-1.824 1.948-1.825.3.319-1.6 1.505 1.6 1.506z" class="cls-9" transform="translate(-162.31 -77.365)"/>
            <path id="Path_19257" d="M323.845 91.41l1.948 1.824-1.948 1.824-.3-.319 1.607-1.505-1.607-1.505z" class="cls-9" transform="translate(-259.998 -77.365)"/>
            <path id="Path_19258" d="M223.46 94.175a1.2 1.2 0 0 1 1.2-1.175 1.23 1.23 0 0 1 .754.254.2.2 0 0 1 .033.261.192.192 0 0 1-.261.036.827.827 0 0 0-.526-.181.874.874 0 0 0-.588.236.809.809 0 0 0-.239.569.8.8 0 0 0 .239.569.871.871 0 0 0 .588.232.831.831 0 0 0 .526-.178.2.2 0 0 1 .261.036.2.2 0 0 1-.033.261 1.23 1.23 0 0 1-.754.254 1.19 1.19 0 0 1-1.2-1.174z" class="cls-9" transform="translate(-196.219 -78.379)"/>
            <path id="Path_19259" d="M231.461 94.961h-.794l-.16.428a.185.185 0 0 1-.167.112.189.189 0 0 1-.065 0 .185.185 0 0 1-.105-.236l.725-1.922a.189.189 0 0 1 .345 0l.725 1.922a.185.185 0 0 1-.109.236.156.156 0 0 1-.062 0 .181.181 0 0 1-.167-.112zm-.134-.363l-.265-.7-.265.7z" class="cls-9" transform="translate(-200.488 -78.526)"/>
            <path id="Path_19260" d="M236.544 93.555h-.522V95.3a.178.178 0 0 1-.178.181.181.181 0 0 1-.181-.181v-1.737h-.515a.181.181 0 0 1-.178-.185.174.174 0 0 1 .178-.178h1.4a.174.174 0 0 1 .178.178.185.185 0 0 1-.182.177z" class="cls-9" transform="translate(-203.554 -78.506)"/>
            <path id="Path_19261" d="M241.344 94.911h-.791l-.167.424a.185.185 0 0 1-.167.112.156.156 0 0 1-.062 0 .181.181 0 0 1-.109-.236l.725-1.922a.189.189 0 0 1 .363 0l.725 1.922a.181.181 0 0 1-.109.236.145.145 0 0 1-.062 0 .185.185 0 0 1-.167-.112zm-.134-.363l-.265-.7-.261.7z" class="cls-9" transform="translate(-206.783 -78.476)"/>
            <path id="Path_19262" d="M246.24 95.285v-1.934a.181.181 0 1 1 .363 0V95.1h.885a.181.181 0 0 1 0 .363h-1.066a.181.181 0 0 1-.182-.178z" class="cls-9" transform="translate(-210.736 -78.487)"/>
            <path id="Path_19263" d="M252.575 93.363a1.2 1.2 0 0 1 0 1.654 1.088 1.088 0 0 1-.78.363 1.11 1.11 0 0 1-.8-.363 1.222 1.222 0 0 1 0-1.654 1.088 1.088 0 0 1 .8-.363 1.059 1.059 0 0 1 .78.363zm-.044.827a.853.853 0 0 0-.221-.573.7.7 0 0 0-1.045 0 .835.835 0 0 0-.221.573.82.82 0 0 0 .221.569.7.7 0 0 0 1.045 0 .834.834 0 0 0 .221-.584z" class="cls-9" transform="translate(-213.561 -78.379)"/>
            <path id="Path_19264" d="M258.32 94.179a1.19 1.19 0 0 1 1.2-1.179 1.215 1.215 0 0 1 .747.254.189.189 0 1 1-.232.294.834.834 0 0 0-.515-.178.82.82 0 0 0-.588.239.78.78 0 0 0 0 1.132.816.816 0 0 0 .588.236.9.9 0 0 0 .45-.123v-.446h-.468a.189.189 0 0 1-.185-.185.185.185 0 0 1 .185-.185h.649a.185.185 0 0 1 .189.185v.784a.16.16 0 0 1-.062.08 1.211 1.211 0 0 1-.744.254 1.186 1.186 0 0 1-1.219-1.161z" class="cls-9" transform="translate(-218.435 -78.379)"/>
            <path id="Path_19265" d="M266.877 95.459a.943.943 0 0 1-.947-.943v-1.165a.181.181 0 0 1 .363 0v1.164a.584.584 0 0 0 1.164 0v-1.164a.181.181 0 0 1 .363 0v1.164a.943.943 0 0 1-.943.943z" class="cls-9" transform="translate(-223.284 -78.487)"/>
            <path id="Path_19266" d="M272.8 95.291v-1.933a.178.178 0 0 1 .181-.178h1.066a.181.181 0 0 1 .181.178.189.189 0 0 1-.181.185h-.885v.595h.762a.185.185 0 0 1 .178.181.178.178 0 0 1-.178.181h-.762v.6h.885a.181.181 0 0 1 0 .363h-1.059a.181.181 0 0 1-.189-.174z" class="cls-9" transform="translate(-227.663 -78.493)"/>
            <path id="Path_19267" d="M246.62 66.346h-6.932a.428.428 0 0 1-.428-.428.428.428 0 0 1 .428-.428h6.932a.428.428 0 0 1 .428.428.428.428 0 0 1-.428.428z" class="cls-9" transform="translate(-206.288 -60.847)"/>
            <path id="Rectangle_888" d="M0 0H24.473V19.823H0z" class="cls-11" transform="translate(9.83 114.834)"/>
            <path id="Rectangle_889" d="M0 0H24.473V19.823H0z" class="cls-12" transform="translate(39.432 114.834)"/>
            <path id="Rectangle_890" d="M0 0H24.473V24.473H0z" class="cls-12" transform="translate(9.83 78.167)"/>
            <path id="Rectangle_891" d="M0 0H24.473V24.473H0z" class="cls-12" transform="translate(39.432 78.167)"/>
            <path id="Rectangle_892" d="M0 0H24.473V24.473H0z" class="cls-12" transform="translate(39.432 41.499)"/>
            <path id="Rectangle_893" d="M0 0H24.473V24.473H0z" class="cls-12" transform="translate(9.83 41.499)"/>
        </g>
        <g id="Car" transform="translate(60.448 277.753)">
            <g id="Group_23">
                <g id="Group_17" transform="translate(91.122 50.142)">
                    <path id="Path_14" d="M330.912 365.318H221.049v-34.247h96.845l9.036 7.344a10.781 10.781 0 0 1 3.982 8.367z" class="cls-13" transform="translate(-221.049 -331.071)"/>
                    <path id="Path_15" fill="#cc9f1f" d="M330.912 365.318H221.049v-34.247h96.845l9.036 7.344a10.781 10.781 0 0 1 3.982 8.367z" opacity="0.5" transform="translate(-221.049 -331.071)"/>
                </g>
                <g id="Group_18" transform="translate(77.063 58.668)">
                    <path id="Path_16" d="M212.217 367.2c0-12.5 5.667-22.633 12.658-22.633h-13.428c-6.99 0-12.658 10.133-12.658 22.633s5.667 22.632 12.658 22.632h13.428c-6.991.003-12.658-10.132-12.658-22.632z" class="cls-10" transform="translate(-198.789 -344.571)"/>
                    <ellipse id="Ellipse_1" cx="12.658" cy="22.632" class="cls-10" rx="12.658" ry="22.632" transform="translate(13.428)"/>
                    <ellipse id="Ellipse_2" cx="8.974" cy="17.648" class="cls-9" rx="8.974" ry="17.648" transform="translate(18.13 4.984)"/>
                </g>
                <g id="Group_19" transform="translate(4.105 58.668)">
                    <path id="Path_17" d="M96.7 367.2c0-12.5 5.667-22.633 12.658-22.633H95.934c-6.99 0-12.658 10.133-12.658 22.633s5.667 22.632 12.658 22.632h13.428C102.371 389.835 96.7 379.7 96.7 367.2z" class="cls-10" transform="translate(-83.276 -344.571)"/>
                    <ellipse id="Ellipse_3" cx="12.658" cy="22.632" class="cls-10" rx="12.658" ry="22.632" transform="translate(13.428)"/>
                </g>
                <g id="Group_20" transform="translate(163.802 58.668)">
                    <path id="Path_18" d="M349.551 367.2c0-12.5 5.667-22.633 12.657-22.633h-13.427c-6.991 0-12.658 10.133-12.658 22.633s5.667 22.632 12.658 22.632h13.427c-6.991.003-12.657-10.132-12.657-22.632z" class="cls-10" transform="translate(-336.123 -344.571)"/>
                    <ellipse id="Ellipse_4" cx="12.658" cy="22.632" class="cls-10" rx="12.658" ry="22.632" transform="translate(13.427)"/>
                    <ellipse id="Ellipse_5" cx="8.974" cy="17.648" class="cls-9" rx="8.974" ry="17.648" transform="translate(18.129 4.984)"/>
                </g>
                <g id="Group_21" transform="translate(0 65.16)">
                    <path id="Path_19" d="M152.308 377.306h-16.235l-.906-.907a4.991 4.991 0 0 0-3.529-1.461H91.054a4.991 4.991 0 0 0-3.529 1.461l-.551.551h-1.48a8.717 8.717 0 0 1-8.717-8.717v-13.384h92.1l-7.339 15.931a9.8 9.8 0 0 1-9.23 6.526z" class="cls-13" transform="translate(-76.776 -354.849)"/>
                    <path id="Path_20" d="M152.308 377.306h-16.235l-.906-.907a4.991 4.991 0 0 0-3.529-1.461H91.054a4.991 4.991 0 0 0-3.529 1.461l-.551.551h-1.48a8.717 8.717 0 0 1-8.717-8.717v-13.384h92.1l-7.339 15.931a9.8 9.8 0 0 1-9.23 6.526z" class="cls-15" transform="translate(-76.776 -354.849)"/>
                </g>
                <path id="Path_21" d="M347.976 259.893a.31.31 0 0 1-.159-.044.315.315 0 0 1-.113-.431l4.421-7.579a.316.316 0 1 1 .545.318l-4.421 7.579a.316.316 0 0 1-.273.157z" class="cls-10" transform="translate(-176.571 -251.682)"/>
                <path id="Path_22" d="M331.092 298.873v-8.614c0-4.527-6.581-25.9-15.634-29.9s-30.948-5.79-44.738-5.053-32.186 29.579-32.186 29.579l2 24.808c2.8 0 11.731-.843 13.041 23.7a6.749 6.749 0 0 0 6.729 6.4h48.289a6.733 6.733 0 0 0 6.671-5.789c1.239-8.746 4.56-24.321 12.509-24.321 5.579 0 9.579 4.776 9.579 10.25a37.108 37.108 0 0 0-4.261-17.265z" class="cls-11" transform="translate(-136.369 -252.959)"/>
                <g id="Group_22" transform="translate(30.243 2.352)">
                    <path id="Path_23" d="M178.241 255.4c-25.124 0-53.581 29.579-53.581 29.579h71.922s18.4-28.843 32.186-29.579z" class="cls-11" transform="translate(-124.66 -255.405)"/>
                    <path id="Path_24" d="M179.1 255.4c-19.654 0-40.264 19.492-46.274 25.638a1.078 1.078 0 0 0 .771 1.833h53.883a13.79 13.79 0 0 0 11.123-5.618c5.792-7.895 16.957-21.371 25.993-21.853z" class="cls-16" transform="translate(-127.554 -253.297)"/>
                </g>
                <path id="Path_25" d="M178.941 302.238L152.372 323.2l-71.49-.228s-4.105 5.965-4.105 12.492h92.1c1.509-4 6.8-8.421 12.062-8.421.003-7.436-1.998-24.805-1.998-24.805z" class="cls-11" transform="translate(-76.776 -270.307)"/>
                <path id="Path_26" d="M210.819 316.36a.316.316 0 0 1-.047-.628 35 35 0 0 0 17.241-8.021 5.094 5.094 0 0 0 .916-6.783.316.316 0 0 1 .52-.357 5.724 5.724 0 0 1-1.028 7.623 35.645 35.645 0 0 1-17.555 8.163.409.409 0 0 1-.047.003z" class="cls-17" transform="translate(-126.042 -269.642)"/>
                <path id="Path_27" d="M83.276 322.975s12.559-14.632 26.138-20.737h71.922l-26.57 20.962z" class="cls-11" transform="translate(-79.171 -270.307)"/>
                <path id="Rectangle_95" d="M0 0H47.159V1.368H0z" class="cls-15" transform="translate(12.559 52.668)"/>
                <path id="Path_28" d="M169.065 326.108l2.535-2.536a4.193 4.193 0 0 1 2.073-1.132l19.084-4.157a4.2 4.2 0 0 1 2.028.061l1.019.287a4.194 4.194 0 0 1 2.02 6.8l-4.1 4.688a4.2 4.2 0 0 1-2.769 1.414l-18.537 1.717a4.2 4.2 0 0 1-3.346-1.2 4.194 4.194 0 0 1-.007-5.942z" class="cls-9" transform="translate(-110.323 -276.183)"/>
                <path id="Path_29" d="M92.279 329.51l-2.1-3.908a3.445 3.445 0 0 0-1.265-1.326 3.446 3.446 0 0 0-3.371-.1l-1.585.831a3.445 3.445 0 0 0-1.662 1.945l-.971 2.861a3.445 3.445 0 0 0 2.676 4.5l4.362.754a3.446 3.446 0 0 0 3.62-1.762l.289-.537a3.444 3.444 0 0 0 .007-3.258z" class="cls-9" transform="translate(-78.386 -278.245)"/>
                <path id="Path_30" d="M259.736 288.405h66.492a3.614 3.614 0 0 0 3.46-4.655c-1.513-5.057-4.428-12.953-8.785-16.984a3.644 3.644 0 0 0-1.725-.883c-7.837-1.662-20.438-2.768-29.787-3.41a29.393 29.393 0 0 0-22.994 8.737 80.67 80.67 0 0 0-9.591 11.7 3.529 3.529 0 0 0 2.93 5.495z" class="cls-16" transform="translate(-142.88 -255.632)"/>
                <path id="Path_31" d="M188.19 364.381c0 2.074-2.121 3.755-4.737 3.755s-4.737-1.681-4.737-3.755 2.121-3.754 4.737-3.754 4.737 1.681 4.737 3.754z" class="cls-10" transform="translate(-114.331 -291.818)"/>
                <path id="Path_32" d="M130.871 330.532c1.554 0 2.313 1.59 1.695 3.551s-2.38 3.551-3.935 3.551-2.313-1.59-1.694-3.551 2.38-3.551 3.934-3.551z" class="cls-15" transform="translate(-95.176 -280.731)"/>
                <path id="Path_33" d="M81.272 364.381c0 2.074-.6 3.755-1.333 3.755s-1.333-1.681-1.333-3.755.6-3.754 1.333-3.754 1.333 1.681 1.333 3.754z" class="cls-10" transform="translate(-77.45 -291.818)"/>
                <path id="Path_34" d="M258.549 298.98v-2.128a4.11 4.11 0 0 1 4.949-4.023l8.1 1.688a4.11 4.11 0 0 1 3.271 4.023v.44a4.11 4.11 0 0 1-4.11 4.11h-8.1a4.11 4.11 0 0 1-4.11-4.11z" class="cls-10" transform="translate(-143.742 -266.808)"/>
                <path id="Path_35" d="M324.272 263.75s-1.08-.108-2.965-.275c8.329 17.061 6.206 25.324 6.206 25.324h6.351c.064-10.385-9.592-25.049-9.592-25.049z" class="cls-10" transform="translate(-166.863 -256.026)"/>
                <path id="Path_37" d="M332.143 353.888a.315.315 0 0 1-.316-.316c0-6.391 3.258-32.746 4.113-36.7a24.142 24.142 0 0 0 .006-10.9.316.316 0 1 1 .606-.179 24.789 24.789 0 0 1 .005 11.209c-.851 3.939-4.1 30.2-4.1 36.566a.315.315 0 0 1-.314.32z" class="cls-17" transform="translate(-170.738 -271.535)"/>
                <path id="Path_38" d="M325.937 322.077h-7.7a.954.954 0 0 1-.961-1.167l.159-.895a1.457 1.457 0 0 1 1.372-1.167h7.7a.954.954 0 0 1 .961 1.167l-.159.895a1.458 1.458 0 0 1-1.372 1.167z" class="cls-17" transform="translate(-165.37 -276.427)"/>
            </g>
        </g>
        <g id="Character" transform="translate(199.754 254.99)">
            <g id="Group_36">
                <path id="Path_41" d="M297.974 409.524l3.813-.06 1.1-8.842-3.813.06z" class="cls-18" transform="translate(-278.624 -269.263)"/>
                <path id="Path_42" d="M325.457 408.725l3.7-1.135-2.3-8.38-3.7 1.135z" class="cls-18" transform="translate(-287.903 -268.743)"/>
                <path id="Path_43" d="M329.967 410.269l-4.129 2.132a.333.333 0 0 0-.169.38l.885 3.356a.56.56 0 0 0 .807.346c1.317-.709 2.247-1.287 3.92-2.151 1.029-.531 4.189-2.027 5.611-2.76 1.391-.718.882-2.236.234-2.063-2.9.776-5.278 1-6.5.684a.925.925 0 0 0-.659.076z" class="cls-10" transform="translate(-288.823 -272.533)"/>
                <path id="Path_44" d="M301.1 413.924l-4.162.065a.332.332 0 0 0-.32.266l-.7 3.4a.554.554 0 0 0 .559.67c1.5-.049 3.669-.171 5.556-.2 2.207-.034 2.847.056 5.435.016 1.564-.025 1.974-1.614 1.317-1.746-2.992-.606-4.16-.637-6.762-2.186a1.766 1.766 0 0 0-.923-.285z" class="cls-10" transform="translate(-277.864 -274.164)"/>
                <path id="Path_45" d="M310.242 231.054c.865 1.734 1.841 3.574 2.822 5.321s2.016 3.491 3.123 5.13c.284.4.549.824.841 1.212l.709.971a4.092 4.092 0 0 1 .253.326c.021.042.039.1.222.116a3.677 3.677 0 0 0 1.8-.884c.347-.267.7-.569 1.048-.889s.692-.694.993-1l2.494 1.4a12.916 12.916 0 0 1-.748 1.626 11.267 11.267 0 0 1-.969 1.525 9.177 9.177 0 0 1-1.329 1.442 6.162 6.162 0 0 1-2 1.195 4.982 4.982 0 0 1-2.881.157 5.728 5.728 0 0 1-2.413-1.29 5.873 5.873 0 0 1-.431-.409l-.205-.208-.145-.164-.555-.635c-.375-.423-.713-.859-1.068-1.292a55.446 55.446 0 0 1-3.726-5.43c-.556-.936-1.108-1.874-1.609-2.838s-1-1.9-1.468-2.963z" class="cls-18" transform="translate(-281.212 -206.794)"/>
                <g id="Group_27" transform="translate(22.093 21.295)">
                    <g id="Group_25">
                        <path id="Path_46" d="M302.418 229.348c-1.028 3.5 6.207 13.029 6.207 13.029l7.3-4.694a46.524 46.524 0 0 0-5.055-8.573c-2.994-3.81-7.324-3.6-8.452.238z" class="cls-19" transform="translate(-302.318 -226.359)"/>
                    </g>
                </g>
                <path id="Path_48" d="M307.83 237.548c1.5.641 3.709 4.255 4.858 6.934l-3.1 1.99a58.248 58.248 0 0 1-4.654-7.294c.982-1.078 2.103-1.967 2.896-1.63z" class="cls-17" transform="translate(-281.19 -209.159)"/>
                <path id="Path_49" fill="#b55b52" d="M331.322 245.972l2.641-4.27 2.3 3.679a4.522 4.522 0 0 1-2.542 2.077z" transform="translate(-290.91 -210.716)"/>
                <path id="Path_51" d="M334.83 245.354l-4.156-.063 2.3-8.608 4.156.063z" class="cls-13" transform="translate(-290.671 -208.867)"/>
                <path id="Path_52" d="M335.5 245.354l-4.156-.063 2.3-8.608 4.156.063z" class="cls-10" transform="translate(-290.917 -208.867)"/>
                <path id="Path_53" d="M303.2 400.626l-.566 4.558-3.814.06.566-4.558z" class="cls-17" transform="translate(-278.934 -269.265)"/>
                <path id="Path_50" d="M3.679.975L3.67 2.3a1.8 1.8 0 0 1-.4 1.128l-.97 1.18L0 .929 2.379.06a.968.968 0 0 1 1.3.915z" class="cls-18" transform="rotate(-140 28.836 9.497)"/>
                <path id="Path_54" d="M323.159 400.349l3.706-1.136 1.183 4.32-3.706 1.136z" class="cls-17" transform="translate(-287.902 -268.744)"/>
                <g id="Group_30" transform="translate(5.983 20.723)">
                    <g id="Group_28">
                        <path id="Path_55" d="M276.9 230.864c3.111 13.4 2.434 26.695 2.775 29.563 2.982-.217 14.212-1.054 20.334-1.511 1.95-21.784-2.671-32.844-2.671-32.844s-1.307-.254-3.085-.436c-.558-.057-1.159-.107-1.786-.14-.345-.021-.7-.032-1.053-.039a75.6 75.6 0 0 0-8.645.644c-.541.068-1.093.149-1.627.236-.5.085-.981.174-1.438.266l-.062.012a3.528 3.528 0 0 0-2.742 4.249z" class="cls-19" transform="translate(-276.81 -225.454)"/>
                    </g>
                </g>
                <path id="Path_57" d="M281.085 238.481l-2.332 3a.592.592 0 0 1 .013.11c.325 2.034.578 4.028.767 5.945 2.228-2.76 1.897-7.743 1.552-9.055z" class="cls-17" transform="translate(-271.543 -209.53)"/>
                <path id="Path_58" d="M287.261 216.5c.486 2.048.457 4.322-1.011 5.947a9.713 9.713 0 0 0 7.039 2.848c3.311-.129 2.565-2.358 1.6-3.491-2.829-.457-2.833-2.294-2.855-4.312a.977.977 0 0 0-.679-.92l-3.106-1a.777.777 0 0 0-.988.928z" class="cls-18" transform="translate(-274.305 -201.077)"/>
                <path id="Path_60" d="M293.593 218.814l-3.124.4c.071.136.156.273.24.4a4.8 4.8 0 0 0 3.248 1.8 6.614 6.614 0 0 1-.364-2.6z" class="cls-17" transform="translate(-275.859 -202.284)"/>
                <path id="Path_61" d="M301.836 203.437c1.739.294 4.988-1.683 4.229-4.308-.974 1.218-4.229.812-4.229.812z" class="cls-10" transform="translate(-280.047 -195.032)"/>
                <path id="Path_62" d="M288.441 210.282c.19 1.753-1.976 4.878-4.552 3.966 1.274-.9 1.062-4.174 1.062-4.174z" class="cls-10" transform="translate(-273.435 -199.064)"/>
                <path id="Path_63" d="M286.8 202.3c-.467 3.754-.931 5.928.587 8.184a5.026 5.026 0 0 0 8.762-.988c1.421-3.186 1.945-8.79-1.411-10.947a5.16 5.16 0 0 0-7.938 3.751z" class="cls-18" transform="translate(-274.342 -194.508)"/>
                <path id="Path_64" d="M284.172 204.21c.916.966 3.435-2.977 2.975-4.385a2.035 2.035 0 0 0 2.653-1.948c2.837 1.516 6.944 2.718 7.011-.027s-2.527-4.764-5.067-4.981c.3.812-.5 1.164-2.145.812s-8.006-3.268-7.3 2.571c-2.362.156-2.677 3.167 1.873 7.958z" class="cls-10" transform="translate(-272.227 -192.643)"/>
                <path id="Path_65" d="M283.3 207.557a3.6 3.6 0 0 0 1.392 2.367c1.012.752 1.64-.045 1.736-1.236.086-1.072-.008-2.754-1.205-3.037a1.616 1.616 0 0 0-1.923 1.906z" class="cls-18" transform="translate(-273.211 -197.418)"/>
                <path id="Path_66" d="M292.379 279.43l13.367-.994s1.727 27.43 1.6 39.063c-.134 12.1-5.667 41.767-5.667 41.767l-6.454.1s.509-28.778.509-40.656c0-16-3.352-39.278-3.352-39.278" class="cls-10" transform="translate(-276.563 -224.249)"/>
                <path id="Path_67" d="M300.559 325.149c.176.793 5.146 23.03 6.75 36.017.858-5.4 1.735-11.453 2.326-16.8z" class="cls-17" transform="translate(-279.577 -241.459)"/>
                <path id="Path_68" d="M294.471 279.285s10.17 24.926 12.466 35.856c2.515 11.969 6.533 42.241 6.533 42.241l-6.9 1.079s-5.228-22.631-8.149-34.193c-3.326-13.171-16.5-34.036-17.072-44.006z" class="cls-10" transform="translate(-272.501 -224.562)"/>
                <path id="Path_71" d="M295.337 207.8c-.057.3.057.577.255.614s.4-.178.46-.48-.058-.577-.255-.615-.403.176-.46.481z" class="cls-10" transform="translate(-277.648 -198.047)"/>
                <path id="Path_72" d="M301.262 209.054c-.057.3.057.577.255.614s.4-.178.46-.48-.057-.577-.255-.614-.404.178-.46.48z" class="cls-10" transform="translate(-279.83 -198.51)"/>
                <path id="Path_73" fill="#a02724" d="M299 209.22a11.028 11.028 0 0 0 .96 2.855 1.774 1.774 0 0 1-1.494 0z" transform="translate(-278.807 -198.75)"/>
                <path id="Path_74" d="M296.493 214.458a2.534 2.534 0 0 1-1.64-1.159.09.09 0 0 1 .16-.085 2.44 2.44 0 0 0 1.893 1.126.091.091 0 0 1 .081.1.09.09 0 0 1-.1.082 2.951 2.951 0 0 1-.394-.064z" class="cls-10" transform="translate(-277.47 -200.204)"/>
                <path id="Path_75" d="M294.684 205.467a.177.177 0 0 1-.076-.05.18.18 0 0 1 .012-.255 1.79 1.79 0 0 1 1.582-.462.18.18 0 0 1-.09.349 1.434 1.434 0 0 0-1.249.38.179.179 0 0 1-.179.038z" class="cls-10" transform="translate(-277.367 -197.072)"/>
                <path id="Path_76" d="M303.822 206.993a.179.179 0 0 1-.117-.124 1.432 1.432 0 0 0-.851-.99.181.181 0 0 1 .111-.344 1.793 1.793 0 0 1 1.088 1.238.18.18 0 0 1-.126.222.177.177 0 0 1-.105-.002z" class="cls-10" transform="translate(-280.376 -197.389)"/>
                <g id="Group_31" transform="translate(23.562 136.138)">
                    <path id="Path_77" d="M334.12 410.057a4.467 4.467 0 0 1-.949.335.09.09 0 0 1-.094-.033.091.091 0 0 1-.005-.1c.083-.141.83-1.376 1.3-1.377a.287.287 0 0 1 .255.156.543.543 0 0 1 .052.509 1.153 1.153 0 0 1-.559.51zm-.775.1c.635-.181 1.066-.431 1.172-.682a.368.368 0 0 0-.042-.347c-.036-.06-.072-.068-.1-.068-.245.003-.718.613-1.03 1.1z" class="cls-13" transform="translate(-315.111 -408.445)"/>
                    <path id="Path_78" d="M333.031 410.13a.091.091 0 0 1-.125-.046 2.725 2.725 0 0 1-.214-1.587.494.494 0 0 1 .289-.279.294.294 0 0 1 .363.078c.267.341-.028 1.432-.28 1.8a.092.092 0 0 1-.033.034zm-.025-1.726a.321.321 0 0 0-.148.165 2.171 2.171 0 0 0 .148 1.268c.212-.445.354-1.228.2-1.429-.015-.018-.048-.061-.159-.02a.349.349 0 0 0-.041.012z" class="cls-13" transform="translate(-314.952 -408.19)"/>
                    <path id="Path_79" d="M304.7 414.25a.091.091 0 0 1-.015-.165c.172-.092 1.692-.893 2.159-.642a.287.287 0 0 1 .153.238.5.5 0 0 1-.162.441c-.412.377-1.507.244-2.123.131zm2.026-.662a3.74 3.74 0 0 0-1.715.532 2.442 2.442 0 0 0 1.7-.131.328.328 0 0 0 .1-.292.107.107 0 0 0-.058-.1.188.188 0 0 0-.022-.01z" class="cls-13" transform="translate(-304.643 -410.107)"/>
                    <path id="Path_80" d="M304.7 413.737a.119.119 0 0 1-.023-.012.09.09 0 0 1-.039-.081 2.582 2.582 0 0 1 .569-1.478.659.659 0 0 1 .5-.162c.249.021.323.146.34.247.076.43-.822 1.268-1.279 1.482a.09.09 0 0 1-.068.004zm1.083-1.536a.416.416 0 0 0-.093-.017.48.48 0 0 0-.366.12 2.117 2.117 0 0 0-.485 1.184c.465-.29 1.074-.947 1.029-1.205.001-.017-.006-.058-.081-.083zm-.085-.107z" class="cls-13" transform="translate(-304.643 -409.594)"/>
                </g>
                <g id="Group_35" transform="translate(0 21.874)">
                    <path id="Path_81" d="M279.511 234.153c-1.259 2.243-2.525 4.637-3.661 6.991a53.961 53.961 0 0 0-2.941 7.128c-.093.295-.164.584-.249.877-.035.133-.093.321-.112.409s-.041.142-.051.224a3.605 3.605 0 0 0 .037 1.192 10.926 10.926 0 0 0 1.231 3.076 38.277 38.277 0 0 0 4.558 6.182l-1.829 2.2a27.638 27.638 0 0 1-6.431-5.909 14.1 14.1 0 0 1-2.32-4.268 8.231 8.231 0 0 1-.4-2.861c.008-.259.049-.528.08-.791s.073-.39.11-.591c.076-.371.143-.751.229-1.115a47.568 47.568 0 0 1 2.867-8.172 70.274 70.274 0 0 1 3.915-7.531z" class="cls-18" transform="translate(-267.338 -228.72)"/>
                    <g id="Group_34" transform="translate(1.236)">
                        <g id="Group_32">
                            <path id="Path_82" d="M276.263 227.54c-3.515.963-6.968 10.847-6.968 10.847l8.464 2.348a27.258 27.258 0 0 0 3.523-6.77c1.806-4.803-.761-7.591-5.019-6.425z" class="cls-19" transform="translate(-269.295 -227.275)"/>
                        </g>
                    </g>
                    <path id="Path_84" d="M281.511 276.139l3.862 1.017-1.534 3.634s-3.469-.736-3.445-2.626z" class="cls-18" transform="translate(-272.148 -245.277)"/>
                    <path id="Path_85" d="M288.867 280.215l-1.14 2.871-1.877-1.7 1.534-3.634z" class="cls-18" transform="translate(-274.158 -245.87)"/>
                </g>
            </g>
        </g>
        <g id="Group_9170" transform="rotate(-51.98 425.859 13.776)">
            <g id="Group_9169" transform="translate(0 15.321)">
                <path id="Path_144" d="M40.264 13.261L34.788 1.722a3.018 3.018 0 0 0-3.955-1.46L16.539 6.6a3.026 3.026 0 0 0-1.385 1.249L.408 33.233a3.025 3.025 0 0 0 1.674 4.388l20.849 6.819a3.016 3.016 0 0 0 3.636-1.509l13.665-27.009a3.008 3.008 0 0 0 .032-2.661zm-8.806-8.893a1.737 1.737 0 1 1 2.19-1.111 1.736 1.736 0 0 1-2.19 1.111z" class="cls-13"/>
                <path id="Path_145" d="M40.264 13.261L34.788 1.722a3.018 3.018 0 0 0-3.955-1.46L16.539 6.6a3.026 3.026 0 0 0-1.385 1.249L.408 33.233a3.025 3.025 0 0 0 1.674 4.388l20.849 6.819a3.016 3.016 0 0 0 3.636-1.509l13.665-27.009a3.008 3.008 0 0 0 .032-2.661zm-8.806-8.893a1.737 1.737 0 1 1 2.19-1.111 1.736 1.736 0 0 1-2.19 1.111z" style="isolation:isolate" fill="#acc7ea"/>
            </g>
            <text id="_" fill="#2e353a" font-family="Raleway-Regular, Raleway" font-size="23px" transform="rotate(26.191 -86.124 40.213)">
                <tspan x="0" y="0">$</tspan>
            </text>
            <path id="Path_22788" fill="none" stroke="#577afa" stroke-linecap="round" stroke-linejoin="round" d="M0 16.974s6.711.316 6-5.842C5.093 3.272 14.29 3 13.185 0" transform="translate(33.222)"/>
        </g>
    </g>
</svg>
