<svg width="422" height="70" viewBox="0 0 422 70" xmlns="http://www.w3.org/2000/svg" xmlns:xlink="http://www.w3.org/1999/xlink">
    <defs>
        <path id="tq51ttsmza" d="M0 0h168.071v53.44H0z"/>
        <path d="M86.43.503C72.873 1.805 59.599 11.867 54.34 14.323c-5.26 2.455-46.353 7.183-48.961 9.505C2.77 26.15.455 31.885.455 31.885s.36 9.572.303 10.92C.701 44.151 0 45.256 0 45.256c3.303 7.074 13.85 7.32 13.85 7.32l1.183.03c-.006-1.22-.01-2.55-.01-4 0-8.515 7.377-15.173 15.977-15.173.224 0 .45.005.677.014 8.815.365 15.319 7.75 15.319 16.48 0 1.232-.013 2.383-.034 3.474l1.471.037 73.929-.997c-.02-1.207-.03-2.493-.03-3.863 0-8.516 7.375-15.173 15.975-15.173.225 0 .45.005.678.014 8.814.364 15.318 7.75 15.318 16.48 0 .668-.023 1.301-.06 1.913l11.535-2.226 2.417-2.978s.344-6.222.33-7.842c-.013-1.62-1.112-2.719-1.112-2.719s.365-10.594-1.147-13.572c-1.304-2.571-10.108-12.45-17.989-17.102l-2.09-1.14.39.214a18.977 18.977 0 0 0-1.94-.845C138.324 1.307 116.956 0 100.762 0 95.04 0 89.97.163 86.43.503z" id="km47rz0f5c"/>
        <path d="M86.43.503C72.873 1.805 59.599 11.867 54.34 14.323c-5.26 2.455-46.353 7.183-48.961 9.505C2.77 26.15.455 31.885.455 31.885s.36 9.572.303 10.92C.701 44.151 0 45.256 0 45.256c3.303 7.074 13.85 7.32 13.85 7.32l1.183.03c-.006-1.22-.01-2.55-.01-4 0-8.515 7.377-15.173 15.977-15.173.224 0 .45.005.677.014 8.815.365 15.319 7.75 15.319 16.48 0 1.232-.013 2.383-.034 3.474l1.471.037 73.929-.997c-.02-1.207-.03-2.493-.03-3.863 0-8.516 7.375-15.173 15.975-15.173.225 0 .45.005.678.014 8.814.364 15.318 7.75 15.318 16.48 0 .668-.023 1.301-.06 1.913l11.535-2.226 2.417-2.978s.344-6.222.33-7.842c-.013-1.62-1.112-2.719-1.112-2.719s.365-10.594-1.147-13.572c-1.304-2.571-10.108-12.45-17.989-17.102l-2.09-1.14.39.214a18.977 18.977 0 0 0-1.94-.845C138.324 1.307 116.956 0 100.762 0 95.04 0 89.97.163 86.43.503z" id="bmho6r0ooe"/>
        <path d="M86.43.503C72.873 1.805 59.599 11.867 54.34 14.323c-5.26 2.455-46.353 7.183-48.961 9.505C2.77 26.15.455 31.885.455 31.885s.36 9.572.303 10.92C.701 44.151 0 45.256 0 45.256c3.303 7.074 13.85 7.32 13.85 7.32l1.183.03c-.006-1.22-.01-2.55-.01-4 0-8.515 7.377-15.173 15.977-15.173.224 0 .45.005.677.014 8.815.365 15.319 7.75 15.319 16.48 0 1.232-.013 2.383-.034 3.474l1.471.037 73.929-.997c-.02-1.207-.03-2.493-.03-3.863 0-8.516 7.375-15.173 15.975-15.173.225 0 .45.005.678.014 8.814.364 15.318 7.75 15.318 16.48 0 .668-.023 1.301-.06 1.913l11.535-2.226 2.417-2.978s.344-6.222.33-7.842c-.013-1.62-1.112-2.719-1.112-2.719s.365-10.594-1.147-13.572c-1.304-2.571-10.108-12.45-17.989-17.102l2.25.254s-.122-.997-1.102-1.038c-.98-.04-3.239-.356-3.239-.356l.391.214a18.977 18.977 0 0 0-1.94-.845C138.324 1.307 116.956 0 100.762 0 95.04 0 89.97.163 86.43.503z" id="snlwzxrc9g"/>
        <path d="M86.43.503C72.873 1.805 59.599 11.867 54.34 14.323c-5.26 2.455-46.353 7.183-48.961 9.505C2.77 26.15.455 31.885.455 31.885s.36 9.572.303 10.92C.701 44.151 0 45.256 0 45.256c3.303 7.074 13.85 7.32 13.85 7.32l1.183.03c-.006-1.22-.01-2.55-.01-4 0-8.515 7.377-15.173 15.977-15.173.224 0 .45.005.677.014 8.815.365 15.319 7.75 15.319 16.48 0 1.232-.013 2.383-.034 3.474l1.471.037 73.929-.997c-.02-1.207-.03-2.493-.03-3.863 0-8.516 7.375-15.173 15.975-15.173.225 0 .45.005.678.014 8.814.364 15.318 7.75 15.318 16.48 0 .668-.023 1.301-.06 1.913l11.535-2.226 2.417-2.978s.344-6.222.33-7.842c-.013-1.62-1.112-2.719-1.112-2.719s.365-10.594-1.147-13.572c-1.304-2.571-10.108-12.45-17.989-17.102l2.25.254s-.122-.997-1.102-1.038c-.98-.04-3.239-.356-3.239-.356l.391.214a18.977 18.977 0 0 0-1.94-.845C138.324 1.307 116.956 0 100.762 0 95.04 0 89.97.163 86.43.503" id="t2w29lll4i"/>
        <path d="M86.43.503C72.873 1.805 59.599 11.867 54.34 14.323c-5.26 2.455-46.353 7.183-48.961 9.505C2.77 26.15.455 31.885.455 31.885s.36 9.572.303 10.92C.701 44.151 0 45.256 0 45.256c3.303 7.074 13.85 7.32 13.85 7.32l1.183.03c-.006-1.22-.01-2.55-.01-4 0-8.515 7.377-15.173 15.977-15.173.224 0 .45.005.677.014 8.815.365 15.319 7.75 15.319 16.48 0 1.232-.013 2.383-.034 3.474l1.471.037 73.929-.997c-.02-1.207-.03-2.493-.03-3.863 0-8.516 7.375-15.173 15.975-15.173.225 0 .45.005.678.014 8.814.364 15.318 7.75 15.318 16.48 0 .668-.023 1.301-.06 1.913l11.535-2.226 2.417-2.978s.344-6.222.33-7.842c-.013-1.62-1.112-2.719-1.112-2.719s.365-10.594-1.147-13.572c-1.304-2.571-10.108-12.45-17.989-17.102l2.25.254s-.122-.997-1.102-1.038c-.98-.04-3.239-.356-3.239-.356l.391.214a18.977 18.977 0 0 0-1.94-.845C138.324 1.307 116.956 0 100.762 0 95.04 0 89.97.163 86.43.503" id="j7oxvrcv0k"/>
        <path d="M86.43.503C72.873 1.805 59.599 11.867 54.34 14.323c-5.26 2.455-46.353 7.183-48.961 9.505C2.77 26.15.455 31.885.455 31.885s.36 9.572.303 10.92C.701 44.151 0 45.256 0 45.256c3.303 7.074 13.85 7.32 13.85 7.32l1.183.03c-.006-1.22-.01-2.55-.01-4 0-8.515 7.377-15.173 15.977-15.173.224 0 .45.005.677.014 8.815.365 15.319 7.75 15.319 16.48 0 1.232-.013 2.383-.034 3.474l1.471.037 73.929-.997c-.02-1.207-.03-2.493-.03-3.863 0-8.516 7.375-15.173 15.975-15.173.225 0 .45.005.678.014 8.814.364 15.318 7.75 15.318 16.48 0 .668-.023 1.301-.06 1.913l11.535-2.226 2.417-2.978s.344-6.222.33-7.842c-.013-1.62-1.112-2.719-1.112-2.719s.365-10.594-1.147-13.572c-1.304-2.571-10.108-12.45-17.989-17.102l2.25.254s-.122-.997-1.102-1.038c-.98-.04-3.239-.356-3.239-.356l.391.214a18.977 18.977 0 0 0-1.94-.845C138.324 1.307 116.956 0 100.762 0 95.04 0 89.97.163 86.43.503" id="1baoz36igm"/>
        <path d="M32.929.495C23 1.45 13.132 7.333 6.602 11.225c-2.17 1.295-3.885 2.317-5.225 2.943-.349.162-.811.329-1.377.5l3.666.363 101.309-.74c-3.244-3.274-7.318-6.851-11.172-9.131l-1.629-.889a17.199 17.199 0 0 0-1.76-.767C84.46 1.34 61.098 0 42.867 0c-6.46 0-6.567.171-9.94.495" id="fa0yh8o6lo"/>
        <path d="M32.929.495C23 1.45 13.132 7.333 6.602 11.225c-2.17 1.295-3.885 2.317-5.225 2.943-.349.162-.811.329-1.377.5l3.666.363 101.309-.74c-3.244-3.274-7.318-6.851-11.172-9.131l-1.629-.889a17.199 17.199 0 0 0-1.76-.767C84.46 1.34 61.098 0 42.867 0c-6.46 0-6.567.171-9.94.495z" id="r0riqnq44q"/>
        <path d="M32.929.495C23 1.45 13.132 7.333 6.602 11.225c-2.17 1.295-3.885 2.317-5.225 2.943-.349.162-.811.329-1.377.5l3.666.363 101.309-.74c-3.244-3.274-7.318-6.851-11.172-9.131l-1.629-.889a17.199 17.199 0 0 0-1.76-.767C84.46 1.34 61.098 0 42.867 0c-6.46 0-6.567.171-9.94.495" id="dymvj4mcls"/>
        <path d="M86.43.503C72.873 1.805 59.599 11.867 54.34 14.323c-5.26 2.455-46.353 7.183-48.961 9.505C2.77 26.15.455 31.885.455 31.885s.36 9.572.303 10.92C.701 44.151 0 45.256 0 45.256c3.303 7.074 13.85 7.32 13.85 7.32l1.183.03c-.006-1.22-.01-2.55-.01-4 0-8.515 7.377-15.173 15.977-15.173.224 0 .45.005.677.014 8.815.365 15.319 7.75 15.319 16.48 0 1.232-.013 2.383-.034 3.474l1.471.037 73.929-.997c-.02-1.207-.03-2.493-.03-3.863 0-8.516 7.375-15.173 15.975-15.173.225 0 .45.005.678.014 8.814.364 15.318 7.75 15.318 16.48 0 .668-.023 1.301-.06 1.913l11.535-2.226 2.417-2.978s.344-6.222.33-7.842c-.013-1.62-1.112-2.719-1.112-2.719s.365-10.594-1.147-13.572c-1.304-2.571-10.108-12.45-17.989-17.102l-2.09-1.14.39.214a18.977 18.977 0 0 0-1.94-.845C138.324 1.307 116.956 0 100.762 0 95.04 0 89.97.163 86.43.503z" id="snbvih3wou"/>
        <path d="M85.976.503c-13.559 1.302-26.832 11.364-32.092 13.82-5.26 2.455-46.353 7.183-48.96 9.505C2.314 26.15 0 31.885 0 31.885s.36 9.572.303 10.92c-.003.074-.008.148-.015.222-.233 2.466.757 4.912 2.798 6.347 4.362 3.065 10.31 3.204 10.31 3.204l1.182.03c-.006-1.22-.01-2.55-.01-4 0-8.516 7.377-15.174 15.977-15.174.225 0 .45.005.677.014 8.815.365 15.319 7.75 15.319 16.48 0 1.232-.012 2.383-.034 3.474l1.471.037 73.93-.997c-.021-1.207-.031-2.493-.031-3.863 0-8.516 7.376-15.173 15.976-15.173.224 0 .45.005.677.014 8.814.364 15.318 7.75 15.318 16.48 0 .668-.023 1.301-.06 1.913l8.404-1.622a8.733 8.733 0 0 0 5.129-3.065c.273-.336.432-.75.455-1.18.088-1.647.306-5.884.295-7.179-.014-1.62-1.113-2.719-1.113-2.719s.365-10.594-1.146-13.572c-1.305-2.571-10.11-12.45-17.99-17.102l-2.09-1.14.39.214a18.978 18.978 0 0 0-1.94-.845C137.869 1.307 116.502 0 100.307 0c-5.72 0-10.791.163-14.33.503z" id="kzkzwrnebw"/>
        <path id="gs8q5zm5ay" d="M0 0h177.96v46.635H0z"/>
        <path d="M105.12.01c-2.483.045-4.7.226-6.414.586l-.06.012c-8.103 1.732-26.45 14.81-31.993 16.39-2.163.616-7.38.533-13.814.45-10.057-.13-23.09-.26-32.103 2.28-14.78 4.166-19.732 11.27-19.732 11.27S0 36.164 0 39.834c0 1.63.197 2.966.767 3.421l.009.007.001.001.009.007.002.001.008.007h.001a.198.198 0 0 1 .008.007h.001l.009.007.002.002.008.006.003.001.007.006.003.002.008.005.002.002a.171.171 0 0 0 .008.005.029.029 0 0 0 .004.003.078.078 0 0 0 .007.005l.005.003.004.003.007.006.004.002.005.003.007.005a.113.113 0 0 1 .006.004l.003.002a.205.205 0 0 0 .01.006l.002.002.01.007.003.001c1.926 1.24 9.637 2.522 11.8 2.864a455.145 455.145 0 0 1-.038-6.073c0-8.848 7.228-16.046 16.113-16.046 8.884 0 16.112 7.198 16.112 16.046 0 2.308-.03 4.38-.09 6.245 16.766.045 37.947.1 57.709.15h.06l.395.002H103.402l.136.001.284.001h.383l.913.003h.16c9.89.026 19.35.049 27.633.068a296.033 296.033 0 0 1-.065-6.47c0-8.848 7.228-16.046 16.113-16.046 8.884 0 16.112 7.198 16.112 16.046 0 2.281-.015 4.385-.046 6.325 4.715-.696 7.552-3.203 9.357-6.428l.002-.003.02-.035.002-.005.02-.035c.186-.337.368-.782.545-1.315 1.834-5.526 3.115-20.487 2.979-22.166-.15-1.842-3.004-4.098-4.998-4.515-1.993-.418-13.377-.799-20.064-.773-6.686.026-15.526-6.363-21.082-8.184l-.05-.016c-1.294-.419-3.318-.863-5.766-1.279C120.442.793 112.714 0 106.373 0c-.425 0-.842.003-1.254.01z" id="qimlgogskA"/>
        <path d="M105.12.01c-2.483.045-4.7.226-6.414.586l-.06.012c-8.103 1.732-26.45 14.81-31.993 16.39-2.163.616-7.38.533-13.814.45-10.057-.13-23.09-.26-32.103 2.28-14.78 4.166-19.732 11.27-19.732 11.27S0 36.164 0 39.834c0 1.63.197 2.966.767 3.421l.009.007.001.001.009.007.002.001.008.007h.001a.198.198 0 0 1 .008.007h.001l.009.007.002.002.008.006.003.001.007.006.003.002.008.005.002.002a.171.171 0 0 0 .008.005.029.029 0 0 0 .004.003.078.078 0 0 0 .007.005l.005.003.004.003.007.006.004.002.005.003.007.005a.113.113 0 0 1 .006.004l.003.002a.205.205 0 0 0 .01.006l.002.002.01.007.003.001c1.926 1.24 9.637 2.522 11.8 2.864a455.145 455.145 0 0 1-.038-6.073c0-8.848 7.228-16.046 16.113-16.046 8.884 0 16.112 7.198 16.112 16.046 0 2.308-.03 4.38-.09 6.245 16.766.045 37.947.1 57.709.15h.06l.395.002H103.402l.136.001.284.001h.383l.913.003h.16c9.89.026 19.35.049 27.633.068a296.033 296.033 0 0 1-.065-6.47c0-8.848 7.228-16.046 16.113-16.046 8.884 0 16.112 7.198 16.112 16.046 0 2.281-.015 4.385-.046 6.325 4.715-.696 7.552-3.203 9.357-6.428l.002-.003.02-.035.002-.005.02-.035c.186-.337.368-.782.545-1.315 1.834-5.526 3.115-20.487 2.979-22.166-.15-1.842-3.004-4.098-4.998-4.515-1.993-.418-13.377-.799-20.064-.773-6.686.026-15.526-6.363-21.082-8.184l-.05-.016c-1.294-.419-3.318-.863-5.766-1.279C120.442.793 112.714 0 106.373 0c-.425 0-.842.003-1.254.01" id="4v3f1k9mlC"/>
        <path d="M105.12.01c-2.483.045-4.7.226-6.414.586l-.06.012c-8.103 1.732-26.45 14.81-31.993 16.39-2.163.616-7.38.533-13.814.45-10.057-.13-23.09-.26-32.103 2.28-14.78 4.166-19.732 11.27-19.732 11.27S0 36.164 0 39.834c0 1.63.197 2.966.767 3.421l.009.007.001.001.009.007.002.001.008.007h.001a.198.198 0 0 1 .008.007h.001l.009.007.002.002.008.006.003.001.007.006.003.002.008.005.002.002a.171.171 0 0 0 .008.005.029.029 0 0 0 .004.003.078.078 0 0 0 .007.005l.005.003.004.003.007.006.004.002.005.003.007.005a.113.113 0 0 1 .006.004l.003.002a.205.205 0 0 0 .01.006l.002.002.01.007.003.001c1.926 1.24 9.637 2.522 11.8 2.864a455.145 455.145 0 0 1-.038-6.073c0-8.848 7.228-16.046 16.113-16.046 8.884 0 16.112 7.198 16.112 16.046 0 2.308-.03 4.38-.09 6.245 16.766.045 37.947.1 57.709.15h.06l.395.002H103.402l.136.001.284.001h.383l.913.003h.16c9.89.026 19.35.049 27.633.068a296.033 296.033 0 0 1-.065-6.47c0-8.848 7.228-16.046 16.113-16.046 8.884 0 16.112 7.198 16.112 16.046 0 2.281-.015 4.385-.046 6.325 4.715-.696 7.552-3.203 9.357-6.428l.002-.003.02-.035.002-.005.02-.035c.186-.337.368-.782.545-1.315 1.834-5.526 3.115-20.487 2.979-22.166-.15-1.842-3.004-4.098-4.998-4.515-1.993-.418-13.377-.799-20.064-.773-6.686.026-15.526-6.363-21.082-8.184l-.05-.016c-1.294-.419-3.318-.863-5.766-1.279C120.442.793 112.714 0 106.373 0c-.425 0-.842.003-1.254.01" id="2owpvjwcdE"/>
        <path d="M98.646.608c-8.103 1.732-26.45 14.81-31.993 16.39-2.163.616-7.38.533-13.814.45-10.057-.13-23.09-.26-32.103 2.28-14.78 4.166-19.732 11.27-19.732 11.27S-1.088 41.775.767 43.255c1.856 1.481 12.533 3.07 12.533 3.07s142.656.389 149.059.364c6.402-.025 9.947-2.872 12.067-6.706 2.119-3.834 3.673-21.64 3.524-23.481-.15-1.842-3.004-4.098-4.998-4.515-1.993-.418-13.377-.799-20.064-.773-6.686.026-15.526-6.363-21.082-8.184C127.626 1.66 115.548 0 106.373 0c-3.017 0-5.721.18-7.727.608z" id="unxztfesjG"/>
        <path d="M98.646.608c-8.103 1.732-26.45 14.81-31.993 16.39-2.163.616-7.38.533-13.814.45-10.057-.13-23.09-.26-32.103 2.28-14.78 4.166-19.732 11.27-19.732 11.27S-1.088 41.775.767 43.255c1.6 1.276 9.743 2.631 11.966 2.982a455.12 455.12 0 0 1-.038-6.073c0-8.848 7.228-16.046 16.113-16.046 8.884 0 16.112 7.198 16.112 16.046 0 2.308-.03 4.38-.09 6.245 25.998.07 62.608.165 88.08.225a296.027 296.027 0 0 1-.064-6.47c0-8.848 7.228-16.046 16.113-16.046 8.884 0 16.112 7.198 16.112 16.046 0 2.281-.015 4.385-.046 6.325 4.753-.701 7.597-3.243 9.4-6.506 2.12-3.834 3.674-21.64 3.525-23.481-.15-1.842-3.004-4.098-4.998-4.515-1.993-.418-13.377-.799-20.064-.773-6.686.026-15.526-6.363-21.082-8.184C127.626 1.66 115.548 0 106.373 0c-3.018 0-5.72.18-7.727.608" id="k25myzjofI"/>
        <path d="M31.993.608C23.891 2.34 5.543 15.418 0 16.998h61.676c11.58 0 18.285-3.906 21.235-6.212-6.085-1.459-13.084-6.224-17.758-7.756C60.973 1.66 48.895 0 39.721 0 36.702 0 34 .18 31.993.608" id="xcmd3p37rK"/>
    </defs>
    <g fill="none" fill-rule="evenodd">
        <ellipse fill="#FBFBFB" cx="336.367" cy="63.824" rx="85.633" ry="6.176"/>
        <ellipse fill="#FBFBFB" cx="89.744" cy="63.824" rx="85.633" ry="6.176"/>
        <g opacity=".403">
            <path d="M373.096 52.442s16.5-2.26 16.827-2.26c.327 0 15.053 1.631 15.053 1.631l1.628-11.88s-2.835-14.673-12.32-17.802c-9.486-3.13-28.239 1.079-28.893 3.992-.654 2.913-2.725 12.947-2.725 12.947l10.43 13.372zM265.766 52.607l16.743-2.276 15.187 3.072 2.108-4.002s2.535-24.519-8.422-25.652c-10.958-1.133-17.009 5.34-22.733 8.74-5.724 3.398-6.542 11.652-6.542 12.946 0 1.295 3.66 7.172 3.66 7.172" fill="#717171"/>
            <path d="M291.53 49.266c0 5.302-4.343 9.6-9.7 9.6-5.358 0-9.702-4.298-9.702-9.6s4.344-9.6 9.702-9.6c5.357 0 9.7 4.298 9.7 9.6" fill="#666"/>
            <path d="M295.905 49.266c0 7.66-6.276 13.871-14.017 13.871-7.742 0-14.018-6.21-14.018-13.871 0-7.66 6.276-13.871 14.018-13.871 7.741 0 14.017 6.21 14.017 13.871" fill="#565656"/>
            <path d="M281.83 53.812c-2.538 0-4.594-2.035-4.594-4.546 0-2.51 2.056-4.546 4.594-4.546 2.537 0 4.594 2.035 4.594 4.546 0 2.51-2.057 4.546-4.594 4.546m0-12.83c-4.623 0-8.37 3.71-8.37 8.284 0 4.575 3.747 8.283 8.37 8.283 4.622 0 8.37-3.708 8.37-8.283 0-4.575-3.748-8.283-8.37-8.283" fill="#D0D0D0"/>
            <path d="M282.91 49.266c0 .59-.483 1.07-1.08 1.07-.597 0-1.082-.48-1.082-1.07 0-.59.485-1.07 1.081-1.07.598 0 1.082.48 1.082 1.07M280.915 47.556a.368.368 0 0 1-.37.366.368.368 0 0 1-.37-.366c0-.202.166-.366.37-.366.205 0 .37.164.37.366M283.532 47.556a.368.368 0 0 1-.37.366.368.368 0 0 1-.37-.366c0-.202.166-.366.37-.366.205 0 .37.164.37.366M282.181 51.314a.368.368 0 0 1-.37.366.368.368 0 0 1-.37-.366c0-.202.166-.366.37-.366.205 0 .37.164.37.366M280.247 49.907a.368.368 0 0 1-.37.366.368.368 0 0 1-.37-.366c0-.203.166-.367.37-.367s.37.164.37.367M284.158 49.92a.368.368 0 0 1-.37.367.368.368 0 0 1-.37-.366c0-.203.166-.366.37-.366.205 0 .37.163.37.366" fill="#EFEFEF"/>
            <path d="M281.83 58.697c-5.264 0-9.531-4.222-9.531-9.43 0-5.21 4.267-9.432 9.53-9.432 5.264 0 9.531 4.222 9.531 9.431 0 5.209-4.267 9.431-9.53 9.431m0-19.555c-5.65 0-10.231 4.533-10.231 10.124s4.58 10.124 10.23 10.124 10.231-4.533 10.231-10.124-4.58-10.124-10.23-10.124" fill="#D0D0D0"/>
            <g transform="translate(251.189)">
                <mask id="9syq1wq55b" fill="#fff">
                    <use xlink:href="#tq51ttsmza"/>
                </mask>
                <path d="M168.071 38.767c-.014-1.62-1.113-2.718-1.113-2.718s.365-10.595-1.146-13.573c-1.305-2.571-10.11-12.45-17.99-17.102l-2.09-1.14.39.214a19.026 19.026 0 0 0-1.94-.845C135.639.496 99.536-.8 85.977.503c-13.559 1.303-26.833 11.364-32.092 13.82-5.26 2.455-46.353 7.183-48.96 9.505C2.314 26.15 0 31.885 0 31.885s.36 9.572.303 10.92c-.003.074-.008.148-.015.222-.233 2.466.757 4.913 2.798 6.347 4.362 3.065 10.309 3.204 10.309 3.204l1.183.03a815.41 815.41 0 0 1-.01-4c0-8.517 7.377-15.174 15.977-15.174.225 0 .45.005.677.014 8.815.365 15.319 7.75 15.319 16.48 0 1.232-.012 2.383-.034 3.475l1.471.036 73.93-.997c-.021-1.207-.032-2.493-.032-3.863 0-8.516 7.377-15.173 15.976-15.173.225 0 .45.005.677.014 8.815.364 15.32 7.75 15.32 16.48 0 .669-.024 1.3-.061 1.913l8.404-1.622a8.736 8.736 0 0 0 5.129-3.065c.273-.336.432-.75.455-1.18.088-1.647.305-5.883.295-7.179" fill="#B2B2B2" mask="url(#9syq1wq55b)"/>
            </g>
            <path d="m308.06 16.649 101.309-.74c-3.244-3.274-7.318-6.851-11.172-9.13l-1.629-.89a17.238 17.238 0 0 0-1.76-.767c-5.953-2.164-29.315-3.504-47.546-3.504-6.46 0-6.567.171-9.94.496-9.928.953-19.796 6.837-26.326 10.73-2.17 1.294-3.886 2.316-5.226 2.942-.348.162-.81.329-1.376.5l3.666.363z" fill="#696969"/>
            <g>
                <g transform="translate(250.734)">
                    <mask id="l5622lu6nd" fill="#fff">
                        <use xlink:href="#km47rz0f5c"/>
                    </mask>
                    <path d="m150 39.878-.035-.322 13.4-1.403a4.833 4.833 0 0 0 2.625-1.116l1.317-1.112.212.247-1.317 1.111a5.16 5.16 0 0 1-2.803 1.192L150 39.878z" fill="#909090" mask="url(#l5622lu6nd)"/>
                </g>
                <g transform="translate(250.734)">
                    <mask id="swpt1wbn5f" fill="#fff">
                        <use xlink:href="#bmho6r0ooe"/>
                    </mask>
                    <path d="M.362 30.87s9.158-.755 26.82-.647c17.663.108 140.681-1.51 140.681-1.51s1.2-7.445-.109-10.79c-1.308-3.345-5.778-4.531-5.778-4.531s2.616 4.531-6.978 4.531-97.581.08-102.657.08c-13.983 0-48.163 6.798-48.163 6.798l-3.816 6.07z" fill="#C9C9C9" mask="url(#swpt1wbn5f)"/>
                </g>
            </g>
            <g>
                <g transform="translate(250.734)">
                    <mask id="z0s9botgfh" fill="#fff">
                        <use xlink:href="#snlwzxrc9g"/>
                    </mask>
                    <path d="m-.156 34.026 2.199.882c.547.22 1.128.343 1.718.366l2.65.103a3.417 3.417 0 0 1 3.234 2.76l.75 3.92c.123.647-.401 1.235-1.065 1.195l-3.542-.214a16.036 16.036 0 0 1-6.012-1.57l-.832-.402.9-7.04z" fill="#3F3F3F" mask="url(#z0s9botgfh)"/>
                </g>
                <g transform="translate(250.734)">
                    <mask id="bywxk2o1dj" fill="#fff">
                        <use xlink:href="#t2w29lll4i"/>
                    </mask>
                    <path d="M8.157 38.18h-.01c-.018-.001-1.923-.058-4.069-.354-2.177-.3-4.545-1.384-4.645-1.43a.322.322 0 0 1-.158-.43.328.328 0 0 1 .434-.157c.024.011 2.381 1.09 4.46 1.376 2.108.29 3.98.347 3.998.347.18.006.322.155.317.333a.325.325 0 0 1-.327.315" fill="#CECECE" mask="url(#bywxk2o1dj)"/>
                </g>
                <g transform="translate(250.734)">
                    <mask id="paada31wml" fill="#fff">
                        <use xlink:href="#j7oxvrcv0k"/>
                    </mask>
                    <path d="M8.185 41.551h-.01c-.019 0-1.923-.058-4.07-.353-2.175-.3-5.587-1.823-5.732-1.887a.323.323 0 0 1-.163-.429.328.328 0 0 1 .433-.161c.035.016 3.472 1.549 5.553 1.836 2.11.29 3.98.347 3.998.347.18.005.323.154.317.333a.325.325 0 0 1-.326.314" fill="#CECECE" mask="url(#paada31wml)"/>
                </g>
                <g transform="translate(250.734)">
                    <mask id="3b17xhvyan" fill="#fff">
                        <use xlink:href="#1baoz36igm"/>
                    </mask>
                    <path d="m166.979 23.556-7.66.098 1.291 2.964a4.71 4.71 0 0 0 4.588 2.807c.76-.042 1.558-.091 2.286-.143 2.408-.17-.505-5.726-.505-5.726" fill="#757575" mask="url(#3b17xhvyan)"/>
                </g>
            </g>
            <g>
                <path d="M403.3 49.266c0 7.66-6.276 13.871-14.018 13.871-7.742 0-14.017-6.21-14.017-13.871 0-7.66 6.275-13.871 14.017-13.871 7.742 0 14.018 6.21 14.018 13.871" fill="#565656"/>
                <path d="M398.983 49.266c0 5.302-4.343 9.6-9.7 9.6-5.359 0-9.702-4.298-9.702-9.6s4.343-9.6 9.701-9.6c5.358 0 9.701 4.298 9.701 9.6" fill="#666"/>
                <path d="M389.282 53.876c-2.573 0-4.658-2.064-4.658-4.61 0-2.546 2.085-4.61 4.658-4.61 2.573 0 4.658 2.064 4.658 4.61 0 2.546-2.085 4.61-4.658 4.61m0-13.01c-4.688 0-8.488 3.761-8.488 8.4s3.8 8.4 8.488 8.4 8.488-3.761 8.488-8.4-3.8-8.4-8.488-8.4" fill="#D0D0D0"/>
                <path d="M390.363 49.266c0 .59-.484 1.07-1.08 1.07-.598 0-1.082-.48-1.082-1.07 0-.59.484-1.07 1.081-1.07s1.081.48 1.081 1.07M388.368 47.556a.368.368 0 0 1-.37.366.368.368 0 0 1-.37-.366c0-.202.166-.366.37-.366s.37.164.37.366M390.985 47.556a.368.368 0 0 1-.37.366.368.368 0 0 1-.37-.366c0-.202.166-.366.37-.366s.37.164.37.366M389.634 51.314a.368.368 0 0 1-.37.366.368.368 0 0 1-.37-.366c0-.202.166-.366.37-.366s.37.164.37.366M387.7 49.907a.368.368 0 0 1-.37.366.368.368 0 0 1-.37-.366c0-.203.165-.367.37-.367.204 0 .37.164.37.367M391.61 49.92a.368.368 0 0 1-.369.367.368.368 0 0 1-.37-.366c0-.203.166-.366.37-.366s.37.163.37.366" fill="#EFEFEF"/>
                <path d="M389.282 58.697c-5.263 0-9.53-4.222-9.53-9.43 0-5.21 4.267-9.432 9.53-9.432 5.264 0 9.53 4.222 9.53 9.431 0 5.209-4.266 9.431-9.53 9.431m0-19.555c-5.65 0-10.23 4.533-10.23 10.124s4.58 10.124 10.23 10.124 10.23-4.533 10.23-10.124-4.58-10.124-10.23-10.124" fill="#D0D0D0"/>
                <path d="M269.587 49.807h-.034a.975.975 0 0 1-.947-1.005c.25-7.082 6.058-12.63 13.223-12.63 6.884 0 12.68 5.315 13.195 12.1.04.536-.365 1.001-.905 1.042a.98.98 0 0 1-1.052-.896c-.439-5.778-5.375-10.304-11.238-10.304-6.102 0-11.05 4.725-11.262 10.756a.976.976 0 0 1-.98.937M377.028 49.807h-.035a.975.975 0 0 1-.947-1.005c.25-7.082 6.058-12.63 13.224-12.63 6.884 0 12.68 5.315 13.194 12.1.04.536-.364 1.001-.905 1.042a.98.98 0 0 1-1.052-.896c-.438-5.778-5.374-10.304-11.237-10.304-6.103 0-11.05 4.725-11.262 10.756a.976.976 0 0 1-.98.937" fill="#717171"/>
            </g>
            <g>
                <g transform="translate(304.394 1.618)">
                    <mask id="owb5x46u3p" fill="#fff">
                        <use xlink:href="#fa0yh8o6lo"/>
                    </mask>
                    <path d="M101.799 13.02c-3.057-2.859-6.062-5.205-8.648-6.737l-1.586-.865a15.832 15.832 0 0 0-1.603-.699c-5.634-2.048-28.899-3.424-47.094-3.424-6.418 0-6.48.169-9.813.489C23.422 2.71 13.707 8.5 7.274 12.337c-.85.506-1.631.972-2.35 1.39 0 0 40.428-14.415 96.875-.708" fill="#8F8F8F" mask="url(#owb5x46u3p)"/>
                </g>
                <g transform="translate(304.394 1.618)">
                    <mask id="zzrhupg0br" fill="#fff">
                        <use xlink:href="#r0riqnq44q"/>
                    </mask>
                    <path d="M44.861-.958s-3.162 9.926-3.816 17.802l6.65.324s-.217-13.055.764-17.694l-3.598-.432z" fill="#3F3F3F" mask="url(#zzrhupg0br)"/>
                </g>
                <g transform="translate(304.394 1.618)">
                    <mask id="ciqit4ni0t" fill="#fff">
                        <use xlink:href="#dymvj4mcls"/>
                    </mask>
                    <path d="M72.445.013s7.36 8.2 10.576 16.723l5.888-.215S82.803 4.113 76.589.445c.108.323-4.144-.432-4.144-.432" fill="#3F3F3F" mask="url(#ciqit4ni0t)"/>
                </g>
            </g>
            <g transform="translate(250.734)">
                <mask id="45ct89kjgv" fill="#fff">
                    <use xlink:href="#snbvih3wou"/>
                </mask>
                <path d="m43.21 43.17 74.173-3.202c1.209-.049 1.73 1.501.73 2.175-1.47.99-3.66 2.28-6.874 3.835a8.115 8.115 0 0 1-3.543.805l-66.012-.053 1.526-3.56z" fill="#C9C9C9" mask="url(#45ct89kjgv)"/>
            </g>
            <g fill="#909090">
                <path d="m296.562 49.05-.003-.324 49.589-.538V43.71c0-3.553.536-16.455.766-21.838a11.04 11.04 0 0 1 1.855-5.662c.648-6.755 1.805-14.467 1.816-14.544l.324.048c-.012.077-1.172 7.812-1.819 14.566l-.003.041-.023.034a10.72 10.72 0 0 0-1.823 5.531c-.23 5.38-.766 18.277-.766 21.824v4.8l-49.913.54z"/>
                <path d="M301.412 48.783c-.022-1.027-.535-25.197.334-28.1.875-2.921 2.468-4.45 2.535-4.513l.226.233c-.016.015-1.599 1.538-2.447 4.371-.855 2.856-.326 27.751-.32 28.003l-.328.006zM346.311 48.51v-.323l24.639-.044c.251-9.542 8.742-17.22 18.855-16.825.609.025 1.221.084 1.866.179.034-10.118-.05-11.936-.103-12.117-.198-.508-1.26-1.733-1.893-2.466a26.624 26.624 0 0 1-.48-.562c-.21-.26-.29-.405-.587-.945-.35-.638-1.003-1.824-2.534-4.415-2.792-4.73-5.914-7.921-5.945-7.953l.234-.226c.032.032 3.182 3.252 5.994 8.015 1.532 2.596 2.187 3.785 2.538 4.424.294.534.364.66.556.898.1.125.27.32.472.554.69.796 1.732 2 1.951 2.563.046.117.166.427.123 12.42v.188l-.189-.03a17.42 17.42 0 0 0-2.017-.204c-9.974-.405-18.36 7.23-18.518 16.666l-.002.159-24.96.044z"/>
            </g>
            <g transform="translate(251.189)">
                <mask id="99q468d0kx" fill="#fff">
                    <use xlink:href="#kzkzwrnebw"/>
                </mask>
                <path d="M-3.993 26.755s2.947-1.376 7.352-1.852c4.405-.476 11.503-1.794 11.817-1.822.315-.028-.16 4.825-5.397 5.584-5.238.758-9.867 2.02-13.027 2.768-3.16.75-5.55-.453-5.55-.453l4.805-4.225z" fill="#E4E4E4" mask="url(#99q468d0kx)"/>
            </g>
            <g>
                <path d="m308.288 18.679.48-1.457 6.102.353-1.67 1.868a.63.63 0 0 1-.495.21c-.9-.032-3.556-.131-3.91-.163h-.013c-.383-.041-.613-.449-.494-.811" fill="#9F9F9F"/>
                <path d="M315.181 12.141s-2.664.113-4.579 1.35c-1.914 1.237-2.146 2.381-2.166 3.332-.02.951.421 1.658 2.17 1.932 1.747.275 7.642-.251 7.642-.251s.386-2.86-.598-4.256c-.985-1.398-2.469-2.107-2.469-2.107" fill="#CDCDCD"/>
            </g>
        </g>
        <g opacity=".4">
            <path d="m10.774 50.928 17.989 1.327 21.12-.531s6.795-15.062.6-18.18c-6.197-3.119-22.253-7.83-32.513-1.195-10.26 6.635-7.196 18.579-7.196 18.579M125.567 50.662l24.118.266 20.12-1.726s2.665-15.791-3.598-21.1c-6.262-5.308-27.315-4.511-34.11 4.38-6.796 8.89-6.53 18.18-6.53 18.18" fill="#5C5C5C"/>
            <path d="M163.849 48.301c0 8.194-6.67 14.836-14.897 14.836s-14.897-6.642-14.897-14.836c0-8.193 6.67-14.836 14.897-14.836s14.897 6.643 14.897 14.836" fill="#565656"/>
            <path d="M159.262 48.301c0 5.671-4.616 10.268-10.31 10.268-5.694 0-10.31-4.597-10.31-10.268 0-5.67 4.616-10.267 10.31-10.267 5.694 0 10.31 4.597 10.31 10.267" fill="#666"/>
            <path d="M148.952 53.232c-2.734 0-4.95-2.208-4.95-4.93 0-2.724 2.216-4.931 4.95-4.931s4.95 2.207 4.95 4.93-2.216 4.93-4.95 4.93m0-13.913c-4.982 0-9.02 4.022-9.02 8.983 0 4.962 4.038 8.984 9.02 8.984 4.982 0 9.02-4.022 9.02-8.984 0-4.961-4.038-8.983-9.02-8.983" fill="#E3E3E3"/>
            <path d="M150.1 48.301c0 .632-.513 1.145-1.148 1.145a1.147 1.147 0 0 1-1.149-1.145c0-.632.514-1.144 1.149-1.144s1.149.512 1.149 1.144M147.98 46.472a.392.392 0 1 1-.784-.002.392.392 0 0 1 .784.002M150.762 46.472a.392.392 0 1 1-.785-.002.392.392 0 0 1 .785.002M149.326 50.492a.392.392 0 1 1-.785-.002.392.392 0 0 1 .785.002M147.27 48.986a.392.392 0 1 1-.785-.001.392.392 0 0 1 .785.001M151.427 49.001a.392.392 0 1 1-.785-.001.392.392 0 0 1 .785.001" fill="#EFEFEF"/>
            <path d="M148.952 58.388c-5.594 0-10.128-4.516-10.128-10.087 0-5.57 4.534-10.087 10.128-10.087s10.128 4.516 10.128 10.087-4.534 10.087-10.128 10.087m0-20.915c-6.005 0-10.872 4.848-10.872 10.828 0 5.98 4.867 10.828 10.872 10.828s10.873-4.847 10.873-10.828c0-5.98-4.868-10.828-10.873-10.828" fill="#E3E3E3"/>
            <path d="M135.929 48.88h-.037a1.04 1.04 0 0 1-1.006-1.074c.265-7.575 6.438-13.51 14.053-13.51 7.316 0 13.475 5.685 14.022 12.943a1.043 1.043 0 0 1-2.08.156c-.466-6.18-5.711-11.021-11.942-11.021-6.486 0-11.743 5.053-11.969 11.504a1.041 1.041 0 0 1-1.041 1.002" fill="#717171"/>
            <path d="M43.817 48.301c0 8.194-6.67 14.836-14.897 14.836s-14.897-6.642-14.897-14.836c0-8.193 6.67-14.836 14.897-14.836s14.897 6.643 14.897 14.836" fill="#565656"/>
            <path d="M39.23 48.301c0 5.671-4.616 10.268-10.31 10.268-5.694 0-10.31-4.597-10.31-10.268 0-5.67 4.616-10.267 10.31-10.267 5.694 0 10.31 4.597 10.31 10.267" fill="#666"/>
            <path d="M28.92 53.232c-2.734 0-4.95-2.208-4.95-4.93 0-2.724 2.216-4.931 4.95-4.931s4.95 2.207 4.95 4.93-2.216 4.93-4.95 4.93m0-13.913c-4.982 0-9.02 4.022-9.02 8.983 0 4.962 4.038 8.984 9.02 8.984 4.982 0 9.02-4.022 9.02-8.984 0-4.961-4.038-8.983-9.02-8.983" fill="#E3E3E3"/>
            <path d="M30.069 48.301c0 .632-.514 1.145-1.149 1.145a1.147 1.147 0 0 1-1.149-1.145c0-.632.514-1.144 1.149-1.144s1.149.512 1.149 1.144M27.948 46.472a.392.392 0 1 1-.784-.002.392.392 0 0 1 .784.002M30.73 46.472a.392.392 0 1 1-.785-.002.392.392 0 0 1 .785.002M29.294 50.492a.392.392 0 1 1-.785-.002.392.392 0 0 1 .785.002M27.238 48.986a.392.392 0 1 1-.785-.001.392.392 0 0 1 .785.001M31.395 49.001A.392.392 0 1 1 30.61 49a.392.392 0 0 1 .785.001" fill="#EFEFEF"/>
            <path d="M28.92 58.388c-5.594 0-10.128-4.516-10.128-10.087 0-5.57 4.534-10.087 10.128-10.087s10.128 4.516 10.128 10.087-4.534 10.087-10.128 10.087m0-20.915c-6.005 0-10.872 4.848-10.872 10.828 0 5.98 4.867 10.828 10.872 10.828s10.872-4.847 10.872-10.828c0-5.98-4.867-10.828-10.872-10.828" fill="#E3E3E3"/>
            <path d="M15.897 48.88h-.037a1.04 1.04 0 0 1-1.006-1.074c.265-7.575 6.438-13.51 14.053-13.51 7.316 0 13.475 5.685 14.022 12.943a1.043 1.043 0 0 1-2.08.156c-.466-6.18-5.711-11.021-11.942-11.021-6.486 0-11.743 5.053-11.969 11.504a1.041 1.041 0 0 1-1.041 1.002" fill="#717171"/>
            <g transform="translate(0 8.235)">
                <mask id="ig3modaylz" fill="#fff">
                    <use xlink:href="#gs8q5zm5ay"/>
                </mask>
                <path d="M177.95 16.502c-.15-1.842-3.004-4.098-4.998-4.515-1.993-.418-13.377-.799-20.063-.773-6.687.026-15.527-6.363-21.083-8.184-5.556-1.82-25.057-4.153-33.16-2.422-8.103 1.732-26.45 14.81-31.993 16.39-5.543 1.58-31.136-1.437-45.917 2.73-14.78 4.166-19.732 11.27-19.732 11.27S-1.088 41.775.767 43.256c1.6 1.275 9.743 2.63 11.966 2.98a459.157 459.157 0 0 1-.038-6.072c0-8.848 7.228-16.046 16.112-16.046 8.885 0 16.113 7.198 16.113 16.046 0 2.308-.03 4.38-.09 6.245 25.998.07 62.608.166 88.08.226a294.654 294.654 0 0 1-.064-6.47c0-8.849 7.228-16.047 16.112-16.047 8.885 0 16.113 7.198 16.113 16.046 0 2.282-.015 4.385-.046 6.325 4.753-.701 7.597-3.243 9.4-6.506 2.12-3.834 3.674-21.64 3.525-23.481" fill="#969696" mask="url(#ig3modaylz)"/>
            </g>
            <g>
                <g transform="translate(0 8.236)">
                    <mask id="41kiesw7qB" fill="#fff">
                        <use xlink:href="#qimlgogskA"/>
                    </mask>
                    <path d="m130.764 36.455-.089 2.38c-.1 2.671-2.302 4.786-4.987 4.786H48.95l.04-.065a7.872 7.872 0 0 1 6.366-3.748l75.408-3.353z" fill="#ADADAD" mask="url(#41kiesw7qB)"/>
                </g>
                <g transform="translate(0 8.236)">
                    <mask id="6ehqqeimaD" fill="#fff">
                        <use xlink:href="#4v3f1k9mlC"/>
                    </mask>
                    <path d="M1.27 29.406s7.44-11.397 29.025-11.397H132.23c15.857 0 22.053-4.445 27.85-4.976 7.236-.663 14.723-2.057 18.054 3.318 2.384 3.845 1.533 6.038 1.533 6.038H31.694c-12.059 0-23.937 2.687-30.423 7.017" fill="#ADADAD" mask="url(#6ehqqeimaD)"/>
                </g>
                <g transform="translate(0 8.236)">
                    <mask id="1dxx1mmhkF" fill="#fff">
                        <use xlink:href="#2owpvjwcdE"/>
                    </mask>
                    <path d="M122.83 44.377H74.243c-1.777 0-3.255-1.381-3.365-3.144-.583-9.326-.062-21.788.243-22.698.35-1.044 2.185-2.575 2.263-2.64l.289.346c-.018.015-1.815 1.514-2.123 2.437-.299.892-.801 13.245-.221 22.527a2.917 2.917 0 0 0 2.914 2.722h48.587c.624 0 1.208-.246 1.642-.692a2.254 2.254 0 0 0 .644-1.656c-.152-4.943-.343-14.545.092-23.315l.003-.065.038-.053c.014-.021 1.51-2.17 1.83-3.57.048-.21.113-.434.188-.694.465-1.604 1.243-4.289.275-11.035L126.41-5.05l.448-.064 1.132 7.896c.982 6.842.156 9.692-.288 11.224-.073.253-.136.47-.181.668-.314 1.375-1.62 3.32-1.864 3.675-.43 8.737-.24 18.29-.088 23.215a2.7 2.7 0 0 1-.771 1.983 2.722 2.722 0 0 1-1.967.829" fill="#5F5F5F" mask="url(#1dxx1mmhkF)"/>
                </g>
            </g>
            <g transform="translate(0 8.236)">
                <mask id="peyhp8l4eH" fill="#fff">
                    <use xlink:href="#unxztfesjG"/>
                </mask>
                <path d="M66.653 16.998h61.676c16.432 0 23.048-7.864 23.048-7.864S129.716-7.445 129.29-7.445C128.862-7.445 76.576-5 76.576-5L73.91 1.163l-7.256 15.835z" fill="#2A2A2A" mask="url(#peyhp8l4eH)"/>
            </g>
            <g fill="#676767">
                <path d="M177.687 28.216h-8.735a.43.43 0 0 1-.43-.428v-.745a.43.43 0 0 1 .43-.429h8.735a.43.43 0 0 1 .43.429v.745a.43.43 0 0 1-.43.428M177.438 30.2h-8.735a.43.43 0 0 1-.43-.428v-.745a.43.43 0 0 1 .43-.428h8.735a.43.43 0 0 1 .43.428v.745a.43.43 0 0 1-.43.428M177.35 32.176h-8.736a.43.43 0 0 1-.43-.428v-.745a.43.43 0 0 1 .43-.429h8.735a.43.43 0 0 1 .43.429v.745a.43.43 0 0 1-.43.428"/>
            </g>
            <g transform="translate(0 8.236)">
                <mask id="z4x9q85u0J" fill="#fff">
                    <use xlink:href="#k25myzjofI"/>
                </mask>
                <path d="M1.58 29.5s5.064.353 8.972-.886c3.909-1.238 5.908-4.511 5.908-6.148 0-1.637-13.947 5.308-14.88 7.033" fill="#E4E4E4" mask="url(#z4x9q85u0J)"/>
            </g>
            <path d="M126.766 12.261c-5.477-1.006-13.824-1.902-20.393-1.902-3.089 0-5.538.188-7.28.56-4.305.92-12.483 5.74-19.055 9.613-2.343 1.38-4.547 2.679-6.51 3.772h45.019c4.54 0 8.22-3.665 8.22-8.186V12.26z" fill="#696969"/>
            <g transform="translate(66.653 8.235)">
                <mask id="vd589gxntL" fill="#fff">
                    <use xlink:href="#xcmd3p37rK"/>
                </mask>
                <path d="m61.358 2.78-1.149-8.008-.49.07 1.149 8.008c.967 6.741.19 9.423-.274 11.026-.076.26-.14.484-.189.695-.32 1.402-1.811 3.541-1.827 3.563l-.04.059-.004.07c-.549 11.054-.087 23.717-.01 25.643H4.907c-.91-9.585-.31-24.266.01-25.221.302-.902 2.043-2.365 2.117-2.427l.087-.073-.316-.378-.088.072c-.078.065-1.914 1.59-2.269 2.65-.331.989-.96 15.994-.012 25.647l.022.222h54.581l-.01-.257c-.007-.137-.592-13.844-.004-25.784.226-.33 1.548-2.298 1.863-3.677.046-.2.111-.427.181-.668.444-1.533 1.27-4.387.289-11.232" fill="#000" mask="url(#vd589gxntL)"/>
            </g>
            <g>
                <path d="m68.16 25.869 1.488-2.345 2.107.57.163 1.774s-1.013.626-1.84.65c-.826.023-1.344-.112-1.918-.65" fill="#8B8B8B"/>
                <path d="M69.438 22.186s-.56.516-.594.887c-.035.371 1.2 1.427 1.549 1.508.24.056 2.257.057 3.483.052a.944.944 0 0 0 .941-.942v-2.327c0-.3-.183-.568-.462-.678-.484-.19-1.273-.428-2.006-.326-1.165.162-2.911 1.826-2.911 1.826" fill="#AAA"/>
                <path d="M122.163 28.14c0 .643-1.785 1.164-3.988 1.164-2.202 0-3.987-.521-3.987-1.164 0-.643 1.785-1.164 3.987-1.164 2.203 0 3.988.521 3.988 1.164" fill="#5C5C5C"/>
                <path d="M121.527 27.678c0 .321-1.485.582-3.317.582s-3.317-.26-3.317-.582c0-.322 1.485-.582 3.317-.582s3.317.26 3.317.582" fill="#EBEBEB"/>
                <path d="M6.218 48.169c-.072.754.005 1.378-1.674 1.218-1.68-.16-2.982-.901-2.91-1.655.073-.754 1.493-1.235 3.172-1.075 1.68.16 1.485.758 1.412 1.512" fill="#5C5C5C"/>
                <path d="M125.829 18.045a7.46 7.46 0 0 0 .253-1.927v-3.287c-5.017-.88-13.108-1.79-19.71-1.79-3.04 0-5.44.183-7.135.545-4.195.897-12.319 5.684-18.85 9.532l-1.333.785c5.794-2.87 20.465-7.942 46.775-3.858" fill="#8F8F8F"/>
            </g>
        </g>
        <g stroke="#AAA" stroke-linecap="round" stroke-linejoin="round" stroke-width="4.109">
            <path d="M220.591 31.568H204.15M212.37 39.804l-8.22-8.235 8.22-8.236"/>
        </g>
    </g>
</svg>
