<svg xmlns="http://www.w3.org/2000/svg" xmlns:xlink="http://www.w3.org/1999/xlink" width="370.21" height="395.78" xmlns:v="https://vecta.io/nano"><style><![CDATA[.P{fill:#263238}.Q{fill:#eb996e}.R{fill:#fafafa}.S{fill:#455a64}.T{fill:#ffbe9d}.U{fill:#f5f5f5}.V{fill:#ebebeb}.W{fill:#e0e0e0}.X{fill:#e8505b}]]></style><path d="M181.966 123.178a59.52 59.52 0 0 1-94.418 56.442 59.52 59.52 0 0 1 26.979-106.642c32.484-4.757 62.675 17.717 67.439 50.2z" class="U"/><path d="M167.952 125.214a45.36 45.36 0 0 1-71.954 43.01 45.36 45.36 0 0 1 20.561-81.268 45.3 45.3 0 0 1 51.393 38.258z" class="V"/><path d="M167.736 123.81c-.271.05-.748-1.893-1.971-5.225a48.12 48.12 0 0 0-7.177-13.005 46.45 46.45 0 0 0-7.128-7.292 45.44 45.44 0 0 0-9.911-6.127 44.49 44.49 0 0 0-12.331-3.55 43.98 43.98 0 0 0-6.784-.4 44.31 44.31 0 0 0-13.741 2.443 44.21 44.21 0 0 0-6.235 2.707 44.41 44.41 0 0 0-10.356 7.577 45.4 45.4 0 0 0-7.194 9.165 46.47 46.47 0 0 0-4.181 9.3c-1.507 4.746-2.268 9.697-2.257 14.677 0 3.549.222 5.537-.05 5.582-.2.04-.877-1.874-1.3-5.51a41.98 41.98 0 0 1 1.249-15.438c2.033-7.552 5.983-14.452 11.465-20.03a43.88 43.88 0 0 1 5.074-4.481 44.45 44.45 0 0 1 5.942-3.837 46.26 46.26 0 0 1 6.707-2.971 46.46 46.46 0 0 1 14.823-2.631 46.31 46.31 0 0 1 7.319.482 46.28 46.28 0 0 1 13.206 4.017 45.46 45.46 0 0 1 17.661 14.859c3.018 4.245 5.219 9.015 6.492 14.065.856 3.561.878 5.59.678 5.623zm-35.701 33.963l1.249 7.8-6.965 1.112-1.215-7.591c-6.962.685-13.925-.413-18.234-2.795l2.468-9.111a28.5 28.5 0 0 0 14.305 2.781l-1.863-11.632c-8.033-.64-17.082-1.835-18.676-11.8-1.182-7.384 3.166-14.58 13.97-17.595l-1.238-7.733 6.965-1.115 1.216 7.594a31.9 31.9 0 0 1 14.819 1.984l-2.11 9.126a28.91 28.91 0 0 0-11.239-1.917l1.9 11.843c8.02.571 16.931 1.79 18.5 11.609 1.161 7.249-3.129 14.37-13.852 17.44zm-11.894-29.67l-1.586-9.889c-3.557 1.426-4.7 3.681-4.328 5.98.392 2.433 2.693 3.424 5.914 3.909zm14.669 14.869c-.391-2.439-2.623-3.437-5.786-4.005l1.539 9.613c3.362-1.325 4.603-3.377 4.247-5.61z" class="W"/><path d="M155.377 295.537c4.618 31.262-10.061 62.226-37.186 78.44s-61.348 14.482-86.697-4.388-36.827-51.158-29.076-81.794 33.202-53.581 64.475-58.126c42.622-6.241 82.235 23.247 88.484 65.868z" class="U"/><path d="M136.988 298.212c3.517 23.824-7.671 47.419-28.342 59.773s-46.751 11.033-66.067-3.347-28.062-38.986-22.155-62.332 25.302-40.831 49.134-44.294a59.44 59.44 0 0 1 67.43 50.2z" class="V"/><path d="M136.706 296.369c-.355.065-.981-2.483-2.586-6.856-2.237-6.141-5.413-11.897-9.416-17.063a60.95 60.95 0 0 0-9.352-9.567c-3.97-3.226-8.34-5.928-13-8.039a58.37 58.37 0 0 0-16.178-4.657 57.83 57.83 0 0 0-8.9-.52 58.11 58.11 0 0 0-18.031 3.2 58 58 0 0 0-8.181 3.552 58.27 58.27 0 0 0-13.587 9.942 59.57 59.57 0 0 0-9.439 12.025 60.97 60.97 0 0 0-5.486 12.2 63.19 63.19 0 0 0-2.962 19.257c0 4.656.291 7.265-.065 7.324-.262.053-1.151-2.459-1.707-7.229a55.08 55.08 0 0 1 1.639-20.256 59.6 59.6 0 0 1 15.038-26.279 57.55 57.55 0 0 1 6.657-5.88 58.3 58.3 0 0 1 7.8-5.035 60.7 60.7 0 0 1 8.8-3.9c6.252-2.2 12.821-3.366 19.449-3.452 3.212-.044 6.422.168 9.6.632a60.7 60.7 0 0 1 17.328 5.271 59.64 59.64 0 0 1 23.173 19.5 55.1 55.1 0 0 1 8.518 18.454c1.121 4.67 1.151 7.333.888 7.376zm-46.841 44.56l1.639 10.237-9.139 1.46-1.594-9.96c-9.135.9-18.27-.541-23.924-3.667l3.239-11.955c5.834 2.822 12.302 4.08 18.769 3.649L76.41 315.43c-10.54-.84-22.412-2.408-24.5-15.478-1.551-9.688 4.155-19.13 18.329-23.086l-1.628-10.144 9.139-1.464 1.6 9.964c6.942-.55 13.9.209 19.443 2.6l-2.768 11.974c-4.7-1.809-9.712-2.664-14.746-2.515l2.49 15.538c10.523.749 22.215 2.349 24.277 15.232 1.518 9.511-4.111 18.844-18.181 22.878zM74.26 301.997l-2.081-12.976c-4.666 1.871-6.161 4.829-5.678 7.846.513 3.195 3.533 4.495 7.759 5.131zm19.247 19.509c-.513-3.2-3.441-4.51-7.591-5.255l2.019 12.613c4.409-1.735 6.038-4.432 5.571-7.357z" class="W"/><path d="M344.312 81.209c9.108 14.946 8.311 33.909-2.021 48.037s-28.159 20.638-45.164 16.49-29.833-18.135-32.498-35.434 5.359-34.499 20.326-43.572a43.2 43.2 0 0 1 59.356 14.479z" class="U"/><path d="M335.512 86.545c6.941 11.39 6.332 25.841-1.541 36.608s-21.46 15.727-34.418 12.566-22.734-13.821-24.765-27.003 4.084-26.29 15.49-33.205c7.462-4.535 16.419-5.92 24.902-3.851s15.797 7.424 20.332 14.886z" class="V"/><path d="M334.97 85.665c-.167.11-1.037-1.054-2.8-2.938a35 35 0 0 0-8.489-6.668c-2.167-1.201-4.459-2.16-6.836-2.86a32.99 32.99 0 0 0-8.368-1.29 32.35 32.35 0 0 0-9.257 1.119 31.98 31.98 0 0 0-4.652 1.658 32.16 32.16 0 0 0-8.5 5.526 32.02 32.02 0 0 0-3.405 3.578 32.35 32.35 0 0 0-4.783 8.007c-1.087 2.617-1.831 5.364-2.216 8.172a33.74 33.74 0 0 0-.161 7.408 35 35 0 0 0 2.649 10.461l1.549 3.749c-.122.083-1.117-1.006-2.432-3.318a30.5 30.5 0 0 1-3.54-10.685c-.779-5.63-.093-11.366 1.994-16.653a31.97 31.97 0 0 1 2.125-4.437c.849-1.492 1.815-2.914 2.89-4.252a33.6 33.6 0 0 1 3.645-3.889c2.714-2.473 5.812-4.486 9.174-5.961a33.77 33.77 0 0 1 5.034-1.753 33.64 33.64 0 0 1 9.975-1.054 33.04 33.04 0 0 1 16.031 4.936c3.222 1.986 6.047 4.554 8.33 7.573 1.578 2.141 2.168 3.492 2.043 3.571zm-14.265 32.848l3.048 4.867-4.345 2.72-2.965-4.735c-4.465 2.432-9.435 3.671-12.993 3.3l-.931-6.8a20.72 20.72 0 0 0 10.361-2.193l-4.544-7.257c-5.557 1.849-11.95 3.613-15.841-2.6-2.883-4.605-2.013-10.654 4.361-15.733l-3.02-4.824 4.345-2.721 2.96 4.734a23.18 23.18 0 0 1 10.479-2.873l1.175 6.705a21.03 21.03 0 0 0-8.064 1.9l4.626 7.388c5.529-1.891 11.838-3.6 15.673 2.524 2.834 4.522 1.979 10.498-4.325 15.598zm-16.364-16.487l-3.863-6.169c-1.976 1.963-2.1 3.8-1.2 5.229.946 1.519 2.763 1.527 5.063.94zm14.031 5.792c-.953-1.521-2.73-1.556-5.007-1.04l3.755 6c1.868-1.842 2.121-3.565 1.247-4.965z" class="W"/><path d="M286.07 41.175a22.27 22.27 0 0 1-33.649-23.707A22.27 22.27 0 0 1 270.369.416a22.27 22.27 0 0 1 22.617 10.069c6.564 10.385 3.468 24.124-6.916 30.69z" class="U"/><path d="M283.244 36.692c-5.801 3.677-13.246 3.495-18.861-.46s-8.292-10.905-6.783-17.605 6.908-11.83 13.676-12.996 13.572 1.863 17.236 7.672c5.004 7.914 2.645 18.385-5.269 23.389z" class="V"/><path d="M283.692 36.405c-.059-.085.533-.544 1.487-1.468 1.341-1.294 2.473-2.789 3.356-4.43a17.36 17.36 0 0 0 1.41-3.546 16.98 16.98 0 0 0 .589-4.319 16.63 16.63 0 0 0-.66-4.756 16.46 16.46 0 0 0-.9-2.38 16.58 16.58 0 0 0-2.923-4.329 16.5 16.5 0 0 0-1.873-1.721 16.63 16.63 0 0 0-4.165-2.389 16.99 16.99 0 0 0-4.227-1.068 17.44 17.44 0 0 0-3.817-.016 18.01 18.01 0 0 0-5.361 1.459 9.91 9.91 0 0 1-1.917.832c-.043-.063.508-.585 1.687-1.283a15.7 15.7 0 0 1 5.469-1.919 16.99 16.99 0 0 1 8.591.876 16.32 16.32 0 0 1 2.304 1.054 16.53 16.53 0 0 1 2.215 1.449c.727.559 1.409 1.174 2.039 1.841a18.6 18.6 0 0 1 1.767 2.205 18.84 18.84 0 0 1 1.386 2.463c.383.832.7 1.694.947 2.576a16.55 16.55 0 0 1 .516 2.6 16.33 16.33 0 0 1 .117 2.531 17 17 0 0 1-2.4 8.3 15.71 15.71 0 0 1-3.823 4.357 4.98 4.98 0 0 1-1.814 1.081zm-17.04-7.046l-2.477 1.613-1.44-2.212 2.412-1.574a12.51 12.51 0 0 1-1.816-6.66l3.491-.541a10.67 10.67 0 0 0 1.223 5.314l3.695-2.4c-1-2.844-1.969-6.12 1.2-8.18 2.345-1.526 5.467-1.133 8.14 2.1l2.456-1.6 1.44 2.212-2.412 1.57a11.93 11.93 0 0 1 1.574 5.368l-3.441.666c-.073-1.434-.431-2.839-1.052-4.134l-3.762 2.449c1.023 2.829 1.962 6.062-1.157 8.092-2.307 1.502-5.392 1.117-8.074-2.083zm8.335-8.573l3.14-2.045c-1.029-1-1.972-1.046-2.7-.572-.772.501-.761 1.438-.44 2.617zm-2.856 7.275c.775-.5.777-1.419.491-2.587l-3.053 1.987c.967.945 1.859 1.057 2.567.597z" class="W"/><path d="M310.848 181.456l-51.426-35.528c-5.507-3.03-22.969-5.231-24.54-5.612l-31.273-6.8-47.784 1.429-13.7 8.24-34.68 15.973c-9.452 4.354-16.9 12.131-20.844 21.761l-21.9 53.485 54.343 16.074 1.681 56.417-12.817 88.885h159.081l-8-170.355 16.56 3.646z" class="P"/><path d="M120.046 227.755s-.571.421-1.68 1.065a13.87 13.87 0 0 1-5.079 1.859 18.93 18.93 0 0 1-7.931-1.149 57.19 57.19 0 0 1-9.034-3.928l-8.724-4.564c-2.395-1.197-4.886-2.192-7.446-2.976a28.9 28.9 0 0 0-5.295-1.077l-1.98-.149a15 15 0 0 1 1.987.072c1.805.163 3.59.504 5.328 1.018a47.25 47.25 0 0 1 7.488 2.945l8.736 4.553a58.14 58.14 0 0 0 9 3.931 18.98 18.98 0 0 0 7.855 1.185 14.11 14.11 0 0 0 5.058-1.786l1.274-.74.443-.259zm-2.317-26.353h-.362l-1.036-.049-3.8-.3a99.97 99.97 0 0 1-24.473-5.63l-3.551-1.392-.953-.408-.326-.156a4.95 4.95 0 0 0 .342.117l.967.372a114.51 114.51 0 0 0 3.57 1.33 107.91 107.91 0 0 0 24.439 5.623l3.793.365 1.032.087.358.041zm34.184-55.474c-.39.616-.813 1.211-1.267 1.782a24.91 24.91 0 0 1-4.239 4.187 37.51 37.51 0 0 1-7.582 4.537 77.12 77.12 0 0 1-10.172 3.712l-10.369 3.1a60.53 60.53 0 0 0-8.191 3.269 36.14 36.14 0 0 0-5.1 3.044c-.584.393-.992.758-1.292.974l-.455.336s.575-.526 1.7-1.374a34.3 34.3 0 0 1 5.086-3.11 59.23 59.23 0 0 1 8.2-3.319c3.161-1.052 6.69-2.027 10.37-3.116a78.57 78.57 0 0 0 10.14-3.689 38.03 38.03 0 0 0 7.574-4.48 25.88 25.88 0 0 0 4.265-4.123c.466-.526.751-1 .984-1.285s.348-.445.348-.445zm97.806 7.29l-.414-.226-1.175-.659a29.94 29.94 0 0 0-4.541-1.967 50.39 50.39 0 0 0-7.111-1.825l-8.9-1.364-16.216-2.3-4.91-.719-1.333-.201-.463-.085.469.044 1.338.168 4.92.655 16.222 2.236 8.911 1.382a48.91 48.91 0 0 1 7.124 1.873 28.1 28.1 0 0 1 4.53 2.033l1.549.955zm-22.151 10.79l-1.059.475-3.072 1.285a130.45 130.45 0 0 1-11.577 3.989 126.39 126.39 0 0 1-17.729 3.913c-6.775 1.039-14.331 1.041-22.207.779s-15.4-.6-22.223-.171a68.57 68.57 0 0 0-17.79 3.247c-3.879 1.273-7.561 3.079-10.942 5.366-1.17.846-2.073 1.511-2.643 2.015l-.9.732.875-.763c.563-.514 1.459-1.192 2.625-2.049a43.45 43.45 0 0 1 10.941-5.437 68.21 68.21 0 0 1 17.825-3.3c6.835-.44 14.36-.1 22.241.154s15.414.267 22.175-.76a127.92 127.92 0 0 0 17.714-3.866c4.965-1.433 8.894-2.881 11.589-3.923l3.084-1.25c.699-.3 1.073-.436 1.073-.436zm14.997 9.564a.68.68 0 0 1-.174.079l-.515.192-1.922.614a25.56 25.56 0 0 1-6.578 1.007 22.84 22.84 0 0 1-6.586-.945l-1.912-.649-.509-.2c-.061-.02-.119-.048-.172-.084a.67.67 0 0 1 .187.045l.522.168 1.924.586c2.131.59 4.333.886 6.545.881a27.55 27.55 0 0 0 6.542-.942l1.936-.551.526-.153a.66.66 0 0 1 .186-.048zm-30.839 27.658s-4.689.99-12.348 2.132c-3.828.577-8.4 1.149-13.5 1.656-5.1.482-10.712.889-16.615 1.113a301.39 301.39 0 0 1-16.657.094c-5.118-.137-9.724-.375-13.584-.673-7.722-.585-12.469-1.233-12.469-1.233s.3.019.866.072l2.481.245c2.152.228 5.272.5 9.132.771s8.463.5 13.579.629a308.72 308.72 0 0 0 16.645-.109 303.71 303.71 0 0 0 16.606-1.1c5.091-.5 9.667-1.053 13.5-1.611l9.054-1.432 2.456-.423.854-.131zm38.287-2.775s-.122.016-.355.025l-1.02.03-3.75.034a151.78 151.78 0 0 1-12.363-.537 136.18 136.18 0 0 1-12.269-1.628l-3.682-.718-1-.218-.344-.09a5.06 5.06 0 0 0 .353.05l1 .181 3.691.654c3.12.526 7.45 1.15 12.262 1.567s9.182.549 12.346.594l4.768.039c.241.004.363.017.363.017zm-48.838 40.303l-.8.126-2.306.321-3.66.406-4.867.329-5.912.126c-1.063-.008-2.162.007-3.295-.019l-3.49-.115c-4.776-.194-10.02-.554-15.512-1.035l-15.494-1.257c-4.766-.3-9.065-.5-12.677-.445l-2.576.017-2.294.113c-1.433.061-2.668.125-3.67.251l-2.315.229-.809.066s.276-.043.8-.107l2.312-.268c1-.139 2.237-.214 3.672-.285l2.3-.129 2.579-.031c3.615-.07 7.92.114 12.69.4 4.771.306 10 .78 15.5 1.242 5.491.481 10.73.848 15.5 1.051l3.487.123c1.131.029 2.229.018 3.291.029 2.124.043 4.1-.048 5.9-.1 1.807-.021 3.432-.213 4.864-.3s2.659-.239 3.66-.371l2.31-.283.812-.084zm57.555-11.477l-.433.06-1.246.133-4.591.377c-3.881.266-9.258.457-15.193.3s-11.3-.633-15.159-1.1l-4.564-.618-1.237-.2c-.283-.047-.429-.082-.429-.082s.15.008.435.042l1.241.159c1.077.148 2.639.34 4.569.554 3.863.431 9.218.882 15.148 1.041s11.3-.016 15.179-.243l4.593-.314 1.248-.094c.288-.015.439-.015.439-.015zm.692 35.526l-1.427-.084-4.093-.243c-3.556-.181-8.714-.223-15.072.093s-13.908 1.064-22.254 2.163l-27.134 3.76a236.35 236.35 0 0 1-27.317 2.079 125.48 125.48 0 0 1-22.3-1.617 89.08 89.08 0 0 1-14.616-3.687 28.19 28.19 0 0 1-2.224-.809l-1.613-.638-1.326-.537 1.34.5 1.62.619a28.71 28.71 0 0 0 2.229.791 90.86 90.86 0 0 0 14.613 3.621 126.5 126.5 0 0 0 22.274 1.571 238.86 238.86 0 0 0 27.293-2.094l27.136-3.744c8.352-1.078 15.906-1.835 22.271-2.121a149.72 149.72 0 0 1 15.084-.034c3.556.2 5.516.411 5.516.411zm-53.756 36.498s-4.7.8-12.363 1.621c-3.829.417-8.4.79-13.489 1.081-5.087.262-10.686.426-16.566.394-5.88-.052-11.479-.3-16.563-.631-5.082-.363-9.649-.8-13.472-1.274-7.65-.929-12.337-1.8-12.337-1.8s.3.032.857.111l2.454.359 3.886.543 5.157.641c3.823.454 8.39.877 13.468 1.23 5.082.325 10.676.562 16.552.615 5.874.031 11.47-.127 16.554-.378 5.083-.281 9.655-.638 13.484-1.037 1.918-.171 3.645-.4 5.166-.567s2.826-.339 3.894-.487l2.459-.324.859-.097zm53.168-6.998l-.52.172-1.5.455-5.558 1.561c-4.707 1.262-11.263 2.826-18.58 4.172s-14.005 2.2-18.855 2.691l-5.749.512-1.565.107c-.359.023-.547.025-.547.025s.187-.029.544-.065l1.562-.147 5.742-.576c4.843-.526 11.519-1.412 18.833-2.749s13.865-2.885 18.58-4.111l5.572-1.5 1.512-.417c.344-.092.529-.13.529-.13zm-90.461 47.761a71.13 71.13 0 0 1-7.608.747c-2.36.133-5.177.143-8.3.01-6.781-.323-13.499-1.447-20.015-3.35-3-.891-5.656-1.817-7.844-2.712a70.95 70.95 0 0 1-6.95-3.184s.171.067.487.211l1.378.642c.6.285 1.328.625 2.194.983s1.836.807 2.944 1.214c2.191.876 4.852 1.787 7.844 2.666a88.06 88.06 0 0 0 19.972 3.342c3.115.144 5.927.149 8.283.034 1.18-.023 2.244-.128 3.178-.19a48.77 48.77 0 0 0 2.4-.216l1.512-.156c.342-.035.525-.041.525-.041zm94.046-2.497l-.972.17-2.795.449-10.3 1.541c-8.7 1.245-20.751 2.785-34.1 4.113s-25.47 2.175-34.247 2.663l-10.4.512-2.828.109-.986.024s.339-.029.985-.065l2.826-.147 10.392-.577c8.774-.525 20.887-1.4 34.236-2.723s25.393-2.844 34.1-4.052l10.3-1.476 2.8-.41.989-.131zm5.123 36.007l-6.034 1.083c-3.897.637-9.558 1.426-16.594 2.01a216.4 216.4 0 0 1-24.779.606c-9.333-.3-19.552-1.34-30.238-2.652s-20.868-2.634-30.171-3.36c-8.233-.71-16.502-.893-24.758-.55a123.86 123.86 0 0 0-16.586 1.9c-1.938.372-3.437.684-4.446.932l-1.547.342 1.538-.382c1.006-.26 2.5-.584 4.44-.969a120.83 120.83 0 0 1 16.593-1.962 192.43 192.43 0 0 1 24.781.506c9.309.717 19.491 2.037 30.18 3.345s20.9 2.357 30.22 2.667a219.04 219.04 0 0 0 24.762-.562c7.033-.565 12.7-1.336 16.594-1.945l4.482-.744 1.563-.265zm28.675-200.874s-.284.776-.918 2.126c-.916 1.899-1.984 3.722-3.193 5.449a70.5 70.5 0 0 1-5.885 7.287c-2.364 2.618-5.083 5.381-7.842 8.364a71.48 71.48 0 0 0-7.134 8.943 37.38 37.38 0 0 0-4.2 8.317c-.7 1.982-1.155 4.042-1.354 6.135-.1.738-.068 1.319-.1 1.71-.016.392-.036.6-.036.6a21.18 21.18 0 0 1 .059-2.315 24.96 24.96 0 0 1 1.3-6.176 36.97 36.97 0 0 1 4.179-8.373 70.54 70.54 0 0 1 7.14-8.978l7.854-8.353a72.45 72.45 0 0 0 5.905-7.243 41.12 41.12 0 0 0 3.24-5.4c.351-.658.555-1.2.729-1.552s.256-.541.256-.541zm-45.026 16.844l.332-.242.973-.662 3.5-2.534 4.891-4.142a67.83 67.83 0 0 0 10.166-11.923l3.315-5.485 1.948-3.86.5-1.066.187-.366c-.734 1.832-1.571 3.622-2.506 5.36-.847 1.622-1.957 3.5-3.286 5.522a65.71 65.71 0 0 1-10.192 11.956l-4.931 4.119a52.69 52.69 0 0 1-4.897 3.323z" fill="#fff"/><path d="M181.323 235.265a1.03 1.03 0 0 1 .236-.11l.706-.272c.629-.213 1.524-.61 2.666-1.138a35.15 35.15 0 0 0 8.652-6.152 68.55 68.55 0 0 0 9.905-12.288 174.17 174.17 0 0 0 9.653-16.819 292.25 292.25 0 0 0 13.7-32.477l3.573-10.081.966-2.743.263-.71a1.01 1.01 0 0 1 .1-.237.99.99 0 0 1-.058.252l-.217.725-.878 2.774-3.427 10.137a271.8 271.8 0 0 1-13.595 32.582 168.43 168.43 0 0 1-9.712 16.846c-2.852 4.479-6.224 8.606-10.046 12.293a34.07 34.07 0 0 1-8.798 6.069c-.884.406-1.791.759-2.716 1.059l-.722.227c-.081.032-.165.053-.251.063zm-1.638 20.685a3.37 3.37 0 0 1 .535-.407l1.578-1.091 5.693-4.162c4.742-3.6 10.966-8.991 17.661-15.144l9.355-8.755a72.41 72.41 0 0 0 6.9-7.827 43.34 43.34 0 0 0 3.774-5.93c.409-.726.664-1.32.865-1.709a3.47 3.47 0 0 1 .322-.589 3.44 3.44 0 0 1-.231.63c-.173.4-.4 1.013-.786 1.755a38.96 38.96 0 0 1-3.666 6.049 68.81 68.81 0 0 1-6.856 7.94c-2.775 2.811-5.988 5.728-9.344 8.8-5.671 5.314-11.606 10.34-17.782 15.058-2.394 1.782-4.394 3.138-5.8 4.044-.7.454-1.256.787-1.632 1.016a3.52 3.52 0 0 1-.586.322zm-26.376 104.514a.96.96 0 0 1 .116-.22l.385-.621 1.577-2.321c1.417-1.984 3.6-4.763 6.476-8.034l22.853-25.2 22.987-25.078 7.007-7.563 1.924-2.039.509-.522a.95.95 0 0 1 .186-.166.99.99 0 0 1-.149.2l-.474.555-1.855 2.1-6.891 7.667-22.88 25.178-22.957 25.1c-2.906 3.236-5.121 5.972-6.581 7.917l-1.648 2.264-.425.592c-.045.07-.098.135-.16.191zm91.26-175.702c-.164-.484-.288-.982-.369-1.487a17.25 17.25 0 0 1-.311-1.77l-.275-2.367-.139-2.886c-.04-1.04.029-2.15.081-3.318.335-5.076 1.573-10.051 3.656-14.692.5-1.056.961-2.069 1.484-2.968.482-.922 1-1.742 1.475-2.485.454-.759.946-1.39 1.352-1.961a17.34 17.34 0 0 1 1.1-1.419 9.26 9.26 0 0 1 1.022-1.141c-.254.443-.546.864-.871 1.258-.3.39-.655.872-1.031 1.46s-.852 1.223-1.283 1.986c-.456.749-.949 1.572-1.411 2.493-.5.9-.942 1.908-1.428 2.959a44.81 44.81 0 0 0-3.62 14.543c-.062 1.155-.148 2.252-.124 3.283-.024 1.03.026 1.988.077 2.862.022.877.137 1.663.2 2.357a23.66 23.66 0 0 0 .228 1.772 9.38 9.38 0 0 1 .187 1.521zm14.223 35.073a92.35 92.35 0 0 1-3.93-8.679 92.4 92.4 0 0 1-3.479-8.871 92.82 92.82 0 0 1 3.93 8.68c1.311 2.895 2.472 5.856 3.479 8.87zM119.04 188.843c-.075.041-.836-1.358-2.275-3.477a48.87 48.87 0 0 0-14.249-13.829c-2.161-1.374-3.583-2.092-3.544-2.169a4.93 4.93 0 0 1 1.035.43c.656.3 1.579.79 2.69 1.445 5.807 3.46 10.723 8.232 14.356 13.933.688 1.091 1.205 2 1.524 2.646a4.97 4.97 0 0 1 .463 1.021zm38.407-23.116a3.24 3.24 0 0 1-.01-1.007 7.89 7.89 0 0 1 .6-2.359c.382-.926.941-1.77 1.646-2.482l.055-.053.027.066a1.51 1.51 0 0 1 .15.429 1.52 1.52 0 0 1-.241-.386l.082.013a9.8 9.8 0 0 0-1.532 2.492 12.36 12.36 0 0 0-.777 3.287zm12.943 6.708a3.4 3.4 0 0 1-.2-.975 9.2 9.2 0 0 1 .733-4.712 3.37 3.37 0 0 1 .487-.868 12.22 12.22 0 0 0-1.02 6.555zm14.111-1.114a10.6 10.6 0 0 0-1.434-5.241c.198.189.363.411.487.656a7.45 7.45 0 0 1 1.032 3.773 2.4 2.4 0 0 1-.085.812zm12.335-5.406a11.13 11.13 0 0 0-3.521-4.508 2.64 2.64 0 0 1 .735.444 7.91 7.91 0 0 1 2.533 3.243 2.67 2.67 0 0 1 .253.821zm8.496-8.379a5.44 5.44 0 0 0-4.569-3.945c0-.014.091-.02.257-.018a3.32 3.32 0 0 1 .7.091c1.544.367 2.812 1.463 3.4 2.937a3.3 3.3 0 0 1 .192.676c.026.165.034.256.02.259zm4.545-15.479c-1.494-1.282-3.561-1.664-5.414-1a4.48 4.48 0 0 1 5.414 1zm-60.913 13.24a2.32 2.32 0 0 1 .205-.837 5.62 5.62 0 0 1 2.771-3.013c.253-.141.53-.235.817-.275a6.87 6.87 0 0 0-3.793 4.125zm-3.089-10.302c.117-.288.282-.555.486-.79a7.17 7.17 0 0 1 3.665-2.478c.294-.102.603-.155.914-.157a9.12 9.12 0 0 0-5.065 3.426z" class="S"/><path d="M121.575 205.072c-.007.014-.044-.052-.065.01-.04.103-.067.211-.08.321l-.161 1.313-.382 4.87-.909 16.1-.673 16.116-.16 4.885-.055 1.328c.005.156-.012.312-.052.463a1.64 1.64 0 0 1-.051-.463l-.04-1.33v-4.893c.048-4.13.218-9.835.524-16.131s.686-11.988 1.059-16.1c.186-2.058.371-3.721.545-4.866a11.85 11.85 0 0 1 .258-1.312c.026-.118.074-.229.14-.33.093-.091.115.041.102.019zM229.282 7.615c-8.155-2.494-16.654 4.8-25.022 3.165-5.082-1-8.919-5.055-13.439-7.58-6.76-3.776-16.32-4.386-23.224-.881s-11.355 7.249-12.3 14.935c-6.284-3.606-16.769 4.3-20.34 11.937s-2.674 15.524-.647 23.7c3.509 14.125 9.757 27.424 18.39 39.142.763 1.034 1.981 2.178 3.144 1.632.742-.514 1.191-1.352 1.208-2.254 1.2-7.481.253-15.114-.394-22.662s-.965-15.331 1.418-22.522 8.01-13.752 15.442-15.219c5.489-1.085 11.193.7 16.073 3.441s9.168 6.4 13.815 9.523 9.864 5.746 15.455 5.99 11.588-2.393 13.97-7.457-.29-12.258-5.764-13.419a11 11 0 0 0 2.209-21.473z" class="P"/><path d="M204.131 138.758l-.79-16.188s21.334-4.088 20.846-25.545c-.235-10.361-2.456-31.655-4.689-50.906-2.4-20.703-20.298-36.092-41.127-35.361l-2.07.072c-22.269 2.086-32.937 22.164-30.235 44.366l5.134 86.426c.862 14.547 13.307 25.668 27.859 24.895 14.576-.769 25.786-13.18 25.072-27.759z" class="T"/><path d="M203.366 122.555s-13.515 1.578-28.239-6.965c0 0 7.15 15.2 28.484 12.521z" class="Q"/><path d="M212.271 60.661c.074 1.66-1.188 3.076-2.845 3.194a2.93 2.93 0 0 1-3.254-2.651c-.075-1.659 1.186-3.076 2.842-3.195a2.93 2.93 0 0 1 2.187.64c.613.5.999 1.225 1.07 2.012zm2.983-3.896c-.366.413-2.745-1.223-6.042-1.1-3.294.077-5.652 1.857-6.024 1.466-.183-.172.179-.907 1.205-1.711a8.41 8.41 0 0 1 4.806-1.668c1.714-.066 3.404.415 4.826 1.374 1.042.747 1.411 1.453 1.229 1.639zm-35.359 6.15c.074 1.66-1.188 3.076-2.845 3.194a2.93 2.93 0 0 1-3.254-2.651c-.074-1.659 1.186-3.075 2.842-3.195.786-.091 1.574.14 2.188.639s.999 1.225 1.069 2.013zm2.986-4.399c-.367.413-2.75-1.222-6.044-1.1-3.293.077-5.653 1.856-6.025 1.465-.181-.172.177-.906 1.207-1.71a8.4 8.4 0 0 1 4.8-1.669 8.08 8.08 0 0 1 4.827 1.374c1.043.744 1.413 1.457 1.235 1.64zm12.818 24.025c-.022-.187 2.014-.613 5.319-1.154.838-.116 1.629-.312 1.751-.892.041-.871-.186-1.735-.649-2.474l-2.714-6.321c-3.776-9-6.541-16.418-6.178-16.567s3.721 7.028 7.5 16.031q1.365 3.332 2.61 6.363c.565.997.76 2.162.552 3.289-.226.61-.72 1.081-1.34 1.279-.462.143-.939.226-1.422.249-3.338.297-5.41.382-5.429.197zm-9.62 2.619c.535-.05.667 3.527 3.818 5.958s6.946 1.905 6.992 2.4c.058.222-.825.724-2.433.824-2.094.104-4.157-.533-5.828-1.8a7.77 7.77 0 0 1-2.973-5.005c-.19-1.489.178-2.39.424-2.377zm-3.463-43.544c-.294.907-3.6.6-7.449 1.2-3.864.525-6.942 1.766-7.483.981-.242-.377.272-1.239 1.5-2.151a13.12 13.12 0 0 1 11.376-1.661c1.441.517 2.181 1.201 2.056 1.631zm31.093 5.651c-.553.769-2.852.071-5.583.131-2.733-.036-5.024.679-5.584-.085-.246-.371.091-1.134 1.076-1.878a8.09 8.09 0 0 1 9-.037c.991.735 1.334 1.496 1.091 1.869z" class="P"/><path d="M148.375 71.015c-.371-.145-14.889-3.842-13.906 10.8s15.484 10.639 15.481 10.217-1.575-21.017-1.575-21.017z" class="T"/><path d="M145.104 86.788c-.067-.042-.243.2-.662.422-.588.299-1.269.359-1.9.167-1.585-.463-3.053-2.833-3.3-5.468a8.47 8.47 0 0 1 .469-3.7c.217-.947.885-1.728 1.788-2.087a1.3 1.3 0 0 1 1.552.6c.224.4.151.7.23.715.044.034.3-.266.14-.863-.106-.357-.331-.667-.638-.879-.424-.277-.939-.378-1.436-.279-1.206.325-2.157 1.252-2.512 2.45-.539 1.31-.748 2.732-.611 4.142.292 2.945 1.989 5.6 4.146 6.075a2.74 2.74 0 0 0 2.308-.544c.423-.396.479-.728.426-.751z" class="Q"/><path d="M223.878 41.464a30.99 30.99 0 0 1-27.735-5.233c-5.372-4.241-9.621-10.458-16.229-12.242-4.449-1.2-9.3-.079-13.258 2.29-3.885 2.507-7.212 5.787-9.773 9.636 4.525 10.755 2.168 23.019-.256 34.432-.132 1.292-.691 2.504-1.589 3.442-1.687 1.4-4.321.444-5.889-1.085-2.509-2.448-3.573-5.995-4.313-9.421a60.37 60.37 0 0 1-.692-23.789 41.09 41.09 0 0 1 10.558-21.123c7.173-7.106 16.827-11.147 26.924-11.269a47.8 47.8 0 0 1 28.057 8.939c3.79 2.659 7.311 5.91 9.368 10.058" class="P"/><path d="M235.621 12.565a3.15 3.15 0 0 1-.087 1.276 5.95 5.95 0 0 1-1.943 3.1 9.34 9.34 0 0 1-5.415 2.02 15.67 15.67 0 0 1-3.647-.1c-1.387-.183-2.7-.736-3.8-1.6a5.18 5.18 0 0 1-1.978-4.076 4.56 4.56 0 0 1 2.983-3.853 5.64 5.64 0 0 1 2.626-.428 4.79 4.79 0 0 1 2.557 1.042 6.67 6.67 0 0 1 2.364 5.05 7.73 7.73 0 0 1-2.123 5.461 11.77 11.77 0 0 1-5.207 3.2c-4.027 1.261-8.527.646-12.577-.924a55.2 55.2 0 0 1-11.072-6.149 70.08 70.08 0 0 0-10.056-5.934 21.74 21.74 0 0 0-10.16-2.1 20.78 20.78 0 0 0-8.694 2.56 25.96 25.96 0 0 0-9.418 9.183c-.641 1.028-1.227 2.09-1.754 3.181a10 10 0 0 1-.576 1.134c.016-.108.047-.213.093-.312.075-.2.182-.5.35-.884a27.36 27.36 0 0 1 1.644-3.266 25.65 25.65 0 0 1 9.411-9.486 21.17 21.17 0 0 1 8.905-2.713 22.26 22.26 0 0 1 10.47 2.087 69.64 69.64 0 0 1 10.179 5.956 55.1 55.1 0 0 0 10.936 6.063c3.96 1.534 8.278 2.113 12.109.922a11.09 11.09 0 0 0 4.9-2.988c1.284-1.335 1.991-3.123 1.967-4.975a6.03 6.03 0 0 0-2.091-4.567c-1.295-1.022-3.053-1.237-4.556-.556a3.98 3.98 0 0 0-2.652 3.321c-.006 1.422.638 2.768 1.748 3.656 1.023.819 2.246 1.349 3.542 1.537a15.4 15.4 0 0 0 3.539.148c1.902-.047 3.742-.687 5.263-1.83a6 6 0 0 0 1.984-2.916 10.05 10.05 0 0 0 .236-1.24zM132.793 41.911a24.16 24.16 0 0 0 4.519 1.006 12.61 12.61 0 0 0 4.9-.682 21.17 21.17 0 0 0 5.405-2.839 17.14 17.14 0 0 0 6.226-8.965c.372-1.506.645-3.034.815-4.576.112.412.153.84.121 1.266a14.6 14.6 0 0 1-.44 3.444 16.73 16.73 0 0 1-6.295 9.418c-1.715 1.248-3.613 2.222-5.627 2.889a12.43 12.43 0 0 1-5.146.557 11.6 11.6 0 0 1-3.363-.9c-.405-.14-.782-.349-1.115-.618zm1.012 10.589c.016-.134 1.74.187 4.5-.066a20.13 20.13 0 0 0 16.713-11.911c1.14-2.527 1.4-4.261 1.532-4.232a3.57 3.57 0 0 1-.113 1.222 16.71 16.71 0 0 1-.945 3.211c-2.821 7.088-9.529 11.869-17.15 12.222-1.117.06-2.237.009-3.344-.154-.412-.028-.815-.126-1.193-.292z" class="S"/><path d="M172.42 72.912a.4.4 0 1 1 .262-.471c.057.202-.06.412-.262.471zm6.247-1.649a.47.47 0 0 1-.63-.62.47.47 0 0 1 .879.092.42.42 0 0 1-.249.528zm4.236-.254c-.2.032-.4-.2-.454-.529s.066-.613.264-.645.4.205.454.53-.066.613-.264.644zm-7.249 5.747c-.2.007-.368-.092-.372-.22s.155-.239.356-.245.367.092.371.22-.154.239-.355.245zm5.729-1.543c-.168.043-.345-.023-.445-.165s-.1-.331-.003-.474.274-.211.443-.17.294.182.315.354a.39.39 0 0 1-.311.455zm29.928-4.641c-.161.059-.342.012-.454-.117a.41.41 0 0 1-.051-.466c.082-.151.247-.236.417-.214a.41.41 0 0 1 .348.314c.03.099.019.205-.03.296s-.132.158-.23.187zm4.278-.543a.47.47 0 1 1 .3-.5.42.42 0 0 1-.3.5zm-8.063.782c-.172.017-.326-.103-.351-.274s.089-.331.259-.363a.32.32 0 0 1 .373.243c.031.186-.095.362-.281.394zm3.331 4.18c-.147.099-.34.097-.485-.006s-.209-.285-.163-.457.194-.296.371-.312.345.079.422.238c.107.188.043.428-.145.537zm3.644-.86a.31.31 0 0 1-.171-.391.31.31 0 0 1 .381-.193.31.31 0 0 1 .214.37.34.34 0 0 1-.424.215z" class="Q"/><path fill="#f8c81e" d="M207.239 317.762l-.231-21.73s-14.5-20.089-8.78-41.882c0 0 9.456-6.65 34.8-2.751 0 0 31.822-31 74.477-23.119s46.621 45.053 47.026 55.17.317 29.766-14.364 48.975l-.988 19.062s-3.5 7.183-13.623 6.695-9.547-1.978-9.547-1.978-12.692 10.256-13.259 12.942l-2.543 12.828s-4.4 6-13.921 6.7a20.53 20.53 0 0 1-10.874-2.229 10.73 10.73 0 0 1-5.385-6.318c-1.841-6.087-6.192-11.1-11.961-13.777l-6.568-1.717s-2.653 2.41-11.872 3.4-9.252-2.283-9.252-2.283-14.34 3.316-25.121-10.748c-8.514-11.116-13.132-31.126 1.986-37.24z"/><path d="M295.66 319.022a4.85 4.85 0 0 1 .469-.67l1.4-1.874 4.743-7.162a82.5 82.5 0 0 0 5.609-11.42l2.458-7.1c.718-2.473 1.345-5.189.7-7.835-.776-2.55-2.44-4.738-4.692-6.165a33.28 33.28 0 0 0-6.627-3.442 44.1 44.1 0 0 0-12.314-2.962 44.96 44.96 0 0 0-8.568 0l-2.321.272c-.268.049-.54.076-.813.081a4.78 4.78 0 0 1 .8-.183c.525-.113 1.305-.241 2.316-.368a41.85 41.85 0 0 1 8.62-.163 43.46 43.46 0 0 1 12.456 2.885 33.37 33.37 0 0 1 6.741 3.47 11.59 11.59 0 0 1 4.9 6.449c.681 2.812.011 5.606-.715 8.1a81.82 81.82 0 0 1-2.5 7.135 79.13 79.13 0 0 1-5.735 11.431c-1.496 2.457-3.13 4.828-4.894 7.1l-1.479 1.818a4.93 4.93 0 0 1-.554.603zm-59.642-66.682a1.66 1.66 0 0 1 .151.505 5.29 5.29 0 0 1 .066 1.513c-.245 1.869-1.102 3.605-2.438 4.936-1.6 1.761-4.024 3.2-6.387 5.131a54.18 54.18 0 0 0-7.146 6.928c-3.936 4.597-7.112 9.793-9.407 15.392-.874 2.15-1.458 3.938-1.842 5.179l-.429 1.434a2.08 2.08 0 0 1-.184.493 2.02 2.02 0 0 1 .084-.517l.338-1.463a48.97 48.97 0 0 1 1.7-5.259c2.216-5.688 5.38-10.96 9.356-15.592a52.36 52.36 0 0 1 7.24-6.963c2.414-1.94 4.835-3.333 6.419-5.013 1.91-1.67 2.845-4.194 2.482-6.706z" class="P"/><path d="M253.067 255.003l12.976 3.313s19-21.352 39.862-26.75l-7.815-1.843a90.25 90.25 0 0 0-45.023 25.28z" fill="#d1a919" opacity=".5"/><path d="M301.67 230.547a87.7 87.7 0 0 0-44.575 25.449l-4.028-.993s18.4-20.193 45.023-25.28z" class="X"/><path d="M301.67 230.547a87.7 87.7 0 0 0-44.575 25.449l-4.028-.993s18.4-20.193 45.023-25.28z" opacity=".7"/><path fill="#7b630e" d="M200.971 322.197c7.193-10.288 25.21-7.145 33.434 2.11 8.1 9.119 11.874 21.979 6.523 32.941-2.285 4.681-6.666 8.813-11.874 8.7a24.45 24.45 0 0 0 5.568-21.748c-1.674-7.679-6.507-14.446-12.627-19.377-3.1-2.5-6.59-5.25-10.557-5.645s-7.153-.507-10.467 3.019" opacity=".3"/><path d="M296.376 318.411c.047 2.259 1.772 4.129 4.02 4.358a6.9 6.9 0 0 0 5.757-2.523c1.367-1.707 2.366-3.678 2.935-5.789 2.245-7.044 3.408-17.559 2.232-24.858-3.111 9.457-8.665 21.243-15.108 28.833m6.979-32.535c-1.4-4.136-5.679-6.541-9.8-7.977a47.29 47.29 0 0 0-13.036-2.561 10.37 10.37 0 0 0-4.15.407 4.11 4.11 0 0 0-2.732 2.937 2.75 2.75 0 0 0 1.39 2.835 77.43 77.43 0 0 1 15.515 28.172 2.64 2.64 0 0 0 4.535.97c3.326-3.789 5.242-8.9 6.962-13.754 1.257-3.557 2.526-7.448 1.316-11.029zm-93.47 1.914a41.4 41.4 0 0 1-6.581-23.209c.037-1.726.248-3.6 1.454-4.838 1.459-1.5 3.819-1.524 5.9-1.393a112.41 112.41 0 0 1 17.1 2.408c.44.1.941.246 1.115.662a1.69 1.69 0 0 1-.383 1.967c-8.754 5.368-14.958 15.242-18.267 24.9" opacity=".3"/><path d="M198.823 254.926c.022.493.001.987-.065 1.476l-.23 4.007a65.32 65.32 0 0 0 .859 13.168 63.05 63.05 0 0 0 1.687 7.072 58.57 58.57 0 0 0 2.025 5.585l1.663 3.65a8.21 8.21 0 0 1 .606 1.348c-.297-.394-.559-.814-.781-1.255-.485-.82-1.112-2.049-1.818-3.6-.822-1.82-1.537-3.687-2.143-5.59a57.89 57.89 0 0 1-1.74-7.124 58.45 58.45 0 0 1-.718-13.272l.392-4.012a8.1 8.1 0 0 1 .263-1.453zm98.5-25.907a2.2 2.2 0 0 1-.5.183l-1.469.428-2.319.687-3.048.982-7.774 2.986c-2.87 1.26-5.975 2.76-9.136 4.519a108.49 108.49 0 0 0-8.622 5.439c-2.555 1.816-4.791 3.544-6.6 5.076-.927.742-1.715 1.47-2.427 2.088a61.06 61.06 0 0 0-1.795 1.62l-1.132 1.03a2.19 2.19 0 0 1-.419.335 2.1 2.1 0 0 1 .347-.408l1.067-1.1c.463-.478 1.041-1.052 1.741-1.688s1.471-1.389 2.385-2.152c1.789-1.572 4.013-3.337 6.565-5.184 5.557-3.985 11.539-7.339 17.837-10.002 2.907-1.213 5.572-2.19 7.847-2.9 1.127-.382 2.171-.652 3.08-.913a42.07 42.07 0 0 1 2.348-.605l1.5-.336c.17-.051.346-.079.524-.085zm11.399 51.656c-.075.084-1.553-1.416-4.388-3.224a35.05 35.05 0 0 0-5.216-2.728c-2.222-.925-4.522-1.65-6.873-2.167a42.21 42.21 0 0 0-13.043-.785c-3.346.341-5.369.9-5.393.794a8.08 8.08 0 0 1 1.41-.42 30.53 30.53 0 0 1 3.945-.731 39.41 39.41 0 0 1 13.192.645 38.6 38.6 0 0 1 6.947 2.234 32.51 32.51 0 0 1 5.232 2.857l1 .682.848.671a13.52 13.52 0 0 1 1.313 1.121c.373.318.717.67 1.026 1.051zm-87.436 83.694a1.72 1.72 0 0 1-.467-.126l-1.3-.469a30.89 30.89 0 0 1-4.561-2.271 33.52 33.52 0 0 1-16.31-27.928 30.59 30.59 0 0 1 .263-5.088c.068-.6.176-1.054.231-1.365a1.72 1.72 0 0 1 .12-.469c-.017.621-.069 1.241-.155 1.857a36.41 36.41 0 0 0-.1 5.052 34.25 34.25 0 0 0 16.139 27.635 36.33 36.33 0 0 0 4.45 2.4 16.86 16.86 0 0 1 1.69.772z" class="R"/><path d="M223.849 341.78a4.15 4.15 0 0 0-4.382 1.131 5.37 5.37 0 0 0-1.241 4.47c.155 1.526.812 2.958 1.868 4.07.881.856 2.013 1.408 3.23 1.574a4.13 4.13 0 0 0 3.627-2.313c.85-1.582.999-3.449.41-5.146s-1.862-3.07-3.51-3.785" opacity=".2"/><use xlink:href="#B" class="X"/><use xlink:href="#B" opacity=".4"/><path d="M209.443 336.225a4 4 0 0 0-4.226 1.091c-1.032 1.181-1.474 2.766-1.2 4.311a6.67 6.67 0 0 0 1.8 3.926 5.55 5.55 0 0 0 3.117 1.518c1.493-.029 2.844-.891 3.5-2.232.82-1.527.963-3.327.395-4.964s-1.797-2.961-3.387-3.651" opacity=".2"/><use xlink:href="#C" class="X"/><use xlink:href="#C" opacity=".4"/><g class="P"><path d="M248.312 308.71c.077-.013-.078.01 0 0zm-1.78.561c.042-.028.1-.039.141-.065l.065-.036z"/><path d="M253.919 312.373a5.54 5.54 0 0 0-2.533-2.978 6.5 6.5 0 0 0-2.988-.694l-.087.009a3.81 3.81 0 0 0-1.639.5 7.08 7.08 0 0 0-3.915 5.719 7.83 7.83 0 0 0 4.5 7.421 4.1 4.1 0 0 0 5.512-1.313 8.82 8.82 0 0 0 1.15-8.664zm-36.062-13.053c.068-.012-.067.009 0 0zm-1.541.484c.037-.024.083-.033.122-.056.018-.01.036-.023.056-.031z"/><path d="M222.715 302.492a4.8 4.8 0 0 0-2.195-2.579c-.803-.403-1.69-.609-2.588-.6l-.075.008a3.29 3.29 0 0 0-1.42.429c-1.916.948-3.201 2.825-3.391 4.954a6.78 6.78 0 0 0 3.9 6.428 3.55 3.55 0 0 0 4.774-1.137 7.64 7.64 0 0 0 .995-7.503zm1.971 16.315a2.85 2.85 0 0 1 .609.125c.4.087.97.27 1.7.519a22.92 22.92 0 0 1 5.751 3.124 25.8 25.8 0 0 1 6.572 7.134 30.11 30.11 0 0 1 4.088 11.147 35.29 35.29 0 0 1-.136 11.884c-.518 3.244-1.921 6.282-4.054 8.781-1.47 1.657-3.372 2.873-5.492 3.514a6.7 6.7 0 0 1-2.378.325c.785-.115 1.561-.287 2.321-.513a12.18 12.18 0 0 0 5.282-3.566 17.76 17.76 0 0 0 3.861-8.627 35.58 35.58 0 0 0 .095-11.717 30.16 30.16 0 0 0-3.984-10.98c-1.675-2.738-3.841-5.143-6.391-7.093a24.36 24.36 0 0 0-5.606-3.226l-2.238-.831z"/></g><path d="M215.328 307.242c-.05.038-.3-.175-.564-.635-.662-1.24-.667-2.728-.013-3.972.259-.461.51-.676.561-.639a6.56 6.56 0 0 0 .016 5.247zm29.468 10.8c-.052.032-.3-.221-.511-.742-.529-1.403-.265-2.982.692-4.136.371-.422.685-.583.724-.535a5.86 5.86 0 0 0-.905 5.413z" class="R"/><path d="M263.346 369.708c-.052.074-1.236-.747-3.3-1.78a62.06 62.06 0 0 0-8.4-3.326l-8.636-2.811-2.577-.981a3.81 3.81 0 0 1-.912-.444c.027-.072 1.384.4 3.6 1.083l8.683 2.671a49.76 49.76 0 0 1 8.41 3.49l1.359.8a10.77 10.77 0 0 1 .989.661 3.88 3.88 0 0 1 .784.637zm69.358-31.49a10.15 10.15 0 0 1-.894 1.375c-.592.874-1.519 2.089-2.7 3.56a100.47 100.47 0 0 1-10.227 10.615c-4.265 3.87-8.245 7.225-11.059 9.727l-3.328 2.969a10.05 10.05 0 0 1-1.254 1.055 10.16 10.16 0 0 1 1.119-1.2c.739-.754 1.843-1.807 3.222-3.092 2.757-2.575 6.7-5.976 10.957-9.836 3.644-3.274 7.081-6.771 10.293-10.47 1.215-1.434 2.182-2.612 2.822-3.447a10.06 10.06 0 0 1 1.049-1.256z" class="P"/><path d="M316.084 356.325c5.266.428 11.231-1.186 14.971-4.918 3.83-3.905 4.928-9.734 2.782-14.765-3.067 4.378-6.528 9.034-10.75 12.609-2.664 2.256-4.427 5-7 7.074" opacity=".2"/><path d="M297.355 233.365c6.8 10.076 20.873 13.257 27.657 23.345 2.627 3.9 3.925 8.529 5.183 13.064l15.657 56.439c.649-12.231-2.3-24.334-5.226-36.227l-8.668-35.228a16.4 16.4 0 0 0-8.9-12.7c-8.032-5.392-16.3-10.891-25.734-13.04" fill="#d1a919" opacity=".5"/><path d="M249.372 263.853c.43 1.371-1.442 3.232-4.369 5.55l-5.094 3.889-6.026 4.71-5.841 4.942-4.844 4.2c-2.866 2.394-5.07 3.848-6.324 3.147-1.2-.664-1.173-3.48.5-7.378 1-2.256 2.269-4.383 3.78-6.334a39.13 39.13 0 0 1 13.923-11.325 30.55 30.55 0 0 1 6.97-2.412c4.156-.85 6.92-.298 7.325 1.011z" fill="#fff" opacity=".3"/><path d="M223.221 341.007l-4.435 1.05a5.4 5.4 0 0 1 4.435-1.05zm-14.838-5.385c-.68.158-1.369.276-2.063.354a17.95 17.95 0 0 1-2.011.585c-.087-.1.68-.806 1.9-1.081a2.78 2.78 0 0 1 2.174.142zm65.811 45.451c-.13.071-1.431-2.124-3.24-4.69l-3.315-4.638a29.56 29.56 0 0 1 6.555 9.327zm-58.228-102.596c.131.088-1.794 2.909-3.468 6.742-1.7 3.824-2.475 7.149-2.63 7.111a8.12 8.12 0 0 1 .39-2.207 33.62 33.62 0 0 1 4.343-9.867 8.13 8.13 0 0 1 1.365-1.779zm47.393-18.927a29.53 29.53 0 0 1-10.616-3.712c.064-.134 2.373.868 5.3 1.886s5.349 1.681 5.316 1.826z" class="R"/><path d="M339.606 243.697c-2.284 3.123-5.647 5.287-9.436 6.071 1.718-.766 3.393-1.624 5.018-2.57a52.6 52.6 0 0 0 4.418-3.501z" class="Q"/><path d="M368.238 237.161c-5.253-12.12-57.8-55.155-57.8-55.155l-29.616 38.459c.424-.579 48.32 28.6 48.32 28.6l14.131 64.4 2.428 11.465s-6.352 5.544-6.092 11.4c.174 3.906-8.842 12.324-8.842 12.324-2.131-1.774-3.5-2.269-4.573-2.064l-9.532 8.922 2.27 2.073c2.528 2.308 5.856 3.54 9.278 3.435l16.3-.5c2.323-.069 4.528-1.04 6.147-2.707 5.012-5.159 15.587-16.676 15.8-22.236a200.19 200.19 0 0 0 .134-8.454c0-.007 6.898-77.842 1.647-89.962z" class="T"/><g class="Q"><path d="M352.639 340.153c-.268.239-.572.435-.9.581l-2.588 1.311c-1.229.712-2.314 1.646-3.2 2.755a18.2 18.2 0 0 1-3.891 3.632 15.23 15.23 0 0 1-9.227 2.541 5.02 5.02 0 0 1-1.677-.287c-.448-.154-.759-.564-.785-1.037a.86.86 0 0 1 .338-.755c.172-.1.281-.08.281-.069s-.1.038-.22.148a.79.79 0 0 0-.209.665c.05.384.326.7.7.8.514.149 1.05.215 1.585.195a15.61 15.61 0 0 0 8.941-2.6 18.65 18.65 0 0 0 3.827-3.525c.933-1.13 2.078-2.067 3.37-2.758 1.112-.559 2.045-.9 2.669-1.178a6.54 6.54 0 0 1 .986-.419zm-7.452 8.485c.066.127-1.277.918-2.728 2.151l-2.576 2.33a10.23 10.23 0 0 1 5.3-4.481z"/><path d="M351.779 321.959c.009.148-1.44.239-3.01.991-1.581.731-2.572 1.79-2.681 1.69a6.09 6.09 0 0 1 5.69-2.682zm-10.197 31.705c-.037.081-1.051-.421-2.8-.837a16.46 16.46 0 0 0-6.939-.139c-.65.132-1.291.305-1.919.517a7.34 7.34 0 0 1-.958.287 1.38 1.38 0 0 1-1.047-.222l-2.59-1.885c-.819-.543-1.589-1.158-2.3-1.837.88.441 1.72.958 2.51 1.545l2.633 1.782c.422.324.948.084 1.59-.143a15.03 15.03 0 0 1 9.112-.255c.697.2 1.375.457 2.029.77.453.239.694.386.679.417z"/></g><path d="M231.045 204.287l-9.047-2.569.018-2.843 2.494-.028c2.493-.028 6.1-3.112 6.1-3.112l5.343-8.191.688-5.244c-.573-6.478-8.374-3.945-8.374-3.945-.367-2.259-10.357-4.528-17.863-5.921a17.28 17.28 0 0 0-14.307 3.772l-7.207 6.082-21.594 18.908-55.729 47.073-36.629-10.816s-11.646 35.641-13.551 48.44c-3.649 24.53 30.064 40.875 44.926 28.253 11.554-9.814 78.952-82.388 90.116-94.426h.093c6.873-.877 18.453-7.815 18.453-7.815l5.954.7s15.822 3.022 17.694-.082c1.464-2.437-1.315-6.446-7.578-8.236z" class="T"/><g class="Q"><path d="M198.595 197.165c.032-.014.155.231.349.687a12.55 12.55 0 0 1 .641 2 17.91 17.91 0 0 1-2.131 13.409 12.53 12.53 0 0 1-1.231 1.7c-.327.374-.518.568-.546.546-.071-.058.62-.9 1.464-2.429a19.63 19.63 0 0 0 2.091-13.151l-.637-2.762zm4.036-19.957c.199-.061.404-.1.612-.116l1.771-.205a27.46 27.46 0 0 1 6.563.077 15.75 15.75 0 0 1 4.37 1.3c1.609.738 3.031 1.827 4.163 3.188 1.277 1.52 1.985 3.438 2 5.424a6.69 6.69 0 0 1-.77 3.022 10.65 10.65 0 0 1-1.916 2.546 29.64 29.64 0 0 1-4.786 3.764 15.03 15.03 0 0 1-2.566 1.4 3.58 3.58 0 0 1-1.465.246c-.527-.026-1.018-.274-1.352-.682-.299-.404-.448-.898-.424-1.4a4.38 4.38 0 0 1 .249-1.34 9.43 9.43 0 0 1 1.146-2.261c.864-1.26 2.017-2.295 3.362-3.019l.055.34-6.668-1.269-1.81-.368a2.98 2.98 0 0 1-.625-.164 3.01 3.01 0 0 1 .643.062l1.825.275 7.214 1.193-.46.255a9.28 9.28 0 0 0-3.184 2.938c-.452.67-.812 1.398-1.071 2.164-.33.741-.287 1.596.116 2.3a1.96 1.96 0 0 0 2.283.272 14.77 14.77 0 0 0 2.463-1.367 29.62 29.62 0 0 0 4.694-3.7 7.6 7.6 0 0 0 2.551-5.217 8.1 8.1 0 0 0-1.868-5.123 11.48 11.48 0 0 0-3.98-3.1c-1.344-.643-2.773-1.09-4.244-1.329-2.149-.314-4.325-.393-6.491-.235l-1.774.111c-.207.028-.417.034-.626.018z"/><path d="M228.332 178.689c.107.342.165.696.174 1.054.094.966.132 1.937.114 2.908.004 3.242-.835 6.43-2.435 9.25-1.946 3.27-5.019 5.385-7.546 5.712a3.17 3.17 0 0 1-2.756-.948 2.06 2.06 0 0 1-.415-.7c-.059-.176-.061-.275-.047-.279.164.303.366.585.6.838a3.04 3.04 0 0 0 2.571.729c2.332-.388 5.284-2.462 7.152-5.618a19.6 19.6 0 0 0 2.512-9l.076-3.946z"/><path d="M214.5 206.606c-.055-.063.454-.506 1.055-1.38 1.613-2.289 1.902-5.259.759-7.816-.421-.973-.835-1.506-.769-1.557a3.48 3.48 0 0 1 1.094 1.4c1.404 2.641 1.091 5.866-.795 8.188-.709.86-1.311 1.211-1.344 1.165zm-9.495-18.53a3.21 3.21 0 0 1 .314 2.14 5.73 5.73 0 0 1-.682 2.282c-.446.861-1.005 1.658-1.664 2.369a12.23 12.23 0 0 1-4.391 2.81 8.19 8.19 0 0 1-2.039.677 10.08 10.08 0 0 1 1.891-1.006 13.93 13.93 0 0 0 4.169-2.83 11.58 11.58 0 0 0 1.625-2.246c.377-.647.627-1.359.736-2.1a9.86 9.86 0 0 0 .041-2.096z"/></g><path d="M246.567 190.967l-27.5 14.992s14.711 3.676 28.024 17.768a80.99 80.99 0 0 1 16.738 26.622l27.4-18.229s-14.708-33.371-44.662-41.153z" class="S"/><path d="M223.917 205.395l22.269-12.726.072.02c3.926 1.06 7.7 2.615 11.233 4.629a62.88 62.88 0 0 1 11.2 8.23 86.5 86.5 0 0 1 10.343 11.326c3.367 4.348 6.352 8.978 8.923 13.839l.1.2-.191.127-22.825 15.253-.112-.275a77.71 77.71 0 0 0-12.178-20.429 69.45 69.45 0 0 0-13.886-12.638 62.94 62.94 0 0 0-10.794-5.984c-1.327-.562-2.368-.948-3.076-1.2l-.809-.275c-.194-.067-.276-.1-.27-.1l.286.059.819.235c.718.225 1.771.588 3.112 1.127a60.44 60.44 0 0 1 10.9 5.883c5.235 3.544 9.957 7.792 14.033 12.624a77.57 77.57 0 0 1 12.316 20.507l-.36-.109 22.565-15.108-.087.324c-2.556-4.831-5.52-9.435-8.861-13.761a86.65 86.65 0 0 0-10.262-11.284 62.86 62.86 0 0 0-11.1-8.207 47.84 47.84 0 0 0-11.116-4.645l.135-.018z" fill="#fff"/><path d="M268.936 214.428c-.717 4.232-6.079 6.794-11.977 5.722s-10.1-5.374-9.382-9.606 6.079-6.794 11.977-5.722 10.095 5.373 9.382 9.606z" class="R"/><path d="M256.123 215.793l-.95 1.051-1.1-1.065.917-1.013c-.788-.839-1.358-1.858-1.66-2.968l1.845-.8c.251 1.022.776 1.955 1.519 2.7.749.728 1.238.795 1.529.473.95-1.051-3.379-3.818-1.151-6.28.943-1.041 2.461-1.221 4.112.029l.943-1.042 1.1 1.066-.924 1.02a6.35 6.35 0 0 1 1.347 2.361l-1.816.85a5.4 5.4 0 0 0-1.309-2.233c-.758-.737-1.272-.738-1.572-.407-.917 1.013 3.394 3.78 1.185 6.222-.91 1.007-2.393 1.207-4.015.036z" class="S"/><path d="M230.193 201.868s4.66 2.366.183 5.823l-6.85-2.657zm12.527-7.041s4.5 4.749 8.791-.192l-5.3-1.771zm19.613 44.859s6.051-4.912 9.588 1.714l-6.761 4.522zm22.33-14.248s-4.367 2.732-1.4 8.373l4.473-2.992z" class="R"/><path d="M268.463 241.298a1.83 1.83 0 0 1-1.877 1.763 1.83 1.83 0 0 1-1.786-1.855 1.83 1.83 0 0 1 1.834-1.808c.495.009.965.215 1.308.571s.53.834.521 1.329zm18.348-11.667a1.83 1.83 0 0 1-1.877 1.763 1.83 1.83 0 0 1-1.786-1.855 1.83 1.83 0 0 1 1.834-1.808c1.029.02 1.848.871 1.829 1.9zm-37.782-34.987c0 .674-.938 1.221-2.1 1.22s-2.094-.548-2.093-1.223.939-1.222 2.1-1.221 2.093.552 2.093 1.224zm-17.872 10.137a2.08 2.08 0 1 1-2.031-1.627c1.006-.099 1.908.623 2.031 1.627z" class="S"/><path d="M248.018 203.762c0 1.039-1.293 1.881-2.887 1.88s-2.886-.845-2.885-1.884 1.293-1.88 2.887-1.879 2.885.845 2.885 1.883zm23.16 25.12a2.82 2.82 0 0 1-2.177-.167 2.83 2.83 0 0 1-1.408-1.669 3.01 3.01 0 0 1 1.125-3.976c.719-.239 1.503-.179 2.177.166a2.83 2.83 0 0 1 1.408 1.669 3.01 3.01 0 0 1-1.125 3.977z" class="R"/><path d="M230.607 195.735l11.286 11.879s4.515 5.165 7.557 2.725-1.23-7.006-2.132-8.333-11.962-14.755-11.962-14.755z" class="T"/><path d="M236.429 185.018c-.04.705-.186 1.401-.433 2.063-.483 1.633-1.154 3.204-2 4.682a15.79 15.79 0 0 1-3.208 3.967 5.72 5.72 0 0 1-1.747 1.189 18.01 18.01 0 0 1 1.5-1.452 19.34 19.34 0 0 0 3.015-3.96c1.945-3.396 2.704-6.542 2.873-6.489zm-105.049 46.51c-.16.188-.337.361-.528.517l-1.577 1.408-5.873 5.094-19.589 16.555-19.918 16.171-6.185 4.713-1.722 1.229a4.06 4.06 0 0 1-.62.4 4 4 0 0 1 .559-.483l1.663-1.3 6.081-4.836 19.816-16.28 19.682-16.438 5.977-4.97 1.639-1.335c.184-.167.383-.316.595-.445z" class="Q"/><defs ><path id="B" d="M222.338 341.598a6.5 6.5 0 0 0 3.471 10.481c-.896.797-2.118 1.121-3.292.873a6.75 6.75 0 0 1-4.592-6.965 5.15 5.15 0 0 1 1.415-3.3c.831-.721 1.9-1.109 3-1.089"/><path id="C" d="M207.986 336.048c-1.386 1.665-1.815 3.928-1.134 5.985s2.375 3.617 4.481 4.126c-.864.769-2.042 1.081-3.174.842-2.851-.948-4.681-3.725-4.429-6.719.058-1.19.542-2.319 1.364-3.182a4.3 4.3 0 0 1 2.893-1.051"/></defs></svg>