<svg xmlns="http://www.w3.org/2000/svg" xmlns:xlink="http://www.w3.org/1999/xlink" width="336.748" height="282.137" xmlns:v="https://vecta.io/nano"><style><![CDATA[.R{mix-blend-mode:overlay;isolation:isolate}.X{fill:#b8761c}.Y{fill:#e8a339}.Z{fill:#cf8924}.a{fill:#d6e1f1}.b{fill:#99a7be}.c{fill:#242a33}.d{fill:#ffdb72}.e{fill:#fff}.f{fill:#ffc727}.g{fill:#95bcf0}.h{fill:#53729d}.i{fill:#232932}.j{fill:#505b6e}.k{fill:#7899cb}.l{fill:#cbddf5}.m{fill:#3b5c89}.n{fill:#414c5c}.o{fill:#fffdff}.p{fill:#e5f2f8}]]></style><g class="m"><path d="M188.29 270.345h148.459v9.179H188.29z"/><path d="M336.748 279.185c0 1.2-33.258 2.165-74.285 2.165s-74.284-.969-74.284-2.165 33.258-2.165 74.284-2.165 74.285.97 74.285 2.165z"/></g><path d="M304.181 227.275h4.576c.358-.007.696-.172.921-.45s.316-.643.248-.995l-.381-2.139a1.34 1.34 0 0 0-1.307-1.122h-4.057c-.666.01-1.197.558-1.188 1.224v2.257c-.01.666.522 1.215 1.188 1.225z" class="d"/><path d="M251.082 210.497l.307-.316a3.37 3.37 0 0 1 2.416-1.034h33.941c.88.002 1.724.348 2.351.965l.392.382z" class="n"/><path d="M249.011 210.497l.308-.316a3.37 3.37 0 0 1 2.415-1.034h33.942c.88.002 1.724.348 2.351.965l.392.382z" class="c"/><ellipse cx="262.306" cy="270.223" rx="73.645" ry="2.023" class="h"/><path d="M327.379 257.086c0 7.255-4.653 13.137-10.392 13.137h-6.688v-26.274h6.683c5.745 0 10.397 5.881 10.397 13.137z"/><ellipse cx="310.304" cy="257.086" rx="10.393" ry="13.137"/><path d="M261.495 257.086c0 7.255-4.653 13.137-10.393 13.137h-6.683v-26.274h6.683c5.74 0 10.393 5.881 10.393 13.137z"/><ellipse cx="244.419" cy="257.086" rx="10.393" ry="13.137"/><path d="M294.057 257.087c0 7.255-4.653 13.137-10.393 13.137h-6.683V243.95h6.683c5.738 0 10.393 5.881 10.393 13.137zm-65.887 0c0 7.255-4.653 13.137-10.393 13.137h-6.684V243.95h6.689c5.735 0 10.388 5.881 10.388 13.137z"/><path d="M230.436 260.225c-2.1 0-4.365-4.5-4.365-7.226v-7.48l1.481-2.409v-11.204c0-2.168 11.328-21.409 17.123-21.409h46.09c5.535 0 16.733 16.521 16.733 16.521s13.643.981 17.7 1.543 8.575.618 8.575 5.89v9.142l1.316 2.42c.569 1.05.867 2.226.866 3.421v5.036c0 2.81-1.948 5.756-3.936 5.756z" class="d"/><path d="M335.514 246.973c-.119-.33-.263-.651-.429-.96l-1.316-2.421v-9.141c.007-.622-.071-1.243-.233-1.844h-47.377v27.624h45.856a3.7 3.7 0 0 0 2.829-2.011q.135-.215.257-.444a7.2 7.2 0 0 0 .85-3.3v-5.045a7.24 7.24 0 0 0-.437-2.461z" class="f"/><path d="M226.711 256.017c.82 2.167 2.306 4.209 3.725 4.209h101.578c1.621 0 3.216-1.961 3.749-4.209z" class="n"/><path d="M335.085 246.013l-1.316-2.42H273.05v4.223h62.709c-.142-.629-.369-1.235-.674-1.803z" class="d"/><path d="M290.92 235.548h-98.534l2.856 24.678h98.532z"/><path d="M297.034 246.012l-1.316-2.42v-9.142c0-5.272-4.521-5.328-8.574-5.89s-17.7-1.543-17.7-1.543-11.2-16.521-16.733-16.521h-43.232c-5.794 0-17.122 16.717-17.122 23.972v8.643l-.693 1.126c-.516.843-.789 1.812-.789 2.8v5.962c0 2.73 2.261 7.226 4.366 7.226h4.192l1.429-11.607c.427-3.889 3.688-6.85 7.6-6.9h5.271c3.91.049 7.169 3.005 7.6 6.891l1.446 11.62h42.536l1.427-11.608c.427-3.89 3.687-6.85 7.6-6.9h5.271c3.91.049 7.169 3.005 7.6 6.891l1.446 11.62h5.3c1.988 0 3.937-2.946 3.937-5.756v-5.043c.002-1.194-.294-2.37-.862-3.421z" class="f"/><ellipse cx="211.094" cy="257.086" rx="10.393" ry="13.137" class="i"/><path d="M211.094 264.845c-3.384 0-6.138-3.481-6.138-7.758s2.753-7.76 6.138-7.76 6.138 3.481 6.138 7.76-2.754 7.758-6.138 7.758z"/><use xlink:href="#B" class="a"/><g class="b"><use xlink:href="#C"/><path d="M206.313 257.086c0-3.989 2.393-7.281 5.459-7.709-.225-.032-.451-.049-.678-.05-3.384 0-6.138 3.481-6.138 7.76s2.753 7.758 6.138 7.758c.227-.001.453-.018.678-.05-3.066-.429-5.459-3.721-5.459-7.709z"/><path d="M211.862 257.086l-.725-8.127h2.493l-.725 8.127z"/></g><path d="M212.223 257.597l-6.609-1.427.771-2.442 6.161 2.847z" class="a"/><g class="b"><use xlink:href="#D"/><path d="M212.805 256.77l4.047 4.467-2.017 1.509-2.874-5.345z"/><path d="M212.223 256.575l4.624-2.333.77 2.442-5.072.912zm-1.403.511l-.725-8.127h2.493l-.726 8.127z"/><path d="M211.18 257.597l-6.609-1.427.77-2.442 6.161 2.847z"/><use xlink:href="#D" x="-1.044"/><path d="M211.762 256.77l4.684 5.37-2.017 1.509-3.511-6.248z"/><path d="M211.18 256.576l5.667-2.682.77 2.442-6.115 1.261z"/></g><path d="M211.095 248.272c-3.851 0-6.973 3.946-6.973 8.814s3.122 8.814 6.973 8.814 6.972-3.946 6.972-8.814-3.122-8.814-6.972-8.814zm0 16.812c-3.489 0-6.327-3.588-6.327-8s2.838-8 6.327-8 6.327 3.588 6.327 8-2.839 8-6.327 8z" class="a"/><path d="M211.093 248.536c-3.736 0-6.765 3.829-6.765 8.551s3.029 8.55 6.765 8.55 6.767-3.832 6.767-8.55-3.031-8.551-6.767-8.551zm0 16.31c-3.385 0-6.138-3.481-6.138-7.758s2.753-7.76 6.138-7.76 6.137 3.481 6.137 7.76-2.753 7.757-6.137 7.757z" class="b"/><path d="M211.336 258.165a1.1 1.1 0 0 1-1.113-1.754 1.1 1.1 0 0 1 1.963.68c.054.529-.323 1.005-.85 1.074z" class="j"/><path d="M191.662 244.238c-.516.843-.789 1.812-.789 2.8V253c0 2.73 2.261 7.226 4.366 7.226h4.192l1.431-11.608a7.92 7.92 0 0 1 3.2-5.466l-11.7-.044zm29.675 4.367l1.446 11.62h42.536l1.427-11.608a7.93 7.93 0 0 1 2.792-5.144l-51.311-.258a7.93 7.93 0 0 1 3.11 5.39zm75.697-2.592l-1.316-2.421-11.206-.05a7.93 7.93 0 0 1 2.709 5.064l1.446 11.62h5.3c1.988 0 3.937-2.946 3.937-5.756v-5.036a7.16 7.16 0 0 0-.87-3.421z" fill="#fcd461"/><ellipse cx="276.979" cy="257.086" rx="10.393" ry="13.137" class="i"/><path d="M276.979 264.845c-3.384 0-6.138-3.481-6.138-7.758s2.754-7.76 6.138-7.76 6.138 3.481 6.138 7.76-2.754 7.758-6.138 7.758z"/><use xlink:href="#B" x="65.885" class="a"/><g class="b"><use xlink:href="#C" x="65.884"/><path d="M272.198 257.086c0-3.989 2.394-7.281 5.46-7.709a4.89 4.89 0 0 0-.679-.05c-3.384 0-6.138 3.481-6.138 7.76s2.754 7.758 6.138 7.758a4.96 4.96 0 0 0 .679-.05c-3.066-.429-5.46-3.721-5.46-7.709z"/><path d="M277.747 257.086l-.725-8.127h2.494l-.725 8.127z"/></g><path d="M278.108 257.597l-6.609-1.427.77-2.442 6.161 2.847z" class="a"/><g class="b"><use xlink:href="#D" x="65.884"/><path d="M278.691 256.77l4.047 4.467-2.017 1.509-2.871-5.342z"/></g><path d="M278.108 256.575l4.624-2.333.77 2.442-5.072.912z" class="a"/><g class="b"><path d="M276.704 257.086l-.725-8.127h2.493l-.725 8.127z"/><path d="M277.065 257.597l-6.609-1.427.77-2.442 6.161 2.847z"/><use xlink:href="#D" x="64.841"/><path d="M277.648 256.77l4.684 5.37-2.017 1.509-3.511-6.248z"/><path d="M277.065 256.576l5.667-2.682.77 2.442-6.115 1.261z"/></g><path d="M276.978 248.272c-3.851 0-6.973 3.946-6.973 8.814s3.122 8.814 6.973 8.814 6.973-3.946 6.973-8.814-3.122-8.814-6.973-8.814zm0 16.812c-3.489 0-6.327-3.588-6.327-8s2.838-8 6.327-8 6.327 3.588 6.327 8-2.836 8-6.327 8z" class="a"/><path d="M276.979 248.536c-3.736 0-6.764 3.829-6.764 8.551s3.028 8.55 6.764 8.55 6.765-3.828 6.765-8.55-3.029-8.551-6.765-8.551zm0 16.31c-3.384 0-6.138-3.481-6.138-7.758s2.753-7.76 6.138-7.76 6.138 3.481 6.138 7.76-2.754 7.757-6.138 7.757z" class="b"/><path d="M277.225 258.165a1.1 1.1 0 0 1-1.114-1.753 1.1 1.1 0 0 1 1.963.679c.054.529-.322 1.004-.849 1.074z" class="j"/><path d="M219.927 260.226h45.391l.517-4.209h-46.432zm-24.686 0h4.188l.517-4.209h-8.434c.824 2.167 2.31 4.209 3.729 4.209zm92.902-4.209l.524 4.209h5.3c1.622 0 3.216-1.961 3.749-4.209z" class="c"/><path d="M273.404 236.332h-.023l-75.05-1.022c-.953-.042-1.7-.833-1.688-1.787s.78-1.726 1.734-1.743l75.05 1.022c.952.038 1.702.824 1.696 1.776s-.767 1.729-1.719 1.754z" class="f"/><path fill="#ffedb9" d="M301.484 235.816h28.842v7.776h-28.842z"/><path d="M295.719 243.593h10.427c.519 0 .906-.657.8-1.354l-1.187-4.657c-.161-1.029-.824-1.765-1.591-1.765h-8.446c-1.663 0-.003 7.776-.003 7.776z" class="o"/><path fill="#ffd17a" d="M295.718 235.817h-1.873c-1.094 0-1.366 3.626-1.366 7.776h3.239z"/><path d="M333.769 235.816h-5.708c-.594 0-1.107.736-1.232 1.766l-.919 4.657c-.085.7.215 1.354.617 1.354h7.241z" class="o"/><g class="f"><rect width="1.587" height="17.169" rx=".793" transform="matrix(0 -1 1 0 308.103 242.612)"/><rect width="1.587" height="17.169" rx=".793" transform="matrix(0 -1 1 0 308.103 240.498)"/><rect width="1.587" height="17.169" rx=".793" transform="matrix(0 -1 1 0 308.103 238.385)"/></g><path d="M194.857 243.123s.384-7.281-2.5-7.281v7.27z" fill="#ff636d"/><path d="M213.031 210.497l.307-.316c.631-.657 1.502-1.03 2.413-1.034h33.941c.88.002 1.724.348 2.351.965l.391.382z" class="n"/><path d="M210.96 210.497l.308-.316c.632-.658 1.504-1.031 2.416-1.034h33.942c.88.002 1.724.348 2.351.965l.391.382z" class="c"/><path d="M271.161 227.018h35.194s-7.846-11.572-13.649-15.343h-35.194c5.802 3.771 13.649 15.343 13.649 15.343z" class="k"/><g class="o"><ellipse cx="302.697" cy="251.943" rx="1.706" ry="2.061"/><path d="M335.01 251.944c-.171.901-1.013 1.514-1.923 1.399s-1.574-.917-1.517-1.832.817-1.628 1.734-1.628a1.91 1.91 0 0 1 1.706 2.061z"/></g><path d="M252.715 212.262h-40.432c-1.627 0-5.245 2.67-9.343 8.532l-.051.073a4.55 4.55 0 0 0 3.61 7.161h59.426a1.13 1.13 0 0 0 .885-1.788c-6.807-9.625-12.277-13.978-14.095-13.978z" class="k"/><path d="M203.799 220.867l.051-.073c4.1-5.862 7.716-8.532 9.343-8.532h-.91c-1.627 0-5.245 2.67-9.343 8.532l-.051.073a4.55 4.55 0 0 0 3.61 7.161h.914a4.55 4.55 0 0 1-3.614-7.161z" class="c"/><path d="M235.508 235.963c-.078-.001-.14-.063-.142-.141l-.132-3.531c0-.051.027-.098.071-.124s.099-.026.143 0 .072.073.071.124l.131 3.519c.004.08-.057.148-.137.153zm-21.048-.287c-.079-.001-.142-.064-.143-.143l-.085-3.536c0-.051.027-.098.071-.124s.099-.026.143 0 .072.073.071.124l.084 3.527c.002.038-.012.076-.038.104s-.062.045-.101.047zm48.844.666c-.079-.001-.143-.066-.143-.145l-.044-3.533c0-.051.027-.098.071-.124s.099-.026.143 0 .072.073.071.124l.044 3.529c.001.038-.013.076-.04.104s-.063.044-.101.045z" class="d"/><g class="c"><path d="M213.733 239.95h-5.27a9.5 9.5 0 0 0-9.3 8.446l-1.448 11.78a1.59 1.59 0 0 0 .384.05h1.334l1.427-11.608c.427-3.89 3.687-6.85 7.6-6.9h5.273c3.909.049 7.169 3.004 7.6 6.89l1.446 11.62h1.727l-1.473-11.847a9.5 9.5 0 0 0-9.3-8.431zm65.884 0h-5.271a9.5 9.5 0 0 0-9.3 8.446l-1.453 11.829h1.73l1.427-11.608a7.75 7.75 0 0 1 7.6-6.9h5.273c3.909.049 7.169 3.004 7.6 6.89l1.446 11.62h1.726l-1.472-11.846a9.5 9.5 0 0 0-9.306-8.431zm-13.697-11.774h-59.431a4.54 4.54 0 0 1-4.067-2.563c-.792-1.549-.661-3.409.341-4.831l.051-.073c4.128-5.9 7.8-8.594 9.459-8.594h40.436c2.076 0 7.761 4.921 14.205 14.039a1.3 1.3 0 0 1 .1 1.324 1.23 1.23 0 0 1-1.094.698zm-53.641-15.767c-1.591 0-5.158 2.651-9.227 8.471l-.05.072c-.939 1.332-1.062 3.075-.319 4.526.709 1.462 2.187 2.393 3.812 2.4h59.426a.93.93 0 0 0 .847-.536c.166-.327.137-.72-.077-1.018-6.785-9.6-12.256-13.918-13.975-13.918z"/><path d="M217.022 228.029h-2.533l1.988-15.767h2.533zm20.721 0h-2.533l.846-15.767h2.534zm29.062-1.788l-4.054-5.326-1.019 7.114h4.187a1.13 1.13 0 0 0 .886-1.788z"/></g><g class="d"><path d="M221.431 233.765c0 1.071-.56 1.341-2.8 1.34s-2.8-.269-2.8-1.34.56-1.339 2.8-1.34 2.8.267 2.8 1.34z"/><path d="M218.631 233.725a14.13 14.13 0 0 0-2.794.2c.057.94.67 1.183 2.794 1.184s2.739-.244 2.795-1.186a14.08 14.08 0 0 0-2.795-.198zm23.734.331c0 1.071-.56 1.341-2.8 1.34s-2.8-.27-2.8-1.34.56-1.339 2.8-1.34 2.799.269 2.8 1.34z"/><path d="M239.565 234.016c-.936-.026-1.872.041-2.794.2.056.94.67 1.183 2.794 1.184s2.739-.244 2.795-1.186a14.06 14.06 0 0 0-2.795-.198z"/></g><g class="c"><path d="M306.355 227.165h-35.194c-.047 0-.091-.024-.117-.063-.078-.115-7.9-11.59-13.608-15.3-.054-.036-.079-.103-.061-.165s.073-.105.137-.106h35.194c.027 0 .053.008.076.023 5.761 3.743 13.611 15.267 13.69 15.383a.15.15 0 0 1 .009.152c-.024.047-.073.076-.126.076zm-35.12-.294h34.844c-1.14-1.648-8.157-11.609-13.414-15.049H257.99c5.492 3.841 12.624 14.143 13.245 15.049z"/><use xlink:href="#E"/><use xlink:href="#E" y="1.925"/></g><path d="M260.075 227.275h-4.576c-.358-.007-.696-.172-.921-.45s-.316-.643-.248-.995l.381-2.139a1.34 1.34 0 0 1 1.307-1.122h4.057c.666.01 1.198.558 1.189 1.224v2.257c.005.32-.118.629-.341.859s-.528.361-.848.366z" class="f"/><path d="M260.074 222.569h-4.057a1.34 1.34 0 0 0-1.307 1.122l-.381 2.139c-.022.135-.022.273 0 .408h4.97c.362-.005.707-.154.959-.414s.391-.609.386-.971v-2.132a1.15 1.15 0 0 0-.57-.152z" class="d"/><circle cx="48.647" cy="48.647" r="48.647" transform="matrix(.707107 -.707107 .707107 .707107 98.213258 126.514624)" class="X"/><path d="M193.502 136.703l20.711 1.559q.17-.69.322-1.386l-20.928-1.576zm-2.25-32.928l19.5 1.468q-.361-.741-.745-1.466l-18.651-1.4zm3.717 13.426l20.055 1.51q-.116-.718-.251-1.429l-19.7-1.483zm5.985-25.523l-13.9-1.047-.105 1.4 15.508 1.167-1.503-1.52zm-6.941 46.762l-.106 1.4 19.445 1.466.429-1.378zm1.252-16.629l-.106 1.4 20.462 1.54-.073-1.416zm.224-2.981l-.106 1.4 20.032 1.508-.145-1.421zm-7.93-24.213l17.252 1.3-1.266-1.505-15.881-1.2zm21.994 55.488l-20.8-1.566-.106 1.4 20.124 1.515q.403-.666.782-1.349z" class="Y"/><circle cx="48.647" cy="48.647" r="48.647" transform="matrix(.707107 -.707107 .707107 .707107 91.847258 126.035624)" class="Z"/><path d="M158.278 170.127l-.946-.056a44.16 44.16 0 0 1-33.164-68.926 44.16 44.16 0 0 1 39.794-19.147 19.93 19.93 0 0 1 .944.086c-23.978-1.282-44.586 16.833-46.388 40.778s15.86 44.941 39.76 47.264z" class="X"/><ellipse cx="44.146" cy="43.213" rx="44.146" ry="43.213" transform="matrix(.075083 -.997177 .997177 .075083 115.187222 166.882709)" class="Y"/><path d="M156.126 116.404c.166-2.2 2.182-3.819 7.4-3.427 3.032.272 5.984 1.119 8.7 2.494l1.391 1.681 1.85.139 4.53-8.952a30.7 30.7 0 0 0-12.48-4.67l.511-6.789-7.545-.568-.52 6.915c-10.276.49-15.682 5.961-16.2 12.876-1.231 16.343 24.168 13.133 23.642 20.113-.161 2.135-2.28 3.432-7.433 3.044-5.144-.458-10.058-2.34-14.193-5.433l-1.85-.139-.313 4.155-2.612 4.853c3.455 2.791 9.289 5.063 15.54 5.975l-.51 6.724 7.544.568.525-6.976c9.912-.706 15.125-6.13 15.627-12.792 1.222-16.216-24.11-13.067-23.604-19.791z" class="X"/><path d="M162.254 148.849l-.525 6.976-7.545-.568.506-6.724c-6.251-.912-12.085-3.184-15.541-5.975l4.775-8.869a27.82 27.82 0 0 0 14.194 5.433c5.153.388 7.272-.908 7.433-3.044.525-6.979-24.873-3.77-23.643-20.113.521-6.915 5.927-12.385 16.2-12.876l.521-6.915 7.545.568-.512 6.789a30.7 30.7 0 0 1 12.48 4.67l-4.53 8.952c-3.563-2.401-7.664-3.883-11.939-4.314-5.218-.393-7.234 1.226-7.4 3.427-.507 6.723 24.826 3.574 23.6 19.791-.494 6.662-5.707 12.086-15.619 12.792z" class="Z"/><g class="e"><path d="M124.825 116.47a5.89 5.89 0 0 0 .061 2.555c.828 2.874 4.093 2.344 5.381.111 1.23-2.132 1.173-4.7 2.018-6.972.912-2.452 2.38-4.661 3.385-7.073.52-1.248.952-2.781.218-4.042-2.282-3.92-6.442 3.464-7.41 5.091a30.22 30.22 0 0 0-3.573 9.881q-.044.224-.08.449zm12.507-20.675a3.01 3.01 0 0 1 2.839-2.059c.444-.012.877.138 1.218.422a2.15 2.15 0 0 1 .544 1.624 3.8 3.8 0 0 1-.917 2.592c-1.921 2.037-4.397-.276-3.684-2.579z" class="R" opacity=".6"/><path d="M142.643 85.272a23 23 0 0 0-3.322-.5l-2.692-.126-.126-2.692a23 23 0 0 0-.5-3.322 23 23 0 0 0-.5 3.322l-.127 2.691-2.691.125a22.72 22.72 0 0 0-3.322.507 22.72 22.72 0 0 0 3.322.506l2.691.125.125 2.691a22.65 22.65 0 0 0 .507 3.323 22.81 22.81 0 0 0 .506-3.323l.125-2.692 2.691-.126a23 23 0 0 0 3.313-.509zm61.9 72.83a23.11 23.11 0 0 0-3.323-.505l-2.692-.126-.126-2.691a22.94 22.94 0 0 0-.5-3.322 22.99 22.99 0 0 0-.5 3.322l-.126 2.691-2.692.125c-1.118.086-2.229.255-3.322.506a22.83 22.83 0 0 0 3.322.506l2.691.125.125 2.691a22.74 22.74 0 0 0 .506 3.322 22.72 22.72 0 0 0 .507-3.322l.125-2.692 2.691-.126a23.14 23.14 0 0 0 3.314-.504zm-54.169-78.379a10.64 10.64 0 0 0-2.11-.455c-.515-.063-1.03-.093-1.545-.109l-.109-1.545a10.62 10.62 0 0 0-.456-2.11 10.57 10.57 0 0 0-.455 2.11 17.04 17.04 0 0 0-.109 1.545l-1.546.108c-.717.079-1.424.232-2.11.456a10.4 10.4 0 0 0 2.11.457c.515.063 1.03.093 1.545.108l.108 1.545c.079.717.232 1.424.456 2.11a10.41 10.41 0 0 0 .457-2.11c.063-.515.092-1.03.108-1.545l1.545-.109a10.58 10.58 0 0 0 2.111-.456z"/></g><path fill="#07b9e0" d="M94.02 154.652l1 2.222 1.038 2.2 1.14 2.134 1.184 2.115 1.247 2.077 1.33 2.02c.861 1.361 1.842 2.634 2.792 3.918 3.883 5.076 8.361 9.667 13.339 13.675.157.125.384.106.517-.044s.126-.378-.017-.519l-.006-.006c-.165-.158-.329-.323-.488-.481a77.81 77.81 0 0 1-11.263-14.061c-.791-1.336-1.621-2.647-2.33-4.027-.361-.683-.747-1.354-1.083-2.051l-1-2.089c-.348-.69-.646-1.4-.937-2.114l-.893-2.134-.791-2.165c-.266-.722-.532-1.438-.734-2.178a73.6 73.6 0 0 1 2.868-52.99 73.98 73.98 0 0 1 9.18-15.036 72.44 72.44 0 0 1 12.39-12.212 69.79 69.79 0 0 1 14.783-8.73 68.57 68.57 0 0 1 16.258-4.8 71.94 71.94 0 0 1 9.6-.9l.449-.013a71.16 71.16 0 0 1 6.7.184 69.63 69.63 0 0 1 16.176 3.336c10.311 3.479 19.605 9.448 27.058 17.378 3.625 3.885 6.772 8.188 9.376 12.82 2.548 4.568 4.523 9.433 5.881 14.485.076.284.139.576.215.861h-.355c-4.924-.093-9.828-.659-14.644-1.69.91 2.276 1.959 4.493 3.14 6.641 4.659 8.641 14.662 23.253 31.072 28.622a47.2 47.2 0 0 0 7.084-7.629c8.487-11.201 13.335-24.735 13.89-38.777a53.28 53.28 0 0 1-12.77 7.546c-.032.012-.057.025-.089.037l-.3-.969a75.16 75.16 0 0 0-1.146-3.266 90.44 90.44 0 0 0-10.275-19.632c-8.326-12.052-19.487-21.873-32.5-28.6a87.1 87.1 0 0 0-41.333-9.728 88.9 88.9 0 0 0-20.835 2.888 82.97 82.97 0 0 0-62.119 73.185 81.14 81.14 0 0 0 6.201 38.497z"/><path fill="#58a84a" d="M163.59 58.457l6.7.184c5.505.466 10.935 1.586 16.176 3.336 10.314 3.479 19.61 9.448 27.064 17.38a66.7 66.7 0 0 1 9.376 12.82 63.65 63.65 0 0 1 5.881 14.485c.076.284.139.576.215.861 1.623.441 9.909.091 12-.672 0 0-8.306-.424-9.908-3.666.003.003-15.412-46.364-67.504-44.728z"/><path d="M184.758 45.832c28.993 2.82 53.625 22.409 62.9 50.023.648 1.919-2.384 2.743-3.028.834a70.79 70.79 0 0 0-59.874-47.717c-.857-.023-1.547-.713-1.57-1.57a1.58 1.58 0 0 1 1.572-1.57z" style="mix-blend-mode:overlay" opacity=".5" class="e"/><circle cx="15.626" cy="15.626" r="15.626" transform="matrix(.425037 -.905176 .905176 .425037 65.624563 59.713312)" class="X"/><path d="M95.503 51.543l6.232-2.382-.1-.447-6.3 2.407zm-5.161-9.259l5.868-2.243q-.206-.165-.417-.324l-5.612 2.146zm2.919 3.395l6.035-2.306q-.132-.193-.268-.38l-5.927 2.265zm-1.755-8.239l-4.183 1.6.161.422 4.666-1.783-.644-.239zm4.384 14.539l.161.422 5.85-2.236-.064-.459zm-1.913-5.004l.161.422 6.157-2.353-.215-.4zm-.342-.896l.161.422 6.028-2.3-.237-.393zm-5.619-5.951l5.191-1.984-.574-.265-4.777 1.826zm13.987 13.109l-6.258 2.391.161.422 6.055-2.315.042-.498z" class="Y"/><circle cx="15.626" cy="15.626" r="15.626" transform="matrix(.400989 -.916083 .916083 .400989 63.916475 60.998198)" class="Z"/><path d="M89.844 66.078l-.283.113c-7.309 2.764-15.477-.904-18.267-8.204a14.19 14.19 0 0 1 8.138-18.296c.095-.036.19-.072.286-.1-7.143 2.91-10.652 10.995-7.898 18.2s10.761 10.888 18.024 8.292z" class="X"/><ellipse cx="13.881" cy="14.181" rx="13.881" ry="14.181" transform="matrix(.93413 -.356934 .356934 .93413 66.752905 44.540024)" class="Y"/><path d="M81.864 50.761c-.253-.662.111-1.408 1.682-2.008a7.7 7.7 0 0 1 2.869-.466l.634.3.556-.213.091-3.221a9.86 9.86 0 0 0-4.266.351l-.781-2.043-2.27.868.8 2.08c-2.919 1.549-3.741 3.879-2.946 5.959 1.88 4.918 8.821.508 9.624 2.608.246.643-.192 1.31-1.744 1.9a8.93 8.93 0 0 1-4.868.364l-.556.213.478 1.25-.095 1.768a10.85 10.85 0 0 0 5.334-.391l.773 2.023 2.27-.868-.8-2.1c2.783-1.562 3.556-3.852 2.79-5.857-1.871-4.872-8.802-.494-9.575-2.517z" class="X"/><path d="M88.086 59.351l.8 2.1-2.27.868-.773-2.023a10.85 10.85 0 0 1-5.334.391l.173-3.231a8.93 8.93 0 0 0 4.868-.364c1.551-.593 1.989-1.26 1.744-1.9-.8-2.1-7.744 2.31-9.624-2.608-.8-2.08.027-4.41 2.946-5.959l-.8-2.08 2.27-.868.781 2.043a9.86 9.86 0 0 1 4.266-.351l-.091 3.221c-1.364-.21-2.758-.079-4.059.381-1.57.6-1.935 1.347-1.681 2.008.773 2.023 7.7-2.359 9.569 2.52.771 2-.002 4.29-2.785 5.852z" class="Z"/><path d="M72.777 55.065c.067.269.193.519.368.734.634.722 1.51.121 1.579-.7a13.76 13.76 0 0 0-.368-2.3c-.07-.837.054-1.68.016-2.518.031-.454-.15-.897-.49-1.2-1.2-.827-1.4 1.889-1.457 2.494-.092 1.13.015 2.267.315 3.36l.037.13zm.805-7.719c-.049-.411.169-.809.543-.987.127-.064.273-.08.411-.044a.69.69 0 0 1 .381.4 1.22 1.22 0 0 1 .088.879c-.279.852-1.315.518-1.423-.248z" class="R e" opacity=".6"/><circle cx="18.498" cy="18.498" r="18.498" transform="matrix(.942344 -.334646 .334646 .942344 242.462123 44.731714)" class="X"/><path d="M274.056 63.248l7.118 3.421.306-.446-7.193-3.457zm3.763-11.97l6.7 3.221q-.025-.312-.061-.622l-6.41-3.08zm-.543 5.269l6.893 3.312.109-.541-6.77-3.253zm5.654-8.21l-4.778-2.3-.232.482 5.33 2.561-.32-.743zm-8.934 15.601l-.232.482 6.683 3.211.343-.429zm2.746-5.718l-.232.482 7.032 3.379.17-.512zm.492-1.025l-.231.482 6.885 3.309.146-.524zm.545-9.672l5.93 2.85-.24-.708-5.459-2.623zm.104 22.695l-7.148-3.431-.231.482 6.917 3.324q.233-.185.462-.375z" class="Y"/><circle cx="18.498" cy="18.498" r="18.498" transform="matrix(.082547 -.996587 .996587 .082547 243.933906 71.829898)" class="Z"/><path d="M256.952 70.208l-.327-.151a16.79 16.79 0 0 1-2.273-29.072 16.79 16.79 0 0 1 16.816-1.199l.322.161c-8.312-3.764-18.109-.201-22.061 8.023s-.613 18.1 7.52 22.238z" class="X"/><ellipse cx="16.787" cy="16.432" rx="16.787" ry="16.432" transform="matrix(.433 -.901 .901 .433 242.141 63.091)" class="Y"/><path d="M263.63 50.885c.363-.757 1.3-1.05 3.1-.189a9.13 9.13 0 0 1 2.735 2.087l.26.788.636.306 2.845-2.543c-.995-1.39-2.283-2.544-3.773-3.382l1.121-2.334-2.593-1.246-1.142 2.377c-3.707-1.249-6.379-.061-7.521 2.316-2.7 5.617 6.74 8 5.587 10.4-.353.734-1.283.9-3.054.049-1.758-.875-3.238-2.222-4.274-3.89l-.636-.305-.686 1.428-1.6 1.357a12.85 12.85 0 0 0 4.676 4.268l-1.111 2.311 2.593 1.246 1.152-2.4c3.608 1.123 6.206-.076 7.306-2.366 2.676-5.574-6.731-7.967-5.621-10.278z" class="X"/><path d="M261.306 63.223l-1.152 2.4-2.593-1.246 1.11-2.311c-1.891-1.01-3.498-2.478-4.676-4.269l2.919-2.479c1.036 1.668 2.516 3.015 4.274 3.89 1.771.851 2.7.686 3.054-.049 1.153-2.4-8.286-4.78-5.587-10.4 1.142-2.377 3.815-3.566 7.521-2.316l1.142-2.377 2.593 1.246-1.121 2.333c1.49.838 2.778 1.993 3.773 3.383l-2.844 2.543a9.9 9.9 0 0 0-3.63-3.181c-1.794-.862-2.732-.567-3.1.189-1.11 2.311 8.3 4.7 5.618 10.278-1.095 2.291-3.693 3.489-7.301 2.366z" class="Z"/><path d="M252.536 46.574a2.24 2.24 0 0 0-.332.914c-.105 1.133 1.125 1.4 1.89.785.621-.681 1.183-1.414 1.68-2.19.662-.742 1.488-1.321 2.179-2.036.417-.343.653-.86.637-1.4-.265-1.7-2.761.334-3.329.776a11.5 11.5 0 0 0-2.634 3l-.091.151zm7.289-5.594c.313-.377.832-.512 1.29-.336a.7.7 0 0 1 .373.318.82.82 0 0 1-.032.651 1.44 1.44 0 0 1-.684.791c-.959.458-1.514-.703-.947-1.424z" class="R e" opacity=".6"/><path d="M174.297 6.741c-3.575.316-8.706 2.1-13.97 5.07s-9.445 6.438-11.565 9.335l-2.929 1.652 1.67 2.96c1.587 2.813 9.9 1.128 18.569-3.762s14.41-11.135 12.823-13.947l-1.67-2.96z" class="X"/><path d="M174.635 9.64l-.5.28 2.344 4.155q.206-.229.4-.453zM168.8 20.355l-2.38-4.22-.5.28 2.394 4.246.486-.306zm-1.266-4.85l-.5.279 2.358 4.18.474-.317zm1.125-.895l-.5.279 2.411 4.273.465-.333zm-6.667 9.472l.517-.241-2.354-4.172-.5.279zm-5.676 2.144l.558-.167-2.389-4.236-.5.279zm-1.335.354l.572-.143-2.232-3.957-.5.279z" class="Y"/><ellipse cx="18.022" cy="5.847" rx="18.022" ry="5.847" transform="matrix(.870974 -.491329 .491329 .870974 142.960274 17.709044)" class="Z"/><path d="M175.641 5.985a1.19 1.19 0 0 1 .116.28c-1.655-1.851-8.726-.065-16.215 4.16s-12.671 9.351-11.943 11.724a1.19 1.19 0 0 1-.18-.244c-1.259-2.232 4.036-7.606 11.829-12s15.134-6.152 16.393-3.92z" class="X"/><path d="M175.756 6.265c.722 2.377-4.461 7.5-11.947 11.726s-14.55 6-16.211 4.158c-.728-2.373 4.454-7.5 11.943-11.724s14.56-6.01 16.215-4.16z" class="Y"/><path d="M168 10.297c.654 1.159-1.713 3.734-5.286 5.75s-7 2.71-7.655 1.551 1.713-3.734 5.286-5.75 7.001-2.711 7.655-1.551z" class="Z"/><path d="M66.857 102.595c-.743-4.468-3.484-10.75-7.729-17.086S50.11 74.248 46.266 71.861l-2.362-3.524-3.563 2.387c-3.385 2.268-.462 12.564 6.528 23s15.4 17.052 18.786 14.785l3.563-2.387z" class="X"/><path d="M63.249 103.299l-.4-.6-5 3.35q.307.236.609.456zm-14.046-6.301l5.078-3.4-.4-.6-5.111 3.424.433.576zm5.976-2.066l-.4-.6-5.031 3.371.444.566zm1.238 1.33l-.4-.6-5.143 3.446.463.553zm-12.56-7.472l.353.627 5.022-3.365-.4-.6zm-3.247-6.936l.263.687 5.1-3.416-.4-.6zm-.574-1.643q.112.349.235.706l4.762-3.191-.4-.6z" class="Y"/><ellipse cx="7.378" cy="22.74" rx="7.378" ry="22.74" transform="matrix(.830761 -.556629 .556629 .830761 37.774665 72.442897)" class="Z"/><path d="M67.943 104.211c-.107.072-.222.13-.343.173 2.168-2.261-.762-10.984-6.8-20S47.81 69.347 44.895 70.493c.085-.096.182-.18.289-.251 2.686-1.8 9.959 4.342 16.243 13.722s9.202 18.447 6.516 20.247z" class="X"/><path d="M67.6 104.384c-2.92 1.138-9.871-4.886-15.908-13.9s-8.961-17.725-6.8-19.993c2.915-1.146 9.866 4.878 15.905 13.891s8.968 17.737 6.803 20.002z" class="Y"/><path d="M61.78 95.016c-1.4.934-4.863-1.794-7.745-6.095s-4.087-8.546-2.691-9.481 4.863 1.794 7.745 6.095 4.086 8.545 2.691 9.481z" class="Z"/><path d="M46.754 70.355c-.686-.223-1.393-.376-2.11-.455-.515-.063-1.03-.093-1.545-.109l-.109-1.546c-.08-.717-.232-1.424-.455-2.11-.224.686-.376 1.393-.456 2.11-.062.515-.093 1.03-.109 1.545l-1.545.108c-.717.079-1.424.232-2.11.457.686.225 1.393.378 2.11.457.515.063 1.029.092 1.545.108l.108 1.545a10.4 10.4 0 0 0 .457 2.11c.224-.686.377-1.393.456-2.11.063-.515.093-1.03.108-1.545l1.545-.109a10.6 10.6 0 0 0 2.11-.456z" class="e"/><path d="M74.981 132.718c-2.6-2.592-8.224-3.81-14.41-2.793s-11.126 3.97-12.757 7.259l-.991.163.47 2.855c.715 4.353 7.821 6.809 15.87 5.486s13.993-5.925 13.274-10.277l-.469-2.855z" class="X"/><path d="M67.327 138.606l-.446.073.953 5.8.432-.161zm-.119 6.089l-.939-5.711-.446.073.95 5.78.435-.142zm4.008-7.645l-.447.073.909 5.53.415-.263zm-12.092 8.991l.457-.008-.887-5.4-.446.073zm-1.157-.013l.46.011-.922-5.614-.447.073zm-5.203-.862l.483.147-.926-5.633-.446.073zm7.375.846l.453-.029-.905-5.51-.446.073z" class="Y"/><ellipse cx="14.77" cy="7.987" rx="14.77" ry="7.987" transform="matrix(.986757 -.162207 .162207 .986757 45.527001 129.466009)" class="Z"/><path d="M74.45 132.807l.034.292c-.874-3.424-7.05-5.253-14.067-4.1s-12.28 4.863-12.011 8.387c-.024-.094-.045-.193-.061-.288-.593-3.609 4.767-7.494 11.976-8.679s13.536.779 14.129 4.388z" class="X"/><path d="M74.484 133.099c.268 3.52-5 7.23-12.016 8.384s-13.19-.676-14.063-4.1c-.268-3.525 5-7.234 12.011-8.387s13.194.678 14.068 4.103z" class="Y"/><path d="M67.227 133.993c.286 1.741-2.092 3.581-5.312 4.111s-6.063-.453-6.349-2.194 2.092-3.581 5.312-4.111 6.063.452 6.349 2.194z" class="Z"/><path d="M56.684 143.492c-.686-.223-1.393-.376-2.11-.455-.515-.063-1.031-.093-1.546-.109l-.109-1.546a10.57 10.57 0 0 0-.455-2.11c-.223.686-.376 1.393-.455 2.11-.063.515-.093 1.03-.109 1.545l-1.546.108a10.49 10.49 0 0 0-2.11.457c.686.225 1.393.378 2.11.457.515.063 1.03.092 1.545.108l.108 1.545c.079.717.233 1.424.457 2.11.224-.686.378-1.393.457-2.11l.108-1.545 1.545-.109c.717-.08 1.424-.233 2.11-.456z" class="e"/><path d="M237.17 41.307c1.062-3.493-.5-9-4.283-13.955s-8.685-7.911-12.335-7.807l-.606-.793-2.287 1.747c-3.487 2.662-2.322 10.047 2.6 16.494s11.741 9.516 15.228 6.854l2.287-1.747z" class="X"/><path d="M228.425 37.342l-.273-.358-4.644 3.547.343.3zm-5.4 2.739l4.575-3.493-.274-.358-4.629 3.535.328.316zm8.584-.054l-.273-.358-4.429 3.383.425.241zm-13.544-6.412l.221.4 4.322-3.3-.273-.358zm-.529-1.021l.205.409 4.5-3.434-.273-.358zm-1.675-4.971l.1.493 4.512-3.445-.273-.358zm2.704 6.869l.237.385 4.413-3.37-.273-.358z" class="Y"/><ellipse cx="7.943" cy="14.688" rx="7.943" ry="14.688" transform="matrix(.794775 -.606904 .606904 .794775 213.635205 23.571606)" class="Z"/><path d="M236.845 40.881l-.24.167c2.6-2.368 1.317-8.644-2.976-14.265s-10.007-8.506-12.976-6.623c.071-.065.148-.13.224-.188 2.891-2.207 8.806.682 13.216 6.457s5.643 12.245 2.752 14.452z" class="X"/><path d="M236.606 41.049c-2.965 1.88-8.682-1.009-12.975-6.63s-5.571-11.894-2.977-14.259c2.969-1.883 8.685 1.005 12.976 6.623s5.573 11.898 2.976 14.266z" class="Y"/><ellipse cx="3.177" cy="5.876" rx="3.177" ry="5.876" transform="matrix(.794764 -.606918 .606918 .794764 222.770771 27.684411)" class="Z"/><path d="M.123 270.007h163.618v10.116H.123z" class="m"/><path d="M163.739 270.074c0 1.318-36.654 2.386-81.87 2.386S0 271.388 0 270.074s36.654-2.386 81.869-2.386 81.87 1.069 81.87 2.386z" class="h"/><path d="M163.739 279.75c0 1.318-36.654 2.386-81.87 2.386S0 281.064 0 279.75s36.654-2.386 81.869-2.386 81.87 1.069 81.87 2.386z" class="m"/><path d="M116.892 230.808c0 .873.668 1.582 3.316 1.582s6.276-.708 6.276-1.582-3.627-1.582-6.276-1.582-3.316.708-3.316 1.582z" class="p"/><path d="M56.545 215.81s9.7-3.37 16.08-3.37c1.22 0 3.52 2.3 3.52 2.3z" class="g"/><path d="M86.158 212.44H72.625c1.224 0 3.52 2.3 3.52 2.3h13.534s-2.297-2.3-3.521-2.3z" class="p"/><path fill="#37414f" d="M85.546 212.695H75.77c-.108-.001-.203.069-.234.172s.01.214.1.273a9.31 9.31 0 0 1 1.734 1.6h11.7s-2.3-2.045-3.524-2.045z"/><path d="M70.022 214.125h5.464c-.773-.685-2.05-1.685-2.861-1.685-3.945 0-9.16 1.289-12.566 2.273a85.21 85.21 0 0 1 9.963-.588z" class="g"/><path d="M153.484 257.671c0 7.45-4.92 13.489-10.991 13.489h-7.068v-26.978h7.068c6.07 0 10.991 6.039 10.991 13.489z"/><use xlink:href="#F"/><ellipse cx="54.709" cy="257.671" rx="10.991" ry="13.489"/><ellipse cx="135.426" cy="257.671" rx="10.991" ry="13.489"/><path d="M9.822 241.503h108.226v21.956H9.822z"/><use xlink:href="#F" x="47.841"/><path d="M161.494 247.766c-.156-1.614-3.887-8.144-13.571-12.038-9.9-3.98-24.8-4.082-24.8-4.082s-12.14-16.91-22.34-16.91h-36.74c-5.086 6.327 33.589 25 38.793 25 1.5 0 14.27 1.758 14.27 23.85h40.639c1.403 0 3.749-15.82 3.749-15.82z" class="p"/><use xlink:href="#F" x="-32.876"/><path d="M124.758 247.776v-.007c0-1.429-3.673-8.062-13.572-12.041s-24.8-4.082-24.8-4.082-12.139-16.91-22.343-16.91c-16.66.044-32.97 4.783-47.059 13.674-4.319.458-7.75.591-9.892 2.286-1.708 1.351-2.643 8.64-2.643 14.127 0 1.407-2.041 2.673-2.041 3.707 0 7.078 2.779 13.679 7.414 14.928v-5.787c0-8.032 5.388-14.567 12.012-14.567s12.01 6.532 12.01 14.567v4.078c0 .487.194.954.538 1.299s.812.538 1.299.538h53.02c.487 0 .954-.194 1.299-.538s.538-.812.538-1.299v-4.078c0-8.032 5.388-14.567 12.012-14.567s12.011 6.535 12.011 14.567v4.078c0 .487.194.954.538 1.299s.812.538 1.299.538h4.61c1.4 0 3.749-15.137 3.75-15.81z" class="l"/><path d="M37.917 227.99a4.09 4.09 0 0 1 .72-7.5 86.17 86.17 0 0 1 25.406-3.917c5.979 0 15.014 8.277 18.989 15.441a.9.9 0 0 1-.793 1.326c-27.073.055-38.656-2.22-44.322-5.35z" class="h"/><ellipse cx="21.833" cy="257.671" rx="10.991" ry="13.489" class="i"/><path d="M21.833 248.944c-3.92 0-7.11 3.915-7.11 8.726s3.19 8.727 7.11 8.727 7.11-3.915 7.11-8.727-3.189-8.726-7.11-8.726z"/><g class="a"><path d="M23.419 255.808c-.1 0-1.212-.021-1.3 0-.749.293-1.203 1.059-1.1 1.857 0 .849 1.1 1.857 1.1 1.857h1.3c.926-.103 1.6-.929 1.516-1.857.084-.928-.59-1.754-1.516-1.857z"/><path d="M21.886 257.671h2.248v9.141h-2.248z"/><path d="M15.266 259.005l7.397-2.404.695 2.138-7.397 2.404z"/><use xlink:href="#G"/><path d="M22.1 257.008l4.235-5.825 1.818 1.322-4.235 5.825z"/><path d="M22.663 258.74l.695-2.138 5.934 1.928-.695 2.138z"/></g><path d="M22.12 255.808c-.925.105-1.597.93-1.513 1.857-.084.927.588 1.751 1.513 1.856.924-.105 1.596-.929 1.512-1.856.084-.927-.587-1.752-1.512-1.857z" class="b"/><path d="M16.295 257.67c0 4.486 2.773 8.189 6.325 8.671a5.8 5.8 0 0 1-.786.057c-3.921 0-7.111-3.915-7.111-8.728s3.19-8.726 7.11-8.726c.264.001.528.02.79.056-3.556.483-6.328 4.185-6.328 8.67z" class="a"/><g class="b"><path d="M20.995 257.671h2.248v9.141h-2.248z"/><path d="M14.375 259.005l7.396-2.403.695 2.138-7.396 2.403z"/><use xlink:href="#G" x="-0.89"/><path d="M21.21 257.008l4.75-6.533 1.818 1.322-4.75 6.533z"/><path d="M21.772 258.74l.695-2.138 6.824 2.217-.695 2.138z"/></g><path d="M29.911 257.671c0-5.476-3.617-9.914-8.078-9.914s-8.078 4.438-8.078 9.914 3.617 9.914 8.078 9.914 8.078-4.439 8.078-9.914zm-.748 0c0 4.961-3.289 9-7.33 9s-7.33-4.035-7.33-9 3.289-9 7.33-9 7.33 4.04 7.33 8.999z" class="a"/><path d="M29.669 257.671c0-5.311-3.508-9.617-7.836-9.617s-7.836 4.306-7.836 9.617 3.508 9.617 7.836 9.617 7.836-4.306 7.836-9.617zm-.726 0c0 4.812-3.19 8.728-7.11 8.728s-7.11-3.916-7.11-8.728 3.189-8.726 7.11-8.726 7.11 3.915 7.11 8.726z" class="b"/><path d="M22.119 256.456c-.602.069-1.038.605-.984 1.208-.054.603.382 1.139.984 1.208.602-.068 1.039-.605.985-1.208.054-.603-.383-1.14-.985-1.208z" class="j"/><ellipse cx="102.55" cy="257.671" rx="10.991" ry="13.489" class="i"/><path d="M102.551 248.944c-3.922 0-7.111 3.915-7.111 8.726s3.189 8.727 7.111 8.727 7.11-3.915 7.11-8.727-3.19-8.726-7.11-8.726z"/><g class="a"><path d="M104.136 255.808c-.1 0-1.212-.021-1.3 0-.749.293-1.203 1.059-1.1 1.857 0 .849 1.1 1.857 1.1 1.857h1.3c.926-.104 1.6-.929 1.516-1.857.084-.928-.59-1.754-1.516-1.857z"/><path d="M102.603 257.671h2.248v9.141h-2.248z"/><path d="M95.983 259.005l7.397-2.404.695 2.138-7.397 2.404z"/><use xlink:href="#G" x="80.717"/><path d="M102.817 257.01l4.233-5.826 1.819 1.321-4.233 5.826z"/><path d="M103.38 258.74l.695-2.138 5.934 1.928-.695 2.138z"/></g><path d="M102.837 255.808c-.925.105-1.597.93-1.513 1.857-.084.927.588 1.751 1.513 1.856.924-.105 1.596-.929 1.512-1.856.084-.927-.587-1.751-1.512-1.857z" class="b"/><path d="M97.012 257.67c0 4.486 2.772 8.189 6.324 8.671a5.8 5.8 0 0 1-.786.057c-3.921 0-7.11-3.915-7.11-8.728s3.189-8.726 7.111-8.726a5.87 5.87 0 0 1 .789.056c-3.556.483-6.328 4.185-6.328 8.67z" class="a"/><g class="b"><path d="M101.712 257.671h2.248v9.141h-2.248z"/><path d="M95.092 259.005l7.396-2.403.695 2.138-7.396 2.403z"/><use xlink:href="#G" x="79.827"/><path d="M101.927 257.01l4.748-6.534 1.819 1.321-4.748 6.534z"/><path d="M102.489 258.74l.695-2.138 6.824 2.217-.695 2.138z"/></g><path d="M110.628 257.671c0-5.476-3.618-9.914-8.078-9.914s-8.078 4.438-8.078 9.914 3.616 9.914 8.078 9.914 8.078-4.439 8.078-9.914zm-.748 0c0 4.961-3.288 9-7.33 9s-7.33-4.035-7.33-9 3.288-9 7.33-9 7.329 4.04 7.329 8.999z" class="a"/><path d="M110.386 257.671c0-5.311-3.508-9.617-7.836-9.617s-7.836 4.306-7.836 9.617 3.508 9.617 7.836 9.617 7.836-4.306 7.836-9.617zm-.726 0c0 4.812-3.19 8.728-7.111 8.728s-7.109-3.916-7.109-8.728 3.189-8.726 7.11-8.726 7.111 3.915 7.111 8.726z" class="b"/><path d="M102.836 256.456c-.602.069-1.038.605-.984 1.208-.054.603.382 1.139.984 1.208.602-.069 1.038-.605.984-1.208.054-.603-.382-1.139-.984-1.208z" class="j"/><g class="g"><path d="M118.048 247.775v15.811h39.7c1.394 0 3.72-15.616 3.749-15.811z"/><path d="M124.758 247.777v-.007a4959.93 4959.93 0 0 1-13.421-.016 16.31 16.31 0 0 1 3.224 9.918v4.082c0 1.015.822 1.837 1.837 1.837h4.611c1.402-.005 3.748-15.137 3.749-15.814z"/></g><path d="M120.1 241.15c3.3 2.953 4.659 5.75 4.659 6.619l9.082-.012c-1.633-5.612-9.592-6.607-13.741-6.607zm37.082.353c-2.455.631-4.481 2.285-4.781 6.255h9.091c-.091-.939-1.383-3.505-4.31-6.255z" fill="#fefdfe"/><path d="M149.403 242.313c-2.878-2.879-6.327-5.122-10.126-6.585-9.898-3.982-24.797-4.082-24.797-4.082H99.845s14.9.1 24.8 4.082c3.799 1.463 7.248 3.706 10.126 6.585 2.419 2.498 17.055 2.498 14.632 0z" class="l"/><path d="M149.403 242.313a29.11 29.11 0 0 0-10.126-6.585c-9.898-3.982-24.793-4.082-24.793-4.082h-1.2s14.9.1 24.8 4.082a29.11 29.11 0 0 1 10.126 6.585c1.146 1.181-1.523 1.8-4.909 1.867 3.913.072 7.383-.55 6.102-1.867z" class="g"/><path d="M105.319 216.573H72.257c8.282 4.375 15.97 15.073 15.97 15.073h33.675s-8.301-10.698-16.583-15.073z" class="k"/><path d="M55.624 257.907H77.64c7.039 0-5.408-5.863-23.47-5.863-10.716 0-10.791 5.863 1.454 5.863z" class="l"/><path fill="#6a90c3" d="M157.357 255.303H126.37a2.28 2.28 0 0 0-2.135 1.773l-.242 1.2a1.41 1.41 0 0 0 1.421 1.776h30.991c.7 0 1.422-.794 1.619-1.773l.242-1.2c.198-.982-.209-1.776-.909-1.776z"/><path d="M4.86 238.49h-.047l-.353 5.319h.4c.678.001 1.328-.268 1.808-.748s.749-1.129.749-1.807v-.21c0-.678-.269-1.328-.749-1.807s-1.13-.748-1.808-.747z" fill="#ff636d"/><path d="M81.345 229.324c-4.475-6.394-12.061-12.751-17.3-12.751-7.257.018-14.482.962-21.5 2.811 7.476 5.238 23.375 8.939 38.8 9.94z" class="h"/><path d="M88.12 216.573c7.232 5.466 17.9 8.49 28.523 9.1-3.103-3.2-7.215-6.929-11.323-9.1z" class="k"/><g class="c"><path d="M105.319 216.573h-1.376c8.282 4.375 16.583 15.073 16.583 15.073h1.376s-8.301-10.698-16.583-15.073zM39.243 227.99a4.09 4.09 0 0 1 .721-7.5 86.43 86.43 0 0 1 24.355-3.905l-.276-.012a86.17 86.17 0 0 0-25.405 3.922 4.09 4.09 0 0 0-.72 7.5c5.666 3.129 17.248 5.4 44.322 5.35h.006c-26.124-.027-37.43-2.277-43.003-5.355z"/><path d="M42.728 229.786l2.716-11.005.297.073-2.716 11.005zm40.308 2.228c-.509-.908-1.064-1.79-1.663-2.642-.258 1.566-1.091 2.979-2.337 3.962l3.2.006a.9.9 0 0 0 .8-1.326zm-4.86 3.233a.61.61 0 0 1-.506-.267l-2.031-2.966a.612.612 0 1 1 1.011-.691l2.03 2.966a.61.61 0 0 1-.5.958z"/></g><path d="M77.564 230.808c0 .873-.667 1.582-3.317 1.582s-6.275-.709-6.275-1.582 3.627-1.582 6.275-1.582 3.317.708 3.317 1.582z" class="g"/><path d="M77.12 229.844c-.866-.511-1.874-.728-2.873-.618-2.648 0-6.275.708-6.275 1.582 0 .194.187.379.5.551a28.1 28.1 0 0 0 3.983.309c3.317 0 4.446-.786 4.665-1.824z" class="l"/><path d="M50.44 237.205a.7.7 0 0 1-.074 0l-6.2-.745c-.338-.039-.581-.345-.541-.683s.345-.581.683-.542l6.2.745a.61.61 0 0 1 .541.644.61.61 0 0 1-.613.576z" class="c"/><defs ><path id="B" d="M212.465 258.742h-1.124c-.654-.272-1.044-.949-.95-1.651 0-.755.95-1.651.95-1.651h1.124a1.7 1.7 0 0 1 0 3.3z"/><path id="C" d="M211.341 258.742a1.7 1.7 0 0 1-1.727-2.708 1.7 1.7 0 0 1 3.033 1.057 1.51 1.51 0 0 1-1.306 1.651z"/><path id="D" d="M212.806 257.404l-3.73 6.559-2.017-1.51 4.9-5.68z"/><path id="E" d="M260.823 223.702h1.824c.169 0 .331.067.45.187s.187.281.187.45c0 .352-.285.637-.637.637h-1.824v-1.274z"/><path id="F" d="M72.768 257.671c0 7.45-4.921 13.489-10.991 13.489h-7.068v-26.978h7.068c6.07 0 10.991 6.039 10.991 13.489z"/><path id="G" d="M17.066 251.401l1.819-1.321 5.034 6.929-1.819 1.321z"/></defs></svg>