<svg xmlns="http://www.w3.org/2000/svg" xmlns:xlink="http://www.w3.org/1999/xlink" width="311.465" height="173.888" xmlns:v="https://vecta.io/nano"><style><![CDATA[.B{fill:#263238}.C{fill:#e0e0e0}.D{fill:#455a64}.E{fill:#fff}.F{fill:#cbddf5}.G{fill:#aa6550}.H{opacity:.6}.I{fill:#ffc727}.J{fill:#f2f8ff}.K{fill:#e8505b}.L{fill:#ffbe9d}.M{fill:#fafafa}.N{fill:#ebebeb}.O{fill:#eb996e}.P{fill:#b78876}.Q{fill:#995037}]]></style><path d="M311.464 169.8c0 .063-69.729.114-155.725.114-86.025 0-155.74-.051-155.74-.114s69.714-.114 155.74-.114l155.725.114z" class="B"/><path d="M121.915 159.486v10.571h32.506v-10.571z" class="J"/><g class="F"><path d="M120.551 156.531v2.955h35.01v-2.955h-35.01z"/><path d="M138.056 170.057h16.368v-10.571h1.137v-2.955h-18.187v2.682zm-11.594-8.866h6.593v1.591h-6.593z"/></g><path d="M125.613 164.772h8.466v3.36h-8.466z" class="E"/><path d="M124.901 145.969v10.571h32.509v-10.571z" class="J"/><g class="F"><path d="M123.537 143.014v2.955h35.01v-2.955h-35.01z"/><path d="M141.044 156.541h16.368v-10.572h1.132v-2.955H140.36v2.685zm-11.596-8.867h6.593v1.591h-6.593z"/></g><path d="M128.599 151.255h8.466v3.36h-8.466z" class="E"/><path d="M14.867 94.576c-.95.723-1.564 1.802-1.7 2.988v8.7h12.69v-9.093s-.177-2.232-1.669-2.6z" class="J"/><path d="M14.129 105.801a24.11 24.11 0 0 1-.187-2.676c.03-.905.625-1.694 1.487-1.972a4.86 4.86 0 0 1 2.055.175 5.45 5.45 0 0 0 3.285-.49c.786-.548 1.665-.947 2.594-1.179a1.4 1.4 0 0 1 1.516.837 2.08 2.08 0 0 1-.015.883 30.3 30.3 0 0 0 .058 4.3c-3.554.166-7.235.049-10.791.125m-1.77 1.694l1.912-1.23h11.585l1.86 1.23H12.361" class="F"/><path d="M12.002 79.185v12.957h15.716v15.357H12.361v3.682h26.493v-32a2.76 2.76 0 0 0-2.759-2.759H14.761a2.76 2.76 0 0 0-2.759 2.763z" class="J"/><g class="C"><path d="M38.854 79.48c0 .062-6.012.114-13.425.114s-13.427-.049-13.427-.114 6.01-.114 13.426-.114l13.426.114z"/><path d="M31.399 111.181c-.063 0-.114-7.76-.114-17.331l.114-17.333c.063 0 .114 7.759.114 17.333l-.114 17.331z"/></g><g class="F"><path d="M10.579 102.073l-.159-3.925a5.3 5.3 0 0 1 .853-3.2 2.82 2.82 0 0 1 2.313-1.4h10.6v1.025h-10.4s-1.874.2-2.12 2.761a25.33 25.33 0 0 0 0 4.733zm9.633 59.347h4.648v8.381h-4.648zm20.541 0h4.648v8.381h-4.648z"/><path d="M9.998 111.18h38.5v50.24h-38.5z"/></g><g class="J"><path d="M2.945 111.18h37.501v50.24H2.945z"/><path d="M6.26 161.42h4.648v8.381H6.26z"/></g><path fill="#f5f5f5" d="M32.988 161.42h4.648v8.381h-4.648z"/><path d="M37.467 155.68l-.006-.222-.005-.642-.013-2.463-.028-9.075.052.052-32.183.024.076-.076v12.4l-.073-.073 31.574.064-1.794.03-6.688.021-23.173.034v-12.549h.078l32.235.023v.052l-.041 11.557-.006.633-.005.21zm-15.125-6.201a2.3 2.3 0 0 1-.059-.23.97.97 0 0 0-.357-.5.92.92 0 0 0-.863-.117.9.9 0 0 0 0 1.694.92.92 0 0 0 .863-.117.97.97 0 0 0 .357-.5l.059-.23a.46.46 0 0 1 0 .245.97.97 0 0 1-.35.571 1.02 1.02 0 0 1-.976.163c-.416-.146-.694-.538-.694-.978s.278-.833.694-.978a1.02 1.02 0 0 1 .976.163.97.97 0 0 1 .35.571.46.46 0 0 1 0 .244zm15.125-8.651l-.006-.222-.005-.642-.013-2.463-.028-9.075.052.052-32.183.024.076-.076v12.4l-.073-.073 31.574.064-1.794.03-6.688.021-23.173.034v-12.549h.078l32.235.023v.052l-.041 11.558-.006.632-.005.21zm-15.125-6.201a2.28 2.28 0 0 1-.059-.23.97.97 0 0 0-.357-.5.92.92 0 0 0-.863-.117.9.9 0 0 0 0 1.694.92.92 0 0 0 .863-.117.97.97 0 0 0 .357-.5 2.3 2.3 0 0 1 .059-.23.46.46 0 0 1 0 .245c-.045.226-.169.429-.35.571a1.02 1.02 0 0 1-.976.163c-.416-.146-.694-.538-.694-.978s.278-.833.694-.978a1.02 1.02 0 0 1 .976.163.97.97 0 0 1 .35.571.46.46 0 0 1 0 .244zm15.125-8.449l-.006-.222-.005-.642-.013-2.462-.028-9.075.052.052-32.183.023.076-.076v12.4l-.073-.073 23.055.034 6.7.021 1.819.009-1.782.01-6.688.02-23.173.034v-12.549h.078l32.235.024v.052l-.041 11.558-.006.633-.017.229zm-15.125-6.201a2.3 2.3 0 0 1-.059-.23.97.97 0 0 0-.357-.5c-.375-.276-.898-.224-1.211.122s-.313.872 0 1.217a.91.91 0 0 0 1.211.122.97.97 0 0 0 .357-.5l.059-.23a.46.46 0 0 1 0 .244.97.97 0 0 1-.35.571 1.02 1.02 0 0 1-.976.163 1.04 1.04 0 0 1 0-1.957 1.02 1.02 0 0 1 .976.163c.181.142.305.345.35.571a.46.46 0 0 1 0 .245z" class="F"/><path d="M38.467 111.181c0 .063-5.839.114-13.04.114s-13.041-.051-13.041-.114 5.838-.114 13.041-.114l13.04.114z" class="C"/><path d="M148.356 35.814h33.858v30.291h-33.858z" class="M"/><g class="C"><path d="M182.215 66.105l-.009-.562-.009-1.623-.02-6.149-.039-21.957.076.076-33.855.014.09-.09-.011 30.291-.079-.08 33.241.07-1.813.009-6.889.021-24.62.04-.011-30.461 34.026.014v.077l-.078 30.31zm-20.876-24.909c0 .05-1.782.09-3.98.09s-3.981-.041-3.981-.09 1.782-.09 3.981-.09l3.98.09zm14.346 2.275c0 .05-4.9.09-10.934.09s-10.935-.041-10.935-.09 4.9-.09 10.935-.09l10.934.09z"/><use xlink:href="#B"/><use xlink:href="#B" x="3.511"/><use xlink:href="#B" x="7.087" y="-0.064"/><use xlink:href="#B" x="10.533"/><use xlink:href="#B" x="14.045"/><use xlink:href="#B" x="17.556"/></g><g class="N"><use xlink:href="#B" x="21.067"/><use xlink:href="#B" y="3.033"/></g><use xlink:href="#B" x="3.511" y="3.033" class="C"/><use xlink:href="#B" x="7.022" y="3.033" class="N"/><g class="C"><use xlink:href="#B" x="10.533" y="3.033"/><use xlink:href="#B" x="14.045" y="3.033"/><use xlink:href="#B" x="17.62" y="2.968"/><use xlink:href="#B" x="21.067" y="3.033"/><use xlink:href="#B" y="6.065"/><use xlink:href="#B" x="3.576" y="6.001"/><use xlink:href="#B" x="7.022" y="6.065"/></g><use xlink:href="#B" x="10.533" y="6.065" class="N"/><g class="C"><use xlink:href="#B" x="14.045" y="6.065"/><use xlink:href="#B" x="17.556" y="6.065"/><use xlink:href="#B" x="21.067" y="6.065"/><use xlink:href="#B" y="9.098"/><use xlink:href="#B" x="3.511" y="9.098"/><use xlink:href="#B" x="7.022" y="9.098"/><use xlink:href="#B" x="10.598" y="9.033"/><use xlink:href="#B" x="14.045" y="9.098"/></g><use xlink:href="#B" x="17.556" y="9.098" class="N"/><g class="C"><use xlink:href="#B" x="21.067" y="9.098"/><use xlink:href="#B" y="12.13"/></g><use xlink:href="#B" x="3.511" y="12.13" class="N"/><g class="C"><use xlink:href="#B" x="7.022" y="12.13"/><use xlink:href="#B" x="10.533" y="12.13"/><use xlink:href="#B" x="14.045" y="12.13"/><use xlink:href="#B" x="17.62" y="12.066"/><use xlink:href="#B" x="21.067" y="12.13"/><path d="M282.147 58.615l-.01-.962-.011-2.789-.024-10.584-.049-37.912.094.094-65.666.019.114-.114-.012 52.247-.1-.1 65.351.096.315.006s-.1 0-.3.006l-.906.006-3.541.012-61.014.078-.012-52.461 65.874.019v.095l-.083 51.305-.02.939z"/></g><path d="M224.97 16.05h2.374v26.518h-2.374zm4.584 9.006h2.375v17.511h-2.375zm4.585-5.71h2.374v23.356h-2.374zm4.584-2.272h2.374v25.494h-2.374zm4.584 8.521h2.374v16.972h-2.374zm4.584 3.329h2.374v13.644h-2.374zm4.584-10.152h2.375v23.796h-2.375zm4.584 4.29h2.374v19.506h-2.374zm4.584-3.428h2.375v22.934h-2.375zm4.584 7.309h2.374v15.625h-2.374zm4.584-2.973h2.374v18.598h-2.374z" class="F"/><g class="C"><path d="M274.155 44.415c0 .054-11.263.1-25.153.1s-25.156-.044-25.156-.1 11.261-.1 25.156-.1l25.153.1zm-45.799 2.087a15.97 15.97 0 0 1-3.524 0 15.97 15.97 0 0 1 3.524 0z"/><use xlink:href="#C"/><use xlink:href="#C" x="4.985"/><use xlink:href="#C" x="9.97"/><use xlink:href="#C" x="14.956"/><use xlink:href="#C" x="19.941"/><use xlink:href="#C" x="24.926"/><path d="M264.115 46.608c-1.401.13-2.811.13-4.212 0 1.401-.13 2.811-.13 4.212 0z"/><use xlink:href="#C" x="34.897"/><use xlink:href="#C" x="39.883"/></g><path d="M214.379 6.058h69.632v1.964h-69.632z" class="F"/><g class="C"><path d="M155.945 60.948l-.459-1.6.923.044.082 1.482z"/><path d="M154.608 60.905l-1.049 5.692-2.652 7.522 14.945-2.156-6.031-6.566-2.518-4.881-2.693.389m-29.397 39.936c0-.079-.012-.157-.012-.237 0-2.62 2.124-4.743 4.744-4.744s4.743 2.124 4.744 4.744c0 .08-.008.158-.012.237z"/><path d="M129.944 96.05c-.086 0-.16-.058-.182-.141l-6.285-23.953c-.018-.065 0-.135.048-.183a.19.19 0 0 1 .316.083l6.285 23.953c.026.101-.034.204-.135.23a.19.19 0 0 1-.047.011zm-1.66.592c-.086 0-.161-.058-.182-.141l-6.285-23.953c-.018-.065 0-.135.048-.183a.19.19 0 0 1 .316.083l6.285 23.954c.013.048.006.1-.02.143s-.067.074-.115.087c-.015.005-.031.009-.047.01z"/><path d="M121.522 72.145c0 .48.289.912.732 1.096s.953.082 1.292-.257.441-.849.257-1.292-.616-.732-1.096-.732c-.655 0-1.186.531-1.186 1.186z"/><path d="M122.818 72.299l-.214-.31 22.272-15.364 13.028 7.411-.186.327-12.823-7.294zm.974.524l21.928-15.179.215.31-21.928 15.179z"/><path d="M144.174 57.441c.001.589.479 1.066 1.068 1.066s1.067-.478 1.066-1.067-.478-1.067-1.067-1.067c-.283 0-.555.113-.755.313s-.312.472-.312.755z"/></g><path d="M90.53 0h2.144v46.106H90.53z" class="F"/><rect width="30.781" height="45.814" rx=".071" x="59.424" y=".357" class="J"/><path d="M90.532 46.527H59.098c-.008 0-.016-.003-.022-.009s-.009-.014-.009-.022V.031c0-.008.003-.016.009-.022S59.09 0 59.098 0h31.434c.008 0 .016.003.022.009s.009.014.009.022v46.465c0 .008-.003.016-.009.022s-.014.009-.022.009zm-30.719-.713h30.006c.008 0 .016-.003.022-.009s.009-.014.009-.022V.748c0-.008-.003-.016-.009-.022s-.014-.009-.022-.009H59.811c-.008 0-.016.003-.022.009s-.009.014-.009.022v45.039c.002.016.015.027.031.027z" class="F"/><rect width="24.637" height="40.131" rx=".071" x="62.523" y="3.183" class="E"/><rect width="13.833" height="16.214" rx=".064" x="67.898" y="14.56" class="F"/><path d="M80.636 28.789a3.04 3.04 0 0 1-1.964.2 4.8 4.8 0 0 1-2.208-.882 4.48 4.48 0 0 1-1.715-2.7 3.88 3.88 0 0 1 1.312-3.688c.297-.249.633-.446.995-.583.398-.147.825-.196 1.245-.143a2.19 2.19 0 0 1 1.244.543c.395.371.58.915.491 1.45-.095.475-.333.909-.683 1.244a4.5 4.5 0 0 1-1.042.768 5.71 5.71 0 0 1-2.486.71c-.922.051-1.84-.156-2.65-.6-.836-.465-1.515-1.169-1.95-2.021a4.12 4.12 0 0 1-.35-2.83 4.2 4.2 0 0 1 1.492-2.332 3.67 3.67 0 0 1 1.25-.631 3.12 3.12 0 0 1 1.408-.044 2.3 2.3 0 0 1 1.278.721c.322.382.499.866.5 1.366.004.455-.11.903-.333 1.3-.205.36-.472.681-.789.948a5.31 5.31 0 0 1-1.96 1.041c-.669.195-1.371.25-2.062.159-.643-.088-1.257-.323-1.794-.687-.936-.616-1.561-1.605-1.714-2.715-.092-.828.135-1.66.635-2.327.298-.415.704-.739 1.174-.938.323-.122.507-.118.515-.087s-.146.115-.408.29c-.373.256-.685.591-.913.982a2.9 2.9 0 0 0-.374 1.988c.186.894.739 1.668 1.524 2.134.953.557 2.102.667 3.143.3a4.42 4.42 0 0 0 1.573-.889c.453-.357.722-.898.735-1.474a1.06 1.06 0 0 0-.947-1.046c-.299-.053-.607-.039-.9.042a2.61 2.61 0 0 0-.854.447 3.11 3.11 0 0 0-1.076 1.715c-.159.695-.066 1.423.264 2.055.333.651.851 1.189 1.488 1.547a3.86 3.86 0 0 0 2.048.477c.704-.029 1.393-.217 2.014-.55.292-.15.561-.341.8-.567.198-.177.34-.407.408-.664a.58.58 0 0 0-.165-.535 1.2 1.2 0 0 0-.666-.293 1.68 1.68 0 0 0-.785.066 2.52 2.52 0 0 0-.73.4 3.04 3.04 0 0 0-1.114 2.82c.148.91.616 1.738 1.318 2.335a4.65 4.65 0 0 0 1.895.946c1.172.267 1.874.133 1.883.232z" class="J"/><path d="M220.048 46.503h0l2.083-3.182c.8-1.038 1.063-1.523.859-1.661-.273-.184-.159-.126-1.89 1.554 0 0 2.448-2.419 1.506-2.312a14.9 14.9 0 0 0-2.471 2.038c1.8-1.447 2.245-2.277 2.012-2.536-.338-.377-2.813 2.058-2.813 2.058.765-.704 1.487-1.453 2.162-2.243.238-.423-.34-.318-.793-.1-.509.249-3.255 2.122-4.075 2.621-.131.102-.299.142-.462.109s-.302-.136-.382-.281a3.58 3.58 0 0 0-1.96-2.125c-.185-.013-.357.095-.425.267s-.018.369.125.487a5.2 5.2 0 0 1 .736 1.2 3.34 3.34 0 0 1 .314 1.081l.083 1.121-1.245 6.947 4.378 3.081z" class="P"/><path d="M220.082 44.25a12.45 12.45 0 0 0 2.31-2.357c-.871.68-1.648 1.473-2.31 2.357zm-.715-.597a14.18 14.18 0 0 0 2.613-2.363 14.17 14.17 0 0 0-2.613 2.363zm-.739-.623a12.75 12.75 0 0 0 2.5-2.2 12.75 12.75 0 0 0-2.5 2.2z" class="G"/><path d="M189.98 25.118c1.723-.135 3.428.429 4.732 1.563s2.097 2.745 2.202 4.471l.324 7.861a4.2 4.2 0 0 1-3.544 4.044c0 0 .5 6.08.449 7.063l-9.262.425-.84-18.711c-.156-3.474 2.472-6.446 5.939-6.716z" class="P"/><path d="M193.7 43.006c-1.616.03-3.205-.423-4.563-1.3.886 1.647 2.732 2.535 4.571 2.2z" class="G"/><path d="M184.364 33.036c-.059-.026-2.4-.712-2.329 1.682a1.8 1.8 0 0 0 2.465 1.754c.003-.066-.136-3.436-.136-3.436z" class="P"/><path d="M183.74 35.588c-.01-.007-.041.031-.11.065-.098.045-.209.051-.311.016a1.03 1.03 0 0 1-.507-.91 1.38 1.38 0 0 1 .1-.6.48.48 0 0 1 .3-.33.21.21 0 0 1 .249.106c.035.066.021.114.034.118s.05-.042.028-.14c-.015-.059-.051-.111-.1-.147-.067-.047-.151-.066-.232-.053-.198.046-.359.192-.423.385a1.41 1.41 0 0 0-.123.671 1.08 1.08 0 0 0 .641 1.014c.131.034.271.006.379-.076.075-.061.085-.111.075-.119z" class="G"/><path d="M196.027 33.378a.5.5 0 0 1-.482.5.48.48 0 0 1-.515-.451.5.5 0 0 1 .481-.5.48.48 0 0 1 .516.451zm-.015-.979c-.062.065-.441-.215-.979-.214s-.932.27-.99.2c-.029-.029.035-.147.206-.272a1.38 1.38 0 0 1 .793-.244c.283.002.553.087.779.251.166.131.222.249.191.279zm-5.273.978a.5.5 0 0 1-.482.5.48.48 0 0 1-.515-.451.5.5 0 0 1 .481-.5.48.48 0 0 1 .516.451zm-.014-.879c-.062.065-.441-.215-.979-.214s-.932.27-.99.2c-.029-.029.034-.146.206-.272a1.37 1.37 0 0 1 .793-.244 1.32 1.32 0 0 1 .779.251c.165.132.222.25.191.279zm1.953 3.994a3.55 3.55 0 0 1 .874-.157c.137-.014.267-.042.29-.135a.7.7 0 0 0-.092-.407l-.406-1.046a18 18 0 0 1-.913-2.736 17.97 17.97 0 0 1 1.131 2.656l.389 1.052a.8.8 0 0 1 .072.539c-.041.098-.124.171-.226.2a.94.94 0 0 1-.233.033 3.49 3.49 0 0 1-.886.001zm-1.583.368c.087-.005.089.579.588.993s1.121.35 1.126.432c.008.037-.139.114-.4.121-.342.005-.675-.112-.94-.328-.254-.208-.418-.507-.456-.833-.023-.244.045-.389.082-.385zm-.23-6.466c-.053.146-.59.077-1.221.153s-1.141.248-1.225.117c-.037-.063.052-.2.257-.342a2.14 2.14 0 0 1 1.864-.206c.231.091.348.206.325.278zm4.95.448c-.094.122-.465 0-.911-.01-.445-.022-.823.082-.91-.046-.038-.062.021-.184.186-.3a1.32 1.32 0 0 1 1.467.045c.158.126.21.251.168.311zm-11.681 2.134a3.72 3.72 0 0 0 .016 1.1 1.25 1.25 0 0 0 .611.874 1.3 1.3 0 0 0 1.625-.775 4.03 4.03 0 0 0 .133-1.988 9.68 9.68 0 0 1 .041-2.739 3.93 3.93 0 0 1 1.315-2.349 2.49 2.49 0 0 1 2.578-.372 14.07 14.07 0 0 1 1.363 1 2.1 2.1 0 0 0 1.446.364 1.36 1.36 0 0 0 1.108-.924 1.48 1.48 0 0 0-.564-1.469 3.38 3.38 0 0 0-1.529-.612 8.2 8.2 0 0 0-4.541.353 5.92 5.92 0 0 0-3.3 3.066c-.7 1.638-.226 2.937-.328 4.755" class="B"/><path d="M219.692 48.514l-5.725-1.381-3.778 10.249-10.442-9.342c-1.111-.813-3.026-.914-4.483-1.095l-.11-.014-1.182-.189c-2.517 1.893-6.824 2.014-9.3.061l-2.994.638a8.82 8.82 0 0 0-6.768 5.615l4.413 10.178.846 9.668-2.443 8.656a1.5 1.5 0 0 0 1.256 1.9l21.863.333.357-.177a4.06 4.06 0 0 0 .588-2.77c-.945-4.142-.286-16.5-.485-20.288 4.288 4.166 9.02 7.623 12.477 5.483 2.879-1.778 5.91-17.525 5.91-17.525z" class="C"/><path d="M184.841 46.563h0z" class="K"/><path d="M183.97 47.439l.507-3.5 4.765 1.749 1.344 2.37.836-2.6 2.614-.9 1.118 2.326-1.918 2.714-3.6.727z" class="C"/><g class="B"><path d="M190.669 48.602c-.007.007-.069-.042-.178-.144-.155-.149-.301-.306-.437-.472a7.07 7.07 0 0 1-1.15-1.983h.175l-1.1 2.775-.612 1.513-.111-.107-2.378-2.33-.681-.695a1.31 1.31 0 0 1-.228-.268 1.27 1.27 0 0 1 .278.217l.723.65 2.43 2.275-.169.036.548-1.372 1.219-2.991.083.23a7.8 7.8 0 0 0 1.06 1.979l.528.687zm4.486-1.718a3.72 3.72 0 0 1-.559.771 7.68 7.68 0 0 1-1.825 1.6l-.1.064-.044-.118-.526-1.359-.764-1.994.185-.015-.469 1.891c-.049.244-.118.484-.208.717a2.99 2.99 0 0 1 .1-.743l.391-1.9.062-.349.124.334.782 1.979.519 1.37-.148-.054a8.68 8.68 0 0 0 1.834-1.513 8.02 8.02 0 0 1 .646-.681z"/><path d="M192.398 84.223a2.34 2.34 0 0 1 .024-.365q.041-.385.111-1.041l.14-1.649q.035-.484.073-1.03.022-.55.046-1.158l.031-5.7-.341-6.979c-.358-4.947-.845-9.413-1.213-12.643l-.437-3.825q-.071-.656-.112-1.041a2.23 2.23 0 0 1-.024-.365 2.32 2.32 0 0 1 .068.359l.152 1.036.505 3.818c.407 3.226.918 7.692 1.277 12.646.169 2.477.281 4.839.325 6.99s.016 4.09-.077 5.715q-.032.609-.061 1.159-.048.547-.09 1.032c-.059.644-.1 1.2-.177 1.649s-.114.781-.151 1.037a2.29 2.29 0 0 1-.069.355zm17.67-22.887c-.143-1.381-.143-2.774 0-4.155a20.14 20.14 0 0 1 0 4.155z"/><path d="M211.525 61.603c.016.194-.291-.361-.932-2.142-.286-.728-.48-1.488-.577-2.264l1.508 4.407z"/></g><path d="M197.416 157.409l-.332 7.937s7.957 3 8.038 4.476l-15.413-.09.009-12.389z" class="D"/><path d="M192.322 164.65a.63.63 0 0 0-.44.716c.08.312.391.506.706.442.326-.098.525-.427.461-.761a.63.63 0 0 0-.785-.378" class="C"/><path d="M189.709 169.732l.05-1.249 14.759.553s.685.3.6.785z" class="E H"/><g class="B"><path d="M197.334 165.269c0 .075-.379.107-.751.347s-.571.555-.64.525c-.069-.015.045-.464.5-.747s.908-.191.891-.125zm1.612.679c.017.073-.31.2-.567.516s-.333.653-.408.649c-.071.012-.121-.429.207-.817s.768-.418.768-.348zm.908 1.939c-.069.016-.171-.361.024-.772s.549-.573.58-.51-.187.282-.343.622-.186.653-.261.66zm-2.645-4.435c-.032.068-.377-.038-.8-.011s-.758.159-.8.094.281-.331.783-.355.854.213.817.272zm.038-1.602c-.253.067-.52.065-.772-.008a3.45 3.45 0 0 1-.806-.253c-.153-.069-.3-.149-.442-.238a.95.95 0 0 1-.232-.183c-.1-.11-.114-.275-.032-.4a.41.41 0 0 1 .331-.17 1 1 0 0 1 .289.042 2.8 2.8 0 0 1 .479.167 2.73 2.73 0 0 1 .709.472c.356.333.476.615.45.63s-.207-.212-.569-.487a3.08 3.08 0 0 0-.686-.392 2.88 2.88 0 0 0-.443-.139c-.163-.044-.3-.046-.344.027-.015.027-.017.038.017.086a.77.77 0 0 0 .17.133c.131.086.267.165.407.235a4.28 4.28 0 0 0 .744.291 5.38 5.38 0 0 1 .73.187z"/><path d="M197.148 161.956a1.23 1.23 0 0 1-.2-.747 2.5 2.5 0 0 1 .309-1.312.64.64 0 0 1 .495-.387.36.36 0 0 1 .321.217 1.04 1.04 0 0 1 .077.284 1.71 1.71 0 0 1 0 .52 1.78 1.78 0 0 1-.335.8c-.3.4-.618.486-.624.46-.025-.038.239-.182.471-.564a1.78 1.78 0 0 0 .249-.724c.017-.148.014-.299-.011-.446-.023-.164-.084-.3-.146-.28-.076 0-.208.121-.271.251a2.61 2.61 0 0 0-.194.418 2.79 2.79 0 0 0-.154.769c-.025.448.054.73.013.741z"/></g><path d="M170.828 155.075l-2.5 9.935-4.246 7.286a1.05 1.05 0 0 0 .441 1.469h0c.304.152.662.146.961-.015 1.907-1.029 8.9-4.847 9.043-5.585.165-.854 3.336-10.3 3.336-10.3z" class="D"/><path d="M164.52 173.765l10.189-6.266-.116.419a1.58 1.58 0 0 1-.634.888c-.831.563-3.159 2.069-8.448 4.954a1.05 1.05 0 0 1-.991.007zm9.043-10.011c-.302.115-.469.44-.388.753a.61.61 0 0 0 .743.391.67.67 0 0 0 .407-.8c-.142-.31-.503-.452-.818-.322" class="H E"/><path d="M167.97 170.075c-.251-.791-.915-1.382-1.73-1.539 0-.027.145-.069.384-.038.639.105 1.16.568 1.339 1.19.059.235.034.385.007.387zm-1.068 1.128c-.059.03-.287-.379-.757-.666-.302-.148-.613-.279-.93-.391a1.16 1.16 0 0 1 1.049.2c.534.331.697.847.638.857zm2.843-2.457a5.4 5.4 0 0 0-2.47-1.854 2.87 2.87 0 0 1 2.47 1.854zm1.016-2.96c-.043.052-.525-.327-1.228-.549s-1.312-.207-1.317-.274a2.6 2.6 0 0 1 2.545.823zm.808-2.898c-.755-.585-1.725-.817-2.663-.639-.01-.025.131-.119.4-.188a2.29 2.29 0 0 1 2 .48c.2.184.284.33.263.347zm-1.093-1.152a.88.88 0 0 1 .09-.377 2.68 2.68 0 0 1 .567-.9 1.2 1.2 0 0 1 .645-.413.42.42 0 0 1 .433.218c.071.153.083.327.033.489-.236.672-.915 1.081-1.619.977a1.72 1.72 0 0 1-1.389-1.318.6.6 0 0 1 .105-.486c.12-.133.312-.173.476-.1a1.47 1.47 0 0 1 .557.518 3.03 3.03 0 0 1 .462.953.92.92 0 0 1 .057.383 4.79 4.79 0 0 0-.646-1.24 1.38 1.38 0 0 0-.5-.44.22.22 0 0 0-.259.051.41.41 0 0 0-.051.324c.15.582.626 1.024 1.218 1.129a1.29 1.29 0 0 0 1.386-.809.5.5 0 0 0-.008-.342.23.23 0 0 0-.238-.123c-.215.053-.408.172-.553.339a3.99 3.99 0 0 0-.766 1.167z" class="B"/><path d="M188.579 47.282l1.081.564-.2 1.822-1.687-.354z" class="K"/><path d="M188.579 47.282l1.081.564-.2 1.822-1.687-.354z" opacity=".4"/><g class="I"><path d="M191.059 47.733l.818-.72.749 1.906-1.073.515zm-1.198 2.379l-.505 21.541 3.641 3.6 1.763-4.782-3.5-20.473z"/><path d="M189.885 47.18c.248-.029.591-.1.862-.154a.6.6 0 0 1 .65.3l.46.848a.6.6 0 0 1 .061.4l-.184.951a.6.6 0 0 1-.469.473l-1.039.21a.6.6 0 0 1-.653-.316l-.52-1.025a.6.6 0 0 1-.014-.512l.362-.82a.6.6 0 0 1 .484-.355z"/></g><g class="B"><path d="M191.398 47.409a2.27 2.27 0 0 1-.277.345l-.712.789-.73.772a2.24 2.24 0 0 1-.322.3 2.24 2.24 0 0 1 .276-.343l.713-.791.732-.773a2.2 2.2 0 0 1 .32-.299zm-1.065.993a5 5 0 0 1-.944-.906 5 5 0 0 1 .944.906z"/><path d="M191.55 49.784a11.3 11.3 0 0 1 .258-1.242c.012-.292-.081-.579-.261-.81a.72.72 0 0 1-.126-.354c.013 0 .052.133.178.323l.211.349c.08.154.108.329.082.5-.071.353-.163.652-.224.876a1.64 1.64 0 0 1-.118.358zm9.299 33.959l-1.528 79.084a.97.97 0 0 1-.979.952l-9.213-.081a.97.97 0 0 1-.961-.99l1.427-68.068-11.982 67.563a1.74 1.74 0 0 1-1.772 1.435l-7.726-.267a1.74 1.74 0 0 1-1.658-2.006l12.135-77.948z"/></g><g class="D"><path d="M171.861 159.451s0-.064.021-.187l.083-.544.339-2.088 5.497-32.992 4.1-25.34 1.529-9.775.091-.543.038-.184s0 .064-.017.187l-.07.546-.289 2.1-1.131 7.7-4.042 25.352-4.28 25.308-1.347 7.663-.379 2.081-.1.54-.043.176zm23.61.29c-.059 0 .045-16.094.232-35.941l.447-35.942c.059.001-.045 16.09-.232 35.944l-.447 35.939z"/><path d="M199.601 160.021c0 .059-2.512.107-5.609.107s-5.609-.048-5.609-.107 2.511-.108 5.609-.108l5.609.108zm-21.437-.434a1.84 1.84 0 0 1-.45.043l-1.227.042-4.048.1-4.051.036c-.519 0-.938-.014-1.228-.026a1.87 1.87 0 0 1-.45-.041 1.84 1.84 0 0 1 .45-.043l1.227-.042 4.048-.1 4.051-.036 1.228.027a1.84 1.84 0 0 1 .45.04zm13.039-74.909c.029.456.019.914-.029 1.368l-.231 3.29-.171 1.813a3.49 3.49 0 0 1-.489 1.429 1.97 1.97 0 0 1-.747.694.69.69 0 0 1-.358.107 2.28 2.28 0 0 0 .969-.886 3.54 3.54 0 0 0 .418-1.372l.152-1.8.3-3.285a8.19 8.19 0 0 1 .186-1.358z"/></g><path d="M179.316 77.139c.964.898 2.299 1.281 3.593 1.032a10.59 10.59 0 0 1 2.686-.615 8.5 8.5 0 0 1 2.764 1.19c1.79.647 3.748.663 5.549.044.861-.153 1.651-.575 2.256-1.205a4.04 4.04 0 0 0 .694-1.874 19.33 19.33 0 0 0 .272-3.713c.05-.784-.161-1.563-.6-2.214a2.56 2.56 0 0 0-1.664-.839 6.56 6.56 0 0 0-1.9.106c-4.993.829-9.712 2.853-13.753 5.9" opacity=".3"/><path d="M188.181 73.035s-11.568 5.174-12.745 5.432c-3.905.857-8.37-2.832-7.13-7.038.461-1.564 6.685-18.863 6.685-18.863l5.923 8.186-2.506 8.377 6.562-.436z" class="C"/><path d="M184.436 68.762a2.26 2.26 0 0 1-.457.064l-1.266.107-4.444.309.041-.139.386-1.3 1.527-5 .485-1.508a3.2 3.2 0 0 1 .2-.545 3.16 3.16 0 0 1-.128.568l-.423 1.527-1.469 5.017-.389 1.3-.1-.13 4.3-.227 1.27-.047a2.21 2.21 0 0 1 .467.004zm2.454 4.948c.021.052-2.518 1.149-5.671 2.449l-5.75 2.259c-.021-.052 2.517-1.148 5.672-2.449l5.749-2.259z" class="B"/><path d="M185.492 68.378l-.913-4.442a.57.57 0 0 1 .562-.686l11.5.054a.57.57 0 0 1 .564.637l-1.19 10.175a.79.79 0 0 1-.794.7l-7.5-.058c-.361-.003-.675-.25-.763-.6z" class="D"/><path d="M184.476 66.039h0a1.21 1.21 0 0 1 1.129.771 2.61 2.61 0 0 0 .77 1.231 2.73 2.73 0 0 0 2.053.3c.513-.251 2.566-2.1 2.925-1.893s.668.667.308 1.078-2.259 1.642-1.9 2.053 4.362-1.4 4.978-1.237.975.538.616.785-3.079 1.273-3.233 1.633c0 0 4.106-1.078 4.26-.821s.41.667 0 .821-3.952 1.078-4.26 1.232c-.509.212-1.04.367-1.583.462a16.96 16.96 0 0 0-1.654.524c-.831.288-1.738.264-2.553-.068l-.415-.17a1.63 1.63 0 0 1-1.012-1.607l.084-1.4-.448-1.155z" class="P"/><path d="M191.378 64.962a.42.42 0 0 1-.418.418.42.42 0 0 1-.418-.418.42.42 0 0 1 .714-.296.42.42 0 0 1 .122.296z" class="M"/><g class="D"><path d="M240.833 100.918h-34.454v-1.282h33.172a1.28 1.28 0 0 1 1.282 1.282z"/><rect width="26.396" height="19.965" rx="3.341" x="206.379" y="80.677"/></g><path d="M207.48 81.627h24.193v17.78H207.48z" class="M"/><path d="M231.669 99.406v-1.277l-.007-3.605-.015-12.9.029.025h-24.19l.035-.03v17.78l-.031-.026 22.449.02-4.93.007-17.55.014V81.577h24.258v.025l-.023 17.458c0 .215-.025.346-.025.346z" class="B"/><g class="C"><path d="M228.052 86.412h-1.271l-3.511.009-11.927.01.029-.029v8.209l-.029-.029 16.264.023-.936.005-3.483.008-11.874.01v-8.267h.029l16.626.019z"/><use xlink:href="#D"/><path d="M227.931 88.899c0 .016-3.741.03-8.354.03s-8.355-.014-8.355-.03 3.74-.03 8.355-.03l8.354.03z"/><use xlink:href="#D" y="2.261"/><use xlink:href="#D" y="3.392"/><path d="M228.052 92.317c0 .017-3.74.03-8.354.03s-8.355-.014-8.355-.03 3.74-.03 8.355-.03l8.354.03zm-16.708 1.131c0-.016 3.741-.03 8.354-.03l8.355.03c0 .016-3.74.03-8.355.03s-8.354-.014-8.354-.03z"/><path d="M214.652 94.746c-.016 0-.03-1.866-.03-4.166l.03-4.167c.016 0 .03 1.865.03 4.167l-.03 4.166zm3.347 0c-.017 0-.03-1.866-.03-4.166l.03-4.167c.017 0 .03 1.865.03 4.167l-.03 4.166zm3.354 0c-.016 0-.03-1.866-.03-4.166l.03-4.167c.016 0 .03 1.865.03 4.167l-.03 4.166zm3.35 0c-.017 0-.03-1.866-.03-4.166l.03-4.167c.017 0 .03 1.865.03 4.167l-.03 4.166zm3.35 0c-.016 0-.03-1.866-.03-4.166l.03-4.167c.017 0 .03 1.865.03 4.167l-.03 4.166z"/></g><g class="K"><path d="M228.052 87.795c-.039.037-.081.071-.126.1l-.375.266-1.4.968-4.788 3.256-.028-.009-3.35-1.131.051-.007-3.357 2.251h-.006l-2.423.838-.665.223-.175.055c-.02.008-.04.012-.061.014.018-.012.037-.021.057-.027l.17-.068.657-.246 2.409-.876-.01.005 3.367-2.287.027.009 3.349 1.13-.052.007 4.786-3.207 1.422-.938.386-.249c.043-.029.088-.055.135-.077z"/><circle cx="214.652" cy="93.448" r=".204"/><circle cx="218.002" cy="91.186" r=".204"/><circle cx="221.352" cy="92.298" r=".204"/><circle cx="224.737" cy="90.066" r=".204"/></g><g class="D"><path d="M228.056 93.447a.27.27 0 0 1-.063-.034l-.178-.111-.677-.438-2.457-1.619h.051l-3.389 2.28-.033-.044-1.762-2.375-1.588-2.148.087.006-3.368 3.389h-.01l-2.49.808-.68.214-.178.053c-.02.007-.041.012-.062.014a.24.24 0 0 1 .058-.026l.174-.065.672-.236 2.478-.846-.017.011 3.387-3.448 3.39 4.577-.078-.014 3.382-2.247.025.017 2.435 1.652.663.458.171.122c.021.014.04.031.057.05z"/><circle cx="218.002" cy="88.925" r=".204"/><circle cx="214.652" cy="92.317" r=".204"/><circle cx="221.352" cy="93.448" r=".204"/><circle cx="224.703" cy="91.39" r=".204"/></g><g class="C"><use xlink:href="#E"/><use xlink:href="#E" x="3.424"/><use xlink:href="#E" x="6.849"/><use xlink:href="#E" x="10.273"/><use xlink:href="#E" x="13.697"/><path d="M210.871 94.577a1.14 1.14 0 0 1-.521 0c.171-.04.35-.04.521 0zm0-1.317a1.14 1.14 0 0 1-.521 0 1.16 1.16 0 0 1 .521 0z"/><path d="M210.871 91.945c.598.139.983.72.878 1.325s-.663 1.022-1.273.952-1.058-.604-1.022-1.217.543-1.091 1.157-1.09c.088-.009.177.001.26.03z"/><use xlink:href="#F"/><path d="M210.871 89.315c-.171.04-.35.04-.521 0a1.14 1.14 0 0 1 .521 0zm0-1.315a1.14 1.14 0 0 1-.521 0 1.16 1.16 0 0 1 .521 0z"/><use xlink:href="#F" y="-3.945"/></g><path d="M211.256 83.569h4.8v.341h-4.8z" class="K"/><path d="M224.63 84.563c0 .016-3 .03-6.7.03s-6.7-.014-6.7-.03 3-.03 6.7-.03l6.7.03zm-4.899 12.633c0 .017-1.83.03-4.087.03s-4.087-.013-4.087-.03 1.83-.03 4.087-.03l4.087.03zm-6.213.62a12.8 12.8 0 0 1-1.744 0 12.69 12.69 0 0 1 1.744 0zm13.624-.727c0 .016-1.3.03-2.906.03s-2.906-.014-2.906-.03 1.3-.03 2.906-.03l2.906.03zm-3.161.4a13.77 13.77 0 0 1-1.817 0 13.9 13.9 0 0 1 1.817 0zM81.179 169.801l7.22-63.845 6.123 2.161-10 61.684z" class="B"/><path d="M78.1 100.842h184.684v8.076H78.1z" class="D"/><g class="B"><path d="M117.221 100.961s-.017.032-.059.087-.1.139-.193.242a3.88 3.88 0 0 1-.928.744 5.2 5.2 0 0 1-1.784.6 12.56 12.56 0 0 1-2.489.11 24.38 24.38 0 0 1-3-.345 26.59 26.59 0 0 0-3.411-.407 21.16 21.16 0 0 0-7.678 1.489l-7.453 2.665a20.54 20.54 0 0 1-3.4.674 14.38 14.38 0 0 1-3.02-.006 10.26 10.26 0 0 1-4.141-1.325 6.54 6.54 0 0 1-1.28-.958c.032.015.062.034.089.057l.246.184a8.63 8.63 0 0 0 .989.64 10.47 10.47 0 0 0 4.114 1.242 14.42 14.42 0 0 0 2.983-.022 20.66 20.66 0 0 0 3.361-.688c2.335-.658 4.786-1.732 7.434-2.678a21.11 21.11 0 0 1 7.761-1.484c1.153.068 2.301.211 3.435.43a24.79 24.79 0 0 0 2.972.37 12.83 12.83 0 0 0 2.463-.074 5.23 5.23 0 0 0 1.761-.55 4.67 4.67 0 0 0 1.228-.997zm-20.2.119a4.5 4.5 0 0 1-.559.477 12.84 12.84 0 0 1-1.685 1.085 14.75 14.75 0 0 1-2.756 1.121 14.97 14.97 0 0 1-3.6.563 13.78 13.78 0 0 1-6.438-1.328c-.615-.287-1.149-.723-1.553-1.269a2.22 2.22 0 0 1-.254-.487.6.6 0 0 1-.047-.186 5.01 5.01 0 0 0 .373.621 4.21 4.21 0 0 0 1.553 1.177 14.27 14.27 0 0 0 6.358 1.245 15.4 15.4 0 0 0 3.55-.537 14.82 14.82 0 0 0 4.446-2.076 4.6 4.6 0 0 1 .612-.406zm43.339 5.122a2.3 2.3 0 0 1 .287.1 5.55 5.55 0 0 0 .853.226 5.03 5.03 0 0 0 3.232-.505l-.01.1a7.7 7.7 0 0 0-4.008-1.561 7.8 7.8 0 0 0-5.212 1.354c-.2.112-.344.302-.4.524 0 .228.136.433.346.521.224.121.466.206.716.251l.786.178 3.279.634a19.44 19.44 0 0 0 3.487.237 12.79 12.79 0 0 0 1.79-.171l.891-.187a4.48 4.48 0 0 0 .863-.279 2.84 2.84 0 0 0 1.118-.808c.285-.347.367-.818.215-1.241a2.12 2.12 0 0 0-.878-.981 6.93 6.93 0 0 0-1.226-.6c-1.643-.621-3.374-.98-5.129-1.064a21.25 21.25 0 0 0-8.756 1.357 21.65 21.65 0 0 0-5.271 2.879l-1.274 1.033-.325.277a.67.67 0 0 1-.117.089c.03-.039.063-.074.1-.106l.311-.294c.268-.265.693-.621 1.251-1.069a21.36 21.36 0 0 1 14.093-4.375 16.88 16.88 0 0 1 5.2 1.066c.442.164.866.371 1.267.618a2.33 2.33 0 0 1 .968 1.091c.178.495.085 1.048-.247 1.457-.324.388-.739.69-1.208.878a4.7 4.7 0 0 1-.9.291c-.3.08-.6.138-.909.19a12.9 12.9 0 0 1-1.821.173 19.57 19.57 0 0 1-3.526-.245l-3.292-.647-.787-.181a2.59 2.59 0 0 1-.773-.277 1.03 1.03 0 0 1-.325-.284.63.63 0 0 1-.118-.436 1.02 1.02 0 0 1 .488-.664 7.95 7.95 0 0 1 5.345-1.359 7.78 7.78 0 0 1 4.069 1.63l.075.059-.084.043a5.02 5.02 0 0 1-3.3.461 3.72 3.72 0 0 1-1.134-.383zm23.762-5.031a1.2 1.2 0 0 1 .182.407 3.08 3.08 0 0 1 .122 1.212 5.97 5.97 0 0 1-1.8 3.525 9.06 9.06 0 0 1-1.68 1.428 7.47 7.47 0 0 1-1.621.786c-.383.129-.776.228-1.175.294a1.61 1.61 0 0 1-.443.038c-.008-.042.62-.128 1.563-.483a8.08 8.08 0 0 0 1.56-.81c.595-.406 1.142-.878 1.63-1.408a6.11 6.11 0 0 0 1.8-3.386 4.4 4.4 0 0 0-.138-1.603zm33.165 7.323a10.5 10.5 0 0 0-.848-.825 6.03 6.03 0 0 0-2.889-1.3 6.45 6.45 0 0 0-2.2.063 9.43 9.43 0 0 1-2.578.237c-.957-.169-1.846-.605-2.566-1.258a8.74 8.74 0 0 0-2.578-1.529 9.45 9.45 0 0 0-5.726-.089 13.6 13.6 0 0 0-4.237 2.146 23.18 23.18 0 0 0-2.456 2.1l-.627.618a1.59 1.59 0 0 1-.226.209c.056-.086.121-.167.193-.24l.6-.65a20.49 20.49 0 0 1 2.423-2.164 13.47 13.47 0 0 1 4.275-2.218 9.58 9.58 0 0 1 5.861.076c.963.365 1.855.895 2.637 1.566a4.98 4.98 0 0 0 2.455 1.227 9.45 9.45 0 0 0 2.523-.215 6.52 6.52 0 0 1 2.255-.036 5.94 5.94 0 0 1 2.92 1.394 3.93 3.93 0 0 1 .789.888zm29.61-7.574a1.9 1.9 0 0 1-.2.276c-.197.261-.408.511-.631.751a17.25 17.25 0 0 1-2.7 2.4 21.69 21.69 0 0 1-4.678 2.593 19.21 19.21 0 0 1-3.017.962c-1.105.267-2.237.413-3.374.434a16.68 16.68 0 0 1-6.4-1.332 21.3 21.3 0 0 1-4.653-2.639 18.19 18.19 0 0 1-2.677-2.416c-.3-.306-.488-.578-.632-.75a.17.17 0 0 1-.229-.045c-.052-.073-.04-.174.03-.232a.17.17 0 0 1 .233.014c.062.065.063.167.002.234l.661.719a19.79 19.79 0 0 0 2.708 2.347 21.78 21.78 0 0 0 4.636 2.574 16.7 16.7 0 0 0 6.321 1.3 15.55 15.55 0 0 0 3.327-.424 19.3 19.3 0 0 0 2.989-.94 22.14 22.14 0 0 0 4.662-2.529 18.65 18.65 0 0 0 2.725-2.325c.307-.294.505-.558.661-.72a1.96 1.96 0 0 1 .237-.252zm-4.23-.078c0 .007-.05.05-.157.127l-.478.324a19.35 19.35 0 0 1-1.85 1.047 19.72 19.72 0 0 1-2.923 1.19c-1.231.408-2.516.628-3.813.652a15.66 15.66 0 0 1-6.771-1.711 14.97 14.97 0 0 1-1.834-1.077c-.21-.138-.361-.263-.466-.342s-.156-.127-.152-.133a6.34 6.34 0 0 1 .667.4c.599.37 1.219.707 1.856 1.007a16.24 16.24 0 0 0 6.7 1.628 13.08 13.08 0 0 0 3.751-.625 21.25 21.25 0 0 0 2.914-1.134l1.874-.978a6.1 6.1 0 0 1 .682-.375zm18.777.827c-.071.01-.143.01-.214 0l-.6-.038-.436-.033h-.52c-.373 0-.8-.017-1.266.021l-.735.04-.793.093c-.55.047-1.126.177-1.737.279a26.31 26.31 0 0 0-3.861 1.152 26.83 26.83 0 0 0-3.624 1.775l-1.47.968-.648.466-.572.463c-.373.287-.681.579-.956.83l-.385.35-.3.314-.428.429a.77.77 0 0 1-.161.14c.034-.062.077-.12.127-.17l.4-.46.292-.329.374-.365.941-.861.568-.478.646-.481c.439-.344.95-.649 1.472-.994a25.47 25.47 0 0 1 3.642-1.812c1.267-.487 2.571-.87 3.9-1.145l1.757-.261.8-.08.743-.025a12.01 12.01 0 0 1 1.276.012l.522.023.437.053.6.081a.75.75 0 0 1 .209.043z"/><path d="M249.352 100.087c.008 0 .01.053.006.152-.004.146-.016.292-.037.436-.074.533-.219 1.055-.431 1.55-.734 1.632-1.933 3.01-3.448 3.962a17.96 17.96 0 0 1-4.857 2.072l-1.547.4c-.188.056-.381.093-.577.11a2.93 2.93 0 0 1 .554-.2l1.525-.471a19.7 19.7 0 0 0 4.779-2.109 8.34 8.34 0 0 0 4.033-5.908zm-48.748 8.245c-.301-.433-.641-.838-1.016-1.208a9.41 9.41 0 0 0-3.722-2.08 20.33 20.33 0 0 0-2.9-.641l-3.4-.507a28.33 28.33 0 0 1-3.688-.924c-1.282-.426-2.598-.744-3.934-.95a16.39 16.39 0 0 0-7.664 1.058 27.72 27.72 0 0 0-3.117 1.4l-2.626 1.422-3.727 2.2-1 .615-.263.157a.35.35 0 0 1-.094.047c.024-.026.051-.048.081-.066l.25-.177.981-.651 3.695-2.262 2.619-1.449a27.43 27.43 0 0 1 3.131-1.429 16.45 16.45 0 0 1 7.765-1.087 24.03 24.03 0 0 1 3.97.962 28.82 28.82 0 0 0 3.66.932l3.389.527a19.97 19.97 0 0 1 2.924.674 9.24 9.24 0 0 1 3.734 2.17 4.74 4.74 0 0 1 .952 1.267zm-41.598-7.37a1.78 1.78 0 0 1-.027.516 6 6 0 0 1-.361 1.363c-.56 1.468-1.549 2.734-2.838 3.632a19 19 0 0 1-4.208 1.933l-1.343.4a2.14 2.14 0 0 1-.5.1 2.35 2.35 0 0 1 .479-.19l1.315-.47a21.78 21.78 0 0 0 4.136-1.976 8.07 8.07 0 0 0 2.814-3.5 10.86 10.86 0 0 0 .533-1.808zm-42.874 7.956a3.32 3.32 0 0 1 .45-.432l1.315-1.076a38.12 38.12 0 0 1 4.71-3.035l5.013-2.5 1.549-.692a3.28 3.28 0 0 1 .581-.225 3.2 3.2 0 0 1-.544.3l-1.517.758-4.972 2.55a46.47 46.47 0 0 0-4.724 2.965l-1.354 1.015a3.24 3.24 0 0 1-.507.372zm8.701-7.622c0 .026-.427-.055-1.191 0a8.41 8.41 0 0 0-3.081.937 28.17 28.17 0 0 0-4 2.686 20.39 20.39 0 0 1-2.41 1.561 13.42 13.42 0 0 1-2.882 1.11 26.76 26.76 0 0 1-5.9.709l-4.84.073a23.9 23.9 0 0 0-3.238.317l-.868.174a1.63 1.63 0 0 1-.305.055 1.59 1.59 0 0 1 .294-.1 11.42 11.42 0 0 1 .863-.217 21.03 21.03 0 0 1 3.247-.39l4.841-.122a27.33 27.33 0 0 0 5.849-.72c.983-.253 1.935-.618 2.836-1.086a20.57 20.57 0 0 0 2.391-1.534c1.269-1.007 2.626-1.897 4.055-2.661a8.14 8.14 0 0 1 3.146-.88 5.5 5.5 0 0 1 .891.029 1.56 1.56 0 0 1 .302.059zm115.183-.486c0 .062-7.719.114-17.237.114s-17.239-.051-17.239-.114 7.717-.114 17.239-.114l17.237.114zm-97.091-3.594h24.889v3.719h-24.889z"/></g><path d="M142.925 98.074h6.58v2.003h-6.58z" class="C"/><path d="M145.146 93.497h24.889v3.719h-24.889z" class="I"/><path d="M153.156 94.391h16.878v1.86h-16.878z" class="C"/><path d="M166.318 93.497h-24.889v-3.719h24.889z" class="B"/><path d="M166.318 92.639h-6.58v-2.003h6.58z" class="C"/><path d="M228.887 155.839l2.968 7.369s-6.494 5.492-6.078 6.907l14.495-5.242-4.153-11.672z" class="D"/><path d="M236.11 160.959a.63.63 0 0 1 .654.528c.028.32-.199.606-.517.652-.34.017-.637-.226-.689-.562 0-.309.307-.664.613-.619" class="C"/><path d="M240.272 164.874l-.464-1.16-13.724 5.459s-.544.514-.306.942z" class="E H"/><g class="B"><path d="M231.593 163.22c.028.07.394-.026.824.076s.724.332.779.28-.2-.422-.722-.536-.92.121-.881.18zm-1.293 1.178c.009.075.359.084.707.3s.533.5.6.475c.071-.013-.03-.445-.469-.7s-.861-.143-.838-.075zm-.205 2.132c.07-.008.04-.4-.281-.719s-.709-.356-.718-.287.271.2.532.471.394.554.467.535zm1.007-5.064c.053.054.343-.162.752-.279s.768-.1.782-.178-.376-.218-.857-.073-.731.486-.677.53zm-.571-1.499a1.44 1.44 0 0 0 .725-.266 3.45 3.45 0 0 0 .675-.508c.121-.116.233-.24.337-.372a.95.95 0 0 0 .158-.25c.059-.137.018-.296-.1-.388-.108-.074-.245-.093-.369-.05a1 1 0 0 0-.259.136 2.79 2.79 0 0 0-.4.318 2.73 2.73 0 0 0-.511.681 1.29 1.29 0 0 0-.214.744c.041.012.124-.269.373-.65a3.11 3.11 0 0 1 .516-.6 2.89 2.89 0 0 1 .37-.28c.139-.1.269-.144.333-.09.024.021.029.031.014.087a.77.77 0 0 1-.116.183 3.97 3.97 0 0 1-.3.358c-.183.193-.384.368-.6.523a5.4 5.4 0 0 0-.632.424z"/><path d="M230.66 160.036c.063-.257.041-.527-.062-.77a2.5 2.5 0 0 0-.73-1.133.64.64 0 0 0-.6-.2.36.36 0 0 0-.23.312c-.007.098 0 .197.021.293.034.171.094.336.177.489a1.78 1.78 0 0 0 .581.638c.419.273.745.251.743.225a6.1 6.1 0 0 1-.633-.374 1.78 1.78 0 0 1-.477-.6 1.6 1.6 0 0 1-.138-.424c-.033-.163-.021-.308.043-.313a.44.44 0 0 1 .34.146 2.6 2.6 0 0 1 .322.329c.165.205.299.431.4.674.181.419.201.711.243.708z"/></g><path d="M242.531 154.49l2.968 7.37s-6.494 5.491-6.078 6.907l14.495-5.242-4.153-11.672z" class="D"/><path d="M249.754 159.612a.63.63 0 0 1 .654.527c.028.32-.199.607-.517.653-.34.017-.637-.226-.689-.562 0-.309.307-.664.613-.619" class="C"/><path d="M253.916 163.524l-.464-1.16-13.724 5.46s-.543.514-.306.942z" class="E H"/><g class="B"><path d="M245.237 161.866c.028.07.394-.026.824.076s.724.332.779.281-.2-.422-.722-.536-.92.124-.881.179zm-1.293 1.183c.009.074.359.084.707.3s.533.5.6.476c.071-.013-.03-.446-.469-.7s-.86-.144-.838-.076zm-.205 2.132c.07-.008.04-.4-.281-.72s-.709-.356-.717-.287.271.2.531.471.394.554.467.536zm1.007-5.066c.053.054.343-.161.752-.279s.768-.1.782-.178-.376-.218-.857-.073-.728.488-.677.53zm-.571-1.497a1.45 1.45 0 0 0 .725-.267 3.48 3.48 0 0 0 .675-.508 3.59 3.59 0 0 0 .337-.372.94.94 0 0 0 .158-.25.33.33 0 0 0-.1-.388.41.41 0 0 0-.369-.049.97.97 0 0 0-.259.136 2.77 2.77 0 0 0-.4.318 2.73 2.73 0 0 0-.511.682c-.146.22-.221.48-.214.744.041.011.124-.269.373-.65a3.09 3.09 0 0 1 .516-.6 2.89 2.89 0 0 1 .37-.279c.139-.1.269-.144.333-.09.024.021.029.031.014.087-.03.066-.069.128-.116.183a4.1 4.1 0 0 1-.3.358c-.184.192-.384.367-.6.523a5.27 5.27 0 0 0-.632.422z"/><path d="M244.304 158.687a1.23 1.23 0 0 0-.062-.771 2.5 2.5 0 0 0-.386-.759c-.102-.136-.217-.261-.344-.374a.64.64 0 0 0-.6-.2.36.36 0 0 0-.23.312c-.007.098 0 .197.021.293.034.171.093.336.176.489.138.257.338.476.581.638.419.273.745.251.743.225a6.21 6.21 0 0 1-.633-.374c-.201-.163-.364-.368-.477-.6a1.6 1.6 0 0 1-.138-.424c-.033-.162-.021-.308.043-.312.071-.028.236.044.34.146.117.1.225.21.322.329a2.76 2.76 0 0 1 .4.673c.182.419.202.712.244.709z"/></g><path d="M252.527 59.007l-1.384 11.335 2.152 5.229-8.517.3-1.769-4.085s-4.218-.477-4.387-3.18c-.107-1.726 2.674-14.3 2.674-14.3z" class="L"/><path d="M249.795 72.501c.903-.495 1.597-1.3 1.954-2.266l1.229-3.426c.528-1.16 1.287-2.2 1.806-3.369.599-1.142.699-2.481.278-3.7a2.7 2.7 0 0 0-2.2-2.044c0 0-1.139-3.176-3.755-3.474-3.555-.4-3.432-1.45-5.753-2.337a2.25 2.25 0 0 0-3.01 1.083c-.826.393-1.461 1.099-1.764 1.962l-.009.035a3.11 3.11 0 0 0 1.45 3.413q.216.128.433.252c.428.202.802.501 1.093.874a2.59 2.59 0 0 1 .132 2.035c-.237.66-.346 1.36-.322 2.061.032.236.17.517.408.505.284-.014.352-.392.436-.663a1.2 1.2 0 0 1 2.019-.439 1.26 1.26 0 0 1 .052 1.58c-.391.51-1.076.829-1.325 1.434-.418 1.019.63 2.21.982 2.887.119.241.261.47.422.685a10.13 10.13 0 0 0 2.972 2.588c.833.554 1.903.607 2.787.138" class="B"/><path d="M214.748 86.205h0l-3.46-1.578c-1.235-.449-1.712-.72-1.613-.946.132-.3.068-.191 2.427.3 0 0-3.362-.738-2.508-1.15a14.89 14.89 0 0 1 3.177.4c-2.292-.264-3.114-.726-3.055-1.07.084-.5 3.477.238 3.477.238a26.05 26.05 0 0 1-3.026-.742c-.427-.231.118-.451.62-.5.563-.061 3.885.056 4.845.04.166.017.33-.04.45-.156s.183-.278.172-.444c-.234-.979-.044-2.011.522-2.843.293-.263.753.05.658.476-.057.469-.05.944.021 1.411.042.376.147.742.311 1.082l.529.993 4.762 5.208-2.056 4.943z" class="L"/><path d="M213.515 84.317a12.46 12.46 0 0 1-3.211-.76 12.51 12.51 0 0 1 3.211.76zm.286-.886a14.22 14.22 0 0 1-3.471-.6 14.21 14.21 0 0 1 3.471.6zm.293-.921c-1.116-.03-2.222-.207-3.292-.526a12.74 12.74 0 0 1 3.292.526z" class="O"/><g class="B"><path d="M245.934 108.406l-20.364 3.072a9.92 9.92 0 0 0-6.824 4.384h0a9.92 9.92 0 0 0-1.219 8.191l10.752 34.29 9.712-3.678-5.963-30.315 31.5-2.11v-13.834l-17.595-.635"/><path d="M260.276 108.406l-20.364 3.073a9.92 9.92 0 0 0-6.824 4.384h0a9.92 9.92 0 0 0-1.219 8.191l9.376 32.25 10.846-2.864-5.722-29.089 21.043-1.41v-13.835l-7.137-1.335"/></g><g class="I"><path d="M219.81 83.005c.419-.058 14.253 10.725 14.253 10.725l-8.83 3.517-8.952-8.88s-.564-4.798 3.529-5.362z"/><path d="M264.545 78.77a12.98 12.98 0 0 0-7.589-4.809c-.289-.066-.585-.1-.881-.1h-11.77c-2.129-.008-4.178.807-5.72 2.274-1.755 1.735-3.276 3.693-4.522 5.823l-5.927 8.239-3.645 6.111.742.934a6.13 6.13 0 0 0 7.321 1.863c1.202-.656 2.204-1.626 2.9-2.806l4.071-6.357 5.943 16.99-3.179 2.02 13.394 5.414 13.947-5.965-3.851-13.718s6.107.593 6.672-1.806-5.084-10.014-7.906-14.107z"/></g><path d="M263.169 84.994a56.72 56.72 0 0 1 2.782 5.148c.113.228.446.028.339-.2-.852-1.756-1.821-3.452-2.9-5.078-.089-.138-.309-.011-.221.129zm2.766-.992a56.8 56.8 0 0 1 2.782 5.148c.113.228.445.028.339-.2a44 44 0 0 0-2.9-5.078c-.089-.138-.309-.011-.221.129zm-5.448 1.385l1.427 6.923c.052.325.55.188.5-.137a46.01 46.01 0 0 0-1.713-6.844c-.02-.052-.077-.08-.131-.065s-.088.068-.078.123zm-6.311.656a27.65 27.65 0 0 1 1.15 6.862c.017.322.515.326.5 0-.107-2.369-.582-4.707-1.407-6.93-.055-.153-.3-.091-.247.068zm5.162 5.559a30.78 30.78 0 0 1-1.525-6.469c-.03-.3-.48-.313-.477 0a12.95 12.95 0 0 0 1.753 6.574c.079.126.3.048.249-.1zm-7.98-5.38a29.45 29.45 0 0 0 .95 6.527c.08.3.513.17.456-.126l-1.159-6.434c-.023-.141-.252-.107-.247.033zm-3.382.386l1.455 7.221c.041.229.44.179.41-.055a39.25 39.25 0 0 0-1.687-7.214c-.014-.049-.064-.078-.113-.065s-.078.064-.064.113zm-3.093.56a28.77 28.77 0 0 0 .731 6.671c.062.237.391.131.357-.1-.385-2.175-.652-4.369-.8-6.572-.006-.076-.07-.134-.145-.134s-.139.058-.146.134zm-9.879 6.101a48.21 48.21 0 0 0 5.016-5.948c.137-.179-.165-.412-.314-.242a48.05 48.05 0 0 0-4.826 6.093.08.08 0 1 0 .125.1zm-2.168-1.947a21.04 21.04 0 0 0 4.3-5.283c.135-.228-.205-.42-.352-.206-1.28 1.866-2.706 3.562-4.1 5.334a.11.11 0 0 0 .155.155zm1.31-6.349l-3.67 4.174c-.156.192.106.467.277.277l3.543-4.3c.084-.1-.057-.252-.149-.149zm7.597 2.524l1.322 6.69c.046.211.406.169.382-.052a50.51 50.51 0 0 0-1.407-6.72c-.023-.083-.108-.132-.191-.109s-.132.108-.109.191z" class="M"/><path d="M259.613 92.26a3.25 3.25 0 0 0-2.5 1.25c-.59.767-1.031 1.638-1.3 2.568a26.7 26.7 0 0 0-1.391 9.088 3.28 3.28 0 0 1-.68 2.642c-.612.528-1.519.488-2.271.782-1.307.551-2.08 1.913-1.882 3.318l6.732 2.553z" opacity=".3"/><path d="M252.047 106.491a2.37 2.37 0 0 1-.767.3c-1.284.352-2.631.412-3.941.174a2.38 2.38 0 0 1-.79-.228 14.9 14.9 0 0 0 5.5-.243z" class="B"/><g class="D"><path d="M227.806 124.916l-5.359 44.944h2.317l5.69-44.944zm21.349 0l4.918 44.944h2.524l-4.8-44.944zm26.48 0l4.1 44.944h2.813l-4.677-44.944h-3.395"/><path d="M261.952 86.306h19.854a3.09 3.09 0 0 1 3.058 3.528l-4.7 32.8c-.188 1.308-1.308 2.279-2.629 2.279h-25.734z"/><path d="M225.16 124.915c.05-.5 0-2.979 0-2.979l24.623.462a3.78 3.78 0 0 0 3.8-3.169l4.908-29.984c.278-1.695 1.742-2.94 3.46-2.94h0l-5.354 33.758c-.443 2.795-2.852 4.852-5.682 4.852z"/></g><g class="B"><path d="M261.953 86.306c.005.033.005.067 0 .1l-.037.3q-.06.427-.163 1.162l-.642 4.269-2.2 14.068-1.787 11.119a23.4 23.4 0 0 1-.6 2.929 8.03 8.03 0 0 1-1.014 2.253 5.6 5.6 0 0 1-1.27 1.367 4.17 4.17 0 0 1-1.028.576c-.127.052-.259.091-.393.117.491-.185.952-.442 1.367-.763a6.75 6.75 0 0 0 2.185-3.594 23.82 23.82 0 0 0 .566-2.913l.527-3.38 1.222-7.745 2.268-14.058.713-4.257.205-1.156.059-.3a.38.38 0 0 1 .022-.094zm1.099.217c-.859-1.086-1.597-2.262-2.2-3.509a18.91 18.91 0 0 1 2.2 3.509zm-37.473 7.265a35.71 35.71 0 0 1 3.267-4.664 35.71 35.71 0 0 1-3.267 4.664zm16.611-7.945c-.076.174-.166.341-.269.5l-.781 1.342-2.7 4.355-2.882 4.239-.924 1.249c-.107.158-.23.305-.367.438.081-.173.179-.337.294-.489l.865-1.289 2.823-4.271 2.755-4.315.843-1.3a2.3 2.3 0 0 1 .343-.459zM123.143 35.157a3.14 3.14 0 0 1 1.007-4.2 4.07 4.07 0 0 1 4.517.32 4.29 4.29 0 0 1 1.431 4.089c-.157 1.074-1.834 3.255-3.433 2.3"/><path d="M113.511 44.245c-3.551-6.878 3.884-10.794 8.1-9.828 3.958.907 5.72 2.767 6.493 5.346.831 2.585.825 5.366-.016 7.948-.443 1.252-1.29 2.543-2.6 2.762"/></g><path d="M124.292 38.204a1.33 1.33 0 0 1 1.254 1.286h0l.142 17.953c.077 2.117-2.953 3.467-5.221 3.532h0c-2.29.066-2.422-1.052-2.556-3.063l-.285-4.6s-2.914-.336-3.7-4.077a40.35 40.35 0 0 1-.418-7.462c.03-2.27 1.39-5.121 3.657-4.994z" class="L"/><path d="M114.502 44.066c.011.262.229.468.491.464a.46.46 0 0 0 .477-.461c-.01-.262-.228-.468-.49-.465-.125-.004-.247.043-.337.13a.46.46 0 0 0-.141.332zm-.248-.729c.063.06.416-.229.937-.254s.915.217.968.15c.026-.029-.041-.14-.213-.253a1.33 1.33 0 0 0-.779-.2 1.28 1.28 0 0 0-.742.281c-.154.132-.202.249-.171.276zm5.146.484c.01.263.228.469.491.465a.46.46 0 0 0 .477-.461c-.01-.262-.228-.468-.49-.465-.125-.004-.246.043-.336.129s-.141.206-.142.332zm-.025-.642c.063.06.417-.229.937-.254s.915.217.968.15c.026-.029-.04-.14-.213-.253a1.32 1.32 0 0 0-.779-.2 1.29 1.29 0 0 0-.741.281c-.154.132-.203.249-.172.276zm-1.696 3.955a3.46 3.46 0 0 0-.853-.111c-.134-.007-.261-.027-.287-.117-.019-.137.006-.277.069-.4l.342-1.031c.322-.875.573-1.775.751-2.691a17.37 17.37 0 0 0-.966 2.624q-.17.543-.325 1.037a.77.77 0 0 0-.043.525c.044.093.128.16.228.183a.91.91 0 0 0 .227.02 3.42 3.42 0 0 0 .857-.039z" class="B"/><path d="M117.626 53.31a9.61 9.61 0 0 0 4.983-1.6s-1.1 2.652-4.888 2.487zm.335-4.933a.94.94 0 0 1 .823-.39.86.86 0 0 1 .607.287c.155.174.18.417.072.618a.63.63 0 0 1-.674.207 1.97 1.97 0 0 1-.685-.364.58.58 0 0 1-.156-.146c-.042-.057-.046-.134-.009-.194" class="O"/><g class="B"><path d="M119.231 47.417c-.085 0-.058.564-.522.989s-1.068.393-1.068.472c-.006.035.139.1.394.1a1.41 1.41 0 0 0 .893-.362 1.23 1.23 0 0 0 .4-.828c.003-.24-.062-.376-.097-.371zm-.137-5.137c.059.139.575.046 1.189.089s1.116.185 1.191.054c.033-.062-.059-.191-.265-.318-.555-.313-1.224-.353-1.813-.109-.22.101-.327.222-.302.284z"/><path d="M114.37 41.822c.1.114.45-.027.881-.054s.8.04.878-.088c.034-.062-.03-.177-.195-.281a1.28 1.28 0 0 0-1.417.115c-.147.128-.191.253-.147.308zm.208-4.804a3.64 3.64 0 0 0 1.53 3.5 7.11 7.11 0 0 0 2.148.845l1.438.392a11.74 11.74 0 0 0 3.238.564c-.056 1.233-.2 2.062.465 3.1.461.974 1.521 1.515 2.58 1.318a37 37 0 0 0 .419-7.37 3.45 3.45 0 0 0-.374-1.839c-.568-.882-1.764-1.05-2.81-1.132l-4.406-.347a8.81 8.81 0 0 0-2.159.007c-.722.093-1.385.449-1.862 1"/></g><path d="M128.779 42.339s-.014.006-.041.01a.74.74 0 0 1-.124.009 1.2 1.2 0 0 1-.467-.107 1.97 1.97 0 0 1-.616-.439 9.38 9.38 0 0 1-.63-.769 3.64 3.64 0 0 0-.863-.8c-.381-.246-.794-.437-1.229-.567a10.47 10.47 0 0 0-3.105-.341 14.3 14.3 0 0 1-3.16-.217c-.859-.175-1.65-.596-2.274-1.212a3.45 3.45 0 0 1-.6-.8 2.71 2.71 0 0 1-.254-.711c-.047-.21-.058-.426-.031-.639.018.21.048.419.088.626a2.8 2.8 0 0 0 .271.684c.163.282.365.54.6.766a4.48 4.48 0 0 0 2.23 1.152 14.67 14.67 0 0 0 3.13.2 10.36 10.36 0 0 1 3.146.359c.446.138.871.34 1.259.6a3.7 3.7 0 0 1 .877.839l.607.777c.164.182.361.333.58.444a1.43 1.43 0 0 0 .606.136zm-.604-2.315a1.11 1.11 0 0 0-.076-.535c-.257-.431-.656-.76-1.128-.931-.684-.3-1.41-.495-2.152-.579a19 19 0 0 0-2.748.015 12.86 12.86 0 0 1-2.772-.1 5.56 5.56 0 0 1-2.112-.82 3.6 3.6 0 0 1-1.076-1.084c-.073-.118-.136-.242-.189-.371a.52.52 0 0 1-.048-.137c.016-.007.087.18.286.476a3.74 3.74 0 0 0 1.085 1.027 5.61 5.61 0 0 0 2.078.773 13.3 13.3 0 0 0 2.741.083 17.95 17.95 0 0 1 2.772 0 7.27 7.27 0 0 1 2.18.62 2.17 2.17 0 0 1 1.137 1 .85.85 0 0 1 .057.416.39.39 0 0 1-.035.147zm1.654-7.229a.57.57 0 0 1 .059.252c.014.24-.028.479-.122.7a3.92 3.92 0 0 1-1.575 1.674 3.48 3.48 0 0 1-2.238.495 4.54 4.54 0 0 1-.688-.127.82.82 0 0 1-.242-.086c.006-.028.359.069.939.106.338.024.677.002 1.009-.064a3.64 3.64 0 0 0 1.143-.453 4.1 4.1 0 0 0 1.555-1.587 1.91 1.91 0 0 0 .16-.91zm-1.364-1.664c.014.084.014.169 0 .253a3.85 3.85 0 0 1-.129.677 4.5 4.5 0 0 1-3.083 3.112 3.89 3.89 0 0 1-.676.135c-.084.015-.169.015-.253 0 0-.027.355-.058.9-.241a4.73 4.73 0 0 0 3.013-3.041c.177-.539.201-.899.228-.895zm-.374 16.349a1.03 1.03 0 0 1-.008-.2l-.011-.571a6.38 6.38 0 0 0-.385-2.044 4.03 4.03 0 0 0-.735-1.221 3.32 3.32 0 0 0-1.344-.9 12.45 12.45 0 0 0-3.76-.4c-1.285-.03-2.555-.273-3.76-.72a6.32 6.32 0 0 1-2.547-1.8 4.76 4.76 0 0 1-.979-1.863 3.29 3.29 0 0 1-.1-.566.97.97 0 0 1-.009-.2c.018 0 .029.275.166.75a4.89 4.89 0 0 0 1 1.81c.683.778 1.547 1.376 2.516 1.74a11.64 11.64 0 0 0 3.716.7 12.31 12.31 0 0 1 3.8.425c.535.196 1.012.522 1.389.949a4.09 4.09 0 0 1 .74 1.265 6.1 6.1 0 0 1 .344 2.081l-.017.573a.95.95 0 0 1-.016.192z" class="D"/><path d="M127.232 37.759c-.19-.183-.37-.376-.539-.578-.868-.924-1.923-1.654-3.095-2.14a7.6 7.6 0 0 1-.731-.3 2.86 2.86 0 0 1 .77.2c1.215.44 2.295 1.187 3.135 2.169a2.83 2.83 0 0 1 .46.649z" class="K"/><path d="M125.145 44.466a1.34 1.34 0 0 1 2.11 1.261 1.7 1.7 0 0 1-2.166 1.863c-.008-.062.056-3.124.056-3.124z" class="L"/><path d="M125.727 46.695c.01-.008.041.025.109.052.096.034.201.03.294-.011.286-.206.439-.55.4-.9a1.3 1.3 0 0 0-.144-.556c-.051-.141-.169-.247-.314-.284a.2.2 0 0 0-.225.121c-.027.065-.01.109-.021.114s-.051-.035-.038-.129c.009-.057.037-.109.08-.147a.3.3 0 0 1 .214-.07c.191.026.354.149.432.325a1.34 1.34 0 0 1 .174.621c.047.409-.156.807-.515 1.009a.42.42 0 0 1-.366-.045c-.073-.047-.088-.1-.08-.1z" class="O"/><g class="L"><path d="M91.934 64.654c-.551-1.134-1.186-2.226-1.9-3.266-1.296-.613-2.659-1.074-4.062-1.373-.287.1-4.364.859-3.886 1.337s3.32-.095 3.32-.095l.385.185c-1.01.16-2.003.407-2.97.74-.473.284-.3.865.151.811l2.712-.417c.128.083-2.318.615-2.58.775-.353.216-.378.849.07.81.264-.022 2.571-.657 2.571-.657-.68.263-1.345.563-1.992.9-.273.267-.047.664.349.57.272-.065 1.559-.7 1.924-.789 0 0 .343.086.664.772a14.35 14.35 0 0 0 2.58 2.4z"/><path d="M91 64.711c-.281.208-.663.213-.95.014-.294-.171-.522-.436-.8-.627-.841-.572-2.036-.414-2.849-1.026-.113-.085-.226-.226-.167-.355s.215-.135.346-.135l3.369.027"/></g><path d="M89.947 62.61a1.35 1.35 0 0 0-.364-.041l-.993-.038-1.473-.032-.426-.007a.67.67 0 0 0-.493.111c-.08.085-.099.21-.05.315a.58.58 0 0 0 .173.215 2.22 2.22 0 0 0 .427.254 12.95 12.95 0 0 0 1.753.471 2.52 2.52 0 0 1 .7.3c.2.13.364.289.533.42.254.242.603.36.952.32.248-.052.328-.189.319-.189a.99.99 0 0 1-.33.115 1.15 1.15 0 0 1-.855-.351c-.158-.132-.319-.3-.529-.447a2.62 2.62 0 0 0-.734-.341 14.91 14.91 0 0 1-1.724-.476 2.06 2.06 0 0 1-.387-.228c-.111-.086-.166-.2-.107-.25s.211-.06.356-.058h.426l1.474-.009.993-.022a1.36 1.36 0 0 0 .359-.032zm-7.852-1.25c.233.116.488.182.748.194a4.41 4.41 0 0 0 .843.022l1.011-.149.761-.124h-.046a11 11 0 0 0 1.772.525 11 11 0 0 0-1.713-.7l-.02-.007h-.026l-.755.114-1 .163a5.45 5.45 0 0 1-.816.019l-.759-.057z" class="O"/><path d="M103.827 150.458l3.671 6.814s-5.693 6.02-5.138 7.345l13.467-6.643-5.283-10.852z" class="I"/><path d="M111.374 154.633c.309-.051.606.139.69.44a.59.59 0 0 1-.43.688c-.327.053-.642-.15-.728-.47a.61.61 0 0 1 .527-.665" class="C"/><path d="M115.827 157.974l-.575-1.073-12.7 6.77s-.471.557-.195.946z" class="E H"/><g class="B"><path d="M107.245 157.311c.035.065.378-.068.806-.016s.737.243.784.187-.238-.387-.757-.441-.877.217-.833.27zm-1.124 1.281c.016.071.357.042.717.211s.57.43.634.395c.067-.02-.078-.428-.53-.628s-.851-.041-.821.022zm.032 2.085c.067-.015 0-.389-.35-.666s-.725-.269-.726-.2.285.167.566.4.442.492.51.466zm.428-5.011c.057.046.314-.194.7-.351s.731-.184.738-.257-.388-.17-.837.022-.659.55-.601.586zm-.715-1.389a1.41 1.41 0 0 0 .673-.336 3.38 3.38 0 0 0 .6-.565 3.55 3.55 0 0 0 .286-.4.93.93 0 0 0 .125-.259.32.32 0 0 0-.142-.365.4.4 0 0 0-.362-.008.98.98 0 0 0-.236.159 2.75 2.75 0 0 0-.348.351c-.177.215-.319.456-.421.715-.117.229-.161.488-.126.743.041.007.091-.273.291-.669a3 3 0 0 1 .435-.636 2.79 2.79 0 0 1 .328-.311c.124-.108.245-.169.313-.123.025.018.032.026.023.083a.76.76 0 0 1-.093.19 3.92 3.92 0 0 1-.256.379 4.15 4.15 0 0 1-.529.572c-.335.302-.58.445-.561.48z"/><path d="M105.998 154.33a1.2 1.2 0 0 0-.144-.739c-.178-.409-.465-.761-.83-1.018a.62.62 0 0 0-.6-.128.35.35 0 0 0-.189.327 1.03 1.03 0 0 0 .052.281 1.67 1.67 0 0 0 .224.454 1.73 1.73 0 0 0 .632.555c.219.145.487.194.743.137-.223-.085-.441-.183-.653-.294-.212-.136-.391-.317-.526-.529-.079-.124-.139-.259-.18-.4-.05-.153-.053-.3.008-.307a.43.43 0 0 1 .345.1 2.5 2.5 0 0 1 .347.283c.182.18.338.385.463.609.216.395.267.676.308.669z"/></g><path d="M107.422 156.357l-1.4 7.613s-8.207 1.137-8.6 2.519l14.663 3.238 2.663-11.772z" class="I"/><path d="M110.699 164.335c.273.153.386.487.263.775a.59.59 0 0 1-.766.267c-.288-.163-.407-.518-.274-.822a.61.61 0 0 1 .827-.19" class="C"/><path d="M112.091 169.727l.222-1.2-14.142-2.657s-.715.14-.743.616z" class="E H"/><g class="B"><path d="M105.803 163.843c-.014.072.337.183.639.491s.423.651.495.637.057-.451-.315-.817-.819-.381-.819-.311zm-1.677.297c-.032.066.252.256.428.613s.176.692.248.7.207-.382-.021-.821-.639-.56-.655-.492zm-1.281 1.647c.062.03.24-.306.143-.739s-.4-.663-.441-.61.118.308.192.665.036.661.106.684zm3.47-3.644c.016.072.366.046.765.162s.686.314.737.261-.2-.375-.668-.506-.857.019-.834.083zm.31-1.531a1.4 1.4 0 0 0 .735.159 3.37 3.37 0 0 0 .82-.066 3.49 3.49 0 0 0 .471-.131.9.9 0 0 0 .26-.124.32.32 0 0 0 .117-.374.4.4 0 0 0-.278-.233.97.97 0 0 0-.284-.023 2.7 2.7 0 0 0-.491.056 2.65 2.65 0 0 0-.775.295c-.41.24-.585.482-.564.5s.242-.157.646-.34a3 3 0 0 1 .737-.225c.149-.024.299-.037.45-.037.164-.006.3.022.321.1.009.03.008.041-.034.079a.75.75 0 0 1-.191.09 3.9 3.9 0 0 1-.437.136 4.17 4.17 0 0 1-.77.115 5.27 5.27 0 0 0-.733.023z"/><path d="M106.695 160.736c.023.017.222-.209.35-.667.117-.43.113-.885-.011-1.313a.62.62 0 0 0-.386-.474.35.35 0 0 0-.352.137 1.03 1.03 0 0 0-.135.253 1.69 1.69 0 0 0-.11.495c-.02.284.03.568.146.828.2.443.482.595.494.572a6.24 6.24 0 0 1-.326-.637 1.74 1.74 0 0 1-.08-.741c.016-.145.052-.287.107-.422.057-.151.143-.263.2-.235.073.015.171.159.2.3.044.143.076.29.094.438.029.255.023.512-.02.765-.071.43-.207.681-.171.701z"/><path d="M114.144 86.293l-22.526 29.014a10.51 10.51 0 0 0-1.645 9.83l16.322 33.278 5.469-9.3-9.346-26.278 12.189-14.663 5.433-22.437z"/><path d="M105.387 162.831l10.089-70.411.5-6.3 12.373-.669s4.324 6.737 4.529 10.86-11.253 32.971-11.253 32.971l-1.646 11.51-6.924 24.38z"/></g><path d="M115.87 87.431c.063.009-2.234 16.9-5.129 37.714l-5.355 37.686c-.062-.009 2.234-16.892 5.13-37.718l5.354-37.682zm-13.519 35.439c-.027.03-.276-.186-.738-.426a4.66 4.66 0 0 0-3.918-.152c-.479.2-.744.4-.768.368a1.91 1.91 0 0 1 .7-.513 4.26 4.26 0 0 1 4.065.157 1.92 1.92 0 0 1 .659.566zm26.725-33.094c.007.014-.089.069-.269.157-.256.122-.524.217-.8.284-.409.105-.827.163-1.249.175a6.12 6.12 0 0 1-2.991-.688 5.66 5.66 0 0 1-1.047-.7c-.218-.179-.418-.38-.595-.6-.124-.158-.185-.249-.173-.259.032-.028.312.313.868.738.326.247.674.462 1.041.642a6.51 6.51 0 0 0 2.893.665c.409-.002.816-.043 1.217-.122l1.105-.292zM92.93 131.169a5.41 5.41 0 0 1-.389-.69l-.983-1.922a29.23 29.23 0 0 1-1.277-2.943 15.17 15.17 0 0 1-.547-1.821 10.12 10.12 0 0 1-.282-2.027 8.65 8.65 0 0 1 .182-2.044 11.05 11.05 0 0 1 .587-1.815 15.83 15.83 0 0 1 1.585-2.8l1.312-1.718.382-.447c.089-.101.14-.15.146-.145-.138.226-.291.441-.458.646l-1.249 1.754a16.69 16.69 0 0 0-1.525 2.786 11.17 11.17 0 0 0-.562 1.781 8.57 8.57 0 0 0-.173 1.989 10.14 10.14 0 0 0 .272 1.985 15.59 15.59 0 0 0 .527 1.8c.4 1.131.844 2.118 1.225 2.944l.917 1.952.24.536a.71.71 0 0 1 .07.199z" class="D"/><g class="I"><path d="M111.481 60.227l-8.365 9.626-10.847-6-3.791 3.8 14.081 9.651 6.285-.1 5.361-10.568z"/><path d="M108.422 67.333l4.654 19.613 15.621-1.341 2.014-15.423 4.181-6.584c-.749-3.737-4.097-6.38-7.906-6.24l-1.112-2.612-8.233.691-.983 2.4s-6.776.485-6.615 6.636z"/></g><path d="M112.374 83.999c2.413.647 4.989.153 6.992-1.339a2.47 2.47 0 0 1 .929-.536 2.26 2.26 0 0 1 1.119.161c1.681.526 3.421.838 5.18.926.611.073 1.23-.01 1.8-.241.578-.251.918-.855.834-1.479-2.638-.973-5.358-1.709-8.127-2.2a11.05 11.05 0 0 0-4.342-.121 12.5 12.5 0 0 0-4 1.991c-.35.178-.631.467-.8.821-.246.723.482 1.476.332 2.224" opacity=".3"/><path d="M124.087 63.345c.438.4 6.25 10.358 6.25 10.358l-9.283 2.027-.316 4.576 9.124 1.323 4.1.437c1.836.196 3.64-.582 4.758-2.051h0c1.151-1.512 1.4-3.526.652-5.273l-4.735-12.066z" class="I"/><g class="B"><path d="M132.892 73.669c.011.062-2.631.574-5.9 1.143l-5.939.918c-.011-.062 2.63-.573 5.9-1.142l5.939-.919z"/><path d="M130.695 74.038a2.65 2.65 0 0 1-.249-.5l-.6-1.385-1.9-4.6-1.018-2.546a4.6 4.6 0 0 1-.4-2.222 2.27 2.27 0 0 1 .668-1.367c.101-.096.215-.179.337-.246.086-.042.132-.06.135-.053s-.172.1-.41.361c-.329.367-.529.832-.571 1.323a4.59 4.59 0 0 0 .439 2.127l1.034 2.536 1.836 4.626.533 1.412a2.61 2.61 0 0 1 .166.534zm4.759 8.059a2.89 2.89 0 0 1-.585.022 34.65 34.65 0 0 1-1.591-.049l-5.224-.521-5.182-.827-1.564-.284a2.92 2.92 0 0 1-.569-.132 2.84 2.84 0 0 1 .583.045l1.576.212 5.188.761 5.2.586 1.584.121a2.88 2.88 0 0 1 .584.066zm-24.201-6.176c-.001-.562-.084-1.121-.245-1.66l-.546-1.766a3.46 3.46 0 0 1-.122-1.11c.032-.399.116-.792.249-1.17a18.55 18.55 0 0 1 1.97-3.619l.674-1.044a1.87 1.87 0 0 1 .259-.377 1.69 1.69 0 0 1-.182.422l-.614 1.085c-.74 1.142-1.374 2.35-1.892 3.609a4.53 4.53 0 0 0-.251 1.108 3.34 3.34 0 0 0 .1 1.047l.5 1.773a4.42 4.42 0 0 1 .161 1.246c-.002.114-.015.228-.037.34-.009.077-.024.116-.024.116zm7.637-17.751a8.9 8.9 0 0 1 .168-2.835 8.94 8.94 0 0 1-.168 2.835zm3.056-.274a8.77 8.77 0 0 1-.444-2.78 8.77 8.77 0 0 1 .444 2.78zm2.641-.505a6.32 6.32 0 0 1-.672-2.294 6.34 6.34 0 0 1 .672 2.294z"/></g><path d="M126.775 64.71c.049 2.989.58 5.466.63 8.455a1.9 1.9 0 0 0 .145.849c.333.646 1.092.456 1.819.412.376-.049.748-.128 1.111-.237.047-.225.014-.459-.092-.662l-3.613-8.817" opacity=".3"/><path d="M93.793 70.626l11.732 11.309 12.459-.622-10.085-11.396z" class="B"/><path d="M95.764 70.499s-3.256 1.442.057 3.943 7.853 3.431 8.547 5.239c.42 1.023.253 2.193-.438 3.057l9.548-.419s2.833-2.444.72-4.628-7.661-5.331-8.307-6.179.9-1.533.9-1.533z" class="C"/><path d="M98.782 70.355l-.372-.439 5.15-.319v.532z" class="D"/><path d="M105.053 71.812c-.418.112-.847.179-1.28.2l-3.115.246-3.127.074c-.434.016-.868-.021-1.293-.11a11.72 11.72 0 0 1 1.293-.051l3.115-.141 3.115-.179a8.9 8.9 0 0 1 1.292-.039zm1.014 1.445a76.94 76.94 0 0 1-8.355.4c2.776-.285 5.565-.418 8.355-.4zm2.21 1.193c-.392.11-.794.181-1.2.212l-2.911.3-2.923.154a6.1 6.1 0 0 1-1.214-.025 6.81 6.81 0 0 1 1.206-.135l2.913-.22 2.912-.231c.403-.055.811-.073 1.217-.055zm1.499 1.632a56.73 56.73 0 0 1-7.158.569 56.73 56.73 0 0 1 7.158-.569zm2.244 1.469a53.48 53.48 0 0 1-6.929.727 53.3 53.3 0 0 1 6.929-.727zm1.049 2.074a4.5 4.5 0 0 1-1.033.173l-2.516.2-2.524.052c-.35.017-.7-.005-1.045-.068a5.07 5.07 0 0 1 1.043-.093l2.515-.119 2.514-.134a5.08 5.08 0 0 1 1.046-.011z" class="M"/><path d="M120.74 80.228l-2.365-.374-8.822.215s-.46-.133-.06-.385c.194-.123 3.437-.926 3.437-.926l-4.655.375a6.12 6.12 0 0 1 1.775-2.12c1.036-.582 2.152-1.01 3.312-1.269l-1.412-1.071s4.608-.6 5.2-.077a18.27 18.27 0 0 1 1.312 1.343l2.547-.023" class="L"/><path d="M114.555 78.504c0 .066-1.391.111-3.1.274l-3.094.311a3.4 3.4 0 0 1 .887-.23c.554-.108 1.327-.225 2.186-.307l2.2-.107a3.35 3.35 0 0 1 .921.059zm-.27-1.146a31.97 31.97 0 0 1-5.328.755 31.86 31.86 0 0 1 5.328-.755z" class="O"/><path d="M71.124 53.024l-.4 1.3h6.32l-.336-.887z" class="D"/><g class="B"><path d="M77.248 57.156l-.105-.086h-6.518l-.1.086z"/><path d="M76.15 64.38l1.339-9.872h-7.21l1.341 9.872c1.502.219 3.028.219 4.53 0z"/></g><path d="M77.575 54.662h-7.379v-.115a.59.59 0 0 1 .591-.591h6.2a.59.59 0 0 1 .591.591z" class="D"/><path d="M76.732 61.01h-5.693l-.516-3.854h6.725z" class="C"/><path d="M74.682 59.703c.367-.654.571-1.458-.166-1.923 0 0-.7-.454-1.472.4-.6.658-.88 1.426-.4 2.017.59.709 1.67.16 2.038-.494zm-1.149-.1a1.56 1.56 0 0 0-.616.729c-.067-.471.132-.73.821-1.266.396-.283.658-.717.723-1.2.368.885-.433 1.393-.928 1.733zm-2.493-6.307l1.231.179v.253h-1.363z" class="B"/><g class="G"><path d="M73.231 59.796S62.648 70.437 61.708 70.737l-3.5-6.482-6.169 3.468 3.618 7.758a5.77 5.77 0 0 0 9.791 1.679l10.4-12.259 2.1-2.324c.422-.641.705-1.364.829-2.121a3.75 3.75 0 0 0-.088-1.415 1.42 1.42 0 0 0-.058-1.1c-.126-.2-.332-.336-.565-.373.458-1.136-.786-1.7-1.413-.758"/><path d="M72.84 60.187c-.164-.529-.502-.987-.958-1.3a2.68 2.68 0 0 0-1.467-.575s.126-.762 1.384-.594 1.593.979 3.144.594l.335 1.448z"/></g><path d="M78.157 57.386c.054.025-.124.478-.538.9s-.859.612-.886.558.339-.32.723-.717.643-.773.701-.741zm.483 1.636c.056.024-.036.346-.295.655s-.557.46-.591.409.18-.269.416-.554.412-.537.47-.51zM60.824 75.001a10.09 10.09 0 0 1 .786-4.509c.063.02-.214 1.007-.428 2.249l-.358 2.26z" class="Q"/><path d="M22.782 53.768l-.4 1.3h6.32l-.336-.887z" class="D"/><g class="B"><path d="M28.907 57.9l-.105-.086h-6.523l-.1.086z"/><path d="M27.809 65.128l1.339-9.871H21.94l1.339 9.871c1.502.219 3.028.219 4.53 0z"/></g><path d="M29.234 55.406h-7.379v-.114a.59.59 0 0 1 .591-.591h6.2a.59.59 0 0 1 .591.591z" class="D"/><path d="M28.391 61.754h-5.693l-.519-3.854h6.725z" class="C"/><path d="M26.34 60.446c.368-.654.571-1.458-.166-1.923 0 0-.7-.453-1.472.4-.6.657-.88 1.426-.4 2.017.59.709 1.671.161 2.038-.494zm-1.149-.1a1.56 1.56 0 0 0-.616.729c-.067-.471.131-.73.821-1.266.395-.282.657-.714.723-1.195.368.88-.432 1.388-.927 1.729zm-2.492-6.306l1.231.179v.253h-1.363z" class="B"/><g class="G"><path d="M22.783 79.86s-1.255-1.484-.928-12.053l-.078-5.661 4.923-1.482 3.4 19.107z"/><path d="M26.538 61.006a3.23 3.23 0 0 1 1.076-1.483 2.68 2.68 0 0 1 1.467-.575s-.125-.762-1.383-.595-1.593.979-3.144.595l-1.795 3.21z"/><path d="M24.893 59.209c-.077-.2-2.641-2.243-2.641-2.243s-1.321.054-.822 1.245c-.302.119-.534.368-.631.678s-.049.647.131.917c0 0-.576.415-.171 1.574a10.84 10.84 0 0 0 1.111 2.2zm.699 11.293l-2.865 6.844c-.648 2.038.475 4.217 2.511 4.872h0c2.019.65 4.187-.441 4.868-2.45l2.295-6.75z"/></g><g class="Q"><path d="M22.983 76.788a3.85 3.85 0 0 1 .233-.949l.8-2.215.969-2.146a3.88 3.88 0 0 1 .492-.844c-.082.316-.198.621-.346.912l-.9 2.163-.855 2.183c-.098.312-.23.612-.393.896z"/><path d="M25.006 71.689c.007.067-.491.135-.979.474s-.741.768-.8.737c-.058-.014.119-.552.673-.925a1.33 1.33 0 0 1 1.106-.286z"/></g><g class="B"><path d="M37.169 35.111c.285.823-.689 1.523-1.538 1.718s-1.876.316-2.265 1.095c-.337.676 0 1.533-.3 2.223-.584 1.312-2.941 1.038-3.4 2.4-.317.933.559 1.9.45 2.875-.094.844-.867 1.418-1.545 1.929s-1.391 1.216-1.284 2.058c.124.973 1.311 1.646 1.2 2.621-.107.959-1.4 1.407-1.587 2.353-.221 1.124 1.186 1.846 1.638 2.9.346.8.132 1.839.716 2.491.6.668 1.659.537 2.536.351l8.744-1.854a4.6 4.6 0 0 1 .807-4.244c.842-1.245 1.965-2.3 2.688-3.613a3.91 3.91 0 0 0 .014-4.246m8.501-4.065a8.9 8.9 0 0 0-.287-1.38 1.38 1.38 0 0 0-.35-.567c-.172-.164-.4-.06-.539.176a4.27 4.27 0 0 0 0 3.545c.142.236.367.34.54.176.161-.158.281-.352.349-.567.132-.452.228-.914.287-1.381a1.07 1.07 0 0 1 .03.386 3.7 3.7 0 0 1-.164 1.048 1.49 1.49 0 0 1-.381.659.47.47 0 0 1-.465.109c-.154-.062-.284-.171-.37-.313-.585-1.191-.585-2.587 0-3.778a.77.77 0 0 1 .369-.313.47.47 0 0 1 .465.109 1.5 1.5 0 0 1 .381.659 3.7 3.7 0 0 1 .164 1.048c.014.129.004.259-.029.384z"/><path d="M38.281 50.156c-1.581-2.673-2.035-6.233-2.435-9.313-.188-1.449-.519-3.513.5-4.42 1.092-.971 1.2-2.469 2.452-3.218 1.272-.79 2.886-.772 4.14.046"/></g><path d="M42.663 59.622h0a4.29 4.29 0 0 0 4.626-4.1l.182-4.694c2.025-.189 3.626-1.797 3.806-3.822.267-3.5.173-11.584.173-11.584h0a12.2 12.2 0 0 0-12.332.757l.182 12.323-.02 6.629c.017 2.225 1.167 4.315 3.383 4.491z" class="G"/><path d="M47.802 42.724c-.534-.777-1.579-1.009-2.391-.529-.82.566-1.11 1.642-.685 2.543a2.68 2.68 0 0 0 1.714 1.3c.667.147 1.118.771 1.048 1.451-.1.878-1.566 1.2-2.228 1.93-1.03 1.128-3.283 1.6-4.8 1.775-1.492.172-1.312.187-2.176-1.042a4.7 4.7 0 0 1-.843-2.845l-.139-7.74c-.056-.93.006-1.863.184-2.778a3.73 3.73 0 0 1 1.472-2.294 11.44 11.44 0 0 1 2.9-.913c1.172-.498 2.303-1.089 3.382-1.767a4.15 4.15 0 0 1 3.665-.345c.817.412 1.362 1.23 2.156 1.685 1.13.647 2.671.505 3.216 2.172a2.82 2.82 0 0 1-.024 1.78c-.423 1.058-1.265 1.893-2.326 2.307s-2.247.369-3.274-.124c.159.812.134 1.648-.073 2.449-.13.387-.178.978-.783.987" class="B"/><path d="M47.166 44.908c.014.005.014.066-.049.151-.096.118-.239.189-.391.194-.509-.034-.903-.459-.9-.969a1.01 1.01 0 0 1 .26-.74c.146-.159.338-.268.549-.314.361-.074.568.059.554.082-.009.04-.215-.017-.505.088-.375.121-.623.478-.606.872 0 .389.274.724.656.8.287.022.407-.186.432-.164z" class="Q"/><path d="M52.554 41.935a25.44 25.44 0 0 1-4.748.777 25.55 25.55 0 0 1 4.748-.777zM38.565 53.571a1.02 1.02 0 0 0 1.217.488 2.91 2.91 0 0 0 1.176-.8 3.08 3.08 0 0 1 1.166-.815c.934-.284 2.077.34 2.863-.24.715-.527.622-1.722 1.324-2.266.373-.289.893-.326 1.272-.607a1.65 1.65 0 0 0 0-2.346 4.78 4.78 0 0 0-2.344-1.15l-7.524 3.207z" class="B"/><path d="M47.501 39.976s-.019.019-.062.046a2.03 2.03 0 0 1-.2.111 4.04 4.04 0 0 1-.824.3 9.52 9.52 0 0 1-1.367.217 13.81 13.81 0 0 0-1.8.248c-.712.131-1.363.487-1.858 1.015a10.27 10.27 0 0 0-1.09 2.255 2.93 2.93 0 0 1-.876 1.1c-.399.284-.842.502-1.31.646a7.75 7.75 0 0 0-2.713 1.148c-.378.309-.625.748-.694 1.231-.042.486-.042.975 0 1.461.12 1-.4 1.969-1.3 2.422-.787.463-1.612.709-2.27 1.128-.319.19-.595.444-.81.747a1.97 1.97 0 0 0-.307.958 6.69 6.69 0 0 0 .254 1.781 4.65 4.65 0 0 1 .125 1.383 1.96 1.96 0 0 1-.251.841.99.99 0 0 1-.19.24 2.09 2.09 0 0 0 .353-1.088 4.75 4.75 0 0 0-.161-1.347 6.64 6.64 0 0 1-.281-1.818 2.13 2.13 0 0 1 .32-1.044 2.82 2.82 0 0 1 .856-.812c.684-.443 1.511-.7 2.263-1.148.829-.419 1.303-1.316 1.181-2.237a8.57 8.57 0 0 1 0-1.5c.077-.537.352-1.025.771-1.37a7.84 7.84 0 0 1 2.789-1.187 4.41 4.41 0 0 0 1.25-.608 2.72 2.72 0 0 0 .819-1.023 10.1 10.1 0 0 1 1.135-2.284 3.53 3.53 0 0 1 1.965-1.049 13.18 13.18 0 0 1 1.82-.218 10.33 10.33 0 0 0 1.358-.177 6.15 6.15 0 0 0 1.105-.368zm-2.028 1.254c0 .024-.27 0-.733.105-.65.159-1.237.51-1.684 1.008a3.06 3.06 0 0 0-.672 1.176 5.27 5.27 0 0 0-.137 1.571c.049.612-.04 1.227-.26 1.8a1.83 1.83 0 0 1-.657.739c-.28.172-.569.327-.868.464a2.26 2.26 0 0 0-.748.532 1.34 1.34 0 0 0-.294.806c.057.605-.011 1.216-.2 1.794-.272.49-.678.892-1.17 1.16l-1.233.676c-.332.183-.626.427-.868.718a1.97 1.97 0 0 0-.374.758 1.77 1.77 0 0 0 .013.725.46.46 0 0 1-.077-.18 1.32 1.32 0 0 1-.023-.563 1.99 1.99 0 0 1 .359-.817c.242-.314.543-.579.885-.779l1.218-.7a2.79 2.79 0 0 0 1.08-1.09 4.39 4.39 0 0 0 .168-1.719c.009-.34.13-.668.342-.934.229-.251.509-.452.82-.59a2.65 2.65 0 0 0 1.427-1.1 3.98 3.98 0 0 0 .251-1.7c-.028-.548.028-1.096.166-1.627a3.18 3.18 0 0 1 .734-1.23 3.3 3.3 0 0 1 1.787-.985c.183-.036.37-.05.557-.042a.62.62 0 0 1 .191.024z" class="D"/><path d="M33.434 85.072l2.439-7.082-1.694-8.593-1.326 3.789-8.2-3.009 5.572-11.167c2.425-5.094 8.888-5.094 8.888-5.094l8.228.215c2.645-.173 5.231.83 7.067 2.741 2.356 2.374 7.727 12.756 7.727 12.756l-8.657 2.7-1.713-3.2.5 6.754 1.7 10.293z" class="C"/><path d="M54.109 56.58c0 .063-5 .114-11.16.114s-11.161-.051-11.161-.114 5-.114 11.161-.114l11.16.114z" class="K"/><path d="M50.615 56.333c0 .027-.231.035-.605.19a2.78 2.78 0 0 0-1.253 1.12c-.443.727-.623 1.583-.512 2.426a9.51 9.51 0 0 0 .97 2.972l2.4 5.255.7 1.605a3.22 3.22 0 0 1 .227.6 3.16 3.16 0 0 1-.315-.561l-.773-1.571-2.469-5.225a9.35 9.35 0 0 1-.975-3.052c-.106-.891.104-1.792.592-2.545a2.75 2.75 0 0 1 1.367-1.115c.152-.055.311-.089.472-.1.114-.008.174-.007.174.001zM35.953 78.376c-.068.014-1.053-4.444-2.2-9.957l-1.961-10.008c.064-.014 1.053 4.443 2.2 9.958l1.961 10.007zm12.363-6.686c.026.197.024.396-.006.592a5.66 5.66 0 0 1-.4 1.568c-.707 1.665-1.983 3.026-3.6 3.838a10.6 10.6 0 0 1-5.189 1.041 12.27 12.27 0 0 1-1.6-.165 2.48 2.48 0 0 1-.575-.135c.006-.046.834.108 2.182.122a11.08 11.08 0 0 0 5.072-1.087c1.565-.792 2.815-2.09 3.548-3.684.274-.671.465-1.373.568-2.09z" class="B"/><path d="M56.898 60.272c0 .063-6.109.114-13.643.114s-13.644-.051-13.644-.114 6.107-.114 13.644-.114l13.643.114zm2.018 3.433c0 .063-6.913.114-15.438.114s-15.44-.051-15.44-.114 6.911-.114 15.44-.114l15.438.114zm1.359 3.146c0 .063-7.591.114-16.953.114s-16.954-.051-16.954-.114 7.589-.114 16.954-.114l16.953.114zm-26.693 3.845a7.34 7.34 0 0 1-1.178-.32l-2.824-.807-2.853-.7a7.38 7.38 0 0 1-1.182-.306 5.83 5.83 0 0 1 1.214.148l2.879.637 2.816.874a5.85 5.85 0 0 1 1.128.474zm18.38-.562a4.08 4.08 0 0 1-.7.021l-8.193-.085h-8.196c-.234.011-.468.001-.7-.028a4.1 4.1 0 0 1 .7-.06l1.906-.073 6.292-.069 6.29.132 1.905.092a4.17 4.17 0 0 1 .696.07zm9.617-1.571c0-.022.036 0-.044.012l-.266.051-.982.172-3.248.519-3.256.468c-.449.082-.903.125-1.359.131.436-.134.882-.231 1.334-.29l3.247-.534 3.259-.453.994-.1.273-.009c.034.007.051-.007.08.021-.027.031-.029.009-.032.012zm-13.66 4.619c0 .063-2.9.114-6.486.114s-6.487-.051-6.487-.114 2.9-.114 6.487-.114l6.486.114zm4.2 1.049a21.7 21.7 0 0 1-4.428 0 21.63 21.63 0 0 1 4.428 0zm-7.03 2.76a7.62 7.62 0 0 1-1.366.1l-3.3.01-3.3-.164a7.6 7.6 0 0 1-1.359-.166 8.85 8.85 0 0 1 1.368 0l3.294.1 3.294.056a8.73 8.73 0 0 1 1.369.064zm7.38.929a43.57 43.57 0 0 1-4.447.114 43.41 43.41 0 0 1-4.447-.114 43.48 43.48 0 0 1 4.447-.114 43.41 43.41 0 0 1 4.447.114zm.668 3.223a4.28 4.28 0 0 1-.716.031H50.47l-6.433-.138-6.43-.283-1.946-.143a4.35 4.35 0 0 1-.711-.088 4.27 4.27 0 0 1 .716 0l1.948.071 6.429.216 6.429.2 1.949.077c.24-.001.479.018.716.057zm.606 3.656a5.33 5.33 0 0 1-.779 0l-2.119-.082-6.985-.356-6.984-.423-2.117-.154a5.26 5.26 0 0 1-.776-.087c.258-.02.518-.02.776 0l2.118.082 6.989.356 6.986.423 2.116.154a5.07 5.07 0 0 1 .775.087z" class="K"/><path d="M36.562 77.823c1.545 1.156 3.819.771 5.723.454 1.927-.284 3.692-1.241 4.983-2.7a3.35 3.35 0 0 0 .926-2.356 1.69 1.69 0 0 0-1.7-1.592c-.986.119-1.461 1.224-1.936 2.1-1.6 2.803-4.787 4.299-7.965 3.74 0 0-.302.154-.031.354zm11.754-16.752c.481 3.881 1.108 7.065 1.918 10.89a10.92 10.92 0 0 0 2.18 5.265l-.746-8.6z" opacity=".2"/><path d="M37.298 52.965a2.79 2.79 0 0 0-1.3 4.166c.198.213.324.484.357.773-.036.691-1.153.709-1.505 1.3-.189.437-.067.947.3 1.251.362.287.748.544 1.152.769.409.233.675.655.707 1.125.39-.011.621-.484.561-.869a3.8 3.8 0 0 0-.48-1.062c-.214-.336-.232-.76-.048-1.113.255-.363.775-.378 1.19-.539a1.66 1.66 0 0 0 .879-2.136c-.251-.562-.835-1.129-.551-1.674.159-.3.523-.421.823-.587.63-.349 1.043-.991 1.099-1.709s-.253-1.416-.821-1.858" class="B"/><path d="M29.357 119.416l-2.436 45.155 7.445 1.8 5.582-46z" class="G"/><g class="B"><path d="M26.698 164.399l-1.268 5.578h8.568l.367-3.631z"/><path d="M34.174 169.167c-.412.067-.831.09-1.248.071-.772.009-1.837-.012-3.011-.055l-3.006-.128c-.417.004-.834-.03-1.245-.1a6.06 6.06 0 0 1 1.249-.068l3.011.058 3.006.125a7.07 7.07 0 0 1 1.244.097z"/><path d="M30.544 165.486c.078 1.205-.004 2.416-.242 3.6-.078-1.205.003-2.416.242-3.6z"/></g><path d="M25.431 169.977h8.568l.082-.81-8.5-.212-.154.925" class="E H"/><path d="M56.301 154.012l1.807 13.619 6.59-.458-1.386-12.486z" class="G"/><path d="M64.765 165.695h0s7.4 2.5 7.526 3.852l-14.158.413-.127-3.7.524.1c2.098.417 4.272.185 6.235-.665z" class="B"/><path d="M59.663 166.904a.58.58 0 0 0-.381.671c.084.283.375.451.662.383a.61.61 0 0 0 .4-.713c-.118-.287-.442-.429-.733-.322m-1.474 3.036l.006-1.148 13.573.033s.638.256.58.7z" class="H E"/><g class="B"><path d="M64.993 165.616c0 .069-.345.111-.679.343s-.506.528-.571.5.027-.428.436-.7.827-.207.814-.143zm1.503.571c.018.067-.278.193-.5.492s-.285.61-.354.609-.125-.391.164-.758.686-.409.69-.343z"/><path d="M67.391 167.94c-.062.017-.169-.326 0-.71s.485-.544.516-.487-.163.265-.3.582-.148.602-.216.615zm-2.552-2.359c-.23.07-.476.076-.709.017a3.19 3.19 0 0 1-.749-.206c-.142-.057-.28-.124-.413-.2-.081-.042-.155-.096-.219-.16a.3.3 0 0 1-.043-.367.38.38 0 0 1 .3-.167.93.93 0 0 1 .267.029 2.49 2.49 0 0 1 .445.138 2.5 2.5 0 0 1 .666.41c.337.295.457.55.434.564s-.2-.188-.538-.429a2.81 2.81 0 0 0-.643-.338c-.134-.049-.271-.087-.411-.114-.151-.035-.279-.032-.315.035-.013.026-.015.036.018.079a.7.7 0 0 0 .161.117 3.67 3.67 0 0 0 .381.2 3.9 3.9 0 0 0 .693.243 4.95 4.95 0 0 1 .675.149z"/><path d="M64.751 165.682c-.14-.198-.213-.436-.207-.679a2.29 2.29 0 0 1 .242-1.215c.072-.193.24-.333.442-.371.128 0 .245.073.3.189.038.082.065.169.08.258a1.59 1.59 0 0 1 .014.478c-.031.266-.128.521-.281.741-.266.375-.552.466-.559.443-.024-.034.213-.174.414-.533a1.62 1.62 0 0 0 .2-.673 1.47 1.47 0 0 0-.025-.409c-.027-.15-.087-.27-.142-.253-.07 0-.187.118-.241.239-.066.125-.121.255-.164.39-.073.231-.112.47-.117.712 0 .415.081.671.044.683z"/></g><path d="M33.434 85.073s-5.225 8.73-5.225 13.953l-1.288 63.609 9.037 1.323 6.3-62.161 14.968 62.968c.489 0 8-1.348 8-1.348L53.833 85.353z" class="I"/><g class="B"><path d="M48.016 103.203c-.016.067-2.768-.547-6.145-1.371l-6.086-1.614c.014-.067 2.767.547 6.145 1.371l6.086 1.614z"/><path d="M36.788 100.733a.87.87 0 0 1-.016.161l-.068.467-.284 1.793-1.03 6.6a473.74 473.74 0 0 0-2.767 21.851c-.879 8.557-1.414 16.332-1.719 21.962l-.442 8.953a.82.82 0 0 1-.017.16c-.007-.053-.009-.107-.006-.161l.005-.472.042-1.815.257-6.674c.264-5.634.779-13.412 1.653-21.977s1.953-16.279 2.838-21.854l1.1-6.588.326-1.786.091-.464a.83.83 0 0 1 .037-.156zm13.071 1.053c.062-.011 2.581 13.949 5.626 31.176l5.4 31.219c-.064.011-2.58-13.946-5.626-31.179l-5.4-31.216z"/></g><path d="M27.412 49.191a1.82 1.82 0 0 1 .318.383c.273.366.495.767.66 1.193a2.4 2.4 0 0 1 .156.948c-.022.375-.148.737-.364 1.045-.213.326-.488.617-.732.936a1.93 1.93 0 0 0-.461 1.085 2.2 2.2 0 0 0 .334 1.143 10.16 10.16 0 0 0 .662.963 4.58 4.58 0 0 1 .553.94 2.46 2.46 0 0 1 .176.941 3.36 3.36 0 0 0 .069.747 1.1 1.1 0 0 0 .266.477.86.86 0 0 0 .416.218c.011.006-.208.07-.476-.153-.153-.136-.266-.31-.328-.505a3.2 3.2 0 0 1-.107-.776 2.37 2.37 0 0 0-.19-.875c-.148-.316-.332-.615-.548-.889-.249-.311-.478-.637-.687-.977a2.4 2.4 0 0 1-.367-1.262 2.13 2.13 0 0 1 .514-1.213l.735-.917a1.96 1.96 0 0 0 .231-1.825 5.89 5.89 0 0 0-.581-1.2c-.097-.134-.181-.277-.249-.427z" class="D"/><defs ><path id="B" d="M153.437 47.323h1.426v1.426h-1.426z"/><path id="C" d="M234.203 46.608a22.81 22.81 0 0 1-4.212 0c1.401-.131 2.811-.131 4.212 0z"/><path id="D" d="M228.052 87.795c0 .017-3.74.03-8.354.03s-8.355-.013-8.355-.03 3.74-.03 8.355-.03l8.354.03z"/><path id="E" d="M213.253 95.557c-.213.04-.432.04-.645 0 .213-.04.432-.04.645 0z"/><path id="F" d="M210.871 90.63a1.16 1.16 0 0 1-.395 2.282 1.16 1.16 0 0 1 .135-2.312c.088-.009.177.001.26.03z"/></defs></svg>