<svg xmlns="http://www.w3.org/2000/svg" xmlns:xlink="http://www.w3.org/1999/xlink" width="659.412" height="414.046" xmlns:v="https://vecta.io/nano"><style><![CDATA[.B{opacity:.3}.C{fill-rule:evenodd}.D{fill:#ffc727}.E{fill:#d6e1f1}.F{fill:#cccbcb}.G{fill:#dbdbdb}.H{fill:#e3efff}.I{stroke-width:4}.J{fill:#53729d}]]></style><rect width="134.275" height="90.211" rx="3" fill="#fff" stroke="#e8f2ff" stroke-width="2" x="460.137" y="302.598"/><path d="M539.744 37.321a5.95 5.95 0 0 1 1.859.582c2.031.997 3.542 2.811 4.154 4.989a7.96 7.96 0 0 1-.945 6.423c-.41.661-.92 1.254-1.512 1.759a7.43 7.43 0 0 1-2.044 1.239 8.14 8.14 0 0 1-4.956.5 8.04 8.04 0 0 1-4.312-2.59 7.32 7.32 0 0 1-1.239-2.045 7.2 7.2 0 0 1-.607-2.23 8 8 0 0 1 .607-4.2 7.87 7.87 0 0 1 7.162-4.746c.654-.023 1.308.065 1.933.26 0 .062-.694-.136-1.921-.087a7.82 7.82 0 0 0-4.746 1.871 7.6 7.6 0 0 0-2.094 2.85c-.526 1.263-.71 2.643-.533 4a7.25 7.25 0 0 0 .595 2.106c.306.707.724 1.36 1.239 1.933 1.055 1.245 2.486 2.115 4.077 2.478a7.66 7.66 0 0 0 4.721-.458 6.9 6.9 0 0 0 1.933-1.239 6.75 6.75 0 0 0 1.437-1.66 7.63 7.63 0 0 0 1.239-3.841 7.77 7.77 0 0 0-4.163-7.187c-1.184-.534-1.892-.645-1.884-.707zm6.299-8.401a2.2 2.2 0 0 1 0-.273v-4.151l.062.074-7.15-1.561.124-.062-1.883 4v.074h-.087a17.85 17.85 0 0 0-4.659.83h-.149l-3.259-3.135h.248l-6.2 3.94v-.223l1.487 4.163v.1l-.074.087a18.19 18.19 0 0 0-2.714 3.866v.1h-4.535l.186-.161-1.586 7.149-.112-.235 3.99 1.883h.111v.124a18.04 18.04 0 0 0 .805 4.647v.124l-.1.1-3.122 3.135v-.273l3.915 6.2-.26-.1 4.163-1.487h.124l.112.087a17.51 17.51 0 0 0 3.841 2.714h0c.062.087-.111-.2.124.2h0v4.405l-.174-.223 7.137 1.611-.248.124 1.9-4 .062-.112h.136c1.574-.06 3.132-.331 4.634-.805h.124l.1.1 3.135 3.122h-.273l6.2-3.9-.087.235-1.487-4.163v-.112l.087-.1a17.84 17.84 0 0 0 2.726-3.854v-.1h4.535l-.174.149 1.611-7.149.1.2-3.99-1.908h-.087v-.1a17.6 17.6 0 0 0-.793-4.659v-.156l3.135-3.135v.173l-3.891-6.2h.124l-4.176 1.45a19.45 19.45 0 0 0-2.838-2.181l-.768-.458-.248-.161.273.124.781.421a17.9 17.9 0 0 1 2.9 2.156h-.079l4.151-1.512h.074v.074l4.002 6.3-.074.074-2.974 3v-.149a17.77 17.77 0 0 1 .83 4.746l-.087-.136 4 1.883.124.062v.136l-1.586 7.137v.149h-4.6l.173-.1a18.59 18.59 0 0 1-2.775 3.953v-.206l1.487 4.163.062.161-.149.087-6.2 3.928-.149.087-.109-.126-3.11-3.085h.223a17.99 17.99 0 0 1-4.758.83l.186-.124-1.974 4.151h-.167l-7.137-1.524h-.174v-4.6l.124.2a17.97 17.97 0 0 1-3.94-2.776h.223l-4.336 1.536-.087-.149-3.915-6.2-.1-.149.124-.124 3.122-3.135v.223a18.39 18.39 0 0 1-.83-4.758l.124.186-4.114-2.032v-.161l1.611-7.137v-.161h4.572l-.173.1a18.41 18.41 0 0 1 2.788-3.928v.186l-1.482-4.169v-.124l.124-.087 6.2-3.9h.112l3.222 3.222h-.149a17.88 17.88 0 0 1 4.733-.805l-.112.074 1.908-3.99v-.09h.087l7.125 1.648h.062v4.126c-.028.097-.062.192-.101.285z" fill="#f2f8ff"/><g class="H"><path d="M589.386 320.228c0 .149-28.858.26-64.432.26s-64.432-.112-64.432-.26 28.846-.26 64.432-.26l64.432.26zm-117.911 12.317h39.861v39.861h-39.861zm108.506 6.566a2.16 2.16 0 0 1-.582 0h-1.685l-6.2.074-20.4.087-20.4-.087-6.2-.074h-1.685a2.16 2.16 0 0 1-.582 0c.193-.021.389-.021.582 0h1.706l6.2-.087 20.4-.074 20.4.074 6.2.087h1.685c.193-.021.389-.021.582 0zm1.277 8.909a2.73 2.73 0 0 1-.595 0h-1.723l-6.319.087-20.841.074-20.854-.074-6.319-.087h-1.722a2.73 2.73 0 0 1-.595 0 2.2 2.2 0 0 1 .595-.062h1.722l6.319-.074 20.854-.087 20.841.087 6.319.073h1.722a2.2 2.2 0 0 1 .596.063zm0 8.898a2.2 2.2 0 0 1-.595 0h-1.723l-6.319.074-20.841.087-20.854-.087-6.319-.074h-1.722a2.2 2.2 0 0 1-.595 0 2.73 2.73 0 0 1 .595 0h1.722l6.319-.087 20.854-.074 20.878.037 6.319.087h1.722a2.72 2.72 0 0 1 .559.037zm0 8.909a2.73 2.73 0 0 1-.595 0h-1.723l-6.319.087-20.841.074-20.854-.074-6.319-.087h-1.722a2.73 2.73 0 0 1-.595 0 2.21 2.21 0 0 1 .595-.062h1.722l6.319-.074 20.854-.087 20.841.087 6.319.074h1.722a2.21 2.21 0 0 1 .595.062z"/><path d="M507.904 11.771c2.812 1.466 5.42 3.295 7.756 5.439l8.24-2.937 7.744 12.23-6.2 6.2a35.29 35.29 0 0 1 1.611 9.293l7.905 3.717-3.2 14.175h-8.673a35.47 35.47 0 0 1-5.427 7.719l2.936 8.24-12.23 7.744-6.2-6.2a35.3 35.3 0 0 1-9.293 1.623l-3.717 7.893-14.125-3.16v-8.748a35.09 35.09 0 0 1-7.72-5.44l-8.24 2.937-7.843-12.186 6.2-6.2c-.96-2.994-1.519-6.103-1.66-9.244l-7.91-3.716 3.172-14.126h8.748c1.457-2.806 3.287-5.403 5.44-7.719l-2.937-8.24 12.23-7.744 6.2 6.2a35.49 35.49 0 0 1 9.306-1.623l3.717-7.893 14.125 3.172v8.674zM495.451 28.4c-7.22-1.612-14.573 2.099-17.566 8.864s-.793 14.702 5.256 18.961 14.263 3.654 19.623-1.445 6.373-13.273 2.421-19.527c-2.205-3.487-5.708-5.953-9.734-6.853z" opacity=".8" class="C"/><path d="M92.764 75.002h91.692s-8.1-14.745-31.7-12.6c-22.526 2.057-23.679-7.249-35.14-8.4s-21.036 7.643-24.852 21z"/></g><path d="M291.14 241.645h74.184s-6.555-11.932-25.649-10.2c-18.239 1.66-19.169-5.873-28.5-6.8s-16.95 6.183-20.035 17z" fill="#f5f5f5"/><rect width="236.275" height="158.211" rx="3" fill="#fff" stroke="#e8f2ff" x="421.137" y="34.597" class="I"/><g class="H"><path d="M421.137 48.714c0-.244 52.856-.423 118.04-.423l118.04.423c0 .244-52.84.423-118.04.423s-118.04-.114-118.04-.423z"/><path d="M430.456 41.591c-.008.899-.648 1.668-1.531 1.837s-1.762-.309-2.101-1.141-.043-1.789.707-2.284 1.746-.393 2.379.245a1.9 1.9 0 0 1 .547 1.344z" class="B"/><use xlink:href="#B" class="B"/><use xlink:href="#B" x="6.387" class="B"/><path d="M441.45 65.206h63.021v63.021H441.45zm183.566 17.808c0 .244-24.59.423-54.905.423s-54.906-.179-54.906-.423 24.59-.423 54.906-.423l54.905.423z"/><use xlink:href="#C"/><use xlink:href="#C" y="11.709"/><path d="M580.112 118.159c-.844.132-1.699.187-2.553.163l-6.961.13-22.931.13c-8.944 0-17.077 0-22.948-.13l-6.961-.13a13.95 13.95 0 0 1-2.553-.163 13.95 13.95 0 0 1 2.553-.163l6.961-.13 22.948-.13 22.931.13 6.961.13c.854-.024 1.709.031 2.553.163z"/><path d="M445.386 149.483h29.616v29.616h-29.616z" class="B"/><path d="M499.104 149.483h29.616v29.616h-29.616zm53.719 0h29.616v29.616h-29.616zm53.718 0h29.616v29.616h-29.616z"/></g><rect width="210.482" height="85.497" rx="3" fill="#fff" stroke="#fbd565" x="47.794" y="91.585" class="I"/><g class="D"><path d="M48.005 103.118c0-.179 47.05-.342 105.062-.342l105.094.342c0 .179-47.05.325-105.094.325s-105.062-.147-105.062-.325z"/><use xlink:href="#D" class="B"/><use xlink:href="#D" x="5.269" class="B"/><path d="M67.213 97.962a1.53 1.53 0 0 1-2.611 1.081 1.53 1.53 0 0 1 1.083-2.61 1.53 1.53 0 0 1 1.528 1.529z" class="B"/><path d="M65.684 117.006h50.84v50.84h-50.84zm178.035 13.629c0 .179-26.168.341-58.435.341s-58.435-.163-58.435-.341 26.168-.325 58.435-.325l58.435.325zm0 10.359c0 .179-26.168.325-58.435.325s-58.435-.146-58.435-.325 26.168-.342 58.435-.342l58.435.342zm-41.634 10.358a5.73 5.73 0 0 1-.764 0h-2.2l-8.05.1-26.607.1-26.591-.1-8.128-.1h-2.2a6.05 6.05 0 0 1-.764 0c.253-.037.511-.037.764 0h2.2l8.132-.114 26.591-.1 26.607.1 8.05.114h2.2a2.55 2.55 0 0 1 .76 0z"/></g><path fill="#f5f5f5" d="M65.684 117.006h50.84v50.84h-50.84z" class="B"/><path d="M493.406 238.45h10.743v34.711h-10.743zm19.776-14.288h10.743v48.984h-10.743zm21.039-6.674h10.743v55.658h-10.743zm21.055-7.029h10.743v62.702h-10.743z" class="D"/><g class="H"><path d="M194.278 266.338a5.95 5.95 0 0 1 1.859.582c2.031.997 3.542 2.811 4.154 4.989a7.96 7.96 0 0 1-.945 6.423 8.09 8.09 0 0 1-3.556 3.061c-3.224 1.432-7.005.581-9.305-2.094a7.62 7.62 0 0 1-1.239-2.045 7.2 7.2 0 0 1-.607-2.23 8 8 0 0 1 .607-4.2 7.87 7.87 0 0 1 7.162-4.746 5.74 5.74 0 0 1 1.933.26 9.11 9.11 0 0 0-1.921-.087c-1.748.07-3.421.729-4.746 1.871a7.6 7.6 0 0 0-2.094 2.85c-.526 1.263-.71 2.643-.533 4a7.25 7.25 0 0 0 .595 2.106c.306.707.724 1.36 1.239 1.933a7.61 7.61 0 0 0 8.8 1.97 6.9 6.9 0 0 0 1.933-1.239 7.1 7.1 0 0 0 1.45-1.66 7.75 7.75 0 0 0 .951-6.163c-.56-2.097-1.975-3.862-3.9-4.865-.582-.31-1.199-.55-1.837-.716zm6.294-8.438a2.19 2.19 0 0 1 0-.272v-4.151l.062.074-7.149-1.561.124-.062-1.883 4v.074h-.087a17.86 17.86 0 0 0-4.659.83h-.087l-.062-.062-3.147-3.11h.037l-6.2 3.94.074-.211 1.487 4.163v.1l-.074.087a18.18 18.18 0 0 0-2.714 3.866v.1h-4.424l.186-.161-1.586 7.137-.112-.235 3.99 1.9.112.062v.121c.07 1.577.34 3.138.805 4.647v.124l-.1.1-3.117 3.129v-.273l3.915 6.2-.26-.1 4.163-1.487h.136l.1.087a17.51 17.51 0 0 0 3.841 2.714h0c.062.087-.112-.2.124.2h0v4.411l-.173-.223 7.137 1.611-.248.124 1.9-4 .062-.112h.136a17.56 17.56 0 0 0 4.634-.805h.136l3.222 3.222h-.273l6.2-3.9-.087.235-1.487-4.163v-.112l.087-.1a17.84 17.84 0 0 0 2.726-3.854v-.1h4.523l-.173.149 1.611-7.149.1.2-3.99-1.908h-.087v-.1a17.61 17.61 0 0 0-.793-4.659v-.149l3.135-3.135v.173l-3.891-6.2h.124l-4.176 1.45a19.45 19.45 0 0 0-2.837-2.181l-.768-.458-.248-.161.273.124.781.421a18.45 18.45 0 0 1 2.9 2.144h-.074l4.151-1.512h.074v.074l3.94 6.2v.087l-.074.087-3.11 3.135v-.149a17.77 17.77 0 0 1 .83 4.746l-.087-.136 4 1.883.124.062v.136l-1.586 7.137v.149h-4.572l.173-.1c-.746 1.431-1.68 2.756-2.776 3.94v-.2l1.487 4.163.062.161-.149.087-6.349 4.016-.124-.124-3.135-3.123h.223a17.99 17.99 0 0 1-4.758.83l.186-.124-1.974 4.151h-.174l-7.137-1.6h-.173v-4.758c.235.4 0 .112.124.2h0a17.97 17.97 0 0 1-3.94-2.776h.223l-4.336 1.536-.087-.149-3.915-6.2-.1-.149.124-.124 3.122-3.135v.223a18.39 18.39 0 0 1-.83-4.758l.124.173-3.953-1.834-.149-.074v-.161l1.611-7.137v-.161h4.733l-.161.1a17.94 17.94 0 0 1 2.789-3.928v.186l-1.475-4.176v-.136l.124-.074 6.312-3.962.1.087 3.122 3.135h-.149a17.88 17.88 0 0 1 4.733-.805l-.112.074 1.921-3.99v-.087h.087l7.125 1.648h.062v4.126a2.68 2.68 0 0 1-.178.345z"/><path d="M187.091 202.311a20.03 20.03 0 0 1 4.312 3.036l4.609-1.636 4.324 6.827-3.445 3.469a20.18 20.18 0 0 1 .9 5.2l4.411 2.094-1.772 7.856h-4.882a20.11 20.11 0 0 1-3.048 4.312l1.648 4.609-6.84 4.324-3.469-3.333a20.17 20.17 0 0 1-5.192.9l-2.094 4.411-7.893-1.772v-4.867a19.83 19.83 0 0 1-4.312-3.048l-4.609 1.648-4.337-6.84 3.457-3.457a20.37 20.37 0 0 1-.9-5.2l-4.411-2.094 1.76-7.893h4.87a19.72 19.72 0 0 1 3.036-4.312l-1.623-4.634 6.827-4.337 3.469 3.457a20.18 20.18 0 0 1 5.2-.9l2.099-4.42 7.893 1.772v4.882zm-6.964 9.293c-4.038-.904-8.151 1.17-9.826 4.954s-.444 8.223 2.94 10.604 7.978 2.041 10.974-.813 3.56-7.426 1.346-10.922c-1.232-1.945-3.187-3.321-5.434-3.824zm-21.584 37.227c.9.474 1.733 1.066 2.478 1.759l2.689-.954 2.478 3.977-2.007 2.02a11.72 11.72 0 0 1 .533 3.023l2.565 1.239-.9 4.585h-2.85a11.72 11.72 0 0 1-1.76 2.478l.954 2.676-3.99 2.478-2.007-2.007a11.9 11.9 0 0 1-3.036.52l-1.239 2.577-4.6-1.041v-2.837a11.35 11.35 0 0 1-2.478-1.772l-2.689.954-2.478-3.977 2.007-2.02a11.71 11.71 0 0 1-.52-3.023l-2.579-1.238 1.028-4.6h2.689a11.96 11.96 0 0 1 1.772-2.478l-.954-2.676 3.977-2.478 2.02 2.02a11.22 11.22 0 0 1 3.023-.533l1.239-2.565 4.6 1.028v2.85zm-4.052 5.4c-1.995-.452-4.066.343-5.246 2.014s-1.237 3.889-.143 5.618 3.121 2.629 5.137 2.279 3.622-1.88 4.068-3.877a5.06 5.06 0 0 0-3.816-6.034zm196.664 151.428c-50.789 0-91.959 1.875-91.959 4.193s41.17 4.195 91.959 4.195 91.959-1.877 91.959-4.195-41.172-4.193-91.959-4.193z" class="C"/></g><path d="M313.291 206.804a75.09 75.09 0 0 0-39.2 65.82l.046 55.143c.14 41.31 33.617 74.75 74.927 74.845h0c41.309-.14 74.749-33.616 74.845-74.925l-.046-55.143c-.14-41.31-33.617-74.75-74.927-74.845h0a74.5 74.5 0 0 0-15.1 1.546" fill="#f8c81e" stroke="#04072e" stroke-miterlimit="10" class="C I"/><path d="M342.322 272.308c.43-12.307 12.865-12.315 13.31-.006 3.108 35.56 57.037 39 63.136 5.606 1.13-6.187 2.68-17.141 10.348-18.345q0-4.253 0-8.507c-13.3-.289-25.873-4.365-39.037-4-17.668.51-23.679 8.328-41.105 9.574-17.427-1.225-23.446-9.037-41.116-9.526-13.165-.359-25.732 3.731-39.031 4.035q0 4.256 0 8.507c7.67 1.2 9.233 12.148 10.367 18.335 6.141 33.389 60.063 29.887 63.131-5.677zm18.454-.275c-.4-8.847.954-12.5 9.524-15.394 6.54-2.206 12.838-4.13 19.82-4.329 19.012-.549 27.131 4.159 23.383 24.654-5.015 27.437-49.977 24.316-52.727-4.931zm-23.585-.12c-2.729 29.384-47.689 32.555-52.733 5.12-3.769-20.489 4.343-25.206 23.356-24.679 6.986.193 13.284 2.108 19.826 4.31 8.572 2.888 9.929 6.535 9.551 15.25zm-12.031 46.42c.84.161 1.701-.139 2.26-.785a2.39 2.39 0 0 0 .45-2.35c-.281-.807-.971-1.404-1.81-1.565a10.72 10.72 0 0 0-11.267 5.164c-.663 1.144-.273 2.608.871 3.271s2.608.273 3.271-.871a5.93 5.93 0 0 1 .744-1.03 32 32 0 0 0 58.658-.031c.284.314.535.658.747 1.025a2.392 2.392 0 1 0 4.138-2.4 10.71 10.71 0 0 0-11.265-5.153 2.391 2.391 0 1 0 .883 4.7c.372-.067.748-.1 1.126-.1-4.32 9.934-14.119 16.361-24.951 16.367s-20.638-6.411-24.969-16.34a6.08 6.08 0 0 1 1.118.1z" class="C"/><path d="M312.423 257.156c-8.56.007-15.494 6.951-15.488 15.51s6.949 15.494 15.509 15.49 15.495-6.947 15.491-15.507a15.5 15.5 0 0 0-15.512-15.493zm73.093-.039a15.5 15.5 0 1 0 15.508 15.491c-.005-8.56-6.948-15.495-15.508-15.491z" fill="#fff" class="C"/><path d="M312.58 264.717c-2.534.006-4.914 1.22-6.407 3.267s-1.921 4.685-1.152 7.1a5.02 5.02 0 0 1 8.289 5.478 7.94 7.94 0 0 0 6.615-10.923l-.306.017c-.715 0-1.401-.285-1.906-.792s-.788-1.193-.787-1.908a2.61 2.61 0 0 1 .136-.86 7.9 7.9 0 0 0-4.482-1.384z" class="C"/><path d="M385.369 264.677c-4.385.004-7.936 3.56-7.934 7.945a7.86 7.86 0 0 0 .2 1.76 5.02 5.02 0 0 1 7.55 6.17h.2a7.94 7.94 0 0 0 7.242-11.177 2.7 2.7 0 0 1-3.809-2.456 2.73 2.73 0 0 1 .329-1.294 7.91 7.91 0 0 0-3.773-.95z" fill="#313131" class="C"/><path d="M277.486 190.109c3.644 3.136 7.69 5.773 12.03 7.84-14.152-11.465-12.359-19.629-7.481-41.676l1.405-6.476 1.177-5.623 2.714 5.1c.106.145.2.299.281.459 1.185 1.69 7.284 8.658 29.3 11.109l33.286 3.962c8.821 1.177 14.6 2.162 15.8 2.982 3.541 3.013 6.899 6.236 10.054 9.652a8.96 8.96 0 0 0-.409-2.842c-.785-2.775-2.76-6.514-6.6-12.045l-2.561-3.687 4.635.751c7.4 1.16 12.712 3.368 16.7 6.344a29.3 29.3 0 0 1 8.752 10.807c1.178 2.321 2.172 4.731 2.97 7.208.629-2.334 1.097-4.709 1.4-7.108l.573-4.606 3.2 3.593a63.9 63.9 0 0 1 10.1 14.451c2.564 5.255 3.811 11.055 3.635 16.9l-.006.1-.009.1c-.442 3.188 4.792 13.714 5.187 25.646.466 14.075-4.4 31.665-4.4 31.665l-15.675-33.737c0-.048-5.715-1.552-7.093-4.178-2.33-3.741-5.304-7.041-8.784-9.746-2.634-2.047-5.621-3.637-8.609-3.872-8.807-.69-21.258.709-30.3 1.745h-.052l-.428.063-.411-.13-14.939-3.882c-4.856-1.217-9.796-2.074-14.778-2.563-2.989-.233-6.187.872-9.109 2.483a36.49 36.49 0 0 0-10.193 8.259c-1.77 2.38-21.363 24.1-21.363 24.1s4.209-7.376 2.993-9.36c-6.562-10.491-5.854-21.29-6.577-42.366l-.153-4.759z"/><g transform="matrix(-1 0 0 -1 245.107 400.16)"><path d="M176.387 67.608c0-1.386 1.029-2.51 5.109-2.51s9.669 1.124 9.669 2.51-5.588 2.51-9.669 2.51-5.109-1.12-5.109-2.51z" fill="#e5f2f8"/><path d="M245.1,3.572C245.1,1.6,190.236,0,122.552,0S0,1.6,0,3.572,54.868,7.144,122.552,7.144,245.1,5.545,245.1,3.572Z" class="J"/><path d="M232.766 24.978c0-11.823-7.582-21.406-16.935-21.406h-10.889v42.811h10.889c9.353 0 16.935-9.583 16.935-21.405z"/><use xlink:href="#E"/><ellipse cx="80.581" cy="24.978" rx="16.934" ry="21.406"/><ellipse cx="204.943" cy="24.978" rx="16.934" ry="21.406"/><path d="M11.422 15.793h166.746v34.842H11.422z"/><path d="M182.114 24.978c0-11.823-7.582-21.406-16.935-21.406H154.29v42.811h10.889c9.353 0 16.935-9.583 16.935-21.405z"/><path d="M245.106 40.697c-.24 2.561-5.988 12.924-20.91 19.1-15.25 6.316-38.205 6.478-38.205 6.478s-18.709 26.838-34.431 26.838H94.961c-7.835-10.04 51.752-39.674 59.769-39.674 2.31 0 21.987-2.79 21.987-37.847h62.612c2.162 0 5.777 25.105 5.777 25.105z" fill="#ffdb72"/><use xlink:href="#E" x="-50.653"/><path d="M188.507 40.681v.011c0 2.267-5.66 12.793-20.911 19.108s-38.2 6.478-38.2 6.478-18.71 26.835-34.431 26.835c-42.607 0-72.5-21.7-72.5-21.7-6.665-.721-11.948-.937-15.249-3.627-2.632-2.144-4.071-13.712-4.071-22.418C3.145 43.135 0 41.126 0 39.484c0-11.233 4.282-21.707 11.422-23.692v9.186c0 12.746 8.3 23.117 18.507 23.117s18.505-10.37 18.505-23.117v-6.471c-.023-1.586 1.244-2.891 2.83-2.915h81.689c1.586.024 2.853 1.329 2.83 2.915v6.471c0 12.746 8.3 23.117 18.506 23.117S172.8 37.725 172.8 24.978v-6.471c-.023-1.585 1.241-2.889 2.826-2.915h7.1c2.165 0 5.774 24.021 5.781 25.089z" class="D"/><path d="M54.712 72.079c-4.875 2.773-4.21 10.2 1.11 11.894a129.23 129.23 0 0 0 39.139 6.225c9.212 0 23.133-13.136 29.257-24.5.239-.437.232-.967-.018-1.398s-.706-.701-1.204-.712c-41.711-.085-59.557 3.526-68.284 8.491z" class="J"/><ellipse cx="29.929" cy="24.978" rx="16.934" ry="21.406" fill="#232932"/><use xlink:href="#F" fill="#a6a6a6"/><use xlink:href="#G" class="E"/><g class="F"><path d="M30.01 10.472h3.464v14.506H30.01z"/><path d="M19.811 22.859l11.395 3.814 1.07-3.392-11.395-3.814z"/><use xlink:href="#H"/><path d="M30.34 26.026l6.523 9.246 2.803-2.097-6.523-9.246z"/><path d="M31.207 23.282l1.07 3.392 9.142-3.06-1.07-3.392z"/></g><path d="M30.37 27.935c-1.285 0-2.33-1.322-2.33-2.947s1.045-2.946 2.33-2.946 2.331 1.322 2.331 2.946-1.045 2.947-2.331 2.947z" fill="#99a7be"/><path d="M21.396 24.979c0-7.119 4.271-12.995 9.744-13.76a8.68 8.68 0 0 0-1.211-.09c-6.041 0-10.955 6.213-10.955 13.85s4.914 13.85 10.955 13.85a8.78 8.78 0 0 0 1.211-.089c-5.473-.768-9.744-6.644-9.744-13.761z" class="F"/><g class="G"><path d="M28.638 10.472h3.464v14.506h-3.464z"/><path d="M18.439 22.859l11.395 3.814 1.07-3.392-11.395-3.814z"/><use xlink:href="#H" x="-1.373"/><path d="M28.968 26.026l7.316 10.369 2.803-2.097-7.316-10.369z"/><path d="M29.835 23.284l1.07 3.393 10.514-3.521-1.07-3.393z"/></g><path d="M42.375 24.977c0 8.689-5.573 15.732-12.446 15.732s-12.446-7.043-12.446-15.732S23.055 9.245 29.929 9.245s12.446 7.044 12.446 15.732zm-1.153 0c0-7.873-5.066-14.277-11.293-14.277s-11.293 6.405-11.293 14.278 5.066 14.275 11.293 14.275 11.293-6.408 11.293-14.275z" class="E"/><path d="M42.003 24.978c0 8.428-5.406 15.262-12.073 15.262s-12.074-6.834-12.074-15.262S23.261 9.717 29.929 9.717s12.074 6.833 12.074 15.261zm-1.119 0c0-7.637-4.914-13.85-10.955-13.85s-10.955 6.214-10.955 13.851 4.914 13.847 10.955 13.847 10.955-6.209 10.955-13.847z" class="G"/><use xlink:href="#I" fill="#505b6e"/><ellipse cx="154.29" cy="24.978" rx="16.934" ry="21.406" fill="#232932"/><use xlink:href="#F" x="124.361" fill="#a6a6a6"/><use xlink:href="#G" x="124.361" class="E"/><g class="F"><path d="M154.371 10.472h3.464v14.506h-3.464z"/><path d="M144.172 22.859l11.396 3.814 1.07-3.392-11.396-3.814z"/><use xlink:href="#H" x="124.361"/><path d="M154.701 26.027l6.525 9.246 2.803-2.098-6.525-9.246z"/><path d="M155.568 23.282l1.07 3.392 9.142-3.06-1.07-3.392z"/></g><path d="M154.731 27.935c-1.285 0-2.33-1.322-2.33-2.947s1.045-2.946 2.33-2.946 2.331 1.322 2.331 2.946-1.046 2.947-2.331 2.947z" fill="#99a7be"/><path d="M145.757 24.979c0-7.119 4.271-12.995 9.744-13.76a8.68 8.68 0 0 0-1.211-.09c-6.041 0-10.955 6.213-10.955 13.85s4.914 13.85 10.955 13.85c.405-.002.81-.031 1.211-.089-5.473-.768-9.744-6.644-9.744-13.761z" class="F"/><g class="G"><path d="M152.999 10.472h3.464v14.506h-3.464z"/><path d="M142.8 22.859l11.395 3.814 1.07-3.392-11.395-3.814z"/><use xlink:href="#H" x="122.988"/><path d="M153.329 26.027l7.318 10.369 2.803-2.098-7.318-10.369z"/><path d="M154.196 23.284l1.07 3.393 10.514-3.521-1.07-3.393z"/></g><path d="M166.736 24.977c0 8.689-5.573 15.732-12.446 15.732s-12.446-7.043-12.446-15.732 5.572-15.732 12.446-15.732 12.446 7.044 12.446 15.732zm-1.153 0c0-7.873-5.066-14.277-11.293-14.277s-11.293 6.405-11.293 14.278 5.066 14.275 11.293 14.275 11.293-6.408 11.293-14.275z" class="E"/><path d="M166.364 24.978c0 8.428-5.405 15.262-12.074 15.262s-12.073-6.834-12.073-15.262 5.405-15.261 12.073-15.261 12.074 6.833 12.074 15.261zm-1.119 0c0-7.637-4.914-13.85-10.955-13.85s-10.955 6.214-10.955 13.851 4.914 13.847 10.955 13.847 10.955-6.209 10.955-13.847z" class="G"/><use xlink:href="#I" x="124.361" fill="#505b6e"/><path d="M178.168 40.683V15.592h61.161c2.148 0 5.73 24.782 5.775 25.091z" class="D"/><path d="M188.507 40.681v.011l-20.679.025a26.4 26.4 0 0 0 4.968-15.739v-6.472a2.87 2.87 0 0 1 2.833-2.914h7.1c2.163 0 5.776 24.021 5.778 25.089zM0 39.484c0-11.233 4.282-21.708 11.422-23.69v9.184c0 7.919 3.206 14.918 8.08 19.086-6.036.388-11.549.821-16.358 1.3C3.145 43.135 0 41.125 0 39.484zm48.434-14.506v-6.471c-.023-1.586 1.244-2.891 2.83-2.915h81.69c1.586.024 2.852 1.329 2.829 2.915v6.471a26.35 26.35 0 0 0 5.071 15.872l-99.271 2.068c4.524-4.865 6.98-11.298 6.851-17.94z" fill="#fcd461"/><path d="M181.33 51.191c5.08-4.682 7.178-9.12 7.178-10.5l13.993.019c-2.516 8.907-14.779 10.481-21.171 10.481zm57.133-.555c-3.781-1.002-6.91-3.626-7.366-9.926h14.007c-.148 1.49-2.131 5.562-6.641 9.926z" fill="#fefdfe"/><path d="M226.478 49.351c-4.403 4.546-9.72 8.108-15.6 10.449-15.25 6.316-38.2 6.478-38.2 6.478h-22.555s22.954-.162 38.2-6.478a44.77 44.77 0 0 0 15.6-10.449c3.738-3.965 26.287-3.965 22.555 0z" fill="#fcd461"/><path d="M226.477 49.35c-4.403 4.546-9.72 8.108-15.6 10.449-15.249 6.316-38.206 6.479-38.206 6.479h-1.843s22.954-.162 38.2-6.478c5.88-2.341 11.197-5.903 15.6-10.449 1.77-1.873-2.34-2.862-7.558-2.964 6.035-.114 11.375.872 9.407 2.963z" class="D"/><path d="M158.556 90.197h-50.939c12.76-6.943 24.606-23.92 24.606-23.92h51.883s-12.789 16.977-25.55 23.92z" fill="#7899cb"/><path d="M81.993 24.603h33.92c10.848 0-8.332 9.3-36.161 9.3-16.512 0-16.626-9.3 2.241-9.3z" class="D"/><path d="M3.781 55.416h-.075l-.545-8.441h.62a4 4 0 0 1 3.936 4.055v.333a4 4 0 0 1-3.936 4.053z" fill="#ff636d"/><path d="M176.882 17.942c-.512 0-1.003.206-1.362.572s-.557.859-.55 1.371v5.093c0 14.148-9.213 25.658-20.54 25.658s-20.541-11.51-20.541-25.658v-5.1a1.92 1.92 0 0 0-1.9-1.945c-28.3.138-55.752.678-79.9 2.156a1.9 1.9 0 0 0-1.744 2.1c1.309 15.394-8.358 28.451-20.421 28.451-10.8 0-19.674-10.458-20.481-23.689a1.89 1.89 0 0 0-2.102-1.813c-2.2.323-4.5 1.108-5.5 2.12 1.9-5.825 5.2-10.247 9.581-11.466v9.186c0 12.746 8.3 23.117 18.507 23.117s18.505-10.37 18.505-23.117v-6.471a2.9 2.9 0 0 1 2.035-2.784v.057c.245-.133.521-.198.8-.188h81.689a1.67 1.67 0 0 1 .936.233v-.057a2.9 2.9 0 0 1 1.895 2.739v6.471c0 12.746 8.3 23.117 18.507 23.117s18.506-10.371 18.506-23.117v-6.471c-.013-1.329.881-2.496 2.168-2.829v.032a1.64 1.64 0 0 1 .656-.118h7.1c.427 0 .911.949 1.413 2.463-2.736-.001-4.786-.074-7.257-.113z" fill="#ffdb72"/><path d="M121.613 69.962c-6.889 10.147-18.574 20.235-26.652 20.235a127.7 127.7 0 0 1-33.122-4.46c11.519-8.313 36.014-14.185 59.774-15.775z" class="J"/><path d="M132.059 90.197c11.143-8.674 27.584-13.473 43.946-14.445-4.78 5.086-11.116 11-17.446 14.445z" fill="#7899cb"/><g fill="#242a33"><path d="M158.556 90.197h-2.119c12.76-6.943 25.55-23.92 25.55-23.92h2.119s-12.789 16.977-25.55 23.92zM56.752 72.079c-4.874 2.773-4.209 10.199 1.111 11.895a129.63 129.63 0 0 0 37.523 6.206c-.141.006-.286.018-.425.018a129.23 129.23 0 0 1-39.142-6.224c-5.32-1.696-5.985-9.122-1.107-11.895 8.727-4.965 26.573-8.576 68.284-8.491h.01c-40.248.037-57.668 3.608-66.254 8.491z"/><path d="M62.121 69.227l4.192 17.469.459-.114-4.192-17.469zm62.098-3.534l-2.557 4.195c-.387-2.467-1.668-4.706-3.6-6.289l4.934-.011c.497.011.952.28 1.201.71a1.43 1.43 0 0 1 .022 1.395zm-7.482-5.129c-.314.001-.607.16-.779.423l-3.129 4.707a.99.99 0 0 0 .245 1.351c.206.146.462.201.71.153s.465-.194.602-.406l3.128-4.708a.99.99 0 0 0-.25-1.35.92.92 0 0 0-.527-.17z"/></g><path d="M115.793 67.608c0-1.386-1.028-2.51-5.11-2.51s-9.668 1.124-9.668 2.51 5.588 2.51 9.668 2.51 5.11-1.12 5.11-2.51z" fill="#95bcf0"/><path d="M115.109 69.143c-.7.595-2.042.98-4.426.98-4.08-.005-9.668-1.129-9.668-2.515 0-.308.288-.602.763-.875 2.031-.313 4.082-.477 6.137-.49 5.123 0 6.858 1.247 7.194 2.9z" fill="#cbddf5"/><path d="M74.001 57.455c-.038 0-.076.003-.114.007l-9.556 1.183c-.524.073-.892.556-.823 1.081.024.252.149.484.346.644s.45.233.702.205l9.559-1.183c.525-.073.892-.556.824-1.081-.049-.482-.453-.851-.938-.856z" fill="#242a33"/></g><defs ><path id="B" d="M436.95 41.591c-.007.9-.649 1.669-1.532 1.838s-1.764-.309-2.103-1.142-.043-1.79.708-2.286 1.747-.393 2.38.246a1.9 1.9 0 0 1 .547 1.344z"/><path id="C" d="M625.016 94.741c0 .228-24.59.423-54.905.423s-54.906-.2-54.906-.423 24.59-.423 54.906-.423l54.905.423z"/><path id="D" d="M56.82 97.962a1.53 1.53 0 0 1-2.61 1.081 1.53 1.53 0 0 1 1.081-2.61 1.53 1.53 0 0 1 1.529 1.529z"/><path id="E" d="M108.405 24.978c0-11.823-7.582-21.406-16.934-21.406h-10.89v42.811h10.89c9.352 0 16.934-9.583 16.934-21.405z"/><path id="F" d="M29.929 38.829c-6.041 0-10.955-6.215-10.955-13.85s4.914-13.85 10.955-13.85 10.955 6.213 10.955 13.85-4.91 13.85-10.955 13.85z"/><path id="G" d="M32.375 27.934h-2.007c-1.077-.256-1.693-1.508-1.693-2.946 0-1.346 1.7-2.946 1.7-2.946h2c1.287 0 2.333 1.322 2.333 2.946s-1.046 2.946-2.333 2.946z"/><path id="H" d="M22.583 34.925l2.803 2.098 7.759-10.996-2.803-2.098z"/><path id="I" d="M30.37 26.906c-.941-.124-1.612-.974-1.516-1.918-.096-.944.575-1.793 1.516-1.917.941.123 1.613.973 1.517 1.917.096.944-.576 1.794-1.517 1.918z"/></defs></svg>