<svg width="202" height="166" viewBox="0 0 202 166" fill="none" xmlns="http://www.w3.org/2000/svg">
    <ellipse rx="40.767" ry="11.666" transform="matrix(.99956 .0296 -.45704 .88945 102.16 153.538)" fill="#F5F5F5"/>
    <path d="M32.065 56.726a.96.96 0 0 1-1.152.939.964.964 0 0 1-.756-.755.958.958 0 0 1 .41-.986.966.966 0 0 1 1.498.802z" fill="#F5F5F5"/>
    <path d="M171.737 121.861a1.36 1.36 0 0 1 .873-1.24 1.37 1.37 0 0 1 1.841 1.036 1.365 1.365 0 0 1-1.376 1.599 1.365 1.365 0 0 1-.961-.419 1.355 1.355 0 0 1-.377-.976zM173.582 125.84a.804.804 0 0 1 1.594-.121.804.804 0 1 1-1.594.121zM100.3 78.173c-.522-.181-2.382.489-1.619 1.036.517.373 1.742-.107 2.374.04.631.147 1.415-.088 2.034.163.457.186.706.608 1.214.733.619.155.945-.096.37-.573-.404-.337-.966-.427-1.437-.646-.356-.163-.677-.483-1.033-.58-.474-.13-1.531.302-1.903-.173zM106.798 80.951c-.458.289-.894.433-1.047 1.02-.179.688.107.56.573.293.294-.17.701-.459 1.07-.44.37.019.656.283 1.004.344a2.115 2.115 0 0 0 1.769-.403c.382-.333.412-.766-.185-.862-.452-.072-1.177.15-1.648.198-.471.048-1.282.077-1.536-.15zM109.294 144.344l.15.266c.168.304.419.552.725.716l.268.146-.268.15a1.765 1.765 0 0 0-.725.715l-.15.267-.15-.267a1.77 1.77 0 0 0-.722-.715l-.268-.15.268-.146c.304-.165.555-.413.722-.716l.15-.266zM55.458 133.756l.15.267a1.8 1.8 0 0 0 .725.715l.268.149-.268.147a1.795 1.795 0 0 0-.725.716l-.15.266-.147-.266a1.826 1.826 0 0 0-.725-.716l-.268-.147.268-.149a1.83 1.83 0 0 0 .725-.715l.147-.267zM63.535 50.953l.147.266c.169.303.42.551.726.716l.267.15-.267.146a1.832 1.832 0 0 0-.726.715l-.147.267-.15-.267a1.797 1.797 0 0 0-.725-.715l-.267-.147.267-.15a1.78 1.78 0 0 0 .725-.715l.15-.266zM176.998 96.22l.268.465c.285.522.715.951 1.239 1.236l.465.253-.465.267a3.085 3.085 0 0 0-1.239 1.233l-.268.467-.254-.467a3.118 3.118 0 0 0-1.239-1.233l-.466-.267.466-.253a3.113 3.113 0 0 0 1.239-1.236l.254-.465zM149.022 49.821l.147.267c.169.302.42.55.725.715l.268.147-.268.15a1.828 1.828 0 0 0-.725.715l-.147.267-.15-.267a1.835 1.835 0 0 0-.725-.715l-.268-.15.268-.147c.304-.165.556-.413.725-.715l.15-.267zM120.616 37.563l.147.267c.169.302.42.55.725.715l.268.147-.268.15a1.828 1.828 0 0 0-.725.714l-.147.267-.15-.267a1.817 1.817 0 0 0-.734-.712l-.267-.15.267-.146c.306-.165.557-.413.726-.716l.158-.27zM29.142 110.985l.268.464c.285.522.715.951 1.239 1.236l.465.267-.465.253a3.109 3.109 0 0 0-1.24 1.236l-.267.464-.267-.464a3.11 3.11 0 0 0-1.24-1.236l-.465-.253.466-.267a3.102 3.102 0 0 0 1.239-1.236l.267-.464z" fill="#EBEBEB"/>
    <path d="m156.478 125.053.474.862a5.745 5.745 0 0 0 2.272 2.266l.848.456-.848.474a5.624 5.624 0 0 0-2.272 2.265l-.474.863-.458-.863a5.748 5.748 0 0 0-2.255-2.232l-.865-.473.865-.456a5.85 5.85 0 0 0 2.272-2.266l.441-.896z" fill="#D7D7D7"/>
    <path d="M128.493 25.99c7.406 8.97-.561 20.285 9.861 34.596 10.57 14.483 25.962 12.807 27.752 23.039 1.602 9.174-9.006 20.187-18.704 24.905-11.801 5.738-18.267.193-27.573 6.681-9.346 6.53-6.436 14.666-14.043 19.718-13.466 8.961-44.351-2.078-49.302-19.201-3.94-13.581 11.192-21.52 7.513-35.927-4.722-18.5-32.94-18.446-33.6-28.893-1.143-17.864 79.84-47.06 98.096-24.919z" fill="#FCFCFC"/>
    <path d="m166.291 63.825-10.594 21.373 3.163.12-8.978 16.981h4.714l-7.354 15.089h41.117l-9.054-15.089 4.339-.188-8.678-16.973 3.206-.188-11.881-21.125z" fill="#F0F0F0"/>
    <path d="M168.084 88.624c.06 0-.025 12.906-.188 28.825a4263.903 4263.903 0 0 1-.426 30.554c-.018-3.404.042-14.636.208-30.554.165-15.919.343-28.825.406-28.825zM173.123 94.11c.047.038-1.003 1.49-2.359 3.242s-2.486 3.14-2.527 3.103c-.04-.038 1.003-1.487 2.359-3.239 1.356-1.752 2.479-3.143 2.527-3.105z" fill="#E0E0E0"/>
    <path d="M167.985 100.001c-.037.048-1.083-.702-2.331-1.677-1.248-.975-2.233-1.802-2.198-1.852.035-.05 1.083.704 2.334 1.68 1.25.974 2.23 1.801 2.195 1.849zM167.701 110.486a5.04 5.04 0 0 1-.779-.609c-.466-.394-1.108-.935-1.827-1.524-.72-.589-1.384-1.106-1.863-1.482a4.997 4.997 0 0 1-.752-.641c.302.137.586.31.845.516a31.65 31.65 0 0 1 1.908 1.436 30.227 30.227 0 0 1 1.794 1.579c.254.213.48.456.674.725zM173.13 104.004c.046.04-1.11 1.559-2.586 3.394-1.477 1.835-2.71 3.291-2.757 3.258-.048-.032 1.11-1.556 2.586-3.391 1.477-1.835 2.71-3.298 2.757-3.261z" fill="#E0E0E0"/>
    <path d="m45.949 63.825-9.653 19.473 2.883.108L31 98.88h4.294l-6.7 13.745h37.46l-8.25-13.745 3.953-.173-7.903-15.465 2.92-.173L45.95 63.825z" fill="#F0F0F0"/>
    <path d="M47.58 86.413c.056 0-.02 11.756-.167 26.256-.148 14.5-.316 30.94-.371 30.937-.056-.002.02-16.435.17-30.94.15-14.505.313-26.253.368-26.253zM52.171 91.419c.043.033-.92 1.356-2.15 2.95-1.231 1.594-2.256 2.865-2.306 2.83-.05-.035.917-1.353 2.148-2.95 1.23-1.597 2.263-2.868 2.308-2.83z" fill="#E0E0E0"/>
    <path d="M47.49 96.785c-.035.043-.985-.641-2.123-1.529-1.138-.887-2.035-1.641-2.005-1.686.03-.046.985.641 2.126 1.528 1.14.888 2.035 1.645 2.002 1.687zM47.234 106.337a4.317 4.317 0 0 1-.711-.556c-.424-.356-1.003-.852-1.667-1.386a246.64 246.64 0 0 0-1.695-1.351 4.49 4.49 0 0 1-.686-.584c.275.124.535.281.772.469a27.71 27.71 0 0 1 1.737 1.311c.659.536 1.23 1.05 1.634 1.436.23.195.438.417.616.661zM52.187 100.432c.043.035-1.002 1.419-2.353 3.091-1.351 1.672-2.47 3.008-2.507 2.965-.037-.043 1.003-1.416 2.354-3.091 1.35-1.674 2.454-2.992 2.506-2.965z" fill="#E0E0E0"/>
    <path d="m29.328 89.88-7.434 14.999 2.22.085-6.3 11.916h3.308l-5.161 10.59h27.195l-4.694-10.59 3.042-.133-6.088-11.911 2.251-.133-8.339-14.823z" fill="#E7E7E7"/>
    <path d="M30.585 107.277c.043 0-.017 9.056-.13 20.223-.113 11.166-.25 20.224-.286 20.224-.035 0 .015-9.053.13-20.224.116-11.172.244-20.223.286-20.223zM34.122 111.135a26.411 26.411 0 0 1-1.656 2.271 26.19 26.19 0 0 1-1.777 2.181c-.033-.028.706-1.046 1.654-2.274.947-1.228 1.744-2.205 1.78-2.178z" fill="#E0E0E0"/>
    <path d="M30.516 115.268c-.027.033-.752-.501-1.637-1.178a13.608 13.608 0 0 1-1.541-1.298c.027-.035.752.501 1.637 1.175.884.674 1.566 1.266 1.541 1.301zM30.319 122.625a3.435 3.435 0 0 1-.547-.429c-.328-.276-.78-.657-1.283-1.068-.504-.411-.97-.777-1.306-1.04a3.413 3.413 0 0 1-.529-.451c.212.097.412.219.594.363.354.251.83.594 1.339 1.003.509.409.947.81 1.253 1.108.18.15.341.323.479.514zM34.124 118.075c.035.028-.777 1.093-1.812 2.382-1.035 1.288-1.902 2.311-1.935 2.283a29.846 29.846 0 0 1 1.815-2.379c1.035-1.288 1.9-2.311 1.932-2.286z" fill="#E0E0E0"/>
    <path d="M95.66 86.955h18.047s-1.597-2.903-6.241-2.482c-4.437.404-4.662-1.428-6.918-1.654-2.256-.225-4.136 1.504-4.888 4.136z" fill="#F5F5F5"/>
    <path d="M114.443 70.059h18.047s-1.599-2.905-6.241-2.49c-4.437.404-4.662-1.428-6.918-1.654-2.256-.225-4.136 1.512-4.888 4.144z" fill="#FAFAFA"/>
    <ellipse cx="103.305" cy="61.43" rx="6.143" ry="6.487" fill="#F7C71E"/>
    <path d="M112.329 124.752c0 1.11-.212 2.194-.582 3.171-1.294 3.382-4.544 5.787-8.402 5.787-3.831 0-7.108-2.405-8.402-5.787a9.004 9.004 0 0 1-.582-3.171h17.968z" fill="#F7C71E"/>
    <path opacity=".1" d="M112.329 125.465c0 1.11-.212 2.193-.582 3.171H94.943a9.008 9.008 0 0 1-.582-3.171h17.968z" fill="#000"/>
    <path d="M136.69 110.695c-5.179-4.466-7.742-10.86-9.036-24.97-1.427-15.72-11.6-24.361-24.309-24.361-12.71 0-22.961 8.984-24.361 24.361-1.295 14.11-3.858 20.504-9.037 24.97-2.457 2.114-3.118 4.254-2.8 8.085.686 4.069 2.51 6.315 5.416 6.685h61.485c2.906-.37 4.73-2.616 5.417-6.685.317-3.831-.318-5.971-2.775-8.085z" fill="#F7C71E"/>
    <path opacity=".07" d="M138.566 118.701c.291-3.699-.37-5.602-2.589-7.478-5.496-4.729-8.006-11.626-9.248-25.418-1.321-14.427-10.596-23.728-23.622-23.728-.555 0-1.11.027-1.638.053 9.3 3.25 15.351 11.811 16.408 23.57 1.216 13.395 3.594 20.054 8.799 24.519 2.563 2.22 3.382 4.466 3.038 8.667v.053c-.449 2.721-1.4 4.676-2.827 5.892h6.923c2.536-.396 4.095-2.378 4.756-6.13z" fill="#000"/>
    <path opacity=".64" d="M76.79 118.701c-.29-3.699.37-5.602 2.59-7.478 5.495-4.729 8.005-11.626 9.247-25.418 1.083-11.943 6.05-20.848 15.695-23.384-13.053 0-20.504 8.957-21.825 23.384-1.242 13.792-3.752 20.689-9.248 25.418-2.22 1.903-2.853 3.779-2.59 7.478.635 3.752 2.22 5.733 4.783 6.077h6.104c-2.563-.344-4.122-2.352-4.756-6.077z" fill="#fff"/>
    <path d="M123.559 85.903c7.792 0 14.109-6.317 14.109-14.11 0-7.792-6.317-14.11-14.109-14.11-7.793 0-14.11 6.318-14.11 14.11 0 7.793 6.317 14.11 14.11 14.11z" fill="#09B8DF"/>
    <path d="M123.559 85.903c7.792 0 14.109-6.317 14.109-14.11 0-7.792-6.317-14.11-14.109-14.11-7.793 0-14.11 6.318-14.11 14.11 0 7.793 6.317 14.11 14.11 14.11z" stroke="#000"/>
    <path d="M121.1 121.138h-16.778a.6.6 0 0 1-.615-.614c0-.351.264-.615.615-.615H121.1c.351 0 .615.264.615.615a.616.616 0 0 1-.615.614zM125.963 121.138h-.952a.6.6 0 0 1-.614-.614.6.6 0 0 1 .614-.615h.952a.6.6 0 0 1 .614.615.6.6 0 0 1-.614.614z" fill="#000" stroke="#F7C71E" stroke-width=".356"/>
    <path d="M132.251 121.138h-2.536a.6.6 0 0 1-.615-.614c0-.351.264-.615.615-.615h2.536c.351 0 .615.264.615.615a.617.617 0 0 1-.615.614z" fill="#000" stroke="#E6B91C" stroke-width=".356"/>
    <path d="M127.521 43.693v8.43M152.703 69.206h-8.43M144.273 52.123l-6.12 5.798" stroke="#455A64" stroke-width="1.782" stroke-linecap="round"/>
    <path d="m68.559 73.113.686 1.192a8.035 8.035 0 0 0 3.179 3.17l1.195.685-1.195.65a8.035 8.035 0 0 0-3.179 3.17l-.686 1.192-.653-1.192a8.036 8.036 0 0 0-3.178-3.17l-1.195-.65 1.195-.685a8.035 8.035 0 0 0 3.178-3.17l.653-1.192zM90.599 31.462l.686 1.192a7.946 7.946 0 0 0 3.18 3.17l1.194.684-1.195.685a7.946 7.946 0 0 0-3.178 3.17l-.687 1.192-.687-1.191a7.946 7.946 0 0 0-3.178-3.17l-1.195-.686 1.195-.684a7.946 7.946 0 0 0 3.178-3.17l.687-1.192z" fill="#455A64"/>
    <path d="m54.589 143.328.458.863a5.84 5.84 0 0 0 2.275 2.269l.866.457-.866.474a5.757 5.757 0 0 0-2.275 2.269l-.458.847-.476-.847a5.757 5.757 0 0 0-2.274-2.269l-.866-.474.866-.457a5.84 5.84 0 0 0 2.274-2.269l.476-.863zM61.686 55.762l.958 1.737a11.776 11.776 0 0 0 4.668 4.655l1.742.956-1.742.955a11.724 11.724 0 0 0-4.668 4.673l-.958 1.737-.958-1.737a11.724 11.724 0 0 0-4.668-4.673l-1.742-.955 1.742-.956a11.776 11.776 0 0 0 4.668-4.655l.958-1.737z" fill="#D7D7D7"/>
</svg>
