<svg xmlns="http://www.w3.org/2000/svg" width="109" height="109"  xmlns:v="https://vecta.io/nano"><defs><clipPath id="A"><path fill="#fff" stroke="#707070" d="M0 0H56V109H0z" transform="translate(18 3.789)"/></clipPath></defs><g fill="#21283a" stroke="#fff"><circle cx="56.5" cy="54.5" r="52.5" stroke="none"/><circle cx="56.5" cy="54.5" r="51" fill="none" stroke-dasharray="6" stroke-width="3"/></g><g clip-path="url(#A)" transform="translate(-18 -3.789)"><g fill="#21283a" stroke="#fff"><circle cx="74.5" cy="58.289" r="52.5" stroke="none"/><circle cx="74.5" cy="58.289" r="51" fill="none" stroke-width="3"/></g></g><path fill="#ffc727" d="M55.614 36.692a1 1 0 0 1 1.772 0l5.444 10.4a1 1 0 0 0 .718.522l11.569 1.966a1 1 0 0 1 .548 1.685l-8.2 8.392a1 1 0 0 0-.274.844l1.706 11.613a1 1 0 0 1-1.433 1.041l-10.52-5.214a1 1 0 0 0-.888 0l-10.515 5.211a1 1 0 0 1-1.433-1.041L45.814 60.5a1 1 0 0 0-.274-.844l-8.2-8.392a1 1 0 0 1 .548-1.685l11.569-1.966a1 1 0 0 0 .718-.522z"/></svg>