<svg xmlns="http://www.w3.org/2000/svg" xmlns:xlink="http://www.w3.org/1999/xlink" width="642.473" height="400.966" xmlns:v="https://vecta.io/nano"><style><![CDATA[.L{fill:#acc7ea}.M{fill:#263238}.N{fill:#e0e0e0}.O{fill:#cc9f1f}.P{fill-rule:evenodd}.Q{fill:#ffc727}]]></style><path d="M549.496 8.735a37.88 37.88 0 0 1 9.729 2.569l7.15-5.993 12.283 9.349-3.87 8.489a37.8 37.8 0 0 1 5.07 8.693l9.291.818 2.074 15.3-8.735 3.265a37.75 37.75 0 0 1-2.571 9.73l5.993 7.151-9.348 12.282-8.489-3.869c-2.661 2.069-5.587 3.774-8.7 5.068l-.817 9.29-15.3 2.076-3.26-8.74c-3.343-.419-6.616-1.283-9.73-2.57l-7.152 5.993-12.282-9.348 3.871-8.49a37.9 37.9 0 0 1-5.069-8.693l-9.289-.819-2.075-15.3 8.735-3.264a37.73 37.73 0 0 1 2.57-9.731l-5.992-7.148 9.347-12.282 8.49 3.871a37.8 37.8 0 0 1 8.694-5.07l.818-9.288 15.295-2.075 3.266 8.735zm-4.59 21.092a16.56 16.56 0 1 0 16.633 12.667 16.57 16.57 0 0 0-16.633-12.667zM85.686 221.281c2.79 1.454 5.374 3.274 7.683 5.412l8.21-2.923 7.716 12.18-6.149 6.176a35.33 35.33 0 0 1 1.613 9.261l7.87 3.737-3.157 14.069-8.711.019a35.28 35.28 0 0 1-5.414 7.684l2.923 8.211-12.178 7.716-6.177-6.149a35.29 35.29 0 0 1-9.261 1.611l-3.736 7.871L52.847 293l-.018-8.712a35.27 35.27 0 0 1-7.683-5.413l-8.212 2.923-7.714-12.18 6.151-6.176c-.947-3.001-1.49-6.115-1.613-9.26l-7.869-3.737 3.156-14.069 8.711-.019a35.26 35.26 0 0 1 5.414-7.685l-2.923-8.211 12.178-7.716 6.177 6.15a35.36 35.36 0 0 1 9.261-1.612l3.736-7.869 14.068 3.156.021 8.711zm-12.4 16.555a15.47 15.47 0 0 0-18.479 11.707 15.47 15.47 0 1 0 28.158-4.893 15.47 15.47 0 0 0-9.683-6.814z" class="L P"/><g fill="#e5f2f8"><path d="M98.193 347.755c1.152.16 2.27.51 3.308 1.035a13.92 13.92 0 0 1 6.592 6.673 14.09 14.09 0 0 1 1.346 6.444c-.079 2.564-.844 5.059-2.217 7.226a14.34 14.34 0 0 1-6.329 5.438c-5.748 2.548-12.486 1.035-16.593-3.726-1.864-2.147-3.048-4.8-3.4-7.621a14.32 14.32 0 0 1 1.082-7.481 14.1 14.1 0 0 1 3.97-5.252c2.476-2.059 5.589-3.195 8.809-3.217a10.56 10.56 0 0 1 3.433.477c-.015.1-1.223-.244-3.424-.165a13.95 13.95 0 0 0-8.453 3.34 13.66 13.66 0 0 0-1.423 19.4c3.894 4.48 10.249 5.905 15.683 3.517 2.468-1.075 4.563-2.855 6.022-5.117a13.67 13.67 0 0 0 .98-13.034c-1.274-2.843-3.462-5.177-6.217-6.631-1.958-1.004-3.197-1.211-3.169-1.306zm11.221-14.976c-.024-.162-.034-.326-.03-.49l-.035-1.492-.082-5.9.1.124-12.741-2.781.228-.111-3.351 7.131-.06.128-.144.006a31.84 31.84 0 0 0-8.307 1.475l-.151.048-.114-.113-5.6-5.546.354.038-11 7.005.128-.372 2.659 7.421.068.189-.137.148a31.69 31.69 0 0 0-4.833 6.885l-.1.186h-.211l-7.88.028.348-.279-2.838 12.729-.205-.419 7.12 3.374.209.1.009.231a31.8 31.8 0 0 0 1.448 8.275l.071.224-.166.167-5.56 5.589.054-.487 6.984 11.013-.47-.162 7.426-2.646.229-.081.178.165a31.6 31.6 0 0 0 6.857 4.831c.1.159-.214-.354.218.356v3.952q0 1.972.008 3.928l-.313-.39 12.726 2.858-.446.217 3.383-7.116.1-.216.238-.009a31.57 31.57 0 0 0 8.275-1.435l.225-.071.167.166q2.831 2.825 5.582 5.566l-.474-.052q5.643-3.569 11.022-6.968l-.151.435q-1.34-3.781-2.635-7.429l-.073-.206.148-.16a31.6 31.6 0 0 0 4.854-6.866l.1-.187h8.089l-.325.261 2.882-12.72.168.345-7.11-3.4-.158-.076-.006-.173c-.104-2.82-.583-5.615-1.423-8.309l-.048-.154.113-.112 5.58-5.567-.032.294-6.916-11.042.212.073-7.442 2.6-.075.026-.057-.053a33.15 33.15 0 0 0-5.061-3.9l-1.355-.817a3.22 3.22 0 0 1-.446-.276 4.18 4.18 0 0 1 .479.217l1.391.762a30.92 30.92 0 0 1 5.168 3.822l-.131-.027 7.409-2.692.134-.049.078.122 7.028 10.986.1.16-.134.135-5.543 5.6.065-.265c.873 2.736 1.378 5.576 1.5 8.445l-.165-.249 7.127 3.364.221.1-.053.241-2.831 12.732-.057.26h-.268l-7.879.031.307-.187a32.3 32.3 0 0 1-4.942 7.035l.075-.364q1.3 3.646 2.653 7.423l.1.277-.249.159-11.008 6.99-.258.164-.217-.216-5.59-5.557.39.1c-2.748.869-5.599 1.367-8.479 1.481l.34-.225q-1.67 3.526-3.376 7.12l-.136.287-.31-.07-12.727-2.851-.313-.07v-.32q0-1.956-.008-3.928v-3.951l.215.354c-2.554-1.332-4.918-2.998-7.031-4.956l.406.084-7.428 2.643-.3.106-.171-.269-6.975-11.021-.168-.265.222-.223 5.566-5.582-.094.39a32.48 32.48 0 0 1-1.47-8.478l.217.33-7.113-3.388-.27-.129.066-.29 2.869-12.724.063-.279h8.165l-.306.186a32.33 32.33 0 0 1 4.962-7.017l-.069.336-2.63-7.431-.085-.239.214-.134 11.031-6.954.194-.123.161.161 5.571 5.578-.265-.064a32.27 32.27 0 0 1 8.447-1.442l-.2.134 3.408-7.1.071-.148.158.037 12.708 2.928.1.023v.1l-.054 5.844-.027 1.512a3.93 3.93 0 0 1-.048.514z"/><path d="M34.811 304.16a20.62 20.62 0 0 1 4.474 3.151l4.779-1.7 4.492 7.09-3.579 3.6a20.55 20.55 0 0 1 .94 5.391l4.581 2.175-1.838 8.19-5.071.011a20.51 20.51 0 0 1-3.152 4.474l1.7 4.78-7.09 4.492-3.6-3.579c-1.747.552-3.56.867-5.391.938l-2.175 4.582-8.186-1.84-.011-5.071a20.56 20.56 0 0 1-4.473-3.152l-4.781 1.7-4.492-7.091 3.58-3.6c-.551-1.747-.867-3.56-.939-5.39l-4.574-2.174 1.837-8.19 5.071-.011a20.54 20.54 0 0 1 3.152-4.474l-1.7-4.78 7.089-4.492 3.6 3.58a20.56 20.56 0 0 1 5.392-.939l2.174-4.581 8.19 1.837.012 5.071zm-7.221 9.638a9 9 0 0 0-3.937 17.564 9 9 0 0 0 9.573-13.598 9 9 0 0 0-5.636-3.966z" class="P"/></g><path d="M561.226 162.406a26 26 0 0 1 6.677 1.764l4.907-4.112 8.43 6.416-2.656 5.825c1.42 1.825 2.591 3.831 3.48 5.966l6.376.561 1.423 10.5-5.995 2.24a25.92 25.92 0 0 1-1.764 6.678l4.112 4.908-6.415 8.429-5.827-2.656c-1.825 1.42-3.831 2.589-5.966 3.478l-.561 6.376-10.5 1.425-2.24-6c-2.294-.287-4.54-.881-6.677-1.764l-4.909 4.113-8.429-6.416 2.657-5.827a25.99 25.99 0 0 1-3.479-5.965l-6.375-.562-1.425-10.5 6-2.24a25.92 25.92 0 0 1 1.764-6.678l-4.114-4.908 6.415-8.429 5.827 2.656c1.825-1.42 3.831-2.59 5.966-3.479l.561-6.376 10.5-1.424 2.242 5.995zm-3.149 14.476c-4.807.155-8.996 3.32-10.46 7.901s.115 9.588 3.941 12.502 9.073 3.104 13.1.474 5.963-7.509 4.835-12.184a11.37 11.37 0 0 0-11.416-8.693z" class="L P"/><path d="M602.341 99.6a10.38 10.38 0 0 1 3.394-.177 13.65 13.65 0 0 1 8.337 3.883c1.56 1.525 2.738 3.398 3.436 5.465a14.05 14.05 0 0 1 .428 7.4c-.582 2.726-1.961 5.218-3.962 7.159a14 14 0 0 1-16.524 2.239c-2.447-1.337-4.441-3.372-5.728-5.845a14.04 14.04 0 0 1-1.56-7.245 13.84 13.84 0 0 1 1.857-6.184c1.574-2.737 4.047-4.844 7-5.963 1.058-.425 2.179-.673 3.318-.733.019.1-1.208.194-3.2 1.018-2.813 1.189-5.147 3.285-6.63 5.954a13.4 13.4 0 0 0 5.315 18.322c5.108 2.788 11.436 1.929 15.616-2.119a13.4 13.4 0 0 0 .241-19.074 13.67 13.67 0 0 0-7.979-3.973c-2.143-.264-3.35-.027-3.359-.127zm5.203-17.597a3.03 3.03 0 0 1-.2-.441l-.541-1.36-2.088-5.392.135.08-12.657 1.795.171-.18-.646 7.7-.011.138-.13.055a31.3 31.3 0 0 0-7.133 4.19l-.122.1-.144-.065-7.043-3.187.34-.085-7.721 10.193-.009-.386 4.976 5.914.127.151-.075.182a31.09 31.09 0 0 0-2.093 7.98l-.025.2-.193.073-7.233 2.715.225-.375 1.735 12.669-.331-.315 7.7.671.225.019.087.209c1.065 2.544 2.462 4.935 4.155 7.112l.141.182-.1.21-3.2 7.035-.118-.466 10.18 7.741-.488.012 5.924-4.967.182-.153.22.091a31.02 31.02 0 0 0 7.952 2.1h.006c.143.113-.318-.252.322.253v.007l.006.015.01.028.022.057.042.114.085.228.17.455.34.91.678 1.816 1.348 3.608-.421-.252 12.673-1.717-.335.352.68-7.7.021-.233.216-.09c2.546-1.058 4.94-2.451 7.117-4.142l.182-.142.21.1 7.031 3.211-.454.114 7.754-10.167.01.451-4.957-5.93-.138-.164.082-.2a31.05 31.05 0 0 0 2.118-7.968l.026-.206.193-.071 7.24-2.694-.209.351-1.692-12.676.272.26-7.7-.7-.171-.015-.065-.157a31.23 31.23 0 0 0-4.143-7.152l-.1-.125.066-.142 3.229-7.021.071.281-10.142-7.79.22-.006-5.956 4.927-.059.049-.07-.029a32.44 32.44 0 0 0-5.984-1.856l-1.524-.289a3.28 3.28 0 0 1-.5-.1 3.68 3.68 0 0 1 .514.035l1.539.226c2.074.371 4.103.958 6.055 1.75l-.129.02 5.891-5 .107-.091.113.086 10.211 7.7.147.111-.076.17-3.183 7.044-.031-.266a31.62 31.62 0 0 1 4.256 7.252l-.236-.172 7.7.659.239.02.033.239 1.744 12.669.035.258-.245.092-7.232 2.718.218-.276a31.65 31.65 0 0 1-2.141 8.153l-.056-.361 4.972 5.918.187.222-.176.231-7.733 10.182-.181.239-.273-.124-7.036-3.2.392-.046a31.64 31.64 0 0 1-7.289 4.254l.236-.322-.673 7.7-.027.31-.309.042-12.666 1.721-.311.042-.11-.294q-.671-1.8-1.349-3.608l-.678-1.815-.34-.911-.17-.455-.085-.228-.042-.114-.022-.057-.01-.028-.006-.014v-.007l.318.252h-.006a31.73 31.73 0 0 1-8.154-2.155l.4-.062-5.926 4.964-.239.2-.249-.189-10.173-7.75-.245-.187.128-.28 3.212-7.032.046.391a31.9 31.9 0 0 1-4.244-7.291l.312.229-7.694-.686-.292-.026-.039-.29-1.7-12.674-.038-.278.263-.1 7.24-2.694-.217.276a31.63 31.63 0 0 1 2.165-8.144l.051.333-4.953-5.934-.16-.191.151-.2 7.767-10.158.137-.178.2.093 7.025 3.227-.266.031a31.6 31.6 0 0 1 7.273-4.208l-.141.192.708-7.693.014-.16.158-.021 12.681-1.646.1-.013.034.094 1.945 5.391.49 1.4a3.76 3.76 0 0 1 .15.495z" fill="#e3efff"/><rect width="460.307" height="318.21" fill="#f5fafc" rx="4" x="80.154" y="33.377"/><rect width="460.307" height="318.21" fill="#e8f8ff" rx="4" x="85.154" y="37.377"/><g fill="#e5f2f8"><rect width="460.307" height="318.21" rx="4" x="93.154" y="43.377"/><path d="M106.288 52.26c0 1.566-1.27 2.836-2.836 2.836s-2.836-1.27-2.836-2.836 1.27-2.836 2.836-2.836c.752 0 1.474.299 2.005.831a2.84 2.84 0 0 1 .831 2.005zm10.227 0c-.001 1.565-1.27 2.834-2.835 2.834s-2.834-1.269-2.835-2.835 1.269-2.835 2.834-2.835c.752 0 1.474.299 2.005.831a2.84 2.84 0 0 1 .831 2.005zm10.227 0c-.001 1.566-1.27 2.834-2.836 2.834s-2.835-1.27-2.834-2.835 1.269-2.835 2.835-2.835c.752 0 1.473.299 2.005.831s.83 1.253.83 2.005z"/></g><path d="M124.433 164.748H232.01v-33.535h-94.826l-8.848 7.191c-2.467 2.005-3.9 5.014-3.9 8.193z" fill="#407bff"/><path d="M124.433 164.748H232.01v-33.535h-94.826l-8.848 7.191c-2.467 2.005-3.9 5.014-3.9 8.193z" opacity=".5" class="O"/><g class="M"><path d="M232.629 161.724c0-12.24-5.549-22.162-12.395-22.162h13.148c6.845 0 12.394 9.922 12.394 22.162s-5.549 22.161-12.394 22.161h-13.148c6.845 0 12.395-9.922 12.395-22.161z"/><ellipse cx="220.234" cy="161.723" rx="12.394" ry="22.161"/></g><ellipse cx="219.237" cy="161.723" rx="8.787" ry="17.281" fill="#fff"/><g class="M"><path d="M304.067 161.724c0-12.24-5.549-22.162-12.394-22.162h13.148c6.845 0 12.394 9.922 12.394 22.162s-5.549 22.161-12.394 22.161h-13.148c6.845 0 12.394-9.922 12.394-22.161z"/><ellipse cx="291.673" cy="161.723" rx="12.394" ry="22.161"/><path d="M147.693 161.724c0-12.24-5.549-22.162-12.394-22.162h13.148c6.846 0 12.395 9.922 12.395 22.162s-5.549 22.161-12.395 22.161h-13.148c6.845 0 12.394-9.922 12.394-22.161z"/><ellipse cx="135.299" cy="161.723" rx="12.394" ry="22.161"/></g><ellipse cx="134.302" cy="161.723" rx="8.787" ry="17.281" fill="#fff"/><use xlink:href="#B" fill="#407bff"/><use xlink:href="#B" class="O"/><path d="M153.399 90.155a.3.3 0 0 0 .156-.043c.071-.041.122-.109.143-.188s.009-.163-.032-.234l-4.329-7.421a.31.31 0 0 0-.536.003.31.31 0 0 0 .002.309l4.329 7.421a.31.31 0 0 0 .267.153z" class="M"/><g class="Q"><path d="M130.563 127.073v-8.435c0-4.432 6.444-25.357 15.309-29.273s30.3-5.669 43.807-4.948 31.519 28.964 31.519 28.964l-1.959 24.292c-2.744 0-11.487-.825-12.77 23.208a6.61 6.61 0 0 1-6.589 6.271h-47.287c-3.285.002-6.071-2.415-6.532-5.668-1.213-8.564-4.465-23.815-12.249-23.815-5.463 0-9.38 4.676-9.38 10.036 0-5.89 1.432-11.692 4.173-16.906z"/><path d="M239.156 84.417c24.6 0 52.466 28.964 52.466 28.964h-70.425s-18.013-28.243-31.517-28.964z"/></g><path d="M241.149 86.481c19.246 0 39.427 19.086 45.312 25.1.298.304.384.756.219 1.148s-.549.647-.974.647h-52.762a13.5 13.5 0 0 1-10.892-5.5c-5.671-7.731-16.6-20.926-25.452-21.4z" class="L"/><path d="M221.196 113.381l26.017 20.529 70-.223s4.02 5.841 4.02 12.232h-90.185c-1.477-3.917-6.657-8.246-11.811-8.246 0-7.284 1.959-24.292 1.959-24.292z" class="Q"/><path d="M238.223 127.859a.31.31 0 0 0 .311-.286.31.31 0 0 0-.265-.329c-6.244-1.01-12.087-3.728-16.882-7.853a4.99 4.99 0 0 1-.9-6.642.31.31 0 0 0-.082-.428.31.31 0 0 0-.428.079 5.6 5.6 0 0 0 1.007 7.464 34.9 34.9 0 0 0 17.19 7.993z" opacity=".2"/><path d="M317.22 133.687s-12.3-14.327-25.6-20.306h-70.424l26.017 20.529z" class="Q"/><path d="M262.761 133.687h46.178v1.34h-46.178z" class="O"/><path d="M263.717 131.001l-2.483-2.483c-.557-.556-1.261-.941-2.03-1.108l-18.687-4.07a4.11 4.11 0 0 0-1.986.059l-1 .281c-1.356.382-2.422 1.433-2.823 2.783a4.11 4.11 0 0 0 .845 3.874l4.017 4.591c.693.792 1.663 1.288 2.711 1.385l18.151 1.682a4.11 4.11 0 0 0 3.277-1.179c.773-.769 1.209-1.815 1.21-2.906a4.11 4.11 0 0 0-1.202-2.909zm43.915 1.312l2.052-3.826a3.37 3.37 0 0 1 1.239-1.3c1.008-.604 2.259-.64 3.3-.095l1.552.814a3.37 3.37 0 0 1 1.628 1.9l.951 2.8c.317.934.209 1.96-.295 2.808a3.37 3.37 0 0 1-2.325 1.6l-4.272.738c-1.429.247-2.856-.448-3.544-1.725l-.283-.526a3.37 3.37 0 0 1-.003-3.188z" fill="#fff"/><path d="M206.811 114.205h-65.109a3.54 3.54 0 0 1-3.388-4.558c1.481-4.952 4.336-12.683 8.6-16.63a3.57 3.57 0 0 1 1.69-.865c7.674-1.627 20.013-2.71 29.167-3.339a28.78 28.78 0 0 1 22.515 8.556 78.99 78.99 0 0 1 9.392 11.461c.707 1.059.775 2.422.175 3.546s-1.768 1.827-3.042 1.829z" class="L"/><path d="M248.914 153.165c0 2.03 2.077 3.677 4.638 3.677s4.638-1.646 4.638-3.677-2.077-3.676-4.638-3.676-4.638 1.649-4.638 3.676z" class="M"/><path d="M286.284 130.88c-1.522 0-2.265 1.557-1.659 3.478s2.331 3.477 3.853 3.477 2.265-1.557 1.659-3.477-2.331-3.478-3.853-3.478z" class="O"/><path d="M317.494 153.165c0 2.03.584 3.677 1.306 3.677s1.306-1.646 1.306-3.677-.584-3.676-1.306-3.676-1.306 1.649-1.306 3.676zm-108.676-39.547v-2.084c0-1.212-.545-2.359-1.485-3.123s-2.174-1.064-3.361-.817l-7.929 1.653c-1.865.39-3.201 2.035-3.2 3.94v.431c.001 2.222 1.802 4.023 4.024 4.024h7.925a4.03 4.03 0 0 0 2.846-1.178c.755-.754 1.179-1.778 1.18-2.846zm-41.716-23.941l2.9-.269c-8.156 16.706-6.077 24.8-6.077 24.8h-6.219c-.06-10.175 9.396-24.531 9.396-24.531z" class="M"/><path d="M163.19 162.755a.31.31 0 0 0 .309-.309c0-6.258-3.19-32.065-4.027-35.936a23.64 23.64 0 0 1-.006-10.67.31.31 0 0 0-.209-.384.31.31 0 0 0-.384.209c-.84 3.61-.841 7.365-.005 10.976.833 3.857 4.013 29.57 4.013 35.8-.002.083.03.163.088.222a.31.31 0 0 0 .221.092zm.82-35.94h7.541c.29.009.567-.116.751-.34s.254-.52.19-.802l-.155-.876c-.131-.645-.686-1.117-1.344-1.142h-7.542c-.29-.009-.567.116-.751.34s-.254.52-.19.802l.155.876a1.43 1.43 0 0 0 1.345 1.142z" opacity=".2"/><path d="M276.925 323.915l10.576-22.014c1.232-2.564 3.674-3.126 5.385-1.239l5.563 6.131c1.818 2 4.427 1.228 5.565-1.651l16.053-40.578c1.34-3.386 4.6-3.731 6.257-.659l10.021 18.548c1.616 2.99 4.772 2.758 6.173-.457l7.321-16.8c1.527-3.506 5.056-3.395 6.479.2l6.046 15.286c1.422 3.593 4.947 3.707 6.476.209l20.672-47.3c1.471-3.366 4.825-3.418 6.345-.1l34.153 74.582c1.369 2.99 4.3 3.307 5.955.646l20.749-33.344c1.458-2.341 3.96-2.426 5.489-.185l16.5 24.182c1.761 2.58 4.719 2.014 5.966-1.139l29.527-74.66c1.938-4.9 7.071-2.894 7.071 2.767v97.572z" class="L"/><g class="M"><path d="M520.643 332.269a1.8 1.8 0 0 1-.018-.294l-.017-.9-.034-3.729.069.068-121.5.192c-58.317 0-107.4-.081-121.508-.192l.068-.068-.033 3.729-.018.9c.002.098-.004.197-.017.294a1.8 1.8 0 0 1-.018-.294c0-.213-.01-.507-.017-.9l-.034-3.729v-.068h.069l121.508-.192 121.5.192h.069v.068l-.033 3.729-.018.9c.002.098-.004.197-.018.294z"/><use xlink:href="#C"/><use xlink:href="#D"/><use xlink:href="#E"/><use xlink:href="#C" x="81.001"/><path d="M412.646 331.879c-.144 0-.261-.463-.261-1.036s.117-1.036.261-1.036.26.463.26 1.036-.122 1.036-.26 1.036z"/><use xlink:href="#D" x="108.002"/><use xlink:href="#E" x="108.002"/><use xlink:href="#C" x="189.003"/></g><g class="N"><use xlink:href="#F"/><path d="M491.985 109.319H359.826c-1.241-.085-2.204-1.116-2.204-2.359s.963-2.275 2.204-2.359h132.159c1.241.085 2.204 1.116 2.204 2.359s-.963 2.275-2.204 2.359z"/></g><path d="M423.938 127.998h-63.956a2.36 2.36 0 0 1-2.359-2.359 2.36 2.36 0 0 1 2.359-2.359h63.955a2.36 2.36 0 0 1 2.043 3.539 2.36 2.36 0 0 1-2.043 1.179z" class="L"/><path d="M509.774 126.647h-1.046V128h-.763v-1.353h-3.059v-.55l2.816-3.6h.849l-2.7 3.475h2.115v-1.195h.739v1.195h1.046zm4.309-.299c0 .952-.676 1.715-2.083 1.715a3.15 3.15 0 0 1-2.02-.668l.361-.622a2.47 2.47 0 0 0 1.651.59c.833 0 1.306-.385 1.306-.983 0-.621-.393-1.007-1.667-1.007h-1.251l.291-2.878h3.106v.684h-2.445l-.149 1.509h.613c1.642.001 2.287.686 2.287 1.66zm.488-2.397a1.33 1.33 0 0 1 1.281-1.5c.763 0 1.274.6 1.274 1.5s-.51 1.5-1.274 1.5a1.33 1.33 0 0 1-1.281-1.5zm2.051 0c0-.66-.291-1.055-.77-1.055s-.771.4-.771 1.055.3 1.053.771 1.053.77-.391.77-1.053zm2.548-1.455h.606l-3.759 5.5h-.605zm-1.108 4.049c.11-.68.732-1.155 1.417-1.08s1.191.671 1.153 1.358-.608 1.224-1.296 1.222c-.375-.012-.727-.182-.969-.468a1.33 1.33 0 0 1-.304-1.032zm2.044 0c0-.652-.3-1.054-.771-1.054s-.77.393-.77 1.054.29 1.054.77 1.054.771-.401.771-1.054z" class="M"/><use xlink:href="#F" y="17.299" class="N"/><path d="M444.776 145.297h-84.647c-.66.083-1.322-.133-1.806-.59s-.738-1.105-.694-1.768c0-1.3.745-2.359 1.666-2.359h84.647c.678-.071 1.354.143 1.868.59s.819 1.088.842 1.769c.018 1.133-.768 2.12-1.876 2.358z" class="L"/><path d="M508.995 139.795v.535l-2.224 4.969h-.833l2.177-4.82H505.6v.983h-.755v-1.667zm.535 2.753c0-1.793.96-2.815 2.249-2.815s2.24 1.022 2.24 2.815-.96 2.815-2.24 2.815-2.249-1.022-2.249-2.815zm3.7 0c0-1.408-.6-2.115-1.454-2.115s-1.463.707-1.463 2.115.6 2.114 1.463 2.114 1.457-.708 1.457-2.114zm1.459-1.298a1.33 1.33 0 0 1 1.281-1.5c.764 0 1.275.6 1.275 1.5s-.511 1.5-1.275 1.5a1.33 1.33 0 0 1-1.281-1.5zm2.052 0c0-.66-.291-1.054-.771-1.054s-.769.4-.769 1.054.3 1.054.769 1.054.771-.394.771-1.054zm2.547-1.455h.606l-3.759 5.5h-.6zm-1.108 4.05c.11-.68.732-1.154 1.416-1.081s1.191.671 1.153 1.358-.607 1.225-1.296 1.223a1.33 1.33 0 0 1-.97-.467c-.243-.285-.353-.661-.304-1.033zm2.044 0c0-.653-.3-1.055-.77-1.055s-.771.393-.771 1.055.29 1.053.771 1.053.77-.401.77-1.053z" class="M"/><use xlink:href="#F" y="34.191" class="N"/><path d="M412.555 162.19h-52.573a2.36 2.36 0 0 1-2.359-2.359 2.36 2.36 0 0 1 2.359-2.359h52.573a2.36 2.36 0 0 1 2.359 2.359 2.36 2.36 0 0 1-2.359 2.359z" class="L"/><path d="M508.845 160.533c0 .952-.676 1.714-2.083 1.714a3.15 3.15 0 0 1-2.021-.668l.362-.621a2.47 2.47 0 0 0 1.651.589c.833 0 1.306-.384 1.306-.983 0-.621-.394-1.006-1.667-1.006h-1.251l.291-2.879h3.1v.684h-2.444l-.149 1.51h.613c1.647.005 2.292.69 2.292 1.66zm.653-1.1c0-1.793.96-2.815 2.249-2.815s2.241 1.022 2.241 2.815-.96 2.815-2.241 2.815-2.249-1.015-2.249-2.815zm3.7 0c0-1.408-.6-2.115-1.454-2.115s-1.463.707-1.463 2.115.6 2.114 1.463 2.114 1.459-.704 1.459-2.114zm1.46-1.294a1.33 1.33 0 0 1 1.281-1.5c.764 0 1.274.6 1.274 1.5s-.51 1.5-1.274 1.5a1.33 1.33 0 0 1-1.281-1.5zm2.051 0c0-.66-.291-1.054-.771-1.054s-.77.4-.77 1.054.3 1.054.77 1.054.768-.394.768-1.054zm2.547-1.455h.606l-3.759 5.5h-.605zm-1.107 4.049c.11-.68.732-1.155 1.417-1.08s1.191.671 1.153 1.358-.608 1.224-1.296 1.222c-.375-.012-.727-.182-.969-.468a1.33 1.33 0 0 1-.304-1.032zm2.044 0c0-.652-.3-1.054-.771-1.054s-.769.393-.769 1.054.29 1.054.769 1.054.771-.401.771-1.054z" class="M"/><path d="M453.687 109.319h-93.7a2.36 2.36 0 0 1-2.36-2.359 2.36 2.36 0 0 1 2.36-2.359h93.7a2.36 2.36 0 0 1 2.359 2.359 2.36 2.36 0 0 1-2.359 2.359z" class="L"/><path d="M509.246 107.644a1.78 1.78 0 0 1-1.95 1.738c-1.478 0-2.311-.992-2.311-2.745 0-1.879 1.062-2.886 2.6-2.886a2.64 2.64 0 0 1 1.368.322l-.3.613a1.91 1.91 0 0 0-1.052-.259c-1.117 0-1.832.7-1.832 2.075-.001.067.001.134.008.2a1.83 1.83 0 0 1 1.58-.723 1.7 1.7 0 0 1 1.889 1.665zm-.762.031c0-.644-.488-1.062-1.258-1.062a1.14 1.14 0 0 0-1.267 1.07c0 .566.456 1.062 1.306 1.062a1.09 1.09 0 0 0 1.219-1.07zm1.352-1.108c0-1.792.96-2.815 2.249-2.815s2.24 1.023 2.24 2.815-.959 2.816-2.24 2.816-2.249-1.023-2.249-2.816zm3.7 0c0-1.408-.6-2.115-1.454-2.115s-1.463.707-1.463 2.115.6 2.115 1.463 2.115 1.457-.708 1.457-2.115zm1.459-1.297c-.047-.373.065-.748.309-1.034a1.33 1.33 0 0 1 .973-.466c.762 0 1.274.6 1.274 1.5s-.511 1.5-1.274 1.5c-.376-.011-.729-.181-.973-.466s-.356-.661-.309-1.034zm2.052 0c0-.66-.291-1.054-.771-1.054s-.771.4-.771 1.054.3 1.054.771 1.054.771-.394.771-1.054zm2.547-1.455h.606l-3.759 5.5h-.605zm-1.108 4.049c.11-.68.732-1.155 1.417-1.08s1.191.671 1.153 1.358-.608 1.224-1.296 1.222c-.375-.012-.727-.182-.969-.468a1.33 1.33 0 0 1-.303-1.032zm2.044 0c0-.652-.3-1.054-.772-1.054s-.769.393-.769 1.054.29 1.054.769 1.054.773-.401.773-1.054z" class="M"/><use xlink:href="#G" class="N"/><path d="M140.309 318.168a2.78 2.78 0 0 1-2.781-2.782v-33.637a2.78 2.78 0 0 1 2.781-2.782 2.78 2.78 0 0 1 2.782 2.782v33.638a2.78 2.78 0 0 1-2.782 2.781z" class="L"/><g class="M"><path d="M138.56 320.345v4.639h-.475v-4.215h-1.1v-.424z"/><use xlink:href="#H"/></g><use xlink:href="#I" class="N"/><use xlink:href="#J" class="L"/><path d="M150.764 324.559v.424h-3.253v-.338l1.928-1.889c.523-.516.623-.828.623-1.146 0-.537-.378-.869-1.088-.869a1.57 1.57 0 0 0-1.265.517l-.338-.291a2.08 2.08 0 0 1 1.643-.663c.941 0 1.537.477 1.537 1.253a1.91 1.91 0 0 1-.761 1.451l-1.577 1.551zm.567-1.895c0-1.478.775-2.359 1.848-2.359s1.856.881 1.856 2.359-.782 2.359-1.856 2.359-1.848-.881-1.848-2.359zm3.214 0c0-1.24-.556-1.922-1.366-1.922s-1.365.682-1.365 1.922.557 1.921 1.365 1.921 1.366-.681 1.366-1.921z" class="M"/><use xlink:href="#G" x="22.237" class="N"/><path d="M162.546 318.168a2.78 2.78 0 0 1-2.781-2.782v-25.691a2.78 2.78 0 0 1 2.781-2.781 2.78 2.78 0 0 1 2.782 2.781v25.692c-.001 1.536-1.246 2.781-2.782 2.781z" class="L"/><path d="M161.824 323.652c0 .775-.563 1.372-1.684 1.372a2.41 2.41 0 0 1-1.669-.6l.231-.377a2.03 2.03 0 0 0 1.438.536c.769 0 1.193-.357 1.193-.934 0-.557-.39-.922-1.252-.922h-.331v-.351l1.286-1.61h-2.373v-.424h2.983v.338l-1.313 1.649c.994.057 1.491.58 1.491 1.323zm.665-.988c0-1.478.775-2.359 1.849-2.359s1.855.881 1.855 2.359-.781 2.359-1.855 2.359-1.849-.881-1.849-2.359zm3.214 0c0-1.24-.556-1.922-1.365-1.922s-1.365.682-1.365 1.922.556 1.921 1.365 1.921 1.362-.681 1.362-1.921z" class="M"/><use xlink:href="#I" x="22.236" class="N"/><use xlink:href="#J" x="22.236" class="L"/><g class="M"><path d="M173.686 323.764h-.928v1.22h-.477v-1.22h-2.617v-.344l2.457-3.075h.53l-2.372 2.995h2.014v-1.073h.464v1.073h.928z"/><path d="M174.12 322.664c0-1.478.775-2.359 1.849-2.359s1.855.881 1.855 2.359-.781 2.359-1.855 2.359-1.849-.881-1.849-2.359zm3.214 0c0-1.24-.556-1.922-1.365-1.922s-1.365.682-1.365 1.922.556 1.921 1.365 1.921 1.365-.681 1.365-1.921z"/></g><path d="M184.781 317.922a2.78 2.78 0 0 1-2.781-2.781v-52.179a2.78 2.78 0 0 1 2.781-2.781 2.78 2.78 0 0 1 2.781 2.781v52.179a2.78 2.78 0 0 1-2.781 2.781z" class="N"/><path d="M184.781 318.168a2.78 2.78 0 0 1-2.781-2.782V279.63a2.78 2.78 0 0 1 2.781-2.781 2.78 2.78 0 0 1 2.781 2.781v35.757a2.78 2.78 0 0 1-2.781 2.781z" class="L"/><path d="M184.534 323.618c0 .789-.549 1.406-1.683 1.406a2.4 2.4 0 0 1-1.663-.6l.232-.377a2 2 0 0 0 1.424.536c.788 0 1.206-.384 1.206-.948 0-.6-.37-.968-1.55-.968h-.989l.239-2.325h2.538v.424h-2.12l-.159 1.477h.6c1.395.003 1.925.553 1.925 1.375zm.599-.954c0-1.478.775-2.359 1.849-2.359s1.856.881 1.856 2.359-.782 2.359-1.856 2.359-1.849-.881-1.849-2.359zm3.214 0c0-1.24-.556-1.922-1.365-1.922s-1.365.682-1.365 1.922.557 1.921 1.365 1.921 1.365-.681 1.365-1.921z" class="M"/><use xlink:href="#G" x="55.59" class="N"/><path d="M195.899 317.921c-1.452.025-2.672-1.087-2.781-2.535v-25.692c-.05-.775.219-1.536.744-2.108s1.261-.904 2.037-.919c1.536 0 2.782 1.246 2.782 2.782v25.692a2.78 2.78 0 0 1-2.782 2.78z" class="L"/><path d="M195.534 323.599c-.004.405-.177.79-.478 1.061s-.702.403-1.105.364c-1.233 0-1.9-.855-1.9-2.32 0-1.577.86-2.4 2.12-2.4.383-.017.763.07 1.1.252l-.192.384a1.62 1.62 0 0 0-.9-.218c-1 0-1.644.641-1.644 1.9 0 .106.007.238.02.377a1.48 1.48 0 0 1 1.418-.795 1.4 1.4 0 0 1 1.561 1.395zm-.47.013c0-.61-.45-1-1.167-1-.295-.033-.59.057-.816.249s-.362.469-.377.765c0 .51.424.994 1.226.994.288.034.577-.057.793-.249a1.02 1.02 0 0 0 .341-.759zm1.016-.948c0-1.478.775-2.359 1.849-2.359s1.856.881 1.856 2.359-.783 2.359-1.856 2.359-1.849-.881-1.849-2.359zm3.214 0c0-1.24-.556-1.922-1.365-1.922s-1.365.682-1.365 1.922.556 1.921 1.365 1.921 1.365-.681 1.365-1.921z" class="M"/><use xlink:href="#I" x="55.59" class="N"/><path d="M207.018 318.168c-1.536 0-2.782-1.246-2.782-2.782v-46.881a2.78 2.78 0 0 1 2.782-2.781 2.78 2.78 0 0 1 2.781 2.781v46.881a2.78 2.78 0 0 1-2.781 2.782z" class="L"/><path d="M206.424 320.345v.338l-1.941 4.3h-.517l1.909-4.215h-2.385v.868h-.47v-1.292zm.494 2.319c0-1.478.775-2.359 1.849-2.359s1.855.881 1.855 2.359-.783 2.359-1.855 2.359-1.849-.881-1.849-2.359zm3.214 0c0-1.24-.556-1.922-1.365-1.922s-1.366.682-1.366 1.922.557 1.921 1.366 1.921 1.365-.681 1.365-1.921z" class="M"/><use xlink:href="#G" x="77.822" class="N"/><path d="M218.131 318.168a2.78 2.78 0 0 1-2.781-2.782v-20.394a2.78 2.78 0 0 1 2.781-2.78 2.78 2.78 0 0 1 2.782 2.781v20.395c-.001 1.536-1.246 2.78-2.782 2.78z" class="L"/><g class="M"><path d="M217.581 323.692c0 .821-.7 1.332-1.8 1.332s-1.789-.51-1.789-1.332a1.16 1.16 0 0 1 .894-1.141c-.443-.141-.739-.557-.729-1.021 0-.755.643-1.226 1.624-1.226s1.637.471 1.637 1.226a1.05 1.05 0 0 1-.742 1.021 1.17 1.17 0 0 1 .905 1.141zm-.49-.007c0-.57-.49-.929-1.312-.929s-1.306.358-1.306.929.484.934 1.306.934 1.312-.358 1.312-.934zm-1.312-1.306c.722 0 1.153-.324 1.153-.828 0-.522-.457-.841-1.153-.841s-1.147.319-1.147.836.425.833 1.147.833z"/><use xlink:href="#K"/></g><use xlink:href="#I" x="77.825" class="N"/><path d="M229.253 317.919c-1.452.025-2.673-1.086-2.782-2.535v-7.151c-.05-.775.219-1.536.744-2.108s1.262-.904 2.038-.919a2.78 2.78 0 0 1 2.781 2.781v7.152a2.78 2.78 0 0 1-2.781 2.78z" class="L"/><path d="M228.415 322.628c0 1.577-.862 2.4-2.12 2.4-.383.017-.763-.07-1.1-.252l.191-.384a1.64 1.64 0 0 0 .9.218c1 0 1.643-.642 1.643-1.9 0-.1-.006-.238-.019-.377a1.48 1.48 0 0 1-1.419.794 1.4 1.4 0 0 1-1.564-1.391c.004-.405.178-.79.479-1.061s.702-.403 1.105-.364c1.235-.006 1.904.848 1.904 2.317zm-.655-.922c0-.509-.424-.994-1.227-.994-.288-.034-.576.057-.793.25a1.01 1.01 0 0 0-.34.758c0 .609.45 1 1.166 1 .295.034.591-.057.818-.25a1.07 1.07 0 0 0 .376-.767zm1.34.958c0-1.478.775-2.359 1.849-2.359s1.856.881 1.856 2.359-.782 2.359-1.856 2.359-1.849-.881-1.849-2.359zm3.214 0c0-1.24-.556-1.922-1.365-1.922s-1.365.682-1.365 1.922.556 1.921 1.365 1.921 1.365-.681 1.365-1.921z" class="M"/><use xlink:href="#I" x="88.943" class="N"/><path d="M240.371 317.921c-1.452.025-2.672-1.087-2.782-2.535v-25.692c-.05-.775.219-1.536.744-2.108s1.261-.904 2.038-.919a2.78 2.78 0 0 1 2.781 2.782v25.692a2.78 2.78 0 0 1-2.781 2.78z" class="L"/><g class="M"><path d="M236.386 320.345v4.639h-.477v-4.215h-1.094v-.424z"/><use xlink:href="#H" x="97.826"/><use xlink:href="#K" x="23.633"/></g><path d="M263.408 328.829c-.144 0-.26-17.173-.26-38.351l.26-38.355c.144 0 .26 17.169.26 38.355l-.26 38.351z" class="L"/><defs ><path id="B" d="M247.272 167.909h15.9l.887-.888c.916-.916 2.159-1.431 3.455-1.431h39.74c1.296 0 2.539.515 3.455 1.431l.54.54h1.45c2.264 0 4.435-.899 6.036-2.5s2.5-3.772 2.5-6.036v-13.106h-90.187l7.186 15.6c1.356 3.829 4.976 6.388 9.038 6.39z"/><path id="C" d="M304.639 331.879c-.144 0-.261-.463-.261-1.036s.117-1.036.261-1.036.26.463.26 1.036-.116 1.036-.26 1.036z"/><path id="D" d="M331.639 331.879c-.144 0-.26-.463-.26-1.036s.116-1.036.26-1.036.261.463.261 1.036-.117 1.036-.261 1.036z"/><path id="E" d="M358.64 331.879c-.144 0-.26-.463-.26-1.036s.116-1.036.26-1.036.26.463.26 1.036-.116 1.036-.26 1.036z"/><path id="F" d="M491.985 127.998H359.826c-1.243-.081-2.21-1.113-2.21-2.359s.967-2.278 2.21-2.359h132.159c1.243.081 2.21 1.113 2.21 2.359s-.967 2.278-2.21 2.359z"/><path id="G" d="M140.309 317.922a2.78 2.78 0 0 1-2.781-2.781v-52.179a2.78 2.78 0 0 1 2.781-2.781 2.78 2.78 0 0 1 2.782 2.781v52.179a2.78 2.78 0 0 1-2.782 2.781z"/><path id="H" d="M139.665 322.664c0-1.478.775-2.359 1.848-2.359s1.856.881 1.856 2.359-.782 2.359-1.856 2.359-1.848-.881-1.848-2.359zm3.214 0c0-1.24-.557-1.922-1.366-1.922s-1.365.682-1.365 1.922.557 1.921 1.365 1.921 1.366-.681 1.366-1.921z"/><path id="I" d="M151.428 317.922a2.78 2.78 0 0 1-2.782-2.781v-52.179a2.78 2.78 0 0 1 2.782-2.781 2.78 2.78 0 0 1 2.781 2.781v52.179a2.78 2.78 0 0 1-2.781 2.781z"/><path id="J" d="M151.428 318.168c-1.536 0-2.782-1.246-2.782-2.782v-44.232a2.78 2.78 0 0 1 2.782-2.781 2.78 2.78 0 0 1 2.781 2.781v44.233a2.78 2.78 0 0 1-2.781 2.781z"/><path id="K" d="M218.24 322.664c0-1.478.775-2.359 1.849-2.359s1.855.881 1.855 2.359-.782 2.359-1.855 2.359-1.849-.881-1.849-2.359zm3.214 0c0-1.24-.556-1.922-1.365-1.922s-1.366.682-1.366 1.922.557 1.921 1.366 1.921 1.365-.681 1.365-1.921z"/></defs></svg>