<svg xmlns="http://www.w3.org/2000/svg" xmlns:xlink="http://www.w3.org/1999/xlink" width="467" height="444" xmlns:v="https://vecta.io/nano"><style><![CDATA[.B{fill:#c18c68}.C{opacity:.5}.D{opacity:.4}.E{fill:#e8dfd1}.F{fill:#383534}.G{fill:#ffd2b1}.H{fill:#c6c0b3}.I{fill:#d3cfc9}.J{fill:#d2ceca}.K{fill:#999693}.L{fill:#ffccb5}.M{fill:#2d2b2a}.N{fill:#2b2b2b}.O{fill:#aecdd1}]]></style><defs><linearGradient x1="51.4673743%" y1="50.029276%" x2="38.760537%" y2="50.029276%" id="A"><stop stop-color="#bcb9b5" offset="0%"/><stop stop-color="#999693" offset="100%"/></linearGradient><linearGradient x1="59.6985322%" y1="38.0811739%" x2="42.999437%" y2="68.7161791%" id="B"><stop stop-color="#ffd2b1" offset="0%"/><stop stop-color="#ffb59a" offset="49%"/><stop stop-color="#ed9783" offset="100%"/></linearGradient><linearGradient x1="43.2650302%" y1="58.137482%" x2="53.086137%" y2="46.5851171%" id="C"><stop offset="0%"/><stop stop-color="#191614" offset="6%"/><stop stop-color="#554b43" offset="21%"/><stop stop-color="#89786c" offset="35%"/><stop stop-color="#b39e8d" offset="50%"/><stop stop-color="#d4bba7" offset="64%"/><stop stop-color="#eccfba" offset="77%"/><stop stop-color="#fadcc5" offset="89%"/><stop stop-color="#ffe0c9" offset="100%"/></linearGradient><linearGradient x1="26.5293036%" y1="60.6925939%" x2="65.8961146%" y2="45.0147764%" id="D"><stop offset="0%"/><stop stop-color="#191614" offset="6%"/><stop stop-color="#554b43" offset="21%"/><stop stop-color="#89786c" offset="35%"/><stop stop-color="#b39e8d" offset="50%"/><stop stop-color="#d4bba7" offset="64%"/><stop stop-color="#eccfba" offset="77%"/><stop stop-color="#fadcc5" offset="89%"/><stop stop-color="#ffe0c9" offset="100%"/></linearGradient><linearGradient x1="40.8310993%" y1="20.793859%" x2="58.1572362%" y2="77.6600713%" id="E"><stop stop-color="#f9f6f1" offset="0%"/><stop stop-color="#f9f6f1" offset="100%"/></linearGradient><linearGradient x1="41.1828983%" y1="38.5764794%" x2="60.3645182%" y2="60.3389301%" id="F"><stop stop-color="#c18c68" offset="18%"/><stop stop-color="#f4c698" offset="20%"/><stop stop-color="#f4c698" offset="83%"/><stop stop-color="#e2b48a" offset="88%"/><stop stop-color="#d7a980" offset="94%"/><stop stop-color="#d3a57d" offset="100%"/></linearGradient><linearGradient x1="39.4303925%" y1="26.0643956%" x2="62.9292531%" y2="72.6011447%" id="G"><stop stop-color="#f4c698" offset="10%"/><stop stop-color="#e2b489" offset="12%"/><stop stop-color="#d7a980" offset="13%"/><stop stop-color="#d3a57d" offset="14%"/></linearGradient><linearGradient x1="35.9277709%" y1="30.9880966%" x2="66.0024907%" y2="67.1640844%" id="H"><stop stop-color="#c18c68" offset="18%"/><stop stop-color="#f4c698" offset="20%"/><stop stop-color="#f4c698" offset="83%"/><stop stop-color="#e2b48a" offset="88%"/><stop stop-color="#d7a980" offset="94%"/><stop stop-color="#d3a57d" offset="100%"/></linearGradient><linearGradient x1="40.2434197%" y1="18.4856792%" x2="61.8942758%" y2="79.7573777%" id="I"><stop stop-color="#f4c698" offset="10%"/><stop stop-color="#e2b489" offset="12%"/><stop stop-color="#d7a980" offset="13%"/><stop stop-color="#d3a57d" offset="14%"/></linearGradient><linearGradient x1="40.1582687%" y1="19.7554796%" x2="68.728974%" y2="74.1216858%" id="J"><stop stop-color="#f4c698" offset="0%"/><stop stop-color="#f2c496" offset="17%"/><stop stop-color="#ebbd91" offset="23%"/><stop stop-color="#e0b287" offset="27%"/><stop stop-color="#d3a57d" offset="30%"/></linearGradient><linearGradient x1="36.2011218%" y1="31.1316343%" x2="66.1306942%" y2="67.1179369%" id="K"><stop stop-color="#c18c68" offset="18%"/><stop stop-color="#f4c698" offset="20%"/><stop stop-color="#f4c698" offset="83%"/><stop stop-color="#e2b48a" offset="88%"/><stop stop-color="#d7a980" offset="94%"/><stop stop-color="#d3a57d" offset="100%"/></linearGradient><linearGradient x1="40.2182016%" y1="18.4856792%" x2="61.9250212%" y2="79.7573777%" id="L"><stop stop-color="#f4c698" offset="10%"/><stop stop-color="#e2b489" offset="12%"/><stop stop-color="#d7a980" offset="13%"/><stop stop-color="#d3a57d" offset="14%"/></linearGradient><linearGradient x1="39.9868192%" y1="19.6908058%" x2="68.5805391%" y2="74.3184691%" id="M"><stop stop-color="#f4c698" offset="0%"/><stop stop-color="#f2c496" offset="17%"/><stop stop-color="#ebbd91" offset="23%"/><stop stop-color="#e0b287" offset="27%"/><stop stop-color="#d3a57d" offset="30%"/></linearGradient><linearGradient x1="36.4513734%" y1="17.3040483%" x2="85.8203415%" y2="86.1636506%" id="N"><stop stop-color="#b6c8c5" offset="0%"/><stop stop-color="#cfdfdc" offset="33%"/><stop stop-color="#e8f6f4" offset="75%"/><stop stop-color="#f2fffd" offset="100%"/></linearGradient><linearGradient x1="37.8070281%" y1="51.2313565%" x2="95.170234%" y2="36.2537963%" id="O"><stop stop-color="#e9e6e0" offset="0%"/><stop stop-color="#efeee7" offset="100%"/></linearGradient><linearGradient x1="52.4327259%" y1="50.0388293%" x2="79.7502384%" y2="50.0388293%" id="P"><stop stop-color="#ebe9e5" offset="0%"/><stop stop-color="#fff" offset="100%"/></linearGradient><linearGradient x1="14.08999%" y1="62.3058675%" x2="85.1592801%" y2="45.1406722%" id="Q"><stop stop-color="#f9f6f1" offset="0%"/><stop stop-color="#faf8f3" offset="75%"/><stop stop-color="#fefef9" offset="100%"/></linearGradient><linearGradient x1="30.9068017%" y1="29.077414%" x2="63.8568222%" y2="64.0162252%" id="R"><stop stop-color="#f9f6f1" offset="0%"/><stop stop-color="#faf8f3" offset="42%"/><stop stop-color="#fefef9" offset="57%"/><stop stop-color="#fbfaf4" offset="62%"/><stop stop-color="#faf8f2" offset="76%"/><stop stop-color="#fbf8f4" offset="100%"/></linearGradient><linearGradient x1="34.0514671%" y1="33.9733171%" x2="67.103023%" y2="69.4267056%" id="S"><stop stop-color="#f9f6f1" offset="0%"/><stop stop-color="#f9f6f1" offset="100%"/></linearGradient><linearGradient x1="37.3595578%" y1="41.7374311%" x2="69.1943209%" y2="68.7336469%" id="T"><stop offset="0%"/><stop stop-color="#030303" offset="17%"/><stop stop-color="#0d0d0c" offset="30%"/><stop stop-color="#1d1d1c" offset="42%"/><stop stop-color="#353432" offset="53%"/><stop stop-color="#53524e" offset="64%"/><stop stop-color="#787771" offset="74%"/><stop stop-color="#a4a29a" offset="84%"/><stop stop-color="#d5d3c8" offset="93%"/><stop stop-color="#fdfbee" offset="100%"/></linearGradient><linearGradient x1="55.2568388%" y1="14.175877%" x2="41.672407%" y2="52.8351754%" id="U"><stop stop-color="#f84f4d" offset="52%"/><stop stop-color="#d93934" offset="75%"/><stop stop-color="#d93934" offset="100%"/></linearGradient><linearGradient x1="26.4542983%" y1="11.8001843%" x2="79.5542955%" y2="85.4415482%" id="V"><stop stop-color="#f84f4d" offset="74%"/><stop stop-color="#d93934" offset="100%"/></linearGradient><linearGradient x1="71.1407517%" y1="8.71087336%" x2="27.6361634%" y2="91.6312566%" id="W"><stop stop-color="#ff5b4f" offset="0%"/><stop stop-color="#f84f4d" offset="60%"/><stop stop-color="#d93934" offset="100%"/></linearGradient><linearGradient x1="64.7279889%" y1="25.540011%" x2="33.8259615%" y2="62.5460242%" id="X"><stop stop-color="#ff5b4f" offset="0%"/><stop stop-color="#f84f4d" offset="60%"/><stop stop-color="#d93934" offset="100%"/></linearGradient><path id="Y" d="M89.45 96.403c-1.796 1.033-2.047 11.456-.908 14.38l4.984-2.98a5.75 5.75 0 0 1 5.795 0l18.543 10.755s-8.2-27.452-6.413-28.504l-22 6.352z"/><path id="Z" d="M158.39 75.887c1.43 3.35-1.777 7.19-4.48 9.45-.81.662-.116 3.897.444 4.773.985 1.637 5.138-3.254 6.18-6.254s-1.912-7.988-2.144-7.97z"/></defs><g fill="none"><g style="mix-blend-mode:multiply" fill="#ccc" class="C"><path d="M365.208 386.267l-97.013 56.31a2.71 2.71 0 0 1-2.588 0l-53.933-27.572c-.814-.425-1.333-1.263-1.353-2.185a2.53 2.53 0 0 1 1.257-2.242l135.827-78.872 16.626 8.543c8.483 4.383 13.912 13.07 14.157 22.658s-4.732 18.545-12.98 23.36h0zm-364.132-1.4c12.7 15.14 26.4 13.473 69.095 19.303l33.657 1.67a13.15 13.15 0 0 0 7.492-1.748l91.684-53.164 28.58 19.805a10.97 10.97 0 0 0 9.925 0l55.246-32.3c2.76-1.612 2.684-4.194 0-5.825l-.676-.35-35.936-14.543 65.113-37.805c.666-.368 1.008-1.136.837-1.88a1.7 1.7 0 0 0-1.571-1.323L202.87 268.25l-1.815-1.05-2.452 1.417C58.445 336.025-7.397 374.774 1.076 384.867z"/><path d="M445.306 391.315a22.68 22.68 0 0 0-6.179-8.776c2.063-2.168 3.092-5.128 2.82-8.116-.174-1.97-.774-3.88-1.757-5.592-.96-1.706-2.178-3.252-3.61-4.582-1.4-1.34-2.933-2.53-4.576-3.553l-4.963-2.796-1.622-.97c.667-1.195 1.075-2.518 1.197-3.883a15.62 15.62 0 0 0-.232-4.544c-.132-.744-.32-1.478-.56-2.194a12.11 12.11 0 0 0-.927-2.116 14.45 14.45 0 0 0-1.313-1.942c-.5-.577-1.035-1.122-1.603-1.63-.566-.493-1.16-.953-1.777-1.38-.6-.447-1.217-.835-1.93-1.243-2.48-1.474-5.062-2.772-7.724-3.883a64.28 64.28 0 0 0-6.334-7.029c-2.308-2.244-4.74-4.357-7.28-6.33l-3.862-2.835s-2.645-1.806-4.036-2.64l-2.085-1.204s-1.4-.796-2.124-1.146l-4.268-1.942c-3.148-2.893-6.43-5.534-9.655-8.194l-4.943-4.04c-1.64-1.36-3.263-2.738-4.79-4.175l-3.032-2.447-3.05-2.37a114.95 114.95 0 0 0-6.314-4.427c-4.283-2.857-8.806-5.332-13.517-7.398a82.19 82.19 0 0 0-3.611-1.437c-1.217-.447-2.452-.854-3.708-1.204a53.61 53.61 0 0 0-3.862-.932c-1.352-.272-2.55-.485-3.862-.64-1.28-.17-2.57-.275-3.862-.31a33.03 33.03 0 0 0-3.862 0c-1.296.09-2.586.26-3.862.505-1.146.2-2.28.458-3.4.777l-19.85-12.194-20.314-12.272c-.254-.132-.566-.058-.734.175-14.135-9-57.1 42.97-47.56 49.727a1.92 1.92 0 0 0-.328 0 .56.56 0 0 0-.309.214c-.14.238-.072.543.154.7l19.947 13.087 19.638 12.718c.035.093.095.173.174.233l6.044 31.067-.27 1.223.212.95 1.97 8.213c.228 1.05.705 2.03 1.4 2.854.675.683 1.384 1.33 2.124 1.942l1.274 1.146 4.2-2.427 4.963 4.485 8.36 7.514a6.77 6.77 0 0 0 2.665 1.534c1.062.272 1.93.272 2.877.427l5.56.66 11.123 1.34c3.727.447 7.396.835 11.084 1.534l.483.097 3.032.505c1.197.214 2.394.388 3.572.563 3.576.736 7.222 1.068 10.872 1a6.43 6.43 0 0 0 4.982-1.942c1.93-1.806 2.5-6.427 2.5-6.427a81.42 81.42 0 0 1 10.389 8.233l1.93.874c7.608 3.38 15.313 6.524 23.172 9.34 3.862 1.398 7.898 2.66 11.914 3.883a63.95 63.95 0 0 0 12.3 2.466c1.066.097 2.14.097 3.205 0 .547-.043 1.1-.134 1.622-.272.52-.155 1.03-.343 1.525-.563 1.008-.412 1.96-.946 2.84-1.592a6.94 6.94 0 0 0 2.201-2.524 6.28 6.28 0 0 0 .637-2.388c3.56 1.535 7.26 2.725 11.045 3.553 2.226.477 4.503.673 6.778.583 2.333-.1 4.608-.757 6.623-1.942 2.108-1.103 3.778-2.898 4.73-5.087a10.09 10.09 0 0 0-.676-6.582h0z"/></g><path d="M.598 33.624v4.056L50.554 74.4a4.9 4.9 0 0 0 .619.404c3.408 1.7 7.43 1.7 10.84 0l60.35-34.874c1.24-.57 2.086-1.746 2.226-3.095v-1.057L.598 33.624z" fill="url(#A)" transform="translate(181.008 296.617)"/><path d="M303.37 329.337a6.89 6.89 0 0 0-.755-.384l-64.008-31.644-57 32.932 50.014 39.718.62.404c3.408 1.7 7.43 1.7 10.84 0l60.35-34.835c2.98-1.73 2.884-4.5-.058-6.2z" class="J"/><g class="K"><path d="M304.248 331.98c-.105-1.373-.956-2.576-2.212-3.13a6.82 6.82 0 0 0-.75-.386l-63.64-31.848-56.637 33.142v4.075l20.662 15.354V346.6l43.44-25.108 9.792 6.335a.52.52 0 0 0 .173.232l6.022 30.902-.27 1.217 41.208-24.084a3.86 3.86 0 0 0 2.212-3.109v-1.004z" opacity=".6" style="mix-blend-mode:multiply"/><path d="M91.315 160.266l-3.772-.773L109.4 371.5a2.96 2.96 0 0 0 1.567 2.591l2.747 1.18-22.4-215.004z"/></g><path d="M356.666.676c-.836-.312-1.77-.204-2.515.3L90.715 152.92a7.29 7.29 0 0 0-3.172 6.497l2.67 1.18a7.27 7.27 0 0 1 3.192-6.497L356.82 2.107c.744-.49 1.678-.598 2.515-.3l-2.67-1.14z" class="J"/><path d="M356.82 2.107c2.03-1.16 3.87-.097 4.1 2.3l21.858 212.007c.19 2.583-1.03 5.068-3.192 6.497L116.152 374.98c-1.934 1.16-3.87.155-4.08-2.3L90.212 160.653a7.27 7.27 0 0 1 3.192-6.497L356.82 2.107z" fill="#bcb9b5"/><g fill="#191919"><path d="M360.922 4.446c-.25-2.398-2.07-3.46-4.1-2.3L93.404 154.175a7.27 7.27 0 0 0-3.192 6.497l18.802 182.405L379.82 186.85 360.922 4.446z"/><path d="M372.605 183.487L355.215 14.8 97.253 163.65l17.41 168.697z"/></g><path d="M356.666.676a2.76 2.76 0 0 0-2.515.3l2.67 1.18c.744-.5 1.678-.598 2.515-.3l-2.67-1.18zM87.543 159.492l2.67 1.18a7.27 7.27 0 0 1 3.192-6.497l-2.7-1.18a7.29 7.29 0 0 0-3.172 6.497h0z" fill="#e0e0e0"/><path d="M254.52 270.288c-2.8 1.948-4.394 5.37-4.167 8.94.335 3.373 2.772 4.85 5.395 3.273 2.834-1.935 4.443-5.388 4.185-8.98-.335-3.353-2.753-4.8-5.413-3.233zm1.098 10.837c-2.046 1.217-3.906 0-4.167-2.535-.194-2.762 1.043-5.415 3.218-6.905a2.51 2.51 0 0 1 2.821-.16c.89.53 1.42 1.562 1.364 2.655.187 2.776-1.054 5.44-3.237 6.945z" fill="#316cd6"/><path d="M354.5 332.693l-134.153 78.452a4.15 4.15 0 0 1 0 .834 2.3 2.3 0 0 1-.923 2.096l134.19-78.452c.66-.48 1.02-1.278.942-2.096 0-.28-.02-.558-.058-.834h0z" fill="#898581"/><path d="M401.697 362.05h-.096l-50.238-34.055c-.662-.48-1.53-.563-2.27-.213l-134.19 78.452c.743-.34 1.61-.25 2.27.233.212.116 47.737 32.347 50.238 34.055h0c.06.053.106.12.135.194l134.19-78.452-.038-.213z" class="J"/><path d="M401.813 362.265l-134.19 78.452c.29.66.173 1.94-.192 2.232l134.21-78.47c.346-.194.462-1.552.173-2.212z" fill="#bcb9b5"/><path d="M267.4 440.445L217.172 406.4c-1.77-1.028-3.212-.194-3.212 1.94.1 2.273 1.298 4.353 3.193 5.588 1.79 1.048 3.212.194 3.212-1.94a4.15 4.15 0 0 0 0-.834l46.9 31.804c.558.35.75-2.096.135-2.503z" class="K"/><path d="M342.74 336.028v-.888a.91.91 0 0 0 .483.734l5.138 3.36c.634.4 1.43.445 2.105.116l5.795-3.322c.22-.104.368-.317.386-.56v.888c-.036.24-.188.45-.406.56l-5.795 3.322c-.674.33-1.47.285-2.105-.116l-5.138-3.4a.85.85 0 0 1-.464-.695h0zm-8.692 6.123l5.138 3.36c.634.4 1.43.445 2.105.116l5.795-3.34c.22-.098.373-.303.406-.54v-.888c-.02.237-.17.444-.386.54l-5.795 3.34a2.22 2.22 0 0 1-2.105-.116l-5.157-3.36a.87.87 0 0 1-.464-.753v.908a.91.91 0 0 0 .464.734zm-9.252 5.37l5.157 3.38c.63.39 1.416.434 2.086.116l5.795-3.34c.217-.097.365-.304.386-.54v-.908c-.03.244-.183.456-.406.56l-5.795 3.34c-.67.324-1.463.272-2.086-.135l-5.138-3.36a.87.87 0 0 1-.483-.734v.888a.91.91 0 0 0 .386.734h.097zm27.042-6.47v.888a.91.91 0 0 0 .483.734l5.138 3.36c.634.4 1.43.445 2.105.116l5.795-3.322c.218-.1.37-.32.406-.56v-.888c-.022.247-.178.462-.406.56l-5.795 3.322c-.674.33-1.47.285-2.105-.116l-5.138-3.36a.87.87 0 0 1-.502-.734h.02zm-4.462 20.53l-13.52-8.846a1.14 1.14 0 0 1-.599-.927v.888a1.08 1.08 0 0 0 .579.927l13.52 8.865c.787.49 1.768.547 2.608.155l24.086-14.022a.91.91 0 0 0 .502-.695v-.908c-.04.306-.228.573-.502.715l-24.106 14.1a2.61 2.61 0 0 1-2.588-.251h.02zm22.54-8.71v.908a.83.83 0 0 0 .444.715l5.177 3.38a2.2 2.2 0 0 0 2.105.116l5.795-3.322c.218-.1.37-.32.406-.56v-.908c-.02.247-.166.466-.386.58l-5.795 3.322a2.22 2.22 0 0 1-2.105-.116l-5.157-3.38c-.28-.143-.47-.42-.502-.734h.02zm22.503 6.818l-5.795 3.34c-.67.318-1.456.275-2.086-.116l-5.177-3.38a.85.85 0 0 1-.464-.734v.888a.91.91 0 0 0 .483.734l5.157 3.38c.63.39 1.416.434 2.086.116l5.795-3.34c.23-.095.388-.312.406-.56v-.888c-.04.245-.2.455-.425.56h.02zm-24.086 3.69l5.795-3.34c.217-.097.365-.304.386-.54v-.908c-.022.24-.17.453-.386.56l-5.795 3.34a2.22 2.22 0 0 1-2.105-.116l-5.138-3.38a.85.85 0 0 1-.464-.734v.888c.023.306.197.58.464.734l5.157 3.38a2.22 2.22 0 0 0 2.067.116h.02zm14.834 1.7l-5.795 3.322c-.667.324-1.452.288-2.086-.097l-5.157-3.38a.85.85 0 0 1-.464-.734v.888a.85.85 0 0 0 .464.734l5.177 3.38c.63.39 1.416.434 2.086.116l5.795-3.34c.22-.104.368-.317.386-.56v-.888c-.04.245-.2.455-.425.56h.02zm-24.01 2.8a2.22 2.22 0 0 1-2.105-.135l-5.157-3.38a.81.81 0 0 1-.464-.715v.888a.91.91 0 0 0 .464.715l5.177 3.38c.627.397 1.413.448 2.086.135l5.795-3.34c.218-.107.364-.32.386-.56v-.888c-.035.236-.178.443-.386.56l-5.795 3.34zm14.776 2.57l-5.795 3.34c-.663.32-1.443.275-2.067-.116l-5.177-3.38a.91.91 0 0 1-.483-.734v.888a.83.83 0 0 0 .483.734l5.157 3.38c.623.39 1.404.434 2.067.116l5.795-3.322c.218-.1.37-.32.406-.56v-.888c-.024.248-.2.46-.425.54h.04zm-66.6-12.863l5.157 3.38a2.2 2.2 0 0 0 2.105 0l8.692-5.06c.228-.098.383-.313.406-.56v-.908a.79.79 0 0 1-.406.579l-8.71 5.06c-.65.354-1.436.354-2.086 0l-5.157-3.38a.85.85 0 0 1-.464-.753v.908a.85.85 0 0 0 .425.734h.04zm25.226 3.4l-5.795 3.322c-.666.328-1.453.29-2.086-.097l-5.177-3.38a.89.89 0 0 1-.464-.734v.888a.85.85 0 0 0 .464.734l5.157 3.38c.63.39 1.416.434 2.086.116l5.795-3.34c.228-.098.383-.313.406-.56v-.888c-.04.245-.2.455-.425.56h.04zm-34.478 1.93l5.157 3.36c.627.4 1.418.445 2.086.116l5.795-3.322c.23-.105.386-.327.406-.58v-.888c-.027.25-.18.468-.406.58l-5.795 3.322c-.67.318-1.456.275-2.086-.116l-5.177-3.38a.87.87 0 0 1-.464-.734v.888a.85.85 0 0 0 .444.811l.04-.058zm17.384 6.625l-5.157-3.38a.85.85 0 0 1-.464-.734v.888a.89.89 0 0 0 .464.734l5.177 3.38c.633.388 1.42.424 2.086.097l5.795-3.322c.218-.1.37-.32.406-.56v-.888c-.036.24-.188.45-.406.56l-5.795 3.322c-.674.344-1.478.315-2.125-.077l.02-.02zm17.113 3.245l8.692-5.06c.234-.1.4-.325.406-.58v-.888a.79.79 0 0 1-.406.579l-8.71 5.06c-.67.318-1.456.275-2.086-.116l-5.157-3.38a.91.91 0 0 1-.483-.734v.888a.85.85 0 0 0 .464.753l5.157 3.38a2.2 2.2 0 0 0 2.105.155l.02-.058zm12.188 4.133l5.795-3.322c.228-.098.383-.313.406-.56v-.888c-.036.24-.188.45-.406.56l-5.795 3.322c-.65.357-1.437.357-2.086 0l-5.177-3.38a.89.89 0 0 1-.464-.734v.888a.85.85 0 0 0 .464.734l5.157 3.38c.64.372 1.426.394 2.086.058l.02-.058zm-56.015-8.633l5.157 3.38c.63.39 1.416.434 2.086.116l5.795-3.34c.223-.1.372-.316.386-.56v-.888c-.03.244-.183.456-.406.56l-5.795 3.34c-.663.318-1.443.275-2.067-.116l-5.157-3.38a.87.87 0 0 1-.483-.734v.888a.85.85 0 0 0 .522.792l-.04-.058zm17.384 6.625l-5.177-3.38a.87.87 0 0 1-.464-.715v.888a.89.89 0 0 0 .483.715l5.157 3.38c.623.39 1.404.434 2.067.116L314 372.59c.218-.1.37-.32.406-.56v-.888c-.02.237-.17.444-.386.54l-5.795 3.34c-.638.315-1.4.293-2.01-.058l-.077-.058zm17.075 3.264l5.795-3.322c.23-.105.386-.327.406-.58v-.888c-.027.25-.18.468-.406.58l-5.795 3.322c-.67.318-1.456.275-2.086-.116l-5.177-3.38a.85.85 0 0 1-.464-.734v.888a.91.91 0 0 0 .483.734l5.157 3.38c.64.438 1.462.504 2.163.174l-.077-.058zm12.207 4.133l5.795-3.322c.218-.1.37-.32.406-.56v-.908a.79.79 0 0 1-.406.579l-5.795 3.322c-.667.324-1.452.288-2.086-.097l-5.08-3.322a.85.85 0 0 1-.464-.753v.908a.89.89 0 0 0 .464.734l5.177 3.38c.628.38 1.406.417 2.067.097l-.077-.058zm-56.015-8.633l5.157 3.38a2.2 2.2 0 0 0 2.067.116l5.795-3.34c.218-.1.37-.32.406-.56v-.888c-.02.243-.166.457-.386.56l-5.795 3.34c-.665.31-1.44.268-2.067-.116l-5.177-3.38a.85.85 0 0 1-.464-.753v.888a.91.91 0 0 0 .599.811l-.135-.058zm17.384 6.625l-5.157-3.38a.85.85 0 0 1-.464-.734v.908a.87.87 0 0 0 .464.715l5.177 3.38c.623.39 1.404.434 2.067.116l5.795-3.34c.217-.097.365-.304.386-.54v-.908c-.022.24-.17.453-.386.56l-5.795 3.34c-.618.282-1.332.26-1.932-.058l-.155-.058zm17.094 3.264l5.795-3.34c.223-.1.372-.316.386-.56v-.888c-.036.24-.188.45-.406.56l-5.795 3.34c-.663.32-1.443.275-2.067-.116l-4.945-3.34a.87.87 0 0 1-.483-.753v.908a.91.91 0 0 0 .483.734l5.157 3.38c.613.376 1.37.427 2.028.135l-.155-.058zm12.188 4.133l5.795-3.34c.215-.104.366-.305.406-.54v-.908c-.014.244-.163.46-.386.56l-5.563 3.477c-.663.318-1.443.275-2.067-.116l-5.177-3.38a.85.85 0 0 1-.464-.734v.888a.87.87 0 0 0 .483.734l5.157 3.38c.637.366 1.417.38 2.067.04l-.25-.058zm-55.764-8.48l5.177 3.38c.626.384 1.402.427 2.067.116l5.795-3.34c.22-.104.368-.317.386-.56v-.888c-.03.24-.174.448-.386.56l-5.795 3.34a2.22 2.22 0 0 1-2.086-.116l-5.157-3.477a.87.87 0 0 1-.464-.753v.888a.89.89 0 0 0 .464.85h0zm17.384 6.625l-5.157-3.38a.85.85 0 0 1-.464-.734v.888a.85.85 0 0 0 .464.734l5.157 3.38c.63.39 1.416.434 2.086.116l5.795-3.34c.218-.107.364-.32.386-.56v-.888c-.03.244-.183.456-.406.56l-5.795 3.34c-.68.283-1.458.203-2.067-.212v.097zm17.075 3.264l5.795-3.34c.218-.1.37-.32.406-.56v-.888c-.02.243-.166.457-.386.56l-5.795 3.34c-.665.31-1.44.268-2.067-.116l-5.177-3.38a.89.89 0 0 1-.464-.753v.888a.87.87 0 0 0 .483.753l5.157 3.38a2.2 2.2 0 0 0 2.047.019v.097zm12.207 4.133l5.795-3.34c.223-.1.372-.316.386-.56v-.888c-.022.24-.17.453-.386.56l-5.795 3.34c-.67.318-1.456.275-2.086-.116l-5.157-3.38a.91.91 0 0 1-.483-.734v.888a.85.85 0 0 0 .464.734l5.177 3.38c.645.367 1.434.374 2.086.02v.097zm-56.015-8.633l5.157 3.38a2.22 2.22 0 0 0 2.086.116l5.795-3.34c.22-.104.368-.317.386-.56v-.888c-.03.244-.183.456-.406.56l-5.795 3.322c-.663.318-1.443.275-2.067-.116l-5.157-3.38a.91.91 0 0 1-.483-.734v.888a.87.87 0 0 0 .541.657l-.058.097zm17.384 6.625l-5.157-3.38c-.267-.153-.44-.428-.464-.734v.888a.85.85 0 0 0 .464.734l5.157 3.38c.626.384 1.402.427 2.067.116l5.795-3.34c.223-.104.376-.316.406-.56v-.888c-.036.24-.188.45-.406.56l-5.795 3.34a2.22 2.22 0 0 1-1.989-.212l-.077.097zm17.094 3.264l5.795-3.34c.22-.104.368-.317.386-.56v-.888c-.03.24-.174.448-.386.56l-5.795 3.322c-.67.318-1.456.275-2.086-.116l-5.157-3.38a.91.91 0 0 1-.483-.734v.888a.89.89 0 0 0 .464.753l5.312 3.283c.616.37 1.374.413 2.028.116l-.077.097zm12.207 4.133l5.795-3.34c.218-.107.364-.32.386-.56v-.888c-.036.24-.188.45-.406.56l-5.795 3.34c-.665.31-1.44.268-2.067-.116l-5.157-3.38a.91.91 0 0 1-.483-.753v.908a.85.85 0 0 0 .464.734l5.157 3.38a2.22 2.22 0 0 0 2.183.019l-.077.097zm-56.015-8.653l5.157 3.38c.623.39 1.404.434 2.067.116l5.795-3.322c.23-.105.386-.327.406-.58v-.888c-.03.244-.183.456-.406.56l-5.795 3.34c-.67.318-1.456.275-2.086-.116l-5.157-3.38a.85.85 0 0 1-.464-.734v.888a.91.91 0 0 0 .618.637l-.135.097zm17.384 6.644l-5.157-3.38a.85.85 0 0 1-.464-.734v.888c.023.306.197.58.464.734l5.157 3.38a2.22 2.22 0 0 0 2.086.116l5.795-3.34c.218-.1.37-.32.406-.56v-.908a.79.79 0 0 1-.406.579l-5.795 3.34a2.22 2.22 0 0 1-1.932-.135l-.155.02zm17.094 3.245l5.795-3.322c.22-.104.368-.317.386-.56v-.888c-.033.243-.185.453-.406.56l-5.795 3.322c-.663.32-1.443.275-2.067-.116l-5.157-3.38a.83.83 0 0 1-.483-.734v.888a.91.91 0 0 0 .483.734l5.157 3.38c.686.42 1.547.426 2.24.02l-.155.097zm12.188 4.153l5.795-3.34c.223-.105.376-.316.406-.56v-.888c-.036.24-.188.45-.406.56l-5.795 3.34a2.22 2.22 0 0 1-2.086-.116l-5.157-3.38a.85.85 0 0 1-.464-.753v.888a.91.91 0 0 0 .483.753l5.157 3.38c.682.41 1.533.418 2.22.02l-.155.097zm-56.015-8.653l5.157 3.38a2.22 2.22 0 0 0 2.105.116l5.795-3.34c.223-.105.376-.316.406-.56v-.888c-.03.244-.183.456-.406.56l-5.795 3.34c-.67.318-1.456.275-2.086-.116l-5.157-3.38a.85.85 0 0 1-.464-.734v.888a.89.89 0 0 0 .657.637l-.212.097zm17.384 6.625l-4.925-3.457a.87.87 0 0 1-.444-.734v.888a.85.85 0 0 0 .464.734l5.157 3.38c.634.384 1.42.42 2.086.097l5.795-3.322a.79.79 0 0 0 .406-.579v-.888c-.02.253-.175.475-.406.58l-5.795 3.322c-.67.318-1.456.275-2.086-.116l-.25.097zm17.075 3.264l5.795-3.322c.23-.105.386-.327.406-.58v-.888c-.03.244-.183.456-.406.56l-5.795 3.34c-.67.318-1.456.275-2.086-.116l-5.157-3.38a.85.85 0 0 1-.464-.734v.888a.83.83 0 0 0 .483.734l5.157 3.38c.702.46 1.608.467 2.318.02l-.25.097zm12.207 4.153l5.795-3.34c.218-.1.37-.32.406-.56v-.888c-.02.243-.166.457-.386.56l-5.795 3.322c-.67.318-1.456.275-2.086-.116l-5.157-3.36a.87.87 0 0 1-.464-.753v.888a.85.85 0 0 0 .464.753l5.157 3.38a2.22 2.22 0 0 0 2.318.019l-.25.097zm70.212-30.73l-8.71 5.06c-.65.354-1.436.354-2.086 0l-5.157-3.38a.85.85 0 0 1-.464-.753v.908a.85.85 0 0 0 .464.734l5.157 3.38a2.2 2.2 0 0 0 2.105.097l8.692-5.06c.228-.098.383-.313.406-.56v-.908c-.058.213-.206.39-.406.483zm-12.014 7.108l-42.88 24.935c-.67.318-1.456.275-2.086-.116l-5.157-3.38a.85.85 0 0 1-.464-.734v.888a.85.85 0 0 0 .464.734l5.157 3.38c.63.39 1.416.434 2.086.116l42.88-24.935c.223-.105.376-.316.406-.56v-.888c-.01.234-.142.446-.348.56h-.058zm-113.96 14.872l5.157 3.38c.63.39 1.416.434 2.086.116l5.795-3.34c.218-.1.37-.32.406-.56v-.888c-.02.243-.166.457-.386.56l-5.795 3.34c-.67.318-1.456.275-2.086-.116l-5.177-3.38c-.267-.153-.44-.428-.464-.734v.888a.85.85 0 0 0 .522.734h-.058zm17.384 6.625l-5.157-3.38a.87.87 0 0 1-.464-.715v.888a.81.81 0 0 0 .444.715l5.215 3.4c.63.39 1.416.434 2.086.116l5.795-3.322c.23-.105.386-.327.406-.58v-.888a.79.79 0 0 1-.406.579l-5.795 3.322a2.22 2.22 0 0 1-2.047-.135h-.077zm17.152 2.376c-.67.318-1.456.275-2.086-.116l-4.983-3.283a.91.91 0 0 1-.483-.734v.888a.85.85 0 0 0 .464.734l5.157 3.38a2.22 2.22 0 0 0 2.105.116l5.795-3.34c.223-.104.376-.316.406-.56v-.888c-.036.24-.188.45-.406.56l-5.968 3.245zm12.15 5.022l5.795-3.322a.79.79 0 0 0 .406-.579v-.888c-.02.253-.175.475-.406.58l-5.795 3.322c-.67.318-1.456.275-2.086-.116l-5.177-3.38c-.267-.153-.44-.428-.464-.734v.888a.85.85 0 0 0 .464.753l5.157 3.36c.66.434 1.5.478 2.202.116h-.097zm20.803-1.93l-5.795 3.34a2.22 2.22 0 0 1-2.086-.116l-5.1-3.438a.85.85 0 0 1-.464-.753v.888a.89.89 0 0 0 .464.753l5.177 3.38c.626.384 1.402.427 2.067.116l5.795-3.34c.228-.098.383-.313.406-.56v-.908c-.026.245-.17.46-.386.58l-.077.058zm-63.393-7.05v-.888c-.03.24-.174.448-.386.56l-5.795 3.322c-.67.318-1.456.275-2.086-.116l-5.157-3.38a.91.91 0 0 1-.483-.734v.888a.87.87 0 0 0 .464.753l5.157 3.38c.63.39 1.416.434 2.086.116l5.795-3.34c.276-.082.47-.33.483-.618l-.077.058zm12.207 4.133v-.888c-.036.24-.188.45-.406.56l-8.71 5.08c-.67.318-1.456.275-2.086-.116l-5.157-3.38a.85.85 0 0 1-.464-.734v.888a.89.89 0 0 0 .464.734l5.177 3.38c.623.39 1.404.434 2.067.116l8.73-5.08c.265-.093.448-.337.464-.618l-.077.058zm1.68 2.665l5.234 3.42c.63.39 1.416.434 2.086.116l5.795-3.34c.218-.1.37-.32.406-.56v-.888c-.02.243-.166.457-.386.56l-5.795 3.322c-.666.328-1.453.29-2.086-.097l-5.177-3.38a.85.85 0 0 1-.464-.734v.888a.91.91 0 0 0 .464.637l-.077.058zm12.188 4.133l5.177 3.38c.63.39 1.416.434 2.086.116l5.795-3.322c.23-.105.386-.327.406-.58v-.888c-.03.244-.183.456-.406.56l-5.795 3.34a2.22 2.22 0 0 1-2.105-.116l-5.157-3.38a.85.85 0 0 1-.464-.734v.888c.058.3.26.554.54.676l-.077.058zm28.046 1.507l-5.795 3.322c-.67.318-1.456.275-2.086-.116l-5.003-3.496a.85.85 0 0 1-.464-.753v.888a.85.85 0 0 0 .464.753l5.157 3.38a2.2 2.2 0 0 0 2.105.097l5.795-3.322a.79.79 0 0 0 .406-.579v-.888c.007.285-.162.546-.425.657l-.155.058zm-36.12-.657v-.888c-.03.24-.174.448-.386.56l-5.795 3.322c-.67.318-1.456.275-2.086-.116l-5.157-3.38a.87.87 0 0 1-.483-.734v.888a.91.91 0 0 0 .483.734l5.157 3.38c.63.39 1.416.434 2.086.116l5.795-3.322c.27-.09.454-.335.464-.618l-.077.058zm12.207 4.133v-.888c-.036.24-.188.45-.406.56l-8.71 5.08c-.67.318-1.456.275-2.086-.116l-5.157-3.38c-.277-.154-.458-.437-.483-.753V423a.85.85 0 0 0 .464.753l5.177 3.38c.623.39 1.404.434 2.067.116l8.73-5.08c.267-.096.455-.336.483-.618l-.077.058zm14.68 1.93l-5.795 3.34c-.67.318-1.456.275-2.086-.116l-5.177-3.38a.89.89 0 0 1-.464-.734v.888a.85.85 0 0 0 .464.753l5.254 3.206c.63.39 1.416.434 2.086.116l5.795-3.34c.223-.105.376-.316.406-.56v-.888c.005.27-.156.515-.406.618l-.077.097zm-9.27 5.39l-5.795 3.34c-.663.318-1.443.275-2.067-.116l-5.157-3.38a.87.87 0 0 1-.483-.753v.908a.85.85 0 0 0 .464.734l5.157 3.38c.63.39 1.416.434 2.086.116l5.795-3.34c.223-.1.372-.316.386-.56v-.888c-.04.188-.15.354-.31.464l-.077.097z" fill="#e0dbe1"/><path d="M343.15 334.855l5.8-3.347c.668-.332 1.46-.288 2.088.117l5.163 3.386c.6.41.638.992 0 1.323l-5.8 3.347c-.675.332-1.473.287-2.108-.117l-5.144-3.386c-.54-.41-.56-.992 0-1.323zm-9.146 6.752l5.163 3.386a2.21 2.21 0 0 0 2.108.117l5.8-3.366c.54-.31.522-.895 0-1.304l-5.337-3.405c-.628-.4-1.414-.45-2.088-.136l-5.8 3.366c-.522.35-.503.934.155 1.343zm-9.243 5.41l5.144 3.386c.624.41 1.417.462 2.088.136l5.8-3.366c.56-.31.54-.895 0-1.304l-5.144-3.386c-.628-.4-1.414-.45-2.088-.136l-5.8 3.366c-.715.33-.677.895-.058 1.304h.058zm27.574-4.884l5.144 3.386c.635.404 1.433.448 2.108.117l5.8-3.347c.56-.33.54-.915 0-1.304l-5.163-3.405a2.21 2.21 0 0 0-2.108-.117l-5.8 3.347c-.677.33-.657.915-.04 1.323h.058zm5.337 5.526l-6.787-4.475a2.73 2.73 0 0 0-2.61-.156l-14.54 8.503c-.696.428-.638 1.148.097 1.634l13.536 8.912c.775.51 1.76.57 2.59.156l24.132-14.107c.696-.41.657-1.148 0-1.634l-5.028-3.327c-.532-.31-1.178-.345-1.74-.097l-8.12 4.67a1.48 1.48 0 0 1-1.586-.078h.058zm12.743 6.382l5.163 3.405a2.21 2.21 0 0 0 2.108.117l5.8-3.347c.56-.33.522-.934 0-1.323l-5.163-3.405c-.635-.387-1.42-.424-2.088-.097l-5.8 3.347c-.696.33-.657.915-.077 1.304h.058zm22.005 4.826l-5.163-3.405a2.21 2.21 0 0 0-2.108-.117l-5.8 3.366c-.56.33-.54.915 0 1.304l5.182 3.405c.63.393 1.418.437 2.088.117l5.8-3.366c.56-.33.54-.915-.058-1.304h.058zm-23.997 4.125l5.8-3.366c.54-.33.503-.915 0-1.304l-5.414-3.405c-.626-.386-1.404-.43-2.07-.117l-5.8 3.366c-.56.33-.54.915 0 1.304l5.163 3.405a2.21 2.21 0 0 0 2.262.117h.058zm14.734 1.304l-5.163-3.405a2.21 2.21 0 0 0-2.108-.117l-5.8 3.347c-.56.33-.522.915 0 1.323l5.163 3.405c.635.387 1.42.424 2.088.097l5.8-3.347c.58-.33.56-.915-.04-1.323l.058.02zm-23.513-3.892c-.624-.394-1.405-.438-2.07-.117l-5.8 3.366c-.58.33-.54.895 0 1.284l5.163 3.405a2.21 2.21 0 0 0 2.108.136l5.8-3.366c.54-.33.503-.915-.097-1.304l-5.105-3.405zm14.25 9.38l-5.182-3.405c-.63-.393-1.418-.437-2.088-.117l-5.8 3.347c-.56.33-.522.915 0 1.304l5.182 3.405c.624.394 1.405.438 2.07.117l5.8-3.366c.58-.37.54-.953-.04-1.343l.058.058zm-66.557-12.57l5.163 3.405c.65.356 1.437.356 2.088 0l8.72-5.098c.56-.33.54-.915 0-1.304l-5.163-3.405a2.21 2.21 0 0 0-2.108-.117l-8.72 5.098c-.677.37-.638.973-.04 1.362l.058.058zm25.138 3.016l-5.163-3.405a2.21 2.21 0 0 0-2.108-.117l-5.8 3.366c-.56.31-.522.915 0 1.304l5.182 3.405c.633.39 1.422.427 2.088.097l5.8-3.347c.56-.39.54-.973-.058-1.362l.058.058zm-34.42 2.393l5.182 3.405c.63.393 1.418.437 2.088.117l5.8-3.347c.56-.33.54-.915 0-1.304l-5.163-3.405a2.21 2.21 0 0 0-2.108-.117l-5.8 3.347c-.677.272-.638.856-.058 1.245l.058.058zm17.886-.486l-5.8 3.347c-.56.33-.522.934 0 1.323l5.163 3.405c.65.356 1.437.356 2.088 0l5.8-3.347c.56-.33.54-.915 0-1.304l-5.163-3.405a2.21 2.21 0 0 0-2.146-.078l.058.058zm16.668 10.45l8.72-5.098c.56-.33.54-.915 0-1.304l-5.163-3.405c-.635-.404-1.433-.448-2.108-.117l-8.72 5.098c-.56.33-.54.915 0 1.304l5.163 3.405c.63.36 1.4.383 2.05.058l.058.058zm12.22 4.164l5.8-3.347c.56-.33.54-.915 0-1.304l-5.163-3.405a2.21 2.21 0 0 0-2.108-.117l-5.8 3.347c-.56.33-.522.934 0 1.323l5.182 3.405c.628.35 1.39.366 2.03.04l.058.058zm-56.076-8.698l5.163 3.405c.624.394 1.405.438 2.07.117l5.8-3.366c.56-.33.54-.895 0-1.284l-5.163-3.405a2.23 2.23 0 0 0-2.088-.136l-5.8 3.366c-.638.272-.58.856.02 1.245v.058zm17.886-.486l-5.8 3.366c-.56.33-.522.895 0 1.284l5.182 3.405c.624.394 1.405.438 2.07.117l5.8-3.366c.56-.31.522-.895 0-1.284l-5.182-3.405c-.614-.413-1.395-.48-2.07-.175v.058zm16.65 10.45l5.8-3.347c.56-.33.54-.915 0-1.304l-5.163-3.405c-.635-.404-1.433-.448-2.108-.117l-5.8 3.347c-.56.33-.54.915 0 1.304l5.182 3.405c.65.356 1.437.356 2.088 0v.117zm12.2 4.164l5.8-3.347c.56-.33.54-.915 0-1.304l-5.356-3.522a2.21 2.21 0 0 0-1.934 0l-5.8 3.347c-.56.33-.522.934 0 1.323l5.163 3.405c.654.383 1.46.398 2.127.04v.058zm-56.076-8.698l5.182 3.405c.626.386 1.404.43 2.07.117l5.8-3.366c.56-.33.522-.915 0-1.304l-5.182-3.405c-.63-.393-1.418-.437-2.088-.117l-5.8 3.366c-.54.253-.503.856.077 1.245l-.058.058zm17.886-.486l-5.8 3.366c-.56.33-.522.895 0 1.284l5.163 3.405c.63.393 1.418.437 2.088.117l5.8-3.366c.54-.31.522-.895 0-1.284l-5.163-3.405c-.607-.392-1.366-.457-2.03-.175l-.058.058zm16.65 10.45l5.8-3.366c.56-.33.54-.915 0-1.304l-5.163-3.405c-.63-.393-1.418-.437-2.088-.117l-5.8 3.366c-.58.33-.54.895 0 1.304l5.163 3.405c.654.404 1.472.426 2.146.058l-.058.058zm12.317 4.183l5.8-3.366c.56-.31.522-.895 0-1.284l-5.182-3.405a2.23 2.23 0 0 0-2.088-.136L319 382.8c-.56.33-.503.915 0 1.304l5.182 3.405c.63.4 1.42.445 2.088.117zm-56.076-8.698l5.163 3.405a2.21 2.21 0 0 0 2.088.117l5.8-3.366c.54-.33.522-.915 0-1.304l-5.318-3.483c-.63-.393-1.418-.437-2.088-.117l-5.8 3.366c-.464.35-.425.915.155 1.304v.078zm17.886-.486l-5.8 3.347c-.54.33-.522.915 0 1.304l5.163 3.405c.626.386 1.404.43 2.07.117l5.8-3.366c.56-.31.522-.895 0-1.284l-5.163-3.405c-.608-.405-1.377-.478-2.05-.195l-.02.078zm16.65 10.45l5.8-3.366c.56-.33.522-.915 0-1.304l-5.182-3.405c-.63-.393-1.418-.437-2.088-.117l-5.8 3.366c-.54.31-.522.895 0 1.304l5.182 3.405c.65.376 1.445.4 2.108.04l-.02.078zm12.22 4.164l5.8-3.366c.54-.31.522-.895 0-1.284l-5.163-3.405a2.23 2.23 0 0 0-2.088-.136l-5.8 3.366c-.56.33-.522.915 0 1.304l5.163 3.405c.65.376 1.445.4 2.108.04l-.02.078zm-56.076-8.717l5.163 3.405c.624.394 1.405.438 2.07.117l5.8-3.347c.58-.33.522-.915 0-1.304l-5.163-3.405a2.21 2.21 0 0 0-2.108-.117l-5.8 3.347c-.522.253-.483.837.116 1.226l-.077.078zm17.886-.486l-5.8 3.366c-.56.33-.522.915 0 1.304l5.163 3.405a2.21 2.21 0 0 0 2.088.117l5.8-3.366c.56-.33.522-.915 0-1.304l-5.163-3.405c-.592-.404-1.343-.492-2.01-.233l-.077.117zm16.65 10.45l5.8-3.347c.54-.33.522-.915 0-1.304l-5.163-3.405c-.63-.393-1.418-.437-2.088-.117l-5.8 3.366c-.56.31-.522.895 0 1.284l5.163 3.405c.664.397 1.488.412 2.166.04l-.077.078zm12.2 4.183l5.8-3.366c.56-.33.522-.915 0-1.304l-5.163-3.386a2.21 2.21 0 0 0-2.108-.136l-5.8 3.366c-.54.31-.503.915.097 1.304l5.163 3.405c.644.37 1.43.383 2.088.04l-.077.078zm-56.076-8.717l5.163 3.405c.63.393 1.418.437 2.088.117l5.8-3.366c.56-.31.54-.895 0-1.284l-5.163-3.405a2.21 2.21 0 0 0-2.108-.117l-5.8 3.347c-.464.253-.425.837.155 1.226l-.135.078zm17.886-.486l-5.8 3.366c-.54.33-.522.915 0 1.304l5.163 3.405a2.21 2.21 0 0 0 2.088.117l5.8-3.366c.56-.33.522-.915 0-1.304l-5.163-3.405a2.21 2.21 0 0 0-1.953-.195l-.135.078zm16.65 10.45l5.8-3.347c.58-.33.522-.915 0-1.304l-5.144-3.56a2.21 2.21 0 0 0-2.108-.117l-5.8 3.347c-.54.33-.522.915 0 1.304l5.163 3.405c.647.478 1.505.553 2.224.195l-.135.078zm12.22 4.183l5.8-3.366c.56-.33.522-.915 0-1.304l-5.163-3.405c-.63-.393-1.418-.437-2.088-.117l-5.8 3.366c-.56.31-.503.915 0 1.304l5.163 3.405a2.21 2.21 0 0 0 2.224.039l-.135.078zm-56.076-8.717l5.163 3.405c.63.393 1.418.437 2.088.117l5.8-3.366c.56-.33.522-.915 0-1.304l-5.163-3.405a2.21 2.21 0 0 0-2.108-.117l-5.8 3.366c-.425.253-.387.837.213 1.226l-.193.078zm17.886-.486l-5.8 3.366c-.58.33-.54.915 0 1.304l5.182 3.386c.63.393 1.418.437 2.088.117l5.8-3.347c.56-.33.54-.915 0-1.304l-4.91-3.483c-.65-.422-1.474-.467-2.166-.117l-.193.078zm16.65 10.45l5.8-3.366c.56-.33.54-.915 0-1.304l-5.163-3.386c-.63-.4-1.43-.462-2.108-.136l-5.8 3.366c-.54.33-.522.915 0 1.304l5.163 3.405c.686.47 1.578.507 2.3.097l-.193.02zm12.22 4.164l5.8-3.347c.56-.33.522-.915 0-1.304l-5.105-3.425c-.63-.393-1.418-.437-2.088-.117l-5.8 3.366c-.56.31-.522.915 0 1.304l5.163 3.386c.675.426 1.527.448 2.224.058l-.193.078zm70.172-31.327l-5.163-3.405a2.21 2.21 0 0 0-2.108-.117l-8.72 5.098c-.56.33-.522.934 0 1.323l5.163 3.405c.65.356 1.437.356 2.088 0l8.72-5.098c.638-.233.62-.817.02-1.206zm-12.047 7.16l-5.163-3.366c-.63-.393-1.418-.437-2.088-.117l-42.927 25.12c-.54.33-.522.915 0 1.304l5.163 3.405c.63.393 1.418.437 2.088.117l42.927-25.12c.638-.37.6-.953 0-1.343zm-113.97 15.39l5.182 3.405c.63.393 1.418.437 2.088.117l5.8-3.366c.54-.33.522-.915 0-1.304l-5.163-3.405c-.63-.393-1.418-.437-2.088-.117l-5.8 3.366c-.638.33-.6.915-.02 1.304h0zm17.906-.486l-5.8 3.347c-.56.33-.54.915 0 1.304l5.163 3.405a2.21 2.21 0 0 0 2.108.117l5.8-3.347c.56-.33.54-.915 0-1.304l-5.163-3.405c-.636-.4-1.432-.445-2.108-.117h0zm17.17 2.374a2.21 2.21 0 0 0-2.108-.117l-5.8 3.366c-.56.33-.522.915 0 1.304l5.163 3.405c.63.393 1.418.437 2.088.117l5.8-3.366c.56-.33.522-.915 0-1.304l-5.144-3.405zm11.66 12.24l5.8-3.347c.56-.33.54-.915 0-1.304l-5.163-3.405a2.21 2.21 0 0 0-2.108-.117l-5.8 3.347c-.56.33-.522.915 0 1.304l5.182 3.405c.63.393 1.418.437 2.088.117zm20.71-2.413l-5.163-3.405a2.21 2.21 0 0 0-2.108-.117l-5.8 3.366c-.56.31-.522.915 0 1.304l5.163 3.405a2.21 2.21 0 0 0 2.088.117l5.8-3.366c.677-.33.58-.915.058-1.304h-.04zm-63.81-7.433l-5.163-3.405c-.602-.385-1.352-.45-2.01-.175l-5.8 3.347c-.58.33-.522.915 0 1.304l5.163 3.405c.63.393 1.418.437 2.088.117l5.8-3.347c.58-.272.483-.934-.04-1.245h-.04zM248.98 409l-5.182-3.386a2.19 2.19 0 0 0-2.069-.136l-8.74 5.117c-.56.33-.522.915 0 1.304l5.163 3.405c.63.393 1.418.437 2.088.117l8.72-5.117c.677-.33.638-.915.058-1.265l-.04-.04zm2.127 3.425l5.182 3.405c.633.39 1.422.427 2.088.097l5.8-3.347c.54-.33.522-.915 0-1.304l-5.163-3.405c-.63-.393-1.418-.437-2.088-.117l-5.8 3.366c-.6.31-.58.895.02 1.304h-.04zm12.22 4.164l5.163 3.405a2.21 2.21 0 0 0 2.108.117l5.8-3.366c.56-.33.54-.915 0-1.304l-5.163-3.386a2.21 2.21 0 0 0-2.108-.136l-5.8 3.366c-.6.33-.56.915.04 1.304h-.04zm27.98 1.11l-5.182-3.405c-.63-.393-1.418-.437-2.088-.117l-5.8 3.347c-.56.33-.522.934 0 1.323l5.163 3.386c.63.393 1.418.437 2.088.117l5.8-3.347c.677-.233.638-.915.058-1.304h-.04zm-36.527-.992l-5.163-3.405c-.63-.393-1.418-.437-2.088-.117l-5.8 3.347c-.58.33-.522.915 0 1.304l5.163 3.405c.63.393 1.418.437 2.088.117l5.8-3.347c.657-.33.638-.915.04-1.304h-.04zm12.22 4.164l-5.182-3.405c-.63-.393-1.418-.437-2.088-.117l-8.72 5.117c-.58.33-.522.915 0 1.304l5.163 3.405c.63.393 1.418.437 2.088.117l8.72-5.117c.677-.33.638-.915.058-1.304h-.04zm15.025 2.257l-5.163-3.405a2.23 2.23 0 0 0-2.088-.136l-5.8 3.366c-.56.33-.522.915 0 1.304l5.182 3.405c.63.393 1.418.437 2.088.117l5.8-3.366c.638-.31.62-.895.02-1.284h-.04zm-9.224 5.37l-5.163-3.386c-.628-.4-1.414-.45-2.088-.136l-5.8 3.366c-.58.33-.522.915 0 1.304l5.163 3.405c.624.394 1.405.438 2.07.117l5.8-3.366c.638-.292.62-.856.02-1.304z" fill="#fffefb"/><path fill="#fff" opacity=".95" d="M127.09 204.14v148.334L398.603 194.56V46.226z"/><path fill="#0286a4" d="M398.603 11.557L127.09 169.42v40.523L398.603 52.06z"/><path d="M404.214 361.63l-.117-.2H404l-50.915-33.563a2.32 2.32 0 0 0-2.3-.21l-77.347 43.985 5.03 4.418 8.44 7.4c.767.7 1.687 1.216 2.7 1.51 1.072.268 1.95.268 2.904.42l5.614.65 11.228 1.32c3.762.44 7.466.822 11.19 1.51l.487.096 3.06.497c1.21.2 2.417.382 3.606.555 3.6.725 7.29 1.052 10.974.975a6.58 6.58 0 0 0 5.029-1.912c1.95-1.78 2.534-6.33 2.534-6.33 3.725 2.392 7.246 5.078 10.526 8.032l47.29-26.965c.35-.19.468-1.53.175-2.18z" opacity=".6" style="mix-blend-mode:multiply" class="K"/><path d="M294.724 166.616l.44.233-8.665-5.043c-5.478-3.104-12.98-2.58-21.243 2.27-16.758 9.815-30.33 33.732-30.33 53.382 0 9.93 3.474 16.895 9.085 20.057l8.436 4.946.23.155h-.095c5.478 3.162 13.017 2.677 21.34-2.21 16.758-9.815 30.33-33.713 30.33-53.382 0-10.3-3.665-17.34-9.524-20.406z" fill="#fff"/><ellipse transform="matrix(.5 -.866025 .866025 .5 210.151469 217.999144)" cx="43.22" cy="49.113" rx="42.375" ry="24.489" fill="#e2e2e2" class="C"/><g transform="translate(206.041 150.235)"><g class="G"><path d="M258.426 157.772a25.43 25.43 0 0 0-6.888-9.647 12.12 12.12 0 0 0 1.935-2.547c1.043-1.972 1.487-4.205 1.277-6.425-.19-2.18-.85-4.293-1.935-6.194-1.08-1.882-2.437-3.592-4.025-5.074-1.57-1.452-3.28-2.745-5.108-3.86l-5.534-3.106-1.82-1.06a10.88 10.88 0 0 0 1.335-4.264 18.26 18.26 0 0 0-.89-7.448 12.06 12.06 0 0 0-1.025-2.354 15.78 15.78 0 0 0-1.471-2.103c-.56-.63-1.153-1.23-1.78-1.794l-1.935-1.544-2.07-1.35a66.6 66.6 0 0 0-8.572-4.226c-2.167-2.743-4.534-5.322-7.082-7.718-2.574-2.478-5.28-4.816-8.107-7.004a138.79 138.79 0 0 0-4.354-3.164c-1.47-1.023-2.96-1.93-4.508-2.894-.755-.463-1.548-.926-2.322-1.33s-1.567-.888-2.38-1.273c-1.548-.8-3.154-1.524-4.76-2.22-3.502-3.203-7.178-6.116-10.835-9.05l-5.65-4.61c-1.82-1.505-3.638-3-5.34-4.61l-3.386-2.7c-1.122-.888-2.244-1.756-3.405-2.605a110.84 110.84 0 0 0-7.043-4.901c-4.787-3.22-9.85-6.008-15.13-8.335a72.51 72.51 0 0 0-4.025-1.582c-1.354-.482-2.728-.945-4.12-1.33a79.1 79.1 0 0 0-4.218-1.042c-1.412-.31-2.864-.54-4.315-.695a40.94 40.94 0 0 0-4.354-.347 36.75 36.75 0 0 0-4.373 0c-2.755.21-5.484.69-8.146 1.428L79.93 15.28 57.273 1.775c-.3-.174-.58.386-.85.212C40.768-8.142-9.133 50.668 1.74 57.942a.55.55 0 0 0-.547-.019c-.173.092-.283.268-.3.463s.09.38.257.482l22.27 14.5 21.903 14.085c.04.095.1.18.174.25l5.495 23.77 2.883 12.136 1.45 6.06.735 3.03a7.17 7.17 0 0 0 1.548 3.145 30.42 30.42 0 0 0 2.361 2.219l2.34 2.084 13.97 12.464a7.24 7.24 0 0 0 2.98 1.698 26.56 26.56 0 0 0 3.193.463l6.21.752L101.08 157c4.16.482 8.262.926 12.364 1.68s8.204 1.428 12.364 1.93a57.08 57.08 0 0 0 6.308.463c1.083.02 2.165-.063 3.23-.25.57-.098 1.13-.26 1.664-.482.514-.25 1-.555 1.45-.907 1.773-1.472 2.835-3.625 2.922-5.923a11.95 11.95 0 0 0-.387-3.859c2.167 1.293 4.354 2.547 6.637 3.647 4.16 2.084 8.36 4.033 12.616 5.904 8.494 3.743 17.085 7.235 25.85 10.323a198.95 198.95 0 0 0 13.273 4.245c4.474 1.35 9.068 2.268 13.718 2.74a22.18 22.18 0 0 0 3.58 0c.606-.065 1.207-.168 1.8-.31.64-.174 1.2-.424 1.722-.617 1.13-.448 2.195-1.038 3.173-1.756a7.9 7.9 0 0 0 2.457-2.817c.406-.82.643-1.712.697-2.624 3.974 1.66 8.094 2.952 12.306 3.86 2.486.52 5.027.735 7.565.637a16.21 16.21 0 0 0 7.391-2.084c2.354-1.228 4.222-3.214 5.302-5.634.638-2.466.405-5.075-.658-7.4z"/><path d="M236.503 110.442a16.16 16.16 0 0 0-8.901-11.017l-8.378-4.033c-3.87-3.434-7.546-8.51-11.764-10.98-6.126-6.127-13.268-11.154-21.1-14.857-6.87-3.396-17.782-13.99-22.213-18.253-3.154-2.335-33.725-29.54-62.246-21.224L56.944 2.354 3.038 58.443l88.56 52.75L128.36 97.69l20.007-8.914c2.732.865 5.396 1.93 7.972 3.184 3.502 1.775 6.792 3.86 10.158 5.788 8.804 5.132 58.047 27.418 65.05 24.87 5.244-1.717 5.96-7.293 4.953-12.175z"/><path d="M162.3 116.076c4.083 2.065 27.456 14.915 31.403 17.21 10.274 5.98 47.966 21.09 55.26 16.207a11.29 11.29 0 0 0 4.179-14.51c-2.244-5.306-14.01-12.773-19.117-15.436s-10.68-4.34-15.847-6.888c-14.686-7.197-44.812-30.87-58.047-40.52-3.696-2.72-7.585-5.152-11.377-7.718a83.5 83.5 0 0 0-14.105-8.509 21.59 21.59 0 0 0-16.06-.945c-5.127 2.026-9.094 7.41-8.262 12.83.46 2.155 1.272 4.22 2.4 6.116 4.663 8.914 8.862 21.745 16.97 28.286 8.997 7.197 22.464 8.72 32.603 13.873z"/></g><path d="M200.824 119.395a55.3 55.3 0 0 1-10.41-8.104c-7.004-6.946-17.414-11.2-26.237-15.687-3.386-1.737-11.222-8.702-13.544-10.477l-5.127 3.05c.07.955-.616 1.8-1.567 1.93-.813.154-1.587.367-2.34.58l-.445.31a1.94 1.94 0 0 1-1.703.405c-2.455.9-4.724 2.24-6.695 3.955-1.732 1.634-3.686 3.018-5.805 4.1a25.3 25.3 0 0 0 2.767 2.624c8.92 7.235 29.236 12.406 39.375 17.54 4.083 2.065 27.456 14.934 31.403 17.23 10.294 5.98 41.04 17.365 48.373 12.522 3.57-2.196 5.592-6.213 5.224-10.38-5.67 11.75-21.942 7.544-31.365-2.142a109.6 109.6 0 0 0-21.903-17.462h0z" style="mix-blend-mode:multiply" class="D L"/><path d="M169.42 141.777c4.334 2.18 30.28 11.943 34.48 14.374 10.952 6.387 37.092 22.17 49.708 14.336 5.805-3.685 6.308-7.525 3.87-13.178s-7.527-9.647-12.983-12.464-11.358-4.63-16.872-7.332c-8.59-4.206-21.284-16.593-38.524-24.157-11.087-9.107-21.922-15.55-28.25-20.22-3.87-2.894-8.63-7.293-12.674-10.052a88.22 88.22 0 0 0-15.015-9.068c-5.36-2.516-11.486-2.875-17.105-1.003-5.456 2.16-9.675 7.89-8.784 13.68a21.36 21.36 0 0 0 2.535 6.522c4.973 9.474 9.462 23.154 18.072 30.12 9.48 7.7 30.765 12.966 41.542 18.446z" class="G"/><path d="M236.135 166.204c-10.352-3.396-15.48-10.36-25.483-19.295-3.347-2.045-17.685-3.86-35.35-19.295-12.867-11.287-30.862-14.567-43.458-24.37 0 0-14.647-7.274-19.6-5.074 4.14 8.837 8.456 19.295 15.673 25.218 9.5 7.718 30.707 12.966 41.504 18.446 4.334 2.18 30.28 11.943 34.48 14.374 10.952 6.387 37.092 22.17 49.708 14.336 2.434-1.24 4.268-3.4 5.09-6-7.43 4.148-13.602 4.592-22.56 1.66z" style="mix-blend-mode:multiply" class="D L"/><path d="M131.42 143.378c4.218 2.122 8.204 4.708 12.287 7.08 10.66 6.213 62.73 29.733 75.268 25.083 8-2.933 7.875-7.718 5.534-13.178s-7.333-9.416-12.635-12.136-8.494-1.447-13.854-4.07c-3.386-1.66-7.1-6.155-12.364-9.647-6.366-4.226-14.725-7.14-21.903-11.48-12.23-9.05-20.065-12.62-28.598-21.822-3.23-3.492-13.757-10.766-17.704-13.506a87.29 87.29 0 0 0-14.589-8.818c-5.22-2.45-11.186-2.803-16.66-.984-5.302 2.103-9.423 7.718-8.552 13.313a21.19 21.19 0 0 0 2.477 6.329c4.837 9.223 9.19 22.517 17.588 29.31 9.25 7.7 23.2 9.184 33.706 14.53z" class="G"/><path d="M115.514 137.455a113.2 113.2 0 0 1 15.905 5.923c4.218 2.122 8.204 4.708 12.287 7.08 10.66 6.213 62.73 29.733 75.268 25.083 5.592-2.045 7.198-4.997 6.87-8.45-1.076.55-2.188 1.027-3.328 1.428a16.74 16.74 0 0 1-9.887 1.621c-3.263-.22-6.5-.722-9.675-1.505-5.805-1.93-8.997-5.788-12.867-9.88-.782-.777-1.86-1.184-2.96-1.12-9.5.31-26.005-2.817-34.983-15.764-15.344-2.18-23.838-9.05-30.126-10.42-7.74-1.68-11.126-4.573-19.04-4.785a2.97 2.97 0 0 0-1.238.154c-3.87 1.737 1.296 5.036 2.71 5.788a52.32 52.32 0 0 0 11.068 4.843h0z" style="mix-blend-mode:multiply" class="D L"/><path d="M1.45 58.56l44.793 28.575 10.797 45.71c.296 1.253.972 2.385 1.935 3.24l18.053 16.285c.947.847 2.126 1.39 3.386 1.563l24.922 3.145c9.055.965 26.49 5.17 31.442 2.817 5.514-2.643 6.792-12.6-6.366-23.057-9.25-7.37-21.4-10.998-33.222-11.73-1.1-9.935-3.3-19.723-6.5-29.193 3.328-9.88 1.645-18.62 1.935-24.62L19.736 40.615 1.45 58.56z" class="G"/><path d="M258.426 157.772a25.43 25.43 0 0 0-6.888-9.647 12.12 12.12 0 0 0 1.935-2.547c1.043-1.972 1.487-4.205 1.277-6.425-.19-2.18-.85-4.293-1.935-6.194-1.08-1.882-2.437-3.592-4.025-5.074-1.57-1.452-3.28-2.745-5.108-3.86l-5.534-3.106-1.82-1.06a10.88 10.88 0 0 0 1.335-4.264 18.26 18.26 0 0 0-.89-7.448 12.06 12.06 0 0 0-1.025-2.354 15.78 15.78 0 0 0-1.471-2.103c-.56-.63-1.153-1.23-1.78-1.794l-1.935-1.544-2.07-1.35a66.6 66.6 0 0 0-8.572-4.226c-2.167-2.743-4.534-5.322-7.082-7.718-2.574-2.478-5.28-4.816-8.107-7.004a138.79 138.79 0 0 0-4.354-3.164c-1.47-1.023-2.96-1.93-4.508-2.894-.755-.463-1.548-.926-2.322-1.33s-1.567-.888-2.38-1.273c-1.548-.8-3.154-1.524-4.76-2.22-3.502-3.203-7.178-6.116-10.835-9.05l-5.65-4.61c-1.82-1.505-3.638-3-5.34-4.61l-3.386-2.7c-1.122-.888-2.244-1.756-3.405-2.605a110.84 110.84 0 0 0-7.043-4.901c-4.787-3.22-9.85-6.008-15.13-8.335a72.51 72.51 0 0 0-4.025-1.582c-1.354-.482-2.728-.945-4.12-1.33a79.1 79.1 0 0 0-4.218-1.042c-1.412-.31-2.864-.54-4.315-.695a40.94 40.94 0 0 0-4.354-.347 36.75 36.75 0 0 0-4.373 0c-2.755.21-5.484.69-8.146 1.428L79.93 15.28 57.273 1.775a.64.64 0 0 0-.638-.022c-.202.107-.33.313-.34.54s.106.442.3.563l22.31 14.162 22.387 13.99c.254.158.56.207.85.135 1.35-.378 2.72-.687 4.102-.926 1.354-.27 2.748-.367 4.12-.502s2.767-.135 4.16 0 2.767.116 4.16.27 2.748.386 4.12.637 2.748.58 4.083.945a106.81 106.81 0 0 1 4.044 1.196 43.41 43.41 0 0 1 3.87 1.428 97.1 97.1 0 0 1 15.092 7.718c2.4 1.505 4.74 3.094 7.024 4.766l3.405 2.547 3.328 2.624c1.74 1.64 3.54 3.164 5.36 4.67l5.495 4.515c3.638 3.05 7.314 6.06 10.72 9.26.056.062.12.114.193.154 1.606.752 3.193 1.505 4.74 2.335.774.405 1.53.868 2.283 1.293s1.51.888 2.244 1.37c1.51.907 2.96 1.93 4.392 2.894s2.844 2.045 4.237 3.126c2.767 2.18 5.456 4.418 7.99 6.85a70.1 70.1 0 0 1 6.463 6.888h-.135a18.68 18.68 0 0 0-2.844 1.293 12.92 12.92 0 0 0-2.496 1.929 8.88 8.88 0 0 0-.677.791l-.252.31c-.118.132-.118.33 0 .463a.35.35 0 0 0 .484 0l.252-.31c.155-.174.387-.405.677-.675.74-.63 1.56-1.162 2.438-1.582.877-.427 1.8-.776 2.728-1.042l.677-.174h.116a63.93 63.93 0 0 1 8.591 4.129c.658.405 1.335.8 1.935 1.254.674.435 1.32.912 1.935 1.428.575.5 1.118 1.034 1.625 1.6a11.82 11.82 0 0 1 2.244 3.859c.232.695.426 1.466.6 2.22.35 1.517.473 3.078.368 4.63a9.3 9.3 0 0 1-1.045 3.705c-2.573-1.524-5.166-3.03-7.894-4.34a26.5 26.5 0 0 0-2.631-2.856c-.987-.926-1.935-1.814-3.057-2.643a73.39 73.39 0 0 0-6.579-4.631 64.05 64.05 0 0 0-14.009-6.599c-.12-.23-.36-.373-.62-.367-3.145-3.007-6.53-5.756-10.12-8.22-3.657-2.605-7.41-5.055-11.184-7.467-.034-.034-.086-.043-.13-.023s-.07.065-.068.113.035.09.08.103c3.696 2.508 7.39 5.055 10.952 7.718a80.78 80.78 0 0 1 9.384 7.969c-.264.08-.522.177-.774.29-1.184.53-2.312 1.175-3.367 1.93a46.77 46.77 0 0 0-4.373 3.338.35.35 0 1 0 .445.54c1.425-1.105 2.9-2.13 4.45-3.068a21.56 21.56 0 0 1 3.27-1.582 5.39 5.39 0 0 1 1.084-.309h.27a.68.68 0 0 0 .31 0c4.84 1.713 9.45 4.02 13.718 6.87 2.204 1.44 4.323 3.006 6.346 4.69 1.006.83 1.935 1.717 2.922 2.624.62.637 1.22 1.293 1.78 1.93l-.484.135a11.62 11.62 0 0 0-3.463 1.929 22.36 22.36 0 0 0-2.806 2.721c-.697.8-1.122 1.37-1.122 1.37-.128.128-.128.335 0 .463a.35.35 0 0 0 .503 0s.445-.52 1.16-1.273a23.2 23.2 0 0 1 2.806-2.47c.977-.73 2.07-1.3 3.23-1.66a5.82 5.82 0 0 1 1.045-.193c.034.043.073.082.116.116 3.734 1.93 7.314 4.033 11.03 6.078 1.935 1.042 3.87 1.93 5.553 2.952a28.81 28.81 0 0 1 4.992 3.608c3.154 2.643 5.22 6.353 5.805 10.42a9.9 9.9 0 0 1-3.018 8.007c-.484-.424-1.006-.83-1.51-1.235a63.89 63.89 0 0 0-12.886-7.718 73.5 73.5 0 0 0-14.144-4.631c-4.762-4.295-9.89-8.168-15.324-11.577-5.433-3.29-11.136-6.118-17.046-8.45-.038-.285-.258-.51-.542-.56h-.193c-1.634-1.672-3.38-3.232-5.224-4.67-2.05-1.6-4.16-3.106-6.288-4.554-4.276-2.913-8.688-5.615-13.157-8.22-.044-.04-.11-.04-.155 0-.042.05-.042.123 0 .174 4.412 2.682 8.765 5.46 12.964 8.432 2.11 1.505 4.18 3.03 6.172 4.65a55.32 55.32 0 0 1 4.566 4.187 10.59 10.59 0 0 0-1.122.193c-1.636.415-3.183 1.12-4.566 2.084-1.36.933-2.62 2.006-3.754 3.203-.484.482-.813.926-1.084 1.216l-.406.463c-.128.128-.128.335 0 .463a.33.33 0 0 0 .484 0l.426-.444c.27-.27.64-.695 1.103-1.12 1.13-1.114 2.384-2.097 3.734-2.933a12.48 12.48 0 0 1 4.276-1.756c.484-.1.977-.145 1.47-.135a1.65 1.65 0 0 1 .522 0h.252a111.97 111.97 0 0 1 16.911 8.721 107 107 0 0 1 13.912 10.766h-.252a10.79 10.79 0 0 0-3.87 1.814c-1.106.805-2.13 1.716-3.057 2.72-.735.8-1.22 1.39-1.22 1.39a.35.35 0 1 0 .542.444s.484-.54 1.238-1.293a19.88 19.88 0 0 1 3.038-2.45c1.064-.706 2.252-1.203 3.502-1.466a4.56 4.56 0 0 1 1.161 0h.135a.64.64 0 0 0 .193.116c4.8 1.166 9.46 2.774 13.95 4.804 4.5 1.982 8.754 4.482 12.674 7.448 3.998 2.782 7.135 6.626 9.055 11.094 1.05 2.098 1.297 4.506.697 6.772a10.53 10.53 0 0 1-4.721 4.997 14.89 14.89 0 0 1-6.811 1.929 29.82 29.82 0 0 1-7.275-.579 61.5 61.5 0 0 1-12.519-4.033c-.1-1.156-.324-2.297-.697-3.396a14.7 14.7 0 0 0-1.49-3.299 18.01 18.01 0 0 0-2.283-2.798 45.76 45.76 0 0 0-11.513-8.142c-4.185-1.902-8.538-3.414-13.003-4.515-.466-.586-.964-1.146-1.5-1.68-.58-.637-1.22-1.196-1.838-1.775-1.238-1.12-2.554-2.16-3.87-3.184-2.7-1.93-5.476-3.86-8.34-5.518-5.688-3.4-11.672-6.28-17.878-8.605a129.77 129.77 0 0 0-11.435-8.162c-3.967-2.566-7.972-5.055-12.074-7.4-.025-.026-.06-.04-.097-.04s-.07.015-.097.04-.04.06-.04.096.015.07.04.096c3.986 2.49 7.894 5.132 11.726 7.872 3.444 2.45 6.83 4.978 10.023 7.718l-.6.154a12.23 12.23 0 0 0-5.805 3.994c-.252.31-.464.617-.658.907-.198.274-.373.565-.522.868-.253.436-.48.887-.677 1.35l-.232.52c-.07.17.007.365.174.444a.33.33 0 0 0 .445-.154l.27-.52c.195-.428.42-.84.677-1.235.16-.277.342-.54.542-.79.193-.27.406-.56.64-.83a13.01 13.01 0 0 1 1.683-1.563c1.536-1.174 3.36-1.914 5.282-2.142a109.24 109.24 0 0 1 9.055 4.033 129.54 129.54 0 0 1 8.649 4.708c2.823 1.668 5.555 3.484 8.185 5.44 1.296.984 2.573 1.93 3.773 3.087.58.54 1.18 1.1 1.722 1.68a15.72 15.72 0 0 1 .774.83l-.503.116c-1.372.39-2.654 1.047-3.773 1.93-.573.488-1.1 1.017-1.606 1.582-.418.497-.806 1.02-1.16 1.563-.33.463-.522.907-.697 1.177l-.252.463c-.087.166-.027.37.135.463a.35.35 0 0 0 .464-.116l.27-.444a9.74 9.74 0 0 1 .735-1.1 11.43 11.43 0 0 1 1.161-1.428 13.28 13.28 0 0 1 1.548-1.37c1.035-.765 2.212-1.316 3.463-1.62a7.41 7.41 0 0 1 1.2-.174c.08.086.18.15.3.193a82.8 82.8 0 0 1 12.983 4.38c4.108 1.977 7.88 4.58 11.184 7.718a12.65 12.65 0 0 1 3.483 5.538 8.1 8.1 0 0 1 .116 6.232c-1.125 1.862-2.872 3.27-4.934 3.975a12.9 12.9 0 0 1-6.54.907 70.84 70.84 0 0 1-13.544-2.605c-4.45-1.235-8.823-2.74-13.177-4.322-8.668-3.184-17.2-6.753-25.618-10.593-4.2-1.93-8.378-3.86-12.48-6-2.864-1.41-5.573-3.068-8.3-4.727-1.878-3.844-4.564-7.24-7.875-9.956-3.3-2.645-6.843-4.97-10.584-6.946-8.03-4.61-23.586-6.444-23.857-6.56-.62-4.573-1.393-9.126-2.38-13.64-.56-2.45-1.142-4.882-1.82-7.293s-1.238-4.322-1.935-6.444c.057-.097.102-.2.135-.31a1.25 1.25 0 0 0 0-.463c1.482-2.036 2.845-4.156 4.083-6.348.697-1.216 1.335-2.47 1.935-3.743.3-.637.56-1.273.813-1.93a21.18 21.18 0 0 0 .677-2.045.52.52 0 0 0-.368-.656c-.14-.048-.29-.035-.42.035a.52.52 0 0 0-.258.332 25.7 25.7 0 0 1-.697 1.929c-.252.637-.542 1.235-.832 1.93-.6 1.235-1.258 2.43-1.935 3.608-1.277 2.122-2.67 4.168-4.14 6.174l-1.548-.27c-1.142-.174-2.67-.367-4.2-.52-3.038-.328-6.095-.52-6.095-.52-.182-.002-.34.13-.368.31-.023.186.105.356.3.386a151.12 151.12 0 0 0 5.959 1.177c1.47.31 2.94.675 4.025.965l1.606.444c.716 2.103 1.354 4.264 1.935 6.444a160.29 160.29 0 0 1 1.741 7.235c.948 4.4 1.51 13.4 1.045 13.506-1.737.344-3.436.86-5.07 1.544-1.608.674-3.166 1.46-4.663 2.354-1.2.714-1.935 1.235-1.935 1.235-.14.11-.19.3-.116.463.045.083.122.145.213.17a.35.35 0 0 0 .271-.035s.813-.444 2.07-1.042a35.27 35.27 0 0 1 4.682-1.929 24.69 24.69 0 0 1 4.857-1.023c.644-.042 1.29-.042 1.935 0a64.83 64.83 0 0 1 23.761 6.02 47.73 47.73 0 0 1 10.294 6.618 28.05 28.05 0 0 1 7.585 9.358 12.24 12.24 0 0 1 1.219 5.788c-.052 1.92-.916 3.73-2.38 4.978a8.28 8.28 0 0 1-5.495 1.389 55.2 55.2 0 0 1-6.153-.405c-4.12-.463-8.223-1.158-12.325-1.814l-6.192-.965-6.21-.83-18.575-2.45c-1.025-.174-2.148-.232-2.98-.463a5.81 5.81 0 0 1-2.361-1.409l-16.137-14.722c-.716-.695-1.645-1.428-2.167-2.065a5.34 5.34 0 0 1-1.122-2.412l-.716-3.05-1.393-6.06-2.844-12.136-5.805-23.752c.03-.107.03-.22 0-.328v-2.43c0-1.486.116-3.473.3-5.46.387-3.975 1.16-7.91 1.16-7.91.05-.234-.097-.464-.33-.52-.116-.03-.238-.01-.34.05s-.175.16-.202.277c0 0-1.064 3.86-1.74 7.91a66.16 66.16 0 0 0-.735 5.557v.907L24.167 72.278 1.625 58.193a.55.55 0 0 0-.547-.019c-.173.092-.283.268-.29.463s.09.38.257.482l22.27 14.5L45.22 87.694c.04.095.1.18.174.25l5.495 23.77 2.883 12.136 1.45 6.06.735 3.03a7.17 7.17 0 0 0 1.548 3.145 30.42 30.42 0 0 0 2.361 2.219l2.34 2.084 13.97 12.464a7.24 7.24 0 0 0 2.98 1.698 26.56 26.56 0 0 0 3.193.463l6.21.752 12.403 1.486c4.16.482 8.262.926 12.364 1.68s8.204 1.428 12.364 1.93c2.092.27 4.198.425 6.308.463 1.083.02 2.165-.063 3.23-.25.57-.098 1.13-.26 1.664-.482.514-.25 1-.555 1.45-.907 1.773-1.472 2.835-3.625 2.922-5.923a11.95 11.95 0 0 0-.387-3.859c2.167 1.293 4.354 2.547 6.637 3.647 4.16 2.084 8.36 4.033 12.616 5.904 8.494 3.743 17.085 7.235 25.85 10.323a198.95 198.95 0 0 0 13.273 4.245c4.474 1.35 9.068 2.268 13.718 2.74a22.18 22.18 0 0 0 3.58 0c.606-.065 1.207-.168 1.8-.31.64-.174 1.2-.424 1.722-.617 1.13-.448 2.195-1.038 3.173-1.756a7.9 7.9 0 0 0 2.457-2.817c.406-.82.643-1.712.697-2.624 3.974 1.66 8.094 2.952 12.306 3.86 2.486.52 5.027.735 7.565.637a16.21 16.21 0 0 0 7.391-2.084c2.354-1.228 4.222-3.214 5.302-5.634.735-2.53.543-5.24-.542-7.64h0z" fill="url(#B)" opacity=".8"/><g fill="#ffe5d0"><path d="M140.106 157.772a2.66 2.66 0 0 0-.813-3.203c-3.154-2.663-11.358-4.882-16.988-4.36-7.99.752-6.85 7.525-5.805 8.876 9.675 1.447 14.067 2.566 18.4 1.93 2.144-.222 4.064-1.418 5.205-3.24z"/><path d="M120.235 150.652c-5.805 2.065-4.663 7.293-3.715 8.5l1.683.232c.6-2.49 2.63-8.2 2.032-8.72z" opacity=".3" style="mix-blend-mode:screen"/><path d="M137.36 159.566a117.25 117.25 0 0 1-23.935-1.582c.158.354.352.7.58 1.003 10.74 1.64 14.61 2.49 19.465 2.22a6.7 6.7 0 0 0 6.211-2.933 3.62 3.62 0 0 1-2.322 1.293h0z" opacity=".6" style="mix-blend-mode:multiply"/></g><path d="M47.366 75.19a18.04 18.04 0 0 1-5.34-7.718c1.045-20.607 25.154-49.664 41.3-49.877l-25.56-15.32C30.94-2.373 1.45 58.56 1.45 58.56l44.503 28.324c.27-3.666 1.354-11.596 1.412-11.693z" fill="#ffb18f" opacity=".6"/><path d="M112.09 129.602c-10.14-2.933-19.35-3.59-20.49-1.466s8.088 2.624 18.227 5.576 17.28 7.197 18.478 5.074-6.076-6.232-16.214-9.184z" fill="url(#C)" style="mix-blend-mode:screen" class="D"/><path d="M82.175 99.174a3.39 3.39 0 0 0-2.477 1.37c-1.78 2.817 0 12.62.64 15.918 1.296 7.216 4.605 8.335 11.068 6.464 3.25-.926-1.122-23.29-2.922-24.58s-4.702.502-6.308.83z" fill="url(#D)" style="mix-blend-mode:screen" class="D"/></g><g transform="translate(283.066 173.348)"><path d="M123.93 42.415c.6-.8 4.327-4.247 4.8-3.897.966.818.522 4.56-.367 6.08s-4.385 5.202-4.54 4.754c-.31-.896-.618-6.04.116-6.936z" fill="url(#E)"/><path d="M158.776 103.475L26.055 47.812S4.615 59.17 3.65 62.892s7.553 8.144 7.553 8.144l96.02 55.936c5.795 3.487 11.6.76 18.427-.312a15 15 0 0 1 6.606 0 205.48 205.48 0 0 1 23.295-12.82l4.076-2.786c1.123-.7 1.843-1.905 1.932-3.234a5.38 5.38 0 0 0-2.782-4.345h0z" fill="#cc8166" style="mix-blend-mode:multiply" class="D"/><path d="M97.022 36.102l-.56-11.066-.637-.4.58 11.807 25.883 14.788-.89-1.208-24.377-13.93z" fill="#d4d4d4"/><path d="M93.623 22.386l-1.932-1.15-16.148 27.94 43.79 25.503c20.07-12.937 9.194-30.725-25.7-52.293zm2.782 14.067l-.58-11.807c3.262 1.756 6.416 3.707 9.446 5.845l17.017 19.717s.89 1.11 0 .955l-25.883-14.7z" class="B"/><path d="M97.022 36.102l-.56-11.066-.637-.4.58 11.807 25.883 14.788s.483 0 0-.7L97.022 36.102z" fill="#e9e6e0"/><path d="M130.883 51.533l-3.535-2.767c-.328-.41-16.283-16.62-21.42-19.62l-11.32-6.585-.753 1.13c-.193.312-.406.584-.618.877l14.448 7.56a186.35 186.35 0 0 1 16.09 16.035s5.1 6.507-.328 22.29c-.592 1.637-2.135 2.727-3.863 2.728a2.97 2.97 0 0 1-.56 0l-.3 1.948v.507a40.17 40.17 0 0 0 6.22 1.676c1.587.44 3.272.36 4.8-.234 1.412-1.082 2.354-2.674 2.627-4.442a29.7 29.7 0 0 0 .869-6.644c.4-4.943-.417-9.908-2.376-14.457h0z" fill="#9b8767"/><path d="M123.196 70.938c-.47.902-1.254 1.597-2.202 1.948-.467.16-.956.245-1.45.253a4.2 4.2 0 0 1-2.086-.565L76.277 48.59a.39.39 0 0 1-.174-.253 25.77 25.77 0 0 0-7.726-16.366c-.076-.06-.12-.155-.116-.253V23.36l-1.932 1.09C57 29.556 47.747 34.816 38.65 40.33c-4.21 2.533-8.46 5.046-12.864 7.248l.753 3.507 1.043 4.286 5.273 5.377 2.975 9.586 1.12 2.63 46.358 26.302 42.843-25.68-2.955-2.65z" fill="#423d3c"/><path fill="#346db8" d="M94.86 27.237l-2.144 5.864 2.144 27.354.85-.487z"/><path fill="#d3a57d" d="M93.913 22.562l-.3-.175-1.932-1.15-16.148 27.92 19.316 11.3z"/><path d="M91.71 21.295c-.097 0-16.225 27.86-16.225 27.86l17.19 10.014-.966-37.875z" fill="#cc9a75"/><path d="M66.62 24.685l1.584-6.02v-1.383c.003-.117.07-.222.174-.273-.018-.057-.018-.118 0-.175.364-.527.792-1.005 1.275-1.422l1.796-3.8c-5.195-.984-10.477-1.42-15.762-1.305-5.97.526-22.078 10.852-22.078 10.852l-9.136 7.092-2.57 1.792 3.863 18.353c6.007-2.085 32.605-20.03 40.853-23.71z" fill="#eab88c"/><g fill="#a75"><path d="M69.96 12.664a4.12 4.12 0 0 0-2.569.273C58.448 18.43 41.218 27.84 30.942 35.05l-2.357 23.906 47.884-27.9-6.51-18.392z"/><path d="M56.324 10.618l8.132 3.43v1.247l3.13-.877 5.003-2.3s-4.655-1.9-16.264-1.5z"/></g><path d="M50.24 71.835l-13.386-7.813v-6.624L50.24 65.19z" class="M"/><path d="M82.265 53.19L50.24 71.835V65.19l32.026-18.645z" class="F"/><path d="M50.24 65.19l-13.386-7.793L68.86 38.752l13.405 7.793z" class="N"/><g transform="translate(33.453 13.016)"><path d="M50.82 32.965a5.51 5.51 0 0 0-.251-.877c-.007-.058-.007-.117 0-.175a4.33 4.33 0 0 0-.753-1.169 9.84 9.84 0 0 0-2.588-1.948l-2.086-1.188c-1.932-1.13-7.978-4.345-9.9-5.338a.52.52 0 0 0-.502 0L2.24 41.264l15.627 12.547 32.51-18.996c.386-.292.618-.935.444-1.85z" fill="url(#F)"/><path d="M18.312 51.94c-.068-.3-.152-.576-.25-.857a7.02 7.02 0 0 0-3.419-3.312l-2.086-1.188c-1.932-1.11-7.978-4.325-9.9-5.338-.386-.195-.695 0-.715.41-.206 2.01.86 3.936 2.666 4.812 1.313.76 4.056 1.948 5.447 2.786a44 44 0 0 1 5.795 4.091l.425.292c1.275.74 2.357 0 2.028-1.695z" class="B"/><path d="M37.88 17.573C35.406 4.948 36.836 4.83 36.18 2.357a2.45 2.45 0 0 0-.174-.487c-.138-.327-.327-.63-.56-.896a2.94 2.94 0 0 0-.773-.623c-.36-.27-.83-.345-1.256-.195L.89 19.15l4.848 23.38 32.528-18.977c.068-.057.104-.145.097-.234.036-1.928-.126-3.854-.483-5.748h0z" fill="url(#G)"/><path d="M5.37 36.57c-2.472-12.625-1.043-12.76-1.7-15.216-.24-.818-.778-1.515-1.507-1.948-.773-.448-1.565-.41-1.642.584a133.61 133.61 0 0 0 1.198 15.957c.184 1.447.28 2.905.3 4.364a.84.84 0 0 0 .367.662l3.1 1.676c.212.136.367 0 .367-.214a27.98 27.98 0 0 0-.483-5.864h0z" class="B"/></g><path d="M94.106 77.21L80.72 69.4v-6.644l13.386 7.813z" class="M"/><path d="M108.593 68.775L94.106 77.21v-6.644l14.487-8.436z" class="F"/><path d="M94.106 70.568L80.72 62.755l14.468-8.417 13.405 7.793z" class="N"/><g transform="translate(77.264 28.602)"><path d="M33.434 32.965a6.16 6.16 0 0 0-.251-.877v-.175a4.33 4.33 0 0 0-.753-1.169 9.84 9.84 0 0 0-2.588-1.948l-2.086-1.188c-1.932-1.13-7.978-4.345-9.9-5.338a.48.48 0 0 0-.483 0l-14.97 8.787L18.02 43.602 33 34.816c.3-.292.444-.935.444-1.85z" fill="url(#H)"/><path d="M18.368 41.732c-.06-.292-.144-.58-.25-.857a7.02 7.02 0 0 0-3.419-3.312l-2.086-1.188c-1.932-1.11-7.978-4.325-9.9-5.338-.386-.195-.695 0-.715.41a4.82 4.82 0 0 0 2.666 4.812c1.313.76 4.056 1.948 5.447 2.786a44 44 0 0 1 5.795 4.091l.425.292c1.294.74 2.357 0 2.028-1.695z" class="B"/><path d="M20.396 17.573c-2.453-12.625-1.043-12.742-1.7-15.216a2.45 2.45 0 0 0-.174-.487c-.138-.327-.327-.63-.56-.896a3.21 3.21 0 0 0-.753-.623 1.38 1.38 0 0 0-1.275-.195L.964 8.942l4.848 23.38 14.97-8.787c.068-.057.104-.145.097-.234.035-1.92-.127-3.84-.483-5.728z" fill="url(#I)"/><path d="M5.426 26.36c-2.472-12.625-1.043-12.76-1.7-15.216-.24-.818-.778-1.515-1.507-1.948-.773-.448-1.565-.43-1.642.565a132.98 132.98 0 0 0 1.198 15.957c.184 1.454.28 2.918.3 4.384a.84.84 0 0 0 .367.662l3.1 1.676c.212.117.367 0 .367-.214a27.9 27.9 0 0 0-.483-5.864h0z" class="B"/></g><path d="M84.64 36.22l6.394-3.72a3.85 3.85 0 0 0-2.337-1.111l-6.722 3.897c.232-.136.56-.253 1.236.33s1.43.604 1.43.604z" class="B"/><path d="M9.272 1.694a.96.96 0 0 0-.097-.39 1.13 1.13 0 0 0-.212-.351C8.826.8 8.67.685 8.5.584A1.34 1.34 0 0 0 7.224.428L1.236 3.935l1.932 5.358 6.007-3.507c.2-.164.3-.43.232-.682l-.135-3.4z" fill="url(#J)" transform="translate(81.744 26.654)"/><path d="M85.028 31.875a1.44 1.44 0 0 0-.792-1.13c-.502-.312-1.14-.37-1.4 0a5.89 5.89 0 0 0-.618 3.195 1.48 1.48 0 0 0 .637 1.09l1.487.877c.522.292.908 0 .85-.623l-.155-3.4zm12.516 52.818l-27.14-15.8 3.226-5.67 23.913 13.93z" class="B"/><path fill="#f4c698" d="M97.544 77.153L73.63 63.223l5.582-3.234 23.894 13.91z"/><path d="M78.75 61.392l-4.018 2.338a.41.41 0 0 0 0 .76l8.924 5.202c.42.215.914.215 1.333 0l3.998-2.318a.41.41 0 0 0 0-.779L80.12 61.43a1.42 1.42 0 0 0-1.371-.039h0zm9.986 5.28c.27.156.27.4 0 .546l-3.998 2.338a1.15 1.15 0 0 1-.946 0l-8.866-5.163c-.25-.156-.25-.41 0-.546l4.018-2.338a.98.98 0 0 1 .927 0l8.866 5.163z" class="B D"/><path d="M72.76 89.642L59.356 81.83v-6.624L72.76 83z" class="M"/><path d="M87.23 81.206L72.76 89.642V83l14.468-8.436z" class="F"/><path d="M72.76 83l-13.405-7.793 14.487-8.436 13.386 7.793z" class="N"/><g transform="translate(56.016 40.915)"><path d="M33.24 33.082a5.45 5.45 0 0 0-.27-.857.59.59 0 0 0 0-.195 4.64 4.64 0 0 0-.753-1.169 9.84 9.84 0 0 0-2.569-1.948l-2.105-1.188c-1.932-1.11-7.958-4.345-9.87-5.338a.52.52 0 0 0-.502 0L2.2 31.154 17.827 43.7l14.97-8.767c.386-.312.637-.935.444-1.85z" fill="url(#K)"/><path d="M18.252 41.87c-.048-.302-.132-.596-.25-.877a7.02 7.02 0 0 0-3.419-3.312l-2.086-1.188c-1.932-1.11-7.958-4.325-9.87-5.338a.46.46 0 0 0-.489-.01.47.47 0 0 0-.225.438c-.216 2.008.855 3.932 2.666 4.793 1.313.76 4.037 1.948 5.428 2.786a43.15 43.15 0 0 1 5.795 4.091c.126.1.262.208.406.292 1.313.818 2.395 0 2.047-1.676z" class="B"/><path d="M20.28 17.7C17.827 5.085 19.237 4.95 18.6 2.494l-.174-.487a3.57 3.57 0 0 0-.579-.896c-.208-.26-.464-.48-.753-.643a1.38 1.38 0 0 0-1.275-.195L.848 9.06l4.848 23.38 14.97-8.787c.082-.047.128-.14.116-.234.027-1.915-.142-3.828-.502-5.71z" fill="url(#L)"/><path d="M5.3 26.478C2.857 13.853 4.267 13.716 3.6 11.26a3.25 3.25 0 0 0-1.487-1.948C1.33 8.845.54 8.884.48 9.878a133.61 133.61 0 0 0 1.198 15.957 36.45 36.45 0 0 1 .29 4.364.8.8 0 0 0 .367.662l3.1 1.695c.193.117.367 0 .367-.234a28.33 28.33 0 0 0-.502-5.845h0z" class="B"/></g><path d="M63.277 48.65l6.394-3.72c-.63-.62-1.444-1-2.318-1.11l-6.74 3.897c.25-.117.56-.234 1.236.33a2.67 2.67 0 0 0 1.429.604z" class="B"/><path d="M9.175 1.83c-.01-.134-.044-.266-.097-.4a1.11 1.11 0 0 0-.232-.351 1.51 1.51 0 0 0-.464-.39A1.36 1.36 0 0 0 7.128.546L1.14 4.053 3.07 9.4 9.06 5.903c.2-.165.296-.426.25-.682l-.135-3.4z" fill="url(#M)" transform="translate(60.496 38.966)"/><path d="M63.683 44.363a1.48 1.48 0 0 0-.792-1.13c-.522-.292-1.16-.35-1.43 0a5.89 5.89 0 0 0-.618 3.176 1.52 1.52 0 0 0 .657 1.111l1.487.857c.502.292.908 0 .85-.623l-.155-3.4z" class="B"/><use xlink:href="#Y" fill="#446950"/><g fill="#1d1c1b"><use xlink:href="#Y"/><path d="M11.897 51.046c-1.777 1.033-2.047 11.456-.908 14.38l5.003-2.98a5.62 5.62 0 0 1 5.795 0L40.35 73.218s-8.692-22.406-6.915-23.38l-21.537 1.208zM112.784 106.7a22.89 22.89 0 0 0-3.612-5.845c-1.17-1.378-2.552-2.555-4.095-3.487a6.56 6.56 0 0 0-6.664-.643l-5.1 3.078 13.27 23.03 5.138-3.02a6.7 6.7 0 0 0 2.743-6.06c-.076-2.442-.648-4.843-1.68-7.053h0z"/></g><path d="M99.92 100.475c-5.177-3-9.368-.584-9.388 5.397.342 6.63 3.81 12.692 9.33 16.307 5.177 3 9.368.584 9.388-5.397-.342-6.63-3.81-12.692-9.33-16.307h0z" fill="#2c2a29"/><path d="M99.92 103.553c-3.71-2.163-6.74-.43-6.74 3.897.236 4.754 2.722 9.103 6.683 11.7 3.71 2.163 6.74.43 6.74-3.897-.236-4.754-2.722-9.103-6.683-11.7h0z" fill="#232221" class="C"/><path d="M96.868 103.124h.31l1.7.195s.367 0 .097.117c-1.394.522-2.25 1.94-2.067 3.43.12 3.57 1.93 6.868 4.868 8.865a3.28 3.28 0 0 0 4.134 0c.174-.175-.135.448-.135.448l-.54.994c-1.004 1.792-3.09 2.163-5.466.72-3.48-2.36-5.633-6.255-5.795-10.482.04-2.65.908-4.345 2.897-4.286z" class="H"/><path d="M100.036 103.71c3.692 2.512 5.97 6.655 6.123 11.144 0 4.033-2.975 5.592-6.432 3.487-3.697-2.5-5.98-6.652-6.142-11.144.097-4.033 2.975-5.592 6.452-3.487zm0 .43c-3.284-1.948-5.988-.507-6.085 3.293.162 4.227 2.315 8.12 5.795 10.482 3.264 1.948 5.988.526 6.065-3.293-.15-4.23-2.305-8.13-5.795-10.482h.02z" class="E"/><path d="M101.446 104.02c3.144 2.194 5.06 5.77 5.157 9.625-.116 3.468-2.608 4.773-5.563 2.942-3.15-2.188-5.07-5.768-5.157-9.625.116-3.468 2.608-4.793 5.563-2.942z" fill="#a5a095"/><path d="M100.886 105.97c2.342 1.592 3.78 4.225 3.863 7.072-.097 2.552-1.932 3.526-4.095 2.163-2.337-1.605-3.773-4.24-3.863-7.092.097-2.552 1.932-3.507 4.095-2.143z" class="E"/><path d="M96.8 107.625c0-2.65 1.72-3.78 3.863-2.922a3.85 3.85 0 0 1 .792.409 9.72 9.72 0 0 1 3.4 4.091 8.87 8.87 0 0 1 .869 3.897c0 2.884-2.163 3.897-4.617 2.435l-.464-.292c2.163 1.364 3.998.4 4.095-2.163a7.85 7.85 0 0 0-.792-3.449c-.632-1.48-1.68-2.74-3.013-3.624-.22-.146-.452-.27-.695-.37-1.932-.76-3.322.253-3.4 2.513-.058.058-.04-.526-.04-.526z" class="H"/><path d="M36.138 62.054a22.34 22.34 0 0 0-3.612-5.845 16.2 16.2 0 0 0-4.095-3.468 6.56 6.56 0 0 0-6.587-.584l-5.157 3.02 13.27 23 5.157-3.02c1.924-1.377 2.964-3.692 2.724-6.06a17.99 17.99 0 0 0-1.7-7.053z" fill="#1d1c1b"/><path d="M23.274 55.84c-5.157-3-9.368-.584-9.388 5.397.342 6.63 3.81 12.692 9.33 16.307 5.177 3 9.388.584 9.388-5.397-.345-6.628-3.813-12.7-9.33-16.307z" fill="#2c2a29"/><path d="M23.274 58.917c-3.71-2.163-6.722-.43-6.74 3.897.252 4.754 2.744 9.098 6.703 11.7 3.71 2.163 6.722.43 6.74-3.897-.256-4.753-2.746-9.096-6.703-11.7h0z" fill="#232221" class="C"/><path d="M20.222 58.49h.27l1.7.195s.367 0 .116.117c-1.4.528-2.26 1.952-2.086 3.45.14 3.565 1.954 6.85 4.887 8.845 1.196.99 2.918.99 4.114 0 .174-.175-.116.448-.116.448l-.56.994c-.985 1.792-3.07 2.163-5.466.72-3.48-2.36-5.633-6.255-5.795-10.482.097-2.69.966-4.345 2.936-4.286z" class="H"/><path d="M23.4 59.073c3.7 2.516 5.97 6.655 6.142 11.144 0 4.033-2.975 5.592-6.452 3.487-3.694-2.5-5.972-6.64-6.123-11.125.077-4.053 2.955-5.61 6.432-3.507zm0 .43c-3.284-1.948-5.988-.507-6.085 3.293.162 4.227 2.315 8.12 5.795 10.482 3.284 1.948 5.988.526 6.085-3.273-.156-4.234-2.3-8.137-5.795-10.5h0z" class="E"/><path d="M24.8 59.405a11.99 11.99 0 0 1 5.157 9.605c-.116 3.468-2.608 4.793-5.563 2.942-3.15-2.188-5.07-5.768-5.157-9.625.116-3.468 2.608-4.773 5.563-2.922z" fill="#a5a095"/><path d="M24.26 61.334c2.334 1.6 3.77 4.228 3.863 7.072 0 2.552-1.932 3.526-4.095 2.163-2.334-1.6-3.77-4.228-3.863-7.072.077-2.552 1.912-3.546 4.095-2.163z" class="E"/><path d="M20.164 63c0-2.63 1.72-3.78 3.863-2.922.265.12.523.258.773.41a9.49 9.49 0 0 1 3.4 4.091 8.89 8.89 0 0 1 .869 3.897c-.097 2.864-2.163 3.897-4.597 2.416l-.483-.292c2.183 1.364 4.018.4 4.095-2.163a7.85 7.85 0 0 0-.773-3.449c-.65-1.468-1.693-2.723-3.013-3.624-.228-.142-.467-.266-.715-.37-1.932-.76-3.322.253-3.4 2.533-.04.058-.02-.526-.02-.526z" class="H"/><path d="M34.265 71.464c-.06 2.446-.266 4.886-.618 7.306l54.877 32.03v-7.988l-54.26-31.348zm20.9-16.58v.682a.52.52 0 0 1-.25.4.44.44 0 0 1-.212 0 .31.31 0 0 1-.232 0l-24.9-14.428c-.12-.073-.204-.193-.232-.33a.51.51 0 0 1 .097-.39c1.894-2.138 4.228-3.833 6.838-4.968a16.84 16.84 0 0 1 6.934-1.578h.3a16.33 16.33 0 0 0-6.24 1.52 19.32 19.32 0 0 0-6.664 4.832l24.55 14.262zm5.9 3.4l.8-14.75-.715-.43-1.758 16.015 24.244 13.31-.6-1.266z" fill="#e9e6e0"/><path d="M54.682 55.527L29.92 41.1a19.32 19.32 0 0 1 6.664-4.832 14.87 14.87 0 0 1 11.184-.779 13.93 13.93 0 0 1 2.241 1.052l5.93 3.507-1.256 15.47z" fill="url(#N)" style="mix-blend-mode:multiply" class="C"/><path d="M111.51 47.636c-3.472 1.25-6.148 4.094-7.205 7.657-.6 3.06 1.66 4.598 5.04 3.43 3.472-1.25 6.148-4.094 7.205-7.657.58-3.06-1.68-4.598-5.04-3.43zm0 .955l.6-.156-1.545 4.773-3.863-1.033a10.73 10.73 0 0 1 4.732-3.585h.077zm4.346 2.96c-.92 3.06-3.22 5.5-6.2 6.585-2.897.994-4.848-.33-4.346-2.96.2-.847.547-1.65 1.024-2.377l4.694 1.286 1.932-5.845a2.48 2.48 0 0 1 2.364.83 2.53 2.53 0 0 1 .457 2.482h.077z" fill="#3a3835"/><g fill="#ffd3ab"><path d="M125.92 51.786l-3.206-1.637c-.32-.136-.683-.136-1.004 0-12.68 4.885-24.37 12.062-34.498 21.178a12.77 12.77 0 0 1 1.932 5.105c.49-.166 1.018-.166 1.507 0 0 0 27.873-9.586 34.653-22.425.966-1.227 1.082-1.286.618-2.22z"/><path d="M119.255 51.046c-1.043 4.462-7.61 7.793-15.047 7.676a17.86 17.86 0 0 1 5.795-6.702c5.486-3.273 9.252-.974 9.252-.974z"/></g><path d="M162.85 87.226a1.43 1.43 0 0 0-.29-.799c-.3-.35-.637-.565-.657-.662a18.71 18.71 0 0 0-1.024-5.163 36.81 36.81 0 0 0-6.239-9.917 28.23 28.23 0 0 0-3.863-3.721l-13.656-10.677-1.66.857c7.322 6.13 13.464 13.566 18.118 21.938-8.21 10.99-23.855 14.554-23.855 14.554-12.73-3.99-24.49-10.626-34.518-19.483a13.69 13.69 0 0 1-1.487.312s-.81 1.13-3.65-2.728a134.32 134.32 0 0 1-7.417-12.995c-1.738-3.273-3.728-6.4-5.988-11.26-2.415-5.202-27.95-22.484-32.586-18.743-.497.437-1.12.703-1.777.76H23.564c-.193 0-9.252-1.227-12.497-6.235-.147-.208-.37-.35-.622-.39a.94.94 0 0 0-.711.175l-1.37.994c-1.285.912-2.132 2.325-2.337 3.897.103-.055.226-.055.328 0 .83.8 1.313 1.403 2.51 2.552a2.76 2.76 0 0 1 .734 2.26c-.16 1.944-.734 3.83-1.68 5.533-.81.74-1.932 0-3.15-.76v1.637a17.84 17.84 0 0 0-4.192 1.403c-.83 1.13-.155 13.638.464 14.983 2.492 5.007 10.102 9.897 10.102 9.897.406-6.196 2.84-17.437 13-11.476l.348.214c5.705 3.973 9.348 10.313 9.928 17.282l54.278 31.64c.3-6.37 4.868-8.826 10.373-5.63l.348.214c5.35 3.332 11.454 12.04 11.6 25.913 9.658 3.994 21.42 1.09 31.562-3.897 10.527-5.22 18.312-11.7 20.147-16.93.17-.535.254-1.094.25-1.656-.116-2.65-.116-12.76-.116-13.892zm-108.17-31.72L29.92 41.1a19.32 19.32 0 0 1 6.664-4.832 14.87 14.87 0 0 1 11.184-.779 13.93 13.93 0 0 1 2.241 1.052l5.93 3.507-1.256 15.47zm5.68 3.195l.85-15.587 10.044 5.942c1.255.733 2.258 1.834 2.878 3.156l9.465 20.224L60.36 58.703z" fill="url(#O)"/><path d="M57.676 39.22l-6.355-3.682a16.23 16.23 0 0 0-4.539-1.948c-3.24-.855-6.665-.664-9.793.546a27.88 27.88 0 0 0-4.385 2.26c-1.5.83-2.804 1.948-3.863 3.293a1.35 1.35 0 0 0-.251.565V54.75c.008.14.07.274.174.37a25.67 25.67 0 0 1 7.726 16.249.43.43 0 0 0 .232.37L54.585 82.2c.193 0 .212 0 .232-.117l2.86-42.746c.02-.036.02-.08 0-.117zm-2.994 42.6L36.93 71.484v-.117c-.536-6.27-3.325-12.124-7.842-16.463-.015-.044-.015-.092 0-.136V40.272a1.02 1.02 0 0 1 .155-.33 13.05 13.05 0 0 1 3.747-3.273c1.38-.87 2.835-1.612 4.346-2.22 3.082-1.202 6.462-1.393 9.658-.546a16.56 16.56 0 0 1 4.462 1.948l6.278 3.624-3.052 42.356zm30.133-10.18a.57.57 0 0 0 0-.195v-.43l-1.507-3.897-.116-.273-1.932-4.48L77 53.54l-1.12-2.182-.3-.546a9.95 9.95 0 0 0-1.024-1.637 8.14 8.14 0 0 0-1.932-1.792l-1.333-.8-.212-.097-.56-.33-10.527-6.098a.39.39 0 0 0-.3 0 .33.33 0 0 0-.174.273l-3.15 43a.35.35 0 0 0 .155.292L77.78 95.994a4.65 4.65 0 0 0 2.26.604c.527-.004 1.05-.096 1.545-.273a4.5 4.5 0 0 0 2.646-2.669c2.63-7.067 2.83-14.822.56-22.016zm-.87 21.743a4.13 4.13 0 0 1-2.453 2.474 4.12 4.12 0 0 1-3.516-.312L56.73 83.193l2.86-42.727 11.32 6.546 1.294.78a7.75 7.75 0 0 1 1.932 1.715 9.11 9.11 0 0 1 .985 1.598l.3.526 1.12 2.182a277.99 277.99 0 0 1 4.23 8.806c.695 1.5 1.352 2.96 1.932 4.48l.116.273c.502 1.208 1.043 2.455 1.487 3.76l.155.448c.008.04.008.078 0 .117a33.57 33.57 0 0 1-.502 21.743v-.058zM65.7 66.594l-4.404-2.552c-.232-.156-.425 0-.425.175v.955a.91.91 0 0 0 .425.7l4.404 2.552c.232.136.425 0 .425-.175v-.974a.92.92 0 0 0-.425-.682h0z" class="I"/><path d="M66.27 66.204l-5.486-3.176c-.155-.097-.3 0-.3.117v.7c.02.188.127.355.3.448L66.27 67.5c.155 0 .27 0 .27-.117v-.623c.02-.22-.086-.43-.27-.546h0z" class="E"/><path d="M95.612 96.208l-1.043-.117c-1.958-.113-3.814.887-4.8 2.59-.184.3-.345.612-.483.935h0c-.076.177-.14.36-.193.546a3.04 3.04 0 0 0-.135.448 3.14 3.14 0 0 0-.097.409v.214a12.71 12.71 0 0 0-.212 1.773l-7.63-4.442L34.36 71.29c0-.448 0-.877-.116-1.305v-.448c0-.292-.097-.584-.155-.877l-.116-.507c0-.273-.116-.546-.193-.818l-.155-.546c-.04-.175-.174-.526-.25-.8l-.193-.546c0-.253-.193-.526-.31-.78s-.135-.37-.212-.546l-.367-.78-.232-.507-.444-.857c-.07-.14-.147-.277-.232-.41l-.734-1.227-.734-1.09-1.082-1.383-.3-.33c-.737-.848-1.545-1.63-2.415-2.338l-.328-.253a14.74 14.74 0 0 0-1.313-.935l-.212-.136h-.135a9.63 9.63 0 0 0-1.082-.565c-1.2-.632-2.514-1-3.863-1.11H17.46l-.386.097h-.25l-.367.156-.232.117-.348.214-.193.136c-.127.075-.244.167-.348.273l-.174.136c-.157.133-.306.276-.444.43l-.464.546-.097.117-.31.448-.116.175-.25.43-.116.195-.232.468v.195l-.232.507v.156c-.094.2-.172.4-.232.623-.4 1.124-.716 2.277-.946 3.45l-.31 2.065-.193 1.948-.174-.117-.155-.097-.193-.136-.212-.136-.25-.195-.232-.156-.348-.253-.25-.175-.425-.33-.232-.175-.734-.565-.81-.662-1.12-.955-.27-.273-1.14-1.072-.927-.974-.27-.312-.6-.72-.3-.37c-.193-.234-.348-.487-.522-.72l-.232-.35a11.81 11.81 0 0 1-.618-1.072s0-.175-.097-.33a.47.47 0 0 1 0-.175v-1.364c0-.526-.135-1.13-.193-1.792s0-.935-.097-1.422 0-1.09 0-1.656v-6.098a.61.61 0 0 0 0-.195v-.72c0-.097 0-.37.097-.507.02-.107.068-.207.135-.292 0 0 .097-.097.174-.156a1.52 1.52 0 0 1 .309-.156l.58-.234.946-.292.753-.214.444-.117.618-.175h.367V37.68c1.217.838 2.376 1.54 3.187.8a5.87 5.87 0 0 0 1.062-2.474c6.056 6.614 12.696 12.66 19.838 18.06 8.287 6.4 17.616 12.937 28.337 19.756-.637-.234 24.164 14.944 37.937 22.386zm67.18-8.573c-18.292 18.45-35.3 29.985-61.502 11.554a12.19 12.19 0 0 1 .908.838c.132.12.255.25.367.4l.522.526.483.565.348.41.58.74v.117a29.1 29.1 0 0 1 3.496 6.235v.195c.425 1.072.83 2.22 1.178 3.43 0 .253.135.507.193.76.27 1.013.502 2.065.695 3.176 0 .33.097.682.155 1.013.174 1.266.328 2.59.386 3.897v1.948c.695.292 1.39.526 2.086.74l.676.195 1.507.37.773.136c.502.097 1.024.156 1.545.214h.695c.734 0 1.487.097 2.24.117s1.4 0 2.125 0l2.163-.175c1.14-.136 2.28-.312 3.438-.546.792-.156 1.603-.33 2.395-.546l2.047-.546c1.333-.41 2.685-.877 4.018-1.383.89-.33 1.758-.7 2.646-1.072l.637-.292c.87-.37 1.72-.78 2.57-1.188l3.863-1.948 1.7-.994.522-.312 1.1-.682.618-.4.946-.623.6-.43c.31-.195.6-.41.89-.623l.58-.41.85-.643.522-.4.87-.7.406-.33c.406-.35.81-.7 1.178-1.052.77-.688 1.507-1.416 2.202-2.182a14.79 14.79 0 0 0 .715-.838c.232-.292.367-.468.56-.682l.58-.8c.193-.292.386-.565.54-.857a11.73 11.73 0 0 0 .966-1.948 5.38 5.38 0 0 0 .251-1.656v-9.255l.232-4.072h-.058z" style="mix-blend-mode:multiply" fill="url(#P)" class="D"/><path d="M14.95 51.455c-3.698-3.048-7.153-6.383-10.334-9.975v-3.897S.48 40.486.404 40.642a136.87 136.87 0 0 0 14.545 10.813z" fill="#eae8e1"/><path d="M157.79 98.585c-5.64 5.845-14.16 10.794-22.194 14.106a.37.37 0 0 0-.232.331v4.715c-.01.112.035.22.12.294s.198.1.306.076c3.458-.72 19.528-9.917 22.426-14.067.148-.225.222-.5.212-.76v-4.364a.37.37 0 0 0-.187-.424c-.153-.08-.34-.04-.45.093z" class="C I"/><g class="F"><path d="M139.13 104.527c-1.047-3.44-2.338-6.8-3.863-10.053a50.52 50.52 0 0 0 16.264-10.112c1.082 3.702 1.932 6.06 3.322 9.897-4.55 4.395-9.886 7.88-15.723 10.268h0z"/><path d="M153.734 93.578c0 .175.135.35.193.546a43.71 43.71 0 0 1-4.037 3.429c-2.897 1.98-5.9 3.78-9.02 5.397l-1.217.526v-.234l-.193-.565a77.77 77.77 0 0 0 14.275-9.099h0zm-2.627-7.793l-1.043.838c-4.156 3.355-8.768 6.09-13.695 8.124l.406.896a60.64 60.64 0 0 0 14.661-8.787c-.174-.292-.174-.643-.328-1.013v-.058zM138.07 98.916l.348.935c5.182-2.268 10.015-5.273 14.352-8.923l-.328-.935c-4.34 3.656-9.18 6.66-14.37 8.923h0zm-.81-2.065l.406.994c5.207-2.245 10.07-5.223 14.448-8.845-.116-.312-.212-.662-.328-.994-4.4 3.62-9.292 6.585-14.526 8.806v.04zm1.487 3.994c.116.292.212.604.328.916a80.02 80.02 0 0 0 14.332-9.021l-.31-.877c-4.31 3.707-9.15 6.74-14.352 9v-.02z" opacity=".7" style="mix-blend-mode:multiply"/></g><path d="M162.85 87.635c.01-.13.01-.26 0-.4a1.43 1.43 0 0 0-.29-.799c-.3-.35-.637-.565-.657-.662v-.136c-17.037 25.075-48.947 24.744-48.947 24.822a12.71 12.71 0 0 0 5.621 1.091c19.16.662 41.085-15.88 44.272-23.925z" fill="url(#Q)"/><path d="M135.81 117.25c-.105.024-.214-.002-.298-.07s-.13-.172-.127-.28v.838c-.01.112.035.22.12.294s.198.1.306.076c3.458-.72 19.528-9.917 22.426-14.067.148-.225.222-.5.212-.76v-.857c.01.27-.064.535-.212.76-2.917 4.15-18.988 13.268-22.426 14.067z" fill="#faf7f1"/><path d="M43.092 28.426a1.79 1.79 0 0 1-1.236.487l-15.82-.156a.29.29 0 0 1-.244-.144c-.05-.087-.054-.195-.007-.285 1.68-3.234 21.846-16.074 30.906-17.535.218-.02.438-.02.657 0a91.72 91.72 0 0 1 13 .818c-6.896 1.46-18.794 8.728-27.255 16.814z" fill="#af955a" style="mix-blend-mode:multiply" class="C"/><path d="M157.25 74.075a22.88 22.88 0 0 0-2.685-3.371 28.23 28.23 0 0 0-3.863-3.721l-23.314-18.236c-.348-.4-16.283-16.6-21.44-19.62L79.117 13.54c-6.142-3.585-20.65-3.487-21.5-3.4s-6.065-3.312-14.93-4.13a6.21 6.21 0 0 0-2.801.546c-9.793 3.897-29.67 16.113-29.67 16.113l-.212.136-.792.565a.78.78 0 0 0 0 1.266c5.003 3.4 8.17 5.377 14.178 5.475 5.563 0 17.384 0 22.136.974 4.346.896 28.588 14.573 31.253 18.353 2.357 3.37 10.18 17.963 14.854 26.79a36.91 36.91 0 0 0 12.034 13.443 119.57 119.57 0 0 0 7.089 4.364 17.02 17.02 0 0 0 8.48 2.221c15.006-.027 29.102-7.262 37.956-19.483a2.53 2.53 0 0 0 .058-2.708h0zM43.092 28.426a1.79 1.79 0 0 1-1.236.487l-15.82-.156a.29.29 0 0 1-.244-.144c-.05-.087-.054-.195-.007-.285 1.68-3.234 21.846-16.074 30.906-17.535.218-.02.438-.02.657 0a91.72 91.72 0 0 1 13 .818c-6.896 1.46-18.794 8.728-27.255 16.814zm79.196 26.75a76.02 76.02 0 0 1-29.554 16.502 3.04 3.04 0 0 1-3.593-1.344L78.016 49.72c-.04-.066-.046-.146-.02-.218s.083-.128.155-.152c11-3.792 21.122-9.753 29.805-17.535.04-.043.096-.067.155-.067s.114.024.155.067c5.524 4.715 10.74 9.742 16.65 15.703 2.01 1.987-.695 5.98-2.627 7.657z" fill="url(#R)"/><path d="M35.56 50.87l-4.404-2.61c-.238-.15-.395-.4-.425-.682v-.955c0-.253.193-.33.425-.195L35.56 49c.238.15.395.4.425.682v.955c0 .292-.193.37-.425.234z" class="I"/><path d="M36.158 48.688l-5.486-3.195c-.155-.097-.3 0-.3.117v.7c.025.186.13.35.3.448l5.486 3.195c.155 0 .27 0 .27-.136v-.623c.004-.205-.098-.397-.27-.507h0z" class="E"/><path d="M24.143 27.842a46.98 46.98 0 0 1-13.425-5.514l.3-.175a45.79 45.79 0 0 0 13.135 5.377 92.68 92.68 0 0 1 17.384-11.904c3.85-2.116 7.868-3.902 12.015-5.338a52.92 52.92 0 0 0-14.217-3.546l.483-.195H40c4.82.652 9.542 1.895 14.062 3.702.04.044.04.11 0 .156-.003.06-.04.114-.097.136a75 75 0 0 0-12.304 5.397c-6.267 3.294-12.138 7.3-17.5 11.943l-.02-.04z" opacity=".25" class="I"/><path d="M122.288 55.176a76.02 76.02 0 0 1-29.554 16.502 3.04 3.04 0 0 1-3.593-1.344L78.016 49.72c-.04-.066-.046-.146-.02-.218s.083-.128.155-.152c11-3.792 21.122-9.753 29.805-17.535.04-.043.096-.067.155-.067s.114.024.155.067c5.524 4.715 10.74 9.742 16.65 15.703 2.01 1.987-.695 5.98-2.627 7.657z" fill="#fffcee" style="mix-blend-mode:multiply" class="C"/><path d="M124.973 47.52c-5.62-5.69-10.643-10.482-15.858-15.022-.155 6.546-2.588 31.758-2.8 33.745 5.78-3 11.167-6.718 16.032-11.066 1.874-1.676 4.578-5.67 2.627-7.657z" fill="#fff" opacity=".3" style="mix-blend-mode:screen"/><path d="M124.973 47.52c-5.91-5.98-11.126-10.99-16.65-15.703-.04-.043-.096-.067-.155-.067s-.114.024-.155.067C99.33 39.598 89.2 45.56 78.21 49.35c-.072.024-.13.08-.155.152s-.02.152.02.218L89.2 70.334a3.04 3.04 0 0 0 3.593 1.344 76.02 76.02 0 0 0 29.554-16.502c1.874-1.676 4.578-5.67 2.627-7.657zm-3.322 6.468c-8.544 7.735-18.714 13.417-29.747 16.62-.257.078-.524.118-.792.117a2.18 2.18 0 0 1-1.932-1.111l-10.585-19.95a91.25 91.25 0 0 0 29.689-17.535c5.08 4.384 9.658 8.748 16.07 15.158.338.337.508.81.464 1.286-.418 2.115-1.535 4.025-3.168 5.416h0z" fill="#4b4c45"/><use xlink:href="#Z" class="O"/><path d="M153.908 85.278c-.676.546-.3 2.942.193 4.208 2.273-1.618 4.053-3.845 5.138-6.43a9.29 9.29 0 0 0-.29-6.39c-.135-.31-.325-.595-.56-.838 1.43 3.4-1.777 7.248-4.48 9.45z" fill="#8aa5aa"/><g class="O"><path d="M155 87.5c-.043.74-.36 1.435-.89 1.948 0 0 0-.156-.135-.234-.198-.634-.334-1.287-.406-1.948a1.83 1.83 0 0 1 .773-1.013c.464-.253.792.33.657 1.247zm3.71-7.345a2.5 2.5 0 0 0-.946 1.948c-.097.877.174 1.46.618 1.286a2.48 2.48 0 0 0 .946-1.948c.097-.877-.193-1.442-.618-1.286h0zm-2.492 6.215a2.64 2.64 0 0 0 .985-1.948c.097-.896-.193-1.46-.637-1.286a2.56 2.56 0 0 0-.985 1.948c-.097.896.193 1.46.637 1.286h0z" opacity=".8" style="mix-blend-mode:screen"/><use xlink:href="#Z" opacity=".9" style="mix-blend-mode:screen"/><path d="M134.34 97.085a41.23 41.23 0 0 1-14.97 2.552c0 .234 1.16 5.845 1.39 6.43a38.09 38.09 0 0 0 14.893-3.487 1.64 1.64 0 0 0 .773-1.656c-.174-1.5-.734-4.364-2.086-3.838z"/></g><path d="M134.13 101.78c.57-.32.88-.968.773-1.617a10.91 10.91 0 0 0-.773-3c-6.216 2.232-12.865 2.966-19.413 2.143a.54.54 0 0 0-.618.331c-.172 1.527.16 3.067.946 4.384 2.666.916 13.212.604 19.084-2.24z" fill="#8aa5aa"/><g class="O"><path d="M133.626 99.754c-.022.862-.604 1.607-1.43 1.83-.753 0-1.333-.584-1.313-1.5.01-.864.585-1.618 1.4-1.85.753-.078 1.352.682 1.333 1.52zm-5.89-.292c-.825.233-1.4.987-1.4 1.85 0 .916.58 1.598 1.333 1.5.825-.233 1.4-.987 1.4-1.85.02-.916-.58-1.598-1.333-1.5zm-4.77.584c-.818.23-1.39.975-1.4 1.83 0 .935.58 1.598 1.333 1.5a1.83 1.83 0 0 0 1.41-1.831c.02-.916-.58-1.598-1.333-1.5h0z" opacity=".8" style="mix-blend-mode:screen"/><path d="M134.34 97.085a40.79 40.79 0 0 1-14.622 2.552 21.27 21.27 0 0 0 .483 2.942c.232.994 1.14 3.45 1.14 3.45 4.95-.194 9.812-1.365 14.313-3.45a1.64 1.64 0 0 0 .773-1.656c-.174-1.5-.734-4.364-2.086-3.838z" opacity=".9" style="mix-blend-mode:screen"/></g><path d="M119.815 99.637c-1.705.01-3.4-.1-5.1-.33a.54.54 0 0 0-.618.331c-.132 2.127.56 4.223 1.932 5.845a10.92 10.92 0 0 0 5.273.448 52.3 52.3 0 0 1-1.487-6.293z" fill="#d16a0d"/><path d="M8.748 30.49l-2.782-2.903c-1.932.838-1.603 4.364-1.39 8.222 0 .565 2.144 1.792 3.863 1.5a25.37 25.37 0 0 0 1.101-4.559 2.76 2.76 0 0 0-.792-2.26z" fill="#ad2525"/><path d="M4.557 35.635v1.948c1.178.8 2.337 1.5 3.15.76.312-.347.543-.76.676-1.208-1.42.024-2.793-.515-3.825-1.5h0z" fill="#d16a0d"/><path d="M60.322 58.722l.85-15.587 10.044 5.942c1.255.733 2.258 1.834 2.878 3.156l9.465 20.224L60.322 58.72zm-5.64-3.175L29.92 41.13c1.855-2.076 4.127-3.73 6.664-4.85a14.97 14.97 0 0 1 11.184-.78 13.93 13.93 0 0 1 2.241 1.052l5.93 3.507-1.256 15.5z" style="mix-blend-mode:multiply" class="C" fill="#af955a"/><path d="M77.166 74.017l3.36.175a8.99 8.99 0 0 0 4.404-.818 26.77 26.77 0 0 0-1.7-4.89l-4.153 1.948-1.912 3.585z" class="F"/><path d="M79.174 69.068c-.966 0-8.055 2.24-7.958 3.098.675 1.938 2.224 3.435 4.172 4.033 1.45.312 7.495-1.637 7.514-2.202.058-1.072-1.912-4.832-3.728-4.93z" fill="url(#S)"/><path d="M89.78 44.363l3.863.565a2.3 2.3 0 0 0 1.429-.273l4.018-2.435a1.62 1.62 0 0 0 .657-1.266l.116-2.572a61.48 61.48 0 0 1-10.083 5.981z" fill="#4b4c45"/><path d="M157.25 74.075a22.88 22.88 0 0 0-2.685-3.371 28.23 28.23 0 0 0-3.863-3.721l-18.756-14.65L92.927 78.46a36.76 36.76 0 0 0 10.74 11.203 119.57 119.57 0 0 0 7.089 4.364 17.02 17.02 0 0 0 8.48 2.221c15.006-.027 29.102-7.262 37.956-19.483a2.53 2.53 0 0 0 .058-2.689h0z" fill="url(#T)" opacity=".3" style="mix-blend-mode:screen"/><path d="M66.098 33.18c-11.3 4.13-28.55 14.047-28.55 14.047L33.975 33.9c7.09-4.09 24.512-10.58 32.663-10.91-.058 2.825-.367 7.326-.54 10.2z" fill="#d93934"/><path d="M77.706 35.167l-3.322 1.948c-5.136 2.878-8.382 8.28-8.538 14.203l-1.584 45.396-15.878-9.255 1.642-45.298c.186-5.554 3.077-10.657 7.726-13.638l4.114-2.63 15.84 9.274zm11-16.054l-5.988-3.487c-3.226 0-7.3 3.234-7.3 3.234L90.88 27.84s4.056-3.234 7.282-3.234l-9.446-5.494z" fill="url(#U)"/><path d="M156.033 97.67c-.75-7.92-4.417-15.268-10.276-20.594l-5.254-4.403c-8.573-7.155-16.58-14.97-23.952-23.38l-9.986-11.437a30.74 30.74 0 0 0-4.559-4.286c-6.973-5.32-26.347-19.23-38.168-19.23l-14.43-.175a11.17 11.17 0 0 1-2.55-.351L32.816 9.917c-5.89 3.02-11.6 6.235-17.77 9.917l14.622 3.994c.8.215 1.625.332 2.453.35l15.762.33c11.86 0 30.906 13.833 37.608 19.035 1.565 1.225 3.014 2.595 4.327 4.09l10.624 12.08a217.18 217.18 0 0 0 24.512 23.828L129 86.876c5.585 5.533 9.198 12.773 10.276 20.594a23.56 23.56 0 0 1-2.028 14.593c6.113-1.984 11.8-5.1 16.766-9.216 2.415-4.19 2.666-10.2 2.028-15.177z" fill="url(#V)"/><path d="M71.854 35.4c1.198 12.06-.193 32.03-.193 32.03l13.52-2.513c.58-8.222-1.178-26.887-4.404-34.427-2.55 1.286-6.452 3.526-8.924 4.9z" fill="#f84f4d"/><path d="M101.156 7.228L88.35.35c.81.43 1.294 1.617 1.37 3.468.208 3.297-1.06 6.515-3.458 8.767l-16.13 11.28 12.787 6.878 16.13-11.26c2.397-2.26 3.666-5.484 3.458-8.787-.058-1.85-.54-3.02-1.352-3.468z" fill="#ce2e2e"/><path d="M88.35.33l-.406-.156a3.05 3.05 0 0 0-2.125.584 9.27 9.27 0 0 0-1.507 1.266 68.64 68.64 0 0 0-14.178 21.86l12.807 6.878c3.32-8.135 8.153-15.555 14.236-21.86.446-.473.945-.892 1.487-1.247.612-.47 1.38-.678 2.144-.584a1.46 1.46 0 0 1 .406.156L88.35.33z" fill="url(#W)"/><path d="M80.72 29.517L67.913 22.64c.722.384 1.407.834 2.047 1.344l-16.13 11.28h-.116a2.07 2.07 0 0 1-2.105.273l12.73 6.878c.722.33 1.565.242 2.202-.234h.116l16.13-11.26c-.645-.53-1.337-1-2.067-1.403h0z" fill="#ce2e2e"/><path d="M67.913 22.62c-2.704-1.422-6.76-2.26-13.174 0-.377.146-.74.33-1.082.546-1 .66-1.837 1.54-2.453 2.572-1.02 1.77-1.504 3.8-1.39 5.845a4.46 4.46 0 0 0 1.7 3.897l12.826 6.936a4.5 4.5 0 0 1-1.7-3.897c-.108-2.043.376-4.074 1.39-5.845a7.88 7.88 0 0 1 2.434-2.552c.347-.22.716-.403 1.1-.546 6.413-2.338 10.47-1.52 13.174 0L67.913 22.62z" fill="url(#X)"/><path d="M93.488 25.562l-4.172-.312.946 6.43s13.52-1.948 30.442 6.683l-8.402-5.845a41.27 41.27 0 0 0-18.814-6.955z" fill="#f84f4d"/></g></g></svg>