<svg xmlns="http://www.w3.org/2000/svg" viewBox="0 0 115 112"><defs/><defs><clipPath id="a"><path fill="#fff" stroke="#707070" d="M0 0h115v104H0z"  transform="translate(0 -.157)"/></clipPath><filter id="b" width="46" height="46" x="30" y="27" ><feOffset dy="3"/><feGaussianBlur result="blur" stdDeviation="3"/><feFlood flood-opacity=".314"/><feComposite in2="blur" operator="in"/><feComposite in="SourceGraphic"/></filter></defs><g clip-path="url(#a)"  transform="translate(0 8.157)"><g ><g ><path fill="#404040" d="M98.147 84.405a4.751 4.751 0 00-1.387.9 22.137 22.137 0 00-3.472 2.924 17.015 17.015 0 01-8.791 5.81 7.617 7.617 0 00-2.216.8c-1.1.718-1.624 2.029-2.26 3.181-2.795 5.064-8.808 7.858-14.59 7.709-1.556-.04-3.181-.255-4.615.352-.549.232-1.046.578-1.6.785a6.342 6.342 0 01-1.909.308 33.063 33.063 0 01-9.534-.93 9.591 9.591 0 00-3.983-.49 10.7 10.7 0 00-2.107.746 18.9 18.9 0 01-8.863 1.331 8.869 8.869 0 01-5.83-2.424c-1.733-1.889-2-4.773-1.325-7.246a22.955 22.955 0 013.607-6.748l3.637-5.285a7.634 7.634 0 00.875-1.506c.785-2.007.6-4.293.41-6.44-.286-3.189-.541-6.558.844-9.445a20.806 20.806 0 011.586-2.575.681.681 0 00-.214-1.121c-3.041-2.4-6.762-3.968-10.064-5.993l-1.724-1.057a1.777 1.777 0 01-.69-.614 1.75 1.75 0 01-.155-.64l-.7-6.251a5.314 5.314 0 01.095-2.383c.355-.993 1.312-1.948.91-2.924-.323-.783-1.466-1.307-1.206-2.114.158-.489.782-.69.99-1.16.335-.757-.625-1.476-1.451-1.538s-1.74.142-2.423-.324c-1.417-.966-.355-3.64-1.741-4.651a2.923 2.923 0 00-1.913-.333 3.49 3.49 0 00-1.746.413c-.721.473-.985 1.382-1.4 2.136s-1.306 1.453-2.081 1.071a1.742 1.742 0 01-.634-.625 14.842 14.842 0 01-1.421-3.382 6.262 6.262 0 00-1.955-3.052 2.654 2.654 0 00-3.37.036 3.362 3.362 0 01-.457.462c-.618.43-1.483-.022-2.212.164-.171.609.4 1.148.891 1.543s1.022 1.007.758 1.581c-.5.615-1.795.025-2.135.737-.114.239-.049.539-.179.77a.737.737 0 01-.9.225 3.634 3.634 0 01-.833-.578 3.513 3.513 0 00-3.41-.436 1.268 1.268 0 01-.389-1.681 4 4 0 011.362-1.323 3.192 3.192 0 001.271-1.4.867.867 0 00.037-.555 1.167 1.167 0 00-.552-.555 3.453 3.453 0 01-1.212-1.046 1.17 1.17 0 01.133-1.475c.759-.618 1.831.359 2.808.309a1.739 1.739 0 001.45-1.216 3.759 3.759 0 00.027-1.984c-.175-.856-.441-1.85.116-2.524.143-.174.331-.31.462-.494a.992.992 0 00-1.254-1.459c-.472.235-.824.854-1.339.739-.328-.074-.5-.419-.748-.651a1.894 1.894 0 00-2.279.055 387.354 387.354 0 01-22.685 42.1c-14.054 24.316-29.707 37.332-38.605 45.875a2.65 2.65 0 00-.683 2.735c4.816 14.794 10.092 29.481 13.756 44.6 1.153 4.758 2.711 9.407 4.268 14.049 2.946 8.789 8.085 16.683 10.651 25.589 1.937 6.723 6.638 12.378 8.655 19.077 1.263 4.194 1.431 8.667 2.8 12.825a20.682 20.682 0 011.287 4.534 14.241 14.241 0 01-.024 2.152q-.128 2.069-.255 4.139a12 12 0 00.1 3.253 4.117 4.117 0 001.127 2l3.795 3.863a3.018 3.018 0 011.066 1.782 3.066 3.066 0 01-.543 1.62c-1.557 2.8-2.943 5.947-2.4 9.1a4.508 4.508 0 00.852 2.083 6.658 6.658 0 002.205 1.543 53.859 53.859 0 014.719 2.789 6.039 6.039 0 011.69 1.472 6.45 6.45 0 01.818 2.036A342.445 342.445 0 00.178 306.667Q3.09 313.902 6 321.137a9.36 9.36 0 01.915 3.609c-.024 1.141-.465 2.246-.458 3.387.01 1.667.956 3.158 1.7 4.65 2 4.034 2.636 8.6 4.178 12.831 1.7 4.669 3.07 9.337 5.2 13.87q.66 1.546 1.318 3.093c.905 2.214 2.058 4.437 2.366 6.841a42.14 42.14 0 01.029 4.986 8.062 8.062 0 001.256 4.745 15.479 15.479 0 011.68 2.14 6.113 6.113 0 01.435 2.582 10.939 10.939 0 01-.651 4.932c-.579 1.232-1.622 2.255-1.922 3.583-.342 1.516.359 3.065.388 4.62.02 1.132-.312 2.307.076 3.371a5.266 5.266 0 001.08 1.592l4.756 5.433a1.145 1.145 0 00.831.513c.377-.02.623-.391.805-.721l3.454-6.212a2.066 2.066 0 01.514-.682c.618-.464 1.583-.139 2.2-.6a2.242 2.242 0 00.656-1.388 15.969 15.969 0 017.421-10.132 1.64 1.64 0 00.717-.622 1.564 1.564 0 00.1-.7c-.028-2.856.352-5.679 0-8.486a23.5 23.5 0 01.568-7.379l1.376-5.244a12.356 12.356 0 00.6-4.631c-.112-.884-.415-1.738-.48-2.627a8.72 8.72 0 011.258-4.541 33.261 33.261 0 012.282-3.767 7.432 7.432 0 001.113-1.937 6.694 6.694 0 00.169-2.344c-.1-2.051-.134-3.971-.235-6.011a33.626 33.626 0 011.98-13 29.737 29.737 0 011.084-3.239 11.793 11.793 0 01.958-1.527c3.034-4.325 8.024-7.767 9.137-12.892a5.024 5.024 0 00-.057-2.229q-1.612-6.757-3.226-13.513c-.538-2.256-1.056-4.73-.032-6.809.293-.595.7-1.127.982-1.728 1.24-2.651-.192-6.111 1.426-8.551a14.383 14.383 0 012.416-2.32 3.435 3.435 0 001.326-2.934 4.3 4.3 0 00-.648-1.422 66.449 66.449 0 01-4.377-8.554 3.778 3.778 0 01-.414-1.7 4.109 4.109 0 01.753-1.781 33.483 33.483 0 005.07-16.429 28.482 28.482 0 011.537-8.978 15.169 15.169 0 012.18-4.18c1.485-1.914 3.7-3.481 4.122-5.866.106-.6.088-1.211.195-1.807a9.247 9.247 0 011.523-3.207c1.814-2.858 3.5-5.969 3.641-9.352.083-1.963-.357-3.983.2-5.868a11.363 11.363 0 011.28-2.607 8.736 8.736 0 012.04-2.569 3.012 3.012 0 013.094-.468c.153-1.972.965-4.145.032-5.89a4.792 4.792 0 01.089-4.592 23.574 23.574 0 001.682-2.491 13.929 13.929 0 00.523-2.158 6.546 6.546 0 012.391-3.627 28.472 28.472 0 013.7-1.968 5.01 5.01 0 002.717-3.029 5.57 5.57 0 00-.262-2.739c-.68-2.358-1.716-4.753-1.3-7.172.51-2.95 3.012-5.072 4.7-7.545a20.13 20.13 0 003.081-11.524 12.859 12.859 0 00-1.035-4.94 12.329 12.329 0 00-1.2-2.343l-4.536-6.428c-1.475-2.091-3.015-4.391-2.9-6.948.144-3.27 2.895-5.753 4.265-8.725.471-1.023.78-2.112 1.207-3.154a29.825 29.825 0 012.492-4.508c1.553-2.461 3.19-4.835 4.742-7.3V84.305l-8.5-.074a4.745 4.745 0 00-1.626.174z" /><path fill="#fff" d="M29.129 408.098a1.363 1.363 0 01-.932-.572l-4.756-5.433a5.437 5.437 0 01-1.113-1.648 5.37 5.37 0 01-.142-2.316 8.059 8.059 0 00-.183-2.913 5.32 5.32 0 01.986-5.127 10.988 10.988 0 00.8-1.352 10.843 10.843 0 00.634-4.854 6.014 6.014 0 00-.417-2.509 5.864 5.864 0 00-.983-1.308 10.3 10.3 0 01-.68-.806 8.117 8.117 0 01-1.29-4.847c0-.57.015-1.149.034-1.709a15.157 15.157 0 00-1.826-8.661c-.2-.465-.4-.928-.59-1.391l-1.317-3.092a96.6 96.6 0 01-3.777-9.805c-.459-1.334-.933-2.714-1.427-4.072-.616-1.69-1.094-3.457-1.557-5.166a41.291 41.291 0 00-2.615-7.647c-.123-.248-.251-.5-.381-.745a8.949 8.949 0 01-1.334-3.982 8.823 8.823 0 01.232-1.787 6.834 6.834 0 00-.678-5.145l-5.821-14.47a342.853 342.853 0 01-12.444-36.607 6.359 6.359 0 00-.792-1.982 5.867 5.867 0 00-1.644-1.426 53.724 53.724 0 00-4.7-2.78l-.1-.055a6.5 6.5 0 01-2.155-1.533 4.606 4.606 0 01-.888-2.164c-.567-3.276.9-6.5 2.418-9.216a2.91 2.91 0 00.52-1.525 2.852 2.852 0 00-1.016-1.671l-3.795-3.863a4.293 4.293 0 01-1.174-2.083 12.138 12.138 0 01-.1-3.3l.255-4.139a10.536 10.536 0 00-.887-5.562c-.126-.352-.251-.7-.368-1.058a46.522 46.522 0 01-1.5-6.739 38.074 38.074 0 00-5.575-15.454 49.961 49.961 0 01-4.383-9.715 92.937 92.937 0 00-5.63-13.779 109 109 0 01-5.02-11.8c-1.532-4.567-3.115-9.291-4.272-14.064-2.854-11.779-6.753-23.489-10.524-34.813-1.065-3.2-2.167-6.511-3.229-9.772a2.846 2.846 0 01.728-2.915c1.118-1.073 2.351-2.225 3.655-3.444 9.017-8.423 22.643-21.152 34.92-42.392A383.176 383.176 0 00-5.027 20.801l.021-.047.044-.028a2.7 2.7 0 011.406-.443 1.54 1.54 0 011.087.408 2.944 2.944 0 01.221.243.936.936 0 00.445.363c.241.054.468-.139.713-.352a2.536 2.536 0 01.509-.373 1.227 1.227 0 011.406.284 1.2 1.2 0 01.069 1.433 2.12 2.12 0 01-.277.3 2.42 2.42 0 00-.192.2 2.6 2.6 0 00-.12 2.183l.041.2a3.98 3.98 0 01-.033 2.077 1.91 1.91 0 01-1.607 1.331h-.083a3.6 3.6 0 01-1.18-.279c-.577-.205-1.1-.352-1.444-.071a1.006 1.006 0 00-.093 1.25 3.35 3.35 0 001.154.988 1.331 1.331 0 01.625.648 1.018 1.018 0 01-.039.668 3.359 3.359 0 01-1.334 1.481l-.062.044a3.7 3.7 0 00-1.246 1.216 1.317 1.317 0 00-.076.974.808.808 0 00.321.434 3.745 3.745 0 013.5.492c.071.054.141.111.21.168a2.246 2.246 0 00.581.387.59.59 0 00.69-.149.9.9 0 00.076-.332 1.269 1.269 0 01.1-.428c.222-.466.748-.487 1.212-.507.389-.016.756-.031.944-.264.221-.5-.436-1.1-.73-1.335-.546-.438-1.147-1.029-.95-1.728l.027-.1.1-.025a3.135 3.135 0 011.027-.013 5.1 5.1 0 00.508.036 1.027 1.027 0 00.619-.161 1.675 1.675 0 00.288-.281c.047-.054.094-.108.144-.159a2.351 2.351 0 011.714-.674 3.257 3.257 0 011.886.618 6.5 6.5 0 012.016 3.134c.085.235.165.473.246.712a10.969 10.969 0 001.155 2.632 1.584 1.584 0 00.567.566.866.866 0 00.382.09 1.97 1.97 0 001.468-1.09c.106-.191.2-.392.3-.592a2.793 2.793 0 013-2.046c.179-.01.363-.019.545-.019a2.457 2.457 0 011.48.385 3.149 3.149 0 01.928 2.449c.084.9.163 1.758.809 2.2a2.213 2.213 0 001.3.287h.305c.248 0 .5-.008.735.01a2.064 2.064 0 011.528.873.959.959 0 01.07.911 1.765 1.765 0 01-.533.612 1.3 1.3 0 00-.451.531c-.128.394.186.726.548 1.111a3.078 3.078 0 01.653.882 2.488 2.488 0 01-.469 2.154 6.368 6.368 0 00-.438.9 5.212 5.212 0 00-.085 2.3l.7 6.251a1.623 1.623 0 00.135.578 1.648 1.648 0 00.627.547l1.724 1.057c1.193.732 2.467 1.417 3.7 2.08a43.481 43.481 0 016.382 3.924.845.845 0 01.252 1.356l-.2.3a17.993 17.993 0 00-1.369 2.251c-1.4 2.925-1.084 6.489-.828 9.353.186 2.077.4 4.43-.422 6.52a7.7 7.7 0 01-.894 1.541l-3.637 5.286a22.747 22.747 0 00-3.582 6.7c-.577 2.116-.543 5.088 1.285 7.082a8.555 8.555 0 005.717 2.367 18.861 18.861 0 008.78-1.319l.368-.155a8.593 8.593 0 011.774-.6 4.849 4.849 0 01.877-.077 11.468 11.468 0 012.777.468l.4.1a32.981 32.981 0 009.484.924 6.177 6.177 0 001.856-.3 6.846 6.846 0 00.863-.414c.236-.127.48-.259.734-.367a6.642 6.642 0 012.6-.435c.422 0 .848.019 1.272.039.272.012.544.025.814.032a3.341 3.341 0 00.434.006c5.948 0 11.442-2.994 14-7.625.115-.208.225-.422.337-.635a4.853 4.853 0 013.9-3.338l.348-.092a16.818 16.818 0 008.7-5.75 11.9 11.9 0 012.357-2.077c.383-.281.778-.573 1.141-.873a4.89 4.89 0 011.44-.929 4.2 4.2 0 011.44-.187l8.92.076v15.2l-.027.043c-.777 1.231-1.587 2.462-2.372 3.651s-1.595 2.416-2.369 3.646a29.671 29.671 0 00-2.478 4.48c-.179.434-.34.887-.494 1.324-.216.608-.44 1.237-.717 1.836a23.189 23.189 0 01-1.8 3.043c-1.211 1.826-2.354 3.55-2.445 5.617-.107 2.408 1.3 4.61 2.87 6.84l4.536 6.428a11.871 11.871 0 011.17 2.27l.043.1a12.956 12.956 0 011.049 5.008 20.506 20.506 0 01-3.111 11.625c-.5.729-1.071 1.436-1.627 2.12-1.323 1.629-2.691 3.314-3.044 5.357a12.376 12.376 0 00.879 5.737c.143.453.286.905.417 1.356a5.747 5.747 0 01.264 2.826 5.249 5.249 0 01-2.8 3.144c-.438.238-.9.451-1.338.658a12.9 12.9 0 00-2.339 1.3 6.327 6.327 0 00-2.327 3.529c-.06.242-.106.488-.151.735a5.185 5.185 0 01-1.356 2.955 9.545 9.545 0 00-.716 1.006 4.612 4.612 0 00-.086 4.421c.707 1.323.454 2.867.209 4.36-.088.54-.179 1.1-.221 1.627l-.02.263-.234-.121a2.87 2.87 0 00-2.909.452 8.621 8.621 0 00-2 2.52 8.434 8.434 0 00-1.492 6.333c.034.676.068 1.374.039 2.059-.146 3.444-1.849 6.571-3.669 9.437l-.073.117a6.44 6.44 0 00-1.52 3.915 8.736 8.736 0 01-.1.92c-.308 1.739-1.545 3.06-2.741 4.336-.484.518-.985 1.053-1.414 1.606a14.954 14.954 0 00-2.16 4.144 28.074 28.074 0 00-1.527 8.922 33.441 33.441 0 01-5.1 16.517l-.038.062a3.821 3.821 0 00-.69 1.641 3.559 3.559 0 00.4 1.617 66.356 66.356 0 004.364 8.531 4.424 4.424 0 01.671 1.481 3.665 3.665 0 01-1.379 3.093c-.258.242-.534.471-.8.693a7.652 7.652 0 00-1.588 1.6c-.833 1.256-.829 2.782-.825 4.4a9.6 9.6 0 01-.589 4.132 9.424 9.424 0 01-.522.929c-.16.26-.326.529-.461.8-.966 1.961-.53 4.284.044 6.692l3.227 13.513a5.174 5.174 0 01.057 2.307c-.747 3.44-3.244 6.161-5.658 8.792a42.377 42.377 0 00-3.506 4.164 8.627 8.627 0 00-1.641 3.488c-.116.409-.237.832-.381 1.235a33.317 33.317 0 00-1.969 12.933c.052 1.076.089 2.118.125 3.164.033.938.065 1.879.11 2.849a5.179 5.179 0 01-1.2 4.232l-.11.156a33.149 33.149 0 00-2.27 3.749 8.6 8.6 0 00-1.24 4.447 9.863 9.863 0 00.251 1.428c.088.387.178.787.229 1.19a12.62 12.62 0 01-.607 4.7l-1.377 5.244a23.25 23.25 0 00-.563 7.312 33.133 33.133 0 01.073 5.443c-.042 1-.085 2.039-.075 3.063a1.728 1.728 0 01-.119.779 1.765 1.765 0 01-.772.689 15.865 15.865 0 00-7.354 10.027 2.374 2.374 0 01-.723 1.491 2.231 2.231 0 01-1.188.331 1.936 1.936 0 00-1.013.267 1.916 1.916 0 00-.467.625l-3.453 6.213c-.215.387-.5.786-.95.81zM-4.734 20.991a383.553 383.553 0 01-22.673 42.075c-12.3 21.281-25.949 34.032-34.981 42.468-1.3 1.219-2.536 2.37-3.653 3.441a2.492 2.492 0 00-.637 2.555c1.061 3.259 2.162 6.569 3.228 9.769 3.772 11.332 7.674 23.049 10.531 34.842 1.153 4.757 2.735 9.473 4.264 14.035a108.993 108.993 0 005 11.765 93.223 93.223 0 015.649 13.832 49.692 49.692 0 004.355 9.645 38.392 38.392 0 015.612 15.562 46.311 46.311 0 001.491 6.689c.116.351.24.7.366 1.05a14.526 14.526 0 01.93 3.524 14.371 14.371 0 01-.024 2.178l-.255 4.139a11.862 11.862 0 00.092 3.205 3.951 3.951 0 001.081 1.911l3.795 3.863a3.118 3.118 0 011.116 1.893 3.215 3.215 0 01-.564 1.716c-1.484 2.665-2.926 5.818-2.379 8.985a4.273 4.273 0 00.814 2 6.252 6.252 0 002.046 1.443l.1.054a54.356 54.356 0 014.735 2.8 6.136 6.136 0 011.737 1.517 6.612 6.612 0 01.843 2.09A342.667 342.667 0 00.316 306.605l5.821 14.471a7.16 7.16 0 01.7 5.345 8.6 8.6 0 00-.225 1.716 8.691 8.691 0 001.294 3.823c.13.251.261.5.385.751a41.668 41.668 0 012.639 7.711c.46 1.7.936 3.461 1.547 5.136.5 1.361.971 2.743 1.43 4.079a96.472 96.472 0 003.765 9.776l1.32 3.1c.19.463.389.924.589 1.387a15.489 15.489 0 011.855 8.812c-.02.556-.039 1.132-.034 1.7a7.688 7.688 0 001.222 4.641 10.048 10.048 0 00.657.779 6.2 6.2 0 011.038 1.388 6.264 6.264 0 01.454 2.655 11.105 11.105 0 01-.667 5.01 11.256 11.256 0 01-.828 1.4 4.987 4.987 0 00-.935 4.868 11.249 11.249 0 01.245 1.861 11.374 11.374 0 01-.057 1.147 5.021 5.021 0 00.122 2.167 5.082 5.082 0 001.047 1.538l4.756 5.433c.193.219.418.453.669.453v.175l.022-.176c.283-.015.493-.327.661-.629l3.454-6.213a2.2 2.2 0 01.563-.736 2.219 2.219 0 011.193-.336 1.949 1.949 0 001.011-.264 2.045 2.045 0 00.582-1.251 16.231 16.231 0 017.512-10.279 1.515 1.515 0 00.648-.548 1.434 1.434 0 00.084-.622c-.01-1.033.034-2.074.076-3.082a32.854 32.854 0 00-.071-5.384 23.673 23.673 0 01.573-7.445l1.376-5.245a12.325 12.325 0 00.6-4.565c-.049-.386-.138-.777-.223-1.156a10.2 10.2 0 01-.259-1.48 8.918 8.918 0 011.279-4.636 33.455 33.455 0 012.294-3.788l.11-.157a6.619 6.619 0 00.979-1.732 6.536 6.536 0 00.16-2.282c-.045-.972-.078-1.914-.11-2.853-.036-1.044-.072-2.084-.125-3.158a33.659 33.659 0 011.989-13.068c.142-.393.259-.81.375-1.214a8.97 8.97 0 011.689-3.592 42.488 42.488 0 013.535-4.2c2.383-2.6 4.847-5.284 5.574-8.63a4.826 4.826 0 00-.056-2.152l-3.226-13.512c-.59-2.471-1.036-4.861-.018-6.927.143-.289.312-.565.476-.831a8.869 8.869 0 00.5-.892 9.345 9.345 0 00.556-3.984 6.074 6.074 0 012.539-6.263c.263-.219.536-.445.786-.679a3.341 3.341 0 001.274-2.774 4.107 4.107 0 00-.611-1.338 66.954 66.954 0 01-4.4-8.6 3.892 3.892 0 01-.427-1.779 4.087 4.087 0 01.74-1.8l.039-.062a33.092 33.092 0 005.044-16.342 28.448 28.448 0 011.547-9.034 15.324 15.324 0 012.213-4.239c.438-.565.945-1.106 1.436-1.63 1.214-1.3 2.361-2.521 2.651-4.158a8.741 8.741 0 00.1-.884 8.6 8.6 0 01.1-.924 9.008 9.008 0 011.473-3.153l.075-.117c1.793-2.825 3.473-5.9 3.614-9.266.028-.668-.006-1.359-.039-2.026a8.757 8.757 0 011.542-6.531 8.864 8.864 0 012.085-2.618 3.31 3.31 0 013.047-.588c.048-.467.127-.945.2-1.41.235-1.436.479-2.92-.173-4.137a4.976 4.976 0 01.092-4.763 9.68 9.68 0 01.744-1.045 4.869 4.869 0 001.287-2.8c.047-.253.094-.506.155-.754a6.684 6.684 0 012.457-3.724 13.167 13.167 0 012.4-1.333c.438-.205.892-.417 1.319-.65a4.912 4.912 0 002.63-2.913 5.423 5.423 0 00-.258-2.652c-.129-.448-.272-.9-.414-1.347a12.63 12.63 0 01-.889-5.9c.368-2.133 1.765-3.853 3.117-5.517.55-.679 1.12-1.38 1.61-2.1a20.164 20.164 0 003.049-11.424 12.611 12.611 0 00-1.02-4.873l-.044-.1a11.626 11.626 0 00-1.134-2.206l-4.536-6.429c-1.61-2.281-3.045-4.538-2.934-7.057.095-2.164 1.319-4.01 2.5-5.795a22.972 22.972 0 001.777-3c.27-.585.491-1.207.7-1.807.157-.441.319-.9.5-1.34a29.945 29.945 0 012.505-4.535c.777-1.232 1.588-2.462 2.373-3.651s1.575-2.388 2.342-3.6V84.48l-8.57-.074a3.907 3.907 0 00-1.324.167 4.584 4.584 0 00-1.333.868c-.369.307-.77.6-1.156.885a11.634 11.634 0 00-2.291 2.013 17.178 17.178 0 01-8.882 5.87l-.351.093a4.523 4.523 0 00-3.675 3.161c-.113.216-.226.432-.342.643-2.616 4.742-8.232 7.806-14.305 7.806-.145-.012-.295 0-.443-.005-.272-.007-.546-.02-.821-.032-.419-.019-.838-.038-1.256-.038a6.152 6.152 0 00-2.466.408c-.239.1-.475.228-.7.352a7.073 7.073 0 01-.908.436 6.51 6.51 0 01-1.961.319 33.258 33.258 0 01-9.585-.935l-.4-.1a11.178 11.178 0 00-2.691-.457 4.488 4.488 0 00-.814.071 8.263 8.263 0 00-1.7.579l-.372.156a19.256 19.256 0 01-8.945 1.343 8.885 8.885 0 01-5.943-2.479 7.929 7.929 0 01-1.365-7.41 22.985 22.985 0 013.631-6.8l3.637-5.286a7.43 7.43 0 00.856-1.471c.788-2.012.581-4.322.4-6.36-.26-2.907-.584-6.524.861-9.536a18.172 18.172 0 011.395-2.3l.2-.3a.755.755 0 00.179-.42c-.01-.178-.19-.333-.356-.465a43.186 43.186 0 00-6.331-3.892c-1.236-.665-2.513-1.353-3.716-2.09l-1.724-1.057a1.941 1.941 0 01-.753-.681 1.907 1.907 0 01-.174-.7l-.7-6.251a5.474 5.474 0 01.1-2.461 6.636 6.636 0 01.461-.947c.358-.647.7-1.258.452-1.851a2.822 2.822 0 00-.585-.776c-.4-.427-.816-.868-.626-1.459a1.577 1.577 0 01.559-.693 1.488 1.488 0 00.438-.485.614.614 0 00-.05-.589 1.71 1.71 0 00-1.254-.7c-.23-.017-.468-.014-.7-.009a3 3 0 01-1.806-.344 3.055 3.055 0 01-.959-2.456c-.083-.9-.162-1.743-.786-2.2a2.068 2.068 0 00-1.274-.318c-.176 0-.353.008-.526.018a3.4 3.4 0 00-1.66.385 3.344 3.344 0 00-1.038 1.462c-.1.208-.2.415-.309.612a2.288 2.288 0 01-1.774 1.269 1.206 1.206 0 01-.537-.126 1.926 1.926 0 01-.7-.683 11.231 11.231 0 01-1.2-2.716c-.08-.236-.16-.472-.244-.706a6.189 6.189 0 00-1.894-2.97 2.9 2.9 0 00-1.679-.55 2.007 2.007 0 00-1.463.567c-.046.047-.088.1-.132.146a1.931 1.931 0 01-.352.339 1.374 1.374 0 01-.819.223 5.274 5.274 0 01-.546-.038 3.286 3.286 0 00-.8-.018c-.053.466.422.915.852 1.259.768.616 1.055 1.251.807 1.791a1.5 1.5 0 01-1.225.431c-.485.02-.788.051-.91.309a.974.974 0 00-.066.314 1.168 1.168 0 01-.119.466.8.8 0 01-.724.377 1.1 1.1 0 01-.4-.074 2.526 2.526 0 01-.676-.442c-.066-.054-.132-.109-.2-.16a3.387 3.387 0 00-3.237-.414l-.074.031-.071-.036a1.122 1.122 0 01-.563-.674 1.677 1.677 0 01.1-1.242 3.951 3.951 0 011.355-1.344l.061-.043a3.042 3.042 0 001.209-1.314.688.688 0 00.035-.442 1.02 1.02 0 00-.478-.46 3.612 3.612 0 01-1.269-1.105 1.344 1.344 0 01.172-1.7 1.081 1.081 0 01.71-.245 3.361 3.361 0 011.072.259 3.36 3.36 0 001.062.258h.065a1.567 1.567 0 001.294-1.1 3.666 3.666 0 00.02-1.891l-.041-.195a2.87 2.87 0 01.193-2.476 2.691 2.691 0 01.219-.229 1.832 1.832 0 00.234-.254.848.848 0 00-.048-1 .868.868 0 00-.985-.2 2.266 2.266 0 00-.436.324.958.958 0 01-1.656-.05 2.469 2.469 0 00-.193-.215 1.183 1.183 0 00-.847-.311 2.326 2.326 0 00-1.17.351z" /></g><g ><path fill="#404040" d="M108.292-68.349a15.133 15.133 0 01-2.587.627c-2.091.042-3.51-2.16-3.987-4.2-.536-2.292-.438-4.686-.821-7.009s-1.392-4.735-3.44-5.9c-3.737-2.118-8.385.952-12.642.381a11.761 11.761 0 01-6.223-3.419c-1.82-1.7-4.025-3.838-6.4-3.071-1.746.564-2.607 2.457-3.614 3.991a13.332 13.332 0 01-5.823 4.889c-2.253.971-4.751 1.306-6.955 2.387s-3.241 3.636-3.77 6.032q-1.06 4.8-2.119 9.6a5.288 5.288 0 01-.723 1.974 7.921 7.921 0 01-2.757 1.866 8.167 8.167 0 00-4.009 6.933c0 2.555 1.211 5.131.517 7.589a8.126 8.126 0 01-1.742 2.964 47.125 47.125 0 00-3.945 4.586 6.212 6.212 0 00-.87 5.742 15.864 15.864 0 001.6 2.375 17.625 17.625 0 012.106 5.009c.658 2.2 1.264 4.666.238 6.725-.566 1.135-1.615 2.121-1.614 3.39s1.05 2.251 1.944 3.152 2.156 2.515 1.715 3.706a3.552 3.552 0 01.207 3.2c-.269.617-.714 1.151-.937 1.786-.481 1.368.151 2.914-.215 4.317a10.665 10.665 0 01-1.162 2.276 7.812 7.812 0 002.123 9.65c1.157.865 2.627 1.467 3.278 2.756.623 1.236.293 2.716-.049 4.057a2.773 2.773 0 01-.945 1.744 2.833 2.833 0 01-1.588.291 8.6 8.6 0 00-4.722.948 4.857 4.857 0 00-.533 7.429c1.768 1.515 4.368 1.49 6.666 1.118 2.346-.379 4.814-1.141 6.268-3.02.515-.665.958-1.506 1.771-1.722a2.828 2.828 0 012.139.62c3.961 2.513 7.985 5.844 12.661 5.471 1.552-.124 3.23-.641 4.584.129 1.41.8 1.8 2.644 1.847 4.265.071 2.4-.438 5.069-2.359 6.51-2.629 1.971-6.407.7-9.6 1.493a11.333 11.333 0 00-3.8 1.915 23.719 23.719 0 00-5.163 5.074 8.426 8.426 0 01-2.011 2.208 10.44 10.44 0 01-2.755.975c-4.357 1.3-7.471 5.034-10.315 8.582l-1.054 1.315a.543.543 0 01.113.285.9.9 0 01-.208.528 20.818 20.818 0 00-1.586 2.575c-1.384 2.887-1.129 6.256-.844 9.445.192 2.146.375 4.433-.41 6.44a7.63 7.63 0 01-.875 1.506l-3.637 5.285a22.952 22.952 0 00-3.606 6.749c-.675 2.473-.408 5.357 1.325 7.246a8.869 8.869 0 005.83 2.424 18.894 18.894 0 008.863-1.331 10.7 10.7 0 012.107-.746 9.59 9.59 0 013.983.49 33.057 33.057 0 009.534.93 6.336 6.336 0 001.909-.308c.559-.207 1.056-.552 1.605-.785 1.433-.606 3.059-.391 4.615-.352 5.782.148 11.8-2.645 14.59-7.709.636-1.152 1.158-2.462 2.26-3.181a7.617 7.617 0 012.216-.8 17.015 17.015 0 008.79-5.81 22.137 22.137 0 013.472-2.924 3.55 3.55 0 013.016-1.073l8.5.074V73.603c-.631-3.4.241-6.882 1.2-10.2a150.634 150.634 0 016.048-17.107 30.146 30.146 0 012.265-4.517 5.109 5.109 0 00.806-1.587c.188-.844-.124-1.752 0-2.545a5.95 5.95 0 00-.511-3.412 7.15 7.15 0 01-.52-4.409c.27-1.327.888-2.822.106-3.928-.191-.27-.466-.515-.5-.846-.032-.368.255-.676.445-.993a2.2 2.2 0 00-1.475-3.143 1.424 1.424 0 01-.705-.193 1.029 1.029 0 01-.283-.483 20.293 20.293 0 01-1.09-4.952 3.506 3.506 0 01.157-1.732 5.212 5.212 0 011.3-1.5 7.457 7.457 0 00.924-9.244c-.482-.705-1.123-1.446-.986-2.288a3.551 3.551 0 01.875-1.47 1.671 1.671 0 00.413-1.6c-.2-.464-.722-.682-1.107-1.01-1.107-.943-.85-2.638-.9-4.091a11.519 11.519 0 01.758-5.669 4.327 4.327 0 00.409-.909 9.051 9.051 0 00.081-1.2c.159-1.487 1.591-2.454 2.422-3.7 2.029-3.036.27-7.3 1.609-10.692.384-.972 1.011-1.839 1.329-2.834 1.131-3.539-1.919-7.43-.757-10.959.294-.891.85-1.829.5-2.7-.292-.717-1.159-1.195-1.152-1.969a2.755 2.755 0 01.317-.973 6.931 6.931 0 00.157-3.161 3.948 3.948 0 01-.911-1.166c-.457-1.054.069-2.25.554-3.291s.927-2.3.334-3.287c-.265-.44-.714-.766-.9-1.247a2.561 2.561 0 01-.091-1.03q.051-1.094.1-2.188a10.017 10.017 0 01-1.894-.372c-3.201-.982-6.003-4.018-9.304-3.355z" /><path fill="#fff" d="M34.521 108.086c-.574 0-1.153-.027-1.721-.078a8.887 8.887 0 01-5.943-2.479 7.927 7.927 0 01-1.365-7.41 22.982 22.982 0 013.631-6.8l3.637-5.286a7.467 7.467 0 00.856-1.471c.788-2.012.581-4.322.4-6.36-.26-2.907-.583-6.525.861-9.536a18.156 18.156 0 011.395-2.3l.2-.3a.755.755 0 00.179-.42.377.377 0 00-.081-.193l-.076-.108 1.139-1.419c2.6-3.243 5.835-7.279 10.4-8.641.226-.067.455-.127.684-.188a5.2 5.2 0 003.766-2.626l.226-.3a23.821 23.821 0 015.2-5.112 11.379 11.379 0 013.86-1.943 14.557 14.557 0 013.49-.307h.877c1.981 0 3.737-.087 5.165-1.158 2.108-1.58 2.339-4.665 2.289-6.363-.062-2.1-.654-3.49-1.759-4.118a3.315 3.315 0 00-1.7-.391 12.676 12.676 0 00-1.678.154c-.364.049-.741.1-1.106.13-.244.02-.492.029-.737.029-3.694 0-6.975-2.183-10.149-4.294-.63-.419-1.257-.836-1.882-1.233a3.305 3.305 0 00-1.648-.644 1.362 1.362 0 00-.351.045 2.82 2.82 0 00-1.38 1.254c-.1.138-.2.275-.3.405-1.24 1.6-3.267 2.584-6.378 3.087a15.136 15.136 0 01-2.418.214 6.549 6.549 0 01-4.385-1.372 5.031 5.031 0 01.553-7.71 8.333 8.333 0 014.549-.975h.452a2.4 2.4 0 001.307-.264 2.6 2.6 0 00.872-1.641c.363-1.42.64-2.789.062-3.935a5.616 5.616 0 00-2.21-2.012c-.34-.216-.691-.44-1.016-.683a7.975 7.975 0 01-2.172-9.875c.12-.222.251-.439.383-.656a6.024 6.024 0 00.763-1.58 6.234 6.234 0 00.068-2 4.339 4.339 0 01.676-3.365 7.029 7.029 0 00.418-.768 3.366 3.366 0 00-.2-3.035l-.043-.072.029-.079c.46-1.24-1.165-3.009-1.674-3.522l-.141-.142c-.869-.87-1.853-1.858-1.854-3.133a4.516 4.516 0 011-2.429 9.957 9.957 0 00.632-1.04c.993-1.993.421-4.351-.25-6.6a17.342 17.342 0 00-2.083-4.96c-.17-.248-.353-.488-.536-.728a8.645 8.645 0 01-1.081-1.675 6.335 6.335 0 01.882-5.909 21.782 21.782 0 012.531-3.034c.478-.508.972-1.032 1.428-1.57a8.053 8.053 0 001.707-2.9 9.87 9.87 0 00-.153-4.513 16.8 16.8 0 01-.371-3.028 8.31 8.31 0 014.1-7.085c.24-.138.491-.267.741-.395a5.113 5.113 0 001.961-1.42 5.183 5.183 0 00.7-1.91l2.119-9.6c.7-3.167 2-5.237 3.863-6.152a22.731 22.731 0 013.772-1.326 26.539 26.539 0 003.192-1.064 13.208 13.208 0 005.746-4.825c.178-.27.351-.552.525-.835.827-1.348 1.683-2.741 3.181-3.225a3.472 3.472 0 011.068-.169c2 0 3.8 1.681 5.38 3.164l.123.116a11.426 11.426 0 006.127 3.373 8.354 8.354 0 001.106.071 20.9 20.9 0 004.257-.611 20.491 20.491 0 014.143-.6 6.316 6.316 0 013.2.779c2.434 1.379 3.254 4.363 3.527 6.02.166 1.008.244 2.044.318 3.045a25.921 25.921 0 00.5 3.952c.474 2.022 1.819 4.063 3.757 4.063h.055a5.376 5.376 0 001.541-.339 9.408 9.408 0 011.016-.285 5 5 0 01.976-.1c1.78 0 3.454.948 5.073 1.866a17.637 17.637 0 003.357 1.606 9.935 9.935 0 001.862.365l.163.017-.111 2.352a2.414 2.414 0 00.08.96 2.374 2.374 0 00.474.688 3.9 3.9 0 01.408.531c.641 1.064.163 2.4-.325 3.451-.419.9-.993 2.133-.552 3.148a3.792 3.792 0 00.873 1.112l.045.044.014.14a6.862 6.862 0 01-.177 3.167c-.03.075-.064.149-.1.224a1.772 1.772 0 00-.206.683 1.732 1.732 0 00.563 1.058 3.229 3.229 0 01.576.844 3.013 3.013 0 01-.279 2.242c-.075.193-.151.387-.214.577-.567 1.722-.088 3.59.375 5.4.473 1.843.961 3.749.382 5.561a9.939 9.939 0 01-.735 1.612 12.182 12.182 0 00-.6 1.233 12.774 12.774 0 00-.541 4.854c.029 2.043.06 4.156-1.085 5.872a11.224 11.224 0 01-.961 1.181 4.593 4.593 0 00-1.433 2.437 4.539 4.539 0 00-.019.459 3.281 3.281 0 01-.065.761 3.335 3.335 0 01-.326.762l-.1.185a11.4 11.4 0 00-.74 5.584c.01.27.008.548.008.828 0 1.189-.008 2.419.833 3.135.112.1.237.181.36.268a2.016 2.016 0 01.793.806 1.827 1.827 0 01-.435 1.772c-.062.081-.127.163-.193.244a2.61 2.61 0 00-.648 1.147 2.717 2.717 0 00.753 1.869c.07.1.139.2.2.293a7.67 7.67 0 01-.946 9.468c-.1.1-.2.191-.3.284a3.687 3.687 0 00-.963 1.157 3.369 3.369 0 00-.143 1.647 20.118 20.118 0 001.081 4.908.9.9 0 00.228.405.935.935 0 00.47.137c.05.006.1.012.151.02a2.374 2.374 0 011.6 3.406c-.045.073-.093.146-.142.218a.781.781 0 00.025 1.222c.055.069.11.138.16.208.679.961.385 2.15.1 3.3-.065.258-.128.515-.179.764a6.962 6.962 0 00.507 4.3 6.168 6.168 0 01.525 3.513 4.6 4.6 0 00.015 1.116 3.516 3.516 0 01-.742 2.919l-.106.165a30.241 30.241 0 00-2.252 4.491 151.261 151.261 0 00-6.041 17.087c-.947 3.278-1.819 6.76-1.2 10.12V84.47l-8.921-.076a3.9 3.9 0 00-1.323.167 4.583 4.583 0 00-1.333.868c-.369.307-.77.6-1.155.885a11.632 11.632 0 00-2.291 2.013 17.178 17.178 0 01-8.882 5.87l-.351.092a4.524 4.524 0 00-3.674 3.162c-.113.216-.226.432-.342.643-2.68 4.857-8.518 7.95-14.748 7.8-.272-.007-.546-.02-.821-.032-.419-.019-.838-.038-1.256-.038a6.153 6.153 0 00-2.466.408c-.239.1-.475.228-.7.352a7.077 7.077 0 01-.908.436 6.512 6.512 0 01-1.961.319 33.255 33.255 0 01-9.585-.936l-.4-.1a11.185 11.185 0 00-2.691-.457 4.478 4.478 0 00-.814.071 8.237 8.237 0 00-1.7.579l-.372.156a19.19 19.19 0 01-7.221 1.434zm2.408-42.721a.647.647 0 01.074.261 1.07 1.07 0 01-.237.635l-.2.3a18 18 0 00-1.369 2.251c-1.4 2.925-1.084 6.489-.828 9.354.185 2.077.4 4.43-.422 6.519a7.67 7.67 0 01-.893 1.541l-3.637 5.286a22.748 22.748 0 00-3.582 6.7c-.577 2.116-.543 5.088 1.285 7.082a8.555 8.555 0 005.717 2.367 18.861 18.861 0 008.78-1.319l.369-.155a8.574 8.574 0 011.773-.6 4.85 4.85 0 01.877-.077 11.465 11.465 0 012.777.468l.4.1a32.834 32.834 0 009.484.924 6.179 6.179 0 001.856-.3 6.842 6.842 0 00.863-.414c.236-.127.48-.259.734-.367a6.47 6.47 0 012.6-.435c.422 0 .848.019 1.272.039.272.012.544.024.814.032.144 0 .289.006.434.006 5.948 0 11.442-2.993 14-7.625.115-.208.225-.422.337-.635a4.853 4.853 0 013.9-3.338l.348-.092a16.82 16.82 0 008.7-5.75 11.907 11.907 0 012.357-2.077c.383-.281.778-.573 1.141-.873a4.905 4.905 0 011.44-.929 4.2 4.2 0 011.439-.187l8.571.074V73.603c-.635-3.4.248-6.931 1.207-10.249a151.647 151.647 0 016.054-17.127 30.653 30.653 0 012.279-4.543l.107-.165a3.195 3.195 0 00.688-2.7 4.944 4.944 0 01-.013-1.2 5.809 5.809 0 00-.5-3.311 7.308 7.308 0 01-.533-4.518c.052-.255.116-.515.182-.779.265-1.074.54-2.183-.047-3.013-.046-.064-.1-.127-.147-.191a1.1 1.1 0 01-.041-1.636c.045-.068.09-.135.132-.2a2.024 2.024 0 00-1.352-2.879c-.046-.008-.093-.013-.141-.019a1.233 1.233 0 01-.648-.211 1.212 1.212 0 01-.337-.561 20.447 20.447 0 01-1.1-4.994 3.662 3.662 0 01.172-1.82 3.984 3.984 0 011.045-1.273c.1-.092.2-.184.3-.278a7.308 7.308 0 00.9-9.02c-.065-.1-.134-.191-.2-.287A3.009 3.009 0 01115.297.5a2.911 2.911 0 01.721-1.309c.064-.08.128-.159.188-.239a1.558 1.558 0 00.391-1.419 1.736 1.736 0 00-.671-.658c-.133-.092-.267-.186-.389-.288-.965-.821-.961-2.134-.956-3.4 0-.276 0-.55-.008-.814a11.661 11.661 0 01.778-5.755l.1-.191a2.973 2.973 0 00.295-.681 2.9 2.9 0 00.056-.681c0-.165 0-.33.02-.493a4.924 4.924 0 011.52-2.632 10.95 10.95 0 00.931-1.144c1.086-1.624 1.057-3.59 1.027-5.672a13.038 13.038 0 01.566-4.987 12.467 12.467 0 01.613-1.269 9.677 9.677 0 00.711-1.555c.548-1.715.072-3.571-.388-5.367-.476-1.855-.968-3.774-.368-5.592.064-.2.142-.395.219-.6a2.726 2.726 0 00.281-1.983 2.965 2.965 0 00-.518-.748 2.015 2.015 0 01-.646-1.289 2.053 2.053 0 01.237-.824c.032-.071.064-.141.092-.213a6.6 6.6 0 00.152-3v-.015a3.958 3.958 0 01-.9-1.177c-.5-1.159.109-2.475.556-3.435s.9-2.2.342-3.122a3.544 3.544 0 00-.373-.481 2.079 2.079 0 01-.639-1.895l.1-2.024a9.934 9.934 0 01-1.764-.36 17.955 17.955 0 01-3.426-1.635c-1.651-.936-3.212-1.82-4.9-1.82a4.652 4.652 0 00-.908.09 8.949 8.949 0 00-.977.275 5.746 5.746 0 01-1.641.356h-.062c-2.13 0-3.593-2.176-4.1-4.333a26.091 26.091 0 01-.509-4.007c-.074-.993-.151-2.02-.315-3.014-.262-1.6-1.047-4.466-3.354-5.773a5.989 5.989 0 00-3.027-.732 19.91 19.91 0 00-4.07.59 21.132 21.132 0 01-4.33.618 8.691 8.691 0 01-1.152-.074 11.747 11.747 0 01-6.319-3.464l-.124-.116c-1.536-1.438-3.277-3.069-5.14-3.069a3.117 3.117 0 00-.96.152c-1.375.445-2.2 1.782-2.992 3.076-.176.287-.351.571-.53.845a13.561 13.561 0 01-5.9 4.954 26.684 26.684 0 01-3.233 1.078 22.421 22.421 0 00-3.714 1.305c-1.765.864-3 2.854-3.676 5.912l-2.119 9.6a4.129 4.129 0 01-2.838 3.567c-.246.125-.491.251-.726.387a7.954 7.954 0 00-3.921 6.782 16.532 16.532 0 00.365 2.964 10.285 10.285 0 01.145 4.672 8.373 8.373 0 01-1.777 3.03c-.461.544-.959 1.073-1.441 1.583a21.512 21.512 0 00-2.498 2.979 5.993 5.993 0 00-.857 5.576 8.394 8.394 0 001.04 1.606c.186.244.372.489.546.742a17.61 17.61 0 012.13 5.058c.661 2.211 1.278 4.746.228 6.853a10.325 10.325 0 01-.653 1.078 4.19 4.19 0 00-.943 2.235c0 1.13.891 2.023 1.751 2.886l.142.143c.686.691 2.212 2.426 1.781 3.809a3.727 3.727 0 01.176 3.285 7.174 7.174 0 01-.438.808 4.018 4.018 0 00-.627 3.16 6.487 6.487 0 01-.078 2.109 6.382 6.382 0 01-.8 1.673c-.129.212-.258.425-.375.642a7.615 7.615 0 002.074 9.428c.314.234.66.454 1 .668a5.961 5.961 0 012.334 2.148c.632 1.254.345 2.693-.035 4.18a2.913 2.913 0 01-1.02 1.847 2.7 2.7 0 01-1.5.321h-.452a8.044 8.044 0 00-4.362.92 4.683 4.683 0 00-.512 7.149c1.419 1.216 3.486 1.569 6.523 1.078 3.02-.488 4.976-1.427 6.158-2.955.1-.127.194-.261.291-.4a3.071 3.071 0 011.574-1.389 1.75 1.75 0 01.442-.057 3.592 3.592 0 011.835.7c.627.4 1.256.816 1.889 1.237 3.335 2.218 6.785 4.512 10.665 4.207.355-.029.727-.079 1.086-.128a13.065 13.065 0 011.725-.157 3.649 3.649 0 011.873.436c1.218.693 1.869 2.177 1.935 4.412.064 2.158-.307 5.064-2.428 6.655-1.513 1.134-3.406 1.228-5.376 1.228h-.877a14.237 14.237 0 00-3.4.3 11.039 11.039 0 00-3.741 1.887 23.478 23.478 0 00-5.124 5.036l-.224.3a5.522 5.522 0 01-3.958 2.757c-.226.06-.452.12-.674.186-4.127 1.23-7.074 4.587-10.229 8.524z" /></g><g ><path fill="#404040" d="M28.706 23.825c-.585.894-.568 2.054-1 3.029-.732 1.638-2.574 2.452-4.307 2.916s-3.6.76-4.99 1.891a5.843 5.843 0 00-1.951 3.395 2.751 2.751 0 011.789.338c1.386 1.01.323 3.684 1.741 4.651.683.466 1.6.262 2.423.324s1.786.781 1.451 1.538c-.208.471-.833.671-.99 1.16-.26.807.883 1.331 1.206 2.114.4.976-.555 1.931-.91 2.924a5.315 5.315 0 00-.095 2.383l.7 6.251a1.751 1.751 0 00.155.64 1.777 1.777 0 00.69.614l1.724 1.057c3.3 2.025 7.023 3.594 10.064 5.993a1.6 1.6 0 01.31.308l1.054-1.315c2.844-3.548 5.958-7.284 10.315-8.582a10.439 10.439 0 002.755-.975 8.427 8.427 0 002.011-2.208 23.724 23.724 0 015.163-5.074 11.33 11.33 0 013.8-1.915c3.189-.793 6.967.478 9.6-1.493 1.92-1.44 2.429-4.11 2.359-6.51-.048-1.62-.438-3.463-1.847-4.265-1.354-.77-3.032-.253-4.584-.129-4.676.373-8.7-2.959-12.661-5.471a2.828 2.828 0 00-2.139-.62c-.812.216-1.256 1.057-1.771 1.722-1.455 1.88-3.922 2.641-6.268 3.02-2.3.372-4.9.4-6.666-1.118a4.886 4.886 0 01.169-7.162 23.2 23.2 0 00-4.8-.884c-1.658-.123-3.593.07-4.5 1.453z" /><path fill="#fff" d="M36.706 65.642l-.134-.189a1.415 1.415 0 00-.275-.272 43.128 43.128 0 00-6.331-3.891c-1.236-.665-2.513-1.354-3.716-2.09l-1.724-1.057a1.939 1.939 0 01-.753-.681 1.906 1.906 0 01-.174-.7l-.7-6.251a5.475 5.475 0 01.1-2.461 6.655 6.655 0 01.462-.948c.358-.647.7-1.258.452-1.851a2.821 2.821 0 00-.585-.776c-.4-.427-.816-.868-.626-1.459a1.572 1.572 0 01.559-.693 1.488 1.488 0 00.438-.485.614.614 0 00-.05-.589 1.711 1.711 0 00-1.254-.7c-.231-.017-.468-.014-.7-.009a3 3 0 01-1.806-.344 3.052 3.052 0 01-.959-2.456c-.083-.9-.162-1.743-.786-2.2a2.061 2.061 0 00-1.268-.316c-.137 0-.274.006-.409.012l-.228.012.047-.223a6.039 6.039 0 012.013-3.494 10.275 10.275 0 014.151-1.7c.3-.075.606-.15.9-.23 2.241-.6 3.612-1.521 4.192-2.819a7.034 7.034 0 00.382-1.284 5.319 5.319 0 01.635-1.769c.776-1.184 2.363-1.7 4.652-1.531a23.417 23.417 0 014.838.891l.32.094-.259.21a4.593 4.593 0 00-1.584 3.5 4.332 4.332 0 001.419 3.39c1.419 1.216 3.486 1.569 6.523 1.078 3.02-.488 4.976-1.427 6.158-2.955.1-.127.194-.261.291-.4a3.071 3.071 0 011.574-1.389 1.753 1.753 0 01.442-.057 3.593 3.593 0 011.835.7c.627.4 1.256.816 1.889 1.237 3.334 2.219 6.775 4.515 10.664 4.207.356-.029.727-.079 1.086-.128a13.054 13.054 0 011.725-.157 3.649 3.649 0 011.873.436c1.218.693 1.869 2.177 1.936 4.412.063 2.158-.307 5.064-2.429 6.655-1.512 1.134-3.405 1.228-5.375 1.228h-.878a14.237 14.237 0 00-3.4.3 11.039 11.039 0 00-3.741 1.887 23.5 23.5 0 00-5.129 5.035l-.223.3a5.524 5.524 0 01-3.959 2.757c-.226.06-.452.12-.674.186-4.127 1.23-7.074 4.588-10.229 8.524zm-14.71-25.461c.143 0 .284 0 .424.013a2.064 2.064 0 011.528.873.959.959 0 01.07.911 1.765 1.765 0 01-.533.612 1.3 1.3 0 00-.451.531c-.127.394.186.726.548 1.111a3.076 3.076 0 01.653.882 2.488 2.488 0 01-.469 2.154 6.366 6.366 0 00-.438.9 5.21 5.21 0 00-.085 2.3l.7 6.251a1.625 1.625 0 00.135.578 1.649 1.649 0 00.627.547l1.724 1.057c1.193.732 2.467 1.417 3.7 2.08a43.5 43.5 0 016.382 3.924 2.214 2.214 0 01.2.172l.922-1.151c2.6-3.243 5.835-7.279 10.4-8.641.226-.067.455-.128.684-.188a5.2 5.2 0 003.766-2.626l.225-.3a23.816 23.816 0 015.2-5.112 11.375 11.375 0 013.86-1.943 14.559 14.559 0 013.49-.307h.878c1.98 0 3.737-.087 5.165-1.158 2.108-1.58 2.339-4.665 2.289-6.363-.062-2.1-.654-3.489-1.759-4.118a3.315 3.315 0 00-1.7-.391 12.663 12.663 0 00-1.678.154c-.364.049-.741.1-1.106.13-.244.02-.492.029-.737.029-3.694 0-6.975-2.183-10.148-4.294-.631-.419-1.258-.836-1.883-1.233a2.741 2.741 0 00-2-.6 2.82 2.82 0 00-1.38 1.253c-.1.138-.2.275-.3.405-1.239 1.6-3.267 2.584-6.378 3.087a15.144 15.144 0 01-2.423.214 6.55 6.55 0 01-4.385-1.372 4.683 4.683 0 01-1.541-3.661 5.019 5.019 0 011.469-3.554 23.03 23.03 0 00-4.46-.79c-2.146-.164-3.632.3-4.333 1.374a4.976 4.976 0 00-.587 1.655 7.228 7.228 0 01-.4 1.349c-.625 1.4-2.071 2.385-4.421 3.013-.3.081-.606.156-.911.231a10.026 10.026 0 00-4.014 1.628 5.532 5.532 0 00-1.84 3.075h.2a2.448 2.448 0 011.474.384 3.148 3.148 0 01.928 2.449c.084.9.163 1.758.809 2.2a2.213 2.213 0 001.3.287h.305c.105 0 .202-.011.305-.011z" /></g><g ><path fill="#404040" d="M7.711-.057a2.244 2.244 0 01.688.025 3.286 3.286 0 01.775.411 3.707 3.707 0 002.674.284 11.015 11.015 0 002.534-1.058 6.144 6.144 0 001.861-1.281c.319-.364.548-.8.877-1.155a1.436 1.436 0 011.281-.531c.553.118.872.674 1.214 1.123s.948.86 1.434.572c.136-.559.356-1.209.91-1.363s1.1.3 1.675.384a1.366 1.366 0 001.49-1.16.786.786 0 00-.053-.414 1.057 1.057 0 00-.338-.365 11.355 11.355 0 00-2.162-1.314 11.316 11.316 0 00.02-3.034 3.812 3.812 0 00-1.5-2.551 7.818 7.818 0 01-1.387-.873 1.679 1.679 0 01-.272-1.9c.806-1.527.271-3.585 1.212-5.033.281-.431.628-.819.869-1.274.959-1.809-.01-4.038.3-6.062a3.4 3.4 0 00.086-.941 2.471 2.471 0 00-.681-1.219 9.977 9.977 0 00-1.425-1.442 5.521 5.521 0 00-2.957-1.142c-.452-.034-.909-.012-1.359-.067a5.8 5.8 0 01-1.489-.424C11.364-22.327 9.3-15.215 8.86-13.53 7.81-9.503 6.497-9.066 5.534-6.352c-.578 1.906-1.2 3.814-1.848 5.724.466.151.933.3 1.4.4a9.7 9.7 0 002.625.171z" /><path fill="#fff" d="M10.812.96A3.4 3.4 0 019.087.53C9.016.489 8.945.445 8.875.4a1.872 1.872 0 00-.52-.263 2.072 2.072 0 00-.588-.023h-.046c-.241.014-.482.022-.723.022a9.077 9.077 0 01-1.949-.2c-.469-.1-.921-.244-1.42-.405L3.46-.524l.057-.168c.711-2.1 1.314-3.967 1.847-5.719a12.4 12.4 0 011.353-2.66 14.079 14.079 0 001.968-4.503c.183-.7.659-2.385 1.317-4.711.962-3.4 2.279-8.057 3.811-13.622l.052-.19.182.074a5.565 5.565 0 001.444.412c.251.031.514.037.767.043.195 0 .389.009.584.023a5.724 5.724 0 013.052 1.179 10.13 10.13 0 011.45 1.466 2.6 2.6 0 01.721 1.312 2.655 2.655 0 01-.055.8l-.031.188a10.137 10.137 0 00.038 2.443 4.857 4.857 0 01-.891 4.48c-.117.158-.234.316-.341.48a5.485 5.485 0 00-.641 2.538 6.575 6.575 0 01-.563 2.482 1.512 1.512 0 00.242 1.7 3.108 3.108 0 00.814.54 5.909 5.909 0 01.544.31 3.988 3.988 0 011.578 2.667 11.005 11.005 0 01-.006 2.958 11.5 11.5 0 012.083 1.282 1.213 1.213 0 01.389.428.944.944 0 01.069.507 1.55 1.55 0 01-1.688 1.315 3 3 0 01-.7-.217 1.508 1.508 0 00-.908-.172c-.463.128-.664.727-.788 1.235l-.017.071-.064.037a.846.846 0 01-.441.12 1.706 1.706 0 01-1.221-.737 9.3726 9.3726 0 01-.16-.217c-.27-.371-.549-.756-.95-.84a1.249 1.249 0 00-1.117.478 5.325 5.325 0 00-.449.588 6.416 6.416 0 01-.424.564 6.309 6.309 0 01-1.912 1.321A11.1 11.1 0 0111.879.835a4.79 4.79 0 01-1.067.125zM8.042-.247a1.543 1.543 0 01.4.046 2.2 2.2 0 01.62.305c.066.042.131.084.2.123a3.522 3.522 0 002.547.265 10.842 10.842 0 002.494-1.043 4.427 4.427 0 002.209-1.774 5.8 5.8 0 01.48-.626 1.6 1.6 0 011.446-.583 2.109 2.109 0 011.161.978c.053.071.1.143.156.211.253.332.767.721 1.144.559.149-.583.4-1.242 1.015-1.412a1.839 1.839 0 011.133.184 2.669 2.669 0 00.613.2 1.184 1.184 0 001.291-1.006.605.605 0 00-.038-.321.921.921 0 00-.286-.3 11.13 11.13 0 00-2.129-1.294l-.113-.052.012-.123a11.161 11.161 0 00.022-2.987 3.642 3.642 0 00-1.427-2.436 5.688 5.688 0 00-.513-.292 3.375 3.375 0 01-.9-.606 1.85 1.85 0 01-.3-2.1 6.309 6.309 0 00.525-2.352 5.829 5.829 0 01.7-2.7c.111-.171.232-.335.353-.5a6.12 6.12 0 00.508-.762 6.031 6.031 0 00.316-3.476 10.338 10.338 0 01-.036-2.529l.032-.195a2.374 2.374 0 00.053-.7 2.321 2.321 0 00-.641-1.128 9.832 9.832 0 00-1.4-1.417 5.358 5.358 0 00-2.863-1.1c-.188-.015-.377-.019-.566-.023-.262-.006-.532-.013-.8-.045a5.547 5.547 0 01-1.351-.363c-1.51 5.483-2.809 10.074-3.76 13.436-.658 2.325-1.133 4-1.316 4.7A14.379 14.379 0 017.02-8.876a12.092 12.092 0 00-1.317 2.583c-.517 1.7-1.1 3.522-1.791 5.554.424.136.817.255 1.218.342a8.752 8.752 0 001.874.188q.352 0 .7-.022h.046c.096-.01.194-.015.292-.015z" /></g><g ><path fill="#404040" d="M47.726-63.543a19.6 19.6 0 01-2.433.835 3.256 3.256 0 01-3.011-1.209c-.622-.809-.885-1.943-1.763-2.464a3.6 3.6 0 00-2.087-.282l-2.056.135a1.805 1.805 0 01-.686-.044 2.166 2.166 0 01-.576-.359 5.2 5.2 0 00-5.645-.274 4.171 4.171 0 01-1.625.8c-1.068.109-1.87-.9-2.8-1.438a5.486 5.486 0 00-1.716-.578c-2.835 12.442-6.431 25.991-9.341 36.563a5.8 5.8 0 001.489.424c.45.055.907.033 1.359.067a5.521 5.521 0 012.957 1.142 9.984 9.984 0 011.425 1.442 2.472 2.472 0 01.681 1.219 3.4 3.4 0 01-.086.94c-.309 2.024.66 4.253-.3 6.062-.241.454-.588.842-.869 1.274-.941 1.448-.406 3.506-1.212 5.033a1.68 1.68 0 00.272 1.9 7.823 7.823 0 001.387.873 3.812 3.812 0 011.5 2.551 11.321 11.321 0 01-.02 3.034 11.352 11.352 0 012.162 1.314 1.057 1.057 0 01.337.365.784.784 0 01.053.414 1.367 1.367 0 01-1.49 1.16c-.576-.081-1.115-.54-1.675-.384s-.774.8-.91 1.363c-.486.288-1.092-.123-1.434-.572s-.662-1.006-1.214-1.123a1.436 1.436 0 00-1.281.531c-.328.355-.558.791-.877 1.156A6.146 6.146 0 0114.38-.392 11.018 11.018 0 0111.846.666 3.707 3.707 0 019.172.382a3.283 3.283 0 00-.775-.411 2.246 2.246 0 00-.688-.025 9.7 9.7 0 01-2.624-.17c-.471-.1-.938-.251-1.4-.4-2.434 7.178-5.326 14.368-8.555 21.5a1.893 1.893 0 012.279-.055c.244.232.42.577.748.651.515.116.867-.5 1.339-.739A.992.992 0 01.75 22.192c-.13.184-.319.319-.462.494-.556.674-.291 1.668-.115 2.525a3.76 3.76 0 01-.027 1.984 1.739 1.739 0 01-1.45 1.216c-.978.05-2.049-.928-2.808-.309a1.17 1.17 0 00-.133 1.475 3.454 3.454 0 001.211 1.046 1.168 1.168 0 01.552.555.867.867 0 01-.037.555 3.192 3.192 0 01-1.271 1.4 4 4 0 00-1.362 1.324 1.268 1.268 0 00.389 1.681 3.513 3.513 0 013.41.436 3.635 3.635 0 00.833.578.737.737 0 00.9-.225c.13-.232.065-.531.179-.77.34-.713 1.639-.123 2.135-.737.264-.574-.264-1.186-.758-1.581s-1.062-.935-.891-1.543c.73-.186 1.594.266 2.212-.164a3.37 3.37 0 00.457-.462 2.655 2.655 0 013.37-.036 6.263 6.263 0 011.955 3.052 14.848 14.848 0 001.421 3.382 1.742 1.742 0 00.634.625c.774.382 1.66-.318 2.081-1.071s.683-1.662 1.4-2.136a3.49 3.49 0 011.747-.413h.124a5.842 5.842 0 011.951-3.395c1.392-1.132 3.257-1.429 4.99-1.891s3.575-1.278 4.307-2.916c.436-.975.419-2.136 1-3.029.907-1.383 2.842-1.576 4.492-1.452a23.186 23.186 0 014.8.884 3.841 3.841 0 01.363-.267 8.6 8.6 0 014.722-.947 2.834 2.834 0 001.587-.291 2.774 2.774 0 00.945-1.744c.342-1.341.672-2.821.049-4.057-.651-1.289-2.12-1.891-3.278-2.756a7.812 7.812 0 01-2.123-9.65 10.66 10.66 0 001.162-2.276c.366-1.4-.266-2.95.215-4.317.223-.635.668-1.169.937-1.786a3.552 3.552 0 00-.207-3.2c.441-1.19-.82-2.805-1.715-3.706s-1.943-1.882-1.944-3.152 1.048-2.255 1.614-3.39c1.026-2.059.42-4.521-.238-6.725a17.625 17.625 0 00-2.106-5.009 15.86 15.86 0 01-1.6-2.375 6.212 6.212 0 01.87-5.742 47.136 47.136 0 013.945-4.586 8.125 8.125 0 001.742-2.964c.694-2.458-.517-5.034-.517-7.589a8.167 8.167 0 014.009-6.933 7.922 7.922 0 002.757-1.866 4.576 4.576 0 00.65-1.655 5.8 5.8 0 00-2.099.166z" /><path fill="#fff" d="M11.558 38.966a1.205 1.205 0 01-.537-.126 1.926 1.926 0 01-.7-.683 11.227 11.227 0 01-1.2-2.716c-.08-.236-.16-.472-.244-.705a6.182 6.182 0 00-1.894-2.97 2.891 2.891 0 00-1.679-.551 2 2 0 00-1.463.568c-.046.046-.088.1-.132.145a1.928 1.928 0 01-.352.339 1.374 1.374 0 01-.819.223 5.23 5.23 0 01-.545-.038 3.293 3.293 0 00-.8-.018c-.053.466.422.915.852 1.259.768.616 1.055 1.251.807 1.791a1.5 1.5 0 01-1.225.431c-.485.02-.788.051-.91.309a.973.973 0 00-.066.314 1.167 1.167 0 01-.119.466.8.8 0 01-.724.377 1.1 1.1 0 01-.4-.074 2.528 2.528 0 01-.676-.442c-.066-.054-.132-.109-.2-.16a3.386 3.386 0 00-3.237-.414l-.073.031-.071-.036a1.122 1.122 0 01-.563-.674 1.678 1.678 0 01.1-1.243 3.95 3.95 0 011.355-1.344l.061-.044a3.036 3.036 0 001.209-1.313.687.687 0 00.035-.442 1.02 1.02 0 00-.478-.46 3.611 3.611 0 01-1.269-1.1 1.344 1.344 0 01.172-1.7 1.081 1.081 0 01.71-.245 3.359 3.359 0 011.072.259 3.344 3.344 0 001.062.258h.065a1.567 1.567 0 001.294-1.1 3.668 3.668 0 00.02-1.891l-.041-.195a2.87 2.87 0 01.193-2.476 2.7 2.7 0 01.219-.229 1.871 1.871 0 00.234-.254.849.849 0 00-.049-1 .868.868 0 00-.985-.2 2.263 2.263 0 00-.436.324.958.958 0 01-1.656-.05 2.463 2.463 0 00-.193-.215 1.182 1.182 0 00-.847-.311 2.338 2.338 0 00-1.218.387l-.5.319.244-.539C-1.7 13.433 1.176 6.208 3.509-.675l.055-.164.165.053c.49.159.933.3 1.387.4a8.745 8.745 0 001.874.188c.235 0 .469-.008.7-.022h.046a2.361 2.361 0 01.7.034 2.179 2.179 0 01.619.305c.067.042.132.084.2.123a3.523 3.523 0 002.547.265 10.859 10.859 0 002.494-1.043 5.98 5.98 0 001.809-1.241 5.877 5.877 0 00.4-.533 5.785 5.785 0 01.48-.626 1.6 1.6 0 011.446-.583 2.107 2.107 0 011.161.978c.053.071.1.143.156.211.253.332.767.721 1.144.559.149-.583.4-1.242 1.015-1.412a1.838 1.838 0 011.133.184 2.67 2.67 0 00.613.2 1.191 1.191 0 001.291-1.006.606.606 0 00-.038-.321.919.919 0 00-.286-.3 11.13 11.13 0 00-2.129-1.294l-.113-.052.012-.123a11.167 11.167 0 00.022-2.987 3.642 3.642 0 00-1.427-2.436 5.672 5.672 0 00-.513-.292 3.376 3.376 0 01-.9-.606 1.85 1.85 0 01-.3-2.1 6.309 6.309 0 00.525-2.352 5.831 5.831 0 01.7-2.7c.111-.171.232-.335.353-.5a6.1 6.1 0 00.509-.762 6.031 6.031 0 00.316-3.476 10.336 10.336 0 01-.036-2.529l.032-.195a2.379 2.379 0 00.053-.7 2.32 2.32 0 00-.641-1.128 9.83 9.83 0 00-1.4-1.417 5.358 5.358 0 00-2.863-1.105c-.188-.015-.377-.019-.566-.023-.262-.006-.533-.013-.8-.046a6.035 6.035 0 01-1.534-.436l-.144-.059.041-.15c3.891-14.137 7.033-26.436 9.339-36.556l.038-.165.167.032a5.668 5.668 0 011.77.6 8.135 8.135 0 01.833.582 2.767 2.767 0 001.86.834 2.809 2.809 0 001.2-.55c.116-.076.232-.152.349-.223a5.211 5.211 0 012.693-.728 5.291 5.291 0 013.147 1.013l.081.061a1.668 1.668 0 00.447.272 1.8 1.8 0 00.618.035l2.057-.134c.231-.015.466-.029.7-.029a2.907 2.907 0 011.487.335 3.684 3.684 0 011.25 1.573 6.687 6.687 0 00.563.935 3.112 3.112 0 002.846 1.143 6.229 6.229 0 001.419-.461 9.653 9.653 0 01.992-.37 6.044 6.044 0 012.176-.185l.2.016-.046.2a4.745 4.745 0 01-.679 1.717 5.445 5.445 0 01-2.085 1.529c-.246.125-.491.251-.726.387a7.954 7.954 0 00-3.921 6.782 16.541 16.541 0 00.365 2.964 10.284 10.284 0 01.145 4.672 8.369 8.369 0 01-1.777 3.03c-.462.545-.959 1.073-1.44 1.583a21.54 21.54 0 00-2.491 2.985 5.991 5.991 0 00-.856 5.576 8.362 8.362 0 001.039 1.606c.186.244.372.489.545.742a17.606 17.606 0 012.13 5.058c.661 2.211 1.278 4.746.228 6.853a10.316 10.316 0 01-.653 1.078 4.189 4.189 0 00-.943 2.235c0 1.13.891 2.023 1.751 2.886l.142.143c.686.691 2.212 2.426 1.781 3.809a3.727 3.727 0 01.184 3.264 7.188 7.188 0 01-.438.808 4.018 4.018 0 00-.627 3.16 6.486 6.486 0 01-.078 2.109 6.4 6.4 0 01-.8 1.673c-.129.212-.258.425-.375.642a7.616 7.616 0 002.074 9.428c.314.234.66.454 1 .668a5.961 5.961 0 012.334 2.148c.632 1.254.345 2.693-.035 4.18a2.912 2.912 0 01-1.02 1.847 2.7 2.7 0 01-1.5.321h-.452a8.045 8.045 0 00-4.362.92 3.937 3.937 0 00-.347.256l-.071.058-.088-.027a23.106 23.106 0 00-4.766-.877c-2.149-.165-3.632.3-4.333 1.374a4.974 4.974 0 00-.587 1.655 7.221 7.221 0 01-.4 1.349c-.625 1.4-2.071 2.385-4.421 3.013-.3.08-.606.156-.911.231a10.027 10.027 0 00-4.027 1.628 5.616 5.616 0 00-1.89 3.3l-.028.131-.257.012a3.4 3.4 0 00-1.661.385 3.344 3.344 0 00-1.038 1.462c-.1.208-.2.415-.309.612a2.288 2.288 0 01-1.771 1.265zm-6.252-8.1a3.256 3.256 0 011.886.618 6.5 6.5 0 012.016 3.134c.085.235.165.473.246.711a10.973 10.973 0 001.156 2.632 1.584 1.584 0 00.566.566.863.863 0 00.382.09 1.971 1.971 0 001.468-1.09c.106-.191.2-.392.3-.593a2.79 2.79 0 012.988-2.045 5.99 5.99 0 011.982-3.361 10.275 10.275 0 014.151-1.7c.3-.075.606-.15.9-.23 2.241-.6 3.612-1.521 4.192-2.819a7.019 7.019 0 00.382-1.284 5.318 5.318 0 01.635-1.769c.776-1.184 2.363-1.7 4.652-1.531a23.426 23.426 0 014.751.865 3.645 3.645 0 01.308-.221 8.334 8.334 0 014.549-.975h.452a2.37 2.37 0 001.307-.264 2.6 2.6 0 00.872-1.641c.363-1.419.64-2.789.062-3.935a5.615 5.615 0 00-2.21-2.012c-.34-.216-.691-.441-1.016-.683a7.974 7.974 0 01-2.172-9.875c.12-.222.251-.439.383-.656a6.021 6.021 0 00.763-1.58 6.231 6.231 0 00.068-2 4.339 4.339 0 01.676-3.365 7.046 7.046 0 00.418-.768 3.365 3.365 0 00-.2-3.035l-.043-.072.029-.079c.46-1.24-1.165-3.009-1.674-3.522l-.141-.142c-.869-.871-1.853-1.858-1.854-3.133a4.511 4.511 0 011-2.428 10.028 10.028 0 00.632-1.041c.994-1.993.421-4.351-.25-6.6a17.34 17.34 0 00-2.083-4.96c-.17-.248-.353-.488-.536-.728a8.644 8.644 0 01-1.081-1.675 6.335 6.335 0 01.882-5.909 21.782 21.782 0 012.531-3.034c.478-.508.972-1.032 1.428-1.57a8.055 8.055 0 001.707-2.9 9.874 9.874 0 00-.153-4.513 16.794 16.794 0 01-.371-3.028 8.31 8.31 0 014.1-7.085c.24-.138.491-.267.741-.395a5.111 5.111 0 001.961-1.42 3.986 3.986 0 00.574-1.393 5.493 5.493 0 00-1.846.186 9.5 9.5 0 00-.957.358 6.538 6.538 0 01-1.5.483 3.47 3.47 0 01-3.176-1.276 6.908 6.908 0 01-.6-.983 3.375 3.375 0 00-1.119-1.436 2.5 2.5 0 00-1.308-.286c-.226 0-.455.013-.678.028l-2.057.134a2.082 2.082 0 01-.753-.053 1.918 1.918 0 01-.547-.326l-.078-.059a4.943 4.943 0 00-2.938-.943 4.855 4.855 0 00-2.512.679c-.113.068-.225.141-.338.215a3.1 3.1 0 01-1.36.605 3.067 3.067 0 01-2.108-.9 7.83 7.83 0 00-.8-.557 5 5 0 00-1.5-.525c-2.3 10.057-5.412 22.252-9.264 36.254a5.3 5.3 0 001.3.354c.251.031.513.037.767.043.2 0 .39.009.585.023a5.724 5.724 0 013.052 1.179 10.124 10.124 0 011.45 1.466 2.6 2.6 0 01.721 1.312 2.652 2.652 0 01-.055.8l-.032.188a10.134 10.134 0 00.039 2.443 4.852 4.852 0 01-.891 4.48c-.117.158-.234.317-.341.481a5.486 5.486 0 00-.641 2.538 6.574 6.574 0 01-.563 2.482 1.511 1.511 0 00.242 1.7 3.109 3.109 0 00.814.54 5.877 5.877 0 01.544.31 3.987 3.987 0 011.578 2.667 11.01 11.01 0 01-.006 2.958 11.5 11.5 0 012.083 1.282 1.215 1.215 0 01.389.429.944.944 0 01.069.507 1.548 1.548 0 01-1.688 1.315 3 3 0 01-.7-.217 1.508 1.508 0 00-.908-.172c-.463.128-.664.727-.788 1.235l-.017.071-.064.037a.847.847 0 01-.441.12 1.706 1.706 0 01-1.221-.737c-.054-.071-.107-.144-.16-.217-.27-.371-.549-.756-.95-.84a1.249 1.249 0 00-1.117.478 5.332 5.332 0 00-.449.588 4.76 4.76 0 01-2.336 1.884A11.117 11.117 0 0111.868.821a3.866 3.866 0 01-2.8-.3C8.997.48 8.926.436 8.856.391a1.875 1.875 0 00-.52-.263 2.067 2.067 0 00-.587-.023h-.047c-.241.014-.483.022-.723.022a9.09 9.09 0 01-1.949-.2c-.417-.091-.821-.213-1.256-.353-2.279 6.7-5.069 13.724-8.3 20.891a1.893 1.893 0 012.032.207 2.823 2.823 0 01.221.243.934.934 0 00.445.363c.24.053.468-.14.713-.352a2.532 2.532 0 01.509-.373 1.227 1.227 0 011.406.284 1.2 1.2 0 01.069 1.433 2.119 2.119 0 01-.277.3 2.418 2.418 0 00-.192.2 2.6 2.6 0 00-.121 2.183l.041.2a3.98 3.98 0 01-.033 2.077 1.909 1.909 0 01-1.607 1.333h-.083a3.58 3.58 0 01-1.18-.279c-.577-.205-1.1-.352-1.444-.071a1.006 1.006 0 00-.093 1.249 3.341 3.341 0 001.154.988 1.334 1.334 0 01.625.648 1.02 1.02 0 01-.038.668 3.36 3.36 0 01-1.334 1.481l-.062.044a3.7 3.7 0 00-1.246 1.216 1.315 1.315 0 00-.076.975.809.809 0 00.321.433 3.745 3.745 0 013.5.492c.072.054.141.111.21.168a2.248 2.248 0 00.58.387.59.59 0 00.69-.149.905.905 0 00.076-.332 1.269 1.269 0 01.1-.428c.222-.466.748-.488 1.212-.507.389-.016.756-.031.944-.264.222-.5-.436-1.1-.73-1.335-.546-.438-1.147-1.029-.95-1.728l.027-.1.1-.024a3.132 3.132 0 011.027-.013 5.093 5.093 0 00.508.036 1.027 1.027 0 00.619-.161 1.675 1.675 0 00.288-.281c.047-.054.094-.108.143-.159a2.351 2.351 0 011.738-.653z" /></g><g ><path fill="#404040" d="M69.108-91.533a5.354 5.354 0 01-1.123-.725c-.7-.685-.868-1.9-1.772-2.274a2.056 2.056 0 00-2.172.811 11.07 11.07 0 01-1.607 1.873 4.306 4.306 0 00-.869.646 3.738 3.738 0 00-.441.878 6.341 6.341 0 01-1.007 1.426 3.46 3.46 0 01-2.188 1.492c-1.2.075-2.221-1.106-3.423-1.016-.6.044-1.284.376-1.727-.025a2.4 2.4 0 01-.379-.614 1.581 1.581 0 00-2.07-.55 2.594 2.594 0 01-.284-1.416 1.406 1.406 0 01-1.634-1.4c.04-.6.473-1.137.417-1.732-.136-1.433-2.664-1.457-2.993-2.859-.071-.3-.02-.614-.065-.918a4.481 4.481 0 00-1.076-1.777c-.409-.569-.646-1.433-.139-1.918l3.483.937c.3.081.7.113.828-.168a.51.51 0 00-.022-.391c-.484-1.2-2.748-1.066-2.861-2.353a1.762 1.762 0 01.213-.858 4.6 4.6 0 011.165-1.711 1.972 1.972 0 011.945-.4c.844.347 1.4 1.452 2.3 1.351a1.42 1.42 0 001.073-1 10.679 10.679 0 00.293-1.519 4.643 4.643 0 013.01-3.414 2.008 2.008 0 00.976-.5 1.207 1.207 0 00.068-1.227 10.5 10.5 0 00-.678-1.1 3.591 3.591 0 01-.259-3.044.7.7 0 01.226-.343.589.589 0 01.758.238c.17.241.236.54.387.793a1.364 1.364 0 001.65.532 3.056 3.056 0 00.236-2.139c-.069-.732.039-1.625.7-1.947.408-.2.94-.122 1.284-.42a1 1 0 00.174-1.132 2.923 2.923 0 00-.77-.941 2.375 2.375 0 01.325-2.045 8.687 8.687 0 00.987-1.1 6.91 6.91 0 00.281-.678c.143-.335.352-.636.525-.957a3.622 3.622 0 00.041-3.585c-.295-.464-.722-.835-.994-1.313a4.824 4.824 0 01-.474-1.746 6.2 6.2 0 01-.044-2.191c.139-.626.47-1.286.207-1.872a1.848 1.848 0 00-1.714-.814 3.239 3.239 0 01-1.925-.394c-.383-.3-.588-.789-1-1.055a5.289 5.289 0 00-1.335-.394c-.444-.143-.885-.581-.725-1.019a1.63 1.63 0 01.265-.393 3.4 3.4 0 00.509-1.408c.114-.567.194-1.249-.234-1.639-.3-.277-.767-.3-1.1-.536-.508-.357-.578-1.062-.761-1.655a3.522 3.522 0 00-.234-.559.386.386 0 01-.45-.083c-.474.714-.289 1.663-.465 2.5-.3 1.427-1.636 2.494-1.827 3.94a1.92 1.92 0 01-.111.56c-.12.263-.387.426-.567.653-.359.457-.331 1.124-.659 1.6-.279.408-.795.65-.954 1.118-.109.322-.032.714-.244.98-.357.447-1.113.3-1.4.8.117 2.451-.466 1.984-1.4 1.868-1.984-.234-6.477-3.735-7.586-3.793s-2.451.583-2.743 2.976-.758 13.188-1.109 16.281c-.642.992-1.868 1.693-2.393 2.831-.088 4.552-1.05 12.868-6.127 37.9-.6 2.943-1.269 6.028-1.987 9.181a5.485 5.485 0 011.716.578c.929.538 1.73 1.547 2.8 1.438a4.171 4.171 0 001.625-.8 5.2 5.2 0 015.645.275 2.173 2.173 0 00.576.359 1.806 1.806 0 00.686.044l2.056-.135a3.6 3.6 0 012.088.282c.878.521 1.141 1.654 1.763 2.464a3.256 3.256 0 003.011 1.209 19.608 19.608 0 002.433-.835 5.8 5.8 0 012.113-.179c.024-.106.05-.214.073-.319q1.06-4.8 2.119-9.6c.529-2.4 1.566-4.952 3.77-6.032s4.7-1.415 6.955-2.387a13.332 13.332 0 005.823-4.889 16.315 16.315 0 012.284-3.183 8.425 8.425 0 00-1.741-1.395z" /><path fill="#fff" d="M44.835-62.497a3.456 3.456 0 01-2.693-1.312 6.907 6.907 0 01-.6-.983 3.376 3.376 0 00-1.119-1.436 2.5 2.5 0 00-1.308-.286c-.226 0-.455.013-.678.028l-2.057.134a2.1 2.1 0 01-.753-.053 1.932 1.932 0 01-.547-.326l-.078-.059a4.943 4.943 0 00-2.938-.943 4.855 4.855 0 00-2.512.679c-.113.068-.226.141-.338.215a3.1 3.1 0 01-1.36.605 3.069 3.069 0 01-2.108-.9 7.833 7.833 0 00-.8-.557 5.325 5.325 0 00-1.662-.557l-.177-.035.04-.176c.755-3.308 1.423-6.4 1.987-9.176 5.253-25.9 6.043-33.679 6.124-37.871l.016-.07a5.916 5.916 0 011.368-1.7 7.148 7.148 0 001.014-1.123c.179-1.6.386-5.173.587-8.626.193-3.314.375-6.445.517-7.615.345-2.828 2.06-3.133 2.782-3.133h.144a10.74 10.74 0 013.036 1.547c1.638.994 3.494 2.122 4.562 2.248.125.015.243.036.354.057.319.058.543.088.655-.029.177-.186.241-.746.2-1.714v-.05l.025-.044a1.241 1.241 0 01.811-.51 1.155 1.155 0 00.6-.31.935.935 0 00.136-.49 1.951 1.951 0 01.079-.436 1.841 1.841 0 01.581-.746 2.475 2.475 0 00.394-.414 2.408 2.408 0 00.283-.721 2.436 2.436 0 01.383-.892 2.49 2.49 0 01.248-.261 1.251 1.251 0 00.3-.356 1.29 1.29 0 00.081-.389l.015-.122a5.413 5.413 0 01.952-2.132 5.676 5.676 0 00.877-1.821 5.971 5.971 0 00.092-.888 3.242 3.242 0 01.4-1.675l.131-.2.151.183c.031.038.118.076.259.028l.143-.048.068.134a3.641 3.641 0 01.245.588c.041.129.075.262.109.4a1.382 1.382 0 001.054 1.38 1.83 1.83 0 01.652.337 1.855 1.855 0 01.288 1.8 3.558 3.558 0 01-.54 1.478l-.077.1a.956.956 0 00-.165.251.4.4 0 00.026.323 1.028 1.028 0 00.588.469 4.174 4.174 0 00.473.111 1.9 1.9 0 011.485.9 2.542 2.542 0 00.426.468 2.636 2.636 0 001.574.352l.25.006a2 2 0 011.868.917 2.184 2.184 0 01-.076 1.534c-.043.15-.087.3-.12.447a6.05 6.05 0 00.047 2.129 4.721 4.721 0 00.453 1.685 4.616 4.616 0 00.51.681 5.756 5.756 0 01.48.623 3.8 3.8 0 01-.036 3.763c-.062.116-.13.23-.2.345a5.319 5.319 0 00-.319.6c-.034.078-.063.159-.093.24a2.433 2.433 0 01-.807 1.172 4.543 4.543 0 00-.393.408 2.176 2.176 0 00-.3 1.842 2.968 2.968 0 01.772.965 1.174 1.174 0 01-.221 1.333 1.584 1.584 0 01-.807.307 1.947 1.947 0 00-.515.139c-.663.324-.642 1.348-.6 1.774l.02.211a2.86 2.86 0 01-.291 2.048l-.028.038-.043.019a1.421 1.421 0 01-.56.112 1.542 1.542 0 01-1.309-.714 2.7 2.7 0 01-.183-.384 2.047 2.047 0 00-.2-.4c-.13-.183-.382-.287-.517-.195a.548.548 0 00-.162.261 3.438 3.438 0 00.247 2.893c.08.136.169.266.258.4a4.419 4.419 0 01.429.723 1.385 1.385 0 01-.094 1.408 1.835 1.835 0 01-.911.5l-.146.047a4.447 4.447 0 00-2.893 3.282c-.035.175-.06.352-.085.529a5.035 5.035 0 01-.214 1.015 1.592 1.592 0 01-1.22 1.118 2.006 2.006 0 01-1.522-.738 3.274 3.274 0 00-.867-.625 1.811 1.811 0 00-1.767.377 4.492 4.492 0 00-1.116 1.649 1.633 1.633 0 00-.2.77c.05.576.627.824 1.294 1.111a2.574 2.574 0 011.555 1.192.669.669 0 01.02.527.592.592 0 01-.6.329 1.666 1.666 0 01-.429-.063l-3.381-.909a1.444 1.444 0 00.225 1.619c.1.138.208.273.317.409a3.1 3.1 0 01.79 1.445 3.131 3.131 0 01.025.431 2.148 2.148 0 00.038.473c.142.6.766.93 1.426 1.274.733.383 1.492.778 1.57 1.608a2.289 2.289 0 01-.216 1.033 2.6 2.6 0 00-.2.728 1.124 1.124 0 00.322.83 1.2 1.2 0 001.1.385l.234-.053-.021.239a2.438 2.438 0 00.19 1.165 1.656 1.656 0 01.637-.125 1.755 1.755 0 011.5.821c.039.067.074.137.109.208a1.2 1.2 0 00.237.366c.22.2.614.155 1.055.066a4.61 4.61 0 01.541-.087 3.522 3.522 0 011.81.524 3.261 3.261 0 001.615.492 3.306 3.306 0 002.066-1.431 6.152 6.152 0 00.981-1.386c.036-.078.069-.159.1-.239a2.473 2.473 0 01.364-.678 2.522 2.522 0 01.623-.494c.094-.059.188-.118.277-.182a4.956 4.956 0 001.038-1.158c.17-.232.345-.472.539-.693a2.215 2.215 0 012.369-.857 2.6 2.6 0 011.192 1.35 3.97 3.97 0 00.641.964 3.584 3.584 0 00.817.547c.09.05.181.1.27.151a8.585 8.585 0 011.791 1.432l.128.13-.135.122a10.891 10.891 0 00-1.742 2.335c-.17.276-.34.55-.513.815a13.56 13.56 0 01-5.9 4.954 26.66 26.66 0 01-3.232 1.078 22.421 22.421 0 00-3.714 1.305c-1.765.864-3 2.854-3.676 5.912l-2.235 10.063-.151-.012a5.729 5.729 0 00-2.05.172 9.464 9.464 0 00-.957.358 6.543 6.543 0 01-1.5.483 3.146 3.146 0 01-.478.037zm-5.716-4.368a2.907 2.907 0 011.487.335 3.684 3.684 0 011.25 1.573 6.709 6.709 0 00.563.935 3.113 3.113 0 002.846 1.143 6.24 6.24 0 001.419-.461 9.611 9.611 0 01.992-.37 5.9 5.9 0 012.026-.2l.039-.172 2.119-9.6c.7-3.167 2-5.237 3.863-6.152a22.715 22.715 0 013.772-1.326 26.608 26.608 0 003.191-1.064 13.2 13.2 0 005.746-4.825c.172-.262.34-.533.508-.807a11.911 11.911 0 011.671-2.284 8.027 8.027 0 00-1.591-1.249c-.087-.05-.175-.1-.264-.147a3.9 3.9 0 01-.893-.605 4.237 4.237 0 01-.705-1.048 2.313 2.313 0 00-1.01-1.188 1.113 1.113 0 00-.427-.083 2.28 2.28 0 00-1.546.847c-.184.21-.355.443-.52.669a5.336 5.336 0 01-1.117 1.23c-.1.069-.2.132-.3.2a1.6 1.6 0 00-.85 1.007c-.035.085-.07.169-.107.253a6.528 6.528 0 01-1.033 1.467 2.749 2.749 0 01-4.1 1.027 3.208 3.208 0 00-1.63-.489 4.1 4.1 0 00-.5.081 3.473 3.473 0 01-.671.091.979.979 0 01-.688-.24 1.477 1.477 0 01-.315-.47c-.031-.063-.062-.126-.1-.186a1.4 1.4 0 00-1.2-.648 1.275 1.275 0 00-.632.161l-.158.091-.084-.162a2.782 2.782 0 01-.312-1.3 1.554 1.554 0 01-1.209-.518 1.474 1.474 0 01-.415-1.092 2.9 2.9 0 01.222-.829 1.984 1.984 0 00.195-.875c-.06-.641-.7-.975-1.384-1.331-.7-.366-1.426-.744-1.6-1.5a2.457 2.457 0 01-.047-.55 2.906 2.906 0 00-.02-.383 2.813 2.813 0 00-.716-1.277c-.113-.14-.226-.281-.328-.424a1.678 1.678 0 01-.118-2.147l.071-.068 3.578.963a1.341 1.341 0 00.338.05c.23 0 .271-.09.284-.12a.36.36 0 00-.025-.255c-.2-.5-.794-.754-1.368-1-.705-.3-1.436-.618-1.5-1.4a1.907 1.907 0 01.228-.945 4.788 4.788 0 011.212-1.774 2.168 2.168 0 012.124-.432 3.536 3.536 0 01.967.688c.405.363.782.707 1.251.651a1.268 1.268 0 00.929-.888 4.727 4.727 0 00.2-.945c.026-.184.052-.368.089-.549a4.8 4.8 0 013.125-3.545l.151-.048a1.521 1.521 0 00.747-.392 1.057 1.057 0 00.043-1.046 4.064 4.064 0 00-.4-.665c-.093-.137-.187-.274-.271-.416a3.744 3.744 0 01-.272-3.195.859.859 0 01.289-.425.77.77 0 011 .281 2.309 2.309 0 01.235.466 2.554 2.554 0 00.158.338 1.219 1.219 0 001.388.478 2.666 2.666 0 00.2-1.765l-.021-.214c-.1-1.052.191-1.825.8-2.122a2.262 2.262 0 01.606-.168 1.311 1.311 0 00.64-.227.836.836 0 00.129-.931 2.841 2.841 0 00-.728-.882l-.038-.035-.013-.052a2.51 2.51 0 01.359-2.2 4.849 4.849 0 01.422-.44 2.854 2.854 0 00.548-.635 2.888 2.888 0 00.174-.405c.031-.086.063-.172.1-.256a5.527 5.527 0 01.34-.638c.065-.11.13-.22.191-.333a3.443 3.443 0 00.048-3.408 5.328 5.328 0 00-.452-.585 4.91 4.91 0 01-.546-.735 5.012 5.012 0 01-.5-1.809 6.309 6.309 0 01-.041-2.253c.034-.155.08-.312.126-.47a1.892 1.892 0 00.092-1.292c-.26-.581-1.088-.694-1.559-.711l-.246-.007a2.2 2.2 0 01-2.269-.954 1.578 1.578 0 00-1.275-.769 4.446 4.446 0 01-.512-.121 1.373 1.373 0 01-.8-.649.74.74 0 01-.04-.6 1.224 1.224 0 01.22-.349l.069-.088a3.294 3.294 0 00.478-1.337c.11-.548.175-1.151-.18-1.475a1.544 1.544 0 00-.534-.266 2.239 2.239 0 01-.552-.256 2.2 2.2 0 01-.723-1.367c-.034-.128-.066-.256-.1-.38a3.138 3.138 0 00-.162-.409.571.571 0 01-.3-.032 3.4 3.4 0 00-.249 1.344 6.281 6.281 0 01-.1.941 6.022 6.022 0 01-.924 1.936 5.073 5.073 0 00-.9 1.991l-.014.114a1.221 1.221 0 01-.485.961 2.2 2.2 0 00-.214.223 2.149 2.149 0 00-.321.769 2.693 2.693 0 01-.331.825 2.738 2.738 0 01-.449.475 1.563 1.563 0 00-.484.6 1.669 1.669 0 00-.063.36 1.229 1.229 0 01-.21.672 1.446 1.446 0 01-.773.428 1.028 1.028 0 00-.582.308c.048 1.09-.038 1.648-.295 1.917-.209.218-.56.207-.971.132-.1-.019-.216-.039-.333-.054-1.142-.134-3.033-1.283-4.7-2.3a11.792 11.792 0 00-2.873-1.5h-.126c-.628 0-2.123.275-2.434 2.826-.141 1.159-.323 4.284-.515 7.594-.2 3.487-.412 7.093-.593 8.686l-.027.075a7.315 7.315 0 01-1.087 1.219 5.76 5.76 0 00-1.279 1.557c-.085 4.216-.887 12.043-6.13 37.9-.555 2.735-1.21 5.765-1.949 9.01a5.344 5.344 0 011.593.562 8.143 8.143 0 01.833.582 2.048 2.048 0 003.064.284c.116-.076.232-.152.349-.223a5.211 5.211 0 012.693-.728 5.292 5.292 0 013.147 1.013l.081.061a1.663 1.663 0 00.447.272 1.8 1.8 0 00.618.035l2.057-.134c.217-.009.453-.023.688-.023z" /></g><g ><path fill="#404040" d="M171.296-180.482a2.106 2.106 0 01-1.461-1.329c-.551-1.577.238-2.122.86-2.795a5.936 5.936 0 00-4.479-9.962 1.3 1.3 0 01-.959-.207 1.164 1.164 0 01-.264-.557 3.482 3.482 0 01.1-2.966 5.759 5.759 0 01.9-.824c1.752-1.538 1.912-4.319 1.008-6.468a16.92 16.92 0 00-4.342-5.415 1.668 1.668 0 01-.492-.649c-.268-.815.721-1.433 1.173-2.161a3.816 3.816 0 00.307-2.345c-.071-.875-.172-1.842-.2-2.767a44.353 44.353 0 00-.469-4.987 6.6 6.6 0 01.508-4.55 8.449 8.449 0 011.936-1.936 14.212 14.212 0 003.275-3.535 6.329 6.329 0 00.891-4.638q-4.31 2.161-8.523 4.51a6.9 6.9 0 00-2.09 1.549c-1.382 1.707-.882 4.214-1.419 6.344a8 8 0 01-4.221 4.961 14.272 14.272 0 01-6.515 1.346 8.875 8.875 0 00-2.8.238 2.767 2.767 0 00-1.734 2.261c-.169 2.8-3.131 4.553-5.8 5.5-2.7.963-5.83 1.933-7.012 4.548q-2.4-2.51-4.988-4.83c-.711 3.179-4.8 5.107-4.664 8.361.063 1.513 1.091 2.917.9 4.419-.2 1.581-1.656 2.675-2.348 4.111-.8 1.654-.515 3.593-.559 5.429s-.663 3.947-2.375 4.612a3.867 3.867 0 00-1 .426c-.955.735-.268 2.349-.833 3.413-.5.933-1.763 1.114-2.81.972a7.452 7.452 0 00-3.135-.182c-2.067.628-2.645 3.543-4.646 4.357-1.662.677-3.624-.38-5.326.19-.623.209-1.158.623-1.77.861a4.441 4.441 0 01-4.3-.9 9.821 9.821 0 01-2.573-3.77c-.476-1.086-1-2.331-2.128-2.709a3.959 3.959 0 00-1.647-.072l-10.586 1.026a3.3 3.3 0 00-1.515.4 5.554 5.554 0 01-.875.629 2.121 2.121 0 01-1.144.013 42.512 42.512 0 00-13.422-.1 1.041 1.041 0 00-1.1.993c-1.024 4.422-1.91 9.06-2.884 13.494q-.579 2.63-1.156 5.26-.293 1.332-.585 2.663-.469 2.129-.936 4.257c-.074.338-.122.755.15.968a.972.972 0 00.554.143 11.71 11.71 0 011.568.2 1.12 1.12 0 01.59.249 1.191 1.191 0 01.231.889l-.031 2.3a1.9 1.9 0 01-.242 1.1 1.187 1.187 0 01-.544.4 3.524 3.524 0 01.234.56c.183.593.253 1.3.761 1.655.336.237.8.259 1.1.536.428.389.348 1.071.234 1.639a3.4 3.4 0 01-.509 1.408 1.629 1.629 0 00-.265.393c-.16.438.281.876.725 1.019a5.288 5.288 0 011.335.394c.407.265.612.756 1 1.055a3.238 3.238 0 001.925.394 1.848 1.848 0 011.714.814c.263.585-.069 1.246-.207 1.872a6.2 6.2 0 00.044 2.191 4.826 4.826 0 00.474 1.746c.272.478.7.849.994 1.313a3.622 3.622 0 01-.041 3.585c-.173.321-.382.622-.525.957a6.94 6.94 0 01-.281.678 8.688 8.688 0 01-.987 1.1 2.374 2.374 0 00-.325 2.046 2.923 2.923 0 01.77.941 1 1 0 01-.174 1.132c-.343.3-.875.221-1.284.42-.661.323-.769 1.215-.7 1.947a3.056 3.056 0 01-.236 2.139 1.365 1.365 0 01-1.65-.532c-.151-.253-.217-.552-.387-.793a.589.589 0 00-.758-.238.7.7 0 00-.226.343 3.591 3.591 0 00.259 3.044 10.484 10.484 0 01.678 1.1 1.207 1.207 0 01-.068 1.227 2.007 2.007 0 01-.976.5 4.642 4.642 0 00-3.01 3.414 10.694 10.694 0 01-.293 1.519 1.42 1.42 0 01-1.073 1c-.908.1-1.459-1-2.3-1.351a1.972 1.972 0 00-1.945.4 4.605 4.605 0 00-1.165 1.711 1.762 1.762 0 00-.213.858c.113 1.287 2.377 1.155 2.861 2.353a.51.51 0 01.022.391c-.125.282-.53.249-.828.168l-3.483-.937c-.506.485-.27 1.349.139 1.918a4.48 4.48 0 011.076 1.777c.045.3-.005.619.065.918.329 1.4 2.857 1.426 2.993 2.859.056.6-.377 1.135-.417 1.732a1.406 1.406 0 001.635 1.4 2.593 2.593 0 00.284 1.416 1.58 1.58 0 012.07.55 2.407 2.407 0 00.379.614c.443.4 1.131.069 1.727.025 1.2-.09 2.22 1.091 3.423 1.016a3.46 3.46 0 002.188-1.492 6.339 6.339 0 001.007-1.426 3.741 3.741 0 01.441-.878 4.307 4.307 0 01.869-.646 11.073 11.073 0 001.607-1.873 2.056 2.056 0 012.164-.804c.9.37 1.075 1.589 1.772 2.274a5.353 5.353 0 001.122.725 8.417 8.417 0 011.754 1.4 3.63 3.63 0 011.33-.807c2.372-.767 4.577 1.368 6.4 3.071a11.76 11.76 0 006.223 3.419c4.257.571 8.905-2.5 12.642-.381 2.048 1.161 3.058 3.573 3.44 5.9s.285 4.717.821 7.009c.477 2.036 1.9 4.239 3.987 4.2a15.133 15.133 0 002.587-.627c3.3-.659 6.1 2.377 9.32 3.37a10.014 10.014 0 001.894.372c.017-.363.034-.726.051-1.09a1.465 1.465 0 01.228-.868c.171-.213.447-.314.64-.508a1.826 1.826 0 00.276-1.534l-.351-2.868a.852.852 0 01.11-.681c.333-.372 1 .055 1.436-.181s.333-.87.172-1.335-.255-1.105.18-1.331c.118-.062.255-.076.377-.13a.652.652 0 00.009-1.124c-.228-.105-.513-.071-.712-.223a.777.777 0 01-.243-.45c-.315-1.309.447-2.614 1.206-3.725a2.931 2.931 0 00.5-.971 1.022 1.022 0 00-.454-1.094 2.894 2.894 0 01-.854-.5c-.286-.326-.219-.854-.492-1.189-.415-.51-1.327-.283-1.772-.765a1.057 1.057 0 01.165-1.4 3.578 3.578 0 011.38-.7c.419-.148.921-.508.748-.918a1.084 1.084 0 00-.371-.378 2.028 2.028 0 01-.6-2.291c.436-.307.866.578 1.4.553a.894.894 0 00.384-.146 4.518 4.518 0 001.3-.966 1.534 1.534 0 00.319-1.514 4.275 4.275 0 00-.747-.943 2.476 2.476 0 01.139-3.168 1.708 1.708 0 00.422-.518c.169-.432-.175-.894-.547-1.172s-.82-.514-1-.943c-.227-.557.1-1.186.056-1.786-.1-1.212-1.706-2.024-.57-3.554a3.391 3.391 0 011.239-.971 14.041 14.041 0 003.408-2.391 2.587 2.587 0 00.788-1.119c.228-.825-.31-1.744 0-2.541a2.265 2.265 0 011.795-1.145 4.5 4.5 0 002.089-.684c.321-.265.538-.634.842-.919a5.127 5.127 0 013.041-.9 13.889 13.889 0 007-2.918 1.941 1.941 0 011.431-1.6 5.662 5.662 0 012.263-.081.932.932 0 00.506-.043c.254-.124.338-.438.4-.714a12.82 12.82 0 011-2.758 2.732 2.732 0 01.492-.741 3.061 3.061 0 011.41-.649l4.092-1.085a5.68 5.68 0 001.735-.671 4.854 4.854 0 001.1-1.113l2.437-3.22c.8-1.061 1.613-2.112 2.352-3.216.938-1.4 1.752-2.88 2.564-4.357 1.6-2.916 2.869-5.985 4.872-8.642a9.41 9.41 0 001.26-2 3.168 3.168 0 00.134-2.313c-.384-1.01-1.388-1.621-2.093-2.44-1.223-1.421-1.5-3.406-1.647-5.275q-.207-2.6-.218-5.216a6.869 6.869 0 00-.659-3.652 2.914 2.914 0 01-.41-.747 2.084 2.084 0 01.034-.905 30.975 30.975 0 00.471-4.341 2.8 2.8 0 00-.072-.925 11.469 11.469 0 00-.622-1.181 2.08 2.08 0 011.681-2.768 1.208 1.208 0 01.531.067 2.757 2.757 0 01.457.278 4.148 4.148 0 002.053.521 2.867 2.867 0 001.2-.12 1.105 1.105 0 00.739-.884 1.178 1.178 0 00-.692-1.09z" /><path fill="#fff" d="M119.672-64.418l-.185-.02a10.23 10.23 0 01-1.928-.379 17.945 17.945 0 01-3.426-1.635c-1.651-.936-3.212-1.82-4.9-1.82a4.641 4.641 0 00-.908.09 8.931 8.931 0 00-.977.274 5.742 5.742 0 01-1.641.356h-.062c-2.13 0-3.593-2.176-4.1-4.333a26.068 26.068 0 01-.509-4.007c-.074-.993-.151-2.02-.315-3.014-.262-1.6-1.047-4.466-3.354-5.773a5.988 5.988 0 00-3.027-.732 19.91 19.91 0 00-4.07.59 21.13 21.13 0 01-4.33.618 8.686 8.686 0 01-1.152-.074 11.747 11.747 0 01-6.319-3.464l-.125-.117c-1.535-1.438-3.276-3.069-5.139-3.069a3.12 3.12 0 00-.96.152 3.449 3.449 0 00-1.266.77l-.124.113-.118-.12a8.262 8.262 0 00-1.718-1.375c-.088-.05-.175-.1-.264-.148a3.874 3.874 0 01-.894-.6 4.244 4.244 0 01-.705-1.048 2.311 2.311 0 00-1.01-1.188 1.112 1.112 0 00-.426-.083 2.279 2.279 0 00-1.546.846c-.184.21-.355.443-.52.669a5.337 5.337 0 01-1.117 1.23c-.1.069-.2.132-.3.2a1.6 1.6 0 00-.85 1.007c-.035.085-.07.169-.107.253a6.523 6.523 0 01-1.033 1.467 2.749 2.749 0 01-4.1 1.027 3.208 3.208 0 00-1.63-.489 4.1 4.1 0 00-.5.081 3.469 3.469 0 01-.671.091.979.979 0 01-.688-.24 1.474 1.474 0 01-.315-.47c-.032-.063-.062-.126-.1-.186a1.4 1.4 0 00-1.2-.648 1.275 1.275 0 00-.632.161l-.158.091-.084-.162a2.785 2.785 0 01-.312-1.3 1.554 1.554 0 01-1.209-.518 1.473 1.473 0 01-.415-1.092 2.9 2.9 0 01.222-.829 1.986 1.986 0 00.195-.875c-.06-.641-.7-.975-1.383-1.33-.7-.366-1.427-.744-1.606-1.5a2.421 2.421 0 01-.047-.55 2.906 2.906 0 00-.02-.383 2.814 2.814 0 00-.716-1.277c-.113-.14-.226-.281-.328-.424a1.678 1.678 0 01-.118-2.147l.071-.068 3.578.963a1.341 1.341 0 00.338.05c.231 0 .271-.09.284-.12a.36.36 0 00-.024-.255c-.2-.5-.794-.753-1.368-1-.705-.3-1.436-.618-1.5-1.4a1.905 1.905 0 01.227-.945 4.789 4.789 0 011.212-1.774 2.168 2.168 0 012.124-.432 3.535 3.535 0 01.967.688c.405.363.782.707 1.251.651a1.268 1.268 0 00.929-.888 4.722 4.722 0 00.2-.945c.026-.184.052-.368.089-.549a4.8 4.8 0 013.125-3.545l.151-.048a1.521 1.521 0 00.747-.392 1.058 1.058 0 00.043-1.046 4.068 4.068 0 00-.4-.665c-.093-.137-.187-.274-.271-.416a3.744 3.744 0 01-.272-3.195.859.859 0 01.289-.425.77.77 0 011 .281 2.3 2.3 0 01.235.466 2.565 2.565 0 00.158.338 1.22 1.22 0 001.388.478 2.665 2.665 0 00.2-1.765l-.021-.214c-.1-1.052.191-1.826.8-2.122a2.26 2.26 0 01.606-.168 1.312 1.312 0 00.64-.227.836.836 0 00.129-.931 2.841 2.841 0 00-.728-.882l-.038-.035-.013-.052a2.51 2.51 0 01.359-2.2 4.819 4.819 0 01.422-.44 2.109 2.109 0 00.722-1.041c.032-.086.063-.172.1-.256a5.642 5.642 0 01.34-.638c.065-.11.13-.22.191-.333a3.443 3.443 0 00.048-3.408 5.307 5.307 0 00-.452-.585 4.9 4.9 0 01-.546-.735 5.008 5.008 0 01-.5-1.809 6.31 6.31 0 01-.041-2.253c.034-.155.08-.312.126-.47a1.892 1.892 0 00.092-1.292c-.26-.581-1.088-.694-1.559-.711l-.247-.007a2.2 2.2 0 01-2.269-.954 2.177 2.177 0 00-.5-.515 2.155 2.155 0 00-.78-.253 4.449 4.449 0 01-.513-.121 1.374 1.374 0 01-.8-.649.74.74 0 01-.04-.6 1.225 1.225 0 01.22-.349l.069-.088a3.3 3.3 0 00.478-1.337c.11-.548.175-1.151-.18-1.475a1.545 1.545 0 00-.534-.266 2.239 2.239 0 01-.552-.256 2.2 2.2 0 01-.723-1.367c-.034-.128-.067-.256-.1-.38a3.328 3.328 0 00-.223-.531l-.092-.181.193-.064a1.01 1.01 0 00.458-.342 1.739 1.739 0 00.209-1l.031-2.3a1.053 1.053 0 00-.179-.761.978.978 0 00-.5-.2 11.567 11.567 0 00-1.545-.2 1.118 1.118 0 01-.652-.18c-.4-.311-.263-.916-.212-1.144l2.677-12.179c.407-1.852.805-3.773 1.191-5.632.539-2.6 1.1-5.288 1.693-7.865a1.542 1.542 0 01.339-.761 1.52 1.52 0 01.9-.365 42.881 42.881 0 0113.478.1 2.144 2.144 0 001.05 0 1.9 1.9 0 00.5-.342 3.759 3.759 0 01.349-.271 3.445 3.445 0 011.594-.426l10.591-1.028c.249-.024.531-.051.813-.051a2.8 2.8 0 01.907.132c1.179.4 1.727 1.648 2.209 2.753l.023.052a9.77 9.77 0 002.523 3.705 4.307 4.307 0 004.126.877 6.555 6.555 0 00.792-.395 6.074 6.074 0 01.987-.469 3.943 3.943 0 011.262-.185 12.113 12.113 0 011.407.112 11.652 11.652 0 001.358.109 3.335 3.335 0 001.288-.222 5.523 5.523 0 002.158-2.1 5.217 5.217 0 012.5-2.265 5.607 5.607 0 012.47.053c.247.045.494.09.739.123a4.562 4.562 0 00.606.041 2.227 2.227 0 002.025-.922 3.38 3.38 0 00.244-1.494 2.333 2.333 0 01.636-1.975 2.419 2.419 0 01.756-.349c.1-.032.2-.064.292-.1 2.02-.786 2.244-3.608 2.263-4.454.01-.424 0-.853 0-1.282a9.216 9.216 0 01.581-4.218 9.63 9.63 0 011.049-1.594 5.36 5.36 0 001.286-2.468 5.375 5.375 0 00-.428-2.371 7.393 7.393 0 01-.474-2.02c-.077-1.847 1.163-3.292 2.363-4.69a9.193 9.193 0 002.3-3.716l.066-.291.222.2c1.657 1.485 3.28 3.05 4.823 4.656 1.214-2.367 4.035-3.362 6.533-4.244l.468-.165c2.045-.728 5.5-2.39 5.679-5.348a2.926 2.926 0 011.855-2.416 6.5 6.5 0 012.079-.252h.773a13.92 13.92 0 006.435-1.326 7.842 7.842 0 004.13-4.848 13.9 13.9 0 00.305-2.323 7.074 7.074 0 011.148-4.089 7.156 7.156 0 012.141-1.592c2.791-1.556 5.66-3.075 8.529-4.514l.2-.1.051.215a6.521 6.521 0 01-.912 4.769 14.386 14.386 0 01-3.314 3.58l-.179.147a7.6 7.6 0 00-1.72 1.746 6.245 6.245 0 00-.485 4.429 44.536 44.536 0 01.471 5.01c.02.7.083 1.427.143 2.127l.055.631a4.032 4.032 0 01-.333 2.452 5.131 5.131 0 01-.535.672c-.4.449-.775.873-.621 1.342a1.538 1.538 0 00.446.576 17.191 17.191 0 014.383 5.474c.85 2.02.883 4.967-1.053 6.668-.09.078-.184.154-.277.23a3.229 3.229 0 00-.594.566 3.331 3.331 0 00-.075 2.816 1.02 1.02 0 00.216.476.876.876 0 00.614.162h.334a6.11 6.11 0 014.5 10.257c-.069.076-.142.151-.214.225a2.086 2.086 0 00.733 3.611 1.345 1.345 0 01.84 1.256 1.267 1.267 0 01-.85 1.035 2.447 2.447 0 01-.9.144c-.124 0-.249 0-.372-.012a4.337 4.337 0 01-2.139-.549c-.043-.027-.083-.056-.125-.084a1.581 1.581 0 00-.3-.179 1.053 1.053 0 00-.455-.055 1.907 1.907 0 00-1.532 2.524 3.674 3.674 0 00.266.478 3.1 3.1 0 01.362.722 2.959 2.959 0 01.08.982 31.21 31.21 0 01-.474 4.366 1.97 1.97 0 00-.037.83 1.878 1.878 0 00.277.525c.039.058.077.116.114.175a6.839 6.839 0 01.686 3.667v.077c.008 1.73.08 3.48.217 5.2.14 1.765.391 3.766 1.605 5.175a9.856 9.856 0 00.755.756 4.833 4.833 0 011.37 1.737 3.322 3.322 0 01-.136 2.442 9.542 9.542 0 01-1.283 2.041 38.956 38.956 0 00-3.449 5.917c-.451.89-.917 1.81-1.408 2.7-.8 1.457-1.63 2.963-2.572 4.37-.615.917-1.292 1.812-1.945 2.676l-2.85 3.767a5.04 5.04 0 01-1.145 1.154 5.888 5.888 0 01-1.786.695l-4.092 1.085a2.928 2.928 0 00-1.332.6 2.6 2.6 0 00-.457.695 12.644 12.644 0 00-.991 2.721 1.139 1.139 0 01-.5.831 1.172 1.172 0 01-.6.059c-.325-.032-.73-.073-1.111-.073a3.6 3.6 0 00-1.083.146 1.786 1.786 0 00-1.309 1.439v.08l-.063.049a14.054 14.054 0 01-7.087 2.953l-.362.039a4.321 4.321 0 00-2.579.816 4.189 4.189 0 00-.362.4 3.631 3.631 0 01-.489.522 3.739 3.739 0 01-1.816.657c-.117.021-.234.042-.35.064-.9.176-1.465.526-1.666 1.036a2.391 2.391 0 00-.013 1.235 3.054 3.054 0 01.016 1.289 2.749 2.749 0 01-.838 1.2 14.118 14.118 0 01-3.45 2.42 3.2 3.2 0 00-1.177.92c-.662.891-.312 1.483.1 2.168a3 3 0 01.509 1.267 3.136 3.136 0 01-.068.784 1.741 1.741 0 000 .95 1.79 1.79 0 00.706.7c.079.055.158.11.233.166a1.261 1.261 0 01.6 1.376 1.447 1.447 0 01-.367.484l-.093.093a2.306 2.306 0 00-.128 2.936c.078.1.165.187.251.278a2.391 2.391 0 01.52.707 1.7 1.7 0 01-.345 1.693 4.709 4.709 0 01-1.344 1.007 1.041 1.041 0 01-.464.169 1.282 1.282 0 01-.786-.369.948.948 0 00-.424-.249.135.135 0 00-.053.01 1.857 1.857 0 00.564 2.034l.07.054a1.007 1.007 0 01.354.393.6.6 0 01-.006.486 1.471 1.471 0 01-.845.665l-.129.046a3.1 3.1 0 00-1.186.615.891.891 0 00-.16 1.16 1.41 1.41 0 00.784.315 1.58 1.58 0 011 .458 1.6 1.6 0 01.272.654 1.25 1.25 0 00.216.53 1.469 1.469 0 00.516.325c.1.045.2.09.292.143a1.2 1.2 0 01.54 1.285 3.044 3.044 0 01-.526 1.027c-.788 1.152-1.474 2.38-1.183 3.59a.607.607 0 00.179.352.761.761 0 00.326.106 1.381 1.381 0 01.354.1.825.825 0 01-.012 1.443 1.407 1.407 0 01-.2.066.952.952 0 00-.17.059c-.379.2-.168.906-.094 1.119.26.756.167 1.319-.256 1.546a1.409 1.409 0 01-.792.068c-.258-.031-.492-.042-.6.076a.721.721 0 00-.066.542l.35 2.868a2.015 2.015 0 01-.325 1.679 1.9 1.9 0 01-.321.246.934.934 0 00-.5 1.015zm-10.439-4.2c1.78 0 3.454.948 5.073 1.866a17.639 17.639 0 003.357 1.606 9.592 9.592 0 001.676.343l.043-.9a1.631 1.631 0 01.265-.971 1.6 1.6 0 01.388-.321 1.2 1.2 0 00.491-1.59l-.35-2.868a1 1 0 01.153-.818.7.7 0 01.558-.218 2.8 2.8 0 01.342.028 1.1 1.1 0 00.585-.029c.363-.195.184-.85.089-1.123-.261-.758-.165-1.321.265-1.544a1.227 1.227 0 01.237-.085 1.121 1.121 0 00.149-.048.48.48 0 00.006-.805 1.121 1.121 0 00-.269-.07 1.065 1.065 0 01-.477-.174.945.945 0 01-.306-.547c-.323-1.342.4-2.652 1.233-3.866a2.789 2.789 0 00.475-.911.841.841 0 00-.369-.9c-.087-.049-.176-.09-.266-.13a1.743 1.743 0 01-.633-.412 1.519 1.519 0 01-.293-.676.92.92 0 00-1-.854 1.68 1.68 0 01-.972-.421 1.231 1.231 0 01.17-1.646 3.351 3.351 0 011.316-.7l.128-.046a1.156 1.156 0 00.641-.476.249.249 0 000-.209.732.732 0 00-.244-.25l-.076-.059a2.215 2.215 0 01-.648-2.5l.02-.047.042-.029a.5.5 0 01.294-.1 1.122 1.122 0 01.643.325 1.04 1.04 0 00.539.293.743.743 0 00.321-.123 4.357 4.357 0 001.247-.926 1.351 1.351 0 00.293-1.335 2.087 2.087 0 00-.452-.6c-.092-.1-.186-.2-.269-.3a2.635 2.635 0 01.149-3.4l.1-.1a1.143 1.143 0 00.286-.361c.134-.345-.18-.737-.489-.968-.072-.054-.148-.106-.224-.16a2.065 2.065 0 01-.829-.858 2.03 2.03 0 01-.022-1.143 2.83 2.83 0 00.065-.7 2.717 2.717 0 00-.462-1.116 2 2 0 01-.076-2.556 3.524 3.524 0 011.3-1.024 13.792 13.792 0 003.364-2.361 2.378 2.378 0 00.741-1.039 2.735 2.735 0 00-.024-1.143 2.669 2.669 0 01.034-1.416 2.346 2.346 0 011.925-1.252c.117-.023.236-.044.356-.065a3.5 3.5 0 001.655-.582 3.422 3.422 0 00.441-.475 4.654 4.654 0 01.393-.438 4.576 4.576 0 012.782-.908l.359-.039a13.694 13.694 0 006.851-2.835 2.134 2.134 0 011.547-1.671 3.925 3.925 0 011.188-.162c.4 0 .812.041 1.145.075a.893.893 0 00.412-.026c.175-.086.246-.332.31-.6a12.962 12.962 0 011.018-2.8 2.954 2.954 0 01.525-.788 3.237 3.237 0 011.487-.693l4.092-1.086a5.524 5.524 0 001.682-.647 4.61 4.61 0 001.062-1.075l2.849-3.766c.651-.861 1.324-1.751 1.934-2.66.935-1.395 1.759-2.894 2.557-4.344.489-.888.953-1.805 1.4-2.693a39.052 39.052 0 013.484-5.97 9.362 9.362 0 001.239-1.965 2.984 2.984 0 00.132-2.183 4.517 4.517 0 00-1.281-1.6 10.175 10.175 0 01-.781-.784c-1.282-1.489-1.544-3.555-1.688-5.375-.138-1.732-.211-3.49-.218-5.229v-.077a6.587 6.587 0 00-.633-3.483c-.035-.056-.072-.111-.109-.167a2.129 2.129 0 01-.322-.627 2.206 2.206 0 01.028-.968 30.941 30.941 0 00.471-4.33 2.643 2.643 0 00-.064-.868 2.817 2.817 0 00-.326-.639 4.229 4.229 0 01-.289-.523 2.255 2.255 0 011.829-3.013 1.422 1.422 0 01.607.079 1.87 1.87 0 01.372.216l.117.078a4.036 4.036 0 001.967.494c.117.006.236.011.353.011a2.107 2.107 0 00.774-.12.94.94 0 00.629-.734 1.013 1.013 0 00-.581-.892 2.434 2.434 0 01-.894-4.193c.071-.072.141-.144.209-.218a5.76 5.76 0 00-4.242-9.669h-.334a1.182 1.182 0 01-.857-.261 1.306 1.306 0 01-.311-.637 3.6 3.6 0 01.132-3.116 3.543 3.543 0 01.655-.63c.09-.073.18-.146.266-.221 1.806-1.586 1.765-4.361.962-6.268a16.933 16.933 0 00-4.3-5.356 1.816 1.816 0 01-.538-.721c-.217-.661.246-1.181.692-1.683a4.932 4.932 0 00.5-.625 3.638 3.638 0 00.281-2.239l-.054-.628c-.062-.706-.125-1.435-.145-2.148a44.049 44.049 0 00-.466-4.963 6.828 6.828 0 01.533-4.672 7.828 7.828 0 011.795-1.832l.178-.146a14.069 14.069 0 003.237-3.489 6.272 6.272 0 00.918-4.29c-2.8 1.406-5.593 2.888-8.313 4.4a6.752 6.752 0 00-2.04 1.506 6.712 6.712 0 00-1.071 3.894 13.984 13.984 0 01-.315 2.382 8.191 8.191 0 01-4.31 5.074 14.214 14.214 0 01-6.57 1.365h-.8a6.215 6.215 0 00-1.969.234 2.587 2.587 0 00-1.614 2.106c-.191 3.158-3.786 4.9-5.912 5.656l-.469.166c-2.512.887-5.359 1.891-6.442 4.289l-.106.236-.179-.187c-1.523-1.594-3.125-3.149-4.764-4.627a10.193 10.193 0 01-2.307 3.584c-1.21 1.407-2.351 2.737-2.28 4.446a7.16 7.16 0 00.455 1.923 5.722 5.722 0 01.444 2.526 5.7 5.7 0 01-1.354 2.636 9.3 9.3 0 00-1.01 1.529 8.954 8.954 0 00-.547 4.06c.008.435.015.868 0 1.3-.057 2.405-.987 4.189-2.486 4.772-.1.04-.206.074-.31.108a2.118 2.118 0 00-.652.293c-.475.366-.487 1.017-.5 1.705a3.616 3.616 0 01-.285 1.651 2.55 2.55 0 01-2.334 1.109 4.927 4.927 0 01-.654-.045c-.25-.034-.5-.08-.753-.125a5.28 5.28 0 00-2.307-.063 4.9 4.9 0 00-2.321 2.133 5.77 5.77 0 01-2.309 2.218 3.709 3.709 0 01-1.42.248 12.023 12.023 0 01-1.4-.111 11.747 11.747 0 00-1.365-.11 3.6 3.6 0 00-1.151.167 5.686 5.686 0 00-.927.444 6.981 6.981 0 01-.835.415 4.659 4.659 0 01-4.474-.933 10.079 10.079 0 01-2.623-3.835l-.022-.052c-.454-1.038-.969-2.215-2-2.562a2.486 2.486 0 00-.795-.113c-.266 0-.538.026-.779.05l-10.579 1.043a3.179 3.179 0 00-1.437.37 3.049 3.049 0 00-.312.244 2.2 2.2 0 01-.592.4 2.516 2.516 0 01-1.24.024 42.527 42.527 0 00-13.365-.1 1.226 1.226 0 00-.707.263 1.27 1.27 0 00-.25.6c-.595 2.574-1.152 5.259-1.691 7.857-.385 1.859-.784 3.781-1.192 5.635l-2.677 12.179c-.092.422-.065.674.087.793a.84.84 0 00.452.106 11.892 11.892 0 011.6.205 1.281 1.281 0 01.679.3 1.34 1.34 0 01.283 1.015l-.031 2.3a2.073 2.073 0 01-.275 1.2 1.387 1.387 0 01-.45.389 3.435 3.435 0 01.164.422c.041.129.075.262.109.4a1.382 1.382 0 001.054 1.38 1.83 1.83 0 01.652.337 1.855 1.855 0 01.288 1.8 3.559 3.559 0 01-.54 1.478l-.077.1a.959.959 0 00-.165.251.4.4 0 00.026.323 1.028 1.028 0 00.588.469 4.172 4.172 0 00.473.111 1.9 1.9 0 011.485.9 2.551 2.551 0 00.426.468 2.636 2.636 0 001.574.352l.25.006a2 2 0 011.868.917 2.186 2.186 0 01-.076 1.534c-.043.15-.088.3-.12.447a6.054 6.054 0 00.047 2.129 4.721 4.721 0 00.453 1.685 4.577 4.577 0 00.51.681 5.79 5.79 0 01.48.624 3.792 3.792 0 01-.036 3.761c-.062.117-.129.231-.2.346a5.27 5.27 0 00-.319.6c-.034.078-.063.16-.093.239a2.434 2.434 0 01-.807 1.172 4.55 4.55 0 00-.393.408 2.177 2.177 0 00-.3 1.842 2.967 2.967 0 01.773.965 1.174 1.174 0 01-.221 1.333 1.585 1.585 0 01-.807.307 1.95 1.95 0 00-.515.139c-.663.324-.642 1.348-.6 1.774l.02.211a2.86 2.86 0 01-.291 2.048l-.028.038-.043.019a1.42 1.42 0 01-.56.112 1.542 1.542 0 01-1.309-.714 2.7 2.7 0 01-.183-.384 2.043 2.043 0 00-.2-.4c-.13-.183-.382-.287-.517-.195a.554.554 0 00-.162.261 3.438 3.438 0 00.247 2.893c.08.136.169.266.258.4a4.405 4.405 0 01.429.723 1.385 1.385 0 01-.094 1.408 1.836 1.836 0 01-.911.5l-.146.047a4.447 4.447 0 00-2.893 3.282c-.035.175-.06.352-.086.529a5.031 5.031 0 01-.214 1.015 1.592 1.592 0 01-1.22 1.118 2.013 2.013 0 01-1.522-.738 3.274 3.274 0 00-.867-.625 1.812 1.812 0 00-1.768.377 4.492 4.492 0 00-1.116 1.648 1.637 1.637 0 00-.2.77c.051.576.627.824 1.294 1.111a2.574 2.574 0 011.555 1.192.669.669 0 01.02.527.592.592 0 01-.6.329 1.67 1.67 0 01-.429-.063l-3.381-.909a1.444 1.444 0 00.225 1.619c.1.138.208.273.316.408a3.1 3.1 0 01.79 1.445 3.15 3.15 0 01.024.431 2.144 2.144 0 00.038.473c.142.6.766.93 1.426 1.274.733.383 1.492.778 1.57 1.608a2.29 2.29 0 01-.216 1.033 2.6 2.6 0 00-.2.728 1.124 1.124 0 00.322.83 1.2 1.2 0 001.1.385l.234-.053-.021.239a2.438 2.438 0 00.19 1.165 1.656 1.656 0 01.637-.125 1.754 1.754 0 011.5.821c.039.067.074.137.109.208a1.209 1.209 0 00.236.366c.221.2.614.155 1.055.066a4.477 4.477 0 01.541-.087 3.547 3.547 0 011.81.525 3.261 3.261 0 001.615.492 3.305 3.305 0 002.066-1.431 6.155 6.155 0 00.981-1.386c.036-.078.069-.159.1-.239a2.477 2.477 0 01.364-.678 2.518 2.518 0 01.623-.494c.094-.059.188-.118.277-.182a4.955 4.955 0 001.039-1.153c.17-.232.345-.472.539-.693a2.215 2.215 0 012.369-.857 2.6 2.6 0 011.187 1.347 3.973 3.973 0 00.641.964 3.587 3.587 0 00.817.547c.09.05.181.1.27.151a8.376 8.376 0 011.674 1.315 3.69 3.69 0 011.269-.734 3.472 3.472 0 011.068-.169c2 0 3.8 1.681 5.379 3.164l.124.116a11.425 11.425 0 006.127 3.373 8.465 8.465 0 001.106.071 20.854 20.854 0 004.257-.611 20.49 20.49 0 014.143-.6 6.316 6.316 0 013.2.779c2.434 1.379 3.254 4.363 3.527 6.02.166 1.008.244 2.044.318 3.045a25.906 25.906 0 00.5 3.952c.474 2.022 1.819 4.063 3.757 4.063h.055a5.377 5.377 0 001.541-.339 9.409 9.409 0 011.016-.285 5 5 0 01.978-.107z" /></g></g></g><g  transform="translate(-214 -214)"><circle cx="33.5" cy="33.5" r="33.5" fill="#1ad5ff"  opacity=".583" transform="translate(234 227)"/><circle cx="46.5" cy="46.5" r="46.5" fill="#1ad5ff"  opacity=".269" transform="translate(221 214)"/><g filter="url(#b)" transform="translate(214 214)"><circle cx="14" cy="14" r="14" fill="#00d1ff"  transform="translate(39 33)"/></g></g></svg>
