<svg xmlns="http://www.w3.org/2000/svg" viewBox="0 0 99.09 64.696"><defs/><g ><g ><path fill="#ccc" fill-rule="evenodd" d="M77.045 62.685C64.87 62.685 55 63.134 55 63.69s9.87 1.006 22.045 1.006 22.045-.45 22.045-1.006-9.87-1.005-22.045-1.005z" /><path fill="#f8c81e" fill-rule="evenodd" stroke="#191405" stroke-miterlimit="10" d="M67.968 15.014a18 18 0 00-9.4 15.779l.011 13.219a18 18 0 0017.962 17.942h0a18 18 0 0017.942-17.962l-.011-13.219A18 18 0 0076.51 12.831h0a17.859 17.859 0 00-3.619.371" /><path fill-rule="evenodd" d="M74.927 30.717c.1-2.95 3.084-2.952 3.191 0 .745 8.525 13.673 9.35 15.135 1.344.271-1.483.642-4.109 2.481-4.4v-2.039c-3.189-.069-6.2-1.046-9.358-.958-4.235.122-5.676 2-9.854 2.3-4.178-.294-5.621-2.167-9.857-2.284-3.156-.086-6.169.894-9.357.967v2.039c1.839.287 2.213 2.912 2.485 4.4 1.472 8 14.4 7.165 15.134-1.361zm4.424-.066c-.095-2.121.229-3 2.283-3.69a16.094 16.094 0 014.751-1.037c4.558-.132 6.5 1 5.605 5.91-1.2 6.577-11.981 5.829-12.64-1.182zm-5.655-.029c-.654 7.044-11.432 7.8-12.641 1.227-.9-4.912 1.041-6.042 5.6-5.916a16.078 16.078 0 014.753 1.033c2.055.692 2.38 1.567 2.29 3.656z" /><path fill-rule="evenodd" d="M70.813 41.75a.57317.57317 0 10.215-1.126 2.57 2.57 0 00-2.7 1.238.574.574 0 00.993.574 1.427 1.427 0 01.178-.247 7.672 7.672 0 0014.061-.003 1.449 1.449 0 01.179.246.57305.57305 0 00.992-.574 2.568 2.568 0 00-2.7-1.235.573.573 0 00.212 1.126 1.524 1.524 0 01.27-.025 6.526 6.526 0 01-11.967.007 1.456 1.456 0 01.268.025z" /><path fill="#fff" fill-rule="evenodd" d="M67.76 27.085a3.716 3.716 0 103.719 3.714 3.716 3.716 0 00-3.719-3.714z" /><path fill="#fff" fill-rule="evenodd" d="M85.285 27.075a3.716 3.716 0 103.718 3.714 3.716 3.716 0 00-3.718-3.714z" /><path fill-rule="evenodd" d="M67.797 28.897a1.906 1.906 0 00-1.812 2.485 1.2 1.2 0 011.987 1.313 1.9 1.9 0 001.586-2.618h-.073a.646.646 0 01-.646-.646.627.627 0 01.033-.206 1.894 1.894 0 00-1.074-.332z" /><path fill="#313131" fill-rule="evenodd" d="M85.247 28.888a1.9 1.9 0 00-1.854 2.326 1.2 1.2 0 011.81 1.479h.047a1.9 1.9 0 001.736-2.679.647.647 0 01-.913-.589.654.654 0 01.079-.31 1.9 1.9 0 00-.9-.228z" /><path d="M59.384 11.01a12.973 12.973 0 002.884 1.879c-3.393-2.748-2.963-4.706-1.793-9.991.078-.354.157-.719.337-1.553l.282-1.348.651 1.223a.815.815 0 01.067.11c.284.405 1.746 2.076 7.023 2.663 3.171.353 5.953.675 7.98.95a17.091 17.091 0 013.788.715 27.86 27.86 0 012.41 2.314 2.147 2.147 0 00-.1-.681 10.7 10.7 0 00-1.582-2.887l-.614-.884 1.111.18a8.8 8.8 0 014 1.521 7.023 7.023 0 012.1 2.591 11.838 11.838 0 01.712 1.728 12.6 12.6 0 00.335-1.7l.137-1.1.767.861a15.311 15.311 0 012.421 3.464 8.645 8.645 0 01.871 4.05v.046c-.106.764 1.149 3.288 1.243 6.148a30.563 30.563 0 01-1.055 7.591l-3.756-8.09c0-.012-1.37-.372-1.7-1a8.956 8.956 0 00-2.106-2.336 4.036 4.036 0 00-2.064-.928 43.141 43.141 0 00-7.265.418h-.013l-.1.015-.1-.031c-1.065-.292-2.327-.635-3.581-.931a24.359 24.359 0 00-3.543-.614 4.042 4.042 0 00-2.184.6 8.747 8.747 0 00-2.443 1.98c-.424.571-5.121 5.778-5.121 5.778s1.009-1.768.718-2.244c-1.573-2.515-1.4-5.1-1.577-10.156l-.037-1.141z" /></g><g ><path fill="#ccc" fill-rule="evenodd" d="M22.045 62.685C9.87 62.685 0 63.134 0 63.69s9.87 1.006 22.045 1.006 22.045-.45 22.045-1.006-9.87-1.005-22.045-1.005z" /><path fill="#f8c81e" fill-rule="evenodd" stroke="#191405" stroke-miterlimit="10" d="M12.968 15.014a18 18 0 00-9.4 15.779l.011 13.219a18 18 0 0017.962 17.942h0a18 18 0 0017.942-17.962l-.011-13.219A18 18 0 0021.51 12.831h0a17.859 17.859 0 00-3.619.371" /><path fill-rule="evenodd" d="M19.927 30.717c.1-2.95 3.084-2.952 3.191 0 .745 8.525 13.673 9.35 15.135 1.344.271-1.483.642-4.109 2.481-4.4v-2.039c-3.189-.069-6.2-1.046-9.358-.958-4.235.122-5.676 2-9.854 2.3-4.178-.294-5.621-2.167-9.857-2.284-3.156-.086-6.169.894-9.357.967v2.039c1.839.287 2.213 2.912 2.485 4.4 1.472 8 14.4 7.165 15.134-1.361zm4.424-.066c-.095-2.121.229-3 2.283-3.69a16.094 16.094 0 014.751-1.037c4.558-.132 6.5 1 5.605 5.91-1.2 6.577-11.981 5.829-12.64-1.182zm-5.655-.029c-.654 7.044-11.432 7.8-12.641 1.227-.9-4.912 1.041-6.042 5.6-5.916a16.078 16.078 0 014.753 1.033c2.055.692 2.38 1.567 2.29 3.656z" /><path fill-rule="evenodd" d="M15.813 41.75a.57317.57317 0 10.215-1.126 2.57 2.57 0 00-2.7 1.238.574.574 0 00.993.574 1.427 1.427 0 01.178-.247 7.672 7.672 0 0014.061-.003 1.449 1.449 0 01.179.246.57305.57305 0 00.992-.574 2.568 2.568 0 00-2.7-1.235.573.573 0 00.212 1.126 1.524 1.524 0 01.27-.025 6.526 6.526 0 01-11.967.007 1.456 1.456 0 01.268.025z" /><path fill="#fff" fill-rule="evenodd" d="M12.76 27.085a3.716 3.716 0 103.719 3.714 3.716 3.716 0 00-3.719-3.714z" /><path fill="#fff" fill-rule="evenodd" d="M30.285 27.075a3.716 3.716 0 103.718 3.714 3.716 3.716 0 00-3.718-3.714z" /><path fill-rule="evenodd" d="M12.797 28.897a1.906 1.906 0 00-1.812 2.485 1.2 1.2 0 011.987 1.313 1.9 1.9 0 001.586-2.618h-.073a.646.646 0 01-.646-.646.627.627 0 01.033-.206 1.894 1.894 0 00-1.074-.332z" /><path fill="#313131" fill-rule="evenodd" d="M30.247 28.888a1.9 1.9 0 00-1.854 2.326 1.2 1.2 0 011.81 1.479h.047a1.9 1.9 0 001.736-2.679.647.647 0 01-.913-.589.654.654 0 01.079-.31 1.9 1.9 0 00-.9-.228z" /><path d="M4.384 11.01a12.973 12.973 0 002.884 1.879c-3.393-2.748-2.963-4.706-1.793-9.991.078-.354.157-.719.337-1.553l.282-1.348.651 1.223a.815.815 0 01.067.11c.284.405 1.746 2.076 7.023 2.663 3.171.353 5.953.675 7.98.95a17.091 17.091 0 013.788.715 27.86 27.86 0 012.41 2.314 2.147 2.147 0 00-.1-.681 10.7 10.7 0 00-1.582-2.887l-.614-.884 1.111.18a8.8 8.8 0 014 1.521 7.023 7.023 0 012.1 2.591 11.838 11.838 0 01.712 1.728 12.6 12.6 0 00.335-1.7l.137-1.1.767.861a15.311 15.311 0 012.421 3.464 8.645 8.645 0 01.871 4.05v.046c-.106.764 1.149 3.288 1.243 6.148a30.563 30.563 0 01-1.055 7.591l-3.756-8.09c0-.012-1.37-.372-1.7-1a8.956 8.956 0 00-2.106-2.336 4.036 4.036 0 00-2.064-.928 43.141 43.141 0 00-7.265.418h-.013l-.1.015-.1-.031c-1.065-.292-2.327-.635-3.581-.931a24.359 24.359 0 00-3.543-.614 4.042 4.042 0 00-2.184.6 8.747 8.747 0 00-2.443 1.98c-.424.571-5.121 5.778-5.121 5.778s1.009-1.768.718-2.244c-1.573-2.515-1.4-5.1-1.577-10.156l-.037-1.141z" /></g></g></svg>
