<svg xmlns="http://www.w3.org/2000/svg" viewBox="0 0 78.193 100.116"><defs/><g ><g ><path fill="#ccc" fill-rule="evenodd" d="M62.461 44.732c-8.688 0-15.731.321-15.731.717s7.043.718 15.731.718 15.731-.321 15.731-.718-7.043-.717-15.731-.717z" /><path fill="#f8c81e" fill-rule="evenodd" stroke="#191405" stroke-miterlimit="10" d="M55.984 10.714a12.845 12.845 0 00-6.706 11.26l.008 9.433a12.848 12.848 0 0012.818 12.8h0a12.848 12.848 0 0012.8-12.818l-.008-9.433a12.848 12.848 0 00-12.818-12.8h0a12.745 12.745 0 00-2.583.264" /><path fill-rule="evenodd" d="M60.946 21.92c.074-2.105 2.2-2.107 2.277 0 .532 6.083 9.757 6.672 10.8.959.193-1.058.458-2.932 1.77-3.138v-1.455c-2.275-.049-4.426-.747-6.678-.683-3.022.087-4.051 1.425-7.032 1.638-2.981-.21-4.011-1.546-7.034-1.63-2.252-.061-4.4.638-6.677.69v1.455c1.312.2 1.579 2.078 1.773 3.137 1.051 5.712 10.275 5.113 10.8-.971zm3.157-.047c-.068-1.513.163-2.138 1.629-2.633a11.484 11.484 0 013.391-.741c3.253-.094 4.641.711 4 4.218-.858 4.694-8.549 4.16-9.02-.844zm-4.036-.02c-.467 5.027-8.158 5.569-9.021.876-.645-3.505.743-4.312 4-4.222a11.473 11.473 0 013.392.737c1.466.494 1.7 1.118 1.634 2.609z" /><path fill-rule="evenodd" d="M58.014 29.794a.409.409 0 10.153-.8 1.834 1.834 0 00-1.927.883.4095.4095 0 00.709.41 1.018 1.018 0 01.127-.176 5.475 5.475 0 0010.035-.005 1.033 1.033 0 01.128.175.40907.40907 0 00.708-.41 1.833 1.833 0 00-1.927-.882.409.409 0 10.151.8 1.088 1.088 0 01.193-.018 4.657 4.657 0 01-8.54 0 1.039 1.039 0 01.191.018z" /><path fill="#fff" fill-rule="evenodd" d="M55.835 19.328a2.652 2.652 0 102.654 2.65 2.652 2.652 0 00-2.654-2.65z" /><path fill="#fff" fill-rule="evenodd" d="M68.34 19.321a2.652 2.652 0 102.653 2.65 2.652 2.652 0 00-2.653-2.65z" /><path fill-rule="evenodd" d="M55.862 20.621a1.36 1.36 0 00-1.293 1.773.859.859 0 011.418.937 1.358 1.358 0 001.132-1.869h-.052a.461.461 0 01-.461-.461.447.447 0 01.023-.147 1.351 1.351 0 00-.767-.237z" /><path fill="#313131" fill-rule="evenodd" d="M68.314 20.615a1.358 1.358 0 00-1.323 1.66.859.859 0 011.292 1.056h.033a1.358 1.358 0 001.239-1.912.462.462 0 01-.652-.42.467.467 0 01.056-.221 1.354 1.354 0 00-.646-.163z" /><path d="M49.859 7.858a9.257 9.257 0 002.058 1.341c-2.421-1.961-2.114-3.358-1.28-7.129.056-.253.112-.513.24-1.108l.2-.962.464.873a.581.581 0 01.048.079c.2.289 1.246 1.481 5.012 1.9 2.263.252 4.248.482 5.694.678a12.2 12.2 0 012.7.51 19.885 19.885 0 011.72 1.651 1.532 1.532 0 00-.07-.486 7.633 7.633 0 00-1.129-2.061l-.438-.631.793.128a6.277 6.277 0 012.857 1.085 5.012 5.012 0 011.5 1.849 8.448 8.448 0 01.514 1.235 8.992 8.992 0 00.239-1.216l.1-.788.547.615a10.926 10.926 0 011.728 2.472 6.17 6.17 0 01.622 2.89v.033c-.076.545.82 2.346.887 4.387a21.811 21.811 0 01-.753 5.417l-2.682-5.771c0-.008-.978-.265-1.213-.715a6.39 6.39 0 00-1.5-1.667 2.88 2.88 0 00-1.473-.662 30.785 30.785 0 00-5.184.3h-.018l-.073.011-.07-.022c-.76-.208-1.661-.453-2.556-.664a17.382 17.382 0 00-2.528-.438 2.884 2.884 0 00-1.558.425 6.242 6.242 0 00-1.744 1.413c-.3.407-3.655 4.123-3.655 4.123s.72-1.262.512-1.6c-1.123-1.795-1-3.642-1.125-7.248l-.026-.814z" /></g><g ><path fill="#ccc" fill-rule="evenodd" d="M62.461 98.68c-8.688 0-15.731.321-15.731.717s7.043.718 15.731.718 15.731-.321 15.731-.718-7.043-.717-15.731-.717z" /><path fill="#f8c81e" fill-rule="evenodd" stroke="#191405" stroke-miterlimit="10" d="M55.984 64.662a12.845 12.845 0 00-6.706 11.26l.008 9.433a12.848 12.848 0 0012.818 12.8h0a12.848 12.848 0 0012.8-12.818l-.008-9.433a12.848 12.848 0 00-12.818-12.8h0a12.745 12.745 0 00-2.583.264" /><path fill-rule="evenodd" d="M60.946 75.868c.074-2.105 2.2-2.107 2.277 0 .532 6.083 9.757 6.672 10.8.959.193-1.058.458-2.932 1.77-3.138v-1.455c-2.275-.049-4.426-.747-6.678-.683-3.022.087-4.051 1.425-7.032 1.638-2.981-.21-4.011-1.546-7.034-1.63-2.252-.061-4.4.638-6.677.69v1.455c1.312.2 1.579 2.078 1.773 3.137 1.051 5.712 10.275 5.113 10.8-.971zm3.157-.047c-.068-1.513.163-2.138 1.629-2.633a11.484 11.484 0 013.391-.741c3.253-.094 4.641.711 4 4.218-.858 4.694-8.549 4.16-9.02-.844zm-4.036-.02c-.467 5.027-8.158 5.569-9.021.876-.645-3.505.743-4.312 4-4.222a11.473 11.473 0 013.392.737c1.466.494 1.7 1.118 1.634 2.609z" /><path fill-rule="evenodd" d="M58.014 83.742a.409.409 0 10.153-.8 1.834 1.834 0 00-1.927.883.4095.4095 0 00.709.41 1.018 1.018 0 01.127-.176 5.475 5.475 0 0010.035-.005 1.033 1.033 0 01.128.175.40907.40907 0 00.708-.41 1.833 1.833 0 00-1.927-.882.409.409 0 10.151.8 1.088 1.088 0 01.193-.018 4.657 4.657 0 01-8.54 0 1.039 1.039 0 01.191.018z" /><path fill="#fff" fill-rule="evenodd" d="M55.835 73.276a2.652 2.652 0 102.654 2.65 2.652 2.652 0 00-2.654-2.65z" /><path fill="#fff" fill-rule="evenodd" d="M68.34 73.269a2.652 2.652 0 102.653 2.65 2.652 2.652 0 00-2.653-2.65z" /><path fill-rule="evenodd" d="M55.862 74.569a1.36 1.36 0 00-1.293 1.773.859.859 0 011.418.937 1.358 1.358 0 001.132-1.869h-.052a.461.461 0 01-.461-.461.447.447 0 01.023-.147 1.351 1.351 0 00-.767-.237z" /><path fill="#313131" fill-rule="evenodd" d="M68.314 74.563a1.358 1.358 0 00-1.323 1.66.859.859 0 011.292 1.056h.033a1.358 1.358 0 001.239-1.912.462.462 0 01-.652-.42.467.467 0 01.056-.221 1.354 1.354 0 00-.646-.163z" /><path d="M49.859 61.806a9.257 9.257 0 002.058 1.341c-2.421-1.961-2.114-3.358-1.28-7.129.056-.253.112-.513.24-1.108l.2-.962.464.873a.581.581 0 01.048.079c.2.289 1.246 1.481 5.012 1.9 2.263.252 4.248.482 5.694.678a12.2 12.2 0 012.7.51 19.885 19.885 0 011.72 1.651 1.532 1.532 0 00-.07-.486 7.633 7.633 0 00-1.129-2.061l-.438-.631.793.128a6.277 6.277 0 012.857 1.085 5.012 5.012 0 011.5 1.849 8.448 8.448 0 01.514 1.235 8.992 8.992 0 00.239-1.216l.1-.788.547.615a10.926 10.926 0 011.728 2.472 6.17 6.17 0 01.622 2.89v.033c-.076.545.82 2.346.887 4.387a21.811 21.811 0 01-.753 5.417l-2.682-5.771c0-.008-.978-.265-1.213-.715a6.39 6.39 0 00-1.5-1.667 2.88 2.88 0 00-1.473-.662 30.785 30.785 0 00-5.184.3h-.018l-.073.011-.07-.022c-.76-.208-1.661-.453-2.556-.664a17.382 17.382 0 00-2.528-.438 2.884 2.884 0 00-1.558.425 6.242 6.242 0 00-1.744 1.413c-.3.407-3.655 4.123-3.655 4.123s.72-1.262.512-1.6c-1.123-1.795-1-3.642-1.125-7.248l-.026-.814z" /></g><g ><path fill="#ccc" fill-rule="evenodd" d="M15.731 44.732c-8.688 0-15.731.321-15.731.717s7.043.718 15.731.718 15.731-.321 15.731-.718-7.043-.717-15.731-.717z" /><path fill="#f8c81e" fill-rule="evenodd" stroke="#191405" stroke-miterlimit="10" d="M9.254 10.714a12.845 12.845 0 00-6.706 11.26l.008 9.433a12.848 12.848 0 0012.818 12.8h0a12.848 12.848 0 0012.8-12.818l-.008-9.433a12.848 12.848 0 00-12.818-12.8h0a12.745 12.745 0 00-2.583.264" /><path fill-rule="evenodd" d="M14.216 21.92c.074-2.105 2.2-2.107 2.277 0 .532 6.083 9.757 6.672 10.8.959.193-1.058.458-2.932 1.77-3.138v-1.455c-2.275-.049-4.426-.747-6.678-.683-3.022.087-4.051 1.425-7.032 1.638-2.981-.21-4.011-1.546-7.034-1.63-2.252-.061-4.4.638-6.677.69v1.455c1.312.2 1.579 2.078 1.773 3.137 1.051 5.712 10.275 5.113 10.8-.971zm3.157-.047c-.068-1.513.163-2.138 1.629-2.633a11.484 11.484 0 013.391-.741c3.253-.094 4.641.711 4 4.218-.858 4.694-8.549 4.16-9.02-.844zm-4.036-.02c-.467 5.027-8.158 5.569-9.021.876-.645-3.505.743-4.312 4-4.222a11.473 11.473 0 013.392.737c1.466.494 1.7 1.118 1.634 2.609z" /><path fill-rule="evenodd" d="M11.284 29.794a.409.409 0 10.153-.8 1.834 1.834 0 00-1.927.883.4095.4095 0 00.709.41 1.018 1.018 0 01.127-.176 5.475 5.475 0 0010.035-.005 1.033 1.033 0 01.128.175.40907.40907 0 00.708-.41 1.833 1.833 0 00-1.927-.882.409.409 0 10.151.8 1.088 1.088 0 01.193-.018 4.657 4.657 0 01-8.54 0 1.039 1.039 0 01.191.018z" /><path fill="#fff" fill-rule="evenodd" d="M9.105 19.328a2.652 2.652 0 102.654 2.65 2.652 2.652 0 00-2.654-2.65z" /><path fill="#fff" fill-rule="evenodd" d="M21.61 19.321a2.652 2.652 0 102.653 2.65 2.652 2.652 0 00-2.653-2.65z" /><path fill-rule="evenodd" d="M9.132 20.621a1.36 1.36 0 00-1.293 1.773.859.859 0 011.418.937 1.358 1.358 0 001.132-1.869h-.052a.461.461 0 01-.461-.461.447.447 0 01.023-.147 1.351 1.351 0 00-.767-.237z" /><path fill="#313131" fill-rule="evenodd" d="M21.584 20.615a1.358 1.358 0 00-1.323 1.66.859.859 0 011.292 1.056h.033a1.358 1.358 0 001.239-1.912.462.462 0 01-.652-.42.467.467 0 01.056-.221 1.354 1.354 0 00-.646-.163z" /><path d="M3.129 7.858a9.257 9.257 0 002.058 1.341C2.766 7.238 3.073 5.841 3.907 2.07c.056-.253.112-.513.24-1.108l.2-.962.464.873a.581.581 0 01.048.079c.2.289 1.246 1.481 5.012 1.9 2.263.252 4.248.482 5.694.678a12.2 12.2 0 012.7.51 19.885 19.885 0 011.72 1.651 1.532 1.532 0 00-.07-.486 7.633 7.633 0 00-1.129-2.061l-.438-.631.793.128a6.277 6.277 0 012.857 1.085 5.012 5.012 0 011.5 1.849 8.448 8.448 0 01.514 1.235 8.992 8.992 0 00.239-1.216l.1-.788.547.615a10.926 10.926 0 011.728 2.472 6.17 6.17 0 01.622 2.89v.033c-.076.545.82 2.346.887 4.387a21.811 21.811 0 01-.753 5.417L24.7 14.849c0-.008-.978-.265-1.213-.715a6.39 6.39 0 00-1.5-1.667 2.88 2.88 0 00-1.473-.662 30.785 30.785 0 00-5.184.3h-.018l-.073.011-.07-.022c-.76-.208-1.661-.453-2.556-.664a17.382 17.382 0 00-2.528-.438 2.884 2.884 0 00-1.558.425 6.242 6.242 0 00-1.744 1.413c-.3.407-3.655 4.123-3.655 4.123s.72-1.262.512-1.6c-1.123-1.795-1-3.642-1.125-7.248l-.026-.814z" /></g><g ><path fill="#ccc" fill-rule="evenodd" d="M15.731 98.68C7.043 98.68 0 99.001 0 99.397s7.043.718 15.731.718 15.731-.321 15.731-.718-7.043-.717-15.731-.717z" /><path fill="#f8c81e" fill-rule="evenodd" stroke="#191405" stroke-miterlimit="10" d="M9.254 64.662a12.845 12.845 0 00-6.706 11.26l.008 9.433a12.848 12.848 0 0012.818 12.8h0a12.848 12.848 0 0012.8-12.818l-.008-9.433a12.848 12.848 0 00-12.818-12.8h0a12.745 12.745 0 00-2.583.264" /><path fill-rule="evenodd" d="M14.216 75.868c.074-2.105 2.2-2.107 2.277 0 .532 6.083 9.757 6.672 10.8.959.193-1.058.458-2.932 1.77-3.138v-1.455c-2.275-.049-4.426-.747-6.678-.683-3.022.087-4.051 1.425-7.032 1.638-2.981-.21-4.011-1.546-7.034-1.63-2.252-.061-4.4.638-6.677.69v1.455c1.312.2 1.579 2.078 1.773 3.137 1.051 5.712 10.275 5.113 10.8-.971zm3.157-.047c-.068-1.513.163-2.138 1.629-2.633a11.484 11.484 0 013.391-.741c3.253-.094 4.641.711 4 4.218-.858 4.694-8.549 4.16-9.02-.844zm-4.036-.02c-.467 5.027-8.158 5.569-9.021.876-.645-3.505.743-4.312 4-4.222a11.473 11.473 0 013.392.737c1.466.494 1.7 1.118 1.634 2.609z" /><path fill-rule="evenodd" d="M11.284 83.742a.409.409 0 10.153-.8 1.834 1.834 0 00-1.927.883.4095.4095 0 00.709.41 1.018 1.018 0 01.127-.176 5.475 5.475 0 0010.035-.005 1.033 1.033 0 01.128.175.40907.40907 0 00.708-.41 1.833 1.833 0 00-1.927-.882.409.409 0 10.151.8 1.088 1.088 0 01.193-.018 4.657 4.657 0 01-8.54 0 1.039 1.039 0 01.191.018z" /><path fill="#fff" fill-rule="evenodd" d="M9.105 73.276a2.652 2.652 0 102.654 2.65 2.652 2.652 0 00-2.654-2.65z" /><path fill="#fff" fill-rule="evenodd" d="M21.61 73.269a2.652 2.652 0 102.653 2.65 2.652 2.652 0 00-2.653-2.65z" /><path fill-rule="evenodd" d="M9.132 74.569a1.36 1.36 0 00-1.293 1.773.859.859 0 011.418.937 1.358 1.358 0 001.132-1.869h-.052a.461.461 0 01-.461-.461.447.447 0 01.023-.147 1.351 1.351 0 00-.767-.237z" /><path fill="#313131" fill-rule="evenodd" d="M21.584 74.563a1.358 1.358 0 00-1.323 1.66.859.859 0 011.292 1.056h.033a1.358 1.358 0 001.239-1.912.462.462 0 01-.652-.42.467.467 0 01.056-.221 1.354 1.354 0 00-.646-.163z" /><path d="M3.129 61.806a9.257 9.257 0 002.058 1.341c-2.421-1.961-2.114-3.358-1.28-7.129.056-.253.112-.513.24-1.108l.2-.962.464.873a.581.581 0 01.048.079c.2.289 1.246 1.481 5.012 1.9 2.263.252 4.248.482 5.694.678a12.2 12.2 0 012.7.51 19.885 19.885 0 011.72 1.651 1.532 1.532 0 00-.07-.486 7.633 7.633 0 00-1.129-2.061l-.438-.631.793.128a6.277 6.277 0 012.857 1.085 5.012 5.012 0 011.5 1.849 8.448 8.448 0 01.514 1.235 8.992 8.992 0 00.239-1.216l.1-.788.547.615a10.926 10.926 0 011.728 2.472 6.17 6.17 0 01.622 2.89v.033c-.076.545.82 2.346.887 4.387a21.811 21.811 0 01-.753 5.417L24.7 68.797c0-.008-.978-.265-1.213-.715a6.39 6.39 0 00-1.5-1.667 2.88 2.88 0 00-1.473-.662 30.785 30.785 0 00-5.184.3h-.018l-.073.011-.07-.022c-.76-.208-1.661-.453-2.556-.664a17.382 17.382 0 00-2.528-.438 2.884 2.884 0 00-1.558.425 6.242 6.242 0 00-1.744 1.413c-.3.407-3.655 4.123-3.655 4.123s.72-1.262.512-1.6c-1.123-1.795-1-3.642-1.125-7.248l-.026-.814z" /></g></g></svg>
