<svg xmlns="http://www.w3.org/2000/svg" viewBox="0 0 104.11 97.59"><defs/><g ><g ><path fill="#ccc" fill-rule="evenodd" d="M14.01 96.312c-7.738 0-14.01.286-14.01.639s6.272.639 14.01.639 14.01-.286 14.01-.639-6.273-.639-14.01-.639z" /><path fill="#f8c81e" fill-rule="evenodd" stroke="#191405" stroke-miterlimit="10" d="M8.241 66.018a11.44 11.44 0 00-5.972 10.028l.007 8.4a11.442 11.442 0 0011.415 11.4h0a11.442 11.442 0 0011.4-11.415l-.007-8.4a11.442 11.442 0 00-11.415-11.4h0a11.351 11.351 0 00-2.3.236" /><path fill-rule="evenodd" d="M12.664 75.996c.065-1.875 1.96-1.876 2.028 0 .474 5.418 8.69 5.942 9.619.854.172-.943.408-2.612 1.577-2.795v-1.3c-2.026-.044-3.942-.665-5.947-.609-2.692.078-3.607 1.269-6.263 1.459-2.655-.187-3.572-1.377-6.264-1.451-2.006-.055-3.92.568-5.946.615v1.3c1.169.182 1.407 1.851 1.579 2.793.936 5.087 9.151 4.553 9.618-.865zm2.811-.042c-.06-1.348.145-1.9 1.451-2.345a10.228 10.228 0 013.02-.66c2.9-.084 4.134.634 3.562 3.756-.764 4.18-7.614 3.7-8.033-.751zm-3.594-.018c-.416 4.477-7.266 4.96-8.034.78-.574-3.122.662-3.84 3.558-3.76a10.218 10.218 0 013.021.657c1.306.44 1.513 1 1.455 2.323z" /><path fill-rule="evenodd" d="M10.049 83.008a.3644.3644 0 10.136-.716 1.633 1.633 0 00-1.716.787.36448.36448 0 00.631.365.907.907 0 01.113-.157 4.876 4.876 0 008.937 0 .92.92 0 01.114.156.36405.36405 0 00.63-.365 1.632 1.632 0 00-1.716-.785.364.364 0 10.135.715.969.969 0 01.172-.016 4.148 4.148 0 01-7.605 0 .925.925 0 01.17.016z" /><path fill="#fff" fill-rule="evenodd" d="M8.109 73.687a2.361 2.361 0 102.363 2.36 2.361 2.361 0 00-2.363-2.36z" /><path fill="#fff" fill-rule="evenodd" d="M19.245 73.681a2.362 2.362 0 102.363 2.36 2.362 2.362 0 00-2.363-2.36z" /><path fill-rule="evenodd" d="M8.133 74.839a1.211 1.211 0 00-1.152 1.579.765.765 0 011.263.835 1.21 1.21 0 001.008-1.664h-.047a.41.41 0 01-.41-.411.4.4 0 01.021-.131 1.2 1.2 0 00-.683-.211z" /><path fill="#313131" fill-rule="evenodd" d="M19.223 74.833a1.209 1.209 0 00-1.178 1.478.765.765 0 011.15.94h.03a1.21 1.21 0 001.1-1.7.411.411 0 01-.58-.374.416.416 0 01.05-.2 1.206 1.206 0 00-.575-.145z" /><path d="M2.787 63.472a8.245 8.245 0 001.833 1.194c-2.156-1.746-1.883-2.99-1.14-6.349.05-.225.1-.457.214-.987l.179-.857.414.777a.518.518 0 01.043.07c.181.258 1.11 1.319 4.464 1.693 2.015.224 3.783.429 5.071.6a10.862 10.862 0 012.407.454 17.71 17.71 0 011.532 1.47 1.364 1.364 0 00-.062-.433 6.8 6.8 0 00-1.002-1.83l-.39-.562.706.114a5.591 5.591 0 012.544.967 4.464 4.464 0 011.333 1.647 7.521 7.521 0 01.452 1.1 8.006 8.006 0 00.213-1.083l.087-.7.488.547a9.73 9.73 0 011.539 2.2 5.494 5.494 0 01.554 2.574v.029c-.067.486.73 2.089.79 3.907a19.425 19.425 0 01-.671 4.824l-2.388-5.14c0-.007-.871-.236-1.081-.637a5.691 5.691 0 00-1.338-1.485 2.565 2.565 0 00-1.312-.59 27.416 27.416 0 00-4.617.266h-.009l-.065.01-.063-.02c-.677-.186-1.479-.4-2.276-.591a15.48 15.48 0 00-2.251-.39 2.569 2.569 0 00-1.388.378 5.56 5.56 0 00-1.553 1.258c-.27.363-3.255 3.672-3.255 3.672s.641-1.124.456-1.426c-1-1.6-.892-3.244-1-6.455l-.023-.725z" /></g><g ><path fill="#ccc" fill-rule="evenodd" d="M52.055 96.312c-7.738 0-14.01.286-14.01.639s6.272.639 14.01.639 14.01-.286 14.01-.639-6.273-.639-14.01-.639z" /><path fill="#f8c81e" fill-rule="evenodd" stroke="#191405" stroke-miterlimit="10" d="M46.286 66.018a11.44 11.44 0 00-5.972 10.028l.007 8.4a11.442 11.442 0 0011.415 11.4h0a11.442 11.442 0 0011.4-11.415l-.007-8.4a11.442 11.442 0 00-11.415-11.4h0a11.351 11.351 0 00-2.3.236" /><path fill-rule="evenodd" d="M50.709 75.996c.065-1.875 1.96-1.876 2.028 0 .474 5.418 8.69 5.942 9.619.854.172-.943.408-2.612 1.577-2.795v-1.3c-2.026-.044-3.942-.665-5.947-.609-2.692.078-3.607 1.269-6.263 1.459-2.655-.187-3.572-1.377-6.264-1.451-2.006-.055-3.92.568-5.946.615v1.3c1.169.182 1.407 1.851 1.579 2.793.936 5.087 9.151 4.553 9.618-.865zm2.811-.042c-.06-1.348.145-1.9 1.451-2.345a10.228 10.228 0 013.02-.66c2.9-.084 4.134.634 3.562 3.756-.764 4.18-7.614 3.7-8.033-.751zm-3.594-.018c-.416 4.477-7.266 4.96-8.034.78-.574-3.122.662-3.84 3.558-3.76a10.218 10.218 0 013.021.657c1.306.44 1.513 1 1.455 2.323z" /><path fill-rule="evenodd" d="M48.094 83.008a.3644.3644 0 10.136-.716 1.633 1.633 0 00-1.716.787.36448.36448 0 00.631.365.907.907 0 01.113-.157 4.876 4.876 0 008.937 0 .92.92 0 01.114.156.36405.36405 0 00.63-.365 1.632 1.632 0 00-1.716-.785.364.364 0 10.135.715.969.969 0 01.172-.016 4.148 4.148 0 01-7.605 0 .925.925 0 01.17.016z" /><path fill="#fff" fill-rule="evenodd" d="M46.154 73.687a2.361 2.361 0 102.363 2.36 2.361 2.361 0 00-2.363-2.36z" /><path fill="#fff" fill-rule="evenodd" d="M57.29 73.681a2.362 2.362 0 102.363 2.36 2.362 2.362 0 00-2.363-2.36z" /><path fill-rule="evenodd" d="M46.178 74.839a1.211 1.211 0 00-1.152 1.579.765.765 0 011.263.835 1.21 1.21 0 001.008-1.664h-.047a.41.41 0 01-.41-.411.4.4 0 01.021-.131 1.2 1.2 0 00-.683-.211z" /><path fill="#313131" fill-rule="evenodd" d="M57.268 74.833a1.209 1.209 0 00-1.178 1.478.765.765 0 011.15.94h.03a1.21 1.21 0 001.1-1.7.411.411 0 01-.58-.374.416.416 0 01.05-.2 1.206 1.206 0 00-.575-.145z" /><path d="M40.832 63.472a8.245 8.245 0 001.833 1.194c-2.156-1.746-1.883-2.99-1.14-6.349.05-.225.1-.457.214-.987l.179-.857.414.777a.518.518 0 01.043.07c.181.258 1.11 1.319 4.464 1.693 2.015.224 3.783.429 5.071.6a10.862 10.862 0 012.407.454 17.71 17.71 0 011.532 1.47 1.364 1.364 0 00-.062-.433 6.8 6.8 0 00-1.002-1.83l-.39-.562.706.114a5.591 5.591 0 012.544.967 4.464 4.464 0 011.333 1.647 7.521 7.521 0 01.452 1.1 8.006 8.006 0 00.213-1.083l.087-.7.488.547a9.73 9.73 0 011.539 2.2 5.494 5.494 0 01.554 2.574v.029c-.067.486.73 2.089.79 3.907a19.425 19.425 0 01-.671 4.824l-2.388-5.14c0-.007-.871-.236-1.081-.637a5.691 5.691 0 00-1.338-1.485 2.565 2.565 0 00-1.312-.59 27.416 27.416 0 00-4.617.266h-.009l-.065.01-.063-.02c-.677-.186-1.479-.4-2.276-.591a15.48 15.48 0 00-2.251-.39 2.569 2.569 0 00-1.388.378 5.56 5.56 0 00-1.553 1.258c-.27.363-3.255 3.672-3.255 3.672s.641-1.124.456-1.426c-1-1.6-.892-3.244-1-6.455l-.023-.725z" /></g><g ><path fill="#ccc" fill-rule="evenodd" d="M90.1 96.312c-7.738 0-14.01.286-14.01.639s6.272.639 14.01.639 14.01-.286 14.01-.639-6.273-.639-14.01-.639z" /><path fill="#f8c81e" fill-rule="evenodd" stroke="#191405" stroke-miterlimit="10" d="M84.331 66.018a11.44 11.44 0 00-5.972 10.028l.007 8.4a11.442 11.442 0 0011.415 11.4h0a11.442 11.442 0 0011.4-11.415l-.007-8.4a11.442 11.442 0 00-11.415-11.4h0a11.351 11.351 0 00-2.3.236" /><path fill-rule="evenodd" d="M88.754 75.996c.065-1.875 1.96-1.876 2.028 0 .474 5.418 8.69 5.942 9.619.854.172-.943.408-2.612 1.577-2.795v-1.3c-2.026-.044-3.942-.665-5.947-.609-2.692.078-3.607 1.269-6.263 1.459-2.655-.187-3.572-1.377-6.264-1.451-2.006-.055-3.92.568-5.946.615v1.3c1.169.182 1.407 1.851 1.579 2.793.936 5.087 9.151 4.553 9.618-.865zm2.811-.042c-.06-1.348.145-1.9 1.451-2.345a10.228 10.228 0 013.02-.66c2.9-.084 4.134.634 3.562 3.756-.764 4.18-7.614 3.7-8.033-.751zm-3.594-.018c-.416 4.477-7.266 4.96-8.034.78-.574-3.122.662-3.84 3.558-3.76a10.218 10.218 0 013.021.657c1.306.44 1.513 1 1.455 2.323z" /><path fill-rule="evenodd" d="M86.139 83.008a.3644.3644 0 10.136-.716 1.633 1.633 0 00-1.716.787.36448.36448 0 00.631.365.907.907 0 01.113-.157 4.876 4.876 0 008.937 0 .92.92 0 01.114.156.36405.36405 0 00.63-.365 1.632 1.632 0 00-1.716-.785.364.364 0 10.135.715.969.969 0 01.172-.016 4.148 4.148 0 01-7.605 0 .925.925 0 01.17.016z" /><path fill="#fff" fill-rule="evenodd" d="M84.199 73.687a2.361 2.361 0 102.363 2.36 2.361 2.361 0 00-2.363-2.36z" /><path fill="#fff" fill-rule="evenodd" d="M95.335 73.681a2.362 2.362 0 102.363 2.36 2.362 2.362 0 00-2.363-2.36z" /><path fill-rule="evenodd" d="M84.223 74.839a1.211 1.211 0 00-1.152 1.579.765.765 0 011.263.835 1.21 1.21 0 001.008-1.664h-.047a.41.41 0 01-.41-.411.4.4 0 01.021-.131 1.2 1.2 0 00-.683-.211z" /><path fill="#313131" fill-rule="evenodd" d="M95.313 74.833a1.209 1.209 0 00-1.178 1.478.765.765 0 011.15.94h.03a1.21 1.21 0 001.1-1.7.411.411 0 01-.58-.374.416.416 0 01.05-.2 1.206 1.206 0 00-.575-.145z" /><path d="M78.877 63.472a8.245 8.245 0 001.833 1.194c-2.156-1.746-1.883-2.99-1.14-6.349.05-.225.1-.457.214-.987l.179-.857.414.777a.518.518 0 01.043.07c.181.258 1.11 1.319 4.464 1.693 2.015.224 3.783.429 5.071.6a10.862 10.862 0 012.407.454 17.71 17.71 0 011.532 1.47 1.364 1.364 0 00-.062-.433 6.8 6.8 0 00-1.002-1.83l-.39-.562.706.114a5.591 5.591 0 012.544.967 4.464 4.464 0 011.333 1.647 7.521 7.521 0 01.452 1.1 8.006 8.006 0 00.213-1.083l.087-.7.488.547a9.73 9.73 0 011.539 2.2 5.494 5.494 0 01.554 2.574v.029c-.067.486.73 2.089.79 3.907a19.425 19.425 0 01-.671 4.824l-2.388-5.14c0-.007-.871-.236-1.081-.637a5.691 5.691 0 00-1.338-1.485 2.565 2.565 0 00-1.312-.59 27.416 27.416 0 00-4.617.266h-.009l-.065.01-.063-.02c-.677-.186-1.479-.4-2.276-.591a15.48 15.48 0 00-2.251-.39 2.569 2.569 0 00-1.388.378 5.56 5.56 0 00-1.553 1.258c-.27.363-3.255 3.672-3.255 3.672s.641-1.124.456-1.426c-1-1.6-.892-3.244-1-6.455l-.023-.725z" /></g><g ><path fill="#ccc" fill-rule="evenodd" d="M50.639 39.838c-7.738 0-14.01.286-14.01.639s6.272.639 14.01.639 14.01-.286 14.01-.639-6.273-.639-14.01-.639z" /><path fill="#f8c81e" fill-rule="evenodd" stroke="#191405" stroke-miterlimit="10" d="M44.87 9.544a11.44 11.44 0 00-5.972 10.028l.007 8.4a11.442 11.442 0 0011.415 11.4h0a11.442 11.442 0 0011.4-11.415l-.007-8.4a11.442 11.442 0 00-11.415-11.4h0a11.351 11.351 0 00-2.3.236" /><path fill-rule="evenodd" d="M49.293 19.522c.065-1.875 1.96-1.876 2.028 0 .474 5.418 8.69 5.942 9.619.854.172-.943.408-2.612 1.577-2.795v-1.3c-2.026-.044-3.942-.665-5.947-.609-2.692.078-3.607 1.269-6.263 1.459-2.655-.187-3.572-1.377-6.264-1.451-2.006-.055-3.92.568-5.946.615v1.3c1.169.182 1.407 1.851 1.579 2.793.936 5.087 9.151 4.553 9.618-.865zm2.811-.042c-.06-1.348.145-1.9 1.451-2.345a10.228 10.228 0 013.02-.66c2.9-.084 4.134.634 3.562 3.756-.764 4.18-7.614 3.7-8.033-.751zm-3.594-.018c-.416 4.477-7.266 4.96-8.034.78-.574-3.122.662-3.84 3.558-3.76a10.218 10.218 0 013.021.657c1.306.44 1.513 1 1.455 2.323z" /><path fill-rule="evenodd" d="M46.678 26.534a.3644.3644 0 10.136-.716 1.633 1.633 0 00-1.716.787.36448.36448 0 00.631.365.907.907 0 01.113-.157 4.876 4.876 0 008.937 0 .92.92 0 01.114.156.36405.36405 0 00.63-.365 1.632 1.632 0 00-1.716-.785.364.364 0 10.135.715.969.969 0 01.172-.016 4.148 4.148 0 01-7.605 0 .925.925 0 01.17.016z" /><path fill="#fff" fill-rule="evenodd" d="M44.738 17.213a2.361 2.361 0 102.363 2.36 2.361 2.361 0 00-2.363-2.36z" /><path fill="#fff" fill-rule="evenodd" d="M55.874 17.207a2.362 2.362 0 102.363 2.36 2.362 2.362 0 00-2.363-2.36z" /><path fill-rule="evenodd" d="M44.762 18.365a1.211 1.211 0 00-1.152 1.579.765.765 0 011.263.835 1.21 1.21 0 001.008-1.664h-.047a.41.41 0 01-.41-.411.4.4 0 01.021-.131 1.2 1.2 0 00-.683-.211z" /><path fill="#313131" fill-rule="evenodd" d="M55.852 18.359a1.209 1.209 0 00-1.178 1.478.765.765 0 011.15.94h.03a1.21 1.21 0 001.1-1.7.411.411 0 01-.58-.374.416.416 0 01.05-.2 1.206 1.206 0 00-.575-.145z" /><path d="M39.416 6.998a8.245 8.245 0 001.833 1.194c-2.156-1.746-1.883-2.99-1.14-6.349.05-.225.1-.457.214-.987l.179-.857.414.777a.518.518 0 01.043.07c.181.258 1.11 1.319 4.464 1.693 2.015.224 3.783.429 5.071.6a10.862 10.862 0 012.407.454 17.71 17.71 0 011.532 1.47 1.364 1.364 0 00-.062-.433 6.8 6.8 0 00-1.002-1.83l-.39-.562.706.114a5.591 5.591 0 012.544.967 4.464 4.464 0 011.333 1.647 7.521 7.521 0 01.452 1.1 8.006 8.006 0 00.213-1.083l.087-.7.488.547a9.73 9.73 0 011.539 2.2 5.494 5.494 0 01.554 2.574v.029c-.067.486.73 2.089.79 3.907a19.425 19.425 0 01-.671 4.824l-2.388-5.14c0-.007-.871-.236-1.081-.637a5.691 5.691 0 00-1.338-1.485 2.565 2.565 0 00-1.312-.59 27.416 27.416 0 00-4.617.266h-.009l-.065.01-.063-.02c-.677-.186-1.479-.4-2.276-.591a15.48 15.48 0 00-2.251-.39 2.569 2.569 0 00-1.388.378 5.56 5.56 0 00-1.553 1.258c-.27.363-3.255 3.672-3.255 3.672s.641-1.124.456-1.426c-1-1.6-.892-3.244-1-6.455l-.023-.725z" /></g><g ><path fill="#ccc" fill-rule="evenodd" d="M14.01 39.838c-7.738 0-14.01.286-14.01.639s6.272.639 14.01.639 14.01-.286 14.01-.639-6.273-.639-14.01-.639z" /><path fill="#e5f2f8" fill-rule="evenodd" stroke="#acc7ea" stroke-miterlimit="10" d="M8.241 9.544a11.44 11.44 0 00-5.972 10.028l.007 8.4a11.442 11.442 0 0011.415 11.4h0a11.442 11.442 0 0011.4-11.415l-.007-8.4a11.442 11.442 0 00-11.415-11.4h0a11.351 11.351 0 00-2.3.236" /><path fill="#acc7ea" d="M2.787 6.998A8.245 8.245 0 004.62 8.192c-2.156-1.746-1.883-2.99-1.14-6.349.05-.225.1-.457.214-.987l.179-.857.414.777a.518.518 0 01.043.07c.181.258 1.11 1.319 4.464 1.693 2.015.224 3.783.429 5.071.6a10.862 10.862 0 012.407.454 17.71 17.71 0 011.532 1.47 1.364 1.364 0 00-.062-.433A6.8 6.8 0 0016.74 2.8l-.39-.562.706.114a5.591 5.591 0 012.544.967 4.464 4.464 0 011.333 1.647 7.521 7.521 0 01.452 1.1 8.006 8.006 0 00.213-1.083l.087-.7.488.547a9.73 9.73 0 011.539 2.2 5.494 5.494 0 01.554 2.574v.029c-.067.486.73 2.089.79 3.907a19.425 19.425 0 01-.671 4.824l-2.388-5.14c0-.007-.871-.236-1.081-.637a5.691 5.691 0 00-1.338-1.485 2.565 2.565 0 00-1.312-.59 27.416 27.416 0 00-4.617.266h-.009l-.065.01-.063-.02c-.677-.186-1.479-.4-2.276-.591a15.48 15.48 0 00-2.251-.39 2.569 2.569 0 00-1.388.378 5.56 5.56 0 00-1.553 1.258c-.27.363-3.255 3.672-3.255 3.672s.641-1.124.456-1.426c-1-1.6-.892-3.244-1-6.455l-.023-.725z" /><g fill="none" stroke="#acc7ea" stroke-linecap="round" stroke-linejoin="round" stroke-width="2"><path d="M14.011 19.068v10.646"/><path d="M8.688 24.391h10.646" /></g></g><g ><path fill="#ccc" fill-rule="evenodd" d="M90.1 39.838c-7.738 0-14.01.286-14.01.639s6.272.639 14.01.639 14.01-.286 14.01-.639-6.273-.639-14.01-.639z" /><path fill="#f8c81e" fill-rule="evenodd" stroke="#191405" stroke-miterlimit="10" d="M84.331 9.544a11.44 11.44 0 00-5.972 10.028l.007 8.4a11.442 11.442 0 0011.415 11.4h0a11.442 11.442 0 0011.4-11.415l-.007-8.4a11.442 11.442 0 00-11.415-11.4h0a11.351 11.351 0 00-2.3.236" /><path fill-rule="evenodd" d="M88.754 19.522c.065-1.875 1.96-1.876 2.028 0 .474 5.418 8.69 5.942 9.619.854.172-.943.408-2.612 1.577-2.795v-1.3c-2.026-.044-3.942-.665-5.947-.609-2.692.078-3.607 1.269-6.263 1.459-2.655-.187-3.572-1.377-6.264-1.451-2.006-.055-3.92.568-5.946.615v1.3c1.169.182 1.407 1.851 1.579 2.793.936 5.087 9.151 4.553 9.618-.865zm2.811-.042c-.06-1.348.145-1.9 1.451-2.345a10.228 10.228 0 013.02-.66c2.9-.084 4.134.634 3.562 3.756-.764 4.18-7.614 3.7-8.033-.751zm-3.594-.018c-.416 4.477-7.266 4.96-8.034.78-.574-3.122.662-3.84 3.558-3.76a10.218 10.218 0 013.021.657c1.306.44 1.513 1 1.455 2.323z" /><path fill-rule="evenodd" d="M86.139 26.534a.3644.3644 0 10.136-.716 1.633 1.633 0 00-1.716.787.36448.36448 0 00.631.365.907.907 0 01.113-.157 4.876 4.876 0 008.937 0 .92.92 0 01.114.156.36405.36405 0 00.63-.365 1.632 1.632 0 00-1.716-.785.364.364 0 10.135.715.969.969 0 01.172-.016 4.148 4.148 0 01-7.605 0 .925.925 0 01.17.016z" /><path fill="#fff" fill-rule="evenodd" d="M84.199 17.213a2.361 2.361 0 102.363 2.36 2.361 2.361 0 00-2.363-2.36z" /><path fill="#fff" fill-rule="evenodd" d="M95.335 17.207a2.362 2.362 0 102.363 2.36 2.362 2.362 0 00-2.363-2.36z" /><path fill-rule="evenodd" d="M84.223 18.365a1.211 1.211 0 00-1.152 1.579.765.765 0 011.263.835 1.21 1.21 0 001.008-1.664h-.047a.41.41 0 01-.41-.411.4.4 0 01.021-.131 1.2 1.2 0 00-.683-.211z" /><path fill="#313131" fill-rule="evenodd" d="M95.313 18.359a1.209 1.209 0 00-1.178 1.478.765.765 0 011.15.94h.03a1.21 1.21 0 001.1-1.7.411.411 0 01-.58-.374.416.416 0 01.05-.2 1.206 1.206 0 00-.575-.145z" /><path d="M78.877 6.998a8.245 8.245 0 001.833 1.194c-2.156-1.746-1.883-2.99-1.14-6.349.05-.225.1-.457.214-.987l.179-.857.414.777a.518.518 0 01.043.07c.181.258 1.11 1.319 4.464 1.693 2.015.224 3.783.429 5.071.6a10.862 10.862 0 012.407.454 17.71 17.71 0 011.532 1.47 1.364 1.364 0 00-.062-.433A6.8 6.8 0 0092.83 2.8l-.39-.562.706.114a5.591 5.591 0 012.544.967 4.464 4.464 0 011.333 1.647 7.521 7.521 0 01.452 1.1 8.006 8.006 0 00.213-1.083l.087-.7.488.547a9.73 9.73 0 011.539 2.2 5.494 5.494 0 01.554 2.574v.029c-.067.486.73 2.089.79 3.907a19.425 19.425 0 01-.671 4.824l-2.388-5.14c0-.007-.871-.236-1.081-.637a5.691 5.691 0 00-1.338-1.485 2.565 2.565 0 00-1.312-.59 27.416 27.416 0 00-4.617.266h-.009l-.065.01-.063-.02c-.677-.186-1.479-.4-2.276-.591a15.48 15.48 0 00-2.251-.39 2.569 2.569 0 00-1.388.378 5.56 5.56 0 00-1.553 1.258c-.27.363-3.255 3.672-3.255 3.672s.641-1.124.456-1.426c-1-1.6-.892-3.244-1-6.455l-.023-.725z" /></g></g></svg>
