<svg xmlns="http://www.w3.org/2000/svg" viewBox="0 0 115 112"><defs/><defs><clipPath id="a"><path fill="#fff" stroke="#707070" d="M0 0h115v104H0z" transform="translate(0 -.157)"/></clipPath><filter id="b" width="46" height="46" x="30" y="27" ><feOffset dy="3"/><feGaussianBlur result="blur" stdDeviation="3"/><feFlood flood-opacity=".314"/><feComposite in2="blur" operator="in"/><feComposite in="SourceGraphic"/></filter></defs><g clip-path="url(#a)"  transform="translate(0 8.157)"><g ><g ><path fill="#404040" d="M128.958-133.366a4.385 4.385 0 00-1.281.829 20.436 20.436 0 00-3.2 2.7 15.707 15.707 0 01-8.115 5.363 7.031 7.031 0 00-2.045.74 7.527 7.527 0 00-2.086 2.936c-2.58 4.675-8.131 7.254-13.468 7.117a10.193 10.193 0 00-4.26.324c-.507.215-.966.534-1.482.725a5.856 5.856 0 01-1.762.284 30.52 30.52 0 01-8.8-.859 8.854 8.854 0 00-3.677-.452 9.883 9.883 0 00-1.945.688 17.442 17.442 0 01-8.181 1.228 8.187 8.187 0 01-5.381-2.237 7.177 7.177 0 01-1.223-6.689 21.19 21.19 0 013.329-6.23l3.357-4.879a7.046 7.046 0 00.808-1.391 13.192 13.192 0 00.378-5.944c-.264-2.944-.5-6.054.779-8.719a19.2 19.2 0 011.464-2.377.629.629 0 00-.2-1.035c-2.807-2.215-6.242-3.663-9.29-5.532l-1.594-.977a1.64 1.64 0 01-.637-.567 1.615 1.615 0 01-.143-.591l-.65-5.77a4.906 4.906 0 01.087-2.2c.328-.917 1.211-1.8.84-2.7-.3-.723-1.353-1.207-1.113-1.952.145-.452.722-.637.914-1.071.309-.7-.577-1.363-1.339-1.42s-1.606.131-2.237-.3c-1.308-.892-.328-3.36-1.607-4.293a2.7 2.7 0 00-1.766-.307 3.222 3.222 0 00-1.612.381c-.666.437-.909 1.276-1.3 1.972s-1.206 1.341-1.921.989a1.608 1.608 0 01-.585-.577 13.7 13.7 0 01-1.312-3.122 5.781 5.781 0 00-1.8-2.817 2.45 2.45 0 00-3.111.033 3.1 3.1 0 01-.422.427c-.571.4-1.368-.02-2.042.151-.158.562.368 1.06.823 1.425s.943.929.7 1.46c-.458.568-1.657.023-1.971.681-.105.22-.045.5-.165.711a.681.681 0 01-.835.208 3.354 3.354 0 01-.769-.534 3.243 3.243 0 00-3.148-.4 1.17 1.17 0 01-.359-1.552 3.691 3.691 0 011.257-1.222 2.947 2.947 0 001.173-1.29.8.8 0 00.034-.513 1.078 1.078 0 00-.509-.512 3.187 3.187 0 01-1.118-.966 1.08 1.08 0 01.123-1.362c.7-.571 1.69.332 2.592.286a1.605 1.605 0 001.339-1.123 3.47 3.47 0 00.025-1.831c-.162-.791-.407-1.708.107-2.33.132-.161.306-.286.426-.456a.916.916 0 00-1.158-1.347c-.436.217-.761.789-1.236.682-.3-.068-.466-.387-.69-.6a1.748 1.748 0 00-2.1.051 357.573 357.573 0 01-20.948 38.868c-12.973 22.446-27.423 34.462-35.637 42.347a2.446 2.446 0 00-.63 2.524c4.446 13.656 9.316 27.215 12.7 41.169 1.065 4.392 2.5 8.684 3.94 12.969 2.72 8.113 7.464 15.4 9.832 23.622 1.788 6.206 6.128 11.426 7.99 17.61 1.166 3.871 1.321 8 2.589 11.839a19.094 19.094 0 011.188 4.186 13.148 13.148 0 01-.022 1.986q-.118 1.91-.235 3.821a11.078 11.078 0 00.088 3 3.8 3.8 0 001.041 1.843l3.5 3.566a2.786 2.786 0 01.984 1.645 2.83 2.83 0 01-.5 1.5c-1.437 2.582-2.717 5.49-2.214 8.4a4.161 4.161 0 00.786 1.923 6.147 6.147 0 002.036 1.424 49.737 49.737 0 014.356 2.575 5.575 5.575 0 011.56 1.359 5.954 5.954 0 01.755 1.879 316.115 316.115 0 0011.481 33.774l5.374 13.358a8.641 8.641 0 01.845 3.332c-.022 1.053-.429 2.073-.423 3.127.009 1.538.882 2.915 1.567 4.292 1.849 3.724 2.433 7.938 3.857 11.844 1.57 4.31 2.834 8.619 4.8 12.8q.609 1.427 1.217 2.855a25.832 25.832 0 012.184 6.315 38.894 38.894 0 01.027 4.6 7.442 7.442 0 001.159 4.38 14.285 14.285 0 011.551 1.976 5.643 5.643 0 01.4 2.383 10.1 10.1 0 01-.6 4.553c-.535 1.138-1.5 2.081-1.774 3.308-.316 1.4.332 2.829.358 4.264a9.561 9.561 0 00.07 3.112 4.861 4.861 0 001 1.47l4.391 5.015a1.057 1.057 0 00.767.473c.348-.019.575-.361.743-.665l3.188-5.734a1.907 1.907 0 01.474-.629c.57-.428 1.462-.129 2.034-.553a2.07 2.07 0 00.606-1.281 14.741 14.741 0 016.851-9.353 1.514 1.514 0 00.662-.575 1.444 1.444 0 00.094-.647c-.026-2.637.324-5.242 0-7.833a21.694 21.694 0 01.524-6.812l1.27-4.841a11.406 11.406 0 00.557-4.275c-.1-.816-.383-1.6-.443-2.425A8.049 8.049 0 0183 115.45a30.706 30.706 0 012.106-3.478 6.861 6.861 0 001.027-1.788 6.18 6.18 0 00.156-2.164c-.088-1.893-.124-3.665-.217-5.549a31.041 31.041 0 011.827-12 27.453 27.453 0 011-2.99 10.884 10.884 0 01.884-1.409c2.8-3.992 7.407-7.17 8.435-11.9a4.638 4.638 0 00-.053-2.058q-1.488-6.238-2.978-12.474c-.5-2.082-.975-4.366-.029-6.286.271-.549.648-1.04.907-1.595 1.145-2.447-.177-5.641 1.316-7.893a13.275 13.275 0 012.23-2.142 3.171 3.171 0 001.224-2.709 3.972 3.972 0 00-.6-1.312 61.338 61.338 0 01-4.04-7.9 3.488 3.488 0 01-.382-1.568 3.792 3.792 0 01.7-1.644 30.908 30.908 0 004.68-15.166 26.293 26.293 0 011.419-8.288 14 14 0 012.017-3.869c1.37-1.767 3.414-3.213 3.8-5.415.1-.551.081-1.118.18-1.668a8.536 8.536 0 011.406-2.961c1.674-2.638 3.23-5.51 3.361-8.633.076-1.812-.33-3.677.183-5.417a10.49 10.49 0 011.182-2.407 8.065 8.065 0 011.883-2.372 2.78 2.78 0 012.857-.432c.142-1.82.891-3.826.029-5.437a4.424 4.424 0 01.082-4.239 21.766 21.766 0 001.553-2.3 12.856 12.856 0 00.483-1.992 6.043 6.043 0 012.207-3.349 26.279 26.279 0 013.415-1.817 4.625 4.625 0 002.508-2.8 5.141 5.141 0 00-.242-2.528c-.628-2.177-1.584-4.388-1.2-6.621.471-2.723 2.78-4.682 4.337-6.965a18.582 18.582 0 002.844-10.638 11.872 11.872 0 00-.955-4.56 11.382 11.382 0 00-1.1-2.162l-4.187-5.934c-1.361-1.93-2.783-4.054-2.68-6.414.133-3.018 2.672-5.311 3.937-8.054.435-.944.72-1.95 1.114-2.911a27.528 27.528 0 012.3-4.161c1.433-2.272 2.944-4.464 4.378-6.735v-13.805l-7.844-.068a4.381 4.381 0 00-1.502.161z" /><path fill="#fff" d="M65.247 165.436a1.258 1.258 0 01-.86-.528l-4.391-5.016a5.019 5.019 0 01-1.027-1.522 4.958 4.958 0 01-.131-2.138 7.44 7.44 0 00-.169-2.689 4.912 4.912 0 01.91-4.733 10.154 10.154 0 00.742-1.248 10.009 10.009 0 00.585-4.48 5.552 5.552 0 00-.385-2.316 5.415 5.415 0 00-.908-1.208 9.506 9.506 0 01-.628-.744 7.493 7.493 0 01-1.19-4.478c0-.526.014-1.061.032-1.578a13.993 13.993 0 00-1.686-8c-.185-.429-.37-.856-.545-1.284l-1.215-2.855a89.177 89.177 0 01-3.486-9.051c-.423-1.231-.861-2.5-1.317-3.759-.569-1.56-1.01-3.191-1.437-4.769a38.118 38.118 0 00-2.414-7.059c-.113-.229-.232-.458-.352-.688a8.261 8.261 0 01-1.232-3.676 8.145 8.145 0 01.215-1.65 6.309 6.309 0 00-.626-4.749L38.359 71.86a316.482 316.482 0 01-11.487-33.792 5.871 5.871 0 00-.731-1.829 5.415 5.415 0 00-1.514-1.303 49.593 49.593 0 00-4.342-2.566l-.1-.05a6 6 0 01-1.99-1.415 4.252 4.252 0 01-.82-2c-.523-3.024.835-6 2.232-8.507a2.686 2.686 0 00.48-1.407 2.633 2.633 0 00-.938-1.542l-3.5-3.566a3.963 3.963 0 01-1.084-1.922 11.206 11.206 0 01-.091-3.047l.235-3.821a9.725 9.725 0 00-.818-5.135c-.116-.325-.232-.65-.339-.977a42.944 42.944 0 01-1.389-6.221 35.145 35.145 0 00-5.146-14.266 46.123 46.123 0 01-4.046-8.968 85.8 85.8 0 00-5.2-12.719 100.616 100.616 0 01-4.634-10.9c-1.414-4.216-2.876-8.577-3.944-12.982-2.635-10.873-6.234-21.683-9.714-32.137-.983-2.955-2-6.01-2.981-9.021a2.627 2.627 0 01.672-2.691c1.032-.99 2.17-2.054 3.374-3.179 8.323-7.775 20.9-19.525 32.235-39.132a353.711 353.711 0 0020.933-38.852l.019-.043.041-.026a2.488 2.488 0 011.3-.409 1.421 1.421 0 011 .376 2.717 2.717 0 01.2.224.864.864 0 00.411.336c.222.05.432-.129.658-.324a2.341 2.341 0 01.47-.345 1.133 1.133 0 011.3.262 1.1 1.1 0 01.064 1.323 1.958 1.958 0 01-.256.281 2.231 2.231 0 00-.177.184 2.4 2.4 0 00-.111 2.015l.038.181a3.674 3.674 0 01-.03 1.917 1.763 1.763 0 01-1.484 1.23h-.076a3.32 3.32 0 01-1.089-.257c-.533-.189-1.014-.324-1.333-.066a.929.929 0 00-.086 1.153 3.092 3.092 0 001.065.912 1.228 1.228 0 01.577.6.94.94 0 01-.036.617 3.1 3.1 0 01-1.231 1.367l-.057.041a3.412 3.412 0 00-1.15 1.123 1.216 1.216 0 00-.07.9.745.745 0 00.3.4 3.457 3.457 0 013.235.454c.066.05.13.1.194.155a2.073 2.073 0 00.536.357.545.545 0 00.637-.138.835.835 0 00.07-.306 1.172 1.172 0 01.09-.4c.2-.43.69-.45 1.119-.468.359-.015.7-.028.871-.244.2-.457-.4-1.015-.674-1.232-.5-.4-1.059-.95-.877-1.6l.025-.09.09-.023a2.894 2.894 0 01.948-.012 4.7 4.7 0 00.469.034.948.948 0 00.571-.149 1.548 1.548 0 00.266-.26c.043-.05.087-.1.132-.147a2.17 2.17 0 011.582-.622 3.006 3.006 0 011.741.571 6 6 0 011.861 2.893c.078.217.152.437.227.657a10.128 10.128 0 001.067 2.429 1.463 1.463 0 00.523.522.8.8 0 00.353.083 1.819 1.819 0 001.355-1.006c.1-.176.187-.361.275-.547a2.578 2.578 0 012.772-1.876c.165-.009.335-.017.5-.017a2.268 2.268 0 011.367.355 2.907 2.907 0 01.857 2.261c.078.834.151 1.623.747 2.03a2.043 2.043 0 001.2.265h.282c.229 0 .458-.007.679.009a1.9 1.9 0 011.411.805.885.885 0 01.065.841 1.63 1.63 0 01-.492.565 1.2 1.2 0 00-.416.491c-.118.363.171.67.505 1.026a2.841 2.841 0 01.6.814 2.3 2.3 0 01-.433 1.988 5.876 5.876 0 00-.4.827 4.811 4.811 0 00-.079 2.127l.65 5.77a1.5 1.5 0 00.125.533 1.522 1.522 0 00.579.5l1.592.976c1.1.676 2.277 1.308 3.414 1.92a40.136 40.136 0 015.891 3.623.78.78 0 01.233 1.252l-.189.279a16.612 16.612 0 00-1.264 2.078c-1.295 2.7-1 5.99-.764 8.634a13.3 13.3 0 01-.389 6.018 7.106 7.106 0 01-.825 1.423l-3.358 4.879a21 21 0 00-3.306 6.181c-.533 1.953-.5 4.7 1.186 6.537a7.9 7.9 0 005.277 2.185 17.41 17.41 0 008.1-1.217l.34-.143a7.932 7.932 0 011.637-.555 4.479 4.479 0 01.809-.071 10.585 10.585 0 012.564.432l.372.094a30.445 30.445 0 008.755.853 5.7 5.7 0 001.714-.275 6.323 6.323 0 00.8-.383c.218-.118.443-.239.677-.339a6.131 6.131 0 012.4-.4c.389 0 .783.018 1.174.036.251.011.5.023.751.029a3.076 3.076 0 00.4.005c5.491 0 10.563-2.764 12.923-7.039.106-.192.208-.389.311-.586a4.48 4.48 0 013.6-3.082l.321-.085a15.525 15.525 0 008.031-5.308 10.988 10.988 0 012.176-1.917c.354-.26.718-.529 1.053-.805a4.514 4.514 0 011.329-.857 3.879 3.879 0 011.329-.173l8.234.07v14.028l-.025.04c-.717 1.137-1.465 2.272-2.19 3.37s-1.472 2.23-2.187 3.365a27.383 27.383 0 00-2.287 4.136c-.165.4-.314.819-.456 1.222-.2.561-.406 1.142-.662 1.695a21.406 21.406 0 01-1.665 2.809c-1.118 1.685-2.173 3.277-2.257 5.185-.1 2.223 1.2 4.255 2.649 6.314l4.187 5.934a10.957 10.957 0 011.08 2.1l.04.1a11.961 11.961 0 01.968 4.623 18.929 18.929 0 01-2.871 10.731c-.459.673-.989 1.326-1.5 1.957-1.221 1.5-2.484 3.059-2.81 4.945a11.424 11.424 0 00.811 5.3c.132.418.264.836.385 1.252a5.3 5.3 0 01.244 2.609 4.845 4.845 0 01-2.589 2.9c-.4.22-.827.417-1.235.607a11.9 11.9 0 00-2.159 1.2 5.84 5.84 0 00-2.148 3.257c-.055.224-.1.451-.14.678a4.786 4.786 0 01-1.252 2.728 8.823 8.823 0 00-.661.929 4.257 4.257 0 00-.079 4.081 6.278 6.278 0 01.193 4.025c-.081.5-.166 1.013-.2 1.5l-.019.242-.216-.111a2.65 2.65 0 00-2.685.417 7.958 7.958 0 00-1.842 2.326 7.786 7.786 0 00-1.378 5.846c.031.624.063 1.268.036 1.9-.134 3.179-1.707 6.066-3.387 8.712l-.068.108a5.944 5.944 0 00-1.4 3.614 8.051 8.051 0 01-.092.849 8.288 8.288 0 01-2.53 4c-.447.478-.909.972-1.305 1.482a13.8 13.8 0 00-1.994 3.825 25.915 25.915 0 00-1.409 8.236 30.869 30.869 0 01-4.7 15.247l-.035.058a3.527 3.527 0 00-.637 1.514 3.286 3.286 0 00.37 1.493 61.265 61.265 0 004.028 7.875 4.083 4.083 0 01.619 1.367 3.383 3.383 0 01-1.273 2.855c-.238.223-.493.434-.74.639a5.3 5.3 0 00-2.227 5.532 8.86 8.86 0 01-.544 3.814 8.7 8.7 0 01-.482.857c-.148.24-.3.488-.425.741-.891 1.81-.489 3.954.041 6.177l2.979 12.474a4.777 4.777 0 01.053 2.129c-.69 3.175-2.994 5.687-5.223 8.116a39.118 39.118 0 00-3.236 3.844 7.964 7.964 0 00-1.515 3.22c-.107.378-.218.768-.352 1.14a30.755 30.755 0 00-1.818 11.938c.048.994.082 1.955.115 2.921.03.866.06 1.734.1 2.63a4.781 4.781 0 01-1.11 3.907l-.1.144a30.6 30.6 0 00-2.1 3.46 7.944 7.944 0 00-1.144 4.1 9.108 9.108 0 00.231 1.318c.081.358.164.726.211 1.1a11.649 11.649 0 01-.56 4.338l-1.271 4.841a21.463 21.463 0 00-.52 6.75 30.584 30.584 0 01.067 5.025c-.039.925-.079 1.882-.069 2.827a1.6 1.6 0 01-.11.719 1.629 1.629 0 01-.712.636 14.645 14.645 0 00-6.788 9.256 2.192 2.192 0 01-.668 1.376 2.06 2.06 0 01-1.1.305 1.787 1.787 0 00-.935.247 1.769 1.769 0 00-.431.577l-3.187 5.735c-.2.357-.458.726-.877.748zm-31.26-357.344a354.07 354.07 0 01-20.93 38.84c-11.354 19.645-23.953 31.415-32.291 39.2-1.2 1.126-2.341 2.188-3.372 3.177a2.3 2.3 0 00-.588 2.358c.979 3.008 2 6.064 2.98 9.018 3.482 10.46 7.084 21.276 9.722 32.163 1.065 4.391 2.524 8.745 3.936 12.956a100.606 100.606 0 004.619 10.86 86.058 86.058 0 015.215 12.768 45.871 45.871 0 004.02 8.9 35.438 35.438 0 015.181 14.366 42.751 42.751 0 001.376 6.175c.107.324.222.646.337.969a13.409 13.409 0 01.858 3.253 13.266 13.266 0 01-.022 2.01l-.235 3.821a10.951 10.951 0 00.085 2.959 3.647 3.647 0 001 1.764l3.5 3.566a2.878 2.878 0 011.03 1.748 2.968 2.968 0 01-.52 1.584c-1.37 2.46-2.7 5.37-2.2 8.294a3.945 3.945 0 00.752 1.849 5.77 5.77 0 001.889 1.332l.1.05a50.194 50.194 0 014.371 2.583 5.664 5.664 0 011.6 1.4 6.1 6.1 0 01.778 1.93 316.316 316.316 0 0011.475 33.756l5.374 13.358a6.609 6.609 0 01.642 4.934 7.937 7.937 0 00-.208 1.584 8.023 8.023 0 001.195 3.529c.12.232.241.462.356.694a38.462 38.462 0 012.436 7.119c.425 1.571.864 3.2 1.428 4.741.458 1.257.9 2.532 1.32 3.765a89.059 89.059 0 003.475 9.024l1.219 2.862c.175.427.359.853.544 1.281a14.3 14.3 0 011.712 8.134c-.018.513-.036 1.045-.032 1.565a7.1 7.1 0 001.128 4.285 9.288 9.288 0 00.606.719 5.719 5.719 0 01.958 1.281 5.784 5.784 0 01.419 2.451 10.252 10.252 0 01-.616 4.625 10.4 10.4 0 01-.764 1.289 4.6 4.6 0 00-.863 4.493 7.754 7.754 0 01.174 2.777 4.635 4.635 0 00.113 2 4.693 4.693 0 00.966 1.42l4.391 5.016c.178.2.386.418.617.418v.162l.02-.162c.261-.014.455-.3.61-.581l3.188-5.735a2.027 2.027 0 01.52-.679 2.048 2.048 0 011.1-.31 1.8 1.8 0 00.933-.244 1.888 1.888 0 00.537-1.155 14.983 14.983 0 016.934-9.488 1.4 1.4 0 00.6-.506 1.324 1.324 0 00.078-.574c-.01-.954.031-1.915.07-2.845a30.335 30.335 0 00-.066-4.97 21.853 21.853 0 01.529-6.873l1.27-4.842a11.379 11.379 0 00.553-4.214c-.045-.357-.127-.717-.206-1.067a9.409 9.409 0 01-.239-1.366 8.232 8.232 0 011.18-4.278 30.885 30.885 0 012.118-3.5l.1-.145a6.11 6.11 0 00.9-1.6 6.032 6.032 0 00.148-2.107c-.041-.9-.072-1.767-.1-2.634-.034-.964-.067-1.924-.115-2.915a31.07 31.07 0 011.836-12.063c.131-.363.239-.748.346-1.12a8.28 8.28 0 011.559-3.316 39.221 39.221 0 013.263-3.877c2.2-2.4 4.475-4.877 5.146-7.967a4.455 4.455 0 00-.052-1.987l-2.976-12.463c-.545-2.281-.956-4.488-.017-6.394.132-.267.288-.521.44-.767a8.2 8.2 0 00.465-.824 8.626 8.626 0 00.513-3.677 5.607 5.607 0 012.344-5.782c.243-.2.495-.41.725-.626a3.084 3.084 0 001.176-2.561 3.791 3.791 0 00-.564-1.235 61.807 61.807 0 01-4.064-7.939 3.593 3.593 0 01-.394-1.642 3.773 3.773 0 01.683-1.661l.036-.057a30.548 30.548 0 004.657-15.083 26.261 26.261 0 011.428-8.339 14.145 14.145 0 012.043-3.913c.4-.522.873-1.021 1.325-1.5 1.121-1.2 2.18-2.327 2.447-3.839a8.082 8.082 0 00.088-.816 7.939 7.939 0 01.092-.853 8.316 8.316 0 011.359-2.91l.069-.108c1.655-2.608 3.206-5.45 3.336-8.554.026-.617-.005-1.254-.036-1.87a8.084 8.084 0 011.424-6.029 8.183 8.183 0 011.924-2.417 3.055 3.055 0 012.813-.543c.045-.431.117-.873.187-1.3a6.04 6.04 0 00-.16-3.819 4.593 4.593 0 01.085-4.4 8.942 8.942 0 01.687-.964 4.495 4.495 0 001.188-2.588c.043-.233.087-.467.143-.7a6.17 6.17 0 012.268-3.438 12.152 12.152 0 012.217-1.231c.4-.189.823-.385 1.218-.6a4.534 4.534 0 002.427-2.689 5.007 5.007 0 00-.238-2.448c-.119-.414-.251-.828-.382-1.244a11.659 11.659 0 01-.821-5.449c.339-1.969 1.63-3.557 2.877-5.093.508-.626 1.034-1.274 1.486-1.936a18.614 18.614 0 002.815-10.546 11.642 11.642 0 00-.942-4.5l-.041-.1a10.734 10.734 0 00-1.046-2.036l-4.18-5.928c-1.486-2.105-2.811-4.189-2.708-6.514.087-2 1.218-3.7 2.31-5.349a21.211 21.211 0 001.641-2.766c.249-.54.453-1.114.65-1.668.145-.407.295-.829.462-1.237a27.646 27.646 0 012.313-4.186c.717-1.137 1.465-2.273 2.191-3.37s1.454-2.2 2.162-3.325v-13.619l-7.911-.069a3.606 3.606 0 00-1.222.154 4.232 4.232 0 00-1.231.8c-.341.283-.71.555-1.067.817a10.74 10.74 0 00-2.114 1.858 15.858 15.858 0 01-8.2 5.419l-.324.086a4.176 4.176 0 00-3.392 2.918c-.1.2-.208.4-.315.593-2.415 4.377-7.6 7.206-13.205 7.206-.134-.011-.272 0-.409-.005-.251-.007-.5-.018-.758-.03-.387-.017-.774-.035-1.159-.035a5.679 5.679 0 00-2.276.376c-.22.094-.439.211-.65.324a6.524 6.524 0 01-.838.4 6.009 6.009 0 01-1.811.295 30.7 30.7 0 01-8.848-.864l-.374-.094a10.318 10.318 0 00-2.484-.422 4.142 4.142 0 00-.751.066 7.627 7.627 0 00-1.57.535l-.343.144a17.776 17.776 0 01-8.257 1.24 8.2 8.2 0 01-5.486-2.288 7.319 7.319 0 01-1.26-6.84 21.219 21.219 0 013.352-6.279l3.358-4.879a6.858 6.858 0 00.79-1.358 13.053 13.053 0 00.368-5.871c-.24-2.683-.539-6.023.795-8.8a16.771 16.771 0 011.288-2.12l.188-.277a.7.7 0 00.165-.388c-.009-.164-.175-.308-.329-.429a39.869 39.869 0 00-5.844-3.592c-1.141-.613-2.32-1.249-3.43-1.929l-1.592-.976a1.791 1.791 0 01-.695-.628 1.76 1.76 0 01-.161-.649l-.65-5.77a5.053 5.053 0 01.1-2.272 6.126 6.126 0 01.426-.875c.33-.6.643-1.162.418-1.708a2.6 2.6 0 00-.54-.716c-.37-.394-.754-.8-.578-1.346a1.456 1.456 0 01.516-.639 1.374 1.374 0 00.4-.448.567.567 0 00-.047-.544 1.579 1.579 0 00-1.157-.65c-.212-.016-.432-.013-.649-.008a2.768 2.768 0 01-1.667-.318 2.82 2.82 0 01-.886-2.267c-.077-.827-.149-1.609-.726-2.029a1.909 1.909 0 00-1.176-.293c-.162 0-.326.008-.485.017a3.141 3.141 0 00-1.533.356 3.087 3.087 0 00-.959 1.35c-.092.192-.184.383-.285.565a2.112 2.112 0 01-1.637 1.172 1.113 1.113 0 01-.5-.116 1.778 1.778 0 01-.648-.631 10.366 10.366 0 01-1.1-2.507c-.074-.218-.147-.436-.225-.652a5.712 5.712 0 00-1.748-2.742 2.672 2.672 0 00-1.549-.508 1.853 1.853 0 00-1.35.524c-.042.043-.081.089-.122.134a1.78 1.78 0 01-.325.313 1.268 1.268 0 01-.756.206 4.868 4.868 0 01-.5-.035 3.033 3.033 0 00-.737-.016c-.049.43.389.844.787 1.162.709.568.974 1.155.745 1.654a1.383 1.383 0 01-1.131.4c-.447.019-.727.047-.84.285a.9.9 0 00-.061.29 1.077 1.077 0 01-.11.431.742.742 0 01-.668.348 1.019 1.019 0 01-.367-.069 2.333 2.333 0 01-.624-.408c-.061-.05-.122-.1-.184-.148a3.126 3.126 0 00-2.988-.382l-.068.028-.066-.033a1.035 1.035 0 01-.52-.622 1.548 1.548 0 01.089-1.147 3.647 3.647 0 011.251-1.241l.056-.04a2.808 2.808 0 001.116-1.213.635.635 0 00.032-.408.942.942 0 00-.441-.425 3.334 3.334 0 01-1.171-1.02 1.24 1.24 0 01.159-1.571 1 1 0 01.655-.226 3.1 3.1 0 01.99.239 3.1 3.1 0 00.981.238h.06a1.447 1.447 0 001.195-1.014 3.384 3.384 0 00.019-1.746l-.038-.18a2.649 2.649 0 01.178-2.286 2.492 2.492 0 01.2-.211 1.685 1.685 0 00.216-.235.783.783 0 00-.045-.926.8.8 0 00-.909-.184 2.093 2.093 0 00-.4.3.885.885 0 01-1.529-.047 2.28 2.28 0 00-.178-.2 1.092 1.092 0 00-.782-.287 2.147 2.147 0 00-1.093.328z" /></g><g ><path fill="#404040" d="M138.323-274.382a13.971 13.971 0 01-2.388.579c-1.93.039-3.24-1.994-3.68-3.874-.5-2.116-.4-4.326-.758-6.47s-1.285-4.371-3.176-5.443c-3.449-1.955-7.74.879-11.67.352a10.856 10.856 0 01-5.745-3.156c-1.68-1.573-3.716-3.543-5.905-2.835-1.612.521-2.407 2.268-3.336 3.684a12.307 12.307 0 01-5.376 4.513c-2.08.9-4.386 1.206-6.42 2.2s-2.992 3.356-3.48 5.568q-.978 4.429-1.956 8.859a4.881 4.881 0 01-.668 1.822 7.312 7.312 0 01-2.545 1.722 7.539 7.539 0 00-3.7 6.4c0 2.358 1.118 4.736.478 7.005a7.5 7.5 0 01-1.608 2.736 43.5 43.5 0 00-3.641 4.233 5.735 5.735 0 00-.8 5.3 14.645 14.645 0 001.478 2.193 16.27 16.27 0 011.944 4.624c.608 2.034 1.167 4.307.22 6.208-.522 1.048-1.491 1.958-1.49 3.129s.969 2.078 1.795 2.91 1.99 2.322 1.583 3.421a3.279 3.279 0 01.191 2.95c-.248.57-.659 1.062-.865 1.648-.444 1.262.139 2.69-.2 3.985a9.844 9.844 0 01-1.073 2.1 7.211 7.211 0 001.96 8.908c1.069.8 2.425 1.354 3.026 2.544a5.418 5.418 0 01-.045 3.745 2.56 2.56 0 01-.873 1.61 2.616 2.616 0 01-1.465.268 7.935 7.935 0 00-4.359.875 4.483 4.483 0 00-.492 6.858c1.632 1.4 4.032 1.375 6.153 1.032 2.165-.35 4.444-1.053 5.786-2.788.475-.614.885-1.39 1.635-1.59a2.61 2.61 0 011.974.573c3.657 2.319 7.371 5.394 11.688 5.051 1.432-.114 2.982-.592 4.231.119 1.3.74 1.661 2.441 1.705 3.937.065 2.215-.4 4.679-2.177 6.009-2.427 1.819-5.914.646-8.858 1.378a10.46 10.46 0 00-3.507 1.767 21.894 21.894 0 00-4.775 4.694 7.778 7.778 0 01-1.856 2.038 9.637 9.637 0 01-2.543.9c-4.022 1.2-6.9 4.647-9.522 7.922l-.973 1.214a.5.5 0 01.1.263.83.83 0 01-.192.487 19.217 19.217 0 00-1.464 2.377c-1.278 2.665-1.043 5.775-.779 8.719a13.192 13.192 0 01-.378 5.945 7.044 7.044 0 01-.808 1.39l-3.358 4.879a21.187 21.187 0 00-3.329 6.23 7.177 7.177 0 001.223 6.689 8.187 8.187 0 005.381 2.237 17.441 17.441 0 008.181-1.228 9.872 9.872 0 011.945-.688 8.852 8.852 0 013.677.452 30.515 30.515 0 008.8.858 5.85 5.85 0 001.762-.284c.516-.191.975-.51 1.482-.725a10.194 10.194 0 014.26-.324c5.338.137 10.888-2.442 13.468-7.117a7.529 7.529 0 012.086-2.936 7.03 7.03 0 012.045-.74 15.706 15.706 0 008.115-5.363 20.436 20.436 0 013.205-2.7 3.278 3.278 0 012.784-.991l7.844.068v-9.882c-.582-3.137.222-6.353 1.107-9.417a139.046 139.046 0 015.583-15.792 27.829 27.829 0 012.091-4.169 4.716 4.716 0 00.744-1.465c.173-.78-.114-1.617 0-2.35a5.493 5.493 0 00-.472-3.15 6.6 6.6 0 01-.48-4.07c.25-1.225.82-2.605.1-3.626-.177-.25-.431-.476-.457-.781-.029-.34.235-.624.411-.917a2.029 2.029 0 00-1.361-2.9 1.315 1.315 0 01-.651-.178.949.949 0 01-.261-.446 18.731 18.731 0 01-1.006-4.571 3.236 3.236 0 01.145-1.6 4.811 4.811 0 011.2-1.381 6.883 6.883 0 00.853-8.534c-.445-.651-1.037-1.335-.91-2.113a3.278 3.278 0 01.807-1.357 1.543 1.543 0 00.381-1.473c-.186-.429-.667-.63-1.022-.932-1.022-.87-.785-2.435-.832-3.776a10.634 10.634 0 01.7-5.233 4 4 0 00.378-.839 8.353 8.353 0 00.074-1.105c.147-1.373 1.469-2.265 2.236-3.413 1.873-2.8.249-6.734 1.486-9.87.354-.9.933-1.7 1.227-2.616 1.044-3.267-1.771-6.859-.7-10.116.271-.822.785-1.689.459-2.491-.27-.662-1.07-1.1-1.063-1.818a2.543 2.543 0 01.292-.9 6.4 6.4 0 00.145-2.918 3.644 3.644 0 01-.841-1.076c-.422-.973.064-2.077.511-3.038s.856-2.126.308-3.034c-.245-.407-.659-.707-.827-1.151a2.364 2.364 0 01-.084-.951l.095-2.019a9.248 9.248 0 01-1.749-.343c-2.955-.92-5.542-3.722-8.589-3.114z" /><path fill="#fff" d="M70.228-111.509c-.529 0-1.064-.025-1.588-.072a8.2 8.2 0 01-5.486-2.288 7.318 7.318 0 01-1.26-6.841 21.214 21.214 0 013.352-6.279l3.358-4.879a6.891 6.891 0 00.79-1.358 13.054 13.054 0 00.368-5.871c-.24-2.683-.538-6.023.795-8.8a16.763 16.763 0 011.288-2.12l.187-.277a.7.7 0 00.165-.388.348.348 0 00-.075-.178l-.07-.1 1.049-1.309c2.4-2.994 5.386-6.72 9.6-7.976.209-.062.42-.118.632-.174a4.8 4.8 0 003.476-2.424l.208-.281a21.989 21.989 0 014.8-4.719 10.5 10.5 0 013.563-1.793 13.438 13.438 0 013.221-.283h.81c1.829 0 3.45-.08 4.768-1.069 1.946-1.458 2.159-4.306 2.113-5.874-.058-1.942-.6-3.221-1.624-3.8a3.06 3.06 0 00-1.569-.361 11.7 11.7 0 00-1.549.142c-.336.045-.684.092-1.021.12-.225.018-.454.027-.681.027-3.41 0-6.439-2.015-9.369-3.964-.582-.387-1.16-.772-1.738-1.138a3.051 3.051 0 00-1.521-.595 1.257 1.257 0 00-.324.042 2.6 2.6 0 00-1.274 1.157c-.091.127-.182.254-.275.374-1.144 1.48-3.016 2.385-5.888 2.849a13.971 13.971 0 01-2.237.2 6.046 6.046 0 01-4.048-1.266 4.645 4.645 0 01.511-7.117 7.693 7.693 0 014.2-.9h.417a2.22 2.22 0 001.206-.248 2.4 2.4 0 00.8-1.515 5.238 5.238 0 00.058-3.632 5.184 5.184 0 00-2.038-1.853c-.314-.2-.638-.407-.938-.63a7.361 7.361 0 01-2.005-9.116c.111-.2.232-.405.354-.606a5.56 5.56 0 00.7-1.458 5.753 5.753 0 00.063-1.842 4.005 4.005 0 01.624-3.106 6.494 6.494 0 00.386-.709 3.107 3.107 0 00-.182-2.8l-.04-.067.027-.073c.425-1.145-1.076-2.778-1.546-3.251l-.131-.131c-.8-.8-1.71-1.715-1.711-2.892a4.168 4.168 0 01.924-2.242 9.2 9.2 0 00.583-.96c.917-1.84.389-4.016-.231-6.089a16.009 16.009 0 00-1.922-4.579c-.157-.229-.326-.451-.495-.672a7.98 7.98 0 01-1-1.546 5.848 5.848 0 01.814-5.455 20.105 20.105 0 012.336-2.8c.441-.469.9-.953 1.318-1.449a7.435 7.435 0 001.575-2.675 9.112 9.112 0 00-.141-4.166 15.507 15.507 0 01-.343-2.8 7.671 7.671 0 013.781-6.541c.222-.127.453-.246.684-.365a4.719 4.719 0 001.81-1.311 4.785 4.785 0 00.642-1.763l1.956-8.859c.645-2.924 1.846-4.835 3.566-5.679a20.982 20.982 0 013.482-1.224 24.5 24.5 0 002.946-.982 12.193 12.193 0 005.3-4.454c.164-.25.324-.509.485-.771.763-1.244 1.553-2.53 2.937-2.977a3.2 3.2 0 01.986-.156c1.848 0 3.5 1.551 4.966 2.921l.114.107a10.547 10.547 0 005.655 3.113 7.713 7.713 0 001.021.065 19.3 19.3 0 003.93-.564 18.914 18.914 0 013.824-.552 5.83 5.83 0 012.953.719c2.247 1.273 3 4.028 3.256 5.557.153.931.225 1.887.293 2.811a23.922 23.922 0 00.462 3.648c.438 1.867 1.679 3.751 3.468 3.751h.051a4.963 4.963 0 001.423-.313 8.679 8.679 0 01.938-.263 4.615 4.615 0 01.9-.089 9.959 9.959 0 014.683 1.722 16.281 16.281 0 003.1 1.482 9.169 9.169 0 001.719.337l.151.016-.1 2.171a2.228 2.228 0 00.074.886 2.191 2.191 0 00.438.635 3.6 3.6 0 01.377.49c.591.982.151 2.219-.3 3.186-.387.831-.917 1.969-.51 2.906a3.5 3.5 0 00.806 1.027l.041.041.013.129a6.335 6.335 0 01-.163 2.924c-.028.069-.059.138-.09.207a1.635 1.635 0 00-.191.631 1.6 1.6 0 00.52.977 2.98 2.98 0 01.531.779 2.781 2.781 0 01-.258 2.069c-.069.178-.139.357-.2.533-.523 1.59-.081 3.314.346 4.981.436 1.7.887 3.461.353 5.133a9.175 9.175 0 01-.679 1.488 11.253 11.253 0 00-.551 1.138 11.792 11.792 0 00-.5 4.481c.027 1.886.056 3.836-1 5.42a10.361 10.361 0 01-.887 1.091 3.175 3.175 0 00-1.34 2.673 3.026 3.026 0 01-.06.7 3.079 3.079 0 01-.3.7l-.09.171a10.524 10.524 0 00-.683 5.155c.009.249.008.506.007.765 0 1.1-.008 2.233.769 2.894.1.088.219.167.332.247a1.861 1.861 0 01.732.744 1.686 1.686 0 01-.4 1.635c-.058.075-.118.151-.178.226a2.409 2.409 0 00-.6 1.059 2.508 2.508 0 00.695 1.725c.065.091.128.181.189.27a7.08 7.08 0 01-.873 8.74c-.091.089-.186.176-.279.262a3.4 3.4 0 00-.889 1.068 3.11 3.11 0 00-.132 1.52 18.571 18.571 0 001 4.531.833.833 0 00.211.374.863.863 0 00.434.127c.047.006.094.011.14.018a2.191 2.191 0 011.476 3.144c-.041.067-.086.134-.131.2a.721.721 0 00.023 1.128c.051.064.1.127.147.192.627.887.355 1.985.093 3.046-.06.239-.118.475-.165.705a6.426 6.426 0 00.468 3.97 5.694 5.694 0 01.485 3.243 4.246 4.246 0 00.014 1.03 3.246 3.246 0 01-.685 2.694l-.1.152a27.911 27.911 0 00-2.079 4.146 139.629 139.629 0 00-5.576 15.773c-.874 3.026-1.679 6.24-1.1 9.342v10.075l-8.235-.07a3.6 3.6 0 00-1.221.154 4.231 4.231 0 00-1.231.8c-.341.283-.71.555-1.067.817a10.739 10.739 0 00-2.115 1.858 15.857 15.857 0 01-8.2 5.419l-.324.085a4.176 4.176 0 00-3.392 2.919c-.1.2-.209.4-.316.593-2.474 4.484-7.863 7.339-13.614 7.2-.251-.006-.5-.018-.758-.03-.387-.017-.774-.035-1.159-.035a5.679 5.679 0 00-2.276.376c-.22.094-.438.211-.65.324a6.531 6.531 0 01-.838.4 6.01 6.01 0 01-1.811.295 30.7 30.7 0 01-8.848-.864l-.374-.094a10.325 10.325 0 00-2.484-.422 4.134 4.134 0 00-.751.066 7.6 7.6 0 00-1.569.535l-.344.144a17.714 17.714 0 01-6.649 1.322zm2.223-39.436a.6.6 0 01.069.241.988.988 0 01-.219.586l-.189.279a16.616 16.616 0 00-1.264 2.078c-1.295 2.7-1 5.99-.764 8.634a13.3 13.3 0 01-.389 6.018 7.081 7.081 0 01-.825 1.423l-3.358 4.879a21 21 0 00-3.306 6.18c-.533 1.954-.5 4.7 1.186 6.537a7.9 7.9 0 005.277 2.185 17.41 17.41 0 008.1-1.217l.341-.143a7.912 7.912 0 011.637-.555 4.478 4.478 0 01.809-.071 10.584 10.584 0 012.564.432l.372.094a30.309 30.309 0 008.755.853 5.7 5.7 0 001.714-.275 6.315 6.315 0 00.8-.383c.218-.118.443-.239.677-.339a5.973 5.973 0 012.4-.4c.389 0 .783.017 1.174.036.251.011.5.023.751.029.133 0 .267.005.4.005 5.491 0 10.563-2.763 12.923-7.039.106-.192.208-.389.311-.586a4.48 4.48 0 013.6-3.082l.321-.085a15.526 15.526 0 008.031-5.308 10.99 10.99 0 012.176-1.917c.354-.26.718-.529 1.053-.805a4.529 4.529 0 011.329-.857 3.878 3.878 0 011.328-.173l7.912.069v-9.718c-.586-3.142.229-6.4 1.114-9.461a139.988 139.988 0 015.588-15.81 28.3 28.3 0 012.1-4.194l.1-.153a2.949 2.949 0 00.635-2.49 4.562 4.562 0 01-.012-1.11 5.362 5.362 0 00-.458-3.056 6.747 6.747 0 01-.492-4.171c.048-.235.107-.476.168-.719.244-.991.5-2.016-.043-2.782-.042-.059-.089-.118-.136-.176a1.02 1.02 0 01-.038-1.511c.041-.063.083-.125.121-.188a1.868 1.868 0 00-1.248-2.657c-.043-.007-.086-.012-.13-.017a1.138 1.138 0 01-.6-.2 1.118 1.118 0 01-.311-.518 18.872 18.872 0 01-1.015-4.61 3.381 3.381 0 01.159-1.68 3.677 3.677 0 01.965-1.175c.093-.085.185-.17.274-.257a6.746 6.746 0 00.832-8.327c-.06-.088-.124-.176-.186-.265a2.778 2.778 0 01-.75-1.965 2.687 2.687 0 01.665-1.208c.059-.074.118-.147.174-.22a1.438 1.438 0 00.361-1.31 1.6 1.6 0 00-.619-.607c-.123-.085-.247-.171-.359-.266-.891-.758-.887-1.97-.882-3.142 0-.255 0-.507-.007-.752a10.764 10.764 0 01.718-5.312l.092-.177a2.742 2.742 0 00.272-.628 2.682 2.682 0 00.052-.628c0-.152 0-.3.019-.455a4.545 4.545 0 011.4-2.43 10.117 10.117 0 00.859-1.056c1-1.5.975-3.314.948-5.236a12.036 12.036 0 01.522-4.6 11.511 11.511 0 01.566-1.171 8.931 8.931 0 00.657-1.436c.506-1.583.067-3.3-.358-4.954-.439-1.712-.893-3.484-.34-5.162.059-.182.131-.365.2-.549a2.516 2.516 0 00.26-1.83 2.736 2.736 0 00-.478-.69 1.86 1.86 0 01-.6-1.19 1.9 1.9 0 01.219-.76c.029-.065.059-.131.085-.2a6.1 6.1 0 00.14-2.77v-.014a3.653 3.653 0 01-.834-1.086c-.465-1.07.1-2.284.513-3.171s.829-2.031.316-2.882a3.269 3.269 0 00-.344-.444 1.92 1.92 0 01-.59-1.749l.089-1.868a9.171 9.171 0 01-1.628-.332 16.576 16.576 0 01-3.163-1.509 9.579 9.579 0 00-4.523-1.68 4.292 4.292 0 00-.839.083 8.256 8.256 0 00-.9.253 5.3 5.3 0 01-1.515.328h-.058c-1.966 0-3.317-2.009-3.782-4a24.082 24.082 0 01-.47-3.7c-.068-.917-.14-1.865-.291-2.782-.242-1.473-.966-4.122-3.1-5.329a5.528 5.528 0 00-2.795-.676 18.38 18.38 0 00-3.757.545 19.507 19.507 0 01-4 .571 8.02 8.02 0 01-1.063-.069 10.844 10.844 0 01-5.833-3.2l-.114-.107c-1.418-1.328-3.025-2.833-4.745-2.833a2.878 2.878 0 00-.886.14c-1.27.411-2.029 1.645-2.762 2.839-.163.265-.324.527-.489.78a12.518 12.518 0 01-5.447 4.573 24.633 24.633 0 01-2.984 1 20.7 20.7 0 00-3.429 1.2c-1.629.8-2.77 2.634-3.394 5.458l-1.956 8.859a3.811 3.811 0 01-2.619 3.293c-.227.116-.453.232-.67.357a7.342 7.342 0 00-3.619 6.261 15.263 15.263 0 00.337 2.736 9.494 9.494 0 01.134 4.312 7.728 7.728 0 01-1.64 2.8c-.426.5-.885.99-1.33 1.462a19.857 19.857 0 00-2.3 2.755 5.533 5.533 0 00-.791 5.147 7.75 7.75 0 00.96 1.482c.172.226.344.452.5.685a16.256 16.256 0 011.966 4.669c.61 2.041 1.18 4.381.21 6.326a9.539 9.539 0 01-.6.995 3.867 3.867 0 00-.871 2.063 4.155 4.155 0 001.617 2.664l.131.132c.634.638 2.042 2.24 1.645 3.517a3.44 3.44 0 01.163 3.032 6.625 6.625 0 01-.4.746 3.709 3.709 0 00-.572 2.919 5.987 5.987 0 01-.072 1.947 5.891 5.891 0 01-.741 1.544c-.119.2-.238.392-.346.593a7.03 7.03 0 001.915 8.7c.29.216.61.42.919.617a4.192 4.192 0 012.122 5.842 2.689 2.689 0 01-.942 1.705 2.5 2.5 0 01-1.383.3h-.417a7.426 7.426 0 00-4.027.849 4.323 4.323 0 00-.473 6.6c1.31 1.123 3.218 1.448 6.021 1 2.787-.451 4.594-1.317 5.685-2.728.091-.118.179-.241.268-.365a2.835 2.835 0 011.453-1.282 1.616 1.616 0 01.408-.052 3.316 3.316 0 011.694.645c.579.367 1.16.753 1.743 1.142 3.079 2.048 6.263 4.165 9.845 3.884.328-.026.671-.073 1-.118a12.06 12.06 0 011.592-.145 3.369 3.369 0 011.729.4c1.124.64 1.725 2.01 1.787 4.072.059 1.992-.283 4.674-2.242 6.143-1.4 1.047-3.144 1.133-4.963 1.133h-.81a13.142 13.142 0 00-3.143.274 10.19 10.19 0 00-3.453 1.742 21.672 21.672 0 00-4.73 4.649l-.207.28a5.1 5.1 0 01-3.654 2.545c-.209.055-.417.111-.623.172-3.809 1.135-6.53 4.235-9.442 7.868z" /></g><g ><path fill="#404040" d="M64.857-189.29c-.54.825-.524 1.9-.927 2.8-.676 1.512-2.376 2.264-3.976 2.692s-3.321.7-4.606 1.746a5.394 5.394 0 00-1.8 3.134 2.539 2.539 0 011.652.312c1.279.933.3 3.4 1.607 4.293.631.43 1.475.242 2.237.3s1.648.721 1.339 1.42c-.192.434-.769.619-.914 1.071-.24.745.815 1.229 1.113 1.952.371.9-.513 1.783-.84 2.7a4.907 4.907 0 00-.087 2.2l.65 5.77a1.617 1.617 0 00.143.591 1.641 1.641 0 00.637.567l1.592.975c3.047 1.87 6.483 3.318 9.29 5.532a1.471 1.471 0 01.286.284l.973-1.214c2.625-3.275 5.5-6.724 9.522-7.922a9.636 9.636 0 002.543-.9 7.779 7.779 0 001.856-2.038 21.9 21.9 0 014.766-4.684 10.459 10.459 0 013.508-1.767c2.944-.732 6.431.441 8.858-1.378 1.773-1.33 2.242-3.794 2.177-6.009-.044-1.5-.4-3.2-1.705-3.937-1.25-.71-2.8-.233-4.231-.119-4.316.344-8.031-2.731-11.687-5.051a2.611 2.611 0 00-1.974-.573c-.75.2-1.16.975-1.635 1.59-1.343 1.735-3.621 2.438-5.786 2.788-2.122.343-4.521.367-6.153-1.032a4.51 4.51 0 01.156-6.611 21.416 21.416 0 00-4.433-.816c-1.527-.121-3.314.057-4.151 1.334z" /><path fill="#fff" d="M72.242-150.689l-.124-.175a1.307 1.307 0 00-.254-.251 39.811 39.811 0 00-5.844-3.592c-1.141-.614-2.32-1.249-3.43-1.93l-1.592-.979a1.79 1.79 0 01-.695-.628 1.76 1.76 0 01-.161-.649l-.65-5.77a5.053 5.053 0 01.1-2.272 6.145 6.145 0 01.426-.875c.33-.6.643-1.162.418-1.708a2.6 2.6 0 00-.54-.716c-.37-.394-.754-.8-.578-1.346a1.451 1.451 0 01.516-.639 1.374 1.374 0 00.4-.448.567.567 0 00-.047-.544 1.579 1.579 0 00-1.157-.65c-.213-.016-.432-.013-.649-.008a2.766 2.766 0 01-1.667-.318 2.818 2.818 0 01-.886-2.267c-.077-.827-.149-1.609-.726-2.029a1.9 1.9 0 00-1.17-.292c-.126 0-.253.005-.378.011l-.21.011.043-.206a5.575 5.575 0 011.858-3.226 9.485 9.485 0 013.831-1.565c.28-.069.559-.138.835-.212 2.069-.553 3.334-1.4 3.87-2.6a6.493 6.493 0 00.353-1.186 4.909 4.909 0 01.586-1.633c.716-1.093 2.182-1.57 4.294-1.413a21.615 21.615 0 014.466.823l.3.087-.239.194a4.24 4.24 0 00-1.462 3.233 4 4 0 001.31 3.129c1.31 1.123 3.218 1.448 6.021 1 2.787-.451 4.594-1.317 5.685-2.728.091-.118.179-.241.268-.365a2.835 2.835 0 011.453-1.282 1.619 1.619 0 01.408-.052 3.317 3.317 0 011.694.645c.579.367 1.16.754 1.744 1.142 3.078 2.048 6.254 4.168 9.844 3.884.328-.026.671-.073 1-.118a12.051 12.051 0 011.592-.145 3.369 3.369 0 011.729.4c1.124.64 1.725 2.01 1.787 4.073.058 1.992-.283 4.674-2.242 6.143-1.4 1.047-3.143 1.133-4.962 1.133h-.811a13.142 13.142 0 00-3.143.274 10.191 10.191 0 00-3.453 1.741 21.69 21.69 0 00-4.731 4.649l-.205.28a5.1 5.1 0 01-3.654 2.545c-.209.055-.417.111-.622.172-3.809 1.135-6.53 4.235-9.442 7.868zm-13.579-23.5c.132 0 .262 0 .391.012a1.905 1.905 0 011.411.805.885.885 0 01.065.841 1.629 1.629 0 01-.492.565 1.2 1.2 0 00-.416.491c-.118.363.171.67.506 1.026a2.84 2.84 0 01.6.814 2.3 2.3 0 01-.433 1.988 5.875 5.875 0 00-.4.827 4.809 4.809 0 00-.079 2.127l.65 5.77a1.5 1.5 0 00.125.533 1.522 1.522 0 00.579.5l1.591.976c1.1.676 2.277 1.308 3.414 1.92a40.156 40.156 0 015.891 3.623 2.049 2.049 0 01.182.159l.851-1.063c2.4-2.994 5.386-6.72 9.6-7.976.209-.062.42-.118.632-.174a4.8 4.8 0 003.476-2.424l.208-.281a21.983 21.983 0 014.8-4.719 10.5 10.5 0 013.563-1.793 13.44 13.44 0 013.221-.283h.811c1.828 0 3.449-.08 4.767-1.069 1.946-1.458 2.159-4.306 2.113-5.874-.058-1.942-.6-3.221-1.624-3.8a3.06 3.06 0 00-1.569-.361 11.688 11.688 0 00-1.549.142c-.336.045-.684.092-1.021.12-.225.018-.454.027-.681.027-3.41 0-6.439-2.015-9.368-3.964-.582-.387-1.161-.772-1.738-1.138a2.53 2.53 0 00-1.846-.553 2.6 2.6 0 00-1.274 1.157c-.091.127-.182.254-.275.374-1.144 1.48-3.016 2.385-5.888 2.85a13.979 13.979 0 01-2.237.2 6.046 6.046 0 01-4.048-1.266 4.323 4.323 0 01-1.422-3.38 4.633 4.633 0 011.356-3.281 21.261 21.261 0 00-4.117-.729c-1.981-.151-3.352.28-4 1.268a4.593 4.593 0 00-.542 1.528 6.673 6.673 0 01-.373 1.246c-.577 1.292-1.912 2.2-4.081 2.782-.278.074-.559.144-.841.213a9.255 9.255 0 00-3.705 1.5 5.106 5.106 0 00-1.7 2.838h.181a2.26 2.26 0 011.361.354 2.906 2.906 0 01.857 2.261c.078.835.151 1.623.747 2.03a2.043 2.043 0 001.2.265h.282c.094 0 .193-.007.288-.007z" /></g><g ><path fill="#404040" d="M45.475-211.337a2.071 2.071 0 01.635.023 3.032 3.032 0 01.716.379 3.422 3.422 0 002.469.262 10.169 10.169 0 002.339-.977 5.671 5.671 0 001.718-1.182c.294-.336.506-.739.809-1.067a1.325 1.325 0 011.182-.49c.51.109.8.622 1.121 1.037s.875.794 1.324.528c.125-.516.329-1.116.84-1.258s1.014.28 1.546.354a1.261 1.261 0 001.375-1.071.726.726 0 00-.049-.382.976.976 0 00-.312-.337 10.483 10.483 0 00-2-1.213 10.446 10.446 0 00.018-2.8 3.519 3.519 0 00-1.387-2.355 7.217 7.217 0 01-1.28-.806 1.55 1.55 0 01-.251-1.754c.744-1.41.25-3.309 1.119-4.646.259-.4.58-.756.8-1.176.885-1.67-.009-3.727.276-5.6a3.134 3.134 0 00.079-.868 2.281 2.281 0 00-.628-1.125 9.21 9.21 0 00-1.315-1.331 5.1 5.1 0 00-2.73-1.054c-.418-.032-.839-.011-1.255-.062a5.353 5.353 0 01-1.374-.391c-2.422 8.8-4.328 15.366-4.734 16.922-.97 3.717-2.182 4.121-3.071 6.626-.534 1.76-1.109 3.521-1.706 5.284.43.139.862.276 1.3.37a8.953 8.953 0 002.426.16z" /><path fill="#fff" d="M48.338-210.397a3.139 3.139 0 01-1.592-.4c-.066-.038-.131-.079-.2-.12a1.729 1.729 0 00-.48-.242 1.913 1.913 0 00-.542-.021h-.043c-.222.013-.445.021-.668.021a8.379 8.379 0 01-1.8-.181c-.433-.094-.85-.225-1.311-.374l-.156-.05.053-.155c.656-1.935 1.213-3.662 1.7-5.279a11.449 11.449 0 011.249-2.455 13 13 0 001.82-4.164c.169-.649.608-2.2 1.216-4.349.888-3.139 2.1-7.437 3.518-12.575l.048-.175.168.069a5.137 5.137 0 001.333.381c.232.028.474.034.708.039.18 0 .359.008.539.021a5.284 5.284 0 012.817 1.089 9.35 9.35 0 011.339 1.353 2.4 2.4 0 01.666 1.211 2.451 2.451 0 01-.051.74l-.029.173a9.358 9.358 0 00.035 2.255 4.483 4.483 0 01-.823 4.136c-.108.145-.216.292-.315.443a5.063 5.063 0 00-.592 2.343 6.07 6.07 0 01-.52 2.291 1.4 1.4 0 00.224 1.566 2.869 2.869 0 00.752.5 5.453 5.453 0 01.5.286 3.681 3.681 0 011.456 2.462 10.158 10.158 0 01-.005 2.731 10.611 10.611 0 011.923 1.184 1.12 1.12 0 01.359.4.871.871 0 01.063.468 1.431 1.431 0 01-1.558 1.214 2.766 2.766 0 01-.642-.2 1.392 1.392 0 00-.838-.158c-.427.118-.613.671-.727 1.14l-.016.066-.059.034a.781.781 0 01-.407.111 1.575 1.575 0 01-1.127-.68c-.05-.065-.1-.132-.148-.2-.25-.343-.507-.7-.877-.776a1.153 1.153 0 00-1.031.442 4.917 4.917 0 00-.414.542 5.919 5.919 0 01-.392.52 5.824 5.824 0 01-1.765 1.219 10.252 10.252 0 01-2.378.991 4.423 4.423 0 01-.98.113zm-2.562-1.114a1.424 1.424 0 01.371.042 2.026 2.026 0 01.572.282c.061.039.121.078.184.113a3.252 3.252 0 002.351.244 10.008 10.008 0 002.3-.963 4.086 4.086 0 002.039-1.637 5.358 5.358 0 01.443-.578 1.472 1.472 0 011.335-.538 1.947 1.947 0 011.072.9c.048.066.1.132.144.195.233.306.708.665 1.056.516.138-.538.373-1.147.937-1.3a1.7 1.7 0 011.046.17 2.463 2.463 0 00.566.18 1.093 1.093 0 001.191-.929.558.558 0 00-.035-.3.85.85 0 00-.264-.277 10.274 10.274 0 00-1.965-1.195l-.1-.048.011-.114a10.3 10.3 0 00.02-2.757 3.362 3.362 0 00-1.317-2.249 5.249 5.249 0 00-.473-.27 3.116 3.116 0 01-.833-.559 1.708 1.708 0 01-.279-1.941 5.824 5.824 0 00.484-2.171 5.381 5.381 0 01.643-2.488c.1-.158.214-.309.326-.46a5.644 5.644 0 00.469-.7 5.567 5.567 0 00.292-3.209 9.543 9.543 0 01-.034-2.335l.03-.18a2.19 2.19 0 00.049-.644 2.142 2.142 0 00-.591-1.041 9.076 9.076 0 00-1.292-1.308 4.945 4.945 0 00-2.643-1.02c-.174-.014-.348-.017-.522-.021-.242-.006-.491-.012-.739-.042a5.121 5.121 0 01-1.247-.335c-1.394 5.062-2.593 9.3-3.471 12.4-.607 2.146-1.046 3.7-1.215 4.343a13.272 13.272 0 01-1.858 4.254 11.163 11.163 0 00-1.216 2.385c-.477 1.57-1.018 3.251-1.653 5.127.392.125.754.235 1.125.316a8.078 8.078 0 001.73.173q.325 0 .649-.02h.043c.093-.006.183-.011.269-.011z" /></g><g ><path fill="#404040" d="M82.413-269.94a18.1 18.1 0 01-2.246.771 3.006 3.006 0 01-2.78-1.116c-.575-.747-.817-1.793-1.628-2.274a3.324 3.324 0 00-1.927-.26l-1.9.125a1.667 1.667 0 01-.634-.041 2 2 0 01-.532-.332 4.8 4.8 0 00-5.211-.253 3.85 3.85 0 01-1.5.735c-.986.1-1.726-.831-2.583-1.328a5.065 5.065 0 00-1.584-.533c-2.617 11.485-5.937 23.992-8.623 33.752a5.353 5.353 0 001.374.391c.416.051.837.03 1.255.062a5.1 5.1 0 012.73 1.054 9.213 9.213 0 011.315 1.331 2.281 2.281 0 01.628 1.125 3.136 3.136 0 01-.08.868c-.285 1.868.609 3.926-.276 5.6-.222.42-.543.778-.8 1.176-.869 1.337-.375 3.236-1.119 4.646a1.55 1.55 0 00.251 1.754 7.222 7.222 0 001.28.806 3.519 3.519 0 011.387 2.355 10.45 10.45 0 01-.018 2.8 10.478 10.478 0 012 1.213.975.975 0 01.312.337.724.724 0 01.049.382 1.261 1.261 0 01-1.375 1.071c-.532-.074-1.029-.5-1.546-.354s-.715.742-.84 1.258c-.449.266-1.008-.114-1.324-.528s-.611-.928-1.121-1.037a1.325 1.325 0 00-1.182.49c-.3.328-.515.731-.809 1.067a5.673 5.673 0 01-1.718 1.182 10.17 10.17 0 01-2.339.977 3.422 3.422 0 01-2.469-.262 3.029 3.029 0 00-.716-.38 2.072 2.072 0 00-.635-.023 8.952 8.952 0 01-2.422-.157c-.434-.094-.866-.231-1.3-.37-2.247 6.626-4.917 13.263-7.9 19.846a1.748 1.748 0 012.1-.051c.225.214.388.533.69.6.475.107.8-.465 1.236-.682a.916.916 0 011.158 1.347c-.12.17-.294.295-.426.456-.513.623-.268 1.54-.107 2.33a3.47 3.47 0 01-.025 1.831 1.605 1.605 0 01-1.339 1.123c-.9.046-1.891-.857-2.592-.286a1.08 1.08 0 00-.123 1.362 3.188 3.188 0 001.118.966 1.078 1.078 0 01.509.512.8.8 0 01-.034.513 2.946 2.946 0 01-1.173 1.29 3.688 3.688 0 00-1.257 1.222 1.17 1.17 0 00.359 1.552 3.243 3.243 0 013.148.4 3.356 3.356 0 00.769.534.68.68 0 00.835-.208c.12-.214.06-.491.166-.711.314-.658 1.513-.113 1.971-.681.244-.53-.244-1.094-.7-1.46s-.981-.863-.823-1.425c.674-.171 1.471.246 2.042-.151a3.11 3.11 0 00.422-.427 2.451 2.451 0 013.111-.033 5.782 5.782 0 011.8 2.817 13.706 13.706 0 001.312 3.122 1.608 1.608 0 00.585.577c.715.352 1.533-.294 1.921-.989s.631-1.535 1.3-1.972a3.221 3.221 0 011.612-.381h.114a5.394 5.394 0 011.8-3.134c1.285-1.045 3.006-1.319 4.606-1.746s3.3-1.18 3.976-2.692c.4-.9.387-1.972.927-2.8.837-1.277 2.624-1.455 4.147-1.34a21.4 21.4 0 014.433.816 3.541 3.541 0 01.336-.247 7.936 7.936 0 014.359-.875 2.616 2.616 0 001.465-.268 2.56 2.56 0 00.873-1.61 5.418 5.418 0 00.045-3.745c-.6-1.19-1.957-1.746-3.026-2.544a7.212 7.212 0 01-1.96-8.908 9.84 9.84 0 001.073-2.1c.337-1.3-.246-2.723.2-3.985.206-.586.617-1.079.865-1.648a3.279 3.279 0 00-.191-2.95c.407-1.1-.757-2.59-1.583-3.421s-1.794-1.738-1.795-2.91.968-2.081 1.49-3.129c.947-1.9.388-4.173-.22-6.208a16.268 16.268 0 00-1.944-4.624 14.643 14.643 0 01-1.478-2.193 5.735 5.735 0 01.8-5.3 43.506 43.506 0 013.641-4.233 7.5 7.5 0 001.608-2.736c.641-2.269-.478-4.647-.478-7.005a7.539 7.539 0 013.7-6.4 7.312 7.312 0 002.545-1.722 4.223 4.223 0 00.6-1.528 5.353 5.353 0 00-1.937.162z" /><path fill="#fff" d="M49.027-175.314a1.112 1.112 0 01-.5-.116 1.777 1.777 0 01-.648-.631 10.364 10.364 0 01-1.1-2.507c-.074-.218-.147-.436-.225-.651a5.706 5.706 0 00-1.748-2.742 2.669 2.669 0 00-1.55-.509 1.85 1.85 0 00-1.35.524c-.042.043-.081.089-.122.134a1.78 1.78 0 01-.324.313 1.268 1.268 0 01-.756.206 4.826 4.826 0 01-.5-.035 3.041 3.041 0 00-.738-.016c-.049.43.389.844.787 1.162.709.568.974 1.155.745 1.654a1.383 1.383 0 01-1.131.4c-.447.019-.727.047-.84.285a.9.9 0 00-.061.29 1.078 1.078 0 01-.11.431.741.741 0 01-.668.348 1.017 1.017 0 01-.367-.069 2.334 2.334 0 01-.624-.408c-.061-.05-.122-.1-.184-.148a3.126 3.126 0 00-2.988-.382l-.068.028-.066-.033a1.036 1.036 0 01-.52-.622 1.549 1.549 0 01.089-1.147 3.646 3.646 0 011.251-1.24l.056-.041a2.8 2.8 0 001.116-1.212.634.634 0 00.032-.408.942.942 0 00-.441-.425 3.334 3.334 0 01-1.171-1.02 1.24 1.24 0 01.159-1.571 1 1 0 01.655-.226 3.1 3.1 0 01.99.239 3.087 3.087 0 00.981.238h.06a1.447 1.447 0 001.195-1.014 3.386 3.386 0 00.019-1.746l-.038-.18a2.65 2.65 0 01.178-2.286 2.5 2.5 0 01.2-.211 1.727 1.727 0 00.216-.235.783.783 0 00-.045-.926.8.8 0 00-.909-.184 2.089 2.089 0 00-.4.3.885.885 0 01-1.529-.047 2.274 2.274 0 00-.179-.2 1.091 1.091 0 00-.781-.287 2.158 2.158 0 00-1.124.357l-.46.295.226-.5c3.082-6.808 5.737-13.48 7.891-19.831l.051-.151.152.049c.453.147.861.275 1.281.366a8.071 8.071 0 001.73.173c.217 0 .433-.007.649-.02h.043a2.18 2.18 0 01.642.032 2.012 2.012 0 01.571.282c.061.039.122.078.184.113a3.252 3.252 0 002.351.244 10.025 10.025 0 002.3-.962 5.52 5.52 0 001.67-1.146 5.424 5.424 0 00.369-.492 5.34 5.34 0 01.443-.578 1.472 1.472 0 011.335-.538 1.945 1.945 0 011.072.9c.048.066.1.132.144.195.233.306.708.665 1.056.516.138-.538.373-1.147.937-1.3a1.7 1.7 0 011.046.17 2.465 2.465 0 00.566.18 1.1 1.1 0 001.191-.929.559.559 0 00-.035-.3.848.848 0 00-.264-.277 10.274 10.274 0 00-1.965-1.195l-.1-.048.011-.114a10.308 10.308 0 00.02-2.757 3.362 3.362 0 00-1.317-2.249 5.233 5.233 0 00-.473-.27 3.117 3.117 0 01-.833-.559 1.708 1.708 0 01-.279-1.941 5.823 5.823 0 00.484-2.171 5.382 5.382 0 01.643-2.488c.1-.158.214-.309.326-.46a5.626 5.626 0 00.469-.7 5.567 5.567 0 00.292-3.209 9.541 9.541 0 01-.034-2.335l.03-.18a2.2 2.2 0 00.049-.644 2.141 2.141 0 00-.592-1.041 9.074 9.074 0 00-1.292-1.308 4.946 4.946 0 00-2.643-1.02c-.174-.014-.348-.017-.522-.021-.242-.006-.492-.012-.74-.042a5.571 5.571 0 01-1.416-.4l-.133-.054.038-.138c3.592-13.05 6.492-24.4 8.621-33.745l.035-.153.154.03a5.232 5.232 0 011.634.553 7.515 7.515 0 01.769.537 2.555 2.555 0 001.717.77 2.594 2.594 0 001.111-.508c.107-.07.214-.14.323-.206a4.81 4.81 0 012.486-.672 4.884 4.884 0 012.9.935l.074.056a1.539 1.539 0 00.413.251 1.658 1.658 0 00.571.032l1.9-.124c.213-.014.431-.026.647-.026a2.683 2.683 0 011.372.309 3.4 3.4 0 011.154 1.452 6.173 6.173 0 00.52.863 2.872 2.872 0 002.627 1.055 5.748 5.748 0 001.31-.425 8.908 8.908 0 01.916-.341 5.579 5.579 0 012.009-.171l.187.015-.042.182a4.38 4.38 0 01-.626 1.585 5.026 5.026 0 01-1.925 1.411c-.227.116-.453.232-.67.357a7.342 7.342 0 00-3.619 6.261 15.267 15.267 0 00.337 2.736 9.493 9.493 0 01.134 4.312 7.726 7.726 0 01-1.64 2.8c-.426.5-.886.99-1.33 1.462a19.884 19.884 0 00-2.3 2.755 5.53 5.53 0 00-.791 5.147 7.718 7.718 0 00.959 1.482c.172.226.344.452.5.685a16.252 16.252 0 011.966 4.669c.61 2.041 1.18 4.381.21 6.326a9.526 9.526 0 01-.6.995 3.867 3.867 0 00-.871 2.063 4.154 4.154 0 001.617 2.664l.131.132c.633.638 2.042 2.24 1.644 3.516a3.44 3.44 0 01.163 3.032 6.64 6.64 0 01-.4.746 3.709 3.709 0 00-.579 2.917 5.987 5.987 0 01-.072 1.947 5.91 5.91 0 01-.741 1.544c-.119.2-.238.392-.347.593a7.03 7.03 0 001.915 8.7c.29.216.609.419.919.617a4.192 4.192 0 012.118 5.838 2.688 2.688 0 01-.942 1.705 2.494 2.494 0 01-1.383.3h-.417a7.426 7.426 0 00-4.027.849 3.629 3.629 0 00-.32.236l-.066.054-.082-.025a21.33 21.33 0 00-4.4-.81c-1.984-.152-3.352.281-4 1.268a4.591 4.591 0 00-.542 1.528 6.666 6.666 0 01-.373 1.246c-.577 1.292-1.912 2.2-4.081 2.782-.278.074-.559.144-.841.213a9.256 9.256 0 00-3.705 1.5 5.184 5.184 0 00-1.745 3.042l-.026.121-.237.011a3.141 3.141 0 00-1.533.356 3.086 3.086 0 00-.959 1.35c-.093.192-.184.383-.285.565a2.112 2.112 0 01-1.634 1.167zm-5.771-7.479a3.006 3.006 0 011.741.571 6 6 0 011.861 2.893c.078.217.152.437.227.657a10.129 10.129 0 001.067 2.429 1.462 1.462 0 00.523.522.8.8 0 00.353.083 1.819 1.819 0 001.355-1.006c.1-.177.187-.362.275-.547a2.576 2.576 0 012.758-1.888 5.529 5.529 0 011.83-3.1 9.485 9.485 0 013.831-1.565c.28-.069.559-.138.835-.212 2.069-.553 3.334-1.4 3.87-2.6a6.481 6.481 0 00.353-1.186 4.909 4.909 0 01.586-1.633c.716-1.093 2.182-1.57 4.294-1.413a21.626 21.626 0 014.385.8 3.362 3.362 0 01.284-.2 7.694 7.694 0 014.2-.9h.417a2.188 2.188 0 001.206-.244 2.4 2.4 0 00.8-1.515 5.238 5.238 0 00.058-3.632 5.184 5.184 0 00-2.04-1.857c-.314-.2-.638-.407-.938-.63a7.361 7.361 0 01-2.005-9.116c.111-.2.232-.405.354-.606a5.558 5.558 0 00.7-1.458 5.752 5.752 0 00.063-1.842 4.006 4.006 0 01.624-3.106 6.5 6.5 0 00.386-.709 3.106 3.106 0 00-.182-2.8l-.04-.067.027-.073c.425-1.145-1.076-2.778-1.546-3.251l-.131-.131c-.8-.8-1.71-1.715-1.711-2.892a4.164 4.164 0 01.924-2.241 9.253 9.253 0 00.583-.961c.917-1.84.388-4.016-.231-6.089a16.007 16.007 0 00-1.911-4.588c-.157-.229-.326-.451-.495-.672a7.979 7.979 0 01-1-1.546 5.848 5.848 0 01.814-5.455 20.108 20.108 0 012.336-2.8c.441-.469.9-.953 1.318-1.449a7.435 7.435 0 001.575-2.675 9.115 9.115 0 00-.141-4.166 15.5 15.5 0 01-.343-2.8A7.671 7.671 0 0181.136-267c.222-.127.453-.246.684-.365a4.718 4.718 0 001.81-1.311 3.679 3.679 0 00.53-1.286 5.071 5.071 0 00-1.7.171 8.767 8.767 0 00-.883.33 6.037 6.037 0 01-1.385.446 3.2 3.2 0 01-2.932-1.178 6.377 6.377 0 01-.549-.908 3.115 3.115 0 00-1.033-1.326 2.306 2.306 0 00-1.208-.264c-.209 0-.42.012-.626.026l-1.9.124a1.922 1.922 0 01-.695-.048 1.77 1.77 0 01-.5-.3l-.072-.054a4.563 4.563 0 00-2.712-.871 4.482 4.482 0 00-2.319.626c-.1.063-.208.131-.312.2a2.866 2.866 0 01-1.255.559 2.831 2.831 0 01-1.946-.834 7.227 7.227 0 00-.742-.509 4.613 4.613 0 00-1.38-.484c-2.119 9.283-5 20.541-8.552 33.466a4.892 4.892 0 001.2.327c.232.028.474.034.708.039.18 0 .36.008.54.021a5.283 5.283 0 012.817 1.089 9.347 9.347 0 011.339 1.353 2.4 2.4 0 01.666 1.211 2.448 2.448 0 01-.051.74l-.029.173a9.355 9.355 0 00.036 2.255 4.479 4.479 0 01-.823 4.135c-.108.146-.216.292-.315.444a5.064 5.064 0 00-.592 2.343 6.068 6.068 0 01-.52 2.291 1.4 1.4 0 00.224 1.566 2.87 2.87 0 00.752.5 5.424 5.424 0 01.5.286 3.681 3.681 0 011.456 2.462 10.163 10.163 0 01-.005 2.73 10.617 10.617 0 011.929 1.181 1.121 1.121 0 01.359.4.871.871 0 01.063.468 1.429 1.429 0 01-1.558 1.214 2.766 2.766 0 01-.642-.2 1.392 1.392 0 00-.838-.158c-.427.118-.613.671-.727 1.14l-.016.066-.059.034a.781.781 0 01-.407.111 1.575 1.575 0 01-1.127-.68c-.05-.065-.1-.133-.148-.2-.25-.343-.507-.7-.877-.776a1.153 1.153 0 00-1.031.441 4.924 4.924 0 00-.414.542 5.882 5.882 0 01-.392.52 5.823 5.823 0 01-1.765 1.219 10.261 10.261 0 01-2.378.991 3.569 3.569 0 01-2.586-.279c-.066-.037-.131-.079-.2-.12a1.731 1.731 0 00-.48-.242 1.908 1.908 0 00-.542-.021h-.043c-.222.013-.445.021-.668.021a8.392 8.392 0 01-1.8-.181c-.385-.084-.758-.2-1.159-.326-2.1 6.184-4.679 12.669-7.66 19.285a1.748 1.748 0 011.876.191 2.607 2.607 0 01.2.224.862.862 0 00.411.336c.221.049.432-.129.658-.324a2.338 2.338 0 01.47-.345 1.133 1.133 0 011.3.262 1.1 1.1 0 01.064 1.323 1.957 1.957 0 01-.256.281 2.23 2.23 0 00-.177.184 2.4 2.4 0 00-.111 2.015l.038.181a3.674 3.674 0 01-.03 1.917 1.762 1.762 0 01-1.483 1.23h-.076a3.3 3.3 0 01-1.089-.257c-.533-.189-1.014-.325-1.333-.066a.928.928 0 00-.086 1.153 3.084 3.084 0 001.065.912 1.231 1.231 0 01.577.6.941.941 0 01-.035.617 3.1 3.1 0 01-1.232 1.367l-.057.041a3.411 3.411 0 00-1.15 1.123 1.214 1.214 0 00-.071.9.747.747 0 00.3.4 3.457 3.457 0 013.235.454c.066.05.13.1.194.155a2.076 2.076 0 00.536.357.545.545 0 00.637-.138.835.835 0 00.07-.306 1.172 1.172 0 01.091-.4c.2-.43.69-.451 1.119-.468.359-.015.7-.028.871-.244.2-.457-.4-1.015-.674-1.232-.5-.4-1.059-.95-.877-1.6l.025-.09.09-.023a2.891 2.891 0 01.948-.012c.159.016.317.034.469.034a.948.948 0 00.572-.149 1.546 1.546 0 00.266-.26c.043-.05.087-.1.132-.147a2.17 2.17 0 011.582-.614z" /></g><g ><path fill="#404040" d="M102.153-295.778a4.943 4.943 0 01-1.036-.669c-.643-.632-.8-1.757-1.636-2.1a1.9 1.9 0 00-2 .749 10.217 10.217 0 01-1.484 1.729 3.976 3.976 0 00-.8.6 3.452 3.452 0 00-.407.811 5.853 5.853 0 01-.93 1.317 3.194 3.194 0 01-2.019 1.378c-1.111.069-2.05-1.021-3.16-.938-.55.041-1.185.347-1.594-.023a2.221 2.221 0 01-.35-.567 1.459 1.459 0 00-1.911-.508 2.394 2.394 0 01-.262-1.307 1.3 1.3 0 01-1.509-1.29c.037-.551.437-1.049.385-1.6-.125-1.323-2.459-1.345-2.763-2.639-.065-.276-.019-.567-.06-.847a4.136 4.136 0 00-.993-1.641c-.377-.526-.6-1.323-.129-1.771l3.215.865c.275.074.648.1.764-.155a.471.471 0 00-.021-.361c-.447-1.105-2.537-.984-2.641-2.172a1.626 1.626 0 01.2-.792 4.251 4.251 0 011.075-1.579 1.821 1.821 0 011.8-.374c.78.321 1.289 1.34 2.127 1.247a1.311 1.311 0 00.991-.926 9.857 9.857 0 00.271-1.4 4.286 4.286 0 012.778-3.151 1.853 1.853 0 00.9-.457 1.114 1.114 0 00.063-1.133 9.69 9.69 0 00-.626-1.016 3.315 3.315 0 01-.239-2.81.646.646 0 01.208-.317.544.544 0 01.7.22c.157.222.218.5.357.732a1.26 1.26 0 001.523.491 2.821 2.821 0 00.218-1.975c-.063-.676.036-1.5.646-1.8.377-.184.868-.112 1.185-.388a.924.924 0 00.161-1.045 2.7 2.7 0 00-.71-.869 2.192 2.192 0 01.3-1.888 8.02 8.02 0 00.911-1.016 6.377 6.377 0 00.259-.626c.132-.309.325-.587.484-.883a3.344 3.344 0 00.038-3.309c-.272-.429-.667-.771-.918-1.212a4.454 4.454 0 01-.438-1.612 5.724 5.724 0 01-.041-2.023c.128-.578.434-1.188.191-1.728a1.705 1.705 0 00-1.582-.751 2.989 2.989 0 01-1.777-.364c-.354-.275-.543-.729-.919-.974a4.883 4.883 0 00-1.233-.364c-.41-.132-.817-.537-.669-.941a1.5 1.5 0 01.245-.363 3.14 3.14 0 00.47-1.3c.105-.524.179-1.153-.216-1.513-.281-.255-.708-.276-1.018-.495-.469-.33-.534-.98-.7-1.528a3.248 3.248 0 00-.216-.516.357.357 0 01-.416-.077c-.438.659-.267 1.535-.429 2.31-.276 1.317-1.51 2.3-1.687 3.637a1.772 1.772 0 01-.1.516c-.111.243-.357.393-.523.6-.332.422-.305 1.038-.608 1.48-.257.377-.734.6-.88 1.032-.1.3-.03.659-.225.9-.33.413-1.028.277-1.289.737.108 2.262-.431 1.831-1.293 1.724-1.831-.216-5.979-3.448-7-3.5s-2.262.538-2.532 2.747-.7 12.174-1.023 15.029c-.593.916-1.724 1.562-2.209 2.613-.081 4.2-.97 11.878-5.656 34.988-.551 2.717-1.171 5.564-1.835 8.475a5.063 5.063 0 011.584.533c.857.5 1.6 1.428 2.583 1.328a3.85 3.85 0 001.5-.735 4.8 4.8 0 015.211.253 2 2 0 00.532.332 1.668 1.668 0 00.634.041l1.9-.125a3.324 3.324 0 011.927.26c.811.481 1.053 1.527 1.628 2.274a3.006 3.006 0 002.78 1.116 18.1 18.1 0 002.246-.771 5.354 5.354 0 011.951-.165c.023-.1.046-.2.068-.295q.978-4.43 1.956-8.859c.488-2.212 1.446-4.571 3.48-5.568s4.34-1.306 6.42-2.2a12.307 12.307 0 005.376-4.513 15.06 15.06 0 012.108-2.939 7.777 7.777 0 00-1.637-1.291z" /><path fill="#fff" d="M79.746-268.976a3.191 3.191 0 01-2.486-1.211 6.379 6.379 0 01-.549-.908 3.116 3.116 0 00-1.033-1.326 2.306 2.306 0 00-1.207-.264c-.209 0-.42.012-.626.026l-1.9.124a1.934 1.934 0 01-.695-.048 1.784 1.784 0 01-.5-.3l-.072-.054a4.562 4.562 0 00-2.712-.871 4.482 4.482 0 00-2.319.626c-.1.063-.208.131-.312.2a2.866 2.866 0 01-1.255.559 2.833 2.833 0 01-1.946-.834 7.235 7.235 0 00-.735-.515 4.916 4.916 0 00-1.534-.515l-.164-.032.037-.163c.7-3.054 1.314-5.9 1.834-8.471 4.849-23.91 5.579-31.089 5.653-34.959l.015-.065a5.461 5.461 0 011.263-1.565 6.6 6.6 0 00.936-1.037c.165-1.48.356-4.775.542-7.963.178-3.06.346-5.95.478-7.03.319-2.61 1.9-2.892 2.568-2.892h.133a9.913 9.913 0 012.8 1.428 14.943 14.943 0 004.211 2.075c.115.014.224.034.327.052.294.054.5.081.6-.027.164-.172.222-.689.18-1.582v-.047l.023-.041a1.145 1.145 0 01.749-.471 1.066 1.066 0 00.554-.286.863.863 0 00.125-.453 1.8 1.8 0 01.073-.4 1.7 1.7 0 01.537-.689 2.283 2.283 0 00.364-.382 2.222 2.222 0 00.261-.665 2.249 2.249 0 01.354-.824 2.3 2.3 0 01.229-.24 1.155 1.155 0 00.274-.329 1.19 1.19 0 00.075-.359l.013-.112a5 5 0 01.879-1.968 5.24 5.24 0 00.809-1.681 5.511 5.511 0 00.085-.82 2.992 2.992 0 01.368-1.546l.121-.182.139.169c.029.035.109.07.239.026l.132-.044.063.123a3.361 3.361 0 01.226.542c.037.119.069.242.1.365a1.276 1.276 0 00.973 1.274 1.69 1.69 0 01.6.311 1.712 1.712 0 01.266 1.664 3.285 3.285 0 01-.5 1.365l-.071.09a.884.884 0 00-.152.231.369.369 0 00.024.3.949.949 0 00.543.433 3.855 3.855 0 00.436.1 1.758 1.758 0 011.371.829 2.346 2.346 0 00.393.432 2.433 2.433 0 001.453.325l.231.006a1.851 1.851 0 011.724.847 2.016 2.016 0 01-.07 1.416c-.04.138-.081.276-.111.412a5.585 5.585 0 00.043 1.965 4.358 4.358 0 00.418 1.555 4.26 4.26 0 00.471.629 5.317 5.317 0 01.443.575 3.5 3.5 0 01-.033 3.473c-.057.107-.12.213-.182.319a4.909 4.909 0 00-.295.551c-.031.072-.058.147-.086.221a2.245 2.245 0 01-.745 1.082 4.2 4.2 0 00-.363.377 2.009 2.009 0 00-.279 1.7 2.74 2.74 0 01.713.891 1.084 1.084 0 01-.2 1.23 1.463 1.463 0 01-.745.284 1.8 1.8 0 00-.475.128c-.612.3-.593 1.244-.555 1.637l.019.2a2.64 2.64 0 01-.268 1.891l-.026.035-.039.017a1.312 1.312 0 01-.517.1 1.424 1.424 0 01-1.208-.659 2.488 2.488 0 01-.169-.355 1.891 1.891 0 00-.182-.367c-.12-.169-.353-.265-.477-.18a.506.506 0 00-.149.241 3.174 3.174 0 00.228 2.67c.074.125.156.246.239.366a4.079 4.079 0 01.4.667 1.278 1.278 0 01-.087 1.3 1.7 1.7 0 01-.841.464l-.135.043a4.1 4.1 0 00-2.67 3.03c-.032.162-.056.325-.079.488a4.65 4.65 0 01-.2.937 1.47 1.47 0 01-1.126 1.032 1.852 1.852 0 01-1.405-.681 3.022 3.022 0 00-.8-.577 1.672 1.672 0 00-1.632.348 4.146 4.146 0 00-1.03 1.522 1.508 1.508 0 00-.183.711c.047.531.579.76 1.195 1.025a2.376 2.376 0 011.435 1.1.617.617 0 01.018.487.546.546 0 01-.558.3 1.538 1.538 0 01-.4-.058l-3.121-.839a1.333 1.333 0 00.207 1.495c.092.127.192.252.292.378a2.2 2.2 0 01.752 1.731 1.986 1.986 0 00.035.437c.131.558.707.858 1.317 1.176.677.354 1.377.718 1.449 1.484a2.113 2.113 0 01-.2.953 2.4 2.4 0 00-.185.672 1.037 1.037 0 00.3.766 1.112 1.112 0 001.014.356l.216-.049-.019.22a2.251 2.251 0 00.176 1.076 1.529 1.529 0 01.588-.115 1.62 1.62 0 011.387.758c.036.062.069.127.1.192a1.1 1.1 0 00.218.337c.2.184.566.144.974.061a4.256 4.256 0 01.5-.08 3.251 3.251 0 011.671.484 3.01 3.01 0 001.491.454 3.052 3.052 0 001.907-1.321 5.68 5.68 0 00.906-1.279c.033-.072.063-.147.094-.22a2.283 2.283 0 01.336-.626 2.328 2.328 0 01.575-.456c.087-.054.174-.109.256-.168a4.575 4.575 0 00.959-1.065c.157-.215.319-.436.5-.64a2.045 2.045 0 012.187-.791 2.4 2.4 0 011.1 1.244 3.665 3.665 0 00.592.889 3.31 3.31 0 00.754.5c.083.046.167.092.249.14a7.925 7.925 0 011.654 1.322l.118.12-.125.112a10.053 10.053 0 00-1.608 2.156c-.157.255-.313.508-.474.752a12.517 12.517 0 01-5.447 4.573 24.611 24.611 0 01-2.984 1 20.7 20.7 0 00-3.429 1.2c-1.629.8-2.77 2.634-3.394 5.458l-2.056 9.291-.139-.011a5.289 5.289 0 00-1.893.158 8.744 8.744 0 00-.883.33 6.039 6.039 0 01-1.385.446 2.9 2.9 0 01-.449.046zm-5.276-4.032a2.684 2.684 0 011.372.309 3.4 3.4 0 011.154 1.452 6.191 6.191 0 00.52.863 2.874 2.874 0 002.627 1.055 5.758 5.758 0 001.31-.425 8.875 8.875 0 01.916-.341 5.451 5.451 0 011.87-.181l.036-.158 1.956-8.859c.645-2.924 1.846-4.835 3.566-5.679a20.967 20.967 0 013.482-1.224 24.56 24.56 0 002.946-.982 12.187 12.187 0 005.3-4.454c.158-.242.314-.492.469-.745a11 11 0 011.542-2.108 7.409 7.409 0 00-1.464-1.153c-.081-.047-.162-.091-.244-.136a3.6 3.6 0 01-.825-.559 3.912 3.912 0 01-.651-.967 2.135 2.135 0 00-.933-1.1 1.028 1.028 0 00-.394-.077 2.1 2.1 0 00-1.427.782c-.17.194-.328.409-.48.618a4.926 4.926 0 01-1.031 1.136c-.088.063-.181.122-.273.18a1.475 1.475 0 00-.785.93c-.032.078-.065.156-.1.233a6.024 6.024 0 01-.953 1.354 2.537 2.537 0 01-3.787.948 2.961 2.961 0 00-1.5-.452 3.786 3.786 0 00-.459.074 3.205 3.205 0 01-.619.084.9.9 0 01-.635-.222 1.363 1.363 0 01-.291-.434c-.029-.058-.057-.116-.09-.172a1.292 1.292 0 00-1.108-.6 1.177 1.177 0 00-.583.149l-.146.084-.078-.149a2.568 2.568 0 01-.288-1.2 1.435 1.435 0 01-1.116-.478 1.36 1.36 0 01-.383-1.008 2.679 2.679 0 01.2-.765 1.831 1.831 0 00.18-.807c-.056-.591-.649-.9-1.277-1.228-.647-.338-1.316-.687-1.482-1.389a2.27 2.27 0 01-.043-.507 2.691 2.691 0 00-.019-.354 2.6 2.6 0 00-.661-1.178c-.1-.129-.208-.259-.3-.391a1.549 1.549 0 01-.109-1.982l.066-.063 3.3.889a1.238 1.238 0 00.312.047c.213 0 .25-.083.262-.111a.332.332 0 00-.023-.235c-.185-.46-.733-.7-1.263-.924-.651-.281-1.325-.571-1.389-1.294a1.76 1.76 0 01.21-.872 4.421 4.421 0 011.119-1.637 2 2 0 011.961-.4 3.263 3.263 0 01.893.635c.374.335.722.653 1.155.6a1.17 1.17 0 00.857-.82 4.362 4.362 0 00.182-.873c.024-.17.048-.339.082-.507a4.434 4.434 0 012.884-3.273l.139-.045a1.4 1.4 0 00.689-.362.976.976 0 00.04-.966 3.753 3.753 0 00-.366-.613c-.086-.126-.173-.253-.25-.384a3.456 3.456 0 01-.251-2.949.793.793 0 01.267-.392.711.711 0 01.925.259 2.132 2.132 0 01.217.43 2.362 2.362 0 00.146.312 1.125 1.125 0 001.281.442 2.461 2.461 0 00.18-1.63l-.019-.2c-.092-.971.176-1.685.736-1.959a2.088 2.088 0 01.559-.155 1.21 1.21 0 00.591-.209.772.772 0 00.119-.86 2.623 2.623 0 00-.672-.814l-.035-.032-.012-.048a2.317 2.317 0 01.332-2.028 4.478 4.478 0 01.389-.407 2.635 2.635 0 00.506-.586 2.668 2.668 0 00.161-.374c.029-.079.058-.159.092-.236a5.1 5.1 0 01.314-.589c.06-.1.12-.2.177-.307a3.179 3.179 0 00.044-3.146 4.908 4.908 0 00-.417-.54 4.534 4.534 0 01-.5-.678 4.627 4.627 0 01-.458-1.67 5.824 5.824 0 01-.038-2.08c.032-.143.074-.288.116-.434a1.747 1.747 0 00.085-1.193c-.24-.536-1-.641-1.439-.656l-.228-.006a2.034 2.034 0 01-2.094-.881 1.457 1.457 0 00-1.177-.71 4.1 4.1 0 01-.473-.112 1.268 1.268 0 01-.734-.6.683.683 0 01-.037-.551 1.131 1.131 0 01.2-.323l.064-.081a3.041 3.041 0 00.441-1.234c.1-.506.162-1.063-.166-1.361a1.425 1.425 0 00-.493-.246 2.067 2.067 0 01-.51-.236 2.031 2.031 0 01-.668-1.262c-.031-.118-.061-.237-.1-.35a2.891 2.891 0 00-.149-.378.527.527 0 01-.277-.03 3.142 3.142 0 00-.23 1.24 5.8 5.8 0 01-.092.869 5.558 5.558 0 01-.853 1.787 4.683 4.683 0 00-.831 1.838l-.013.105a1.127 1.127 0 01-.448.887 2.033 2.033 0 00-.2.206 1.984 1.984 0 00-.3.71 2.485 2.485 0 01-.306.762 2.526 2.526 0 01-.414.439 1.443 1.443 0 00-.447.554 1.538 1.538 0 00-.058.332 1.135 1.135 0 01-.194.62 1.334 1.334 0 01-.714.395.949.949 0 00-.537.284c.045 1.006-.035 1.521-.272 1.769-.193.2-.516.191-.9.122-.1-.017-.2-.036-.308-.05-1.054-.124-2.8-1.184-4.34-2.12a10.886 10.886 0 00-2.652-1.381h-.116c-.58 0-1.959.254-2.247 2.608-.13 1.07-.3 3.955-.476 7.01-.187 3.219-.381 6.548-.547 8.018l-.025.069a6.753 6.753 0 01-1 1.125 5.317 5.317 0 00-1.18 1.438c-.078 3.892-.819 11.117-5.658 34.982-.512 2.524-1.117 5.321-1.8 8.318a4.933 4.933 0 011.471.519 7.516 7.516 0 01.769.537 1.89 1.89 0 002.828.262c.107-.07.214-.14.323-.206a4.81 4.81 0 012.486-.672 4.885 4.885 0 012.905.935l.074.056a1.535 1.535 0 00.413.251 1.659 1.659 0 00.571.032l1.9-.124c.216-.002.433-.015.65-.015z" /></g><g ><path fill="#404040" d="M196.484-377.889a1.944 1.944 0 01-1.349-1.227c-.509-1.456.22-1.959.794-2.58a5.479 5.479 0 00-4.136-9.2 1.2 1.2 0 01-.886-.191 1.075 1.075 0 01-.244-.514 3.215 3.215 0 01.1-2.738 5.318 5.318 0 01.828-.76c1.617-1.42 1.765-3.987.93-5.97a15.619 15.619 0 00-4.009-5 1.54 1.54 0 01-.454-.6c-.247-.752.665-1.323 1.083-1.995a3.522 3.522 0 00.283-2.165c-.065-.807-.158-1.7-.183-2.555a40.948 40.948 0 00-.432-4.6 6.091 6.091 0 01.469-4.2 7.8 7.8 0 011.784-1.783 13.119 13.119 0 003.023-3.263 5.842 5.842 0 00.823-4.281q-3.978 1.995-7.868 4.164a6.368 6.368 0 00-1.93 1.43c-1.276 1.576-.814 3.89-1.31 5.856a7.381 7.381 0 01-3.9 4.579 13.175 13.175 0 01-6.014 1.242 8.193 8.193 0 00-2.582.22 2.554 2.554 0 00-1.6 2.087c-.156 2.581-2.89 4.2-5.35 5.078-2.5.889-5.382 1.784-6.473 4.2q-2.215-2.317-4.6-4.458c-.657 2.934-4.431 4.714-4.305 7.718.058 1.4 1.007 2.693.831 4.08-.184 1.459-1.529 2.469-2.168 3.795-.736 1.527-.476 3.317-.516 5.012s-.612 3.643-2.192 4.257a3.571 3.571 0 00-.928.393c-.881.679-.248 2.168-.769 3.151a2.476 2.476 0 01-2.594.9 6.879 6.879 0 00-2.894-.168c-1.908.58-2.442 3.27-4.288 4.022-1.535.625-3.345-.351-4.917.175-.575.193-1.069.575-1.634.8a4.1 4.1 0 01-3.969-.835 9.066 9.066 0 01-2.375-3.48c-.439-1-.927-2.152-1.965-2.5a3.654 3.654 0 00-1.52-.067l-9.777.949a3.05 3.05 0 00-1.4.367 5.126 5.126 0 01-.808.58 1.958 1.958 0 01-1.056.012 39.243 39.243 0 00-12.39-.092.961.961 0 00-1.016.917c-.946 4.082-1.763 8.363-2.663 12.456q-.534 2.428-1.067 4.855-.271 1.23-.54 2.458-.433 1.965-.864 3.93c-.068.312-.113.7.138.894a.9.9 0 00.511.132 10.809 10.809 0 011.447.186 1.034 1.034 0 01.545.23 1.1 1.1 0 01.213.82l-.028 2.119a1.758 1.758 0 01-.224 1.019 1.1 1.1 0 01-.5.374 3.25 3.25 0 01.216.517c.169.548.234 1.2.7 1.528.31.218.738.239 1.018.495a1.6 1.6 0 01.216 1.513 3.138 3.138 0 01-.47 1.3 1.5 1.5 0 00-.245.363c-.148.4.259.809.669.941a4.882 4.882 0 011.233.364c.376.245.565.7.919.974a2.989 2.989 0 001.777.364 1.706 1.706 0 011.582.751c.242.54-.063 1.15-.191 1.728a5.725 5.725 0 00.041 2.023 4.455 4.455 0 00.438 1.612c.252.441.646.783.918 1.212a3.344 3.344 0 01-.038 3.309c-.16.3-.352.574-.484.883a6.407 6.407 0 01-.259.626 8.021 8.021 0 01-.911 1.016 2.192 2.192 0 00-.3 1.888 2.7 2.7 0 01.71.869.924.924 0 01-.161 1.045c-.317.275-.808.2-1.185.388-.61.3-.71 1.122-.646 1.8a2.821 2.821 0 01-.218 1.975 1.26 1.26 0 01-1.523-.491c-.14-.233-.2-.509-.357-.732a.544.544 0 00-.7-.22.647.647 0 00-.208.317 3.315 3.315 0 00.239 2.81 9.676 9.676 0 01.626 1.016 1.114 1.114 0 01-.063 1.133 1.853 1.853 0 01-.9.457 4.285 4.285 0 00-2.778 3.151 9.877 9.877 0 01-.271 1.4 1.311 1.311 0 01-.991.926c-.838.093-1.347-.926-2.127-1.247a1.821 1.821 0 00-1.8.374A4.251 4.251 0 0081-307.697a1.627 1.627 0 00-.2.792c.1 1.188 2.194 1.067 2.641 2.172a.471.471 0 01.021.361c-.116.26-.489.229-.764.155l-3.215-.865c-.467.447-.249 1.245.129 1.771a4.135 4.135 0 01.993 1.641c.041.281-.005.571.06.847.3 1.293 2.637 1.316 2.763 2.639.052.549-.348 1.048-.385 1.6a1.3 1.3 0 001.509 1.29 2.393 2.393 0 00.262 1.307 1.459 1.459 0 011.911.508 2.223 2.223 0 00.35.567c.409.37 1.044.063 1.594.023 1.11-.083 2.049 1.007 3.16.938a3.194 3.194 0 002.019-1.378 5.852 5.852 0 00.93-1.317 3.453 3.453 0 01.407-.811 3.979 3.979 0 01.8-.6 10.221 10.221 0 001.484-1.729 1.9 1.9 0 012-.749c.835.342.992 1.467 1.636 2.1a4.941 4.941 0 001.036.669 7.77 7.77 0 011.619 1.3 3.35 3.35 0 011.228-.745c2.19-.708 4.225 1.262 5.905 2.835a10.856 10.856 0 005.745 3.156c3.93.527 8.221-2.306 11.67-.352 1.891 1.072 2.823 3.3 3.176 5.443s.263 4.354.758 6.47c.44 1.88 1.75 3.913 3.68 3.874a13.969 13.969 0 002.388-.579c3.047-.608 5.634 2.194 8.6 3.111a9.244 9.244 0 001.749.343c.015-.335.032-.67.047-1.006a1.353 1.353 0 01.211-.8c.158-.2.413-.29.591-.469a1.685 1.685 0 00.255-1.416l-.324-2.647a.787.787 0 01.1-.628c.307-.343.92.05 1.326-.167s.307-.8.159-1.232-.235-1.02.166-1.229c.109-.057.235-.07.348-.12a.6.6 0 00.008-1.038c-.21-.1-.474-.065-.657-.206a.717.717 0 01-.224-.415c-.291-1.208.412-2.413 1.114-3.439a2.706 2.706 0 00.464-.9.944.944 0 00-.42-1.01 2.672 2.672 0 01-.788-.466c-.264-.3-.2-.788-.454-1.1-.383-.471-1.225-.261-1.636-.707a.976.976 0 01.152-1.294 3.3 3.3 0 011.273-.648c.387-.137.85-.469.69-.847a1 1 0 00-.343-.349 1.872 1.872 0 01-.549-2.115c.4-.284.8.534 1.292.511a.825.825 0 00.355-.135 4.17 4.17 0 001.2-.892 1.416 1.416 0 00.295-1.4 3.947 3.947 0 00-.69-.87 2.285 2.285 0 01.129-2.924 1.577 1.577 0 00.39-.478c.156-.4-.162-.825-.5-1.081s-.757-.474-.919-.871c-.21-.515.1-1.094.052-1.649-.09-1.119-1.575-1.869-.526-3.281a3.13 3.13 0 011.143-.9 12.962 12.962 0 003.146-2.207 2.388 2.388 0 00.728-1.033c.211-.761-.286-1.61 0-2.345a2.091 2.091 0 011.657-1.057 4.158 4.158 0 001.928-.632c.3-.245.5-.586.778-.848a4.733 4.733 0 012.807-.831 12.821 12.821 0 006.461-2.694 1.792 1.792 0 011.321-1.473 5.226 5.226 0 012.089-.074.86.86 0 00.467-.039c.234-.114.312-.4.373-.659a11.833 11.833 0 01.927-2.546 2.522 2.522 0 01.454-.684 2.826 2.826 0 011.3-.6l3.777-1a5.244 5.244 0 001.6-.619 4.481 4.481 0 001.018-1.028l2.25-2.972c.737-.979 1.489-1.95 2.171-2.968.866-1.293 1.617-2.659 2.367-4.022 1.48-2.692 2.648-5.524 4.5-7.978a8.689 8.689 0 001.163-1.849 2.925 2.925 0 00.123-2.135c-.354-.932-1.281-1.5-1.932-2.252a8.3 8.3 0 01-1.521-4.87q-.191-2.4-.2-4.815a6.34 6.34 0 00-.609-3.371 2.692 2.692 0 01-.379-.69 1.924 1.924 0 01.031-.836 28.59 28.59 0 00.435-4.007 2.588 2.588 0 00-.067-.854 10.578 10.578 0 00-.574-1.091 1.92 1.92 0 011.563-2.56 1.115 1.115 0 01.49.062 2.545 2.545 0 01.422.257 3.829 3.829 0 001.9.481 2.647 2.647 0 001.109-.111 1.02 1.02 0 00.682-.816 1.087 1.087 0 00-.66-.995z" /><path fill="#fff" d="M148.829-270.747l-.171-.018a9.445 9.445 0 01-1.78-.35 16.57 16.57 0 01-3.163-1.509 9.58 9.58 0 00-4.523-1.68 4.284 4.284 0 00-.838.083 8.248 8.248 0 00-.9.253 5.3 5.3 0 01-1.515.328h-.058c-1.966 0-3.317-2.009-3.782-4a24.058 24.058 0 01-.47-3.7c-.069-.917-.14-1.865-.291-2.782-.242-1.473-.966-4.122-3.1-5.329a5.527 5.527 0 00-2.794-.676 18.378 18.378 0 00-3.757.545 19.507 19.507 0 01-4 .571 8.018 8.018 0 01-1.063-.069 10.844 10.844 0 01-5.833-3.2l-.115-.108c-1.417-1.328-3.024-2.833-4.744-2.833a2.88 2.88 0 00-.886.14 3.184 3.184 0 00-1.169.711l-.114.1-.109-.111a7.625 7.625 0 00-1.586-1.269c-.081-.047-.162-.091-.244-.136a3.577 3.577 0 01-.825-.558 3.918 3.918 0 01-.651-.967 2.133 2.133 0 00-.933-1.1 1.027 1.027 0 00-.394-.076 2.1 2.1 0 00-1.427.781c-.17.194-.328.409-.48.618a4.925 4.925 0 01-1.031 1.136c-.088.063-.181.122-.273.18a1.476 1.476 0 00-.785.93c-.032.078-.065.156-.1.233a6.02 6.02 0 01-.953 1.354 2.537 2.537 0 01-3.787.948 2.962 2.962 0 00-1.5-.452 3.788 3.788 0 00-.459.074 3.2 3.2 0 01-.619.084.9.9 0 01-.635-.222 1.361 1.361 0 01-.291-.434c-.029-.058-.058-.116-.091-.172a1.292 1.292 0 00-1.108-.6 1.177 1.177 0 00-.583.149l-.146.084-.078-.149a2.57 2.57 0 01-.288-1.2 1.435 1.435 0 01-1.116-.478 1.36 1.36 0 01-.383-1.008 2.68 2.68 0 01.2-.765 1.833 1.833 0 00.18-.807c-.056-.591-.649-.9-1.277-1.228-.648-.338-1.317-.687-1.482-1.389a2.236 2.236 0 01-.043-.507 2.675 2.675 0 00-.019-.354 2.6 2.6 0 00-.661-1.178c-.1-.129-.208-.259-.3-.391a1.549 1.549 0 01-.109-1.982l.066-.063 3.3.889a1.238 1.238 0 00.312.047c.213 0 .25-.083.262-.111a.332.332 0 00-.023-.235c-.186-.46-.733-.7-1.263-.924-.651-.281-1.325-.571-1.389-1.294a1.759 1.759 0 01.21-.872 4.42 4.42 0 011.119-1.637 2 2 0 011.961-.4 3.264 3.264 0 01.893.635c.374.335.722.653 1.154.6a1.17 1.17 0 00.857-.82 4.36 4.36 0 00.182-.873c.024-.17.048-.339.082-.507a4.434 4.434 0 012.884-3.273l.139-.045a1.4 1.4 0 00.689-.362.976.976 0 00.04-.966 3.756 3.756 0 00-.366-.613c-.086-.126-.173-.253-.25-.384a3.456 3.456 0 01-.251-2.949.793.793 0 01.267-.392.711.711 0 01.925.259 2.122 2.122 0 01.217.43 2.361 2.361 0 00.146.312 1.126 1.126 0 001.281.441 2.46 2.46 0 00.18-1.63l-.019-.2c-.092-.971.176-1.685.736-1.959a2.085 2.085 0 01.559-.155 1.211 1.211 0 00.591-.209.771.771 0 00.119-.86 2.622 2.622 0 00-.672-.814l-.035-.032-.012-.048a2.317 2.317 0 01.332-2.028 4.445 4.445 0 01.389-.407 1.946 1.946 0 00.666-.961c.029-.08.058-.159.092-.236a5.2 5.2 0 01.314-.589c.06-.1.12-.2.177-.307a3.179 3.179 0 00.044-3.146 4.905 4.905 0 00-.417-.54 4.522 4.522 0 01-.5-.678 4.624 4.624 0 01-.458-1.67 5.826 5.826 0 01-.038-2.08c.032-.143.074-.288.116-.434a1.747 1.747 0 00.085-1.193c-.24-.536-1-.641-1.439-.656l-.228-.006a2.034 2.034 0 01-2.094-.881 2.01 2.01 0 00-.457-.476 1.99 1.99 0 00-.72-.234 4.108 4.108 0 01-.473-.112 1.268 1.268 0 01-.734-.6.684.684 0 01-.037-.551 1.129 1.129 0 01.2-.323l.064-.081a3.044 3.044 0 00.441-1.234c.1-.506.162-1.063-.166-1.361a1.426 1.426 0 00-.493-.246 2.066 2.066 0 01-.51-.236 2.031 2.031 0 01-.668-1.262c-.031-.118-.061-.237-.1-.35a3.072 3.072 0 00-.206-.491l-.085-.167.178-.059a.933.933 0 00.423-.315 1.605 1.605 0 00.193-.926l.028-2.12a.972.972 0 00-.165-.7.9.9 0 00-.463-.187 10.677 10.677 0 00-1.426-.183 1.032 1.032 0 01-.6-.166c-.365-.287-.242-.846-.2-1.056l2.471-11.243c.375-1.709.743-3.483 1.1-5.2.5-2.4 1.012-4.881 1.563-7.26a1.424 1.424 0 01.313-.7 1.4 1.4 0 01.835-.337 39.584 39.584 0 0112.441.092 1.979 1.979 0 00.97 0 1.75 1.75 0 00.458-.315 3.472 3.472 0 01.322-.25 3.18 3.18 0 011.471-.393l9.777-.949c.23-.022.491-.047.751-.047a2.587 2.587 0 01.837.122c1.089.366 1.594 1.522 2.04 2.541l.021.048a9.018 9.018 0 002.329 3.42 3.976 3.976 0 003.809.809 6.057 6.057 0 00.731-.365 5.61 5.61 0 01.911-.433 3.64 3.64 0 011.165-.171 11.182 11.182 0 011.3.1 10.758 10.758 0 001.254.1 3.079 3.079 0 001.189-.2 5.1 5.1 0 001.992-1.937 4.816 4.816 0 012.317-2.076 5.176 5.176 0 012.281.049c.228.041.456.083.682.114a4.21 4.21 0 00.56.038 2.055 2.055 0 001.869-.851 3.121 3.121 0 00.225-1.379 2.153 2.153 0 01.587-1.824 2.233 2.233 0 01.7-.322c.091-.03.182-.059.269-.093 1.865-.725 2.071-3.33 2.089-4.111.01-.391 0-.787 0-1.184a8.508 8.508 0 01.537-3.894 8.892 8.892 0 01.966-1.467 4.947 4.947 0 001.187-2.278 4.961 4.961 0 00-.4-2.189 6.827 6.827 0 01-.437-1.864c-.071-1.705 1.074-3.039 2.182-4.329a8.486 8.486 0 002.127-3.431l.061-.269.2.184c1.53 1.371 3.028 2.816 4.453 4.3 1.12-2.185 3.725-3.1 6.03-3.918l.432-.153c1.887-.672 5.078-2.206 5.242-4.937a2.7 2.7 0 011.718-2.228 6 6 0 011.919-.233h.714a12.85 12.85 0 005.941-1.224 7.239 7.239 0 003.812-4.475 12.836 12.836 0 00.282-2.144 6.529 6.529 0 011.059-3.774 6.606 6.606 0 011.977-1.469c2.576-1.436 5.225-2.838 7.873-4.167l.183-.091.047.2a6.02 6.02 0 01-.842 4.4 13.281 13.281 0 01-3.065 3.313l-.166.136a7.021 7.021 0 00-1.588 1.612 5.765 5.765 0 00-.447 4.089 41.122 41.122 0 01.435 4.625c.019.65.076 1.317.132 1.964l.051.582a3.722 3.722 0 01-.308 2.263 4.739 4.739 0 01-.493.621c-.368.414-.715.805-.573 1.239a1.42 1.42 0 00.412.532 15.869 15.869 0 014.046 5.053c.785 1.864.815 4.585-.972 6.155-.083.072-.17.142-.256.213a2.981 2.981 0 00-.548.522 3.075 3.075 0 00-.069 2.6.943.943 0 00.2.44.809.809 0 00.567.149h.308a5.64 5.64 0 014.153 9.468c-.064.07-.131.139-.2.208a1.925 1.925 0 00.677 3.333 1.242 1.242 0 01.775 1.159 1.169 1.169 0 01-.785.955 2.258 2.258 0 01-.832.133c-.115 0-.23 0-.343-.011a4 4 0 01-1.974-.507c-.039-.025-.077-.052-.116-.078a1.46 1.46 0 00-.278-.165.971.971 0 00-.42-.051 1.76 1.76 0 00-1.414 2.33 3.4 3.4 0 00.246.442 2.866 2.866 0 01.334.666 2.73 2.73 0 01.074.906 28.806 28.806 0 01-.437 4.03 1.819 1.819 0 00-.034.766 1.731 1.731 0 00.255.484c.036.054.071.107.105.162a6.314 6.314 0 01.633 3.385v.071c.007 1.6.074 3.213.2 4.8a8.179 8.179 0 001.482 4.777 9.1 9.1 0 00.7.7 4.462 4.462 0 011.265 1.6 3.066 3.066 0 01-.125 2.254 8.8 8.8 0 01-1.184 1.884 35.959 35.959 0 00-3.184 5.462c-.416.822-.846 1.671-1.3 2.5-.74 1.345-1.5 2.735-2.374 4.034-.568.847-1.193 1.672-1.8 2.471l-2.631 3.477a4.651 4.651 0 01-1.057 1.065 5.437 5.437 0 01-1.649.641l-3.778 1a2.7 2.7 0 00-1.229.558 2.4 2.4 0 00-.422.641 11.675 11.675 0 00-.915 2.511 1.051 1.051 0 01-.458.767 1.082 1.082 0 01-.554.055c-.3-.03-.673-.067-1.025-.067a3.32 3.32 0 00-1 .134 1.649 1.649 0 00-1.208 1.328v.074l-.058.045a12.973 12.973 0 01-6.542 2.726l-.334.036a3.989 3.989 0 00-2.381.753 3.864 3.864 0 00-.334.373 3.355 3.355 0 01-.451.482 3.452 3.452 0 01-1.677.606l-.323.059c-.834.163-1.352.485-1.538.957a2.207 2.207 0 00-.012 1.14 2.82 2.82 0 01.015 1.19 2.538 2.538 0 01-.773 1.107 13.032 13.032 0 01-3.185 2.234 2.956 2.956 0 00-1.086.849c-.611.823-.288 1.369.088 2a2.769 2.769 0 01.47 1.169 2.894 2.894 0 01-.063.723 1.606 1.606 0 000 .877 1.653 1.653 0 00.651.649c.073.05.146.1.215.153a1.164 1.164 0 01.558 1.27 1.336 1.336 0 01-.339.447l-.086.086a2.129 2.129 0 00-.118 2.71c.072.089.152.173.232.257a2.209 2.209 0 01.48.653 1.571 1.571 0 01-.319 1.562 4.345 4.345 0 01-1.241.93.961.961 0 01-.428.156 1.183 1.183 0 01-.725-.346.876.876 0 00-.392-.229.125.125 0 00-.049.01 1.714 1.714 0 00.52 1.878l.065.05a.93.93 0 01.326.363.559.559 0 01-.006.449 1.358 1.358 0 01-.78.614l-.12.042a2.866 2.866 0 00-1.094.568.822.822 0 00-.147 1.07 1.3 1.3 0 00.723.291 1.458 1.458 0 01.92.423 1.475 1.475 0 01.251.6 1.154 1.154 0 00.2.489 1.357 1.357 0 00.476.3c.09.041.182.083.27.132a1.111 1.111 0 01.5 1.186 2.811 2.811 0 01-.485.948 4.387 4.387 0 00-1.093 3.314.56.56 0 00.165.325.7.7 0 00.3.1 1.275 1.275 0 01.327.09.762.762 0 01-.011 1.332 1.3 1.3 0 01-.182.061.873.873 0 00-.157.054c-.35.182-.155.836-.087 1.033.24.7.155 1.218-.236 1.427a1.3 1.3 0 01-.731.063c-.238-.029-.454-.039-.551.07a.666.666 0 00-.061.5l.323 2.648a1.86 1.86 0 01-.3 1.549 1.76 1.76 0 01-.3.227.862.862 0 00-.458.937zm-9.636-3.88a9.958 9.958 0 014.683 1.722 16.281 16.281 0 003.1 1.482 8.857 8.857 0 001.548.317l.039-.833a1.506 1.506 0 01.245-.9 1.478 1.478 0 01.358-.3 1.111 1.111 0 00.453-1.467l-.323-2.648a.918.918 0 01.141-.755.649.649 0 01.515-.2 2.582 2.582 0 01.315.026 1.016 1.016 0 00.54-.026c.335-.18.17-.785.083-1.037-.241-.7-.152-1.219.244-1.425a1.136 1.136 0 01.219-.079 1.032 1.032 0 00.138-.045.443.443 0 00.006-.743 1.036 1.036 0 00-.248-.065.983.983 0 01-.44-.16.872.872 0 01-.283-.5c-.3-1.239.371-2.448 1.138-3.568a2.574 2.574 0 00.439-.841.777.777 0 00-.341-.832c-.08-.045-.163-.083-.246-.12a1.609 1.609 0 01-.584-.381 1.4 1.4 0 01-.27-.624.849.849 0 00-.921-.788 1.55 1.55 0 01-.9-.388 1.137 1.137 0 01.157-1.519 3.1 3.1 0 011.215-.643l.118-.042a1.067 1.067 0 00.592-.44.23.23 0 000-.193.677.677 0 00-.225-.231l-.07-.054a2.045 2.045 0 01-.6-2.3l.018-.043.039-.027a.462.462 0 01.271-.089 1.036 1.036 0 01.593.3.96.96 0 00.5.271.686.686 0 00.3-.114 4.022 4.022 0 001.151-.855 1.247 1.247 0 00.271-1.232 1.925 1.925 0 00-.417-.555c-.085-.091-.171-.181-.249-.277a2.432 2.432 0 01.138-3.138l.092-.092a1.055 1.055 0 00.264-.333c.123-.318-.166-.68-.451-.893-.067-.05-.137-.1-.207-.147a1.906 1.906 0 01-.765-.792 1.872 1.872 0 01-.02-1.055 2.607 2.607 0 00.06-.642 2.509 2.509 0 00-.426-1.03 1.844 1.844 0 01-.07-2.359 3.253 3.253 0 011.2-.945 12.732 12.732 0 003.105-2.179 2.2 2.2 0 00.684-.959 2.526 2.526 0 00-.022-1.055 2.465 2.465 0 01.031-1.307 2.166 2.166 0 011.777-1.156c.108-.021.218-.041.328-.06a3.233 3.233 0 001.527-.537 3.156 3.156 0 00.407-.438 4.3 4.3 0 01.363-.4 4.225 4.225 0 012.568-.838l.332-.036a12.641 12.641 0 006.324-2.617 1.969 1.969 0 011.428-1.542 3.623 3.623 0 011.1-.15c.368 0 .75.038 1.057.069a.824.824 0 00.381-.024c.162-.08.227-.306.286-.551a11.963 11.963 0 01.94-2.581 2.729 2.729 0 01.485-.727 2.988 2.988 0 011.373-.639l3.778-1a5.1 5.1 0 001.552-.6 4.255 4.255 0 00.98-.992l2.63-3.477c.6-.794 1.222-1.616 1.785-2.455.863-1.288 1.624-2.672 2.36-4.01.451-.82.88-1.667 1.294-2.486a36.052 36.052 0 013.216-5.511 8.643 8.643 0 001.144-1.814 2.755 2.755 0 00.121-2.016 4.17 4.17 0 00-1.183-1.481 9.417 9.417 0 01-.721-.723 8.449 8.449 0 01-1.559-4.962c-.127-1.6-.194-3.222-.2-4.827v-.083a6.08 6.08 0 00-.584-3.215c-.032-.052-.067-.1-.1-.154a1.963 1.963 0 01-.3-.579 2.036 2.036 0 01.026-.894 28.557 28.557 0 00.435-4 2.436 2.436 0 00-.059-.8 2.6 2.6 0 00-.3-.59 3.916 3.916 0 01-.267-.483 2.081 2.081 0 011.689-2.782 1.313 1.313 0 01.56.073 1.728 1.728 0 01.343.2l.108.072a3.725 3.725 0 001.816.456c.108.006.217.01.326.01a1.946 1.946 0 00.714-.111.868.868 0 00.581-.677.935.935 0 00-.536-.824 2.247 2.247 0 01-.826-3.871c.065-.067.13-.133.193-.2a5.318 5.318 0 00-3.916-8.926h-.308a1.091 1.091 0 01-.791-.24 1.206 1.206 0 01-.287-.588 3.326 3.326 0 01.122-2.876 3.272 3.272 0 01.6-.581c.083-.067.166-.134.246-.2 1.667-1.464 1.629-4.026.888-5.786a15.629 15.629 0 00-3.97-4.945 1.677 1.677 0 01-.5-.666c-.2-.61.227-1.09.639-1.554a4.558 4.558 0 00.461-.577 3.358 3.358 0 00.266-2.064l-.05-.58c-.057-.652-.115-1.325-.134-1.983a40.641 40.641 0 00-.43-4.581 6.3 6.3 0 01.492-4.312 7.229 7.229 0 011.657-1.691l.164-.135a12.987 12.987 0 002.988-3.221 5.79 5.79 0 00.848-3.96c-2.583 1.3-5.163 2.666-7.674 4.066a6.233 6.233 0 00-1.883 1.39 6.2 6.2 0 00-.989 3.595 12.914 12.914 0 01-.291 2.2 7.561 7.561 0 01-3.979 4.684 13.121 13.121 0 01-6.065 1.26h-.735a5.737 5.737 0 00-1.818.216 2.388 2.388 0 00-1.49 1.944c-.176 2.915-3.495 4.523-5.457 5.221l-.433.153c-2.319.818-4.947 1.746-5.947 3.959l-.1.218-.166-.173c-1.406-1.471-2.884-2.907-4.4-4.272a9.409 9.409 0 01-2.13 3.308c-1.117 1.3-2.17 2.526-2.1 4.1a6.614 6.614 0 00.42 1.775 5.283 5.283 0 01.41 2.332 5.26 5.26 0 01-1.25 2.433 8.59 8.59 0 00-.932 1.412 8.266 8.266 0 00-.5 3.748c.007.4.014.8 0 1.2-.053 2.22-.911 3.867-2.295 4.4-.094.037-.19.068-.286.1a1.955 1.955 0 00-.6.271c-.439.338-.45.939-.462 1.574a3.338 3.338 0 01-.263 1.524 2.354 2.354 0 01-2.154 1.023 4.548 4.548 0 01-.6-.041c-.231-.032-.463-.074-.7-.115a4.874 4.874 0 00-2.13-.058 4.52 4.52 0 00-2.142 1.969 5.326 5.326 0 01-2.132 2.048 3.423 3.423 0 01-1.311.229 11.1 11.1 0 01-1.292-.1 10.841 10.841 0 00-1.26-.1 3.32 3.32 0 00-1.063.154 5.249 5.249 0 00-.856.41 6.447 6.447 0 01-.771.383 4.3 4.3 0 01-4.13-.861 9.3 9.3 0 01-2.422-3.54l-.021-.048c-.419-.958-.894-2.045-1.847-2.365a2.3 2.3 0 00-.734-.1c-.245 0-.5.024-.719.046l-9.777.949a2.935 2.935 0 00-1.326.342 2.817 2.817 0 00-.288.226 2.033 2.033 0 01-.547.369 2.322 2.322 0 01-1.145.022 39.257 39.257 0 00-12.338-.092 1.132 1.132 0 00-.653.242 1.172 1.172 0 00-.231.551c-.549 2.376-1.063 4.855-1.561 7.253-.355 1.716-.724 3.491-1.1 5.2l-2.47 11.235c-.085.39-.06.622.08.732a.775.775 0 00.417.1 10.977 10.977 0 011.474.189 1.182 1.182 0 01.627.273 1.237 1.237 0 01.261.937l-.028 2.119a1.914 1.914 0 01-.254 1.112 1.281 1.281 0 01-.415.359 3.173 3.173 0 01.151.389c.038.119.069.242.1.365a1.276 1.276 0 00.973 1.274 1.689 1.689 0 01.6.311 1.712 1.712 0 01.266 1.664 3.285 3.285 0 01-.5 1.365l-.071.09a.886.886 0 00-.152.231.369.369 0 00.024.3.949.949 0 00.543.433 3.851 3.851 0 00.436.1 1.758 1.758 0 011.371.829 2.354 2.354 0 00.393.432 2.434 2.434 0 001.453.325l.231.006a1.851 1.851 0 011.724.847 2.017 2.017 0 01-.07 1.416c-.04.138-.081.276-.111.412a5.587 5.587 0 00.043 1.965 4.357 4.357 0 00.418 1.555 4.223 4.223 0 00.471.629 5.35 5.35 0 01.443.576 3.5 3.5 0 01-.033 3.472c-.057.108-.12.213-.182.319a4.875 4.875 0 00-.295.551c-.031.072-.058.147-.086.221a2.247 2.247 0 01-.745 1.082 4.2 4.2 0 00-.363.377 2.009 2.009 0 00-.279 1.7 2.738 2.738 0 01.713.891 1.084 1.084 0 01-.2 1.23 1.463 1.463 0 01-.745.284 1.8 1.8 0 00-.475.128c-.612.3-.593 1.244-.555 1.637l.019.2a2.64 2.64 0 01-.268 1.891l-.026.035-.039.017a1.311 1.311 0 01-.517.1 1.424 1.424 0 01-1.208-.659 2.5 2.5 0 01-.169-.355 1.885 1.885 0 00-.182-.367c-.12-.169-.353-.265-.477-.18a.512.512 0 00-.149.241 3.173 3.173 0 00.228 2.67c.074.125.156.246.238.366a4.068 4.068 0 01.4.667 1.278 1.278 0 01-.087 1.3 1.694 1.694 0 01-.841.464l-.134.043a4.1 4.1 0 00-2.67 3.03c-.032.162-.056.325-.079.488a4.644 4.644 0 01-.2.937 1.47 1.47 0 01-1.126 1.032 1.858 1.858 0 01-1.405-.681 3.022 3.022 0 00-.8-.577 1.672 1.672 0 00-1.632.348 4.146 4.146 0 00-1.03 1.522 1.511 1.511 0 00-.183.711c.047.531.579.76 1.195 1.025a2.376 2.376 0 011.435 1.1.618.618 0 01.018.487.546.546 0 01-.558.3 1.542 1.542 0 01-.4-.058l-3.121-.839a1.333 1.333 0 00.208 1.495c.092.127.192.252.292.377a2.864 2.864 0 01.729 1.334 2.909 2.909 0 01.023.4 1.981 1.981 0 00.035.437c.131.558.707.858 1.317 1.176.677.354 1.377.718 1.449 1.484a2.114 2.114 0 01-.2.953 2.4 2.4 0 00-.185.672 1.038 1.038 0 00.3.766 1.112 1.112 0 001.014.356l.216-.048-.019.22a2.251 2.251 0 00.176 1.076 1.529 1.529 0 01.588-.115 1.619 1.619 0 011.387.758c.036.062.068.127.1.192a1.116 1.116 0 00.218.337c.2.184.567.143.974.061a4.133 4.133 0 01.5-.08 3.274 3.274 0 011.671.484 3.01 3.01 0 001.491.454 3.051 3.051 0 001.907-1.321 5.68 5.68 0 00.906-1.279c.033-.072.063-.147.094-.22a2.287 2.287 0 01.336-.626 2.325 2.325 0 01.575-.456c.087-.054.174-.109.256-.168a4.574 4.574 0 00.959-1.065c.157-.215.319-.436.5-.64a2.045 2.045 0 012.187-.791 2.4 2.4 0 011.1 1.244 3.668 3.668 0 00.592.89 3.308 3.308 0 00.755.5c.083.046.167.092.249.14a7.731 7.731 0 011.546 1.214 3.406 3.406 0 011.171-.677 3.2 3.2 0 01.986-.156c1.848 0 3.5 1.551 4.965 2.921l.114.107a10.547 10.547 0 005.656 3.113 7.818 7.818 0 001.021.065 19.25 19.25 0 003.93-.564 18.916 18.916 0 013.824-.552 5.831 5.831 0 012.953.719c2.247 1.273 3 4.028 3.256 5.557.153.931.225 1.887.293 2.811a23.931 23.931 0 00.462 3.648c.437 1.867 1.679 3.751 3.468 3.751h.051a4.964 4.964 0 001.423-.313 8.679 8.679 0 01.938-.263 4.617 4.617 0 01.891-.087z" /></g></g></g><g  transform="translate(-214 -214)"><circle cx="33.5" cy="33.5" r="33.5" fill="#1ad5ff"  opacity=".583" transform="translate(234 227)"/><circle cx="46.5" cy="46.5" r="46.5" fill="#1ad5ff"  opacity=".269" transform="translate(221 214)"/><g filter="url(#b)" transform="translate(214 214)"><circle cx="14" cy="14" r="14" fill="#00d1ff"  transform="translate(39 33)"/></g></g></svg>
