<svg width="65" height="65" viewBox="0 0 65 65" xmlns="http://www.w3.org/2000/svg">
    <g fill-rule="nonzero" fill="none">
        <path d="M63.731 32.5c0 17.248-13.983 31.231-31.231 31.231S1.27 49.748 1.27 32.5 15.252 1.27 32.5 1.27 63.731 15.252 63.731 32.5z" fill="#CBE558"/>
        <path fill="#FFF" d="M43.376 17.754 28.247 32.883l-6.622-6.623-7.182 7.182 6.622 6.623 7.182 7.18 22.31-22.31z"/>
        <path d="M28.247 48.515a1.27 1.27 0 0 1-.898-.371L13.545 34.34a1.27 1.27 0 0 1 0-1.796l7.182-7.181a1.27 1.27 0 0 1 1.795 0l5.725 5.725 14.23-14.232a1.27 1.27 0 0 1 1.796 0l7.182 7.182a1.27 1.27 0 0 1 0 1.795l-22.31 22.311c-.238.238-.561.371-.898.371zM16.24 33.442l12.008 12.009 20.515-20.515-5.386-5.387L29.145 33.78a1.27 1.27 0 0 1-1.796 0l-5.724-5.724-5.386 5.386z" fill="#000"/>
        <path d="M32.492 65A32.503 32.503 0 0 1 9.52 55.481C3.381 49.343 0 41.181 0 32.5c0-8.68 3.38-16.843 9.519-22.981C15.657 3.381 23.819 0 32.5 0c8.681 0 16.843 3.38 22.981 9.519a32.503 32.503 0 0 1 9.424 20.482c.585 7.64-1.542 15.254-5.99 21.442a1.27 1.27 0 0 1-2.062-1.482c8.598-11.96 7.266-28.213-3.167-38.647-11.682-11.681-30.69-11.681-42.371 0-11.682 11.682-11.682 30.69 0 42.372 10.433 10.433 26.687 11.765 38.647 3.167a1.27 1.27 0 0 1 1.481 2.062A32.496 32.496 0 0 1 32.493 65z" fill="#000"/>
        <path d="M54.584 55.853c-.334 0-.662-.135-.898-.372a1.28 1.28 0 0 1-.372-.897c0-.334.136-.662.372-.898s.564-.372.898-.372c.334 0 .66.136.897.372s.372.564.372.898c0 .334-.135.66-.372.897a1.28 1.28 0 0 1-.897.372z" fill="#000"/>
    </g>
</svg>
