<svg width="76" height="65" viewBox="0 0 76 65" xmlns="http://www.w3.org/2000/svg">
    <g fill="none" fill-rule="evenodd">
        <path d="M32.693 1.098c17.444 0 31.589 14.057 31.589 31.402 0 17.341-14.145 31.402-31.589 31.402-17.449 0-31.589-14.06-31.589-31.402 0-17.345 14.14-31.402 31.59-31.402z" fill="#E1F1FC"/>
        <path d="M27.435 1.531c14.563 2.793 25.567 15.537 25.567 30.831 0 15.562-11.39 28.48-26.335 30.969 1.95.375 3.967.571 6.026.571 17.444 0 31.589-14.06 31.589-31.402 0-17.345-14.145-31.402-31.589-31.402-1.79 0-3.548.146-5.258.433z" fill="#87B7EE"/>
        <path d="M19.706 35.285c1.46 5.085 4.106 9.73 7.04 12.622 1.946 1.918 5.087 3.768 8.27 4.106 1.72.184 3.77-.058 5.305-.746 4.11-1.843 2.071-4.531.188-7.24-2.163-3.32-3.388-4.094-6.05-3.536-1.225.646-3.863-1.676-5.293-5.09a21.702 21.702 0 0 1-1.329-4.506c-.637-3.61.37-6.816 1.782-6.812 2.613-.725 3.25-1.95 3.3-5.806.135-3.093.32-6.45-4.15-6.187-1.707.1-3.62.822-5.008 1.76-2.57 1.734-4.273 4.764-4.902 7.307-.952 3.84-.687 9.063.847 14.128z" fill="#F8F6F6"/>
        <path d="M30.37 18.485c-.03 2.205-1.535 2.089-2.583 2.801-1.92 1.305-3.762 4.148-2.457 11.535.444 2.505 4.151 11.193 8.71 10.563 2.842-.704 3.27 1.134 3.966 2.18 1.816 2.618 2.415 4.165.222 6.324a8.979 8.979 0 0 0 2.093-.621c4.11-1.843 2.071-4.531.188-7.24-2.163-3.32-3.388-4.094-6.05-3.536-1.225.646-3.863-1.676-5.293-5.09a21.702 21.702 0 0 1-1.329-4.506c-.637-3.61.37-6.816 1.782-6.812 2.613-.725 3.25-1.95 3.3-5.806.135-3.093.32-6.45-4.15-6.187-1.18.067-2.45.434-3.582.96.36-.072.721-.117 1.074-.138 4.47-.263 4.243 2.48 4.109 5.573z" fill="#E2E2E2"/>
        <path d="M39.994 15.363c0 4.577 2.608 8.65 6.659 11.25h-.004l-.692 5.758v.258c0 .304.214.625.683.221.176-.154.206-.188.541-.484l4.55-3.505a19.72 19.72 0 0 0 3.342.62c.68.072 1.371.105 2.072.105 9.473 0 17.15-6.365 17.15-14.223 0-7.854-7.677-14.223-17.15-14.223-.7 0-1.393.037-2.072.104-8.496.846-15.08 6.845-15.08 14.119z" fill="#FFF"/>
        <path d="M53.56 1.452c9.061.38 16.27 6.595 16.27 14.203 0 4.372-2.378 8.278-6.114 10.888-2.11 1.476-4.655 2.53-7.452 3.026.29.013.583.017.88.017a20.13 20.13 0 0 0 6.87-1.188c6.05-2.197 10.282-7.207 10.282-13.035 0-7.854-7.678-14.223-17.151-14.223a21.188 21.188 0 0 0-3.586.312z" fill="#E2E2E2"/>
        <path d="M65.221 13.168H50.31c-.61 0-1.104-.492-1.104-1.098 0-.607.494-1.098 1.104-1.098h14.912c.61 0 1.105.491 1.105 1.098 0 .606-.495 1.098-1.105 1.098zM65.221 18.966H50.31c-.61 0-1.104-.491-1.104-1.098 0-.606.494-1.098 1.104-1.098h14.912c.61 0 1.105.492 1.105 1.098 0 .607-.495 1.098-1.105 1.098z" fill="#F8F6F6" fill-rule="nonzero"/>
        <g fill="#000" fill-rule="nonzero">
            <path d="M29.656 25.18a1.11 1.11 0 0 0 .26-.039c3.425-.95 4.055-2.962 4.108-6.833l.002-.063c.094-2.149.2-4.584-1.322-6.072-.904-.885-2.25-1.282-4-1.178-1.812.106-3.943.852-5.563 1.946-2.997 2.022-4.731 5.435-5.354 7.954-1.013 4.083-.691 9.577.86 14.698 1.473 5.133 4.21 10.027 7.322 13.094 1.908 1.88 5.256 4.028 8.93 4.418a11.8 11.8 0 0 0 1.25.065c1.641 0 3.331-.322 4.626-.902 1.633-.732 2.588-1.666 2.92-2.856.546-1.958-.804-3.896-2.11-5.77l-.158-.227c-2.142-3.282-3.769-4.717-7.197-3.998a1.103 1.103 0 0 0-.251.085h-.005c-.572 0-2.533-1.526-3.788-4.524a20.612 20.612 0 0 1-1.26-4.273c-.542-3.066.264-5.258.73-5.524zm-1.8-1.304c-1.178 1.39-1.623 4.287-1.107 7.206a22.833 22.833 0 0 0 1.398 4.741c1.164 2.78 3.134 5.07 4.903 5.7.772.275 1.36.18 1.755.018 1.81-.364 2.672-.147 4.778 3.082l.018.027.168.242c1.017 1.458 2.067 2.967 1.797 3.933-.143.515-.715 1-1.699 1.441-1.29.578-3.104.83-4.733.655-3.11-.33-6.043-2.25-7.61-3.794-2.856-2.815-5.381-7.354-6.755-12.144l-.005-.015c-1.443-4.763-1.755-9.828-.832-13.548.501-2.027 1.967-4.987 4.45-6.662 1.29-.872 3.037-1.488 4.451-1.571.143-.009.28-.013.412-.013.886 0 1.527.19 1.91.564.822.804.742 2.638.665 4.412l-.004.08v.033c-.049 3.689-.624 4.23-2.377 4.73-.448.04-1.037.238-1.583.883zM65.221 10.972H50.31c-.61 0-1.104.491-1.104 1.098 0 .606.494 1.098 1.104 1.098h14.912c.61 0 1.105-.492 1.105-1.098 0-.607-.495-1.098-1.105-1.098zM65.221 16.77H50.31c-.61 0-1.104.492-1.104 1.098 0 .607.494 1.098 1.104 1.098h14.912c.61 0 1.105-.491 1.105-1.098 0-.606-.495-1.098-1.105-1.098z"/>
            <path d="M75.4 15.363c0-3.148-1.127-6.17-3.259-8.74a1.11 1.11 0 0 0-1.555-.148 1.094 1.094 0 0 0-.15 1.545c1.803 2.172 2.755 4.71 2.755 7.343 0 7.237-7.198 13.125-16.046 13.125-1.753 0-3.475-.23-5.118-.685a1.11 1.11 0 0 0-.973.19l-3.812 2.937.492-4.092a1.095 1.095 0 0 0-.482-1.146c-3.91-2.512-6.154-6.277-6.154-10.33 0-7.237 7.199-13.125 16.047-13.125 3.632 0 7.06.971 9.912 2.809.512.33 1.196.184 1.528-.325a1.094 1.094 0 0 0-.327-1.518C65.048 1.135 61.204.04 57.145.04c-4.015 0-7.731 1.095-10.749 2.946A32.543 32.543 0 0 0 32.693 0C23.861 0 15.587 3.444 9.396 9.699a1.093 1.093 0 0 0 .012 1.552 1.105 1.105 0 0 0 1.562-.012c5.773-5.831 13.488-9.043 21.723-9.043 4.043 0 7.944.767 11.621 2.28-3.347 2.778-5.425 6.633-5.425 10.887 0 4.604 2.39 8.864 6.583 11.784l-.612 5.094a1.1 1.1 0 0 0-.008.13v.258c0 .622.32 1.154.836 1.388.114.052.311.12.564.12.309 0 .7-.102 1.118-.463.085-.074.138-.122.204-.182.068-.062.152-.138.313-.28l4.09-3.151c1.67.414 3.406.623 5.168.623 2.069 0 4.058-.29 5.913-.825.077.88.12 1.763.12 2.641 0 16.71-13.676 30.304-30.485 30.304C15.884 62.804 2.21 49.21 2.21 32.5c0-6.345 1.949-12.418 5.636-17.563a1.094 1.094 0 0 0-.258-1.531 1.109 1.109 0 0 0-1.54.257A32.15 32.15 0 0 0 0 32.5c0 8.68 3.4 16.842 9.575 22.98C15.749 61.62 23.96 65 32.693 65c18.027 0 32.693-14.58 32.693-32.5 0-1.128-.06-2.266-.178-3.394C71.24 26.603 75.4 21.383 75.4 15.363z"/>
        </g>
    </g>
</svg>
