<svg id="e6ym5zcfo9s51" xmlns="http://www.w3.org/2000/svg" xmlns:xlink="http://www.w3.org/1999/xlink" viewBox="-70.400000 75.755000 759.782000 569.306000" shape-rendering="geometricPrecision" text-rendering="geometricPrecision"><g id="e6ym5zcfo9s52"><path id="e6ym5zcfo9s53" d="M469.927000,378.671000C469.012000,378.671000,468.217000,378.042000,468.006000,377.151000L424.406000,193.251000L422.234000,189.419000C410.634000,168.946000,389.215000,156.228000,366.334000,156.228000L103.539000,156.228000C80.663000,156.228000,59.244000,168.947000,47.639000,189.422000L45.470000,193.253000L2.009000,376.586000C1.856000,377.283000,1.339000,377.844000,0.656000,378.052000C-0.027000,378.260000,-0.769000,378.085000,-1.285000,377.592000C-1.801000,377.099000,-2.012000,376.366000,-1.836000,375.675000L41.693000,192.075000C41.735000,191.894000,41.803000,191.719000,41.893000,191.556000L44.200000,187.479000C56.506000,165.769000,79.242000,152.279000,103.539000,152.279000L366.339000,152.279000C390.639000,152.279000,413.371000,165.766000,425.674000,187.472000L427.984000,191.549000C428.074601,191.712153,428.141921,191.887185,428.184000,192.069000L471.850000,376.238000C472.101000,377.300000,471.445000,378.364000,470.383000,378.616000C470.233601,378.651697,470.080602,378.670151,469.927000,378.671000Z" fill="rgb(6,10,61)" stroke="rgb(6,10,61)" stroke-width="3"/><path id="e6ym5zcfo9s54" d="M31.381000,345.933000L65.697000,201.195000L66.360000,200.024000C74.149000,186.283000,88.396000,177.744000,103.538000,177.744000L366.338000,177.744000C381.481000,177.744000,395.728000,186.282000,403.519000,200.030000L404.180000,201.197000L438.495000,345.933000C439.352000,349.549000,438.508000,353.359000,436.203000,356.275000C433.898000,359.191000,430.386000,360.891000,426.669000,360.891000L43.210000,360.891000C39.493000,360.891000,35.980000,359.191000,33.674000,356.276000C31.368000,353.361000,30.523000,349.550000,31.381000,345.933000Z" transform="matrix(1 0 0 1 0.00030079499999 -0.48300000000000)" opacity="0.497" fill="rgb(6,10,61)" stroke="none" stroke-width="1"/></g><path id="e6ym5zcfo9s55" d="M73.653000,209.074000L41.561000,344.435000L79.323000,323.677000L105.135000,222.430000ZM397.087000,209.074000L429.180000,344.436000L391.418000,323.678000L365.605000,222.430000ZM316.305000,211.619000L153.574000,211.619000C144.484000,211.498000,135.958000,216.015000,130.953000,223.604000L105.705000,319.042000L364.177000,319.042000L338.923000,223.603000C333.918000,216.016000,325.394000,211.499000,316.305000,211.619000Z" transform="matrix(1 0 0 1 -0.00150000499985 2.44550000000027)" fill="rgb(103,208,255)" stroke="none" stroke-width="1"/><path id="e6ym5zcfo9s56" d="M379.914000,326.509000C378.807000,322.601000,365.193000,319.039000,362.123000,319.039000L321.451000,319.039000C318.379000,319.039000,304.766000,322.601000,303.659000,326.509000L293.980000,360.696000L389.593000,360.696000Z" fill="rgb(0,0,0)" stroke="none" stroke-width="1"/><g id="e6ym5zcfo9s57"><path id="e6ym5zcfo9s58" d="M320.372000,227.990000C307.215000,235.149000,299.014000,248.919000,298.987000,263.898000L299.012000,293.981000C299.089000,316.517000,317.352000,334.759000,339.888000,334.812000C362.424000,334.735000,380.667000,316.472000,380.719000,293.936000L380.694000,263.853000C380.617000,241.317000,362.354000,223.074000,339.818000,223.022000C337.051128,223.021904,334.291479,223.304369,331.582000,223.865000" transform="matrix(1 0 0 1 -0.78531482000000 0.28350000000000)" fill="rgb(248,200,30)" fill-rule="evenodd" stroke="rgb(25,20,5)" stroke-width="5" stroke-miterlimit="10"/><path id="e6ym5zcfo9s59" d="M336.210000,263.724000C336.445000,257.010000,343.229000,257.005000,343.471000,263.724000C345.171000,283.124000,374.587000,285.002000,377.914000,266.782000C378.531000,263.407000,379.376000,257.431000,383.560000,256.774000L383.560000,252.133000C376.303000,251.975000,369.445000,249.752000,362.260000,249.953000C352.621000,250.231000,349.342000,254.497000,339.835000,255.176000C330.328000,254.508000,327.044000,250.246000,317.405000,249.976000C310.223000,249.776000,303.367000,252.012000,296.112000,252.176000L296.112000,256.817000C300.297000,257.470000,301.149000,263.444000,301.768000,266.817000C305.118000,285.032000,334.535000,283.117000,336.209000,263.717000ZM346.278000,263.574000C346.062000,258.748000,346.799000,256.756000,351.478000,255.174000C354.941893,253.843533,358.587836,253.047110,362.291000,252.812000C372.663000,252.512000,377.091000,255.081000,375.047000,266.262000C372.311000,281.230000,347.782000,279.528000,346.282000,263.572000ZM333.408000,263.509000C331.919000,279.539000,307.392000,281.269000,304.640000,266.302000C302.584000,255.124000,307.010000,252.551000,317.381000,252.838000C321.085000,253.069000,324.732000,253.861000,328.197000,255.189000C332.873000,256.765000,333.614000,258.754000,333.408000,263.508000ZM326.847000,288.833000C327.305000,288.920000,327.774000,288.757000,328.079000,288.404000C328.384000,288.051000,328.477000,287.563000,328.324000,287.122000C328.171328,286.681343,327.794314,286.356227,327.336000,286.270000C324.897199,285.810279,322.433742,286.939397,321.190000,289.087000C320.838000,289.710000,321.054000,290.500000,321.673000,290.858000C322.292000,291.216000,323.084000,291.009000,323.449000,290.394000C323.563907,290.192726,323.700015,290.004321,323.855000,289.832000C326.636659,296.190524,332.920214,300.297799,339.860563,300.294112C346.800911,300.290425,353.080098,296.176476,355.855000,289.815000C356.010274,289.986833,356.147027,290.174534,356.263000,290.375000C356.497000,290.778000,356.928000,291.026000,357.393000,291.025000C357.858000,291.024000,358.289000,290.775000,358.521000,290.371000C358.753000,289.967000,358.752000,289.470000,358.519000,289.067000C357.275782,286.919758,354.811497,285.792483,352.374000,286.256000C351.667000,286.389000,351.201000,287.071000,351.334000,287.778000C351.467000,288.485000,352.149000,288.951000,352.856000,288.818000C353.059000,288.781000,353.265000,288.762000,353.471000,288.761000C351.114928,294.181146,345.769081,297.688229,339.859000,297.691000C333.949000,297.694000,328.600000,294.193000,326.237000,288.776000C326.441661,288.776043,326.645874,288.795125,326.847000,288.833000Z" fill="rgb(0,0,0)" fill-rule="evenodd" stroke="none" stroke-width="1"/><path id="e6ym5zcfo9s510" d="M319.898000,255.459000C315.229186,255.464519,311.447445,259.251183,311.448000,263.920000C311.452967,268.589204,315.239793,272.371555,319.909000,272.371000C324.577814,272.366033,328.360003,268.579817,328.360000,263.911000C328.359000,261.668000,327.467000,259.517000,325.880000,257.932000C324.293000,256.347000,322.141000,255.457000,319.898000,255.459000ZM359.774000,255.437000C356.354000,255.439000,353.271000,257.500000,351.964000,260.661000C350.657000,263.822000,351.382000,267.458000,353.802000,269.876000C356.222000,272.294000,359.859000,273.015000,363.018000,271.704000C366.177000,270.393000,368.236000,267.309000,368.234000,263.888000C368.229033,259.219186,364.442817,255.436997,359.774000,255.437000Z" transform="matrix(1 0 0 1 -0.00499902500002 -0.01399932999999)" fill="rgb(255,255,255)" fill-rule="evenodd" stroke="none" stroke-width="1"/><path id="e6ym5zcfo9s511" d="M319.985000,259.584000C318.602454,259.587715,317.304399,260.249917,316.489860,261.367045C315.675321,262.484172,315.441770,263.922543,315.861000,265.240000C316.767982,264.229507,318.278234,264.035696,319.410978,264.784430C320.543723,265.533163,320.957246,266.998572,320.383000,268.229000C321.751558,268.103474,322.979266,267.335723,323.691206,266.160203C324.403147,264.984682,324.514775,263.540990,323.992000,262.270000C323.936504,262.275600,323.880776,262.278604,323.825000,262.279000C323.013532,262.278448,322.356000,261.620468,322.356000,260.809000C322.354170,260.649622,322.379187,260.491072,322.430000,260.340000C321.710225,259.846618,320.857639,259.583345,319.985000,259.585000Z" fill="rgb(0,0,0)" fill-rule="evenodd" stroke="none" stroke-width="1"/><path id="e6ym5zcfo9s512" d="M359.695000,259.562000C358.377420,259.562404,357.131709,260.162704,356.310428,261.193002C355.489148,262.223301,355.181663,263.571488,355.475000,264.856000C356.482000,264.094000,357.880000,264.121000,358.858000,264.920000C359.836000,265.719000,360.140000,267.083000,359.594000,268.222000L359.701000,268.222000C361.168830,268.221760,362.536597,267.477916,363.334559,266.245933C364.132521,265.013950,364.252014,263.461593,363.652000,262.122000C363.196744,262.328816,362.667577,262.290029,362.247343,262.019041C361.827110,261.748053,361.573446,261.282030,361.574000,260.782000C361.574652,260.535397,361.636501,260.292812,361.754000,260.076000C361.122000,259.735000,360.414000,259.557000,359.696000,259.558000Z" fill="rgb(49,49,49)" fill-rule="evenodd" stroke="none" stroke-width="1"/></g><path id="e6ym5zcfo9s513" d="M300.839000,218.882000C302.827000,220.593000,305.034000,222.031000,307.402000,223.159000C299.681000,216.906000,300.659000,212.451000,303.321000,200.423000L304.088000,196.890000L304.730000,193.822000L306.211000,196.606000C306.268795,196.685330,306.319968,196.769280,306.364000,196.857000C307.011000,197.779000,310.338000,201.580000,322.347000,202.918000L340.506000,205.079000C345.319000,205.721000,348.471000,206.259000,349.126000,206.706000C351.058042,208.350016,352.889668,210.108511,354.611000,211.972000C354.620240,211.446720,354.544946,210.923371,354.388000,210.422000C353.534000,208.059000,352.320000,205.842000,350.788000,203.851000L349.388000,201.840000L351.917000,202.250000C355.192387,202.635683,358.321764,203.824571,361.027000,205.711000C363.069409,207.265635,364.707274,209.289385,365.802000,211.611000C366.444929,212.877202,366.986621,214.192309,367.422000,215.544000C367.765000,214.270000,368.020000,212.975000,368.185000,211.666000L368.497000,209.153000L370.243000,211.113000C372.435000,213.473000,374.290000,216.126000,375.753000,218.996000C377.151404,221.862154,377.831951,225.025342,377.736000,228.213000L377.736000,228.319000C377.495000,230.058000,380.350000,235.801000,380.566000,242.310000C380.820000,249.989000,378.166000,259.585000,378.166000,259.585000L369.614000,241.180000C369.614000,241.154000,366.496000,240.333000,365.744000,238.901000C364.472848,236.859845,362.850498,235.059754,360.952000,233.584000C359.618788,232.446212,357.988012,231.713404,356.252000,231.472000C351.452000,231.096000,344.652000,231.859000,339.720000,232.424000L339.691000,232.424000L339.457000,232.458000L339.233000,232.387000L331.083000,230.269000C328.434000,229.604000,325.739000,229.136000,323.021000,228.869000C321.269441,228.838366,319.545545,229.308457,318.052000,230.224000C315.941359,231.377746,314.057255,232.904410,312.491000,234.730000C311.526000,236.030000,300.836000,247.879000,300.836000,247.879000C300.836000,247.879000,303.136000,243.855000,302.469000,242.772000C298.889000,237.049000,299.276000,231.157000,298.881000,219.660000L298.798000,217.060000Z" fill="rgb(0,0,0)" stroke="none" stroke-width="1"/><path id="e6ym5zcfo9s514" d="M301.931000,360.698000C303.188000,339.670000,320.608000,323.262000,341.673000,323.262000C362.738000,323.262000,380.158000,339.671000,381.415000,360.698000L395.186000,360.698000C393.923000,332.060000,370.338000,309.493000,341.673000,309.493000C313.008000,309.493000,289.423000,332.061000,288.160000,360.698000Z" fill="rgb(44,41,52)" stroke="none" stroke-width="1"/><g id="e6ym5zcfo9s515" transform="matrix(0.99781573440830 -0.06605876298590 0.06605876298590 0.99781573440830 -20.51275721754587 21.33845998631949)"><path id="e6ym5zcfo9s516" d="M301.688000,331.348000C300.571750,332.461138,298.765250,332.461138,297.649000,331.348000L294.721000,328.420000C294.185000,327.884000,293.884000,327.158000,293.884000,326.401000C293.884000,325.644000,294.185000,324.917000,294.721000,324.382000C295.257000,323.847000,295.983000,323.545000,296.740000,323.545000C297.497000,323.545000,298.224000,323.846000,298.759000,324.382000L301.687000,327.311000C302.799473,328.427134,302.799473,330.232866,301.687000,331.349000Z" fill="rgb(248,200,30)" stroke="rgb(25,20,5)" stroke-width="3"/><path id="e6ym5zcfo9s517" d="M306.385000,327.968000C305.850000,328.504000,305.123000,328.805000,304.366000,328.805000C303.609000,328.805000,302.882000,328.504000,302.347000,327.968000L296.595000,322.217000C296.059000,321.681000,295.758000,320.955000,295.758000,320.198000C295.758000,319.441000,296.059000,318.714000,296.595000,318.179000C297.131000,317.644000,297.857000,317.342000,298.614000,317.342000C299.371000,317.342000,300.098000,317.643000,300.633000,318.179000L306.384000,323.931000C306.920000,324.466000,307.221000,325.193000,307.221000,325.950000C307.221000,326.707000,306.920000,327.434000,306.384000,327.969000Z" fill="rgb(248,200,30)" stroke="rgb(25,20,5)" stroke-width="3"/><path id="e6ym5zcfo9s518" d="M310.424000,323.930000C309.307750,325.043138,307.501250,325.043138,306.385000,323.930000L300.634000,318.178000C300.098000,317.642000,299.797000,316.916000,299.797000,316.159000C299.797000,315.402000,300.098000,314.675000,300.634000,314.140000C301.749000,313.025000,303.557000,313.025000,304.672000,314.140000L310.424000,319.892000C311.537138,321.008250,311.537138,322.814750,310.424000,323.931000Z" fill="rgb(248,200,30)" stroke="rgb(25,20,5)" stroke-width="3"/><path id="e6ym5zcfo9s519" d="M316.627000,322.056000C315.510750,323.169138,313.704250,323.169138,312.588000,322.056000L306.837000,316.302000C306.301000,315.767000,306.001000,315.040000,306.001000,314.283000C306.001000,313.526000,306.302000,312.799000,306.837000,312.264000C307.372000,311.729000,308.099000,311.428000,308.856000,311.428000C309.613000,311.428000,310.340000,311.729000,310.875000,312.264000L316.627000,318.015000C317.163000,318.551000,317.465000,319.277000,317.465000,320.035000C317.465000,320.793000,317.164000,321.520000,316.627000,322.056000ZM381.659000,331.348000C382.775250,332.461138,384.581750,332.461138,385.698000,331.348000L388.627000,328.420000C389.163000,327.884000,389.464000,327.158000,389.464000,326.401000C389.464000,325.644000,389.163000,324.917000,388.627000,324.382000C388.091351,323.846707,387.365270,323.545702,386.608000,323.545000C385.851000,323.545000,385.124000,323.846000,384.589000,324.382000L381.660000,327.311000C380.547527,328.427134,380.547527,330.232866,381.660000,331.349000Z" fill="rgb(248,200,30)" stroke="rgb(25,20,5)" stroke-width="3"/><path id="e6ym5zcfo9s520" d="M376.961000,327.968000C377.496000,328.504000,378.223000,328.804000,378.980000,328.804000C379.737000,328.804000,380.464000,328.503000,380.999000,327.968000L386.751000,322.217000C387.287000,321.681000,387.588000,320.955000,387.588000,320.198000C387.588000,319.441000,387.287000,318.714000,386.751000,318.179000C386.215000,317.644000,385.489000,317.342000,384.732000,317.342000C383.975000,317.342000,383.248000,317.643000,382.713000,318.179000L376.962000,323.931000C376.426000,324.466000,376.126000,325.193000,376.126000,325.950000C376.126000,326.707000,376.427000,327.434000,376.962000,327.969000Z" fill="rgb(248,200,30)" stroke="rgb(25,20,5)" stroke-width="3"/><path id="e6ym5zcfo9s521" d="M372.923000,323.930000C374.039250,325.043138,375.845750,325.043138,376.962000,323.930000L382.713000,318.178000C383.249000,317.642000,383.550000,316.916000,383.550000,316.159000C383.550000,315.402000,383.249000,314.675000,382.713000,314.140000C381.596866,313.027527,379.791134,313.027527,378.675000,314.140000L372.922000,319.892000C371.809139,321.008526,371.809586,322.815026,372.923000,323.931000Z" fill="rgb(248,200,30)" stroke="rgb(25,20,5)" stroke-width="3"/><path id="e6ym5zcfo9s522" d="M366.720000,322.056000C367.836250,323.169138,369.642750,323.169138,370.759000,322.056000L376.511000,316.304000C377.626000,315.189000,377.626000,313.381000,376.511000,312.266000C375.976000,311.730000,375.249000,311.430000,374.492000,311.430000C373.735000,311.430000,373.008000,311.731000,372.473000,312.266000L366.721000,318.017000C366.185000,318.552000,365.884000,319.279000,365.884000,320.036000C365.884000,320.793000,366.185000,321.520000,366.720000,322.056000Z" fill="rgb(248,200,30)" stroke="rgb(25,20,5)" stroke-width="3"/></g><g id="e6ym5zcfo9s523"><path id="e6ym5zcfo9s524" d="M396.706000,341.196000L73.171000,341.196000C62.401000,341.196000,53.671000,349.926000,53.671000,360.696000L416.209000,360.696000C416.209000,355.523758,414.154130,350.563402,410.496521,346.906357C406.838913,343.249311,401.878241,341.195204,396.706000,341.196000Z" fill="rgb(6,10,61)" stroke="none" stroke-width="1"/><path id="e6ym5zcfo9s525" d="M490.694000,643.427000L-20.816000,643.427000C-24.781853,643.427796,-28.585518,641.852788,-31.389893,639.048600C-34.194268,636.244412,-35.769531,632.440853,-35.769000,628.475000C-35.769000,620.217000,-29.074000,613.522000,-20.816000,613.522000L490.694000,613.522000C498.952000,613.522000,505.647000,620.217000,505.647000,628.475000C505.647531,632.440853,504.072268,636.244412,501.267893,639.048600C498.463518,641.852788,494.659853,643.427796,490.694000,643.427000Z" opacity="0.636" fill="rgb(6,10,61)" stroke="none" stroke-width="1"/><path id="e6ym5zcfo9s526" d="M461.032000,564.022000L8.845000,564.022000C-8.418000,564.002000,-22.407000,550.013000,-22.426000,532.750000L-22.426000,414.615000C-22.396000,387.992000,-0.821000,366.416000,25.802000,366.386000L444.075000,366.386000C470.698000,366.416000,492.273000,387.992000,492.303000,414.615000L492.303000,532.750000C492.284000,550.013000,478.295000,564.002000,461.032000,564.022000ZM25.802000,370.335000C1.360000,370.363000,-18.446000,390.170000,-18.474000,414.612000L-18.474000,532.750000C-18.457000,547.831000,-6.236000,560.052000,8.845000,560.070000L461.032000,560.070000C476.113000,560.052000,488.334000,547.831000,488.351000,532.750000L488.351000,414.615000C488.325000,390.172000,468.518000,370.363000,444.075000,370.335000Z" fill="rgb(6,10,61)" stroke="rgb(6,10,61)" stroke-width="3"/><path id="e6ym5zcfo9s527" d="M-19.586000,539.822000L-19.586000,615.372000C-19.586000,619.683000,-17.874000,623.817000,-14.826000,626.866000C-11.778000,629.915000,-7.643000,631.627000,-3.332000,631.626000L41.934000,631.626000C46.245000,631.626000,50.380000,629.914000,53.428000,626.866000C56.476000,623.818000,58.189000,619.683000,58.189000,615.372000L58.189000,562.046000L8.844000,562.046000C-4.611000,562.045000,-16.336000,552.879000,-19.586000,539.822000ZM489.490000,539.704000C486.284000,552.819000,474.533000,562.045000,461.032000,562.047000L412.553000,562.047000L412.553000,615.373000C412.553000,619.684000,414.265000,623.818000,417.314000,626.866000C420.363000,629.914000,424.496000,631.627000,428.807000,631.627000L474.073000,631.627000C478.384000,631.626000,482.517000,629.914000,485.565000,626.865000C488.613000,623.816000,490.325000,619.682000,490.324000,615.372000L490.324000,539.703000Z" fill="rgb(6,10,61)" stroke="none" stroke-width="1"/><path id="e6ym5zcfo9s528" d="M92.112000,500.124000L31.048000,500.124000C5.538000,500.124000,-15.142000,479.444000,-15.142000,453.934000C-15.142000,428.424000,5.538000,407.744000,31.048000,407.744000C37.626343,407.742936,44.127518,409.160847,50.108000,411.901000C50.205000,411.924000,50.300000,411.955000,50.392000,411.993000L103.692000,434.242000C103.756000,434.269000,103.819000,434.299000,103.880000,434.333000C119.310000,440.028000,128.437000,455.966000,125.540000,472.157000C122.643000,488.348000,108.555000,500.132000,92.108000,500.123000ZM31.048000,411.697000C7.721000,411.697000,-11.190000,430.607000,-11.190000,453.935000C-11.190000,477.263000,7.720000,496.173000,31.048000,496.173000L92.112000,496.173000C106.697000,496.183000,119.174000,485.700000,121.680000,471.332000C124.186000,456.964000,115.992000,442.877000,102.264000,437.950000C102.140000,437.905000,102.020000,437.848000,101.907000,437.780000L49.207000,415.785000C49.062856,415.755584,48.922592,415.709612,48.789000,415.648000C43.236318,413.046955,37.179697,411.698460,31.048000,411.698000Z" fill="rgb(6,10,61)" stroke="rgb(6,10,61)" stroke-width="3"/><path id="e6ym5zcfo9s529" d="M31.048000,481.076000C20.069829,481.077172,10.172153,474.464513,5.971000,464.322000C1.770000,454.180000,4.091000,442.505000,11.853000,434.742000C19.615000,426.979000,31.290000,424.657000,41.432000,428.857000C51.574000,433.057000,58.188000,442.955000,58.188000,453.933000C58.170000,468.915000,46.030000,481.056000,31.048000,481.075000ZM92.111000,481.076000C83.874035,481.074344,77.196760,474.397964,77.194000,466.161000C77.195656,457.924035,83.872036,451.246760,92.109000,451.244000C100.345965,451.245656,107.023240,457.922036,107.026000,466.159000C107.017000,474.393000,100.345000,481.066000,92.111000,481.076000Z" fill="rgb(6,10,61)" stroke="none" stroke-width="1"/><path id="e6ym5zcfo9s530" d="M438.827000,500.124000L377.764000,500.124000C361.324444,500.119131,347.250421,488.336342,344.354831,472.153802C341.459241,455.971263,350.574165,440.039206,365.992000,434.334000C366.053000,434.300000,366.116000,434.270000,366.180000,434.243000L419.480000,411.994000C419.574713,411.954784,419.672343,411.923021,419.772000,411.899000C425.750260,409.161005,432.248575,407.744145,438.824000,407.745000C464.334000,407.745000,485.013000,428.425000,485.013000,453.935000C485.013000,479.445000,464.333000,500.125000,438.824000,500.125000ZM367.961000,437.782000C367.850000,437.849000,367.734000,437.905000,367.612000,437.949000C353.885000,442.876000,345.691000,456.963000,348.196000,471.331000C350.701000,485.699000,363.179000,496.182000,377.764000,496.172000L438.827000,496.172000C462.154000,496.172000,481.065000,477.262000,481.065000,453.934000C481.065000,430.606000,462.155000,411.696000,438.827000,411.696000C432.694290,411.696021,426.636599,413.044526,421.083000,415.646000C420.945000,415.709000,420.801000,415.757000,420.652000,415.788000Z" fill="rgb(6,10,61)" stroke="rgb(6,10,61)" stroke-width="3"/><path id="e6ym5zcfo9s531" d="M438.827000,481.076000C449.805171,481.077172,459.702847,474.464513,463.904000,464.322000C468.105000,454.180000,465.784000,442.505000,458.022000,434.742000C450.260000,426.979000,438.585000,424.657000,428.443000,428.857000C418.301000,433.057000,411.687000,442.955000,411.687000,453.933000C411.705000,468.915000,423.845000,481.056000,438.827000,481.075000ZM377.764000,481.076000C386.000965,481.074344,392.678240,474.397964,392.681000,466.161000C392.679344,457.924035,386.002964,451.246760,377.766000,451.244000C369.529035,451.245656,362.851760,457.922036,362.849000,466.159000C362.858000,474.393000,369.530000,481.066000,377.764000,481.076000ZM308.339000,493.881000L161.539000,493.881000C154.592980,493.881796,147.931135,491.123263,143.018995,486.212248C138.106854,481.301233,135.346796,474.640020,135.346000,467.694000C135.346000,453.232000,147.070000,441.508000,161.532000,441.507000L308.332000,441.507000C315.277504,441.507067,321.938555,444.266019,326.850000,449.177000C331.762000,454.088000,334.520000,460.749000,334.520000,467.694000C334.519000,482.154000,322.799000,493.877000,308.339000,493.881000Z" fill="rgb(6,10,61)" stroke="none" stroke-width="1"/><path id="e6ym5zcfo9s532" d="M142.710000,431.296000C142.305962,431.295592,141.911819,431.170961,141.581000,430.939000L54.338000,369.982000C53.443000,369.357000,53.225000,368.125000,53.850000,367.230000C54.475000,366.335000,55.707000,366.117000,56.601000,366.742000L143.846000,427.699000C144.556000,428.193000,144.863000,429.091000,144.603000,429.916000C144.342280,430.740460,143.576701,431.300374,142.712000,431.299000ZM327.166000,431.296000C326.300000,431.300000,325.533000,430.739000,325.273000,429.914000C325.014109,429.088243,325.321480,428.190024,326.032000,427.696000L413.277000,366.739000C414.172000,366.114000,415.404000,366.333000,416.028000,367.228000C416.652000,368.123000,416.434000,369.355000,415.539000,369.979000L328.294000,430.935000C327.963650,431.168381,327.569469,431.294421,327.165000,431.296000ZM461.032000,564.022000L8.845000,564.022000C-8.417000,564.002000,-22.406000,550.013000,-22.426000,532.751000L-22.426000,507.274000C-22.426000,506.183000,-21.541000,505.298000,-20.450000,505.298000L29.398000,505.298000C37.766814,505.275363,45.796834,508.601879,51.698000,514.536000C56.860563,519.725179,63.884216,522.633877,71.204000,522.614000L398.674000,522.614000C405.994131,522.634145,413.018193,519.725426,418.181000,514.536000C424.082166,508.601879,432.112186,505.275363,440.481000,505.298000L490.329000,505.298000C491.420000,505.298000,492.305000,506.183000,492.305000,507.274000L492.305000,532.751000C492.285000,550.014000,478.295000,564.003000,461.032000,564.022000ZM-18.474000,509.251000L-18.474000,532.751000C-18.457000,547.832000,-6.236000,560.053000,8.845000,560.071000L461.032000,560.071000C476.113000,560.053000,488.334000,547.832000,488.351000,532.751000L488.351000,509.251000L440.480000,509.251000C433.160000,509.231000,426.136000,512.141000,420.974000,517.331000C415.072504,523.264387,407.042525,526.590166,398.674000,526.567000L71.204000,526.567000C62.835475,526.590166,54.805496,523.264387,48.904000,517.331000C43.742644,512.140389,36.718947,509.230804,29.399000,509.251000Z" fill="rgb(6,10,61)" stroke="rgb(6,10,61)" stroke-width="3"/><rect id="e6ym5zcfo9s533" width="123.593000" height="35.327000" rx="4.185000" ry="4.185000" transform="matrix(1 0 0 1 173.14200000000000 507.27400000000000)" fill="rgb(6,10,61)" stroke="none" stroke-width="1"/><path id="e6ym5zcfo9s534" d="M524.653000,308.033000L484.394000,308.033000C476.878186,308.034104,470.786000,314.127186,470.786000,321.643000L470.786000,328.124000C470.788000,330.145000,471.242000,332.140000,472.116000,333.963000L461.772000,340.433000L464.660000,352.184000L481.781000,341.476000C482.641000,341.646000,483.516000,341.732000,484.393000,341.733000L524.652000,341.733000C532.168000,341.732000,538.260000,335.640000,538.260000,328.124000L538.260000,321.643000C538.260000,314.127576,532.168424,308.034657,524.653000,308.033000ZM-0.909000,328.122000L-0.909000,321.643000C-0.910104,314.127967,-7.001967,308.036104,-14.517000,308.035000L-54.776000,308.035000C-62.291033,308.036104,-68.382896,314.127967,-68.384000,321.643000L-68.384000,328.124000C-68.384000,335.640000,-62.292000,341.732000,-54.776000,341.733000L-14.517000,341.733000C-13.640090,341.731619,-12.765363,341.645553,-11.905000,341.476000L5.216000,352.183000L8.104000,340.432000L-2.240000,333.962000C-1.366000,332.139000,-0.911000,330.144000,-0.909000,328.122000Z" fill="rgb(6,10,61)" stroke="none" stroke-width="1"/></g><g id="e6ym5zcfo9s535" transform="matrix(0.84804800000000 -0.52991900000000 0.52991900000000 0.84804800000000 317.91300000000001 137.99199999999999)"><g id="e6ym5zcfo9s536"><path id="e6ym5zcfo9s537" d="M162.836000,223.709000C155.361000,220.223000,148.134000,216.226000,141.355000,211.827000C134.759000,207.546000,128.509000,202.836000,122.782000,197.826000C117.169000,192.918000,112.003000,187.677000,107.427000,182.247000C102.909000,176.886000,98.929000,171.300000,95.598000,165.642000L94.903000,164.463000L29.558000,138.421000L84.652000,138.796000L83.968000,134.178000C83.093000,128.268000,83.011000,122.466000,83.726000,116.932000C84.456000,111.281000,86.026000,105.842000,88.393000,100.766000C90.635000,95.957000,93.590000,91.481000,97.176000,87.463000C100.690000,83.525000,104.854000,79.973000,109.556000,76.905000C114.210000,73.867000,119.437000,71.273000,125.091000,69.192000C130.733000,67.117000,136.847000,65.538000,143.263000,64.495000C149.712000,63.447000,156.517000,62.936000,163.487000,62.975000C170.548000,63.014000,177.840000,63.618000,185.159000,64.770000C192.629000,65.947000,200.204000,67.706000,207.672000,70C215.447699,72.395785,223.048763,75.325414,230.421000,78.768000C237.844000,82.229000,245.023000,86.196000,251.759000,90.559000C258.317000,94.805000,264.533000,99.476000,270.237000,104.443000C275.824000,109.310000,280.974000,114.507000,285.543000,119.891000C290.055000,125.206000,294.036000,130.747000,297.378000,136.361000C300.704000,141.946000,303.423000,147.645000,305.459000,153.300000C307.500000,158.970000,308.872000,164.641000,309.536000,170.159000C310.208000,175.733000,310.165000,181.207000,309.407000,186.429000C308.633000,191.759000,307.104000,196.900000,304.861000,201.710000C302.618000,206.520000,299.663000,210.994000,296.078000,215.013000C292.564000,218.951000,288.399000,222.503000,283.698000,225.571000C279.043000,228.608000,273.817000,231.203000,268.163000,233.284000C262.521000,235.359000,256.407000,236.939000,249.991000,237.981000C243.542000,239.029000,236.738000,239.541000,229.767000,239.503000C222.705000,239.464000,215.414000,238.860000,208.094000,237.707000C200.624000,236.530000,193.049000,234.771000,185.581000,232.477000C177.909000,230.121000,170.256000,227.171000,162.833000,223.710000Z" fill="rgb(255,255,255)" stroke="none" stroke-width="1"/><path id="e6ym5zcfo9s538" d="M164.526000,220.084000C222.207000,246.981000,283.536000,237.980000,301.238000,200.018000C318.940000,162.056000,286.413000,109.291000,228.732000,82.394000C171.051000,55.497000,109.721000,64.497000,92.020000,102.457000C87.636000,111.859000,86.259000,122.334000,87.926000,133.593000L89.294000,142.828000L50.763000,142.565000L97.657000,161.253000L99.046000,163.612000C112.617000,186.665000,135.872000,206.720000,164.526000,220.082000M161.145000,227.332000C130.038000,212.826000,105.926000,191.068000,92.152000,167.670000L8.354000,134.277000L80.012000,134.766000C78.172000,122.336000,79.596000,110.171000,84.770000,99.076000C104.366000,57.051000,170.335000,46.336000,232.113000,75.144000C293.891000,103.952000,328.086000,161.373000,308.489000,203.399000C288.892000,245.425000,222.924000,256.142000,161.145000,227.335000Z" fill="rgb(6,10,61)" stroke="none" stroke-width="1"/></g><path id="e6ym5zcfo9s539" d="M134.216000,115.486000L126.054000,129.070000Q123.436000,133.427000,120.659000,134.649000C118.729445,135.458120,116.519834,135.221834,114.805000,134.023000C112.941295,133.072128,111.694955,131.232437,111.503000,129.149000Q111.278000,126.123000,113.897000,121.765000L136.382000,84.344000Q138.999000,79.989000,141.787000,78.748000C143.715866,77.925396,145.932484,78.154806,147.652000,79.355000C149.519057,80.309535,150.762474,82.158788,150.942000,84.248000Q151.155000,87.293000,148.538000,91.649000L140.970000,104.244000L163.306000,117.665000L170.874000,105.069000Q173.491000,100.714000,176.279000,99.473000C178.207866,98.650396,180.424484,98.879806,182.144000,100.080000C184.011057,101.034535,185.254474,102.883788,185.434000,104.973000Q185.647000,108.018000,183.030000,112.374000L160.545000,149.794000Q157.927000,154.151000,155.150000,155.373000C153.220445,156.182120,151.010834,155.945834,149.296000,154.747000C147.432681,153.795872,146.186750,151.956227,145.995000,149.873000Q145.770000,146.847000,148.388000,142.490000L156.550000,128.906000ZM183.177000,141.018000L198.777000,150.392000C199.824751,148.400187,200.039806,146.074147,199.375000,143.924000C198.016000,139.510000,193.594000,136.790000,189.042000,137.566000C186.752215,138.019182,184.684261,139.236684,183.177000,141.019000ZM178.682000,148.832000C177.628000,150.967000,177.490000,153.440000,178.301000,155.680000C179.297085,158.072963,181.089604,160.048126,183.375000,161.271000C186.011607,162.732810,188.937304,163.597205,191.945000,163.803000Q197.183000,164.334000,198.135000,164.906000C199.426339,165.615854,200.375925,166.817533,200.768000,168.238000C201.132000,169.633000,200.892000,171.117000,200.106000,172.326000Q197.818000,176.134000,190.672000,176.001000C185.586766,175.813982,180.642771,174.277806,176.347000,171.550000C170.772202,168.391975,166.774566,163.043781,165.324000,156.803000C163.809257,150.467408,164.942818,143.788103,168.463000,138.307000Q173.897000,129.263000,183.222000,126.642000C189.242392,124.867455,195.735453,125.772599,201.041000,129.126000C206.286407,132.110283,210.032822,137.165275,211.362000,143.052000C212.794000,148.929000,211.781000,155.136000,208.552000,160.252000Q206.946000,162.925000,205.099000,163.260000Q203.252000,163.596000,199.811000,161.528000ZM238.249000,158.709000C239.490555,157.621211,240.968176,156.837209,242.565000,156.419000C243.877000,156.166000,245.236000,156.429000,246.359000,157.154000C247.955000,158.009000,249.142000,159.467000,249.656000,161.204000C250.082000,162.944000,249.755000,164.783000,248.755000,166.270000C248.367000,166.895000,247.903000,167.470000,247.376000,167.983000C246.724089,168.625112,246.031308,169.224364,245.302000,169.777000L201.595000,201.716000C200.257237,202.816544,198.702912,203.623349,197.033000,204.084000C195.828664,204.309573,194.583609,204.068998,193.550000,203.411000C191.921000,202.548000,190.709000,201.066000,190.188000,199.298000C189.772000,197.536000,190.110000,195.679000,191.122000,194.177000C191.533157,193.499686,192.025835,192.875359,192.589000,192.318000C193.191136,191.719975,193.848761,191.180548,194.553000,190.707000L205.758000,183.090000L210.543000,148.092000C210.619000,147.507000,210.763000,146.933000,210.972000,146.382000C211.234000,145.708467,211.556660,145.060135,211.936000,144.445000C212.831073,142.862779,214.331478,141.712926,216.092000,141.260000C217.815743,140.789419,219.657880,141.064452,221.169000,142.018000C222.466497,142.724990,223.444602,143.901292,223.903000,145.306000C224.304940,147.303413,224.249901,149.365868,223.742000,151.339000L219.694000,173.173000ZM262.665000,192.143000Q259.873000,196.442000,257.111000,197.598000C255.224582,198.369495,253.071658,198.094258,251.440000,196.873000C249.672320,195.870670,248.558125,194.016334,248.503000,191.985000Q248.434000,188.961000,251.202000,184.698000L265.208000,163.131000Q267.931000,158.938000,270.713000,157.792000C272.590081,157.028697,274.729242,157.298508,276.358000,158.504000C278.131573,159.494091,279.260645,161.337219,279.337000,163.367000Q279.414000,166.346000,276.667000,170.576000ZM238.339000,203.092000C239.409774,201.366382,241.150152,200.163986,243.143000,199.773000C245.115372,199.336917,247.180284,199.729511,248.855000,200.859000C250.570970,201.932308,251.766770,203.667377,252.159000,205.653000C252.608329,207.625396,252.222549,209.695798,251.093000,211.374000C250.006000,213.100000,248.257000,214.303000,246.257000,214.702000C244.287429,215.171734,242.211206,214.799970,240.527000,213.676000C238.808957,212.598844,237.616368,210.855606,237.235000,208.864000C236.796563,206.870005,237.195655,204.783451,238.339000,203.092000Z" fill="rgb(6,10,61)" stroke="none" stroke-width="1"/></g><script><![CDATA[!function(t,n){"object"==typeof exports&&"undefined"!=typeof module?module.exports=n():"function"==typeof define&&define.amd?define(n):(t="undefined"!=typeof globalThis?globalThis:t||self).__SVGATOR_PLAYER__=n()}(this,(function(){"use strict";function t(n){return(t="function"==typeof Symbol&&"symbol"==typeof Symbol.iterator?function(t){return typeof t}:function(t){return t&&"function"==typeof Symbol&&t.constructor===Symbol&&t!==Symbol.prototype?"symbol":typeof t})(n)}function n(t,n){if(!(t instanceof n))throw new TypeError("Cannot call a class as a function")}function r(t,n){for(var r=0;r<n.length;r++){var e=n[r];e.enumerable=e.enumerable||!1,e.configurable=!0,"value"in e&&(e.writable=!0),Object.defineProperty(t,e.key,e)}}function e(t,n,e){return n&&r(t.prototype,n),e&&r(t,e),t}function i(t){return(i=Object.setPrototypeOf?Object.getPrototypeOf:function(t){return t.__proto__||Object.getPrototypeOf(t)})(t)}function o(t,n){return(o=Object.setPrototypeOf||function(t,n){return t.__proto__=n,t})(t,n)}function u(t,n){return!n||"object"!=typeof n&&"function"!=typeof n?function(t){if(void 0===t)throw new ReferenceError("this hasn't been initialised - super() hasn't been called");return t}(t):n}function a(t){var n=function(){if("undefined"==typeof Reflect||!Reflect.construct)return!1;if(Reflect.construct.sham)return!1;if("function"==typeof Proxy)return!0;try{return Boolean.prototype.valueOf.call(Reflect.construct(Boolean,[],(function(){}))),!0}catch(t){return!1}}();return function(){var r,e=i(t);if(n){var o=i(this).constructor;r=Reflect.construct(e,arguments,o)}else r=e.apply(this,arguments);return u(this,r)}}function l(t,n,r){return(l="undefined"!=typeof Reflect&&Reflect.get?Reflect.get:function(t,n,r){var e=function(t,n){for(;!Object.prototype.hasOwnProperty.call(t,n)&&null!==(t=i(t)););return t}(t,n);if(e){var o=Object.getOwnPropertyDescriptor(e,n);return o.get?o.get.call(r):o.value}})(t,n,r||t)}var f=Math.abs;function s(t){return t}function c(t,n,r){var e=1-r;return 3*r*e*(t*e+n*r)+r*r*r}function h(){var t=arguments.length>0&&void 0!==arguments[0]?arguments[0]:0,n=arguments.length>1&&void 0!==arguments[1]?arguments[1]:0,r=arguments.length>2&&void 0!==arguments[2]?arguments[2]:1,e=arguments.length>3&&void 0!==arguments[3]?arguments[3]:1;return t<0||t>1||r<0||r>1?null:f(t-n)<=1e-5&&f(r-e)<=1e-5?s:function(i){if(i<=0)return t>0?i*n/t:0===n&&r>0?i*e/r:0;if(i>=1)return r<1?1+(i-1)*(e-1)/(r-1):1===r&&t<1?1+(i-1)*(n-1)/(t-1):1;for(var o,u=0,a=1;u<a;){var l=c(t,r,o=(u+a)/2);if(f(i-l)<1e-5)break;l<i?u=o:a=o}return c(n,e,o)}}function v(){return 1}function y(t){return 1===t?1:0}function d(){var t=arguments.length>0&&void 0!==arguments[0]?arguments[0]:1,n=arguments.length>1&&void 0!==arguments[1]?arguments[1]:0;if(1===t){if(0===n)return y;if(1===n)return v}var r=1/t;return function(t){return t>=1?1:(t+=n*r)-t%r}}function g(t){var n=arguments.length>1&&void 0!==arguments[1]?arguments[1]:2;if(Number.isInteger(t))return t;var r=Math.pow(10,n);return Math.round(t*r)/r}var p=Math.PI/180;function m(t,n,r){return t>=.5?r:n}function b(t,n,r){return 0===t||n===r?n:t*(r-n)+n}function w(t,n,r){var e=b(t,n,r);return e<=0?0:e}function x(t,n,r){return 0===t?n:1===t?r:{x:b(t,n.x,r.x),y:b(t,n.y,r.y)}}function k(t,n,r){var e=function(t,n,r){return Math.round(b(t,n,r))}(t,n,r);return e<=0?0:e>=255?255:e}function A(t,n,r){return 0===t?n:1===t?r:{r:k(t,n.r,r.r),g:k(t,n.g,r.g),b:k(t,n.b,r.b),a:b(t,null==n.a?1:n.a,null==r.a?1:r.a)}}function _(t,n,r){if(0===t)return n;if(1===t)return r;var e=n.length;if(e!==r.length)return m(t,n,r);for(var i=[],o=0;o<e;o++)i.push(A(t,n[o],r[o]));return i}function S(t,n){for(var r=[],e=0;e<t;e++)r.push(n);return r}function O(t,n){if(--n<=0)return t;var r=(t=Object.assign([],t)).length;do{for(var e=0;e<r;e++)t.push(t[e])}while(--n>0);return t}var M,j=function(){function t(r){n(this,t),this.list=r,this.length=r.length}return e(t,[{key:"setAttribute",value:function(t,n){for(var r=this.list,e=0;e<this.length;e++)r[e].setAttribute(t,n)}},{key:"removeAttribute",value:function(t){for(var n=this.list,r=0;r<this.length;r++)n[r].removeAttribute(t)}},{key:"style",value:function(t,n){for(var r=this.list,e=0;e<this.length;e++)r[e].style[t]=n}}]),t}(),F=/-./g,P=function(t,n){return n.toUpperCase()};function B(t){return"function"==typeof t?t:m}function I(t){return t?"function"==typeof t?t:Array.isArray(t)?function(t){var n=arguments.length>1&&void 0!==arguments[1]?arguments[1]:s;if(!Array.isArray(t))return n;switch(t.length){case 1:return d(t[0])||n;case 2:return d(t[0],t[1])||n;case 4:return h(t[0],t[1],t[2],t[3])||n}return n}(t,null):function(t,n){var r=arguments.length>2&&void 0!==arguments[2]?arguments[2]:s;switch(t){case"linear":return s;case"steps":return d(n.steps||1,n.jump||0)||r;case"bezier":case"cubic-bezier":return h(n.x1||0,n.y1||0,n.x2||0,n.y2||0)||r}return r}(t.type,t.value,null):null}function R(t,n,r){var e=arguments.length>3&&void 0!==arguments[3]&&arguments[3],i=n.length-1;if(t<=n[0].t)return e?[0,0,n[0].v]:n[0].v;if(t>=n[i].t)return e?[i,1,n[i].v]:n[i].v;var o,u=n[0],a=null;for(o=1;o<=i;o++){if(!(t>n[o].t)){a=n[o];break}u=n[o]}return null==a?e?[i,1,n[i].v]:n[i].v:u.t===a.t?e?[o,1,a.v]:a.v:(t=(t-u.t)/(a.t-u.t),u.e&&(t=u.e(t)),e?[o,t,r(t,u.v,a.v)]:r(t,u.v,a.v))}function q(t,n){var r=arguments.length>2&&void 0!==arguments[2]?arguments[2]:null;return t&&t.length?"function"!=typeof n?null:("function"!=typeof r&&(r=null),function(e){var i=R(e,t,n);return null!=i&&r&&(i=r(i)),i}):null}function E(t,n){return t.t-n.t}function T(n,r,e,i,o){var u,a="@"===e[0],l="#"===e[0],f=M[e],s=m;switch(a?(u=e.substr(1),e=u.replace(F,P)):l&&(e=e.substr(1)),t(f)){case"function":if(s=f(i,o,R,I,e,a,r,n),l)return s;break;case"string":s=q(i,B(f));break;case"object":if((s=q(i,B(f.i),f.f))&&"function"==typeof f.u)return f.u(r,s,e,a,n)}return s?function(t,n,r){var e=arguments.length>3&&void 0!==arguments[3]&&arguments[3];if(e)return t instanceof j?function(e){return t.style(n,r(e))}:function(e){return t.style[n]=r(e)};if(Array.isArray(n)){var i=n.length;return function(e){var o=r(e);if(null==o)for(var u=0;u<i;u++)t[u].removeAttribute(n);else for(var a=0;a<i;a++)t[a].setAttribute(n,o)}}return function(e){var i=r(e);null==i?t.removeAttribute(n):t.setAttribute(n,i)}}(r,e,s,a):null}function N(n,r,e,i){if(!i||"object"!==t(i))return null;var o=null,u=null;return Array.isArray(i)?u=function(t){if(!t||!t.length)return null;for(var n=0;n<t.length;n++)t[n].e&&(t[n].e=I(t[n].e));return t.sort(E)}(i):(u=i.keys,o=i.data||null),u?T(n,r,e,u,o):null}function C(t,n,r){if(!r)return null;var e=[];for(var i in r)if(r.hasOwnProperty(i)){var o=N(t,n,i,r[i]);o&&e.push(o)}return e.length?e:null}function z(t,n){if(!n.duration||n.duration<0)return null;var r=function(t,n){if(!n)return null;var r=[];if(Array.isArray(n))for(var e=n.length,i=0;i<e;i++){var o=n[i];if(2===o.length){var u=null;if("string"==typeof o[0])u=t.getElementById(o[0]);else if(Array.isArray(o[0])){u=[];for(var a=0;a<o[0].length;a++)if("string"==typeof o[0][a]){var l=t.getElementById(o[0][a]);l&&u.push(l)}u=u.length?1===u.length?u[0]:new j(u):null}if(u){var f=C(t,u,o[1]);f&&(r=r.concat(f))}}}else for(var s in n)if(n.hasOwnProperty(s)){var c=t.getElementById(s);if(c){var h=C(t,c,n[s]);h&&(r=r.concat(h))}}return r.length?r:null}(t,n.elements);return r?function(t,n){var r=arguments.length>2&&void 0!==arguments[2]?arguments[2]:1/0,e=arguments.length>3&&void 0!==arguments[3]?arguments[3]:1,i=arguments.length>4&&void 0!==arguments[4]&&arguments[4],o=arguments.length>5&&void 0!==arguments[5]?arguments[5]:1,u=t.length,a=e>0?n:0;i&&r%2==0&&(a=n-a);var l=null;return function(f,s){var c=f%n,h=1+(f-c)/n;s*=e,i&&h%2==0&&(s=-s);var v=!1;if(h>r)c=a,v=!0,-1===o&&(c=e>0?0:n);else if(s<0&&(c=n-c),c===l)return!1;l=c;for(var y=0;y<u;y++)t[y](c);return v}}(r,n.duration,n.iterations||1/0,n.direction||1,!!n.alternate,n.fill||1):null}function L(t,n){if(M=n,!t||!t.root||!Array.isArray(t.animations))return null;for(var r=document.getElementsByTagName("svg"),e=!1,i=0;i<r.length;i++)if(r[i].id===t.root&&!r[i].svgatorAnimation){(e=r[i]).svgatorAnimation=!0;break}if(!e)return null;var o=t.animations.map((function(t){return z(e,t)})).filter((function(t){return!!t}));return o.length?{element:e,animations:o,animationSettings:t.animationSettings,options:t.options||void 0}:null}var D=function(){function t(r,e){var i=arguments.length>2&&void 0!==arguments[2]?arguments[2]:{};n(this,t),this._id=0,this._running=!1,this._rollingBack=!1,this._animations=r,this.duration=e.duration,this.alternate=e.alternate,this.fill=e.fill,this.iterations=e.iterations,this.direction=i.direction||1,this.speed=i.speed||1,this.fps=i.fps||100,this.offset=i.offset||0,this.rollbackStartOffset=0}return e(t,[{key:"_rollback",value:function(){var t=this,n=1/0,r=null;this.rollbackStartOffset=this.offset,this._rollingBack||(this._rollingBack=!0,this._running=!0);this._id=window.requestAnimationFrame((function e(i){if(t._rollingBack){null==r&&(r=i);var o=i-r,u=t.rollbackStartOffset-o,a=Math.round(u*t.speed);if(a>t.duration&&n!=1/0){var l=!!t.alternate&&a/t.duration%2>1,f=a%t.duration;a=(f+=l?t.duration:0)||t.duration}var s=t.fps?1e3/t.fps:0,c=Math.max(0,a);if(c<n-s){t.offset=c,n=c;for(var h=t._animations,v=h.length,y=0;y<v;y++)h[y](c,t.direction)}var d=!1;if(t.iterations>0&&-1===t.fill){var g=t.iterations*t.duration,p=g==a;a=p?0:a,t.offset=p?0:t.offset,d=a>g}a>0&&t.offset>=a&&!d?t._id=window.requestAnimationFrame(e):t.stop()}}))}},{key:"_start",value:function(){var t=this,n=arguments.length>0&&void 0!==arguments[0]?arguments[0]:0,r=-1/0,e=null,i={},o=function o(u){t._running=!0,null==e&&(e=u);var a=Math.round((u-e+n)*t.speed),l=t.fps?1e3/t.fps:0;if(a>r+l&&!t._rollingBack){t.offset=a,r=a;for(var f=t._animations,s=f.length,c=0,h=0;h<s;h++)i[h]?c++:(i[h]=f[h](a,t.direction),i[h]&&c++);if(c===s)return void t._stop()}t._id=window.requestAnimationFrame(o)};this._id=window.requestAnimationFrame(o)}},{key:"_stop",value:function(){this._id&&window.cancelAnimationFrame(this._id),this._running=!1,this._rollingBack=!1}},{key:"play",value:function(){!this._rollingBack&&this._running||(this._rollingBack=!1,this.rollbackStartOffset>this.duration&&(this.offset=this.rollbackStartOffset-(this.rollbackStartOffset-this.offset)%this.duration,this.rollbackStartOffset=0),this._start(this.offset))}},{key:"stop",value:function(){this._stop(),this.offset=0,this.rollbackStartOffset=0;var t=this.direction,n=this._animations;window.requestAnimationFrame((function(){for(var r=0;r<n.length;r++)n[r](0,t)}))}},{key:"reachedToEnd",value:function(){return this.iterations>0&&this.offset>=this.iterations*this.duration}},{key:"restart",value:function(){this._stop(),this.offset=0,this._start()}},{key:"pause",value:function(){this._stop()}},{key:"reverse",value:function(){this.direction=-this.direction}}],[{key:"build",value:function(n,r){return(n=L(n,r))?{el:n.element,options:n.options||{},player:new t(n.animations,n.animationSettings,n.options)}:null}}]),t}();!function(){for(var t=0,n=["ms","moz","webkit","o"],r=0;r<n.length&&!window.requestAnimationFrame;++r)window.requestAnimationFrame=window[n[r]+"RequestAnimationFrame"],window.cancelAnimationFrame=window[n[r]+"CancelAnimationFrame"]||window[n[r]+"CancelRequestAnimationFrame"];window.requestAnimationFrame||(window.requestAnimationFrame=function(n){var r=Date.now(),e=Math.max(0,16-(r-t)),i=window.setTimeout((function(){n(r+e)}),e);return t=r+e,i},window.cancelAnimationFrame=window.clearTimeout)}();var Q=/\.0+$/g;function U(t){return Number.isInteger(t)?t+"":t.toFixed(6).replace(Q,"")}function V(t){var n=arguments.length>1&&void 0!==arguments[1]?arguments[1]:" ";return t&&t.length?t.map(U).join(n):""}function $(t){return t?null==t.a||t.a>=1?"rgb("+t.r+","+t.g+","+t.b+")":"rgba("+t.r+","+t.g+","+t.b+","+t.a+")":"transparent"}var G={f:null,i:function(t,n,r){return 0===t?n:1===t?r:{x:w(t,n.x,r.x),y:w(t,n.y,r.y)}},u:function(t,n){return function(r){var e=n(r);t.setAttribute("rx",U(e.x)),t.setAttribute("ry",U(e.y))}}},H={f:null,i:function(t,n,r){return 0===t?n:1===t?r:{width:w(t,n.width,r.width),height:w(t,n.height,r.height)}},u:function(t,n){return function(r){var e=n(r);t.setAttribute("width",U(e.width)),t.setAttribute("height",U(e.height))}}},Y=Math.sin,Z=Math.cos,J=Math.acos,K=Math.asin,W=Math.tan,X=Math.atan2,tt=Math.PI/180,nt=180/Math.PI,rt=Math.sqrt,et=function(){function t(){var r=arguments.length>0&&void 0!==arguments[0]?arguments[0]:1,e=arguments.length>1&&void 0!==arguments[1]?arguments[1]:0,i=arguments.length>2&&void 0!==arguments[2]?arguments[2]:0,o=arguments.length>3&&void 0!==arguments[3]?arguments[3]:1,u=arguments.length>4&&void 0!==arguments[4]?arguments[4]:0,a=arguments.length>5&&void 0!==arguments[5]?arguments[5]:0;n(this,t),this.m=[r,e,i,o,u,a],this.i=null,this.w=null,this.s=null}return e(t,[{key:"determinant",get:function(){var t=this.m;return t[0]*t[3]-t[1]*t[2]}},{key:"isIdentity",get:function(){if(null===this.i){var t=this.m;this.i=1===t[0]&&0===t[1]&&0===t[2]&&1===t[3]&&0===t[4]&&0===t[5]}return this.i}},{key:"point",value:function(t,n){var r=this.m;return{x:r[0]*t+r[2]*n+r[4],y:r[1]*t+r[3]*n+r[5]}}},{key:"translateSelf",value:function(){var t=arguments.length>0&&void 0!==arguments[0]?arguments[0]:0,n=arguments.length>1&&void 0!==arguments[1]?arguments[1]:0;if(!t&&!n)return this;var r=this.m;return r[4]+=r[0]*t+r[2]*n,r[5]+=r[1]*t+r[3]*n,this.w=this.s=this.i=null,this}},{key:"rotateSelf",value:function(){var t=arguments.length>0&&void 0!==arguments[0]?arguments[0]:0;if(t%=360){var n=Y(t*=tt),r=Z(t),e=this.m,i=e[0],o=e[1];e[0]=i*r+e[2]*n,e[1]=o*r+e[3]*n,e[2]=e[2]*r-i*n,e[3]=e[3]*r-o*n,this.w=this.s=this.i=null}return this}},{key:"scaleSelf",value:function(){var t=arguments.length>0&&void 0!==arguments[0]?arguments[0]:1,n=arguments.length>1&&void 0!==arguments[1]?arguments[1]:1;if(1!==t||1!==n){var r=this.m;r[0]*=t,r[1]*=t,r[2]*=n,r[3]*=n,this.w=this.s=this.i=null}return this}},{key:"skewSelf",value:function(t,n){if(n%=360,(t%=360)||n){var r=this.m,e=r[0],i=r[1],o=r[2],u=r[3];t&&(t=W(t*tt),r[2]+=e*t,r[3]+=i*t),n&&(n=W(n*tt),r[0]+=o*n,r[1]+=u*n),this.w=this.s=this.i=null}return this}},{key:"resetSelf",value:function(){var t=arguments.length>0&&void 0!==arguments[0]?arguments[0]:1,n=arguments.length>1&&void 0!==arguments[1]?arguments[1]:0,r=arguments.length>2&&void 0!==arguments[2]?arguments[2]:0,e=arguments.length>3&&void 0!==arguments[3]?arguments[3]:1,i=arguments.length>4&&void 0!==arguments[4]?arguments[4]:0,o=arguments.length>5&&void 0!==arguments[5]?arguments[5]:0,u=this.m;return u[0]=t,u[1]=n,u[2]=r,u[3]=e,u[4]=i,u[5]=o,this.w=this.s=this.i=null,this}},{key:"recomposeSelf",value:function(){var t=arguments.length>0&&void 0!==arguments[0]?arguments[0]:null,n=arguments.length>1&&void 0!==arguments[1]?arguments[1]:null,r=arguments.length>2&&void 0!==arguments[2]?arguments[2]:null,e=arguments.length>3&&void 0!==arguments[3]?arguments[3]:null,i=arguments.length>4&&void 0!==arguments[4]?arguments[4]:null;return this.isIdentity||this.resetSelf(),t&&(t.x||t.y)&&this.translateSelf(t.x,t.y),n&&this.rotateSelf(n),r&&(r.x&&this.skewSelf(r.x,0),r.y&&this.skewSelf(0,r.y)),!e||1===e.x&&1===e.y||this.scaleSelf(e.x,e.y),i&&(i.x||i.y)&&this.translateSelf(i.x,i.y),this}},{key:"decompose",value:function(){var t=arguments.length>0&&void 0!==arguments[0]?arguments[0]:0,n=arguments.length>1&&void 0!==arguments[1]?arguments[1]:0,r=this.m,e=r[0]*r[0]+r[1]*r[1],i=[[r[0],r[1]],[r[2],r[3]]],o=rt(e);if(0===o)return{origin:{x:r[4],y:r[5]},translate:{x:t,y:n},scale:{x:0,y:0},skew:{x:0,y:0},rotate:0};i[0][0]/=o,i[0][1]/=o;var u=r[0]*r[3]-r[1]*r[2]<0;u&&(o=-o);var a=i[0][0]*i[1][0]+i[0][1]*i[1][1];i[1][0]-=i[0][0]*a,i[1][1]-=i[0][1]*a;var l=rt(i[1][0]*i[1][0]+i[1][1]*i[1][1]);if(0===l)return{origin:{x:r[4],y:r[5]},translate:{x:t,y:n},scale:{x:o,y:0},skew:{x:0,y:0},rotate:0};i[1][0]/=l,i[1][1]/=l,a/=l;var f=0;return i[1][1]<0?(f=J(i[1][1])*nt,i[0][1]<0&&(f=360-f)):f=K(i[0][1])*nt,u&&(f=-f),a=X(a,rt(i[0][0]*i[0][0]+i[0][1]*i[0][1]))*nt,u&&(a=-a),{origin:{x:r[4],y:r[5]},translate:{x:t,y:n},scale:{x:o,y:l},skew:{x:a,y:0},rotate:f}}},{key:"toString",value:function(){return null===this.s&&(this.s="matrix("+this.m.map(ot).join(" ")+")"),this.s}}]),t}(),it=/\.0+$/;function ot(t){return Number.isInteger(t)?t:t.toFixed(14).replace(it,"")}function ut(t,n,r){return t+(n-t)*r}function at(t,n,r){var e=arguments.length>3&&void 0!==arguments[3]&&arguments[3],i={x:ut(t.x,n.x,r),y:ut(t.y,n.y,r)};return e&&(i.a=lt(t,n)),i}function lt(t,n){return Math.atan2(n.y-t.y,n.x-t.x)}Object.freeze({M:2,L:2,Z:0,H:1,V:1,C:6,Q:4,T:2,S:4,A:7});var ft={},st=null;function ct(n){var r=function(){if(st)return st;if("object"!==("undefined"==typeof document?"undefined":t(document)))return{};var n=document.createElementNS("http://www.w3.org/2000/svg","svg");return n.style.position="absolute",n.style.opacity="0.01",n.style.zIndex="-9999",n.style.left="-9999px",n.style.width="1px",n.style.height="1px",st={svg:n}}().svg;if(!r)return function(t){return null};var e=document.createElementNS(r.namespaceURI,"path");e.setAttributeNS(null,"d",n),e.setAttributeNS(null,"fill","none"),e.setAttributeNS(null,"stroke","none"),r.appendChild(e);var i=e.getTotalLength();return function(t){var n=e.getPointAtLength(i*t);return{x:n.x,y:n.y}}}function ht(t){return ft[t]?ft[t]:ft[t]=ct(t)}function vt(t,n,r,e){if(!t||!e)return!1;var i=["M",t.x,t.y];if(n&&r&&(i.push("C"),i.push(n.x),i.push(n.y),i.push(r.x),i.push(r.y)),n?!r:r){var o=n||r;i.push("Q"),i.push(o.x),i.push(o.y)}return n||r||i.push("L"),i.push(e.x),i.push(e.y),i.join(" ")}function yt(t,n,r,e){var i=arguments.length>4&&void 0!==arguments[4]?arguments[4]:1,o=vt(t,n,r,e),u=ht(o);try{return u(i)}catch(t){return null}}function dt(t,n,r,e){var i=1-e;return i*i*t+2*i*e*n+e*e*r}function gt(t,n,r,e){return 2*(1-e)*(n-t)+2*e*(r-n)}function pt(t,n,r,e){var i=arguments.length>4&&void 0!==arguments[4]&&arguments[4],o=yt(t,n,null,r,e);return o||(o={x:dt(t.x,n.x,r.x,e),y:dt(t.y,n.y,r.y,e)}),i&&(o.a=mt(t,n,r,e)),o}function mt(t,n,r,e){return Math.atan2(gt(t.y,n.y,r.y,e),gt(t.x,n.x,r.x,e))}function bt(t,n,r,e,i){var o=i*i;return i*o*(e-t+3*(n-r))+3*o*(t+r-2*n)+3*i*(n-t)+t}function wt(t,n,r,e,i){var o=1-i;return 3*(o*o*(n-t)+2*o*i*(r-n)+i*i*(e-r))}function xt(t,n,r,e,i){var o=arguments.length>5&&void 0!==arguments[5]&&arguments[5],u=yt(t,n,r,e,i);return u||(u={x:bt(t.x,n.x,r.x,e.x,i),y:bt(t.y,n.y,r.y,e.y,i)}),o&&(u.a=kt(t,n,r,e,i)),u}function kt(t,n,r,e,i){return Math.atan2(wt(t.y,n.y,r.y,e.y,i),wt(t.x,n.x,r.x,e.x,i))}function At(t,n,r){var e=arguments.length>3&&void 0!==arguments[3]&&arguments[3];if(St(n)){if(Ot(r))return pt(n,r.start,r,t,e)}else if(St(r)){if(n.end)return pt(n,n.end,r,t,e)}else{if(n.end)return r.start?xt(n,n.end,r.start,r,t,e):pt(n,n.end,r,t,e);if(r.start)return pt(n,r.start,r,t,e)}return at(n,r,t,e)}function _t(t,n,r){var e=At(t,n,r,!0);return e.a=function(t){var n=arguments.length>1&&void 0!==arguments[1]&&arguments[1];return n?t+Math.PI:t}(e.a)/p,e}function St(t){return!t.type||"corner"===t.type}function Ot(t){return null!=t.start&&!St(t)}var Mt=new et;var jt={f:U,i:b},Ft={f:U,i:function(t,n,r){var e=b(t,n,r);return e<=0?0:e>=1?1:e}};function Pt(t,n,r,e,i,o,u,a){return n=function(t,n,r){for(var e,i,o,u=t.length-1,a={},l=0;l<=u;l++)(e=t[l]).e&&(e.e=n(e.e)),e.v&&"g"===(i=e.v).t&&i.r&&(o=r.getElementById(i.r))&&(a[i.r]=o.querySelectorAll("stop"));return a}(t,e,a),function(e){var i,o=r(e,t,Bt);return o?"c"===o.t?$(o.v):"g"===o.t?(n[o.r]&&function(t,n){for(var r=0,e=t.length;r<e;r++)t[r].setAttribute("stop-color",$(n[r]))}(n[o.r],o.v),(i=o.r)?"url(#"+i+")":"none"):"none":"none"}}function Bt(t,n,r){if(0===t)return n;if(1===t)return r;if(n&&r){var e=n.t;if(e===r.t)switch(n.t){case"c":return{t:e,v:A(t,n.v,r.v)};case"g":if(n.r===r.r)return{t:e,v:_(t,n.v,r.v),r:n.r}}}return m(t,n,r)}var It={fill:Pt,"fill-opacity":Ft,stroke:Pt,"stroke-opacity":Ft,"stroke-width":jt,"stroke-dashoffset":{f:U,i:b},"stroke-dasharray":{f:function(t){var n=arguments.length>1&&void 0!==arguments[1]?arguments[1]:" ";return t&&t.length>0&&(t=t.map((function(t){return Math.floor(1e4*t)/1e4}))),V(t,n)},i:function(t,n,r){var e,i,o,u=n.length,a=r.length;if(u!==a)if(0===u)n=S(u=a,0);else if(0===a)a=u,r=S(u,0);else{var l=(o=(e=u)*(i=a)/function(t,n){for(var r;n;)r=n,n=t%n,t=r;return t||1}(e,i))<0?-o:o;n=O(n,Math.floor(l/u)),r=O(r,Math.floor(l/a)),u=a=l}for(var f=[],s=0;s<u;s++)f.push(g(w(t,n[s],r[s]),6));return f}},opacity:Ft,transform:function(n,r,e,i){if(!(n=function(n,r){if(!n||"object"!==t(n))return null;var e=!1;for(var i in n)n.hasOwnProperty(i)&&(n[i]&&n[i].length?(n[i].forEach((function(t){t.e&&(t.e=r(t.e))})),e=!0):delete n[i]);return e?n:null}(n,i)))return null;var o=function(t,i,o){var u=arguments.length>3&&void 0!==arguments[3]?arguments[3]:null;return n[t]?e(i,n[t],o):r&&r[t]?r[t]:u};return r&&r.a&&n.o?function(t){var r=e(t,n.o,_t);return Mt.recomposeSelf(r,o("r",t,b,0)+r.a,o("k",t,x),o("s",t,x),o("t",t,x)).toString()}:function(t){return Mt.recomposeSelf(o("o",t,At,null),o("r",t,b,0),o("k",t,x),o("s",t,x),o("t",t,x)).toString()}},r:jt,"#size":H,"#radius":G,_:function(t,n){if(Array.isArray(t))for(var r=0;r<t.length;r++)this[t[r]]=n;else this[t]=n}};return function(t){!function(t,n){if("function"!=typeof n&&null!==n)throw new TypeError("Super expression must either be null or a function");t.prototype=Object.create(n&&n.prototype,{constructor:{value:t,writable:!0,configurable:!0}}),n&&o(t,n)}(u,t);var r=a(u);function u(){return n(this,u),r.apply(this,arguments)}return e(u,null,[{key:"build",value:function(t){var n=l(i(u),"build",this).call(this,t,It);n.el,n.options;var r=n.player;return function(t){t.play()}(r),r}}]),u}(D)}));
__SVGATOR_PLAYER__.build({"root":"e6ym5zcfo9s51","animations":[{"duration":3000,"direction":-1,"iterations":0,"fill":1,"alternate":true,"elements":{"e6ym5zcfo9s510":{"transform":{"data":{"o":{"x":339.8360196517578,"y":263.8899999986133,"type":"corner"},"t":{"x":-339.8410186767578,"y":-263.9039993286133}},"keys":{"s":[{"t":0,"v":{"x":1,"y":1}},{"t":200,"v":{"x":1,"y":0.06}},{"t":400,"v":{"x":1,"y":1}}]}}},"e6ym5zcfo9s511":{"transform":{"data":{"o":{"x":319.9871063232422,"y":263.9065246582031,"type":"corner"},"t":{"x":-319.9871063232422,"y":-263.9065246582031}},"keys":{"s":[{"t":0,"v":{"x":1,"y":1}},{"t":200,"v":{"x":1,"y":0.06}},{"t":400,"v":{"x":1,"y":1}}]}}},"e6ym5zcfo9s512":{"transform":{"data":{"o":{"x":359.6983184814453,"y":263.8900146484375,"type":"corner"},"t":{"x":-359.6983184814453,"y":-263.8900146484375}},"keys":{"s":[{"t":0,"v":{"x":1,"y":1}},{"t":200,"v":{"x":1,"y":0.06}},{"t":400,"v":{"x":1,"y":1}}]}}},"e6ym5zcfo9s515":{"transform":{"data":{"o":{"x":341.67298473789066,"y":319.870410891875,"type":"corner"},"t":{"x":-341.6739807128906,"y":-321.805419921875}},"keys":{"r":[{"t":0,"v":0},{"t":1500,"v":3.5018550457161948},{"t":3000,"v":-3.787646462679354}]}}}}}],"options":{"start":"load","hover":"freeze","click":"freeze","scroll":25,"font":"embed","exportedIds":"unique","title":"hero-desktop"},"animationSettings":{"duration":3000,"direction":-1,"iterations":0,"fill":1,"alternate":true}})]]></script></svg>