<svg xmlns="http://www.w3.org/2000/svg" width="375" height="420" viewBox="0 0 375 420">
    <defs>
        <clipPath id="clip-path">
            <path id="Rectangle_1798" d="M0 0H375V420H0z" class="cls-1"/>
        </clipPath>
        <style>
            .cls-1,.cls-8{fill:#fff}.cls-3{fill:#67d0ff}.cls-4{fill:#060a3d}.cls-11{fill:#f8c81e;stroke:#191405}.cls-7,.cls-8{fill-rule:evenodd}
        </style>
    </defs>
    <g id="Mask_Group_75" clip-path="url(#clip-path)">
        <path id="Rectangle_1723" d="M0 0H375V425H0z" class="cls-3"/>
        <g id="Group_8389" transform="translate(-188 59.55)">
            <g id="Group_8377" transform="translate(121.148 50.45)">
                <g id="Group_8360">
                    <g id="Group_8359">
                        <path id="Path_21752" d="M360.037 146.29a.836.836 0 0 1-.813-.643L340.766 67.8l-.919-1.622a27.38 27.38 0 0 0-23.663-14.051H204.931a27.384 27.384 0 0 0-23.664 14.052l-.918 1.622-18.4 77.61a.836.836 0 1 1-1.628-.386L178.748 67.3a.858.858 0 0 1 .086-.22l.977-1.726a29.062 29.062 0 0 1 25.12-14.9h111.253a29.058 29.058 0 0 1 25.118 14.9l.978 1.726a.845.845 0 0 1 .086.22l18.485 77.966a.836.836 0 0 1-.621 1.007.852.852 0 0 1-.193.017z" class="cls-4" transform="translate(-160.298 -50.45)"/>
                        <path id="Path_21753" fill="#060a3d" d="M193.779 147.423l14.527-61.273.281-.5a18.262 18.262 0 0 1 15.739-9.432h111.253a18.262 18.262 0 0 1 15.74 9.434l.28.494 14.527 61.272a5.145 5.145 0 0 1-5.006 6.332H198.786a5.145 5.145 0 0 1-5.007-6.327z" opacity="0.497" transform="translate(-179.693 -65.442)"/>
                        <path id="Path_21754" d="M217.864 107.932l-13.586 57.3 15.986-8.788 10.927-42.862z" class="cls-3" transform="translate(-185.882 -83.889)"/>
                        <path id="Path_21755" d="M545.579 107.932l13.586 57.3-15.986-8.788-10.927-42.862z" class="cls-3" transform="translate(-376.676 -83.889)"/>
                        <path id="Path_21756" d="M358.352 110.507h-68.89a11.292 11.292 0 0 0-9.576 5.074l-10.691 40.4h109.423l-10.691-40.4a11.292 11.292 0 0 0-9.575-5.074z" class="cls-3" transform="translate(-223.647 -85.387)"/>
                    </g>
                </g>
                <g id="Group_8376" transform="translate(122.79 17.586)">
                    <g id="Group_8368" transform="translate(2.464 53.01)">
                        <path id="Path_21796" d="M496.137 222.394c-.469-1.655-6.232-3.162-7.532-3.162h-17.217c-1.3 0-7.063 1.508-7.532 3.162l-4.1 14.472h40.476z" transform="translate(-459.758 -219.232)"/>
                    </g>
                    <g id="Group_8388" transform="translate(3.367)">
                        <path id="Path_21842" fill="#f8c81e" fill-rule="evenodd" stroke="#191405" stroke-miterlimit="10" stroke-width="2px" d="M403.2 102.313a17.341 17.341 0 0 0-9.053 15.2l.011 12.735a17.345 17.345 0 0 0 17.3 17.285 17.345 17.345 0 0 0 17.285-17.3l-.011-12.735a17.345 17.345 0 0 0-17.3-17.285 17.2 17.2 0 0 0-3.487.357" transform="translate(-392.927 -87.849)"/>
                        <path id="Path_21843" d="M408.606 129.571c.1-2.842 2.971-2.844 3.074 0 .718 8.213 13.173 9.008 14.581 1.295.261-1.429.619-3.959 2.39-4.237v-1.965c-3.072-.067-5.975-1.008-9.016-.923-4.08.118-5.469 1.923-9.493 2.211-4.025-.283-5.415-2.087-9.5-2.2-3.04-.083-5.943.862-9.014.932v1.965c1.771.277 2.132 2.806 2.394 4.234 1.418 7.711 13.872 6.9 14.58-1.311zm4.262-.063c-.092-2.043.22-2.886 2.2-3.555a15.507 15.507 0 0 1 4.577-1c4.391-.127 6.266.961 5.4 5.694-1.158 6.337-11.542 5.616-12.177-1.139zm-5.448-.028c-.63 6.786-11.014 7.519-12.179 1.182-.87-4.732 1-5.821 5.394-5.7a15.488 15.488 0 0 1 4.579 1c1.98.667 2.293 1.509 2.206 3.522z" class="cls-7" transform="translate(-391.631 -99.979)"/>
                        <path id="Path_21844" d="M415.865 156.521a.552.552 0 1 0 .207-1.085 2.476 2.476 0 0 0-2.6 1.193.552.552 0 0 0 .957.553 1.376 1.376 0 0 1 .172-.238 7.391 7.391 0 0 0 13.547-.007 1.392 1.392 0 0 1 .173.237.552.552 0 1 0 .956-.553 2.474 2.474 0 0 0-2.6-1.19.552.552 0 0 0 .2 1.085 1.473 1.473 0 0 1 .26-.024 6.288 6.288 0 0 1-11.529.006 1.4 1.4 0 0 1 .258.024z" class="cls-7" transform="translate(-402.853 -116.299)"/>
                        <path id="Path_21845" d="M408.612 128.56a3.58 3.58 0 1 0 3.582 3.578 3.58 3.58 0 0 0-3.582-3.578z" class="cls-8" transform="translate(-398.542 -102.467)"/>
                        <path id="Path_21846" d="M443.462 128.541a3.58 3.58 0 1 0 3.581 3.578 3.58 3.58 0 0 0-3.581-3.578z" class="cls-8" transform="translate(-416.511 -102.457)"/>
                        <path id="Path_21847" d="M410.544 132.165a1.837 1.837 0 0 0-1.746 2.394 1.16 1.16 0 0 1 1.914 1.265 1.834 1.834 0 0 0 1.528-2.523h-.071a.622.622 0 0 1-.622-.622.6.6 0 0 1 .031-.2 1.825 1.825 0 0 0-1.035-.32z" class="cls-7" transform="translate(-400.438 -104.326)"/>
                        <path id="Path_21848" fill="#313131" fill-rule="evenodd" d="M445.25 132.146a1.833 1.833 0 0 0-1.786 2.241 1.159 1.159 0 0 1 1.744 1.425h.045a1.834 1.834 0 0 0 1.673-2.581.623.623 0 0 1-.88-.567.63.63 0 0 1 .076-.3 1.828 1.828 0 0 0-.871-.219z" transform="translate(-418.334 -104.316)"/>
                        <path id="Path_21849" d="M394.841 85.3a12.5 12.5 0 0 0 2.778 1.811c-3.268-2.647-2.854-4.533-1.728-9.625.076-.341.152-.693.325-1.5l.272-1.3.627 1.178a.765.765 0 0 1 .065.106c.274.39 1.682 2 6.766 2.566 3.055.34 5.735.651 7.688.915a16.462 16.462 0 0 1 3.649.689 26.844 26.844 0 0 1 2.322 2.229 2.073 2.073 0 0 0-.094-.656 10.305 10.305 0 0 0-1.524-2.782l-.591-.852 1.071.173a8.475 8.475 0 0 1 3.857 1.465 6.766 6.766 0 0 1 2.021 2.5 11.394 11.394 0 0 1 .686 1.665 12.141 12.141 0 0 0 .323-1.642l.132-1.064.739.83a14.752 14.752 0 0 1 2.333 3.337 8.326 8.326 0 0 1 .839 3.9v.044c-.1.736 1.107 3.167 1.2 5.923a29.45 29.45 0 0 1-1.017 7.313l-3.62-7.792c0-.011-1.32-.358-1.638-.965a8.627 8.627 0 0 0-2.029-2.251 3.89 3.89 0 0 0-1.988-.894 41.564 41.564 0 0 0-7 .4h-.012l-.1.015-.095-.03c-1.026-.281-2.242-.612-3.45-.9a23.472 23.472 0 0 0-3.413-.592 3.894 3.894 0 0 0-2.1.574A8.428 8.428 0 0 0 399.773 92c-.409.55-4.934 5.566-4.934 5.566s.972-1.7.691-2.162c-1.516-2.423-1.352-4.917-1.519-9.784l-.035-1.1z" transform="translate(-392.84 -74.69)"/>
                    </g>
                    <path id="Path_21817" fill="#2c2934" d="M459.7 231.247a16.855 16.855 0 0 1 33.649 0h5.83a22.676 22.676 0 0 0-45.308 0z" transform="translate(-453.867 -160.603)"/>
                    <g id="Group_8374" transform="translate(2.423 49.787)">
                        <path id="Path_21818" d="M462.964 227.093a1.21 1.21 0 0 1-1.71 0l-1.24-1.24a1.209 1.209 0 0 1 0-1.71 1.209 1.209 0 0 1 1.71 0l1.24 1.24a1.21 1.21 0 0 1 0 1.71z" class="cls-11" transform="translate(-459.66 -218.66)"/>
                        <path id="Path_21819" d="M466.056 222.01a1.208 1.208 0 0 1-1.709 0l-2.435-2.435a1.209 1.209 0 0 1 0-1.71 1.209 1.209 0 0 1 1.71 0l2.435 2.435a1.208 1.208 0 0 1-.001 1.71z" class="cls-11" transform="translate(-460.764 -215.008)"/>
                        <path id="Path_21820" d="M470.144 217.923a1.21 1.21 0 0 1-1.71 0L466 215.488a1.209 1.209 0 0 1 0-1.71 1.209 1.209 0 0 1 1.709 0l2.435 2.435a1.21 1.21 0 0 1 0 1.71z" class="cls-11" transform="translate(-463.142 -212.631)"/>
                        <path id="Path_21821" d="M476.422 216.026a1.21 1.21 0 0 1-1.71 0l-2.435-2.435a1.208 1.208 0 0 1 0-1.709 1.208 1.208 0 0 1 1.709 0l2.435 2.435a1.209 1.209 0 0 1 .001 1.709z" class="cls-11" transform="translate(-466.794 -211.527)"/>
                    </g>
                    <g id="Group_8375" transform="translate(32.903 49.787)">
                        <path id="Path_21822" d="M548.007 227.093a1.21 1.21 0 0 0 1.71 0l1.24-1.24a1.209 1.209 0 0 0 0-1.71 1.209 1.209 0 0 0-1.71 0l-1.24 1.24a1.21 1.21 0 0 0 0 1.71z" class="cls-11" transform="translate(-541.329 -218.66)"/>
                        <path id="Path_21823" d="M543.252 222.01a1.209 1.209 0 0 0 1.71 0l2.435-2.435a1.209 1.209 0 0 0 0-1.71 1.209 1.209 0 0 0-1.71 0l-2.435 2.435a1.209 1.209 0 0 0 0 1.71z" class="cls-11" transform="translate(-538.563 -215.008)"/>
                        <path id="Path_21824" d="M539.165 217.923a1.21 1.21 0 0 0 1.71 0l2.435-2.435a1.209 1.209 0 0 0 0-1.71 1.209 1.209 0 0 0-1.71 0l-2.435 2.435a1.21 1.21 0 0 0 0 1.71z" class="cls-11" transform="translate(-536.185 -212.631)"/>
                        <path id="Path_21825" d="M532.887 216.026a1.209 1.209 0 0 0 1.71 0l2.435-2.435a1.209 1.209 0 0 0 0-1.709 1.209 1.209 0 0 0-1.71 0l-2.435 2.435a1.209 1.209 0 0 0 0 1.709z" class="cls-11" transform="translate(-532.532 -211.527)"/>
                    </g>
                </g>
                <path id="Path_21826" d="M361.753 241.655H224.788a8.256 8.256 0 0 0-8.256 8.256h153.477a8.256 8.256 0 0 0-8.256-8.256z" class="cls-4" transform="translate(-193.011 -161.68)"/>
            </g>
            <path id="Path_21827" fill="#060a3d" d="M348.882 529.943H132.34a6.33 6.33 0 0 1-6.33-6.33 6.33 6.33 0 0 1 6.33-6.33h216.542a6.33 6.33 0 0 1 6.33 6.33 6.33 6.33 0 0 1-6.33 6.33z" opacity="0.636" transform="translate(-19.203 -271.572)"/>
            <path id="Path_21828" d="M344.181 350.818H152.753a13.253 13.253 0 0 1-13.238-13.239v-50.011a20.44 20.44 0 0 1 20.417-20.417H337a20.44 20.44 0 0 1 20.417 20.417v50.011a13.253 13.253 0 0 1-13.236 13.239zm-184.249-81.994a18.765 18.765 0 0 0-18.744 18.744v50.011a11.579 11.579 0 0 0 11.565 11.565h191.428a11.579 11.579 0 0 0 11.565-11.565v-50.011A18.765 18.765 0 0 0 337 268.824z" class="cls-4" transform="translate(-27.059 -126.062)"/>
            <path id="Path_21829" d="M142.39 442.619V474.6a6.881 6.881 0 0 0 6.881 6.881h19.163a6.881 6.881 0 0 0 6.881-6.881v-22.572h-20.889a12.405 12.405 0 0 1-12.036-9.409zm215.511-.05a12.4 12.4 0 0 1-12.047 9.459h-20.523V474.6a6.881 6.881 0 0 0 6.881 6.881h19.163a6.881 6.881 0 0 0 6.881-6.881v-32.031z" class="cls-4" transform="translate(-28.732 -228.109)"/>
            <g id="Group_8380" transform="translate(115.54 158.597)">
                <g id="Group_8378">
                    <path id="Path_21830" d="M192.293 348.119h-25.85a19.554 19.554 0 0 1 0-39.108 19.365 19.365 0 0 1 8.069 1.76.8.8 0 0 1 .12.039l22.565 9.419a.778.778 0 0 1 .079.038 14.37 14.37 0 0 1-4.984 27.852zm-25.851-37.434a17.881 17.881 0 0 0 0 35.761h25.851a12.7 12.7 0 0 0 4.3-24.648.851.851 0 0 1-.151-.072l-22.308-9.311a.808.808 0 0 1-.177-.058 17.708 17.708 0 0 0-7.514-1.673z" class="cls-1" transform="translate(-146.889 -309.011)"/>
                    <path id="Path_21831" d="M177.657 351.269a11.49 11.49 0 1 1 11.489-11.49 11.5 11.5 0 0 1-11.489 11.49z" class="cls-1" transform="translate(-158.104 -320.226)"/>
                    <path id="Path_21832" d="M246.66 365.666a6.315 6.315 0 1 1 6.314-6.315 6.322 6.322 0 0 1-6.314 6.315z" class="cls-1" transform="translate(-201.256 -334.622)"/>
                </g>
                <g id="Group_8379" transform="translate(151.954)">
                    <path id="Path_21833" d="M550.411 348.119h-25.85a14.37 14.37 0 0 1-4.984-27.852.77.77 0 0 1 .08-.038l22.565-9.419a.835.835 0 0 1 .123-.04 19.363 19.363 0 0 1 8.065-1.758 19.554 19.554 0 1 1 0 39.108zm-30-26.392a.838.838 0 0 1-.148.071 12.7 12.7 0 0 0 4.3 24.648h25.85a17.881 17.881 0 1 0 0-35.761 17.707 17.707 0 0 0-7.512 1.672.853.853 0 0 1-.183.06z" class="cls-4" transform="translate(-510.183 -309.011)"/>
                    <path id="Path_21834" d="M590.381 351.269a11.49 11.49 0 1 0-11.489-11.49 11.5 11.5 0 0 0 11.489 11.49z" class="cls-4" transform="translate(-550.153 -320.226)"/>
                    <path id="Path_21835" d="M535.776 365.666a6.315 6.315 0 1 0-6.314-6.315 6.322 6.322 0 0 0 6.314 6.315z" class="cls-4" transform="translate(-521.398 -334.622)"/>
                </g>
            </g>
            <path id="Path_21836" d="M372.437 365.354h-62.146a11.086 11.086 0 0 1-11.091-11.086 11.086 11.086 0 0 1 11.086-11.086h62.147a11.086 11.086 0 0 1 11.086 11.086 11.086 11.086 0 0 1-11.082 11.086z" class="cls-4" transform="translate(-119.956 -170.292)"/>
            <path id="Path_21837" d="M254.123 294.631a.833.833 0 0 1-.478-.151l-36.934-25.805a.837.837 0 0 1 .958-1.371l36.931 25.804a.837.837 0 0 1-.48 1.523z" class="cls-1" transform="translate(-71.759 -126.063)"/>
            <path id="Path_21838" d="M492.181 294.63a.837.837 0 0 1-.48-1.522l36.934-25.808a.837.837 0 1 1 .958 1.371l-36.934 25.805a.833.833 0 0 1-.478.154z" class="cls-4" transform="translate(-231.73 -126.063)"/>
            <path id="Path_21839" d="M344.181 432.607H152.753a13.253 13.253 0 0 1-13.238-13.239v-10.784a.837.837 0 0 1 .837-.837h21.1a13.262 13.262 0 0 1 9.44 3.911 11.6 11.6 0 0 0 8.258 3.42h138.63a11.6 11.6 0 0 0 8.258-3.42 13.262 13.262 0 0 1 9.44-3.911h21.1a.837.837 0 0 1 .837.837v10.785a13.253 13.253 0 0 1-13.234 13.238zM141.188 409.42v9.949a11.579 11.579 0 0 0 11.565 11.565h191.428a11.579 11.579 0 0 0 11.565-11.565v-9.949H335.48a11.6 11.6 0 0 0-8.257 3.421 13.263 13.263 0 0 1-9.441 3.91h-138.63a13.264 13.264 0 0 1-9.441-3.91 11.6 11.6 0 0 0-8.257-3.421z" class="cls-4" transform="translate(-27.059 -207.852)"/>
            <rect id="Rectangle_1721" width="52.322" height="14.955" class="cls-4" rx="4.185" transform="translate(195.247 200.732)"/>
            <path id="Path_21840" d="M344.055 208.09h-17.043a5.761 5.761 0 0 0-5.761 5.761v2.744a5.729 5.729 0 0 0 .563 2.472l-4.379 2.739 1.223 4.975 7.248-4.533a5.763 5.763 0 0 0 1.106.109h17.043a5.761 5.761 0 0 0 5.761-5.761v-2.744a5.761 5.761 0 0 0-5.761-5.762zm-222.49 8.5v-2.744a5.761 5.761 0 0 0-5.761-5.761H98.761A5.761 5.761 0 0 0 93 213.851v2.744a5.761 5.761 0 0 0 5.761 5.761H115.8a5.764 5.764 0 0 0 1.106-.109l7.248 4.533 1.223-4.975-4.377-2.738a5.729 5.729 0 0 0 .565-2.472z" class="cls-4" transform="translate(0 -91.704)"/>
        </g>
        <g id="Union_45" fill="#fff" stroke="none">
            <path d="M152.429 141.96c-14.197 0-27.957-1.902-40.897-5.654-6.208-1.8-12.19-4.026-17.778-6.617-5.525-2.562-10.711-5.5-15.414-8.735l-.564-.388-.684.04-66.608 3.807 46.202-21.162 2.122-.972-1.286-1.948c-2.894-4.384-5.116-8.982-6.606-13.667-1.525-4.795-2.298-9.735-2.298-14.684 0-4.688.695-9.375 2.065-13.93 1.34-4.453 3.341-8.837 5.949-13.031 2.572-4.138 5.76-8.132 9.476-11.874 3.696-3.72 7.944-7.223 12.626-10.408 4.697-3.195 9.868-6.097 15.37-8.626 5.566-2.558 11.518-4.755 17.692-6.532 12.865-3.701 26.535-5.578 40.633-5.578 14.097 0 27.767 1.877 40.632 5.578 6.174 1.777 12.126 3.974 17.691 6.532 5.503 2.529 10.674 5.43 15.37 8.626 4.683 3.185 8.93 6.687 12.626 10.408 3.716 3.742 6.904 7.736 9.476 11.874 2.608 4.194 4.61 8.578 5.949 13.031 1.37 4.555 2.065 9.242 2.065 13.93 0 4.689-.695 9.375-2.065 13.93-1.34 4.453-3.34 8.838-5.949 13.032-2.572 4.137-5.76 8.132-9.476 11.873-3.695 3.722-7.943 7.223-12.626 10.41-4.696 3.194-9.867 6.096-15.37 8.625-5.565 2.558-11.517 4.755-17.69 6.532-12.866 3.701-26.536 5.578-40.633 5.578z" transform="rotate(25 -55.662 370.44)"/>
            <path fill="#060a3d" d="M152.429 139.96c13.91 0 27.394-1.85 40.08-5.5 6.076-1.749 11.934-3.911 17.408-6.427 5.402-2.483 10.475-5.33 15.08-8.463 4.578-3.113 8.727-6.533 12.332-10.164 3.61-3.634 6.704-7.51 9.197-11.52 5.117-8.23 7.712-16.947 7.712-25.906 0-8.96-2.595-17.675-7.712-25.905-2.493-4.01-5.587-7.886-9.197-11.52-3.605-3.631-7.754-7.05-12.332-10.165-4.605-3.132-9.678-5.98-15.08-8.462-5.474-2.516-11.332-4.678-17.409-6.427-12.685-3.65-26.17-5.5-40.08-5.5-13.91 0-27.394 1.85-40.08 5.5-6.077 1.749-11.934 3.911-17.408 6.427-5.402 2.483-10.476 5.33-15.08 8.462-4.578 3.114-8.727 6.534-12.333 10.165-3.61 3.634-6.704 7.51-9.197 11.52-5.117 8.23-7.712 16.946-7.712 25.905 0 4.743.742 9.48 2.204 14.078 1.434 4.51 3.577 8.94 6.37 13.171l2.57 3.896-4.244 1.944-36.55 16.741 56.01-3.201 1.367-.079 1.128.776c4.611 3.171 9.7 6.054 15.123 8.568 5.496 2.549 11.382 4.74 17.493 6.511 12.759 3.7 26.331 5.575 40.34 5.575m0 4c-29.426 0-56.043-8.17-75.223-21.358L0 127.015l55.854-25.582c-5.935-8.991-9.235-18.959-9.235-29.453C46.618 32.227 93.992 0 152.428 0c58.438 0 105.81 32.227 105.81 71.98 0 39.753-47.372 71.98-105.81 71.98z" transform="rotate(25 -55.662 370.44)"/>
        </g>
        <path id="Path_22508" d="M16.882-21.533v13.586q0 4.358-1.5 6.482A5.229 5.229 0 0 1 10.8.659a5.229 5.229 0 0 1-4.574-2.124q-1.5-2.124-1.5-6.482v-37.427q0-4.358 1.5-6.5a5.212 5.212 0 0 1 4.574-2.142 5.212 5.212 0 0 1 4.578 2.142q1.5 2.142 1.5 6.5v12.6h22.343v-12.6q0-4.358 1.5-6.5a5.212 5.212 0 0 1 4.579-2.142 5.212 5.212 0 0 1 4.578 2.142q1.5 2.142 1.5 6.5v37.427q0 4.358-1.5 6.482A5.229 5.229 0 0 1 45.3.659a5.229 5.229 0 0 1-4.578-2.124q-1.5-2.124-1.5-6.482v-13.586zm47.254-2.857h15.6a7.291 7.291 0 0 0-2.417-5.017 7.485 7.485 0 0 0-5.237-2.014 7.546 7.546 0 0 0-5.164 1.9 8.828 8.828 0 0 0-2.782 5.131zm.146 7.727a7.5 7.5 0 0 0 2.747 5.2 9.64 9.64 0 0 0 6.189 1.868 17.646 17.646 0 0 0 7.416-1.923q4.083-1.923 5.035-1.923a4.681 4.681 0 0 1 3.406 1.282 4.4 4.4 0 0 1 1.318 3.3q0 3.809-5.31 6.866A24.591 24.591 0 0 1 72.6 1.062a19.641 19.641 0 0 1-14.616-5.969 20.516 20.516 0 0 1-5.859-14.978 21.143 21.143 0 0 1 5.695-15.088 18.7 18.7 0 0 1 14.19-6.043 18.4 18.4 0 0 1 13.733 5.676 19.137 19.137 0 0 1 5.53 13.879q0 2.673-1.208 3.735t-4.651 1.062zm48.133-19.043a9.121 9.121 0 0 1 2.161-3.589 4.445 4.445 0 0 1 3.113-1.135 5.808 5.808 0 0 1 4.211 1.52 5.459 5.459 0 0 1 1.575 4.12 7.761 7.761 0 0 1-.256 1.868 18.181 18.181 0 0 1-.732 2.234l-18.018 42.773a10.588 10.588 0 0 1-2.307 3.754 4.142 4.142 0 0 1-2.856 1.044 5.869 5.869 0 0 1-4.285-1.538 5.568 5.568 0 0 1-1.575-4.175 8.285 8.285 0 0 1 .254-2.015 11.481 11.481 0 0 1 .735-2.055l4.871-10.542-11.939-27.832a6.459 6.459 0 0 1-.439-1.447 10.23 10.23 0 0 1-.146-1.849 5.735 5.735 0 0 1 1.648-4.175 5.462 5.462 0 0 1 4.065-1.685 4.962 4.962 0 0 1 3.461 1.208 11.569 11.569 0 0 1 2.545 4.5l6.665 17.834z" class="cls-4" transform="rotate(31 -211.091 408.03)"/>
        <path id="Path_22466" d="M16.956-24.243q0 4.395-1.447 6.519A4.974 4.974 0 0 1 11.1-15.6a4.969 4.969 0 0 1-4.4-2.143q-1.465-2.142-1.465-6.5v-22.046q0-4.285 1.465-6.409a4.984 4.984 0 0 1 4.4-2.124 4.989 4.989 0 0 1 4.413 2.106q1.447 2.106 1.447 6.427zM4.578-5.017a6.267 6.267 0 0 1 1.9-4.633 6.315 6.315 0 0 1 4.622-1.886 6.284 6.284 0 0 1 4.614 1.9 6.284 6.284 0 0 1 1.9 4.614 6.375 6.375 0 0 1-1.922 4.656 6.243 6.243 0 0 1-4.6 1.941 6.254 6.254 0 0 1-4.61-1.923 6.388 6.388 0 0 1-1.904-4.669z" class="cls-4" transform="rotate(33 -250.839 603.5)"/>
    </g>
</svg>
