<svg xmlns="http://www.w3.org/2000/svg" width="93.839" height="38.422" xmlns:v="https://vecta.io/nano"><path d="M83.107 30.51h.547a1.54 1.54 0 0 0 .569-.109l4.958-2a5.79 5.79 0 0 0 3.657-5.4V10.6a1.53 1.53 0 0 0-1.311-1.515L81.127 7.6c-1.9-1.164-7.966-2.857-9.994-3.77-6-2.72-10.76-3.847-23.21-1.8s-26.585 9.99-26.585 9.99c-6.144.07-9.44.648-14.525 3.324a11 11 0 0 0-5.818 7.381v6.244a1.53 1.53 0 0 0 1.531 1.531z" fill="none" stroke="#07B9E0" stroke-miterlimit="10" stroke-width="2"/><g fill="#07B9E0" stroke="#fff" stroke-width="3"><circle cx="16.311" cy="29.07" r="7.852"/><circle cx="74.477" cy="29.07" r="7.852"/></g></svg>