<svg xmlns="http://www.w3.org/2000/svg" width="93.839" height="39.526" xmlns:v="https://vecta.io/nano"><path d="M83.107 31.613h.547a1.54 1.54 0 0 0 .569-.109l4.958-2a5.79 5.79 0 0 0 3.657-5.4v-12.4a1.53 1.53 0 0 0-1.311-1.515l-10.4-1.485a52.47 52.47 0 0 0-5.892-3.119C68.536 2.558 61.265.99 53.9.995h-1.807c-8.68.006-13.018.444-20.64 4.6l-9.686 5.72c-6.144.07-17.38 3.38-17.383 5.88l-.5 6.206-2.9.438v6.244a1.53 1.53 0 0 0 1.531 1.531z" fill="none" stroke="#07B9E0" stroke-miterlimit="10" stroke-width="2"/><g fill="#07B9E0" stroke="#fff" stroke-width="3"><circle cx="16.311" cy="30.174" r="7.852"/><circle cx="74.477" cy="30.174" r="7.852"/></g></svg>