<svg xmlns="http://www.w3.org/2000/svg" xmlns:xlink="http://www.w3.org/1999/xlink" width="265.969" height="305.238" xmlns:v="https://vecta.io/nano"><style><![CDATA[.b{fill:#d6e1f1}.c{fill:#99a7be}.d{fill:#cbddf5}.e{fill:#95bcf0}.f{fill:#e5f2f8}.g{fill:#263238}.h{fill:#53729d}.i{fill:#232932}.j{fill:#505b6e}.k{fill:#7899cb}.l{fill:#242a33}.m{fill:#ffb573}.n{fill:#fff}.o{fill:#ffc727}.p{fill:#ebebeb}.q{fill:#fefdfe}.r{fill:#ff636d}.s{fill:#f8c81e}.t{fill:#cccbcb}.u{fill:#dbdbdb}.v{fill:#e3efff}.w{fill:#37414f}.x{fill:#6a90c3}]]></style><defs><clipPath id="A"><circle cx="-2056.5" cy="-2367.5" r="43.5" stroke="#707070" class="n"/></clipPath><path id="B" d="M23.256 219.652c.377-.02.728.192.887.535s.092.748-.168 1.022-.66.363-1.011.223-.582-.479-.582-.856a.91.91 0 0 1 .874-.923zm0 1.664a.74.74 0 0 0 .58-1.249.74.74 0 0 0-1.28.508.7.7 0 0 0 .7.741z"/><path id="C" d="M25.025 34.122c0-.305.184-.581.466-.698s.607-.052.823.164.281.541.164.823-.392.466-.698.466c-.417 0-.755-.338-.755-.755z"/><path id="D" d="M67.578 99.957c0 .245.188.444.932.444s1.768-.199 1.768-.444-1.023-.445-1.768-.445-.932.2-.932.445z"/><path id="E" d="M58.934 94.794h-3.8c.344 0 .989.645.989.645h3.8s-.641-.645-.989-.645z"/><path id="F" d="M54.402 95.268h1.536a1.73 1.73 0 0 0-.804-.474 14.41 14.41 0 0 0-3.532.639 23.95 23.95 0 0 1 2.8-.165z"/><path id="G" d="M80.115 111.3c0 .349-10.01.633-22.359.633s-22.359-.284-22.359-.633 10.01-.633 22.359-.633 22.359.283 22.359.633z"/><path id="H" d="M77.863 107.509c0 2.094-1.383 3.792-3.089 3.792h-1.987v-7.584h1.987c1.706 0 3.089 1.7 3.089 3.792z"/><path id="I" d="M68.622 107.509c0 2.094-1.383 3.792-3.09 3.792h-1.986v-7.584h1.987c1.706 0 3.089 1.7 3.089 3.792z"/><path id="J" d="M69.789 104.726c0-.4-1.033-2.266-3.815-3.385a23.2 23.2 0 0 0-6.97-1.147c0 0-3.414-4.755-6.282-4.755a24.91 24.91 0 0 0-13.225 3.844c-.967-.026-1.924.196-2.781.643-.48.38-.743 2.429-.743 3.971-.002.395-.576.751-.576 1.042 0 1.99.781 3.845 2.084 4.2v-1.631c0-2.258 1.515-4.095 3.376-4.095s3.376 1.837 3.376 4.095v1.146c0 .285.231.516.516.516h14.9c.285 0 .516-.231.516-.516v-1.146c0-2.258 1.515-4.095 3.376-4.095s3.376 1.837 3.376 4.095v1.146c0 .285.231.516.516.516h1.3c.396 0 1.055-4.254 1.056-4.444z"/><path id="K" d="M45.377 99.165a1.15 1.15 0 0 1 .2-2.109 24.22 24.22 0 0 1 7.145-1.1c1.681 0 4.22 2.327 5.338 4.34.042.078.04.173-.006.25s-.128.123-.217.123c-7.61.016-10.866-.624-12.46-1.504z"/><path id="L" d="M40.859 105.056c-1.222.138-2.111 1.228-2 2.453-.111 1.225.778 2.315 2 2.453 1.222-.138 2.111-1.228 2-2.453.111-1.225-.778-2.315-2-2.453z"/><path id="M" d="M41.304 106.982h-.366c-.211.083-.339.299-.309.524 0 .239.309.522.309.522h.366a.48.48 0 0 0 .425-.522.48.48 0 0 0-.425-.524z"/><path id="N" d="M39.011 107.884l2.079-.676.195.601-2.079.676z"/><path id="O" d="M39.518 105.745l.511-.371 1.415 1.947-.511.371z"/><path id="P" d="M41.092 107.809l.195-.601 1.668.542-.195.601z"/><path id="Q" d="M40.938 106.985a.48.48 0 0 0-.425.522.48.48 0 0 0 .425.522.48.48 0 0 0 .425-.522.48.48 0 0 0-.425-.522z"/><path id="R" d="M39.301 107.509a2.33 2.33 0 0 0 1.778 2.437 1.63 1.63 0 0 1-.22.016c-1.222-.138-2.111-1.228-2-2.453-.111-1.225.778-2.315 2-2.453a1.65 1.65 0 0 1 .22.016 2.33 2.33 0 0 0-1.778 2.437z"/><path id="S" d="M40.841 107.809l.195-.601 1.918.623-.195.601z"/><path id="T" d="M43.128 107.509a2.57 2.57 0 0 0-2.27-2.787 2.57 2.57 0 0 0-2.271 2.787 2.57 2.57 0 0 0 2.271 2.786 2.57 2.57 0 0 0 2.27-2.786zm-.21 0c.114 1.263-.8 2.385-2.06 2.529-1.26-.143-2.175-1.266-2.061-2.529-.114-1.263.801-2.386 2.061-2.529 1.26.144 2.174 1.266 2.06 2.529z"/><path id="U" d="M43.06 107.505c.122-1.35-.858-2.549-2.205-2.7-1.345.153-2.322 1.352-2.2 2.7-.122 1.348.855 2.547 2.2 2.7 1.347-.151 2.327-1.35 2.205-2.7zm-.2 0c.111 1.225-.778 2.315-2 2.453-1.224-.136-2.115-1.226-2.005-2.453-.109-1.224.779-2.312 2-2.45 1.221.138 2.109 1.226 2 2.45z"/><path id="V" d="M40.938 107.167c-.17.019-.293.17-.277.34-.016.17.107.321.277.34.169-.019.292-.17.276-.34.016-.17-.107-.321-.276-.34z"/><path id="W" d="M69.789 104.726v-.006h-3.773c.599.805.917 1.785.906 2.788v1.146c0 .285.231.516.516.516h1.3c.391 0 1.05-4.25 1.051-4.444z"/><path id="X" d="M68.479 102.864a3.74 3.74 0 0 1 1.31 1.861h2.553c-.463-1.581-2.697-1.861-3.863-1.861z"/><path id="Y" d="M78.903 102.963a1.73 1.73 0 0 0-1.344 1.758h2.555a3.84 3.84 0 0 0-1.211-1.758z"/><path id="Z" d="M76.716 103.193c-.809-.809-1.778-1.44-2.846-1.851a23.2 23.2 0 0 0-6.97-1.149h-4.114a23.2 23.2 0 0 1 6.97 1.147 8.18 8.18 0 0 1 2.847 1.853c.683.7 4.794.7 4.113 0z"/><path id="a" d="M76.716 103.193a8.18 8.18 0 0 0-2.847-1.853 23.2 23.2 0 0 0-6.97-1.147h-.336a23.2 23.2 0 0 1 6.97 1.147 8.18 8.18 0 0 1 2.846 1.853c.322.332-.428.507-1.38.525 1.102.018 2.076-.156 1.717-.525z"/><path id="b" d="M64.325 95.956h-9.294a16.5 16.5 0 0 1 4.489 4.237h9.466c-1.299-1.669-2.876-3.102-4.661-4.237z"/><path id="c" d="M50.356 107.575h6.188c1.979 0-1.515-1.648-6.597-1.648-3.012 0-3.033 1.648.409 1.648z"/><path id="d" d="M78.954 106.843h-8.712a.64.64 0 0 0-.6.5l-.068.337a.4.4 0 0 0 .4.5h8.711c.2 0 .4-.223.455-.5l.068-.337c.056-.277-.058-.5-.254-.5z"/><path id="e" d="M36.087 102.117h-.013l-.1 1.5h.113a.72.72 0 0 0 .718-.723v-.059a.72.72 0 0 0-.718-.718z"/><path id="f" d="M57.584 99.54c-1.257-1.797-3.389-3.584-4.862-3.584-2.04.005-4.071.27-6.043.79 2.1 1.473 6.57 2.51 10.905 2.794z"/><path id="g" d="M59.49 95.956c2.377 1.594 5.157 2.482 8.018 2.559-.929-1.006-2.002-1.868-3.184-2.559z"/><path id="h" d="M64.325 95.956h-.387c1.785 1.135 3.362 2.568 4.661 4.237h.387c-1.299-1.669-2.876-3.102-4.661-4.237z"/><path id="i" d="M45.751 99.165a1.15 1.15 0 0 1 .2-2.107 24.3 24.3 0 0 1 6.849-1.102h-.078a24.22 24.22 0 0 0-7.145 1.1 1.15 1.15 0 0 0-.2 2.109c1.593.879 4.848 1.519 12.458 1.5-7.339-.002-10.517-.635-12.084-1.5z"/><path id="j" d="M58.059 100.296a8.62 8.62 0 0 0-.466-.743 1.79 1.79 0 0 1-.657 1.114h.9c.089 0 .17-.047.216-.123s.048-.17.007-.248z"/><path id="k" d="M56.695 101.205c-.058 0-.111-.03-.143-.078l-.57-.831c-.036-.051-.042-.117-.015-.173s.082-.094.144-.098.122.025.156.077l.571.834c.036.053.04.121.01.177s-.088.092-.152.092z"/><path id="l" d="M56.526 99.957c0 .245-.188.445-.932.445s-1.768-.2-1.768-.445 1.019-.445 1.764-.445.936.2.936.445z"/><path id="m" d="M56.397 99.686a1.31 1.31 0 0 0-.807-.174c-.745 0-1.764.2-1.764.445 0 .055.053.106.139.155a7.9 7.9 0 0 0 1.12.087c.934-.001 1.251-.221 1.312-.513z"/><path id="n" d="M48.898 101.756h-.016l-1.749-.211c-.095-.011-.162-.097-.151-.192s.097-.162.192-.151l1.744.21c.091.01.159.089.153.181s-.082.163-.173.162z"/><path id="o" d="M57.697 137.604H54.95c-.03 0-.057.019-.066.048s.003.06.028.077a2.62 2.62 0 0 1 .487.449h3.288s-.645-.574-.99-.574z"/><path id="p" d="M54.106 150.247c0 2.094-1.383 3.792-3.089 3.792H49.03v-7.584h1.987c1.706 0 3.089 1.7 3.089 3.792z"/><path id="q" d="M79.047 147.462c-.044-.454-1.092-2.285-3.815-3.385a23.2 23.2 0 0 0-6.97-1.147c0 0-3.413-4.753-6.282-4.753H51.654c-1.43 1.778 9.442 7.027 10.9 7.027.421 0 4.011.494 4.011 6.7h11.428c.394.004 1.054-4.442 1.054-4.442z"/><path id="r" d="M-2082.387-2358.268c0 5.128-3.387 9.286-7.566 9.286h-4.866v-18.572h4.866c4.178 0 7.566 4.157 7.566 9.286z"/><path id="s" d="M-2120.732-2362.583l1.252-.91 3.466 4.77-1.252.91z"/><path id="t" d="M-2117.254-2359.551a1.18 1.18 0 0 0-1.041 1.278 1.18 1.18 0 0 0 1.041 1.278 1.18 1.18 0 0 0 1.042-1.278 1.18 1.18 0 0 0-1.042-1.278z"/><path id="u" d="M-2111.89-2358.268c0-3.77-2.49-6.825-5.561-6.825s-5.561 3.055-5.561 6.825 2.49 6.825 5.561 6.825 5.561-3.056 5.561-6.825zm-.515 0c0 3.415-2.264 6.193-5.046 6.193s-5.046-2.779-5.046-6.194 2.264-6.192 5.046-6.192 5.046 2.778 5.046 6.192z"/><path id="v" d="M-2112.056-2358.268c0-3.657-2.415-6.621-5.395-6.621s-5.394 2.964-5.394 6.621 2.415 6.62 5.394 6.62 5.395-2.964 5.395-6.62zm-.5 0c0 3.313-2.2 6.008-4.895 6.008s-4.894-2.696-4.894-6.009 2.2-6.007 4.894-6.007 4.895 2.695 4.895 6.007z"/><path id="w" d="M-2117.254-2359.104a.77.77 0 0 0-.677.832c-.038.415.263.785.677.832.415-.047.716-.416.678-.832a.77.77 0 0 0-.678-.832z"/></defs><path d="M247.566 31.837a4.47 4.47 0 0 1-4.647 0l-1.2-.681-1.222-.621a4.39 4.39 0 0 1-2.584-3.826l-.18-5.709-18.589.581.18 5.709c.037 1.671-.869 3.22-2.344 4.006l-2.364 1.442c-1.351.975-3.141 1.091-4.607.3l-5.008-2.684-8.794 16.386 5.008 2.7c1.461.794 2.351 2.344 2.3 4.006a25.53 25.53 0 0 0 .1 2.764c.169 1.654-.603 3.264-2 4.167l-4.868 3 9.815 15.8 4.868-3.025c1.422-.861 3.205-.861 4.627 0l1.182.681 1.222.621c1.527.684 2.534 2.174 2.6 3.846l.16 5.709 18.589-.581-.18-5.689a4.41 4.41 0 0 1 2.344-4.007 29.34 29.34 0 0 0 2.364-1.462c1.351-.975 3.141-1.091 4.607-.3l5.028 2.684 8.794-16.386-5.028-2.7c-1.461-.794-2.351-2.344-2.3-4.006.05-.927.05-1.857 0-2.784-.169-1.654.604-3.263 2-4.166l4.848-2.985-9.815-15.8zm-4.631 29.406c-2.907 5.441-8.807 8.594-14.946 7.986s-11.307-4.854-13.092-10.76.165-12.304 4.94-16.21 11.433-4.549 16.867-1.629c7.404 3.978 10.191 13.199 6.23 20.612zm-65.23 5.668c-.596 1.013-1.713 1.602-2.885 1.523h-1.923c-1.166.076-2.275-.514-2.864-1.523l-2-3.465-11.277 6.51 2 3.465a3.1 3.1 0 0 1-.12 3.245 17.48 17.48 0 0 0-.982 1.683c-.515 1.047-1.578 1.714-2.745 1.723h-4.004v13.02h4.006c1.167.009 2.229.675 2.745 1.722a17.48 17.48 0 0 0 .981 1.683 3.1 3.1 0 0 1 .12 3.245l-2 3.465 11.277 6.51 2-3.486c.595-1 1.703-1.58 2.864-1.5h1.9a3.1 3.1 0 0 1 2.885 1.522l2 3.465 11.277-6.51-2-3.465a3.1 3.1 0 0 1 .12-3.245 17.61 17.61 0 0 0 .981-1.683c.515-1.047 1.577-1.713 2.744-1.722h4.006v-13.02h-4.006c-1.166-.012-2.225-.68-2.738-1.727a17.6 17.6 0 0 0-.981-1.683 3.1 3.1 0 0 1-.12-3.245l2-3.466-11.277-6.51zm6.851 19.671a10.68 10.68 0 0 1-10.677 10.677 10.68 10.68 0 0 1-10.677-10.677 10.68 10.68 0 0 1 18.227-7.55c2.003 2.002 3.127 4.718 3.127 7.55z" class="v"/><path d="M49.923 102.978a24.71 24.71 0 0 1-7.23 3.034c-12.732 3.111-25.716-4.092-29.816-16.542A25.12 25.12 0 0 1 27.03 58.449c12.089-5.063 26.04.021 32.035 11.676s2.021 25.961-9.128 32.852z" class="n"/><path d="M44.353 78.751a7.64 7.64 0 1 1-7.642-7.642c4.221 0 7.642 3.421 7.642 7.642zm5.57 21.081v3.146a24.71 24.71 0 0 1-7.23 3.034 24.99 24.99 0 0 1-19.172-3.041v-3.139a13.21 13.21 0 0 1 13.207-13.093 13.21 13.21 0 0 1 13.207 13.093z" class="o"/><path d="M22.172 128.331l-2.307 5.482c-.008.032-.025.061-.049.084 0 0 0 .035-.049.056a.14.14 0 0 0-.063.049l-.084.056h-.364c-.03-.015-.058-.034-.084-.056s-.045-.036-.07-.049l-.042-.056a.11.11 0 0 0-.042-.084l-1.231-2.916-1.231 2.916c-.008.031-.023.059-.042.084l-.056.056c-.023.01-.043.027-.056.049l-.077.056c-.022-.009-.048-.009-.07 0h-.3l-.084-.056c-.035 0-.042-.042-.07-.049l-.042-.056a.1.1 0 0 0-.049-.084l-2.314-5.482c-.076-.254.053-.524.299-.625s.527 0 .652.233l1.846 4.349 1.21-2.881a.51.51 0 0 1 .489-.322.53.53 0 0 1 .489.322l1.217 2.881 1.832-4.349c.053-.132.159-.236.291-.287s.28-.046.409.014a.5.5 0 0 1 .042.665zm1.503 5.285v-5.545a.51.51 0 0 1 .517-.517h3.076c.286 0 .517.231.517.517a.53.53 0 0 1-.517.524h-2.552v1.72h2.2a.53.53 0 0 1 .517.517c0 .287-.23.52-.517.524h-2.2v1.734h2.552c.266.029.468.253.468.521s-.202.492-.468.521h-3.076a.52.52 0 0 1-.517-.516zm5.58 0v-5.545a.51.51 0 0 1 .517-.517c.287 0 .52.23.524.517v5.02h2.545c.266.029.468.253.468.521s-.202.492-.468.521h-3.066c-.138.001-.27-.053-.368-.15s-.152-.229-.152-.367zm4.622-2.894c.038-1.88 1.573-3.384 3.454-3.384a3.5 3.5 0 0 1 2.174.734.54.54 0 0 1-.117.945.54.54 0 0 1-.547-.092c-.428-.343-.962-.526-1.51-.517a2.49 2.49 0 0 0-1.692.7 2.3 2.3 0 0 0-.7 1.636 2.27 2.27 0 0 0 .7 1.636 2.49 2.49 0 0 0 1.692.7 2.37 2.37 0 0 0 1.51-.517c.24-.166.567-.123.755.1a.55.55 0 0 1-.091.748 3.5 3.5 0 0 1-2.174.7 3.44 3.44 0 0 1-3.454-3.391zm12.549-2.349a3.45 3.45 0 0 1 0 4.754c-.577.635-1.393 1-2.251 1.007a3.15 3.15 0 0 1-2.3-1.007 3.5 3.5 0 0 1 0-4.754c.592-.642 1.426-1.008 2.3-1.007a3.06 3.06 0 0 1 2.251 1.007zm-.126 2.377c0-.61-.226-1.198-.636-1.65a2.04 2.04 0 0 0-3.013 0 2.42 2.42 0 0 0-.657 1.622 2.37 2.37 0 0 0 .636 1.636c.382.431.931.677 1.507.677a2.02 2.02 0 0 0 1.507-.677 2.4 2.4 0 0 0 .657-1.636zm8.209-2.678v5.545a.53.53 0 0 1-.524.517c-.286 0-.517-.231-.517-.517v-3.957l-1.356 1.881a.5.5 0 0 1-.419.217.54.54 0 0 1-.434-.217l-1.342-1.881v3.957c-.004.287-.237.517-.524.517s-.517-.231-.517-.517v-5.545c0-.286.231-.517.517-.517a.5.5 0 0 1 .412.21l1.874 2.6 1.867-2.6a.52.52 0 0 1 .427-.21.53.53 0 0 1 .536.517zm1.812 5.544v-5.545a.51.51 0 0 1 .517-.517h3.076c.283.004.51.234.51.517s-.226.516-.51.524h-2.538v1.72h2.188c.284.004.513.233.517.517.002.138-.052.272-.149.37a.52.52 0 0 1-.368.154h-2.188v1.734h2.555c.266.029.468.253.468.521s-.202.492-.468.521h-3.076c-.14.004-.275-.049-.375-.146s-.156-.231-.156-.371z" class="g"/><path d="M11.132 149.6v-2.216a.21.21 0 0 1 .21-.21c.114.004.206.096.21.21v2.007h1.014a.21.21 0 0 1 .21.21c-.004.114-.096.206-.21.21h-1.224a.21.21 0 0 1-.21-.211zm3.908 19.018l-.916 2.188v.035h-.161v-.035l-.489-1.168-.5 1.168c.004.011.004.024 0 .035h-.161v-.035l-.923-2.188c-.044-.104.004-.225.108-.27s.225.004.269.108l.7 1.741.489-1.154a.2.2 0 0 1 .2-.126c.086-.001.164.048.2.126l.482 1.154.7-1.741a.21.21 0 0 1 .273-.112.2.2 0 0 1-.266.273zm2.622.014a1.4 1.4 0 0 1 0 1.9c-.229.253-.554.398-.895.4-.35 0-.684-.145-.923-.4a1.4 1.4 0 0 1 0-1.9c.237-.259.572-.406.923-.405a1.2 1.2 0 0 1 .895.405zm-.049.951a.96.96 0 0 0-.252-.657.83.83 0 0 0-.594-.266.81.81 0 0 0-.608.266.96.96 0 0 0 0 1.307.79.79 0 0 0 .608.273.8.8 0 0 0 .594-.273.95.95 0 0 0 .252-.647zm2.916 1.041a.2.2 0 0 1-.133.259h-.084c-.052.002-.104-.013-.147-.042a.39.39 0 0 1-.126-.133 1.05 1.05 0 0 1-.077-.447c0-.056-.015-.112-.042-.161s-.068-.082-.112-.112a.7.7 0 0 0-.217-.091h-.44v.818a.21.21 0 1 1-.42 0v-2.216a.2.2 0 0 1 .21-.21h.7a.8.8 0 0 1 .51 1.4.51.51 0 0 1 .133.14.7.7 0 0 1 .126.406.87.87 0 0 0 0 .224.19.19 0 0 1 .119.168zm-.524-1.51c.002-.105-.039-.205-.113-.279s-.175-.115-.279-.113h-.461v.769h.468c.21 0 .381-.168.385-.378zm1.132 1.615v-2.216a.2.2 0 0 1 .21-.21h.44c.726 0 1.315.589 1.315 1.315s-.589 1.315-1.315 1.315h-.44a.2.2 0 0 1-.21-.2zm.419-.21h.231a.9.9 0 1 0 0-1.8h-.231zm-10.368 26.465h51.076v16.053H11.188z" class="o"/><path d="M28.108 207.115v-3.335c0-.17.138-.308.308-.308s.311.137.315.308v3.014h1.531c.117-.007.227.052.288.152s.06.225 0 .325-.171.158-.288.152h-1.846c-.17 0-.308-.138-.308-.308zm6.062-3.154c.764.798.764 2.055 0 2.853-.344.384-.834.605-1.349.608a1.89 1.89 0 0 1-1.4-.608 2.1 2.1 0 0 1 0-2.853 1.88 1.88 0 0 1 1.4-.6 1.82 1.82 0 0 1 1.349.6zm-.07 1.4c0-.365-.137-.717-.385-.986a1.22 1.22 0 0 0-.9-.398c-.343 0-.669.144-.9.398-.514.557-.514 1.415 0 1.972a1.2 1.2 0 0 0 1.8 0c.241-.261.378-.602.385-.958zm1.601.035a2.1 2.1 0 0 1 3.37-1.594c.069.052.115.129.127.214s-.011.172-.064.241c-.116.137-.319.158-.461.049-.256-.194-.567-.299-.888-.3a1.4 1.4 0 0 0-1.021.413 1.34 1.34 0 0 0 0 1.951 1.4 1.4 0 0 0 1.021.412 1.52 1.52 0 0 0 .769-.217v-.769h-.825a.33.33 0 0 1-.322-.322c0-.085.034-.167.094-.228s.142-.094.228-.094h1.126c.085 0 .167.034.228.094s.094.142.094.228v1.245a.41.41 0 0 1 0 .1.26.26 0 0 1-.1.133 2.1 2.1 0 0 1-1.28.44 2.05 2.05 0 0 1-2.096-1.996zm4.783-1.616c0-.083.033-.162.093-.22s.139-.09.222-.088c.171 0 .311.137.315.308v3.335c-.004.171-.144.308-.315.308-.083.002-.163-.03-.222-.088a.31.31 0 0 1-.093-.22zm2.307 3.335c.007.114-.051.222-.148.281s-.22.059-.318 0-.155-.167-.148-.281v-3.286c-.007-.103.037-.203.119-.266.141-.094.33-.064.434.07l1.825 2.524v-2.328a.3.3 0 0 1 .3-.3c.168 0 .307.132.315.3v3.286c.001.13-.079.248-.202.292a.31.31 0 0 1-.343-.092v-.035l-1.8-2.51z" class="n"/><g class="g"><path d="M20.508 218.953a.1.1 0 0 1 .091-.091h1.356c.052 0 .095.042.095.094s-.042.095-.095.095h-1.259v1.042h1.1c.05 0 .091.041.091.091s-.041.091-.091.091h-1.1v1.133c0 .052-.042.094-.094.094s-.094-.042-.094-.094z"/><use xlink:href="#B"/><path d="M24.745 219.75c0-.026.011-.05.03-.068s.045-.026.07-.023.046.01.062.027.024.041.022.064v.357a.89.89 0 0 1 .734-.447c.05 0 .091.041.091.091s-.041.091-.091.091c-.216.007-.414.119-.531.3a1.57 1.57 0 0 0-.224.426v.811c0 .05-.041.091-.091.091s-.091-.041-.091-.091zm3.265 1.601c0 .23-.091.45-.254.613s-.383.254-.613.254a.94.94 0 0 1-.385-.091.1.1 0 0 1 0-.119c.009-.022.027-.04.05-.048s.048-.006.069.006a.63.63 0 0 0 .3.07.7.7 0 0 0 .7-.7v-.224c-.161.227-.422.36-.7.357-.327 0-.63-.175-.793-.458s-.164-.633 0-.916.466-.458.793-.458c.279 0 .54.136.7.364v-.273c0-.024.01-.047.027-.064s.04-.027.064-.027.046.01.062.027.024.041.022.064zm-.175-.783c.162.002.292.134.291.297s-.133.293-.295.293-.294-.131-.295-.293.129-.295.291-.297z"/><use xlink:href="#B" x="6.412"/><path d="M31.8 219.743c0 .024-.01.047-.027.064s-.04.027-.064.027h-.2v1.342c.003.073.06.133.133.14.05 0 .091.041.091.091s-.041.091-.091.091c-.086.002-.169-.031-.23-.092s-.094-.144-.092-.23v-1.342h-.231c-.091 0-.091-.042-.091-.091s0-.091.091-.091h.231v-.7c.004-.048.043-.084.091-.084a.1.1 0 0 1 .1.084v.7h.231a.1.1 0 0 1 .058.091zm1.993.86v-.86c0-.05.041-.091.091-.091s.091.041.091.091v.266a.9.9 0 1 1 .7 1.475c-.277-.001-.536-.134-.7-.357v1.049a.09.09 0 0 1-.045.079c-.028.016-.063.016-.091 0s-.046-.046-.045-.079zm.182-.035a.7.7 0 1 0 .7-.7.7.7 0 0 0-.7.7zm3.824-.825v1.664a.09.09 0 0 1-.045.079c-.028.016-.063.016-.091 0s-.046-.046-.045-.079v-.273c-.16.228-.421.364-.7.364-.51 0-.923-.413-.923-.923s.413-.923.923-.923c.279 0 .54.136.7.364v-.273a.09.09 0 0 1 .045-.079c.028-.016.063-.016.091 0s.046.046.045.079zm-.182.832a.3.3 0 0 0 .011.6.3.3 0 0 0 .01-.6zm.881.538a.1.1 0 0 1 .126 0c.161.13.359.206.566.217a.55.55 0 0 0 .35-.112c.08-.047.133-.131.14-.224a.32.32 0 0 0-.133-.231.93.93 0 0 0-.392-.133c-.149-.014-.292-.062-.42-.14-.12-.067-.195-.192-.2-.329a.47.47 0 0 1 .2-.364.8.8 0 0 1 .454-.126c.198.009.388.079.545.2.043.028.055.084.027.127s-.084.055-.127.027c-.126-.107-.282-.17-.447-.182a.51.51 0 0 0-.35.1c-.071.047-.115.125-.119.21a.23.23 0 0 0 .1.182.88.88 0 0 0 .378.126 1.35 1.35 0 0 1 .447.154.47.47 0 0 1 .21.378c-.009.151-.09.289-.217.371-.131.097-.291.148-.454.147a1.12 1.12 0 0 1-.7-.266c-.023-.017-.036-.044-.034-.072s.017-.054.041-.068z"/><path d="M40.288 221.113a.1.1 0 0 1 .133 0 .95.95 0 0 0 .559.217.54.54 0 0 0 .35-.112c.08-.047.133-.131.14-.224 0-.091-.035-.147-.133-.231a.93.93 0 0 0-.392-.133c-.146-.015-.287-.063-.413-.14-.121-.066-.197-.191-.2-.329a.45.45 0 0 1 .2-.364c.132-.088.288-.132.447-.126.2.01.392.08.552.2.034.035.034.091 0 .126-.016.016-.037.025-.06.025s-.044-.009-.06-.025a.82.82 0 0 0-.454-.182.52.52 0 0 0-.35.1.26.26 0 0 0-.112.21.21.21 0 0 0 .1.182.81.81 0 0 0 .371.126 1.29 1.29 0 0 1 .447.154c.13.082.21.224.21.378a.47.47 0 0 1-.21.371.78.78 0 0 1-.461.147 1.14 1.14 0 0 1-.7-.266.09.09 0 0 1 .035-.104zm2.538.371a.11.11 0 0 1-.035-.042l-.7-1.65c-.009-.021-.009-.045 0-.067s.027-.038.049-.045.046-.013.068-.003.038.029.044.052l.615 1.447.427-1.014c.017-.032.048-.053.084-.056a.12.12 0 0 1 .091.056l.426 1.014.608-1.447c.008-.022.024-.039.045-.049s.045-.009.067 0 .043.022.052.044.008.047-.003.068l-.7 1.643c.003.014.003.028 0 .042h-.042a.1.1 0 0 1-.07-.056l-.426-1.021-.426 1.021c-.014.034-.047.056-.084.056h-.049zm3.314-1.833c.378-.023.731.187.892.529s.096.748-.163 1.024-.66.365-1.012.227-.583-.479-.584-.857a.9.9 0 0 1 .867-.923zm0 1.664a.74.74 0 1 0-.7-.741.7.7 0 0 0 .7.741zm1.49-1.565c0-.026.011-.05.03-.068s.045-.026.07-.023.046.01.062.027.024.041.022.064v.406a.3.3 0 0 0 0-.049.9.9 0 0 1 .741-.448c.024 0 .046.01.062.027s.024.041.022.064c0 .048-.036.087-.084.091a.66.66 0 0 0-.538.3 1.57 1.57 0 0 0-.224.426v.811a.09.09 0 0 1-.045.079c-.028.016-.063.016-.091 0s-.046-.046-.045-.079zm3.032 1.391a.88.88 0 0 1-.7.357c-.33 0-.634-.176-.799-.461s-.165-.637 0-.923a.92.92 0 0 1 .799-.461.89.89 0 0 1 .7.364v-1.063c0-.05.041-.091.091-.091s.091.041.091.091v2.454c0 .05-.041.091-.091.091s-.091-.041-.091-.091zm0-.531v-.063a.74.74 0 0 0-.756-.709.74.74 0 0 0-.725.741.74.74 0 0 0 .725.741.74.74 0 0 0 .756-.709zm1.446-.196c0-.022.009-.044.025-.059s.037-.025.059-.025c.352 0 .637-.285.637-.637s-.285-.637-.637-.637a.6.6 0 0 0-.545.315.1.1 0 0 1-.126.035c-.016-.016-.025-.037-.025-.06s.009-.044.025-.06a.8.8 0 0 1 .7-.413.812.812 0 0 1 .091 1.622v.42c0 .048-.039.087-.088.087s-.088-.039-.088-.087zm0 .916c0-.048.039-.087.088-.087s.088.039.088.087v.077c0 .048-.039.087-.088.087s-.088-.039-.088-.087z"/></g><path stroke="#d3e6fb" d="M124.499 41.275v203.184c0 5.747-4.3 10.39-9.607 10.39H20.067c-5.321 0-9.621-4.643-9.621-10.39V41.275c0-11.7 4.3-12.271 9.621-12.271h18.99c1.1 0 2.007 1.259 2.007 2.8v.7c0 3.643 1.993 3.657 4.447 3.657h43.923c2.475 0 4.447 0 4.447-3.657v-.7c0-1.552.888-2.8 2.014-2.8h19c5.304 0 9.604 1.559 9.604 12.271z" class="n"/><path d="M124.499 41.275V56.44H10.447V41.275c0-11.7 4.3-12.271 9.614-12.271h19c1.1 0 2.007 1.259 2.007 2.8v.7c0 3.643 1.993 3.657 4.44 3.657h43.93c2.468 0 4.447 0 4.447-3.657v-.7c0-1.552.895-2.8 2.014-2.8h19c5.293 0 9.6 1.559 9.6 12.271z" class="v"/><g class="n"><path d="M21.249 49.036l-3.363-3.154 3.363-3.16.524.559-2.776 2.6 2.776 2.594zm92.923.244h-2.308v-.8a.16.16 0 0 0-.091-.147 1.51 1.51 0 0 1-.252-.147c-.054-.031-.121-.031-.175 0l-.7.406-1.154-2 .7-.406c.056-.029.087-.091.077-.154v-.287c.008-.062-.022-.123-.077-.154l-.7-.406 1.154-2 .7.406c.052.032.116.032.168 0a1.9 1.9 0 0 1 .259-.147.16.16 0 0 0 .091-.147v-.82h2.307v.8a.16.16 0 0 0 .091.147 1.9 1.9 0 0 1 .259.147c.052.032.116.032.168 0l.7-.406 1.154 2-.7.406c-.055.031-.085.092-.077.154v.287c-.006.062.024.122.077.154l.7.406-1.133 2.007-.7-.406c-.052-.032-.116-.032-.168 0-.082.056-.169.105-.259.147a.16.16 0 0 0-.091.147zm-1.783-.524h1.259v-.28a.7.7 0 0 1 .378-.615c.073-.034.143-.074.21-.119a.7.7 0 0 1 .7 0l.245.14.629-1.091-.252-.14a.7.7 0 0 1-.336-.636v-.238a.7.7 0 0 1 .336-.629l.252-.14-.629-1.091-.245.14a.7.7 0 0 1-.7 0c-.066-.046-.136-.086-.21-.119a.7.7 0 0 1-.378-.615v-.28h-1.259v.28a.7.7 0 0 1-.378.615c-.073.034-.143.074-.21.119a.7.7 0 0 1-.7 0l-.252-.14-.629 1.091.252.14a.7.7 0 0 1 .336.636v.238a.7.7 0 0 1-.336.629l-.252.14.636 1.091.245-.14a.7.7 0 0 1 .7 0 1.18 1.18 0 0 0 .2.119.7.7 0 0 1 .378.615zm.629-1.154c-.954 0-1.727-.773-1.727-1.727s.773-1.727 1.727-1.727 1.727.773 1.727 1.727c0 .458-.182.897-.506 1.221s-.763.506-1.221.506zm0-2.923a1.2 1.2 0 1 0 1.2 1.2 1.2 1.2 0 0 0-1.2-1.2zm-77.24-11.104l-.282.282a2.5 2.5 0 0 0-3.538 0 1.18 1.18 0 0 0-.1-.1l-.182-.182.231-.21a2.88 2.88 0 0 1 .538-.336 2.8 2.8 0 0 1 .7-.245 1.04 1.04 0 0 0 .357-.042h.552a2.95 2.95 0 0 1 .65.161 3.06 3.06 0 0 1 .44.2 3.76 3.76 0 0 1 .427.294l.189.175zm-3.244.859l-.287-.294a2.1 2.1 0 0 1 2.951 0l-.287.287a1.68 1.68 0 0 0-2.377 0z"/><path d="M34.618 34.723l-.287.287a.86.86 0 0 0-1.217 0l-.287-.287a1.26 1.26 0 0 1 1.79 0z"/><path d="M33.981 35.276a.26.26 0 0 1-.259.259c-.127-.022-.22-.133-.22-.262s.093-.24.22-.262a.26.26 0 0 1 .259.266z"/><circle cx="18.641" cy="34.122" r=".755"/><circle cx="21.018" cy="34.122" r=".755"/><circle cx="23.403" cy="34.122" r=".755"/><use xlink:href="#C"/><use xlink:href="#C" x="2.384"/><path d="M115.962 35.793h-6.195v-2.888h6.195zm-5.845-.35h5.5v-2.188h-5.5zm.181-2.034h3.964v1.881h-3.964z"/><path d="M115.947 33.584h.545v1.524h-.545z"/></g><path d="M27.773 242.424h-.86v3.982h-1.622v-2.028h-2.874v2.028h-1.615v-3.985h-.867l3.922-4.048zm77.791-4.048h9.453v1.349h-9.453zm0 3.342h9.453v1.349h-9.453zm0 3.342h9.453v1.349h-9.453z" class="p"/><path d="M62.279 115.2H24.9V89.029h37.379z" class="f"/><path d="M29.269 96.461a3.1 3.1 0 1 0 3.1-3.1 3.1 3.1 0 0 0-3.1 3.1zm-4.363 13.096h37.379v5.642H24.906z" class="d"/><path d="M71.605 89.407h24.052v3.335H71.605zm0 5.558h38.441v2.209H71.605zm0 4.252h15.634v2.209H71.605z" class="p"/><path d="M62.279 157.688H24.9v-26.171h37.379z" class="f"/><g class="d"><circle cx="32.366" cy="138.958" r="3.097"/><path d="M24.906 152.054h37.379v5.642H24.906z"/></g><path d="M71.605 131.896h24.052v3.335H71.605zm0 5.566h38.441v2.209H71.605zm0 4.251h15.634v2.209H71.605z" class="p"/><path d="M62.279 200.186H24.9v-26.171h37.379z" class="f"/><path d="M29.269 181.455a3.1 3.1 0 1 0 .908-2.192 3.1 3.1 0 0 0-.908 2.192zm-4.363 13.089h37.379v5.642H24.906z" class="d"/><path d="M71.605 174.393h24.052v3.335H71.605zm0 5.559h38.441v2.209H71.605zm0 4.258h15.634v2.209H71.605z" class="p"/><path d="M24.906 216.505h37.379V230.3H24.906z" class="f"/><circle cx="32.366" cy="223.944" r="3.097" class="d"/><path d="M71.605 216.89h24.052v3.335H71.605zm0 5.558h38.441v2.209H71.605zm0 4.251h15.634v2.209H71.605zm52.88 3.602l-14.256.126-42.762.133-28.506-.084-14.256-.049-14.249-.126 14.249-.126 42.762-.14 42.762.14z" class="p"/><path d="M10.817 36.143a18.18 18.18 0 0 0-.35 4.4v4.419l.063 8.852.084 17.689.182 106.165-.063 35.393v30.932a12.83 12.83 0 0 0 .608 4.286 9.35 9.35 0 0 0 2.223 3.657 9.09 9.09 0 0 0 3.643 2.23c1.403.389 2.861.54 4.314.448h4.391l17.689.035 35.393.168-35.393.168-22.111.035a13.54 13.54 0 0 1-4.447-.448c-1.444-.465-2.757-1.265-3.832-2.335a9.84 9.84 0 0 1-2.345-3.824c-.463-1.431-.682-2.929-.65-4.433v-30.967l-.056-35.393.259-123.854.049-8.852v-4.415a18.18 18.18 0 0 1 .35-4.356z" class="d"/><use xlink:href="#D" class="f"/><path d="M50.614 95.741a17.84 17.84 0 0 1 4.52-.947c.344 0 .99.645.99.645z" class="e"/><use xlink:href="#E" class="f"/><path d="M58.765 94.866h-2.747c-.03 0-.057.019-.066.048s.003.06.028.077a2.62 2.62 0 0 1 .487.449h3.288s-.645-.574-.99-.574z" class="w"/><use xlink:href="#F" class="e"/><use xlink:href="#G" class="h"/><use xlink:href="#H"/><use xlink:href="#H" x="-22.689"/><ellipse cx="50.098" cy="107.509" rx="3.089" ry="3.792"/><ellipse cx="72.787" cy="107.509" rx="3.089" ry="3.792"/><path d="M37.481 102.963h30.422v6.172H37.481z"/><use xlink:href="#I"/><path d="M80.115 104.724c-.044-.454-1.092-2.285-3.815-3.385a23.2 23.2 0 0 0-6.97-1.147s-3.413-4.753-6.282-4.753H52.722c-1.43 1.778 9.442 7.027 10.9 7.027.421 0 4.011.494 4.011 6.7h11.428c.394.004 1.054-4.442 1.054-4.442z" class="f"/><use xlink:href="#H" x="-31.93"/><use xlink:href="#J" class="d"/><use xlink:href="#K" class="h"/><ellipse cx="40.857" cy="107.509" rx="3.089" ry="3.792" class="i"/><use xlink:href="#L"/><g class="b"><use xlink:href="#M"/><path d="M40.872 107.509h.632v2.569h-.632z"/><use xlink:href="#N"/><use xlink:href="#O"/><path d="M40.933 107.323l1.19-1.637.511.372-1.19 1.637z"/><use xlink:href="#P"/></g><use xlink:href="#Q" class="c"/><use xlink:href="#R" class="b"/><g class="c"><path d="M40.622 107.509h.632v2.569h-.632z"/><use xlink:href="#N" x="-0.25"/><use xlink:href="#O" x="-0.251"/><path d="M40.682 107.322l1.335-1.836.511.372-1.335 1.836z"/><use xlink:href="#S"/></g><use xlink:href="#T" class="b"/><use xlink:href="#U" class="c"/><use xlink:href="#V" class="j"/><ellipse cx="63.546" cy="107.509" rx="3.089" ry="3.792" class="i"/><use xlink:href="#L" x="22.689"/><g class="b"><use xlink:href="#M" x="22.689"/><path d="M63.561 107.509h.632v2.569h-.632z"/><use xlink:href="#N" x="22.689"/><use xlink:href="#O" x="22.689"/><path d="M63.622 107.323l1.19-1.637.511.371-1.19 1.637z"/><use xlink:href="#P" x="22.689"/></g><use xlink:href="#Q" x="22.689" class="c"/><use xlink:href="#R" x="22.689" class="b"/><g class="c"><path d="M63.311 107.509h.632v2.569h-.632z"/><use xlink:href="#N" x="22.439"/><use xlink:href="#O" x="22.438"/><path d="M63.372 107.323l1.334-1.836.511.371-1.334 1.836z"/><use xlink:href="#S" x="22.689"/></g><use xlink:href="#T" x="22.689" class="b"/><use xlink:href="#U" x="22.689" class="c"/><use xlink:href="#V" x="22.689" class="j"/><g class="e"><path d="M67.902 104.726v4.444H79.06c.392 0 1.042-4.389 1.054-4.444z"/><use xlink:href="#W"/></g><g class="q"><use xlink:href="#X"/><use xlink:href="#Y"/></g><use xlink:href="#Z" class="d"/><use xlink:href="#a" class="e"/><use xlink:href="#b" class="k"/><use xlink:href="#c" class="d"/><use xlink:href="#d" class="x"/><use xlink:href="#e" class="r"/><use xlink:href="#f" class="h"/><use xlink:href="#g" class="k"/><g class="l"><use xlink:href="#h"/><use xlink:href="#i"/><path d="M46.732 99.669l.764-3.093.083.021-.764 3.093z"/><use xlink:href="#j"/><use xlink:href="#k"/></g><use xlink:href="#l" class="e"/><use xlink:href="#m" class="d"/><use xlink:href="#n" class="l"/><use xlink:href="#D" x="-1.068" y="42.738" class="f"/><path d="M49.546 138.479a17.84 17.84 0 0 1 4.52-.947c.344 0 .99.645.99.645z" class="e"/><use xlink:href="#E" x="-1.068" y="42.738" class="f"/><use xlink:href="#o" class="w"/><use xlink:href="#F" x="-1.068" y="42.738" class="e"/><use xlink:href="#G" x="-1.068" y="42.738" class="h"/><use xlink:href="#H" x="-1.068" y="42.738"/><use xlink:href="#p"/><ellipse cx="49.03" cy="150.247" rx="3.089" ry="3.792"/><ellipse cx="71.719" cy="150.247" rx="3.089" ry="3.792"/><path d="M36.413 145.701h30.422v6.172H36.413z"/><use xlink:href="#I" x="-1.068" y="42.738"/><use xlink:href="#q" class="f"/><use xlink:href="#H" x="-32.998" y="42.738"/><use xlink:href="#J" x="-1.068" y="42.738" class="d"/><use xlink:href="#K" x="-1.068" y="42.738" class="h"/><ellipse cx="39.789" cy="150.247" rx="3.089" ry="3.792" class="i"/><use xlink:href="#L" x="-1.068" y="42.738"/><g class="b"><use xlink:href="#M" x="-1.068" y="42.738"/><path d="M39.804 150.247h.632v2.569h-.632z"/><use xlink:href="#N" x="-1.068" y="42.738"/><use xlink:href="#O" x="-1.068" y="42.738"/><path d="M39.865 150.061l1.19-1.637.511.372-1.19 1.637z"/><use xlink:href="#P" x="-1.068" y="42.738"/></g><use xlink:href="#Q" x="-1.068" y="42.738" class="c"/><use xlink:href="#R" x="-1.068" y="42.738" class="b"/><g class="c"><path d="M39.554 150.247h.632v2.569h-.632z"/><use xlink:href="#N" x="-1.318" y="42.738"/><use xlink:href="#O" x="-1.319" y="42.738"/><path d="M39.614 150.06l1.335-1.836.511.372-1.335 1.836z"/><use xlink:href="#S" x="-1.068" y="42.738"/></g><use xlink:href="#T" x="-1.068" y="42.738" class="b"/><use xlink:href="#U" x="-1.068" y="42.738" class="c"/><use xlink:href="#V" x="-1.068" y="42.738" class="j"/><ellipse cx="62.478" cy="150.247" rx="3.089" ry="3.792" class="i"/><use xlink:href="#L" x="21.621" y="42.738"/><g class="b"><use xlink:href="#M" x="21.621" y="42.738"/><path d="M62.493 150.247h.632v2.569h-.632z"/><use xlink:href="#N" x="21.621" y="42.738"/><use xlink:href="#O" x="21.621" y="42.738"/><path d="M62.554 150.061l1.19-1.637.511.371-1.19 1.637z"/><use xlink:href="#P" x="21.621" y="42.738"/></g><use xlink:href="#Q" x="21.621" y="42.738" class="c"/><use xlink:href="#R" x="21.621" y="42.738" class="b"/><g class="c"><path d="M62.243 150.247h.632v2.569h-.632z"/><use xlink:href="#N" x="21.371" y="42.738"/><use xlink:href="#O" x="21.37" y="42.738"/><path d="M62.304 150.061l1.334-1.836.511.371-1.334 1.836z"/><use xlink:href="#S" x="21.621" y="42.738"/></g><use xlink:href="#T" x="21.621" y="42.738" class="b"/><use xlink:href="#U" x="21.621" y="42.738" class="c"/><use xlink:href="#V" x="21.621" y="42.738" class="j"/><g class="e"><path d="M66.834 147.464v4.444h11.158c.392 0 1.042-4.389 1.054-4.444z"/><use xlink:href="#W" x="-1.068" y="42.738"/></g><g class="q"><use xlink:href="#X" x="-1.068" y="42.738"/><use xlink:href="#Y" x="-1.068" y="42.738"/></g><use xlink:href="#Z" x="-1.068" y="42.738" class="d"/><use xlink:href="#a" x="-1.068" y="42.738" class="e"/><use xlink:href="#b" x="-1.068" y="42.738" class="k"/><use xlink:href="#c" x="-1.068" y="42.738" class="d"/><use xlink:href="#d" x="-1.068" y="42.738" class="x"/><use xlink:href="#e" x="-1.068" y="42.738" class="r"/><use xlink:href="#f" x="-1.068" y="42.738" class="h"/><use xlink:href="#g" x="-1.068" y="42.738" class="k"/><g class="l"><use xlink:href="#h" x="-1.068" y="42.738"/><use xlink:href="#i" x="-1.068" y="42.738"/><path d="M45.664 142.407l.764-3.093.083.021-.764 3.093z"/><use xlink:href="#j" x="-1.068" y="42.738"/><use xlink:href="#k" x="-1.068" y="42.738"/></g><use xlink:href="#l" x="-1.068" y="42.738" class="e"/><use xlink:href="#m" x="-1.068" y="42.738" class="d"/><use xlink:href="#n" x="-1.068" y="42.738" class="l"/><use xlink:href="#D" x="-1.068" y="85.476" class="f"/><path d="M49.546 181.217a17.84 17.84 0 0 1 4.52-.947c.344 0 .99.645.99.645z" class="e"/><use xlink:href="#E" x="-1.068" y="85.476" class="f"/><use xlink:href="#o" y="42.738" class="w"/><use xlink:href="#F" x="-1.068" y="85.476" class="e"/><use xlink:href="#G" x="-1.068" y="85.476" class="h"/><use xlink:href="#H" x="-1.068" y="85.476"/><use xlink:href="#p" y="42.738"/><ellipse cx="49.03" cy="192.985" rx="3.089" ry="3.792"/><ellipse cx="71.719" cy="192.985" rx="3.089" ry="3.792"/><path d="M36.413 188.439h30.422v6.172H36.413z"/><use xlink:href="#I" x="-1.068" y="85.476"/><use xlink:href="#q" y="42.738" class="f"/><use xlink:href="#H" x="-32.998" y="85.476"/><use xlink:href="#J" x="-1.068" y="85.476" class="d"/><use xlink:href="#K" x="-1.068" y="85.476" class="h"/><ellipse cx="39.789" cy="192.985" rx="3.089" ry="3.792" class="i"/><use xlink:href="#L" x="-1.068" y="85.476"/><g class="b"><use xlink:href="#M" x="-1.068" y="85.476"/><path d="M39.804 192.985h.632v2.569h-.632z"/><use xlink:href="#N" x="-1.068" y="85.476"/><use xlink:href="#O" x="-1.068" y="85.476"/><path d="M39.865 192.799l1.19-1.637.511.372-1.19 1.637z"/><use xlink:href="#P" x="-1.068" y="85.476"/></g><use xlink:href="#Q" x="-1.068" y="85.476" class="c"/><use xlink:href="#R" x="-1.068" y="85.476" class="b"/><g class="c"><path d="M39.554 192.985h.632v2.569h-.632z"/><use xlink:href="#N" x="-1.318" y="85.476"/><use xlink:href="#O" x="-1.319" y="85.476"/><path d="M39.614 192.798l1.335-1.836.511.372-1.335 1.836z"/><use xlink:href="#S" x="-1.068" y="85.476"/></g><use xlink:href="#T" x="-1.068" y="85.476" class="b"/><use xlink:href="#U" x="-1.068" y="85.476" class="c"/><use xlink:href="#V" x="-1.068" y="85.476" class="j"/><ellipse cx="62.478" cy="192.985" rx="3.089" ry="3.792" class="i"/><use xlink:href="#L" x="21.621" y="85.476"/><g class="b"><use xlink:href="#M" x="21.621" y="85.476"/><path d="M62.493 192.985h.632v2.569h-.632z"/><use xlink:href="#N" x="21.621" y="85.476"/><use xlink:href="#O" x="21.621" y="85.476"/><path d="M62.554 192.799l1.19-1.637.511.371-1.19 1.637z"/><use xlink:href="#P" x="21.621" y="85.476"/></g><use xlink:href="#Q" x="21.621" y="85.476" class="c"/><use xlink:href="#R" x="21.621" y="85.476" class="b"/><g class="c"><path d="M62.243 192.985h.632v2.569h-.632z"/><use xlink:href="#N" x="21.371" y="85.476"/><use xlink:href="#O" x="21.37" y="85.476"/><path d="M62.304 192.799l1.334-1.836.511.371-1.334 1.836z"/><use xlink:href="#S" x="21.621" y="85.476"/></g><use xlink:href="#T" x="21.621" y="85.476" class="b"/><use xlink:href="#U" x="21.621" y="85.476" class="c"/><use xlink:href="#V" x="21.621" y="85.476" class="j"/><g class="e"><path d="M66.834 190.202v4.444h11.158c.392 0 1.042-4.389 1.054-4.444z"/><use xlink:href="#W" x="-1.068" y="85.476"/></g><g class="q"><use xlink:href="#X" x="-1.068" y="85.476"/><use xlink:href="#Y" x="-1.068" y="85.476"/></g><use xlink:href="#Z" x="-1.068" y="85.476" class="d"/><use xlink:href="#a" x="-1.068" y="85.476" class="e"/><use xlink:href="#b" x="-1.068" y="85.476" class="k"/><use xlink:href="#c" x="-1.068" y="85.476" class="d"/><use xlink:href="#d" x="-1.068" y="85.476" class="x"/><use xlink:href="#e" x="-1.068" y="85.476" class="r"/><use xlink:href="#f" x="-1.068" y="85.476" class="h"/><use xlink:href="#g" x="-1.068" y="85.476" class="k"/><g class="l"><use xlink:href="#h" x="-1.068" y="85.476"/><use xlink:href="#i" x="-1.068" y="85.476"/><path d="M45.664 185.145l.764-3.093.083.021-.764 3.093z"/><use xlink:href="#j" x="-1.068" y="85.476"/><use xlink:href="#k" x="-1.068" y="85.476"/></g><use xlink:href="#l" x="-1.068" y="85.476" class="e"/><use xlink:href="#m" x="-1.068" y="85.476" class="d"/><use xlink:href="#n" x="-1.068" y="85.476" class="l"/><ellipse cx="79.885" cy="289.472" rx="79.885" ry="5.585" class="v"/><path d="M194.638 106.219c.04 4.506.824 12.618 4.449 14.886a17.12 17.12 0 0 1-9.048 9.182c-7.476-2.283-4.415-6.416-4.415-6.416 4.594-2.145 3.733-5.7 2.2-8.9zm4.56 23.713c-1.031 3.729-2.156 7.545-3.322 11.259-.592 1.859-1.221 3.7-1.888 5.5a55.46 55.46 0 0 1-2.141 5.183 19.7 19.7 0 0 1-1.2 2.179c-.1.145-.2.312-.292.416l-.136.18c-.044.06-.155.184-.228.274l-.982 1.165-3.784 4.711c-2.481 3.164-4.878 6.391-7.157 9.726l2.827 2.5c3.029-2.656 5.953-5.41 8.814-8.206l4.264-4.2 1.048-1.046c.095-.1.159-.151.278-.282l.351-.39c.246-.268.427-.515.626-.77.699-.941 1.334-1.929 1.9-2.956 1.946-3.722 3.582-7.598 4.894-11.588a137.74 137.74 0 0 0 3.513-11.758z" class="m"/><path d="M209.081 124.142c3.135 4.607-.869 15.972-.869 15.972h-14.138s-.13-9.4 1.836-13.022c2.546-4.695 11.136-5.94 13.171-2.95z" class="g"/><path d="M173.792 171.525l5.459-1.6 2.86 1.134c-.028 3.1-4.268 5.319-4.268 5.319l-3.307 3.041c-.701.645-1.741.757-2.563.274l-2.053-1.206c-.524-.308-.895-.822-1.021-1.417s.003-1.215.357-1.71l.893-1.247a6.86 6.86 0 0 1 3.643-2.588z" class="m"/><g class="g"><path d="M122.257 139.761l7.274-7.274c1.582-1.592 1.582-4.163 0-5.755-1.592-1.582-4.163-1.582-5.755 0l-7.274 7.274c-1.582 1.592-1.582 4.163 0 5.755 1.592 1.582 4.163 1.582 5.755 0z"/><rect width="7.482" height="13.258" rx="3.741" transform="matrix(-.707107 .707107 -.707107 -.707107 134.689178 139.630953)"/><path d="M195.184 212.204l6.789-6.789a2.04 2.04 0 0 0-.026-2.91l-69.112-66.685a2.04 2.04 0 0 0-2.858.026l-4.361 4.36a2.04 2.04 0 0 0-.026 2.859l66.685 69.112a2.04 2.04 0 0 0 2.909.027zM52.12 62.35c19.578-19.577 51.319-19.576 70.896.002s19.577 51.319 0 70.896-51.318 19.578-70.896.002-19.578-51.321 0-70.9zm65.344 65.343a42.28 42.28 0 1 0-59.784 0c16.509 16.508 43.275 16.509 59.784.001zm56.107 4.159c.647 4.669 3.342 15.363 12.634 39.766l29.651-6.091c-2.638-10.606-4.15-17.655-3.986-37.192.022-2.181-.88-4.27-2.482-5.75s-3.756-2.214-5.929-2.02a68.77 68.77 0 0 0-4.374.535 96.35 96.35 0 0 0-13.464 2.766c-3.379 1.022-6.975 2.389-9.33 3.328a4.37 4.37 0 0 0-2.72 4.658z"/></g><path d="M172.455 133.749l-.9 5.522-1.216 5.5c-.454 1.778-1.003 3.53-1.642 5.25-.58 1.628-1.317 3.195-2.2 4.681a14.39 14.39 0 0 1-1.35 1.854l-.36.372c-.129.14-.181.165-.27.264a5.06 5.06 0 0 1-.716.486 15.38 15.38 0 0 1-4.6 1.456c-3.713.574-7.467.842-11.224.8l-.55 3.734a43.72 43.72 0 0 0 12.4 1.43c2.345-.05 4.663-.516 6.845-1.375.642-.276 1.258-.611 1.839-1a11.03 11.03 0 0 0 .874-.674l.714-.647a20.96 20.96 0 0 0 2.331-2.775c2.355-3.652 4.111-7.657 5.2-11.863.568-2.006 1.074-4.013 1.449-6.04.386-2.045.721-4.005.936-6.177z" class="m"/><path d="M175.699 127.563c-6.251 4.183-6.265 14.5-6.265 14.5l12.8 7.96s3.55-9.617 2.558-16.9c-.582-4.249-5.248-8.135-9.093-5.56z" class="g"/><g class="m"><path d="M149.68 159.948l-8.064-.328 4.05 6.159s4.195-.558 5.129-3.438z"/><path d="M138.792 164.266l.77 1.108c.529.762 1.449 1.154 2.365 1.007l3.739-.6-4.05-6.159-2.038 1.164c-.589.336-1.01.905-1.16 1.567s-.014 1.356.374 1.913z"/></g><g class="g"><path d="M177.556 101.261c-.032.6-.375 1.07-.767 1.049s-.685-.524-.654-1.124.375-1.071.767-1.05.686.524.654 1.125z"/><path d="M177.075 100.179l-1.42-.491s.68 1.165 1.42.491z"/></g><path fill="#ed893e" d="M176.975 102.572c-.606 1.341-1.394 2.592-2.341 3.719.596.475 1.372.663 2.119.513z"/><path d="M179.843 99.804c-.152.016-.297-.069-.359-.209a4.17 4.17 0 0 0-2.738-1.929c-.126-.022-.23-.111-.272-.232s-.015-.255.07-.351.216-.137.34-.109c1.368.272 2.552 1.124 3.245 2.335.038.086.04.183.006.271s-.101.158-.187.195c-.034.015-.069.025-.106.029z" class="g"/><path d="M197.986 100.128c-.839 7.349-1.037 10.478-4.959 14.067-5.9 5.4-14.743 2.761-16.116-4.691-1.236-6.707.344-17.6 7.714-20.156a10.09 10.09 0 0 1 13.361 10.78z" class="m"/><g class="g"><path d="M180.162 102.907c-3.415-5.24-5.142-11.735-1.85-15.57s8.251 0 8.251 0 13.281-4.817 17.584.748c6.235 8.066-1.923 13.176.082 15.421s4.751 5.391 2.264 10.066c-2.717 5.1-23.39 1.17-26.33 7.037-8.664-.471-4.16-14.572-.001-17.702z"/><path d="M205.168 105.68a.21.21 0 0 0 .157-.351c-.618-.692-.088-1.766.645-3.253 1.347-2.73 3.382-6.854-.717-12.156-.034-.045-.084-.074-.14-.081s-.112.008-.155.043a.21.21 0 0 0-.038.295c3.938 5.094 2.051 8.92.673 11.713-.776 1.572-1.389 2.815-.581 3.719.04.044.096.07.156.071zm-28.054 14.089a5.87 5.87 0 0 0 1.241-.146.21.21 0 0 0-.089-.411c-1.844.4-3.041-.088-3.562-1.445-1.416-3.7 2.611-12.69 5.833-14.519.101-.058.136-.187.079-.288a.21.21 0 0 0-.286-.079c-3.415 1.939-7.523 11.1-6.018 15.035.406 1.181 1.556 1.941 2.802 1.853z"/></g><path d="M181.052 104.027c-.735 1.18-1.94 1.99-3.31 2.224-1.317.207-.956-1.8-.322-3.666.571-1.681 1.944-3.815 3.137-3.152 1.179.654 1.325 3.002.495 4.594z" class="m"/><g class="s"><path d="M251.537 297.129a2.8 2.8 0 0 1-1.844-.276.98.98 0 0 1-.4-.823.57.57 0 0 1 .252-.5c.858-.589 3.967.623 4.318.763.07.027.115.096.112.172s-.054.14-.126.161c-.753.239-1.527.408-2.312.503zm-1.476-1.4a.7.7 0 0 0-.321.1c-.068.043-.106.12-.1.2a.63.63 0 0 0 .258.542c.49.359 1.718.307 3.334-.131a9.6 9.6 0 0 0-3.171-.713z"/><path d="M253.81 296.635c-.025.003-.05 0-.073-.008-.924-.311-2.834-1.734-2.781-2.588.012-.2.129-.464.609-.562a1.28 1.28 0 0 1 1 .205c1.01.683 1.382 2.662 1.4 2.746.009.048-.002.099-.032.138s-.075.064-.124.069zm-2.069-2.828a1 1 0 0 0-.1.017c-.318.065-.326.195-.328.237-.032.513 1.282 1.652 2.238 2.107-.157-.836-.572-1.603-1.185-2.193-.181-.129-.403-.189-.625-.168z"/></g><path d="M262.426 298.05l-7.307 1.422-8.079-18.012 7.307-1.421z" class="m"/><path d="M253.24 296.284l7.893-2.8c.125-.054.268-.05.39.011s.211.172.244.304l2.347 6.166a1.53 1.53 0 0 1-.935 1.737c-2.759.924-5.633 1.372-9.21 2.245a39.35 39.35 0 0 1-8.779 1.291c-3.06 0-2.674-3.093-1.315-3.374 6.093-1.256 6.641-2.376 8.258-4.7.269-.401.656-.708 1.107-.88z" class="g"/><path d="M247.044 281.464l4.163 9.285 7.31-1.422-4.163-9.285z" opacity=".2"/><path d="M216.179 165.248c10.353 9.63 11.073 41.48 18.568 63.061 12.06 21.716 23.149 56.808 23.149 56.808l-10.066 2.771-25.289-52.026c-10.885-23.669-25.328-66.663-25.328-66.663z" class="s"/><path d="M208.909 181.659a90.78 90.78 0 0 1-1.1 17.476l-5.185-14.344z" opacity=".2"/><g class="s"><path d="M183.5 297.282a2.8 2.8 0 0 1-1.808-.459.98.98 0 0 1-.319-.859c.011-.198.125-.376.3-.469.912-.5 3.884 1.016 4.219 1.191.067.034.105.107.095.182s-.068.134-.142.148c-.772.161-1.557.251-2.345.266zm-1.329-1.542c-.113-.006-.226.016-.329.064-.072.037-.117.111-.117.192-.032.21.043.422.2.565.453.406 1.679.478 3.33.2a9.6 9.6 0 0 0-3.084-1.02z"/><path d="M185.813 297.019c-.025 0-.05-.005-.073-.015-.889-.4-2.646-2.009-2.508-2.853.032-.2.174-.449.663-.5a1.28 1.28 0 0 1 .978.305c.937.78 1.109 2.786 1.116 2.872.004.049-.012.098-.046.134s-.081.057-.13.056zm-1.776-3.021h-.106c-.322.033-.343.162-.35.2-.083.507 1.11 1.772 2.016 2.32-.07-.847-.402-1.65-.95-2.3-.171-.145-.388-.223-.612-.22z"/></g><path d="M193.66 298.654l-7.37 1.113-3.56-16.918 7.37-1.113z" class="m"/><path d="M185.056 296.765h8.374a.59.59 0 0 1 .595.509l.954 6.626a1.2 1.2 0 0 1-1.195 1.325l-8.008-.222c-2.265 0-7.446.235-10.573.235-3.06 0-3.3-3.093-1.992-3.374 5.841-1.256 8.634-2.988 10.6-4.641.349-.294.789-.456 1.245-.458z" class="g"/><path d="M182.736 282.853l1.834 8.721 7.373-1.114-1.834-8.721z" opacity=".2"/><path d="M186.206 171.623s-19.291 37.326-17.156 59.96c2.221 23.542 14.173 57.873 14.173 57.873l8.979-1.624s-6.843-43.435-11.08-59.522c10.371-23.891 40.58-32.945 26.8-61.146-4.043.704-21.716 4.459-21.716 4.459z" class="s"/><g class="g"><path d="M215.941 163.701l1.3 2.5c.146.185-.055.445-.4.515l-30.517 6.269c-.267.055-.516-.031-.567-.195l-.813-2.6c-.057-.18.144-.383.436-.443l30.026-6.168a.55.55 0 0 1 .535.122z"/><path d="M212.601 167.886l.8-.165c.16-.033.265-.14.233-.239l-1.086-3.371c-.032-.1-.188-.152-.348-.119l-.8.165c-.16.033-.266.14-.233.24l1.085 3.371c.032.097.189.151.349.118zm-23.949 4.921l.8-.166c.16-.032.265-.14.233-.239l-1.086-3.371c-.032-.1-.188-.152-.349-.12l-.8.166c-.16.033-.266.14-.233.239l1.085 3.371c.033.098.19.153.35.12zm11.975-2.461l.8-.165c.16-.033.265-.141.233-.24l-1.086-3.371c-.032-.1-.188-.152-.349-.119l-.8.165c-.16.033-.266.14-.233.239l1.085 3.371c.033.099.19.153.35.12z"/></g><g clip-path="url(#A)" transform="translate(2144.769 2465)"><path d="M-2007.416-2336.246h-114.031v-79.854h114.031z" class="f"/><path fill="#acc7ea" d="M-2121.439-2351.383h114.031v31.207h-114.031z"/><path d="M-2052.012-2376.761c0 .6.46 1.089 2.283 1.089s4.317-.488 4.317-1.089-2.494-1.089-4.317-1.089-2.283.488-2.283 1.089z" class="f"/><path d="M-2021.309-2348.982c0 .856-24.516 1.55-54.757 1.55s-54.757-.695-54.757-1.55 24.515-1.55 54.757-1.55 54.757.694 54.757 1.55z" class="h"/><path d="M-2026.822-2358.268c0 5.128-3.388 9.286-7.566 9.286h-4.866v-18.572h4.865c4.179 0 7.567 4.157 7.567 9.286z"/><use xlink:href="#r"/><ellipse cx="-2094.819" cy="-2358.268" rx="7.566" ry="9.286"/><ellipse cx="-2039.254" cy="-2358.268" rx="7.566" ry="9.286"/><path d="M-2125.719-2369.399h74.503v15.115h-74.503z"/><path d="M-2049.453-2358.268c0 5.128-3.387 9.286-7.566 9.286h-4.866v-18.572h4.865c4.179 0 7.567 4.157 7.567 9.286z"/><path d="M-2021.31-2365.087c-.107-1.111-2.676-5.606-9.343-8.287-6.814-2.74-17.07-2.81-17.07-2.81s-8.357-11.641-15.382-11.641h-25.289c-3.5 4.355 23.123 17.21 26.705 17.21 1.032 0 9.824 1.21 9.824 16.418h27.976c.966.001 2.579-10.89 2.579-10.89z" fill="#ffdb72"/><path d="M-2105.019-2358.268c0 5.128-3.387 9.286-7.566 9.286h-4.866v-18.572h4.866c4.178 0 7.566 4.157 7.566 9.286z"/><path d="M-2046.597-2365.08c0-.984-2.529-5.55-9.343-8.289s-17.07-2.81-17.07-2.81-8.359-11.646-15.384-11.646a61 61 0 0 0-32.4 9.413c-2.973.315-5.335.407-6.81 1.574-1.176.93-1.819 5.949-1.819 9.725.005.968-1.4 1.84-1.4 2.552 0 4.873 1.913 9.417 5.1 10.277v-3.984c0-5.529 3.709-10.028 8.269-10.028s8.268 4.5 8.268 10.028v2.807c0 .335.133.657.37.894s.559.37.894.37h36.499c.698 0 1.264-.566 1.265-1.264v-2.807c0-5.529 3.709-10.028 8.269-10.028s8.268 4.5 8.268 10.028v2.807c0 .335.133.657.371.894s.559.37.894.37h3.174c.969.001 2.584-10.42 2.585-10.883z" class="o"/><path d="M-2106.379-2378.7c-.994-.539-1.57-1.62-1.461-2.746s.881-2.077 1.961-2.414a59.32 59.32 0 0 1 17.485-2.7c4.116 0 10.336 5.7 13.072 10.63a.62.62 0 0 1-.546.913c-18.637.037-26.61-1.529-30.511-3.683z" class="h"/><ellipse cx="-2117.451" cy="-2358.268" rx="7.566" ry="9.286" class="i"/><path d="M-2117.451-2364.276c-2.695 0-4.895 2.7-4.895 6.007s2.2 6.008 4.895 6.008 4.895-2.7 4.895-6.008-2.196-6.007-4.895-6.007z" fill="#a6a6a6"/><path d="M-2116.357-2359.551c-.066 0-.834-.014-.9 0-.514.203-.825.73-.754 1.278 0 .584.757 1.278.757 1.278h.9a1.18 1.18 0 0 0 1.043-1.278 1.18 1.18 0 0 0-1.046-1.278z" class="b"/><g class="t"><path d="M-2117.414-2358.268h1.548v6.293h-1.548z"/><path d="M-2121.972-2357.349l5.092-1.655.478 1.471-5.092 1.655z"/><use xlink:href="#s"/><path d="M-2117.267-2358.724l2.916-4.01 1.252.91-2.916 4.01z"/><path d="M-2116.88-2357.532l.478-1.472 4.085 1.327-.478 1.472z"/></g><use xlink:href="#t" class="c"/><path d="M-2121.264-2358.269c0 3.088 1.909 5.637 4.354 5.969a3.99 3.99 0 0 1-.541.039c-2.695 0-4.895-2.695-4.895-6.008s2.2-6.007 4.895-6.007a4.04 4.04 0 0 1 .541.039c-2.445.332-4.354 2.881-4.354 5.968z" class="t"/><g class="u"><path d="M-2118.027-2358.268h1.548v6.293h-1.548z"/><path d="M-2122.585-2357.349l5.092-1.655.478 1.471-5.092 1.655z"/><path d="M-2121.345-2362.583l1.252-.91 3.466 4.77-1.252.91z"/><path d="M-2117.88-2358.724l3.27-4.497 1.252.91-3.27 4.497z"/><path d="M-2117.493-2357.532l.478-1.472 4.697 1.526-.478 1.472z"/></g><use xlink:href="#u" class="b"/><use xlink:href="#v" class="u"/><use xlink:href="#w" class="j"/><ellipse cx="-2061.886" cy="-2358.268" rx="7.566" ry="9.286" class="i"/><path d="M-2061.885-2364.276c-2.695 0-4.895 2.7-4.895 6.007s2.2 6.008 4.895 6.008 4.895-2.695 4.895-6.008-2.196-6.007-4.895-6.007z" fill="#a6a6a6"/><path d="M-2060.792-2359.551c-.066 0-.834-.014-.9 0-.514.203-.825.73-.754 1.278 0 .584.758 1.278.758 1.278h.9a1.18 1.18 0 0 0 1.042-1.278 1.18 1.18 0 0 0-1.046-1.278z" class="b"/><g class="t"><path d="M-2061.849-2358.268h1.548v6.293h-1.548z"/><path d="M-2066.407-2357.35l5.092-1.654.478 1.471-5.092 1.654z"/><path d="M-2065.167-2362.583l1.252-.91 3.466 4.77-1.252.91z"/><path d="M-2061.702-2358.723l2.914-4.011 1.252.91-2.914 4.011z"/><path d="M-2061.315-2357.532l.478-1.472 4.085 1.327-.478 1.472z"/></g><path d="M-2061.689-2359.551a1.18 1.18 0 0 0-1.041 1.278 1.18 1.18 0 0 0 1.041 1.278 1.18 1.18 0 0 0 1.042-1.278 1.18 1.18 0 0 0-1.042-1.278z" class="c"/><path d="M-2065.698-2358.269c0 3.088 1.909 5.637 4.354 5.969-.179.025-.36.038-.541.039-2.695 0-4.895-2.695-4.895-6.008s2.2-6.007 4.895-6.007a4.04 4.04 0 0 1 .541.039c-2.445.332-4.354 2.881-4.354 5.968z" class="t"/><g class="u"><path d="M-2062.462-2358.268h1.548v6.293h-1.548z"/><path d="M-2067.02-2357.35l5.092-1.654.478 1.471-5.092 1.654z"/><path d="M-2065.78-2362.583l1.252-.91 3.466 4.77-1.252.91z"/><path d="M-2062.315-2358.723l3.268-4.498 1.252.91-3.268 4.498z"/><path d="M-2061.928-2357.532l.478-1.472 4.697 1.526-.478 1.472z"/></g><path d="M-2056.325-2358.268c0-3.77-2.49-6.825-5.561-6.825s-5.561 3.055-5.561 6.825 2.49 6.825 5.561 6.825 5.561-3.056 5.561-6.825zm-.515 0c0 3.415-2.264 6.193-5.046 6.193s-5.046-2.779-5.046-6.194 2.264-6.192 5.046-6.192 5.046 2.778 5.046 6.192z" class="b"/><path d="M-2056.491-2358.268c0-3.657-2.415-6.621-5.395-6.621s-5.394 2.964-5.394 6.621 2.415 6.62 5.394 6.62 5.395-2.964 5.395-6.62zm-.5 0c0 3.313-2.2 6.008-4.895 6.008s-4.894-2.696-4.894-6.009 2.2-6.007 4.894-6.007 4.895 2.695 4.895 6.007z" class="u"/><path d="M-2061.689-2359.104a.77.77 0 0 0-.677.832c-.038.415.263.785.677.832.415-.047.716-.416.678-.832a.77.77 0 0 0-.678-.832z" class="j"/><path d="M-2051.216-2365.081v10.884h27.327c.96 0 2.56-10.75 2.58-10.884z" class="o"/><g fill="#fcd461"><path d="M-2046.597-2365.079l-9.239-.016a11.23 11.23 0 0 1 2.219 6.827v2.808a1.26 1.26 0 0 0 .371.894c.238.237.559.371.894.371h3.174c.966 0 2.58-10.421 2.581-10.884zm-84.226.518c0 4.873 1.913 9.417 5.1 10.277v-3.984a10.75 10.75 0 0 1 3.614-8.279c-2.697-.166-5.161-.357-7.309-.566 0 .969-1.405 1.84-1.405 2.552zm21.641 6.293v2.807c0 .698.566 1.264 1.264 1.264h36.5c.335 0 .657-.133.894-.37s.371-.559.371-.894v-2.807a11.21 11.21 0 0 1 2.265-6.883l-44.355-.9a10.94 10.94 0 0 1 3.061 7.783z"/></g><g class="q"><path d="M-2049.804-2369.642c2.27 2.033 3.207 3.958 3.207 4.557l6.252-.008c-1.124-3.864-6.603-4.549-9.459-4.549zm25.527.243c-1.691.435-3.091 1.573-3.291 4.306h6.258c-.066-.646-.952-2.413-2.967-4.306z"/></g><path d="M-2029.631-2368.841a20.04 20.04 0 0 0-6.971-4.533c-6.814-2.74-17.07-2.81-17.07-2.81h-10.075s10.256.07 17.07 2.81a20.04 20.04 0 0 1 6.971 4.533c1.667 1.72 11.742 1.72 10.075 0z" fill="#fcd461"/><path d="M-2029.632-2368.841a20.04 20.04 0 0 0-6.97-4.533c-6.814-2.74-17.071-2.81-17.071-2.81h-.823s10.256.07 17.07 2.81a20.04 20.04 0 0 1 6.971 4.533c.788.813-1.048 1.241-3.379 1.285 2.696.05 5.082-.378 4.202-1.285z" class="o"/><path d="M-2059.979-2386.56h-22.76c5.7 3.012 10.994 10.377 10.994 10.377h23.182s-5.715-7.365-11.416-10.377z" class="k"/><path d="M-2094.189-2358.106h15.156c4.847 0-3.723-4.036-16.157-4.036-7.377 0-7.432 4.036 1.001 4.036z" class="o"/><path d="M-2129.134-2371.472h-.034l-.243 3.662h.277a1.76 1.76 0 0 0 1.759-1.762v-.141a1.76 1.76 0 0 0-1.759-1.759z" class="r"/><path d="M-2051.791-2355.216c-.225.003-.443-.085-.603-.243s-.251-.375-.251-.6v-2.21c0-6.137-4.116-11.13-9.177-11.13s-9.178 4.993-9.178 11.131v2.214c0 .225-.09.44-.249.598s-.375.247-.6.246c-12.642-.06-24.91-.294-35.7-.935a.83.83 0 0 1-.779-.911c.587-6.679-3.732-12.343-9.122-12.343-4.824 0-8.791 4.537-9.15 10.276-.012.232-.121.449-.3.598s-.412.217-.642.187c-.887-.079-1.737-.397-2.458-.92.849 2.527 2.323 4.445 4.281 4.973v-3.983c0-5.531 3.709-10.031 8.269-10.031s8.268 4.5 8.268 10.028v2.807a1.26 1.26 0 0 0 .909 1.208v-.025a.71.71 0 0 0 .355.081h36.5c.146.008.291-.027.418-.099v.025a1.26 1.26 0 0 0 .846-1.188v-2.806c0-5.531 3.709-10.031 8.269-10.031s8.268 4.5 8.268 10.028v2.807c.001.585.403 1.092.972 1.227v-.014a.75.75 0 0 0 .293.051h3.174c.191 0 .407-.412.631-1.069l-3.244.053z" fill="#ffdb72"/><path d="M-2076.486-2377.782c-3.078-4.402-8.3-8.778-11.907-8.778a58.66 58.66 0 0 0-14.8 1.935c5.147 3.606 16.091 6.153 26.707 6.843z" class="h"/><path d="M-2071.818-2386.56c4.979 3.763 12.325 5.845 19.635 6.266a33.9 33.9 0 0 0-7.795-6.266z" class="k"/><g class="l"><path d="M-2059.979-2386.56h-.947c5.7 3.012 11.416 10.377 11.416 10.377h.947s-5.715-7.365-11.416-10.377zm-45.487 7.86c-.994-.539-1.57-1.62-1.461-2.746a2.81 2.81 0 0 1 1.961-2.414 59.5 59.5 0 0 1 16.762-2.692c-.063 0-.128-.008-.19-.008a59.32 59.32 0 0 0-17.489 2.7c-1.079.338-1.852 1.289-1.961 2.414s.466 2.207 1.461 2.746c3.9 2.154 11.874 3.721 30.511 3.683-17.975-.016-25.758-1.565-29.594-3.683z"/><path d="M-2103.067-2377.465l1.87-7.576.205.051-1.87 7.576zm27.746 1.534l-1.142-1.819a4.38 4.38 0 0 1-1.609 2.728h2.2a.62.62 0 0 0 .551-.909zm-3.343 2.226a.42.42 0 0 1-.348-.185l-1.398-2.04c-.131-.193-.081-.457.112-.588s.457-.081.588.112l1.4 2.042a.42.42 0 0 1-.347.66z"/></g><path d="M-2079.089-2376.761c0 .6-.459 1.089-2.283 1.089s-4.317-.488-4.317-1.089 2.5-1.089 4.32-1.089 2.28.488 2.28 1.089z" class="e"/><path d="M-2079.389-2377.425a3.2 3.2 0 0 0-1.98-.425c-1.82 0-4.32.488-4.32 1.089 0 .134.129.261.341.38.908.136 1.824.207 2.742.213 2.289-.001 3.064-.542 3.217-1.257z" class="d"/><path d="M-2097.757-2372.357h-.051l-4.271-.516c-.232-.028-.397-.239-.37-.471s.239-.397.471-.369l4.27.516a.42.42 0 0 1 .381.444.42.42 0 0 1-.431.396z" class="l"/></g><g class="n"><path d="M194.753 63.534l5.075-14.501-1.367-.518c-6.077-2.303-11.138-5.5-14.636-9.244-1.739-1.862-3.077-3.842-3.978-5.887-.914-2.076-1.378-4.224-1.378-6.384 0-3.333 1.086-6.58 3.228-9.652 2.12-3.043 5.177-5.787 9.084-8.158 3.96-2.403 8.583-4.292 13.74-5.615 5.364-1.377 11.066-2.075 16.948-2.075s11.584.698 16.949 2.075c5.156 1.323 9.778 3.212 13.74 5.615 3.906 2.37 6.962 5.115 9.083 8.158 2.142 3.072 3.228 6.319 3.228 9.652s-1.086 6.58-3.228 9.651c-2.12 3.043-5.177 5.788-9.084 8.159-3.96 2.403-8.583 4.293-13.74 5.616-5.364 1.376-11.066 2.074-16.948 2.074-5.096 0-10.086-.528-14.83-1.57l-.874-.192-11.012 12.796z"/><path d="M198.788 56.546l6.424-7.465 1.75.384C211.6 50.484 216.481 51 221.469 51c5.756 0 11.333-.682 16.576-2.027 5.013-1.287 9.5-3.119 13.334-5.446 3.727-2.261 6.63-4.863 8.632-7.733 1.962-2.816 2.958-5.775 2.958-8.794s-.996-5.979-2.958-8.794c-2.001-2.87-4.905-5.472-8.632-7.733-3.835-2.327-8.32-4.159-13.334-5.446C232.802 3.682 227.225 3 221.469 3s-11.333.682-16.576 2.027c-5.013 1.287-9.5 3.119-13.334 5.446-3.727 2.26-6.631 4.863-8.632 7.733-1.962 2.815-2.958 5.774-2.958 8.794 0 1.95.421 3.895 1.25 5.78.833 1.89 2.079 3.729 3.702 5.467 3.343 3.578 8.208 6.643 14.071 8.865l2.734 1.036-2.938 8.398m-8.07 13.975l7.211-20.604c-12.587-4.77-20.96-13.25-20.96-22.917 0-14.912 19.923-27 44.5-27s44.5 12.088 44.5 27-19.923 27-44.5 27c-5.32 0-10.422-.566-15.151-1.605l-15.6 18.126z" class="g"/></g><path d="M192.24 33.517a2.11 2.11 0 0 1-.28 1.21c-.197.271-.52.422-.854.4-.334.022-.657-.129-.854-.4a2.11 2.11 0 0 1-.28-1.21V26.53c-.03-.423.068-.846.28-1.213a.97.97 0 0 1 .854-.4.97.97 0 0 1 .854.4c.212.367.31.79.28 1.213zm1.443-.027v-4.437c-.03-.42.064-.84.27-1.207a.94.94 0 0 1 .831-.393 1.04 1.04 0 0 1 .595.174 1.5 1.5 0 0 1 .458.53 2.13 2.13 0 0 1 .82-.567 3.16 3.16 0 0 1 1.128-.178c.743-.051 1.472.22 2 .745a3.08 3.08 0 0 1 .69 2.167v3.165a2.15 2.15 0 0 1-.277 1.211c-.188.268-.502.42-.829.4-.329.021-.645-.13-.834-.4a2.15 2.15 0 0 1-.273-1.21v-2.5a2.36 2.36 0 0 0-.277-1.316 1.04 1.04 0 0 0-.913-.393c-.347-.026-.682.128-.889.407a2.24 2.24 0 0 0-.287 1.275v2.522a2.15 2.15 0 0 1-.278 1.215c-.189.27-.505.421-.834.4-.328.022-.644-.13-.831-.4a2.17 2.17 0 0 1-.27-1.211zm8.436-3.91h-.082a1.46 1.46 0 0 1-.913-.256.83.83 0 0 1-.332-.694.82.82 0 0 1 .332-.7 1.83 1.83 0 0 1 .995-.28v-.971a2.15 2.15 0 0 1 .273-1.21c.189-.27.505-.421.834-.4a.93.93 0 0 1 .824.4 2.17 2.17 0 0 1 .27 1.21v.971h.191a1.74 1.74 0 0 1 1.022.26.83.83 0 0 1 .366.718.8.8 0 0 1-.352.711 1.88 1.88 0 0 1-1.049.239h-.178v3.91a2.19 2.19 0 0 1-.265 1.212.93.93 0 0 1-.828.4c-.329.021-.645-.13-.834-.4a2.15 2.15 0 0 1-.273-1.21zm5.77.868h2.912a1.36 1.36 0 0 0-.451-.937 1.4 1.4 0 0 0-.978-.376 1.41 1.41 0 0 0-.964.355 1.65 1.65 0 0 0-.518.957zm.027 1.442a1.4 1.4 0 0 0 .513.971 1.8 1.8 0 0 0 1.155.349c.482-.017.955-.14 1.385-.36a3.56 3.56 0 0 1 .94-.359c.236-.009.465.077.636.239a.82.82 0 0 1 .246.615q0 .711-.991 1.282a4.59 4.59 0 0 1-2.331.573c-1.025.026-2.014-.379-2.727-1.116a3.83 3.83 0 0 1-1.094-2.8c-.032-1.042.351-2.055 1.063-2.816a3.49 3.49 0 0 1 2.649-1.128c.966-.023 1.896.362 2.564 1.06a3.57 3.57 0 0 1 1.032 2.591.9.9 0 0 1-.226.7c-.259.162-.564.232-.868.2zm5.757 1.6v-4.437c-.03-.42.064-.84.27-1.207a.94.94 0 0 1 .831-.393 1.04 1.04 0 0 1 .595.174 1.5 1.5 0 0 1 .458.53 2.48 2.48 0 0 1 .725-.557 1.74 1.74 0 0 1 .772-.188 1.09 1.09 0 0 1 .79.325 1.04 1.04 0 0 1 .332.769q0 .663-1.217 1.107-.438.157-.656.26a1.2 1.2 0 0 0-.554.441 1.96 1.96 0 0 0-.137.878v2.3a2.15 2.15 0 0 1-.273 1.208c-.189.27-.505.421-.834.4-.328.022-.644-.13-.831-.4a2.17 2.17 0 0 1-.269-1.211zm6.871-3.042h2.912a1.36 1.36 0 0 0-.451-.937 1.4 1.4 0 0 0-.978-.376 1.41 1.41 0 0 0-.964.355 1.65 1.65 0 0 0-.517.957zm.025 1.442a1.4 1.4 0 0 0 .513.971 1.8 1.8 0 0 0 1.155.349c.482-.017.955-.139 1.384-.359a3.56 3.56 0 0 1 .94-.359c.236-.009.465.077.636.239a.82.82 0 0 1 .246.615q0 .711-.991 1.282a4.59 4.59 0 0 1-2.327.572 3.67 3.67 0 0 1-2.728-1.116 3.83 3.83 0 0 1-1.094-2.8 3.95 3.95 0 0 1 1.066-2.812 3.49 3.49 0 0 1 2.649-1.128c.964-.023 1.893.36 2.561 1.056a3.57 3.57 0 0 1 1.032 2.591.9.9 0 0 1-.226.7c-.259.162-.564.232-.868.2zm7.873 3.322a3.71 3.71 0 0 1-1.958-.472c-.454-.217-.753-.666-.776-1.169-.006-.256.081-.505.246-.7.144-.182.363-.287.595-.287a2.7 2.7 0 0 1 1.02.316 2.7 2.7 0 0 0 1.019.321.72.72 0 0 0 .444-.13.39.39 0 0 0 .171-.321q0-.328-1.06-.752l-.137-.055a4.73 4.73 0 0 1-1.661-1 1.81 1.81 0 0 1-.444-1.254 2.16 2.16 0 0 1 .783-1.7 2.91 2.91 0 0 1 1.985-.679 3.46 3.46 0 0 1 1.832.458c.429.196.717.61.752 1.08a.9.9 0 0 1-.263.656c-.169.175-.403.272-.646.267-.299-.038-.59-.128-.858-.267a2.55 2.55 0 0 0-.919-.267c-.129-.006-.257.031-.362.106-.088.064-.139.168-.137.277q0 .308.875.643.41.157.649.267a3.98 3.98 0 0 1 1.412.94 1.79 1.79 0 0 1 .42 1.2 2.27 2.27 0 0 1-.844 1.8c-.6.495-1.361.751-2.138.722zm4.171-5.633h-.082a1.46 1.46 0 0 1-.913-.256.83.83 0 0 1-.332-.694.82.82 0 0 1 .332-.7 1.83 1.83 0 0 1 .995-.28v-.971a2.15 2.15 0 0 1 .273-1.21c.189-.27.505-.421.834-.4a.93.93 0 0 1 .824.4 2.17 2.17 0 0 1 .27 1.21v.971h.191a1.74 1.74 0 0 1 1.022.26.83.83 0 0 1 .366.718.8.8 0 0 1-.352.711 1.88 1.88 0 0 1-1.049.239h-.178v3.91a2.19 2.19 0 0 1-.267 1.213.93.93 0 0 1-.827.4c-.329.021-.645-.13-.834-.4a2.15 2.15 0 0 1-.273-1.21zm3.863-3.985a1.23 1.23 0 0 1 .376-.9 1.23 1.23 0 0 1 .9-.376 1.2 1.2 0 0 1 .889.376 1.24 1.24 0 0 1 .369.9c.006.337-.126.663-.366.9a1.21 1.21 0 0 1-.892.369c-.341.008-.67-.126-.909-.369-.241-.237-.374-.562-.367-.9zm2.365 7.9a2.19 2.19 0 0 1-.266 1.206c-.185.266-.497.415-.82.393-.329.021-.645-.13-.834-.4a2.15 2.15 0 0 1-.273-1.21v-4.43c-.03-.42.064-.84.27-1.207.191-.268.509-.417.837-.393.323-.022.635.127.82.393a2.17 2.17 0 0 1 .267 1.207zm1.334 0v-4.441c-.03-.42.064-.84.27-1.207a.94.94 0 0 1 .831-.393 1.04 1.04 0 0 1 .595.174 1.5 1.5 0 0 1 .458.53 2.13 2.13 0 0 1 .82-.567 3.16 3.16 0 0 1 1.128-.178c.743-.051 1.472.22 2 .745a3.08 3.08 0 0 1 .69 2.167v3.165a2.15 2.15 0 0 1-.277 1.211c-.189.27-.505.421-.834.4-.329.021-.645-.13-.834-.4a2.15 2.15 0 0 1-.273-1.21v-2.5a2.36 2.36 0 0 0-.28-1.312 1.04 1.04 0 0 0-.913-.393c-.347-.026-.682.128-.889.407a2.24 2.24 0 0 0-.287 1.275v2.522a2.15 2.15 0 0 1-.27 1.211c-.189.27-.505.421-.834.4-.328.022-.644-.13-.831-.4a2.17 2.17 0 0 1-.27-1.211zm12.75.588a2.37 2.37 0 0 1-.861.776 2.47 2.47 0 0 1-1.142.251c-.885.004-1.722-.402-2.266-1.1a4.1 4.1 0 0 1-.926-2.734 4.04 4.04 0 0 1 1-2.775 3.13 3.13 0 0 1 2.432-1.129c.341-.007.68.059.995.191a2.1 2.1 0 0 1 .769.595 1.5 1.5 0 0 1 .443-.516c.154-.118.343-.184.537-.188.328-.024.646.125.837.393.206.367.3.787.27 1.207v4.437c.011.639-.03 1.278-.122 1.91a3.18 3.18 0 0 1-.4 1.138 3.15 3.15 0 0 1-1.337 1.234 4.51 4.51 0 0 1-2.02.42 5.15 5.15 0 0 1-2.331-.458q-.9-.458-.9-1.155a.94.94 0 0 1 .266-.69c.179-.182.425-.281.68-.273a3.87 3.87 0 0 1 .954.294c.449.184.928.282 1.413.29a1.65 1.65 0 0 0 1.272-.482 1.94 1.94 0 0 0 .451-1.374q0-.041-.007-.13-.007-.089-.007-.137zm-2.912-2.8a2.1 2.1 0 0 0 .4 1.34c.243.329.63.52 1.039.513a1.28 1.28 0 0 0 1.046-.516 2.09 2.09 0 0 0 .41-1.336c.02-.468-.125-.928-.41-1.3a1.29 1.29 0 0 0-1.046-.5 1.27 1.27 0 0 0-1.039.5c-.278.371-.419.827-.4 1.291zm-40.504-14.11h4.5v3.264c0 .42.2.636.528.636s.528-.216.528-.636V13.02c0-.42-.2-.636-.528-.636s-.528.216-.528.636v3.24h-4.5v-3.24c0-.42-.2-.636-.528-.636s-.528.216-.528.636v7.416c0 .42.2.636.528.636s.528-.216.528-.636zm10.728 3.336a.51.51 0 0 0 .532.564.51.51 0 0 0 .528-.564v-3.576a1.31 1.31 0 0 1 1.352-1.476 1.31 1.31 0 0 1 1.368 1.476v3.576a.51.51 0 0 0 .528.564.51.51 0 0 0 .524-.564v-3.54a2.19 2.19 0 0 0-2.22-2.424 2.21 2.21 0 0 0-1.956 1.08 1.96 1.96 0 0 0-1.752-1.08 1.82 1.82 0 0 0-1.608.78l-.024-.024v-.192a.51.51 0 0 0-.528-.564.51.51 0 0 0-.528.564v5.4a.51.51 0 0 0 .528.564.51.51 0 0 0 .528-.564v-3.576a1.31 1.31 0 0 1 1.36-1.476 1.31 1.31 0 0 1 1.368 1.476zm6.924-.048c.002.336.272.608.608.612s.614-.273.616-.612-.277-.613-.616-.612a.61.61 0 0 0-.608.612zm4 0c.002.336.272.608.608.612.337-.002.61-.275.612-.612s-.275-.61-.612-.612-.61.275-.612.612zm4 0c.002.336.272.608.608.612.336-.004.606-.276.608-.612s-.272-.608-.608-.612-.614.273-.616.612z" class="g"/></svg>